<svg width="166" height="166" viewBox="0 0 166 166" fill="none" xmlns="http://www.w3.org/2000/svg">
<g filter="url(#filter0_d_363_5367)">
<path d="M43.4766 46.0394C42.8247 45.493 42.169 44.35 41.5705 42.7157C41.0225 41.2202 39.5974 40.2274 38.0047 40.2316L35.1108 40.2392C27.5078 40.2592 25.8764 40.9186 24.0447 44.7116C23.4174 46.0109 23.4027 47.6883 23.4027 118.498C23.4027 199.302 23.1994 192.27 25.5993 194.51C27.7749 196.541 25.7509 196.44 63.8544 196.432C102.55 196.424 100.044 196.567 102.238 194.237C104.324 192.023 104.175 197.843 104.175 118.408V47.8951C104.175 46.6525 103.886 45.427 103.33 44.3158C101.641 40.9429 99.7028 40.2246 92.2878 40.2246H89.5585C87.965 40.2246 86.5409 41.2195 85.9927 42.7157C85.3942 44.35 84.7385 45.493 84.0866 46.0394C83.4446 46.5773 82.6338 46.872 81.7962 46.872H63.7816H45.767C44.9294 46.872 44.1186 46.5773 43.4766 46.0394Z" fill="#111111"/>
<path d="M43.4766 46.0394C42.8247 45.493 42.169 44.35 41.5705 42.7157C41.0225 41.2202 39.5974 40.2274 38.0047 40.2316L35.1108 40.2392C27.5078 40.2592 25.8764 40.9186 24.0447 44.7116C23.4174 46.0109 23.4027 47.6883 23.4027 118.498C23.4027 199.302 23.1994 192.27 25.5993 194.51C27.7749 196.541 25.7509 196.44 63.8544 196.432C102.55 196.424 100.044 196.567 102.238 194.237C104.324 192.023 104.175 197.843 104.175 118.408V47.8951C104.175 46.6525 103.886 45.427 103.33 44.3158C101.641 40.9429 99.7028 40.2246 92.2878 40.2246H89.5585C87.965 40.2246 86.5409 41.2195 85.9927 42.7157C85.3942 44.35 84.7385 45.493 84.0866 46.0394C83.4446 46.5773 82.6338 46.872 81.7962 46.872H63.7816H45.767C44.9294 46.872 44.1186 46.5773 43.4766 46.0394Z" fill="url(#paint0_linear_363_5367)" fill-opacity="0.9"/>
</g>
<g filter="url(#filter1_d_363_5367)">
<path fill-rule="evenodd" clip-rule="evenodd" d="M27.2658 33.9422C22.021 35.183 17.6211 40.0276 16.7308 45.5416C16.2471 48.5383 16.2454 188.455 16.7294 191.424C17.6742 197.222 22.0984 201.785 27.9939 203.041C30.4656 203.568 97.0552 203.574 99.568 203.047C105.444 201.817 109.886 197.234 110.832 191.424C111.309 188.501 111.315 48.5622 110.839 45.5416C110.104 40.8755 107.06 36.9139 102.592 34.8064C101.106 34.1057 99.4837 33.7412 97.8408 33.7387L64.4486 33.6889C43.488 33.658 28.0226 33.7634 27.2658 33.9422ZM41.5698 42.7148C42.1684 44.3491 42.824 45.4921 43.476 46.0385C44.118 46.5764 44.9288 46.8711 45.7663 46.8711H63.7809H81.7956C82.6331 46.8711 83.4439 46.5764 84.0859 46.0385C84.7379 45.4921 85.3935 44.3491 85.9921 42.7148C86.5403 41.2186 87.9643 40.2237 89.5578 40.2237H92.2871C99.7022 40.2237 101.641 40.942 103.329 44.3149C103.885 45.4261 104.175 46.6516 104.175 47.8942V118.407C104.175 197.842 104.323 192.022 102.237 194.237C100.043 196.566 102.549 196.423 63.8537 196.431C25.7502 196.439 27.7742 196.541 25.5987 194.509C23.1988 192.269 23.4021 199.302 23.4021 118.497C23.4021 47.6874 23.4167 46.0099 24.044 44.7107C25.8757 40.9177 27.5072 40.2583 35.1102 40.2383L38.0041 40.2307C39.5968 40.2265 41.0219 41.2193 41.5698 42.7148Z" fill="#111111"/>
<path fill-rule="evenodd" clip-rule="evenodd" d="M27.2658 33.9422C22.021 35.183 17.6211 40.0276 16.7308 45.5416C16.2471 48.5383 16.2454 188.455 16.7294 191.424C17.6742 197.222 22.0984 201.785 27.9939 203.041C30.4656 203.568 97.0552 203.574 99.568 203.047C105.444 201.817 109.886 197.234 110.832 191.424C111.309 188.501 111.315 48.5622 110.839 45.5416C110.104 40.8755 107.06 36.9139 102.592 34.8064C101.106 34.1057 99.4837 33.7412 97.8408 33.7387L64.4486 33.6889C43.488 33.658 28.0226 33.7634 27.2658 33.9422ZM41.5698 42.7148C42.1684 44.3491 42.824 45.4921 43.476 46.0385C44.118 46.5764 44.9288 46.8711 45.7663 46.8711H63.7809H81.7956C82.6331 46.8711 83.4439 46.5764 84.0859 46.0385C84.7379 45.4921 85.3935 44.3491 85.9921 42.7148C86.5403 41.2186 87.9643 40.2237 89.5578 40.2237H92.2871C99.7022 40.2237 101.641 40.942 103.329 44.3149C103.885 45.4261 104.175 46.6516 104.175 47.8942V118.407C104.175 197.842 104.323 192.022 102.237 194.237C100.043 196.566 102.549 196.423 63.8537 196.431C25.7502 196.439 27.7742 196.541 25.5987 194.509C23.1988 192.269 23.4021 199.302 23.4021 118.497C23.4021 47.6874 23.4167 46.0099 24.044 44.7107C25.8757 40.9177 27.5072 40.2583 35.1102 40.2383L38.0041 40.2307C39.5968 40.2265 41.0219 41.2193 41.5698 42.7148Z" fill="#252525"/>
<path d="M41.7576 42.646L41.7576 42.646C41.1808 41.0715 39.6804 40.0263 38.0035 40.0307L35.1097 40.0383C31.3146 40.0483 28.9667 40.2159 27.3379 40.8742C25.6833 41.5429 24.7887 42.7089 23.8639 44.6237L23.8639 44.6238C23.6896 44.9848 23.5694 45.3653 23.4795 46.818C23.3895 48.2705 23.3288 50.82 23.2878 55.5358C23.2057 64.9699 23.2021 83.0929 23.2021 118.497C23.2021 124.85 23.2008 130.66 23.1997 135.974C23.1935 164.455 23.1904 178.701 23.4005 185.971C23.4628 188.128 23.544 189.674 23.6499 190.799C23.7555 191.92 23.8867 192.633 24.054 193.116C24.2252 193.61 24.4358 193.866 24.69 194.07C24.7795 194.142 24.8763 194.209 24.9712 194.274C25.0024 194.295 25.0333 194.317 25.0638 194.338C25.1904 194.427 25.3218 194.525 25.4622 194.656C25.5603 194.747 25.6512 194.836 25.7391 194.922C26.1214 195.296 26.4471 195.615 27.0632 195.854C27.8084 196.143 28.9802 196.321 31.2432 196.435C35.343 196.64 43.1136 196.638 58.6373 196.632C60.2869 196.632 62.0241 196.631 63.8538 196.631C66.0984 196.63 68.2044 196.63 70.181 196.63C85.2366 196.631 92.774 196.631 96.745 196.404C98.9854 196.276 100.123 196.075 100.84 195.743C101.402 195.482 101.707 195.135 102.059 194.733C102.161 194.618 102.266 194.498 102.383 194.374C102.506 194.243 102.621 194.142 102.734 194.044L102.759 194.022C102.862 193.933 102.967 193.842 103.065 193.738C103.286 193.502 103.466 193.207 103.613 192.678C103.9 191.642 104.076 189.653 104.188 185.285C104.382 177.7 104.38 162.869 104.376 133.215C104.375 128.641 104.375 123.714 104.375 118.407V47.8942C104.375 46.6205 104.078 45.3644 103.508 44.2254C102.649 42.5103 101.71 41.4413 100.025 40.8169C98.3643 40.2015 95.9912 40.0237 92.2871 40.0237H89.5578C87.8804 40.0237 86.3813 41.071 85.8043 42.646C85.2076 44.2752 84.5666 45.3747 83.9575 45.8852C83.3515 46.3929 82.5861 46.6711 81.7956 46.6711H63.7809H45.7663C44.9757 46.6711 44.2104 46.3929 43.6044 45.8852C42.9953 45.3747 42.3543 44.2751 41.7576 42.646ZM16.9282 45.5735C17.8063 40.1356 22.1494 35.3581 27.3118 34.1369L16.9282 45.5735ZM27.3119 34.1368C27.3399 34.1302 27.427 34.12 27.591 34.1091C27.7482 34.0987 27.9612 34.0885 28.2285 34.0786C28.7629 34.0587 29.5095 34.0401 30.451 34.0228C32.3337 33.9883 34.9919 33.9593 38.2822 33.9369C44.8624 33.8921 53.9683 33.8735 64.4483 33.8889L97.8405 33.9387C99.454 33.9411 101.047 34.2992 102.507 34.9873C106.918 37.0681 109.917 40.9755 110.642 45.5728C110.655 45.6531 110.669 45.868 110.683 46.2255C110.697 46.5772 110.71 47.0547 110.723 47.65C110.749 48.8405 110.773 50.4991 110.795 52.5595C110.84 56.6801 110.877 62.4052 110.906 69.1999C110.965 82.7892 110.994 100.656 110.993 118.519C110.992 136.383 110.962 154.243 110.901 167.821C110.871 174.609 110.834 180.327 110.789 184.438C110.767 186.494 110.742 188.148 110.716 189.333C110.703 189.925 110.69 190.4 110.676 190.749C110.662 191.104 110.648 191.315 110.635 191.392C109.702 197.118 105.325 201.638 99.527 202.852C99.3894 202.88 99.0009 202.911 98.3681 202.94C97.7439 202.969 96.9002 202.995 95.8677 203.02C93.803 203.069 90.9871 203.11 87.6701 203.143C81.0362 203.208 72.4004 203.24 63.7656 203.239C55.1307 203.238 46.4975 203.205 39.8687 203.138C36.5543 203.105 33.7416 203.064 31.6807 203.014C30.6502 202.989 29.8086 202.963 29.1867 202.934C28.5558 202.905 28.1702 202.874 28.0356 202.845C22.218 201.606 17.8579 197.106 16.9268 191.392C16.9141 191.314 16.8997 191.101 16.8853 190.745C16.8712 190.395 16.8575 189.919 16.8443 189.325C16.8179 188.137 16.7933 186.482 16.7707 184.424C16.7253 180.309 16.6876 174.589 16.6574 167.798C16.5971 154.217 16.567 136.356 16.5672 118.493C16.5674 100.631 16.5978 82.768 16.6584 69.1834C16.6887 62.391 16.7266 56.6686 16.772 52.5508C16.7947 50.4918 16.8192 48.8346 16.8457 47.6456C16.8589 47.051 16.8726 46.5743 16.8867 46.2234C16.901 45.8665 16.9154 45.6527 16.9282 45.5735L27.3119 34.1368Z" stroke="#CDCDCD" stroke-opacity="0.2" stroke-width="0.4"/>
</g>
<g filter="url(#filter2_d_363_5367)">
<path fill-rule="evenodd" clip-rule="evenodd" d="M110.303 19.124C102.627 29.4336 96.9859 49.1995 95.8886 69.6347C95.6673 73.7541 95.9199 73.4269 90.2841 76.8938C87.1605 78.8154 86.4332 79.5673 85.6294 81.7054C85.1243 83.0492 85.0134 119.426 85.5119 120.244C86.4846 121.84 86.587 121.787 96.1206 114.829C105.159 108.233 105.399 107.979 105.967 104.439C106.248 102.686 105.538 102.763 121.389 102.764C137.43 102.765 136.784 102.696 136.93 104.437C137.198 107.615 137.972 108.417 147.388 115.262C156.451 121.851 156.823 122.032 157.409 120.129C157.839 118.734 157.598 82.5053 157.152 81.4C156.393 79.5211 155.378 78.5608 151.904 76.4342C147.537 73.7612 147.809 74.1639 147.548 69.9976C145.366 35.1657 131.615 8.26932 118.299 12.7887C115.536 13.7262 112.575 16.0726 110.303 19.124ZM115.724 35.3965C120.922 31.8335 128.598 33.9146 131.464 39.6642C135.026 46.8074 129.961 55.2864 122.038 55.4434C111.024 55.6617 106.608 41.6449 115.724 35.3965ZM111.437 111.211C110.643 117.846 117.757 139.119 121.661 141.783C122.504 142.358 122.667 142.139 123.821 138.899C124.901 135.869 126.456 132.059 128.604 127.182C131.671 120.219 133.144 111.255 131.395 110.197C130.856 109.871 113.411 109.734 112.39 110.048C111.603 110.29 111.538 110.369 111.437 111.211Z" fill="#444444"/>
<path fill-rule="evenodd" clip-rule="evenodd" d="M110.303 19.124C102.627 29.4336 96.9859 49.1995 95.8886 69.6347C95.6673 73.7541 95.9199 73.4269 90.2841 76.8938C87.1605 78.8154 86.4332 79.5673 85.6294 81.7054C85.1243 83.0492 85.0134 119.426 85.5119 120.244C86.4846 121.84 86.587 121.787 96.1206 114.829C105.159 108.233 105.399 107.979 105.967 104.439C106.248 102.686 105.538 102.763 121.389 102.764C137.43 102.765 136.784 102.696 136.93 104.437C137.198 107.615 137.972 108.417 147.388 115.262C156.451 121.851 156.823 122.032 157.409 120.129C157.839 118.734 157.598 82.5053 157.152 81.4C156.393 79.5211 155.378 78.5608 151.904 76.4342C147.537 73.7612 147.809 74.1639 147.548 69.9976C145.366 35.1657 131.615 8.26932 118.299 12.7887C115.536 13.7262 112.575 16.0726 110.303 19.124ZM115.724 35.3965C120.922 31.8335 128.598 33.9146 131.464 39.6642C135.026 46.8074 129.961 55.2864 122.038 55.4434C111.024 55.6617 106.608 41.6449 115.724 35.3965ZM111.437 111.211C110.643 117.846 117.757 139.119 121.661 141.783C122.504 142.358 122.667 142.139 123.821 138.899C124.901 135.869 126.456 132.059 128.604 127.182C131.671 120.219 133.144 111.255 131.395 110.197C130.856 109.871 113.411 109.734 112.39 110.048C111.603 110.29 111.538 110.369 111.437 111.211Z" fill="url(#paint1_linear_363_5367)" fill-opacity="0.9"/>
<path d="M131.643 39.5749L131.464 39.6642L131.643 39.5749C128.725 33.7207 120.912 31.5973 115.611 35.2315C106.335 41.5895 110.824 55.8657 122.042 55.6434C130.114 55.4833 135.269 46.847 131.643 39.5749ZM96.0883 69.6455C97.1846 49.2282 102.821 29.5078 110.464 19.2435L110.303 19.124L110.464 19.2435C112.719 16.2147 115.649 13.8992 118.363 12.9781C121.613 11.875 124.901 12.6806 128.059 15.0819C131.222 17.487 134.24 21.4849 136.921 26.7275C142.28 37.2101 146.259 52.6138 147.348 70.0101C147.363 70.2394 147.376 70.4556 147.388 70.6599C147.43 71.3766 147.464 71.9454 147.526 72.4117C147.608 73.017 147.741 73.475 148.02 73.888C148.297 74.2971 148.706 74.6448 149.305 75.052C149.77 75.3684 150.363 75.7293 151.115 76.1871C151.33 76.318 151.558 76.4568 151.799 76.6048C153.536 77.6677 154.642 78.4301 155.408 79.1553C156.168 79.8737 156.596 80.5583 156.966 81.4749C156.966 81.4746 156.97 81.4859 156.977 81.5167C156.978 81.5256 156.98 81.5355 156.982 81.5464C156.986 81.5699 156.99 81.598 156.995 81.6309C157.008 81.7269 157.021 81.8561 157.034 82.0177C157.06 82.3406 157.085 82.7843 157.109 83.3331C157.157 84.43 157.202 85.9396 157.241 87.7259C157.32 91.2983 157.378 95.973 157.409 100.657C157.44 105.342 157.444 110.034 157.413 113.643C157.398 115.447 157.374 116.98 157.34 118.104C157.323 118.666 157.304 119.125 157.283 119.464C157.272 119.633 157.26 119.771 157.249 119.877C157.237 119.987 157.225 120.047 157.218 120.07C157.145 120.308 157.079 120.498 157.004 120.646C156.929 120.792 156.854 120.877 156.772 120.924C156.692 120.969 156.581 120.994 156.402 120.965C156.22 120.936 155.982 120.854 155.665 120.7C155.031 120.392 154.128 119.819 152.809 118.905C151.492 117.993 149.771 116.748 147.505 115.1C142.791 111.673 140.261 109.773 138.872 108.335C138.182 107.621 137.783 107.03 137.538 106.431C137.292 105.83 137.196 105.209 137.13 104.42C137.125 104.361 137.12 104.301 137.116 104.242C137.106 104.098 137.096 103.956 137.075 103.832C137.044 103.647 136.985 103.466 136.846 103.309C136.708 103.153 136.51 103.04 136.239 102.952C135.969 102.865 135.612 102.8 135.141 102.749C133.411 102.563 129.988 102.563 123.182 102.564C122.609 102.564 122.012 102.564 121.389 102.564C120.714 102.564 120.068 102.564 119.451 102.563C112.839 102.561 109.513 102.561 107.818 102.745C107.352 102.795 106.998 102.861 106.729 102.948C106.458 103.035 106.26 103.148 106.119 103.302C105.976 103.456 105.908 103.634 105.865 103.818C105.838 103.936 105.818 104.072 105.799 104.21C105.789 104.276 105.78 104.342 105.769 104.407C105.627 105.294 105.508 105.954 105.274 106.556C105.041 107.152 104.691 107.7 104.075 108.351C102.83 109.664 100.53 111.364 96.0027 114.668C91.2263 118.154 88.8355 119.892 87.515 120.566C86.8485 120.906 86.5175 120.94 86.3094 120.862C86.2056 120.823 86.1113 120.749 86.0097 120.627C85.9076 120.504 85.8083 120.346 85.6877 120.148C85.6867 120.145 85.6851 120.14 85.6829 120.131C85.6775 120.11 85.6713 120.078 85.6646 120.035C85.6512 119.949 85.6378 119.828 85.6248 119.674C85.5987 119.367 85.5747 118.937 85.5529 118.4C85.5093 117.327 85.4748 115.836 85.4489 114.063C85.3971 110.519 85.38 105.854 85.3943 101.173C85.4086 96.4911 85.4542 91.7936 85.5278 88.1831C85.5646 86.3776 85.6084 84.8451 85.6587 83.7226C85.6838 83.1611 85.7106 82.704 85.7387 82.3673C85.7528 82.1988 85.767 82.0625 85.7813 81.9593C85.7964 81.8503 85.8096 81.7945 85.8166 81.7758C86.2135 80.7201 86.5842 80.0256 87.2306 79.3575C87.8839 78.6821 88.8266 78.0252 90.3889 77.0641C90.6217 76.9209 90.8447 76.784 91.0582 76.653C92.134 75.9926 92.9699 75.4795 93.6182 75.042C94.3942 74.5183 94.9202 74.0908 95.2751 73.6311C95.6355 73.1644 95.8104 72.6765 95.9096 72.0506C95.9911 71.5362 96.0228 70.9163 96.063 70.1312C96.071 69.9759 96.0792 69.8142 96.0883 69.6455ZM121.661 141.783L121.774 141.618C121.319 141.307 120.798 140.71 120.235 139.866C119.675 139.026 119.084 137.959 118.485 136.728C117.286 134.265 116.059 131.157 114.977 127.923C113.895 124.688 112.961 121.332 112.346 118.372C111.73 115.405 111.441 112.859 111.636 111.235C111.661 111.024 111.683 110.873 111.712 110.757C111.74 110.644 111.773 110.578 111.811 110.531C111.849 110.485 111.905 110.442 112.007 110.395C112.112 110.347 112.252 110.3 112.449 110.239C112.489 110.227 112.596 110.21 112.783 110.194C112.963 110.178 113.2 110.163 113.487 110.151C114.06 110.125 114.825 110.106 115.718 110.093C117.503 110.067 119.795 110.065 122.072 110.083C124.349 110.1 126.611 110.138 128.336 110.192C129.199 110.219 129.926 110.25 130.453 110.284C130.717 110.301 130.928 110.319 131.081 110.337C131.157 110.346 131.216 110.355 131.257 110.363C131.284 110.368 131.297 110.372 131.301 110.373C131.458 110.472 131.602 110.675 131.714 111.009C131.827 111.345 131.899 111.79 131.929 112.329C131.988 113.407 131.874 114.828 131.609 116.443C131.078 119.67 129.948 123.636 128.421 127.101C126.272 131.98 124.714 135.795 123.633 138.832C123.344 139.642 123.119 140.259 122.93 140.722C122.74 141.188 122.593 141.48 122.464 141.652C122.34 141.818 122.262 141.835 122.205 141.831C122.115 141.825 121.99 141.765 121.774 141.618L121.661 141.783Z" stroke="#CDCDCD" stroke-opacity="0.2" stroke-width="0.4"/>
</g>
<g filter="url(#filter3_d_363_5367)">
<path d="M121.661 141.783C117.756 139.119 110.642 117.846 111.436 111.211C111.537 110.369 111.602 110.29 112.39 110.048C113.41 109.734 130.856 109.871 131.395 110.197C133.144 111.255 131.671 120.219 128.604 127.182C126.455 132.059 124.9 135.869 123.821 138.899C122.667 142.139 122.503 142.358 121.661 141.783Z" fill="#FFFAFA"/>
</g>
<path d="M131.465 39.6632C128.599 33.9136 120.923 31.8325 115.725 35.3955C106.609 41.6439 111.025 55.6607 122.039 55.4424C129.962 55.2854 135.027 46.8064 131.465 39.6632Z" fill="white"/>
<defs>
<filter id="filter0_d_363_5367" x="7.39844" y="28.2246" width="104.779" height="180.21" filterUnits="userSpaceOnUse" color-interpolation-filters="sRGB">
<feFlood flood-opacity="0" result="BackgroundImageFix"/>
<feColorMatrix in="SourceAlpha" type="matrix" values="0 0 0 0 0 0 0 0 0 0 0 0 0 0 0 0 0 0 127 0" result="hardAlpha"/>
<feOffset dx="-4"/>
<feGaussianBlur stdDeviation="6"/>
<feComposite in2="hardAlpha" operator="out"/>
<feColorMatrix type="matrix" values="0 0 0 0 0 0 0 0 0 0 0 0 0 0 0 0 0 0 0.45 0"/>
<feBlend mode="normal" in2="BackgroundImageFix" result="effect1_dropShadow_363_5367"/>
<feBlend mode="normal" in="SourceGraphic" in2="effect1_dropShadow_363_5367" result="shape"/>
</filter>
<filter id="filter1_d_363_5367" x="0.367188" y="21.6836" width="118.826" height="193.756" filterUnits="userSpaceOnUse" color-interpolation-filters="sRGB">
<feFlood flood-opacity="0" result="BackgroundImageFix"/>
<feColorMatrix in="SourceAlpha" type="matrix" values="0 0 0 0 0 0 0 0 0 0 0 0 0 0 0 0 0 0 127 0" result="hardAlpha"/>
<feOffset dx="-4"/>
<feGaussianBlur stdDeviation="6"/>
<feComposite in2="hardAlpha" operator="out"/>
<feColorMatrix type="matrix" values="0 0 0 0 0 0 0 0 0 0 0 0 0 0 0 0 0 0 0.45 0"/>
<feBlend mode="normal" in2="BackgroundImageFix" result="effect1_dropShadow_363_5367"/>
<feBlend mode="normal" in="SourceGraphic" in2="effect1_dropShadow_363_5367" result="shape"/>
</filter>
<filter id="filter2_d_363_5367" x="69.1895" y="0.291992" width="96.4453" height="153.739" filterUnits="userSpaceOnUse" color-interpolation-filters="sRGB">
<feFlood flood-opacity="0" result="BackgroundImageFix"/>
<feColorMatrix in="SourceAlpha" type="matrix" values="0 0 0 0 0 0 0 0 0 0 0 0 0 0 0 0 0 0 127 0" result="hardAlpha"/>
<feOffset dx="-4"/>
<feGaussianBlur stdDeviation="6"/>
<feComposite in2="hardAlpha" operator="out"/>
<feColorMatrix type="matrix" values="0 0 0 0 0 0 0 0 0 0 0 0 0 0 0 0 0 0 0.45 0"/>
<feBlend mode="normal" in2="BackgroundImageFix" result="effect1_dropShadow_363_5367"/>
<feBlend mode="normal" in="SourceGraphic" in2="effect1_dropShadow_363_5367" result="shape"/>
</filter>
<filter id="filter3_d_363_5367" x="95.375" y="97.8711" width="44.7676" height="56.1602" filterUnits="userSpaceOnUse" color-interpolation-filters="sRGB">
<feFlood flood-opacity="0" result="BackgroundImageFix"/>
<feColorMatrix in="SourceAlpha" type="matrix" values="0 0 0 0 0 0 0 0 0 0 0 0 0 0 0 0 0 0 127 0" result="hardAlpha"/>
<feOffset dx="-4"/>
<feGaussianBlur stdDeviation="6"/>
<feComposite in2="hardAlpha" operator="out"/>
<feColorMatrix type="matrix" values="0 0 0 0 0 0 0 0 0 0 0 0 0 0 0 0 0 0 0.45 0"/>
<feBlend mode="normal" in2="BackgroundImageFix" result="effect1_dropShadow_363_5367"/>
<feBlend mode="normal" in="SourceGraphic" in2="effect1_dropShadow_363_5367" result="shape"/>
</filter>
<linearGradient id="paint0_linear_363_5367" x1="63.7879" y1="5.13994" x2="63.7879" y2="172.625" gradientUnits="userSpaceOnUse">
<stop stop-color="#252525"/>
<stop offset="1" stop-color="#252525" stop-opacity="0"/>
</linearGradient>
<linearGradient id="paint1_linear_363_5367" x1="67.3856" y1="28.1828" x2="147.152" y2="108.144" gradientUnits="userSpaceOnUse">
<stop stop-color="#252525"/>
<stop offset="1" stop-color="#252525" stop-opacity="0"/>
</linearGradient>
</defs>
</svg>
