<svg width="72" height="72" viewBox="0 0 72 72" fill="none" xmlns="http://www.w3.org/2000/svg">
<path d="M63.7762 19.4062C63.6397 19.0689 63.4234 18.7697 63.1459 18.5343C62.8684 18.2989 62.538 18.1343 62.1829 18.0547C61.8278 17.975 61.4587 17.9827 61.1072 18.077C60.7558 18.1713 60.4324 18.3495 60.1649 18.5962L48.8306 29.0559L43.9846 28.0153L42.944 23.1693L53.4037 11.835C53.6504 11.5675 53.8286 11.2441 53.9229 10.8927C54.0172 10.5412 54.0249 10.1721 53.9452 9.81704C53.8656 9.46196 53.701 9.13149 53.4656 8.85399C53.2302 8.57648 52.931 8.36021 52.5937 8.22372C49.5194 6.98013 46.1868 6.51058 42.8886 6.85634C39.5905 7.2021 36.4277 8.35257 33.6782 10.2067C30.9287 12.0608 28.6766 14.5618 27.1198 17.4899C25.5631 20.4181 24.7493 23.6837 24.7499 27C24.7463 29.8003 25.3208 32.5713 26.4374 35.1394L9.50337 49.7812C9.46118 49.815 9.42181 49.8544 9.38243 49.8909C7.69441 51.5789 6.74609 53.8684 6.74609 56.2556C6.74609 57.4376 6.97891 58.6081 7.43126 59.7001C7.8836 60.7922 8.54661 61.7845 9.38243 62.6203C10.2183 63.4561 11.2105 64.1191 12.3026 64.5715C13.3946 65.0238 14.5651 65.2566 15.7471 65.2566C18.1343 65.2566 20.4238 64.3083 22.1118 62.6203C22.1484 62.5837 22.1877 62.5415 22.2215 62.5022L36.8606 45.5625C39.9443 46.9161 43.3169 47.4793 46.6731 47.201C50.0293 46.9228 53.2632 45.8119 56.0818 43.9689C58.9005 42.1259 61.215 39.609 62.8159 36.646C64.4167 33.6831 65.2533 30.3677 65.2499 27C65.2543 24.3972 64.7538 21.8184 63.7762 19.4062ZM44.9999 42.75C42.3367 42.7463 39.7177 42.0691 37.3865 40.7812C36.9349 40.5317 36.4112 40.445 35.9033 40.5357C35.3953 40.6263 34.934 40.8887 34.5965 41.279L18.8746 59.4872C18.0238 60.2955 16.891 60.7394 15.7175 60.7244C14.5441 60.7094 13.423 60.2365 12.5932 59.4067C11.7634 58.5769 11.2905 57.4558 11.2755 56.2824C11.2605 55.1089 11.7045 53.9761 12.5127 53.1253L30.7068 37.4062C31.0978 37.0686 31.3607 36.6067 31.4513 36.0982C31.542 35.5896 31.4549 35.0653 31.2046 34.6134C29.7703 32.0193 29.0972 29.073 29.2627 26.1134C29.4281 23.1538 30.4254 20.3009 32.1399 17.8828C33.8544 15.4647 36.2165 13.5796 38.9547 12.444C41.6928 11.3085 44.6958 10.9687 47.6184 11.4637L38.8434 20.9728C38.5992 21.2376 38.4222 21.5573 38.3273 21.9047C38.2323 22.2522 38.2222 22.6174 38.2977 22.9697L39.8896 30.375C39.9807 30.7985 40.1921 31.1868 40.4984 31.4931C40.8047 31.7994 41.193 32.0108 41.6165 32.1019L49.0274 33.6937C49.3797 33.7693 49.7449 33.7591 50.0923 33.6642C50.4398 33.5692 50.7594 33.3923 51.0243 33.1481L60.5334 24.3731C60.9125 26.6316 60.795 28.9455 60.1892 31.154C59.5834 33.3624 58.5038 35.4124 57.0255 37.1614C55.5471 38.9104 53.7056 40.3163 51.6288 41.2814C49.5521 42.2465 47.29 42.7477 44.9999 42.75Z" fill="white"/>
</svg>
