<svg width="72" height="72" viewBox="0 0 72 72" fill="none" xmlns="http://www.w3.org/2000/svg">
<rect width="72" height="72" fill="#0F0F0F"/>
<g id="Watson / Desktop">
<g id="Fold / Feature 2" clip-path="url(#clip0_50_2788)">
<rect width="1512" height="1416" transform="translate(-201 -952)" fill="black"/>
<g id="Frame 1533208559">
<g id="Frame">
<path id="Vector" d="M69.7502 34.875C69.7472 31.8947 68.9003 28.9761 67.3076 26.4571C65.7148 23.9381 63.4413 21.9216 60.7502 20.6409V20.25C60.7476 17.3509 59.8118 14.5297 58.0813 12.2038C56.3508 9.87781 53.9175 8.17072 51.1415 7.33508C48.3655 6.49943 45.3942 6.57962 42.6673 7.56378C39.9403 8.54794 37.6027 10.3838 36.0002 12.7997C34.3976 10.3838 32.06 8.54794 29.3331 7.56378C26.6061 6.57962 23.6349 6.49943 20.8588 7.33508C18.0828 8.17072 15.6495 9.87781 13.919 12.2038C12.1885 14.5297 11.2528 17.3509 11.2502 20.25V20.6409C8.55673 21.9181 6.28102 23.9333 4.68749 26.4525C3.09396 28.9716 2.24805 31.8913 2.24805 34.8722C2.24805 37.8531 3.09396 40.7727 4.68749 43.2919C6.28102 45.8111 8.55673 47.8263 11.2502 49.1034V49.5C11.2528 52.3991 12.1885 55.2203 13.919 57.5462C15.6495 59.8722 18.0828 61.5793 20.8588 62.4149C23.6349 63.2506 26.6061 63.1704 29.3331 62.1862C32.06 61.2021 34.3976 59.3662 36.0002 56.9503C37.6027 59.3662 39.9403 61.2021 42.6673 62.1862C45.3942 63.1704 48.3655 63.2506 51.1415 62.4149C53.9175 61.5793 56.3508 59.8722 58.0813 57.5462C59.8118 55.2203 60.7476 52.3991 60.7502 49.5V49.1034C63.4409 47.8238 65.7142 45.8083 67.3069 43.2902C68.8997 40.7722 69.7468 37.8545 69.7502 34.875ZM24.7502 58.5C22.5309 58.4997 20.3901 57.6795 18.7388 56.1969C17.0875 54.7143 16.0422 52.6739 15.8036 50.4675C16.5312 50.5713 17.2652 50.6239 18.0002 50.625H20.2502C20.8469 50.625 21.4192 50.3879 21.8411 49.966C22.2631 49.544 22.5002 48.9717 22.5002 48.375C22.5002 47.7783 22.2631 47.206 21.8411 46.784C21.4192 46.3621 20.8469 46.125 20.2502 46.125H18.0002C15.3439 46.1281 12.7723 45.1912 10.7405 43.4802C8.70869 41.7693 7.34784 39.3945 6.89888 36.7765C6.44991 34.1585 6.94178 31.4661 8.2874 29.1759C9.63302 26.8857 11.7456 25.1455 14.2511 24.2634C14.6895 24.1082 15.069 23.821 15.3375 23.4412C15.6059 23.0615 15.7501 22.6079 15.7502 22.1428V20.25C15.7502 17.8631 16.6984 15.5739 18.3862 13.886C20.074 12.1982 22.3632 11.25 24.7502 11.25C27.1371 11.25 29.4263 12.1982 31.1141 13.886C32.8019 15.5739 33.7502 17.8631 33.7502 20.25V39.4481C31.2794 37.2259 28.0732 35.9976 24.7502 36C24.1534 36 23.5811 36.2371 23.1592 36.659C22.7372 37.081 22.5002 37.6533 22.5002 38.25C22.5002 38.8467 22.7372 39.419 23.1592 39.841C23.5811 40.2629 24.1534 40.5 24.7502 40.5C27.1371 40.5 29.4263 41.4482 31.1141 43.136C32.8019 44.8239 33.7502 47.1131 33.7502 49.5C33.7502 51.8869 32.8019 54.1761 31.1141 55.864C29.4263 57.5518 27.1371 58.5 24.7502 58.5ZM54.0002 46.125H51.7502C51.1534 46.125 50.5811 46.3621 50.1592 46.784C49.7372 47.206 49.5002 47.7783 49.5002 48.375C49.5002 48.9717 49.7372 49.544 50.1592 49.966C50.5811 50.3879 51.1534 50.625 51.7502 50.625H54.0002C54.7351 50.6239 55.4691 50.5713 56.1967 50.4675C56.0098 52.1963 55.3261 53.8338 54.2283 55.1823C53.1304 56.5307 51.6655 57.5323 50.0105 58.0658C48.3556 58.5994 46.5815 58.6421 44.9028 58.1888C43.2241 57.7356 41.7126 56.8057 40.5512 55.5117C39.3897 54.2177 38.6279 52.6149 38.358 50.8972C38.088 49.1794 38.3215 47.4202 39.0301 45.8324C39.7387 44.2445 40.8921 42.8958 42.3509 41.9495C43.8097 41.0032 45.5113 40.4998 47.2502 40.5C47.8469 40.5 48.4192 40.2629 48.8411 39.841C49.2631 39.419 49.5002 38.8467 49.5002 38.25C49.5002 37.6533 49.2631 37.081 48.8411 36.659C48.4192 36.2371 47.8469 36 47.2502 36C43.9271 35.9976 40.7209 37.2259 38.2502 39.4481V20.25C38.2502 17.8631 39.1984 15.5739 40.8862 13.886C42.574 12.1982 44.8632 11.25 47.2502 11.25C49.6371 11.25 51.9263 12.1982 53.6141 13.886C55.3019 15.5739 56.2502 17.8631 56.2502 20.25V22.1428C56.2502 22.6079 56.3944 23.0615 56.6629 23.4412C56.9313 23.821 57.3108 24.1082 57.7492 24.2634C60.2547 25.1455 62.3673 26.8857 63.7129 29.1759C65.0585 31.4661 65.5504 34.1585 65.1014 36.7765C64.6525 39.3945 63.2916 41.7693 61.2598 43.4802C59.2281 45.1912 56.6564 46.1281 54.0002 46.125ZM58.5002 31.5C58.5002 32.0967 58.2631 32.669 57.8411 33.091C57.4192 33.5129 56.8469 33.75 56.2502 33.75H55.1252C52.4398 33.75 49.8645 32.6833 47.9657 30.7845C46.0669 28.8856 45.0002 26.3103 45.0002 23.625V22.5C45.0002 21.9033 45.2372 21.331 45.6592 20.909C46.0811 20.4871 46.6534 20.25 47.2502 20.25C47.8469 20.25 48.4192 20.4871 48.8411 20.909C49.2631 21.331 49.5002 21.9033 49.5002 22.5V23.625C49.5002 25.1168 50.0928 26.5476 51.1477 27.6025C52.2026 28.6574 53.6333 29.25 55.1252 29.25H56.2502C56.8469 29.25 57.4192 29.4871 57.8411 29.909C58.2631 30.331 58.5002 30.9033 58.5002 31.5ZM16.8752 33.75H15.7502C15.1534 33.75 14.5811 33.5129 14.1592 33.091C13.7372 32.669 13.5002 32.0967 13.5002 31.5C13.5002 30.9033 13.7372 30.331 14.1592 29.909C14.5811 29.4871 15.1534 29.25 15.7502 29.25H16.8752C18.367 29.25 19.7977 28.6574 20.8526 27.6025C21.9075 26.5476 22.5002 25.1168 22.5002 23.625V22.5C22.5002 21.9033 22.7372 21.331 23.1592 20.909C23.5811 20.4871 24.1534 20.25 24.7502 20.25C25.3469 20.25 25.9192 20.4871 26.3411 20.909C26.7631 21.331 27.0002 21.9033 27.0002 22.5V23.625C27.0002 26.3103 25.9334 28.8856 24.0346 30.7845C22.1358 32.6833 19.5605 33.75 16.8752 33.75Z" fill="white"/>
</g>
</g>
</g>
</g>
<defs>
<clipPath id="clip0_50_2788">
<rect width="1512" height="1416" fill="white" transform="translate(-201 -952)"/>
</clipPath>
</defs>
</svg>
