<svg width="170" height="171" viewBox="0 0 170 171" fill="none" xmlns="http://www.w3.org/2000/svg">
<g id="Illustration">
<circle id="Ellipse 1190" cx="85" cy="85.3828" r="85" fill="url(#paint0_radial_140_1256)"/>
<g id="Login - Mobile">
<path id="Vector" d="M124.63 40.3853L77.54 26.5861C74.3353 25.647 70.9757 27.4846 70.0363 30.6905L42.5927 124.343C41.6533 127.549 43.4897 130.909 46.6944 131.849L93.7848 145.648C96.9895 146.587 100.349 144.749 101.288 141.543L128.732 47.8904C129.672 44.6845 127.835 41.3244 124.63 40.3853Z" fill="#0B5243"/>
<path id="Vector_2" d="M123.276 39.9893L76.1855 26.1901C72.9808 25.251 69.6213 27.0886 68.6818 30.2945L41.2382 123.947C40.2988 127.153 42.1352 130.513 45.3399 131.453L92.4303 145.252C95.635 146.191 98.9945 144.353 99.934 141.147L127.378 47.4944C128.317 44.2885 126.481 40.9284 123.276 39.9893Z" fill="white" stroke="#0B5243" stroke-width="0.223573" stroke-miterlimit="10"/>
<path id="Vector_3" d="M77.5367 26.5852L124.63 40.3853C127.831 41.3232 129.671 44.685 128.732 47.8904L127.811 51.0328L69.1155 33.8329L70.0363 30.6905C70.9756 27.4851 74.3358 25.6472 77.5367 26.5852Z" fill="#0B5243"/>
<path id="Vector_4" d="M76.1855 26.1901L123.276 39.9893C126.477 40.9273 128.317 44.2891 127.378 47.4944L126.457 50.6368L67.761 33.4369L68.6818 30.2945C69.6211 27.0891 72.9813 25.2512 76.1855 26.1901Z" fill="#E0EED5" stroke="#0B5243" stroke-width="0.223573" stroke-miterlimit="10"/>
<path id="Vector_5" d="M75.4851 33.0528C76.5015 33.3507 77.5671 32.7678 77.865 31.751C78.163 30.7342 77.5805 29.6685 76.5641 29.3706C75.5476 29.0728 74.4821 29.6556 74.1841 30.6724C73.8862 31.6892 74.4686 32.7549 75.4851 33.0528Z" fill="#FBF9ED" stroke="#0B5243" stroke-width="0.223573" stroke-miterlimit="10"/>
<path id="Vector_6" d="M81.0056 34.6761C82.022 34.9739 83.0876 34.3911 83.3855 33.3743C83.6835 32.3575 83.101 31.2918 82.0846 30.9939C81.0681 30.696 80.0026 31.2789 79.7046 32.2957C79.4067 33.3125 79.9891 34.3782 81.0056 34.6761Z" fill="#FBF9ED" stroke="#0B5243" stroke-width="0.223573" stroke-miterlimit="10"/>
<path id="Vector_7" d="M86.528 36.2916C87.5445 36.5894 88.61 36.0066 88.908 34.9898C89.206 33.973 88.6235 32.9072 87.6071 32.6094C86.5906 32.3115 85.5251 32.8944 85.2271 33.9112C84.9291 34.928 85.5116 35.9937 86.528 36.2916Z" fill="#FBF9ED" stroke="#0B5243" stroke-width="0.223573" stroke-miterlimit="10"/>
<path id="Vector_8" d="M69.752 77.5925L61.7149 75.2373C61.0725 75.0491 60.3992 75.4173 60.2109 76.0597C60.0227 76.7021 60.3908 77.3754 61.0332 77.5637L69.0703 79.9188C69.7127 80.1071 70.386 79.7389 70.5743 79.0965C70.7625 78.4541 70.3944 77.7807 69.752 77.5925Z" fill="#0B5243"/>
<path id="Vector_9" d="M64.6689 94.9433L56.6319 92.5882C55.9895 92.3999 55.3161 92.7681 55.1279 93.4105C54.9397 94.0529 55.3078 94.7263 55.9502 94.9145L63.9872 97.2697C64.6297 97.4579 65.303 97.0897 65.4913 96.4473C65.6795 95.8049 65.3114 95.1315 64.6689 94.9433Z" fill="#0B5243"/>
<path id="Vector_10" d="M69.752 77.5925L61.7149 75.2373C61.0725 75.0491 60.3992 75.4173 60.2109 76.0597C60.0227 76.7021 60.3908 77.3754 61.0332 77.5637L69.0703 79.9188C69.7127 80.1071 70.386 79.7389 70.5743 79.0965C70.7625 78.4541 70.3944 77.7807 69.752 77.5925Z" fill="#0B5243"/>
<path id="Vector_11" d="M64.6689 94.9433L56.6319 92.5882C55.9895 92.3999 55.3161 92.7681 55.1279 93.4105C54.9397 94.0529 55.3078 94.7263 55.9502 94.9145L63.9872 97.2697C64.6297 97.4579 65.303 97.0897 65.4913 96.4473C65.6795 95.8049 65.3114 95.1315 64.6689 94.9433Z" fill="#0B5243"/>
<path id="Vector_12" d="M80.7385 66.6091L66.5365 62.4474C65.3487 62.0993 64.1164 62.7363 63.7841 63.8702C63.4518 65.0041 64.1454 66.2055 65.3332 66.5536L79.5352 70.7152C80.7231 71.0633 81.9553 70.4263 82.2876 69.2924C82.6199 68.1585 81.9263 66.9571 80.7385 66.6091Z" fill="#0B5243"/>
<path id="Vector_13" d="M94.501 125.613L53.5186 113.604C51.3278 112.962 49.055 114.137 48.4421 116.228C47.8293 118.319 49.1085 120.535 51.2993 121.177L92.2818 133.186C94.4726 133.828 96.7453 132.653 97.3582 130.562C97.971 128.471 96.6918 126.255 94.501 125.613Z" fill="#0B5243"/>
<path id="Vector_14" d="M87.0002 75.8569L63.1024 68.8541C62.7066 68.7381 62.2917 68.9649 62.1757 69.3607C62.0597 69.7565 62.2866 70.1714 62.6824 70.2874L86.5802 77.2903C86.976 77.4063 87.3909 77.1794 87.5068 76.7836C87.6228 76.3878 87.396 75.9729 87.0002 75.8569Z" fill="#BDDDAB"/>
<path id="Vector_15" d="M77.0886 132.861L58.8788 127.525C58.483 127.409 58.0681 127.636 57.9521 128.031C57.8361 128.427 58.063 128.842 58.4588 128.958L76.6686 134.294C77.0644 134.41 77.4793 134.183 77.5953 133.788C77.7113 133.392 77.4844 132.977 77.0886 132.861Z" fill="#BDDDAB"/>
<path id="Vector_16" d="M83.3454 134.698L79.3553 133.528C78.9595 133.412 78.5446 133.639 78.4287 134.035C78.3127 134.431 78.5395 134.846 78.9353 134.962L82.9254 136.131C83.3212 136.247 83.7361 136.02 83.8521 135.624C83.9681 135.228 83.7412 134.814 83.3454 134.698Z" fill="#BDDDAB"/>
<path id="Vector_17" d="M104.515 93.9589L63.4691 81.9311C61.4965 81.3531 59.4239 82.5004 58.8398 84.4937C58.2557 86.4871 59.3813 88.5715 61.3538 89.1496L102.399 101.177C104.372 101.755 106.444 100.608 107.029 98.6147C107.613 96.6214 106.487 94.5369 104.515 93.9589Z" fill="#0B5243" stroke="#0B5243" stroke-width="0.223573" stroke-miterlimit="10"/>
<path id="Vector_18" d="M99.4316 111.302L58.386 99.2744C56.4135 98.6964 54.3409 99.8437 53.7568 101.837C53.1727 103.83 54.2982 105.915 56.2708 106.493L97.3163 118.521C99.2889 119.099 101.361 117.951 101.946 115.958C102.53 113.965 101.404 111.88 99.4316 111.302Z" fill="#0B5243" stroke="#0B5243" stroke-width="0.223573" stroke-miterlimit="10"/>
<path id="Vector_19" d="M103.787 93.7395L62.4573 81.6284C60.4848 81.0504 58.4122 82.1977 57.8281 84.191C57.244 86.1843 58.3695 88.2688 60.3421 88.8468L101.672 100.958C103.645 101.536 105.717 100.389 106.301 98.3953C106.885 96.402 105.76 94.3175 103.787 93.7395Z" fill="white" stroke="#0B5243" stroke-width="0.223573" stroke-miterlimit="10"/>
<path id="Vector_20" d="M98.7033 111.09L57.3733 98.9792C55.4008 98.4012 53.3282 99.5485 52.7441 101.542C52.16 103.535 53.2856 105.62 55.2581 106.198L96.588 118.309C98.5606 118.887 100.633 117.739 101.217 115.746C101.801 113.753 100.676 111.668 98.7033 111.09Z" fill="white" stroke="#0B5243" stroke-width="0.223573" stroke-miterlimit="10"/>
<path id="Vector_21" d="M80.849 89.8026L62.4388 84.4078C61.9467 84.2636 61.4173 84.5924 61.2562 85.1421C61.0951 85.6918 61.3634 86.2544 61.8554 86.3986L80.2657 91.7934C80.7577 91.9376 81.2872 91.6088 81.4483 91.0591C81.6093 90.5094 81.3411 89.9468 80.849 89.8026Z" fill="#BDDDAB"/>
<path id="Vector_22" d="M81.4539 108.813L57.3558 101.751C56.8637 101.607 56.3343 101.936 56.1732 102.485C56.0121 103.035 56.2804 103.598 56.7724 103.742L80.8706 110.803C81.3626 110.948 81.8921 110.619 82.0532 110.069C82.2143 109.519 81.946 108.957 81.4539 108.813Z" fill="#BDDDAB"/>
<path id="Vector_23" d="M120.665 51.7498L72.2091 37.5505C70.59 37.076 68.8934 38.0015 68.4199 39.6177L64.3012 53.6728C63.8276 55.289 64.7563 56.9837 66.3755 57.4582L114.831 71.6575C116.451 72.132 118.147 71.2065 118.621 69.5904L122.739 55.5352C123.213 53.9191 122.284 52.2243 120.665 51.7498Z" fill="#E0EED5"/>
<path id="Vector_24" d="M100.897 62.6298C101.37 59.929 101.035 54.6435 98.089 53.7802C95.382 52.9869 91.9974 56.9616 91.9974 56.9616C91.9974 56.9616 91.7048 54.5236 89.9766 54.0172C87.7098 53.3529 85.3953 56.5135 84.9699 57.9651L100.894 62.6314C100.895 62.6317 100.896 62.631 100.897 62.6298Z" fill="#A7D18F"/>
<path id="Vector_25" d="M92.138 51.4157C93.0804 51.6919 94.0682 51.1518 94.3444 50.2094C94.6205 49.267 94.0804 48.2791 93.138 48.003C92.1956 47.7268 91.2078 48.2669 90.9316 49.2093C90.6555 50.1517 91.1956 51.1395 92.138 51.4157Z" fill="#FBF9ED"/>
</g>
<g id="Wifi">
<path id="Vector 25 (Stroke)" fill-rule="evenodd" clip-rule="evenodd" d="M137.12 93.7944C138.51 88.8489 137.753 84.9187 134.833 80.9013L134.3 80.1678C134.003 79.758 134.093 79.1843 134.503 78.8864L135.97 77.8203C136.38 77.5224 136.954 77.6132 137.252 78.0231L137.785 78.7565C141.355 83.6692 142.327 88.752 140.632 94.7817C138.896 100.954 134.361 104.688 129.448 106.643L128.605 106.979C128.135 107.166 127.601 106.936 127.414 106.466L126.743 104.781C126.556 104.31 126.786 103.777 127.256 103.589L128.099 103.254C132.253 101.6 135.769 98.5974 137.12 93.7944Z" fill="#69B258"/>
<path id="Vector 26 (Stroke)" fill-rule="evenodd" clip-rule="evenodd" d="M131.83 92.3882C132.695 89.3097 132.225 86.9069 130.383 84.3948L129.847 83.6636C129.547 83.255 129.636 82.681 130.044 82.3814L131.507 81.309C131.915 81.0094 132.489 81.0978 132.789 81.5064L133.325 82.2376C135.82 85.6407 136.516 89.2007 135.342 93.3755C134.128 97.6934 130.934 100.279 127.539 101.614L126.695 101.946C126.224 102.131 125.691 101.899 125.506 101.428L124.842 99.7399C124.657 99.2684 124.889 98.7359 125.36 98.5505L126.204 98.2187C128.844 97.1807 131.005 95.3236 131.83 92.3882Z" fill="#69B258"/>
<path id="Vector 27 (Stroke)" fill-rule="evenodd" clip-rule="evenodd" d="M126.573 90.8716C126.965 89.4763 126.778 88.4817 126.027 87.4025L125.51 86.6581C125.22 86.2422 125.323 85.6705 125.739 85.3812L127.228 84.3458C127.644 84.0565 128.216 84.1592 128.505 84.5752L129.022 85.3196C130.408 87.3125 130.765 89.4368 130.085 91.859C129.364 94.4208 127.528 95.9751 125.619 96.7807L124.784 97.1333C124.317 97.3303 123.779 97.1117 123.582 96.6448L122.877 94.9742C122.68 94.5074 122.899 93.9693 123.365 93.7723L124.201 93.4196C125.338 92.9395 126.22 92.1272 126.573 90.8716Z" fill="#69B258"/>
</g>
<g id="Wifi_2">
<path id="Vector 25 (Stroke)_2" fill-rule="evenodd" clip-rule="evenodd" d="M35.4447 64.8987C34.0322 69.838 34.7718 73.7715 37.6733 77.8019L38.203 78.5378C38.499 78.949 38.4057 79.5223 37.9945 79.8183L36.5229 80.8778C36.1117 81.1739 35.5383 81.0805 35.2423 80.6693L34.7126 79.9335C31.1645 75.0049 30.2151 69.9179 31.9372 63.8957C33.7 57.7312 38.2525 54.0175 43.1739 52.0841L44.0178 51.7525C44.4894 51.5673 45.0219 51.7994 45.2071 52.271L45.8701 53.9588C46.0553 54.4304 45.8232 54.9629 45.3517 55.1481L44.5078 55.4797C40.3458 57.1148 36.8164 60.1018 35.4447 64.8987Z" fill="#69B258"/>
<path id="Vector 26 (Stroke)_2" fill-rule="evenodd" clip-rule="evenodd" d="M40.7288 66.3305C39.8496 69.405 40.3093 71.8099 42.1399 74.3302L42.6728 75.0638C42.9705 75.4737 42.8796 76.0474 42.4697 76.3452L41.0026 77.411C40.5926 77.7088 40.0189 77.6178 39.7211 77.2079L39.1883 76.4743C36.7083 73.0601 36.029 69.497 37.2213 65.3275C38.4545 61.0151 41.66 58.4436 45.0612 57.1239L45.9064 56.796C46.3788 56.6127 46.9103 56.8471 47.0935 57.3194L47.7494 59.01C47.9327 59.4824 47.6983 60.0139 47.226 60.1971L46.3807 60.5251C43.7357 61.5514 41.5671 63.3988 40.7288 66.3305Z" fill="#69B258"/>
<path id="Vector 27 (Stroke)_2" fill-rule="evenodd" clip-rule="evenodd" d="M45.9782 67.8733C45.5797 69.2668 45.7623 70.2622 46.5079 71.3447L47.0223 72.0915C47.3097 72.5087 47.2044 73.08 46.7872 73.3674L45.2938 74.3961C44.8765 74.6835 44.3053 74.5782 44.0179 74.161L43.5036 73.4143C42.1266 71.4152 41.7789 69.2893 42.4707 66.8702C43.2024 64.3116 45.0459 62.7656 46.9577 61.9685L47.7945 61.6197C48.2622 61.4247 48.7994 61.6458 48.9943 62.1135L49.692 63.7872C49.887 64.2549 49.6659 64.792 49.1983 64.987L48.3614 65.3359C47.2218 65.8109 46.3368 66.6192 45.9782 67.8733Z" fill="#69B258"/>
</g>
</g>
<defs>
<radialGradient id="paint0_radial_140_1256" cx="0" cy="0" r="1" gradientUnits="userSpaceOnUse" gradientTransform="translate(85 85.3828) rotate(90) scale(85)">
<stop stop-color="#51AC3C"/>
<stop offset="1" stop-color="#D9D9D9" stop-opacity="0"/>
</radialGradient>
</defs>
</svg>
