<svg width="900" height="195" viewBox="0 0 900 195" fill="none" xmlns="http://www.w3.org/2000/svg">
<rect y="0.5" width="900" height="194" rx="24" fill="#262C3E"/>
<path d="M44.6 57.74V59.5H36.26V57.74H39.62V48L36.58 49.86L35.62 48.3L39.86 45.7H41.84V57.74H44.6Z" fill="white" fill-opacity="0.5"/>
<path d="M39.44 70.42C40.3467 70.42 41.1267 70.5933 41.78 70.94C42.4467 71.2867 42.9533 71.7533 43.3 72.34C43.6467 72.9267 43.82 73.5867 43.82 74.32C43.82 75.1333 43.6333 75.9267 43.26 76.7C42.8867 77.46 42.28 78.3067 41.44 79.24C40.6 80.16 39.4133 81.3133 37.88 82.7H44.14L43.9 84.5H35.32V82.8C37.0533 81.1333 38.3467 79.8333 39.2 78.9C40.0533 77.9533 40.6533 77.1467 41 76.48C41.3467 75.8133 41.52 75.14 41.52 74.46C41.52 73.7667 41.32 73.22 40.92 72.82C40.52 72.42 39.9733 72.22 39.28 72.22C38.68 72.22 38.1667 72.3333 37.74 72.56C37.3267 72.7733 36.9067 73.14 36.48 73.66L35.04 72.54C35.5867 71.8333 36.2133 71.3067 36.92 70.96C37.6267 70.6 38.4667 70.42 39.44 70.42Z" fill="white" fill-opacity="0.5"/>
<path d="M39.4 95.42C40.2933 95.42 41.0733 95.58 41.74 95.9C42.4067 96.2067 42.92 96.6267 43.28 97.16C43.64 97.6933 43.82 98.28 43.82 98.92C43.82 99.7467 43.56 100.447 43.04 101.02C42.5333 101.593 41.88 101.973 41.08 102.16C42.0133 102.253 42.7733 102.587 43.36 103.16C43.96 103.733 44.26 104.533 44.26 105.56C44.26 106.347 44.0533 107.06 43.64 107.7C43.2267 108.34 42.64 108.847 41.88 109.22C41.12 109.58 40.2467 109.76 39.26 109.76C38.3667 109.76 37.5267 109.6 36.74 109.28C35.9533 108.947 35.3 108.467 34.78 107.84L36.16 106.64C36.5333 107.093 36.98 107.433 37.5 107.66C38.02 107.887 38.5667 108 39.14 108C40.0067 108 40.6867 107.773 41.18 107.32C41.6867 106.867 41.94 106.253 41.94 105.48C41.94 103.867 41.0467 103.06 39.26 103.06H38.08L38.34 101.42H39.18C39.8733 101.42 40.4467 101.233 40.9 100.86C41.3667 100.487 41.6 99.9467 41.6 99.24C41.6 98.5867 41.38 98.08 40.94 97.72C40.5 97.3467 39.9267 97.16 39.22 97.16C38.66 97.16 38.1533 97.26 37.7 97.46C37.2467 97.66 36.8 97.9733 36.36 98.4L35.18 97.12C36.3533 95.9867 37.76 95.42 39.4 95.42Z" fill="white" fill-opacity="0.5"/>
<path d="M44.76 131.32H43.12V134.5H40.96V131.32H35.24V129.76L39.2 120.42L41.08 121.16L37.58 129.58H40.98L41.2 125.9H43.12V129.58H44.76V131.32Z" fill="white" fill-opacity="0.5"/>
<path d="M43.66 147.38H38.36V151.22C39.0667 150.86 39.82 150.68 40.62 150.68C41.3533 150.68 42.0067 150.853 42.58 151.2C43.1667 151.547 43.62 152.053 43.94 152.72C44.2733 153.373 44.44 154.153 44.44 155.06C44.44 155.98 44.2333 156.8 43.82 157.52C43.4067 158.227 42.8267 158.78 42.08 159.18C41.3333 159.567 40.4667 159.76 39.48 159.76C37.7867 159.76 36.38 159.16 35.26 157.96L36.58 156.7C37.3667 157.567 38.3 158 39.38 158C40.2333 158 40.9 157.747 41.38 157.24C41.86 156.72 42.1 155.993 42.1 155.06C42.1 154.1 41.8933 153.407 41.48 152.98C41.08 152.54 40.5333 152.32 39.84 152.32C39.52 152.32 39.2067 152.36 38.9 152.44C38.6067 152.507 38.2667 152.62 37.88 152.78H36.22V145.7H43.96L43.66 147.38Z" fill="white" fill-opacity="0.5"/>
<line x1="64.5" y1="43" x2="64.5" y2="162" stroke="#4A4B50"/>
<path d="M91.972 51.308C91.972 52.7 91.768 53.876 91.36 54.836C90.964 55.784 90.31 56.51 89.398 57.014C90.286 57.194 90.976 57.506 91.468 57.95C91.972 58.394 92.374 59.066 92.674 59.966L91.018 60.614C90.61 59.594 90.13 58.85 89.578 58.382C89.026 57.914 88.24 57.68 87.22 57.68C86.284 57.68 85.486 57.422 84.826 56.906C84.166 56.378 83.662 55.64 83.314 54.692C82.978 53.732 82.81 52.61 82.81 51.326C82.81 50.066 82.984 48.95 83.332 47.978C83.68 47.006 84.196 46.25 84.88 45.71C85.576 45.17 86.416 44.9 87.4 44.9C88.864 44.9 89.992 45.482 90.784 46.646C91.576 47.798 91.972 49.352 91.972 51.308ZM90.334 51.308C90.334 49.616 90.1 48.344 89.632 47.492C89.164 46.64 88.42 46.214 87.4 46.214C86.38 46.214 85.63 46.646 85.15 47.51C84.682 48.362 84.448 49.634 84.448 51.326C84.448 53.006 84.688 54.272 85.168 55.124C85.648 55.964 86.392 56.384 87.4 56.384C88.42 56.384 89.164 55.964 89.632 55.124C90.1 54.272 90.334 53 90.334 51.308ZM96.195 54.746C96.195 55.358 96.321 55.808 96.573 56.096C96.837 56.372 97.245 56.51 97.797 56.51C98.301 56.51 98.787 56.366 99.255 56.078C99.723 55.79 100.095 55.43 100.371 54.998V48.014H101.883V57.5H100.587L100.461 56.222C100.089 56.69 99.627 57.056 99.075 57.32C98.535 57.572 97.983 57.698 97.419 57.698C96.519 57.698 95.835 57.458 95.367 56.978C94.911 56.498 94.683 55.808 94.683 54.908V48.014H96.195V54.746ZM112.37 55.43C112.37 55.802 112.43 56.078 112.55 56.258C112.67 56.426 112.868 56.552 113.144 56.636L112.766 57.716C111.842 57.596 111.266 57.146 111.038 56.366C110.702 56.798 110.276 57.128 109.76 57.356C109.256 57.584 108.692 57.698 108.068 57.698C107.12 57.698 106.37 57.434 105.818 56.906C105.278 56.378 105.008 55.67 105.008 54.782C105.008 53.81 105.386 53.06 106.142 52.532C106.91 52.004 108.008 51.74 109.436 51.74H110.84V50.966C110.84 50.294 110.648 49.814 110.264 49.526C109.88 49.226 109.322 49.076 108.59 49.076C107.87 49.076 107.048 49.238 106.124 49.562L105.71 48.41C106.826 48.014 107.864 47.816 108.824 47.816C109.976 47.816 110.852 48.086 111.452 48.626C112.064 49.166 112.37 49.916 112.37 50.876V55.43ZM108.446 56.564C108.914 56.564 109.358 56.444 109.778 56.204C110.21 55.964 110.564 55.634 110.84 55.214V52.784H109.472C108.464 52.784 107.738 52.952 107.294 53.288C106.85 53.624 106.628 54.116 106.628 54.764C106.628 55.964 107.234 56.564 108.446 56.564ZM119.689 56.456C120.409 56.456 120.979 56.318 121.399 56.042C121.819 55.766 122.029 55.4 122.029 54.944C122.029 54.632 121.975 54.38 121.867 54.188C121.759 53.984 121.543 53.804 121.219 53.648C120.895 53.48 120.403 53.312 119.743 53.144C118.639 52.868 117.823 52.538 117.295 52.154C116.767 51.758 116.503 51.176 116.503 50.408C116.503 49.616 116.833 48.986 117.493 48.518C118.153 48.05 119.023 47.816 120.103 47.816C121.423 47.816 122.575 48.164 123.559 48.86L122.875 49.904C122.479 49.628 122.065 49.418 121.633 49.274C121.201 49.118 120.703 49.04 120.139 49.04C118.771 49.04 118.087 49.454 118.087 50.282C118.087 50.57 118.159 50.804 118.303 50.984C118.459 51.164 118.705 51.326 119.041 51.47C119.389 51.602 119.905 51.764 120.589 51.956C121.621 52.232 122.389 52.586 122.893 53.018C123.409 53.438 123.667 54.056 123.667 54.872C123.667 55.82 123.283 56.528 122.515 56.996C121.747 57.464 120.805 57.698 119.689 57.698C118.201 57.698 116.965 57.272 115.981 56.42L116.827 55.43C117.211 55.742 117.649 55.994 118.141 56.186C118.633 56.366 119.149 56.456 119.689 56.456ZM128.844 49.328C129.216 48.848 129.672 48.476 130.212 48.212C130.752 47.948 131.31 47.816 131.886 47.816C133.662 47.816 134.55 48.752 134.55 50.624V57.5H133.038V50.642C133.038 50.078 132.906 49.67 132.642 49.418C132.378 49.154 131.958 49.022 131.382 49.022C130.89 49.022 130.416 49.178 129.96 49.49C129.504 49.802 129.132 50.168 128.844 50.588V57.5H127.332V44.216L128.844 44.054V49.328ZM140.213 56.114C140.213 55.67 140.363 55.298 140.663 54.998C140.975 54.686 141.353 54.53 141.797 54.53C142.253 54.53 142.631 54.686 142.931 54.998C143.231 55.298 143.381 55.67 143.381 56.114C143.381 56.57 143.231 56.948 142.931 57.248C142.631 57.548 142.253 57.698 141.797 57.698C141.353 57.698 140.975 57.548 140.663 57.248C140.363 56.936 140.213 56.558 140.213 56.114ZM152.338 56.456C153.058 56.456 153.628 56.318 154.048 56.042C154.468 55.766 154.678 55.4 154.678 54.944C154.678 54.632 154.624 54.38 154.516 54.188C154.408 53.984 154.192 53.804 153.868 53.648C153.544 53.48 153.052 53.312 152.392 53.144C151.288 52.868 150.472 52.538 149.944 52.154C149.416 51.758 149.152 51.176 149.152 50.408C149.152 49.616 149.482 48.986 150.142 48.518C150.802 48.05 151.672 47.816 152.752 47.816C154.072 47.816 155.224 48.164 156.208 48.86L155.524 49.904C155.128 49.628 154.714 49.418 154.282 49.274C153.85 49.118 153.352 49.04 152.788 49.04C151.42 49.04 150.736 49.454 150.736 50.282C150.736 50.57 150.808 50.804 150.952 50.984C151.108 51.164 151.354 51.326 151.69 51.47C152.038 51.602 152.554 51.764 153.238 51.956C154.27 52.232 155.038 52.586 155.542 53.018C156.058 53.438 156.316 54.056 156.316 54.872C156.316 55.82 155.932 56.528 155.164 56.996C154.396 57.464 153.454 57.698 152.338 57.698C150.85 57.698 149.614 57.272 148.63 56.42L149.476 55.43C149.86 55.742 150.298 55.994 150.79 56.186C151.282 56.366 151.798 56.456 152.338 56.456ZM167.523 57.014C167.199 57.23 166.803 57.398 166.335 57.518C165.879 57.638 165.423 57.698 164.967 57.698C163.971 57.698 163.191 57.44 162.627 56.924C162.063 56.396 161.781 55.706 161.781 54.854V49.202H159.603V48.014H161.781V45.872L163.293 45.692V48.014H166.587L166.389 49.202H163.293V54.836C163.293 55.376 163.437 55.778 163.725 56.042C164.013 56.306 164.475 56.438 165.111 56.438C165.759 56.438 166.365 56.288 166.929 55.988L167.523 57.014ZM177.668 55.43C177.668 55.802 177.728 56.078 177.848 56.258C177.968 56.426 178.166 56.552 178.442 56.636L178.064 57.716C177.14 57.596 176.564 57.146 176.336 56.366C176 56.798 175.574 57.128 175.058 57.356C174.554 57.584 173.99 57.698 173.366 57.698C172.418 57.698 171.668 57.434 171.116 56.906C170.576 56.378 170.306 55.67 170.306 54.782C170.306 53.81 170.684 53.06 171.44 52.532C172.208 52.004 173.306 51.74 174.734 51.74H176.138V50.966C176.138 50.294 175.946 49.814 175.562 49.526C175.178 49.226 174.62 49.076 173.888 49.076C173.168 49.076 172.346 49.238 171.422 49.562L171.008 48.41C172.124 48.014 173.162 47.816 174.122 47.816C175.274 47.816 176.15 48.086 176.75 48.626C177.362 49.166 177.668 49.916 177.668 50.876V55.43ZM173.744 56.564C174.212 56.564 174.656 56.444 175.076 56.204C175.508 55.964 175.862 55.634 176.138 55.214V52.784H174.77C173.762 52.784 173.036 52.952 172.592 53.288C172.148 53.624 171.926 54.116 171.926 54.764C171.926 55.964 172.532 56.564 173.744 56.564ZM188.155 47.816C188.539 47.816 188.983 47.882 189.487 48.014L189.271 51.236H188.047V49.202H187.957C186.493 49.202 185.455 50.246 184.843 52.334V56.33H186.769V57.5H181.837V56.33H183.331V49.184H181.837V48.014H184.465L184.753 50.264C185.137 49.448 185.593 48.836 186.121 48.428C186.661 48.02 187.339 47.816 188.155 47.816ZM200.172 57.014C199.848 57.23 199.452 57.398 198.984 57.518C198.528 57.638 198.072 57.698 197.616 57.698C196.62 57.698 195.84 57.44 195.276 56.924C194.712 56.396 194.43 55.706 194.43 54.854V49.202H192.252V48.014H194.43V45.872L195.942 45.692V48.014H199.236L199.038 49.202H195.942V54.836C195.942 55.376 196.086 55.778 196.374 56.042C196.662 56.306 197.124 56.438 197.76 56.438C198.408 56.438 199.014 56.288 199.578 55.988L200.172 57.014Z" fill="white"/>
<path d="M216.43 51.2C216.43 52.424 216.568 53.492 216.844 54.404C217.12 55.304 217.528 56.126 218.068 56.87C218.62 57.602 219.352 58.376 220.264 59.192L219.49 60.02C218.434 59.168 217.57 58.328 216.898 57.5C216.238 56.672 215.728 55.748 215.368 54.728C215.02 53.708 214.846 52.532 214.846 51.2C214.846 49.868 215.02 48.692 215.368 47.672C215.728 46.652 216.238 45.728 216.898 44.9C217.57 44.072 218.434 43.232 219.49 42.38L220.264 43.208C219.34 44.024 218.602 44.798 218.05 45.53C217.51 46.262 217.102 47.084 216.826 47.996C216.562 48.896 216.43 49.964 216.43 51.2Z" fill="#BEC0C5"/>
<path d="M143.696 80.5L142.454 73.552L141.122 80.5H139.034L137.324 71.014H138.854L140.078 79.564L141.59 72.22H143.372L144.794 79.564L146.018 71.014H147.476L145.838 80.5H143.696ZM153.283 66.586C153.619 66.586 153.889 66.688 154.093 66.892C154.297 67.084 154.399 67.336 154.399 67.648C154.399 67.96 154.297 68.218 154.093 68.422C153.889 68.614 153.619 68.71 153.283 68.71C152.959 68.71 152.695 68.614 152.491 68.422C152.299 68.218 152.203 67.96 152.203 67.648C152.203 67.336 152.299 67.084 152.491 66.892C152.695 66.688 152.959 66.586 153.283 66.586ZM154.489 79.294H157.153V80.5H150.061V79.294H152.977V72.22H150.151V71.014H154.489V79.294ZM168.108 80.014C167.784 80.23 167.388 80.398 166.92 80.518C166.464 80.638 166.008 80.698 165.552 80.698C164.556 80.698 163.776 80.44 163.212 79.924C162.648 79.396 162.366 78.706 162.366 77.854V72.202H160.188V71.014H162.366V68.872L163.878 68.692V71.014H167.172L166.974 72.202H163.878V77.836C163.878 78.376 164.022 78.778 164.31 79.042C164.598 79.306 165.06 79.438 165.696 79.438C166.344 79.438 166.95 79.288 167.514 78.988L168.108 80.014ZM172.961 72.328C173.333 71.848 173.789 71.476 174.329 71.212C174.869 70.948 175.427 70.816 176.003 70.816C177.779 70.816 178.667 71.752 178.667 73.624V80.5H177.155V73.642C177.155 73.078 177.023 72.67 176.759 72.418C176.495 72.154 176.075 72.022 175.499 72.022C175.007 72.022 174.533 72.178 174.077 72.49C173.621 72.802 173.249 73.168 172.961 73.588V80.5H171.449V67.216L172.961 67.054V72.328ZM186.688 80.5H185.122V69.448H181.252V68.098H190.594L190.432 69.448H186.688V80.5ZM196.833 70.816C198.141 70.816 199.143 71.26 199.839 72.148C200.547 73.024 200.901 74.224 200.901 75.748C200.901 77.236 200.541 78.436 199.821 79.348C199.113 80.248 198.111 80.698 196.815 80.698C195.507 80.698 194.499 80.26 193.791 79.384C193.083 78.496 192.729 77.29 192.729 75.766C192.729 74.266 193.083 73.066 193.791 72.166C194.511 71.266 195.525 70.816 196.833 70.816ZM196.833 72.058C196.005 72.058 195.387 72.364 194.979 72.976C194.571 73.588 194.367 74.518 194.367 75.766C194.367 77.014 194.565 77.944 194.961 78.556C195.369 79.156 195.987 79.456 196.815 79.456C197.643 79.456 198.255 79.156 198.651 78.556C199.059 77.944 199.263 77.008 199.263 75.748C199.263 74.5 199.059 73.576 198.651 72.976C198.255 72.364 197.649 72.058 196.833 72.058ZM205.718 80.5H204.206V67.198L205.718 67.018V80.5ZM207.788 75.298L212.54 80.5H210.542L205.88 75.316L210.092 71.014H212.036L207.788 75.298ZM216.187 76.288C216.223 77.332 216.493 78.118 216.997 78.646C217.513 79.174 218.161 79.438 218.941 79.438C219.409 79.438 219.835 79.372 220.219 79.24C220.615 79.096 221.035 78.88 221.479 78.592L222.181 79.6C221.737 79.948 221.227 80.218 220.651 80.41C220.087 80.602 219.517 80.698 218.941 80.698C217.573 80.698 216.505 80.254 215.737 79.366C214.981 78.466 214.603 77.266 214.603 75.766C214.603 74.818 214.771 73.972 215.107 73.228C215.443 72.472 215.923 71.884 216.547 71.464C217.171 71.032 217.897 70.816 218.725 70.816C219.925 70.816 220.867 71.236 221.551 72.076C222.247 72.904 222.595 74.038 222.595 75.478C222.595 75.754 222.583 76.024 222.559 76.288H216.187ZM218.743 72.058C218.011 72.058 217.417 72.322 216.961 72.85C216.505 73.366 216.247 74.128 216.187 75.136H221.119C221.107 74.14 220.891 73.378 220.471 72.85C220.051 72.322 219.475 72.058 218.743 72.058ZM225.864 71.014H227.16L227.286 72.346C227.658 71.866 228.126 71.494 228.69 71.23C229.266 70.954 229.842 70.816 230.418 70.816C232.194 70.816 233.082 71.752 233.082 73.624V80.5H231.57V74.74C231.57 74.032 231.528 73.492 231.444 73.12C231.372 72.748 231.222 72.472 230.994 72.292C230.766 72.112 230.418 72.022 229.95 72.022C229.434 72.022 228.948 72.178 228.492 72.49C228.036 72.802 227.664 73.174 227.376 73.606V80.5H225.864V71.014ZM238.889 72.742C238.889 72.346 239.027 72.01 239.303 71.734C239.579 71.446 239.921 71.302 240.329 71.302C240.749 71.302 241.097 71.446 241.373 71.734C241.649 72.01 241.787 72.346 241.787 72.742C241.787 73.15 241.649 73.498 241.373 73.786C241.097 74.074 240.749 74.218 240.329 74.218C239.921 74.218 239.579 74.074 239.303 73.786C239.027 73.498 238.889 73.15 238.889 72.742ZM238.889 79.24C238.889 78.844 239.027 78.502 239.303 78.214C239.579 77.926 239.921 77.782 240.329 77.782C240.749 77.782 241.097 77.926 241.373 78.214C241.649 78.49 241.787 78.832 241.787 79.24C241.787 79.66 241.649 80.008 241.373 80.284C241.097 80.56 240.749 80.698 240.329 80.698C239.921 80.698 239.579 80.56 239.303 80.284C239.027 80.008 238.889 79.66 238.889 79.24Z" fill="#F2A68C"/>
<path d="M261.393 70.582C261.393 70.954 261.261 71.272 260.997 71.536C260.733 71.788 260.409 71.914 260.025 71.914C259.653 71.914 259.335 71.788 259.071 71.536C258.807 71.272 258.675 70.954 258.675 70.582C258.675 70.258 258.783 69.868 258.999 69.412L260.457 66.298H261.663L260.925 69.61C261.069 69.706 261.183 69.844 261.267 70.024C261.351 70.192 261.393 70.378 261.393 70.582ZM265.299 70.582C265.299 70.942 265.161 71.254 264.885 71.518C264.609 71.782 264.291 71.914 263.931 71.914C263.559 71.914 263.241 71.788 262.977 71.536C262.713 71.272 262.581 70.954 262.581 70.582C262.581 70.234 262.683 69.844 262.887 69.412L264.363 66.298H265.551L264.813 69.61C264.957 69.706 265.071 69.844 265.155 70.024C265.251 70.204 265.299 70.39 265.299 70.582ZM273.788 80.5H272.204V75.73L268.01 68.098H269.738L273.032 74.326L276.362 68.098H277.982L273.788 75.712V80.5ZM288.433 74.308C288.433 76.24 288.037 77.788 287.245 78.952C286.465 80.116 285.343 80.698 283.879 80.698C282.403 80.698 281.275 80.128 280.495 78.988C279.715 77.848 279.325 76.294 279.325 74.326C279.325 73.066 279.499 71.95 279.847 70.978C280.195 70.006 280.711 69.25 281.395 68.71C282.079 68.17 282.907 67.9 283.879 67.9C285.343 67.9 286.465 68.482 287.245 69.646C288.037 70.798 288.433 72.352 288.433 74.308ZM286.813 74.308C286.813 72.616 286.579 71.344 286.111 70.492C285.643 69.64 284.899 69.214 283.879 69.214C282.859 69.214 282.115 69.646 281.647 70.51C281.179 71.362 280.945 72.634 280.945 74.326C280.945 76.006 281.179 77.272 281.647 78.124C282.127 78.964 282.871 79.384 283.879 79.384C284.899 79.384 285.643 78.964 286.111 78.124C286.579 77.272 286.813 76 286.813 74.308ZM298.866 76.486C298.866 77.314 298.692 78.052 298.344 78.7C298.008 79.336 297.528 79.828 296.904 80.176C296.292 80.524 295.572 80.698 294.744 80.698C293.904 80.698 293.178 80.524 292.566 80.176C291.954 79.816 291.48 79.318 291.144 78.682C290.82 78.046 290.658 77.314 290.658 76.486V68.098H292.224V76.54C292.224 77.476 292.44 78.178 292.872 78.646C293.304 79.114 293.928 79.348 294.744 79.348C295.56 79.348 296.184 79.114 296.616 78.646C297.06 78.178 297.282 77.476 297.282 76.54V68.098H298.866V76.486ZM309.911 71.59C309.911 72.478 309.635 73.216 309.083 73.804C308.531 74.38 307.799 74.782 306.887 75.01L310.577 80.5H308.705L305.303 75.19H303.629V80.5H302.081V68.098H305.249C306.785 68.098 307.943 68.392 308.723 68.98C309.515 69.568 309.911 70.438 309.911 71.59ZM308.255 71.59C308.255 70.798 308.027 70.228 307.571 69.88C307.115 69.532 306.401 69.358 305.429 69.358H303.629V73.966H305.447C306.371 73.966 307.067 73.78 307.535 73.408C308.015 73.024 308.255 72.418 308.255 71.59ZM312.028 82.444H321.028V83.776H312.028V82.444ZM324.908 77.332L323.918 80.5H322.37L326.42 68.098H328.4L332.432 80.5H330.812L329.822 77.332H324.908ZM329.408 76.036L327.374 69.43L325.322 76.036H329.408ZM342.919 71.914C342.919 73.294 342.493 74.302 341.641 74.938C340.789 75.574 339.619 75.892 338.131 75.892H336.529V80.5H334.981V68.098H338.131C339.655 68.098 340.831 68.416 341.659 69.052C342.499 69.688 342.919 70.642 342.919 71.914ZM341.245 71.932C341.245 71.032 340.981 70.378 340.453 69.97C339.937 69.55 339.229 69.34 338.329 69.34H336.529V74.65H338.275C339.211 74.65 339.937 74.446 340.453 74.038C340.981 73.63 341.245 72.928 341.245 71.932ZM353.802 71.914C353.802 73.294 353.376 74.302 352.524 74.938C351.672 75.574 350.502 75.892 349.014 75.892H347.412V80.5H345.864V68.098H349.014C350.538 68.098 351.714 68.416 352.542 69.052C353.382 69.688 353.802 70.642 353.802 71.914ZM352.128 71.932C352.128 71.032 351.864 70.378 351.336 69.97C350.82 69.55 350.112 69.34 349.212 69.34H347.412V74.65H349.158C350.094 74.65 350.82 74.446 351.336 74.038C351.864 73.63 352.128 72.928 352.128 71.932ZM355.559 82.444H364.559V83.776H355.559V82.444ZM371.698 80.5H370.132V69.448H366.262V68.098H375.604L375.442 69.448H371.698V80.5ZM386.379 74.308C386.379 76.24 385.983 77.788 385.191 78.952C384.411 80.116 383.289 80.698 381.825 80.698C380.349 80.698 379.221 80.128 378.441 78.988C377.661 77.848 377.271 76.294 377.271 74.326C377.271 73.066 377.445 71.95 377.793 70.978C378.141 70.006 378.657 69.25 379.341 68.71C380.025 68.17 380.853 67.9 381.825 67.9C383.289 67.9 384.411 68.482 385.191 69.646C385.983 70.798 386.379 72.352 386.379 74.308ZM384.759 74.308C384.759 72.616 384.525 71.344 384.057 70.492C383.589 69.64 382.845 69.214 381.825 69.214C380.805 69.214 380.061 69.646 379.593 70.51C379.125 71.362 378.891 72.634 378.891 74.326C378.891 76.006 379.125 77.272 379.593 78.124C380.073 78.964 380.817 79.384 381.825 79.384C382.845 79.384 383.589 78.964 384.057 78.124C384.525 77.272 384.759 76 384.759 74.308ZM389.198 80.5V68.098H390.764V80.5H389.198ZM395.714 68.098H397.532L392.69 73.786L397.874 80.5H395.912L390.854 73.876L395.714 68.098ZM402.007 73.57H406.615V74.848H402.007V79.24H407.659V80.5H400.459V68.098H407.497L407.317 69.394H402.007V73.57ZM411.81 69.61C411.81 69.694 411.846 70.216 411.918 71.176C411.99 72.136 412.026 73.174 412.026 74.29V80.5H410.568V68.098H412.692L417.138 79.042L417.102 78.394C416.982 76.918 416.922 75.556 416.922 74.308V68.098H418.38V80.5H416.184L411.81 69.61ZM420.857 82.444H429.857V83.776H420.857V82.444ZM438.58 74.614H433.9V80.5H432.334V68.098H433.9V73.336H438.58V68.098H440.146V80.5H438.58V74.614ZM445.539 73.57H450.147V74.848H445.539V79.24H451.191V80.5H443.991V68.098H451.029L450.849 69.394H445.539V73.57ZM462.272 71.59C462.272 72.478 461.996 73.216 461.444 73.804C460.892 74.38 460.16 74.782 459.248 75.01L462.938 80.5H461.066L457.664 75.19H455.99V80.5H454.442V68.098H457.61C459.146 68.098 460.304 68.392 461.084 68.98C461.876 69.568 462.272 70.438 462.272 71.59ZM460.616 71.59C460.616 70.798 460.388 70.228 459.932 69.88C459.476 69.532 458.762 69.358 457.79 69.358H455.99V73.966H457.808C458.732 73.966 459.428 73.78 459.896 73.408C460.376 73.024 460.616 72.418 460.616 71.59ZM467.305 73.57H471.913V74.848H467.305V79.24H472.957V80.5H465.757V68.098H472.795L472.615 69.394H467.305V73.57ZM476.568 67.63C476.568 67.27 476.706 66.964 476.982 66.712C477.258 66.448 477.576 66.316 477.936 66.316C478.32 66.316 478.644 66.442 478.908 66.694C479.172 66.946 479.304 67.258 479.304 67.63C479.304 67.798 479.28 67.966 479.232 68.134C479.184 68.302 479.094 68.53 478.962 68.818L477.504 71.932H476.316L477.036 68.62C476.892 68.524 476.778 68.386 476.694 68.206C476.61 68.026 476.568 67.834 476.568 67.63ZM480.474 67.63C480.474 67.27 480.606 66.964 480.87 66.712C481.146 66.448 481.47 66.316 481.842 66.316C482.214 66.316 482.532 66.448 482.796 66.712C483.072 66.964 483.21 67.27 483.21 67.63C483.21 67.798 483.186 67.966 483.138 68.134C483.09 68.302 483 68.53 482.868 68.818L481.392 71.932H480.204L480.942 68.62C480.798 68.524 480.684 68.386 480.6 68.206C480.516 68.026 480.474 67.834 480.474 67.63Z" fill="#76F8E7"/>
<path d="M142.04 107.456C142.76 107.456 143.33 107.318 143.75 107.042C144.17 106.766 144.38 106.4 144.38 105.944C144.38 105.632 144.326 105.38 144.218 105.188C144.11 104.984 143.894 104.804 143.57 104.648C143.246 104.48 142.754 104.312 142.094 104.144C140.99 103.868 140.174 103.538 139.646 103.154C139.118 102.758 138.854 102.176 138.854 101.408C138.854 100.616 139.184 99.986 139.844 99.518C140.504 99.05 141.374 98.816 142.454 98.816C143.774 98.816 144.926 99.164 145.91 99.86L145.226 100.904C144.83 100.628 144.416 100.418 143.984 100.274C143.552 100.118 143.054 100.04 142.49 100.04C141.122 100.04 140.438 100.454 140.438 101.282C140.438 101.57 140.51 101.804 140.654 101.984C140.81 102.164 141.056 102.326 141.392 102.47C141.74 102.602 142.256 102.764 142.94 102.956C143.972 103.232 144.74 103.586 145.244 104.018C145.76 104.438 146.018 105.056 146.018 105.872C146.018 106.82 145.634 107.528 144.866 107.996C144.098 108.464 143.156 108.698 142.04 108.698C140.552 108.698 139.316 108.272 138.332 107.42L139.178 106.43C139.562 106.742 140 106.994 140.492 107.186C140.984 107.366 141.5 107.456 142.04 107.456ZM151.195 100.328C151.567 99.848 152.023 99.476 152.563 99.212C153.103 98.948 153.661 98.816 154.237 98.816C156.013 98.816 156.901 99.752 156.901 101.624V108.5H155.389V101.642C155.389 101.078 155.257 100.67 154.993 100.418C154.729 100.154 154.309 100.022 153.733 100.022C153.241 100.022 152.767 100.178 152.311 100.49C151.855 100.802 151.483 101.168 151.195 101.588V108.5H149.683V95.216L151.195 95.054V100.328ZM164.184 98.816C165.492 98.816 166.494 99.26 167.19 100.148C167.898 101.024 168.252 102.224 168.252 103.748C168.252 105.236 167.892 106.436 167.172 107.348C166.464 108.248 165.462 108.698 164.166 108.698C162.858 108.698 161.85 108.26 161.142 107.384C160.434 106.496 160.08 105.29 160.08 103.766C160.08 102.266 160.434 101.066 161.142 100.166C161.862 99.266 162.876 98.816 164.184 98.816ZM164.184 100.058C163.356 100.058 162.738 100.364 162.33 100.976C161.922 101.588 161.718 102.518 161.718 103.766C161.718 105.014 161.916 105.944 162.312 106.556C162.72 107.156 163.338 107.456 164.166 107.456C164.994 107.456 165.606 107.156 166.002 106.556C166.41 105.944 166.614 105.008 166.614 103.748C166.614 102.5 166.41 101.576 166.002 100.976C165.606 100.364 165 100.058 164.184 100.058ZM172.961 105.746C172.961 106.358 173.087 106.808 173.339 107.096C173.603 107.372 174.011 107.51 174.563 107.51C175.067 107.51 175.553 107.366 176.021 107.078C176.489 106.79 176.861 106.43 177.137 105.998V99.014H178.649V108.5H177.353L177.227 107.222C176.855 107.69 176.393 108.056 175.841 108.32C175.301 108.572 174.749 108.698 174.185 108.698C173.285 108.698 172.601 108.458 172.133 107.978C171.677 107.498 171.449 106.808 171.449 105.908V99.014H172.961V105.746ZM186.04 106.16C186.04 107.012 186.562 107.438 187.606 107.438C188.098 107.438 188.626 107.33 189.19 107.114L189.586 108.212C188.986 108.536 188.236 108.698 187.336 108.698C186.484 108.698 185.8 108.464 185.284 107.996C184.78 107.528 184.528 106.892 184.528 106.088V96.404H181.612V95.198H186.04V106.16ZM200.415 95.198V108.5H199.083L198.939 107.258C198.591 107.738 198.189 108.098 197.733 108.338C197.277 108.578 196.785 108.698 196.257 108.698C195.057 108.698 194.151 108.26 193.539 107.384C192.939 106.508 192.639 105.302 192.639 103.766C192.639 102.818 192.789 101.972 193.089 101.228C193.389 100.472 193.815 99.884 194.367 99.464C194.931 99.032 195.591 98.816 196.347 98.816C197.391 98.816 198.243 99.194 198.903 99.95V95.018L200.415 95.198ZM196.743 100.04C195.951 100.04 195.339 100.352 194.907 100.976C194.487 101.6 194.277 102.53 194.277 103.766C194.277 104.99 194.469 105.92 194.853 106.556C195.249 107.18 195.819 107.492 196.563 107.492C197.463 107.492 198.243 106.988 198.903 105.98V101.264C198.639 100.868 198.321 100.568 197.949 100.364C197.577 100.148 197.175 100.04 196.743 100.04ZM208.742 95.9C209.51 95.9 210.17 96.002 210.722 96.206C211.274 96.398 211.814 96.698 212.342 97.106L211.46 98.132C210.728 97.52 209.858 97.214 208.85 97.214C207.734 97.214 206.822 97.622 206.114 98.438C205.418 99.242 205.07 100.526 205.07 102.29C205.07 104.042 205.412 105.326 206.096 106.142C206.78 106.958 207.692 107.366 208.832 107.366C209.456 107.366 209.99 107.276 210.434 107.096C210.878 106.916 211.304 106.664 211.712 106.34L212.522 107.348C211.598 108.248 210.362 108.698 208.814 108.698C207.794 108.698 206.876 108.452 206.06 107.96C205.244 107.456 204.602 106.724 204.134 105.764C203.666 104.804 203.432 103.646 203.432 102.29C203.432 100.946 203.666 99.794 204.134 98.834C204.614 97.862 205.256 97.13 206.06 96.638C206.876 96.146 207.77 95.9 208.742 95.9ZM218.599 98.816C219.907 98.816 220.909 99.26 221.605 100.148C222.313 101.024 222.667 102.224 222.667 103.748C222.667 105.236 222.307 106.436 221.587 107.348C220.879 108.248 219.877 108.698 218.581 108.698C217.273 108.698 216.265 108.26 215.557 107.384C214.849 106.496 214.495 105.29 214.495 103.766C214.495 102.266 214.849 101.066 215.557 100.166C216.277 99.266 217.291 98.816 218.599 98.816ZM218.599 100.058C217.771 100.058 217.153 100.364 216.745 100.976C216.337 101.588 216.133 102.518 216.133 103.766C216.133 105.014 216.331 105.944 216.727 106.556C217.135 107.156 217.753 107.456 218.581 107.456C219.409 107.456 220.021 107.156 220.417 106.556C220.825 105.944 221.029 105.008 221.029 103.748C221.029 102.5 220.825 101.576 220.417 100.976C220.021 100.364 219.415 100.058 218.599 100.058ZM229.572 106.16C229.572 107.012 230.094 107.438 231.138 107.438C231.63 107.438 232.158 107.33 232.722 107.114L233.118 108.212C232.518 108.536 231.768 108.698 230.868 108.698C230.016 108.698 229.332 108.464 228.816 107.996C228.312 107.528 228.06 106.892 228.06 106.088V96.404H225.144V95.198H229.572V106.16ZM240.455 106.16C240.455 107.012 240.977 107.438 242.021 107.438C242.513 107.438 243.041 107.33 243.605 107.114L244.001 108.212C243.401 108.536 242.651 108.698 241.751 108.698C240.899 108.698 240.215 108.464 239.699 107.996C239.195 107.528 238.943 106.892 238.943 106.088V96.404H236.027V95.198H240.455V106.16ZM248.836 104.288C248.872 105.332 249.142 106.118 249.646 106.646C250.162 107.174 250.81 107.438 251.59 107.438C252.058 107.438 252.484 107.372 252.868 107.24C253.264 107.096 253.684 106.88 254.128 106.592L254.83 107.6C254.386 107.948 253.876 108.218 253.3 108.41C252.736 108.602 252.166 108.698 251.59 108.698C250.222 108.698 249.154 108.254 248.386 107.366C247.63 106.466 247.252 105.266 247.252 103.766C247.252 102.818 247.42 101.972 247.756 101.228C248.092 100.472 248.572 99.884 249.196 99.464C249.82 99.032 250.546 98.816 251.374 98.816C252.574 98.816 253.516 99.236 254.2 100.076C254.896 100.904 255.244 102.038 255.244 103.478C255.244 103.754 255.232 104.024 255.208 104.288H248.836ZM251.392 100.058C250.66 100.058 250.066 100.322 249.61 100.85C249.154 101.366 248.896 102.128 248.836 103.136H253.768C253.756 102.14 253.54 101.378 253.12 100.85C252.7 100.322 252.124 100.058 251.392 100.058ZM262.815 107.402C263.643 107.402 264.465 107.126 265.281 106.574L266.001 107.564C265.605 107.912 265.113 108.188 264.525 108.392C263.937 108.596 263.367 108.698 262.815 108.698C261.411 108.698 260.313 108.26 259.521 107.384C258.741 106.496 258.351 105.302 258.351 103.802C258.351 102.854 258.525 102.002 258.873 101.246C259.233 100.49 259.749 99.896 260.421 99.464C261.093 99.032 261.891 98.816 262.815 98.816C264.039 98.816 265.095 99.188 265.983 99.932L265.245 100.922C264.417 100.37 263.601 100.094 262.797 100.094C261.945 100.094 261.261 100.412 260.745 101.048C260.241 101.672 259.989 102.59 259.989 103.802C259.989 105.014 260.241 105.92 260.745 106.52C261.261 107.108 261.951 107.402 262.815 107.402ZM276.938 108.014C276.614 108.23 276.218 108.398 275.75 108.518C275.294 108.638 274.838 108.698 274.382 108.698C273.386 108.698 272.606 108.44 272.042 107.924C271.478 107.396 271.196 106.706 271.196 105.854V100.202H269.018V99.014H271.196V96.872L272.708 96.692V99.014H276.002L275.804 100.202H272.708V105.836C272.708 106.376 272.852 106.778 273.14 107.042C273.428 107.306 273.89 107.438 274.526 107.438C275.174 107.438 275.78 107.288 276.344 106.988L276.938 108.014ZM284.923 95.9C285.691 95.9 286.351 96.002 286.903 96.206C287.455 96.398 287.995 96.698 288.523 97.106L287.641 98.132C286.909 97.52 286.039 97.214 285.031 97.214C283.915 97.214 283.003 97.622 282.295 98.438C281.599 99.242 281.251 100.526 281.251 102.29C281.251 104.042 281.593 105.326 282.277 106.142C282.961 106.958 283.873 107.366 285.013 107.366C285.637 107.366 286.171 107.276 286.615 107.096C287.059 106.916 287.485 106.664 287.893 106.34L288.703 107.348C287.779 108.248 286.543 108.698 284.995 108.698C283.975 108.698 283.057 108.452 282.241 107.96C281.425 107.456 280.783 106.724 280.315 105.764C279.847 104.804 279.613 103.646 279.613 102.29C279.613 100.946 279.847 99.794 280.315 98.834C280.795 97.862 281.437 97.13 282.241 96.638C283.057 96.146 283.951 95.9 284.923 95.9ZM297.57 98.816C297.954 98.816 298.398 98.882 298.902 99.014L298.686 102.236H297.462V100.202H297.372C295.908 100.202 294.87 101.246 294.258 103.334V107.33H296.184V108.5H291.252V107.33H292.746V100.184H291.252V99.014H293.88L294.168 101.264C294.552 100.448 295.008 99.836 295.536 99.428C296.076 99.02 296.754 98.816 297.57 98.816ZM308.849 106.43C308.849 106.802 308.909 107.078 309.029 107.258C309.149 107.426 309.347 107.552 309.623 107.636L309.245 108.716C308.321 108.596 307.745 108.146 307.517 107.366C307.181 107.798 306.755 108.128 306.239 108.356C305.735 108.584 305.171 108.698 304.547 108.698C303.599 108.698 302.849 108.434 302.297 107.906C301.757 107.378 301.487 106.67 301.487 105.782C301.487 104.81 301.865 104.06 302.621 103.532C303.389 103.004 304.487 102.74 305.915 102.74H307.319V101.966C307.319 101.294 307.127 100.814 306.743 100.526C306.359 100.226 305.801 100.076 305.069 100.076C304.349 100.076 303.527 100.238 302.603 100.562L302.189 99.41C303.305 99.014 304.343 98.816 305.303 98.816C306.455 98.816 307.331 99.086 307.931 99.626C308.543 100.166 308.849 100.916 308.849 101.876V106.43ZM304.925 107.564C305.393 107.564 305.837 107.444 306.257 107.204C306.689 106.964 307.043 106.634 307.319 106.214V103.784H305.951C304.943 103.784 304.217 103.952 303.773 104.288C303.329 104.624 303.107 105.116 303.107 105.764C303.107 106.964 303.713 107.564 304.925 107.564ZM316.168 107.456C316.888 107.456 317.458 107.318 317.878 107.042C318.298 106.766 318.508 106.4 318.508 105.944C318.508 105.632 318.454 105.38 318.346 105.188C318.238 104.984 318.022 104.804 317.698 104.648C317.374 104.48 316.882 104.312 316.222 104.144C315.118 103.868 314.302 103.538 313.774 103.154C313.246 102.758 312.982 102.176 312.982 101.408C312.982 100.616 313.312 99.986 313.972 99.518C314.632 99.05 315.502 98.816 316.582 98.816C317.902 98.816 319.054 99.164 320.038 99.86L319.354 100.904C318.958 100.628 318.544 100.418 318.112 100.274C317.68 100.118 317.182 100.04 316.618 100.04C315.25 100.04 314.566 100.454 314.566 101.282C314.566 101.57 314.638 101.804 314.782 101.984C314.938 102.164 315.184 102.326 315.52 102.47C315.868 102.602 316.384 102.764 317.068 102.956C318.1 103.232 318.868 103.586 319.372 104.018C319.888 104.438 320.146 105.056 320.146 105.872C320.146 106.82 319.762 107.528 318.994 107.996C318.226 108.464 317.284 108.698 316.168 108.698C314.68 108.698 313.444 108.272 312.46 107.42L313.306 106.43C313.69 106.742 314.128 106.994 314.62 107.186C315.112 107.366 315.628 107.456 316.168 107.456ZM325.322 100.328C325.694 99.848 326.15 99.476 326.69 99.212C327.23 98.948 327.788 98.816 328.364 98.816C330.14 98.816 331.028 99.752 331.028 101.624V108.5H329.516V101.642C329.516 101.078 329.384 100.67 329.12 100.418C328.856 100.154 328.436 100.022 327.86 100.022C327.368 100.022 326.894 100.178 326.438 100.49C325.982 100.802 325.61 101.168 325.322 101.588V108.5H323.81V95.216L325.322 95.054V100.328ZM335.341 96.098H336.889V107.114H342.559L342.361 108.5H335.341V96.098ZM349.194 98.816C350.502 98.816 351.504 99.26 352.2 100.148C352.908 101.024 353.262 102.224 353.262 103.748C353.262 105.236 352.902 106.436 352.182 107.348C351.474 108.248 350.472 108.698 349.176 108.698C347.868 108.698 346.86 108.26 346.152 107.384C345.444 106.496 345.09 105.29 345.09 103.766C345.09 102.266 345.444 101.066 346.152 100.166C346.872 99.266 347.886 98.816 349.194 98.816ZM349.194 100.058C348.366 100.058 347.748 100.364 347.34 100.976C346.932 101.588 346.728 102.518 346.728 103.766C346.728 105.014 346.926 105.944 347.322 106.556C347.73 107.156 348.348 107.456 349.176 107.456C350.004 107.456 350.616 107.156 351.012 106.556C351.42 105.944 351.624 105.008 351.624 103.748C351.624 102.5 351.42 101.576 351.012 100.976C350.616 100.364 350.01 100.058 349.194 100.058ZM364.631 99.446C364.271 99.566 363.881 99.644 363.461 99.68C363.041 99.704 362.507 99.716 361.859 99.716C362.963 100.22 363.515 101.018 363.515 102.11C363.515 103.07 363.197 103.85 362.561 104.45C361.925 105.038 361.055 105.332 359.951 105.332C359.387 105.332 358.913 105.266 358.529 105.134C358.385 105.242 358.265 105.38 358.169 105.548C358.085 105.716 358.043 105.884 358.043 106.052C358.043 106.592 358.463 106.862 359.303 106.862H361.013C361.637 106.862 362.201 106.976 362.705 107.204C363.221 107.42 363.623 107.726 363.911 108.122C364.211 108.518 364.361 108.956 364.361 109.436C364.361 110.36 363.965 111.068 363.173 111.56C362.393 112.064 361.283 112.316 359.843 112.316C358.379 112.316 357.347 112.088 356.747 111.632C356.147 111.176 355.847 110.45 355.847 109.454H357.215C357.215 109.85 357.287 110.162 357.431 110.39C357.587 110.63 357.851 110.804 358.223 110.912C358.607 111.032 359.147 111.092 359.843 111.092C360.863 111.092 361.613 110.96 362.093 110.696C362.585 110.432 362.831 110.042 362.831 109.526C362.831 109.094 362.633 108.758 362.237 108.518C361.841 108.29 361.331 108.176 360.707 108.176H359.015C358.235 108.176 357.641 108.008 357.233 107.672C356.825 107.324 356.621 106.892 356.621 106.376C356.621 106.076 356.711 105.782 356.891 105.494C357.071 105.194 357.329 104.936 357.665 104.72C357.125 104.444 356.723 104.096 356.459 103.676C356.207 103.244 356.081 102.722 356.081 102.11C356.081 101.474 356.237 100.91 356.549 100.418C356.873 99.914 357.317 99.524 357.881 99.248C358.457 98.96 359.117 98.816 359.861 98.816C360.941 98.816 361.763 98.756 362.327 98.636C362.891 98.516 363.509 98.312 364.181 98.024L364.631 99.446ZM359.843 99.932C359.111 99.932 358.559 100.13 358.187 100.526C357.815 100.91 357.629 101.438 357.629 102.11C357.629 102.782 357.815 103.322 358.187 103.73C358.571 104.126 359.135 104.324 359.879 104.324C360.551 104.324 361.061 104.132 361.409 103.748C361.769 103.352 361.949 102.8 361.949 102.092C361.949 100.652 361.247 99.932 359.843 99.932ZM370.582 107.456C371.302 107.456 371.872 107.318 372.292 107.042C372.712 106.766 372.922 106.4 372.922 105.944C372.922 105.632 372.868 105.38 372.76 105.188C372.652 104.984 372.436 104.804 372.112 104.648C371.788 104.48 371.296 104.312 370.636 104.144C369.532 103.868 368.716 103.538 368.188 103.154C367.66 102.758 367.396 102.176 367.396 101.408C367.396 100.616 367.726 99.986 368.386 99.518C369.046 99.05 369.916 98.816 370.996 98.816C372.316 98.816 373.468 99.164 374.452 99.86L373.768 100.904C373.372 100.628 372.958 100.418 372.526 100.274C372.094 100.118 371.596 100.04 371.032 100.04C369.664 100.04 368.98 100.454 368.98 101.282C368.98 101.57 369.052 101.804 369.196 101.984C369.352 102.164 369.598 102.326 369.934 102.47C370.282 102.602 370.798 102.764 371.482 102.956C372.514 103.232 373.282 103.586 373.786 104.018C374.302 104.438 374.56 105.056 374.56 105.872C374.56 106.82 374.176 107.528 373.408 107.996C372.64 108.464 371.698 108.698 370.582 108.698C369.094 108.698 367.858 108.272 366.874 107.42L367.72 106.43C368.104 106.742 368.542 106.994 369.034 107.186C369.526 107.366 370.042 107.456 370.582 107.456Z" fill="#F2A68C"/>
<path d="M385.317 101.84H378.333V100.544H385.317V101.84ZM385.317 105.26H378.333V103.964H385.317V105.26ZM396.65 108.014C396.326 108.23 395.93 108.398 395.462 108.518C395.006 108.638 394.55 108.698 394.094 108.698C393.098 108.698 392.318 108.44 391.754 107.924C391.19 107.396 390.908 106.706 390.908 105.854V100.202H388.73V99.014H390.908V96.872L392.42 96.692V99.014H395.714L395.516 100.202H392.42V105.836C392.42 106.376 392.564 106.778 392.852 107.042C393.14 107.306 393.602 107.438 394.238 107.438C394.886 107.438 395.492 107.288 396.056 106.988L396.65 108.014ZM406.399 98.816C406.783 98.816 407.227 98.882 407.731 99.014L407.515 102.236H406.291V100.202H406.201C404.737 100.202 403.699 101.246 403.087 103.334V107.33H405.013V108.5H400.081V107.33H401.575V100.184H400.081V99.014H402.709L402.997 101.264C403.381 100.448 403.837 99.836 404.365 99.428C404.905 99.02 405.583 98.816 406.399 98.816ZM412.386 105.746C412.386 106.358 412.512 106.808 412.764 107.096C413.028 107.372 413.436 107.51 413.988 107.51C414.492 107.51 414.978 107.366 415.446 107.078C415.914 106.79 416.286 106.43 416.562 105.998V99.014H418.074V108.5H416.778L416.652 107.222C416.28 107.69 415.818 108.056 415.266 108.32C414.726 108.572 414.174 108.698 413.61 108.698C412.71 108.698 412.026 108.458 411.558 107.978C411.102 107.498 410.874 106.808 410.874 105.908V99.014H412.386V105.746ZM422.963 104.288C422.999 105.332 423.269 106.118 423.773 106.646C424.289 107.174 424.937 107.438 425.717 107.438C426.185 107.438 426.611 107.372 426.995 107.24C427.391 107.096 427.811 106.88 428.255 106.592L428.957 107.6C428.513 107.948 428.003 108.218 427.427 108.41C426.863 108.602 426.293 108.698 425.717 108.698C424.349 108.698 423.281 108.254 422.513 107.366C421.757 106.466 421.379 105.266 421.379 103.766C421.379 102.818 421.547 101.972 421.883 101.228C422.219 100.472 422.699 99.884 423.323 99.464C423.947 99.032 424.673 98.816 425.501 98.816C426.701 98.816 427.643 99.236 428.327 100.076C429.023 100.904 429.371 102.038 429.371 103.478C429.371 103.754 429.359 104.024 429.335 104.288H422.963ZM425.519 100.058C424.787 100.058 424.193 100.322 423.737 100.85C423.281 101.366 423.023 102.128 422.963 103.136H427.895C427.883 102.14 427.667 101.378 427.247 100.85C426.827 100.322 426.251 100.058 425.519 100.058ZM436.24 105.53C436.648 105.53 436.99 105.674 437.266 105.962C437.554 106.238 437.698 106.574 437.698 106.97C437.698 107.414 437.584 107.888 437.356 108.392L435.898 111.722H434.53L435.376 108.176C435.208 108.044 435.07 107.87 434.962 107.654C434.854 107.438 434.8 107.216 434.8 106.988C434.8 106.58 434.938 106.238 435.214 105.962C435.49 105.674 435.832 105.53 436.24 105.53Z" fill="#76F8E7"/>
<path d="M142.4 122.586C142.736 122.586 143.006 122.688 143.21 122.892C143.414 123.084 143.516 123.336 143.516 123.648C143.516 123.96 143.414 124.218 143.21 124.422C143.006 124.614 142.736 124.71 142.4 124.71C142.076 124.71 141.812 124.614 141.608 124.422C141.416 124.218 141.32 123.96 141.32 123.648C141.32 123.336 141.416 123.084 141.608 122.892C141.812 122.688 142.076 122.586 142.4 122.586ZM143.606 135.294H146.27V136.5H139.178V135.294H142.094V128.22H139.268V127.014H143.606V135.294ZM149.683 127.014H150.979L151.105 128.346C151.477 127.866 151.945 127.494 152.509 127.23C153.085 126.954 153.661 126.816 154.237 126.816C156.013 126.816 156.901 127.752 156.901 129.624V136.5H155.389V130.74C155.389 130.032 155.347 129.492 155.263 129.12C155.191 128.748 155.041 128.472 154.813 128.292C154.585 128.112 154.237 128.022 153.769 128.022C153.253 128.022 152.767 128.178 152.311 128.49C151.855 128.802 151.483 129.174 151.195 129.606V136.5H149.683V127.014ZM165.03 136.5H163.284L159.846 127.014H161.466L164.202 135.132L166.902 127.014H168.486L165.03 136.5ZM175.067 126.816C176.375 126.816 177.377 127.26 178.073 128.148C178.781 129.024 179.135 130.224 179.135 131.748C179.135 133.236 178.775 134.436 178.055 135.348C177.347 136.248 176.345 136.698 175.049 136.698C173.741 136.698 172.733 136.26 172.025 135.384C171.317 134.496 170.963 133.29 170.963 131.766C170.963 130.266 171.317 129.066 172.025 128.166C172.745 127.266 173.759 126.816 175.067 126.816ZM175.067 128.058C174.239 128.058 173.621 128.364 173.213 128.976C172.805 129.588 172.601 130.518 172.601 131.766C172.601 133.014 172.799 133.944 173.195 134.556C173.603 135.156 174.221 135.456 175.049 135.456C175.877 135.456 176.489 135.156 176.885 134.556C177.293 133.944 177.497 133.008 177.497 131.748C177.497 130.5 177.293 129.576 176.885 128.976C176.489 128.364 175.883 128.058 175.067 128.058ZM186.634 135.402C187.462 135.402 188.284 135.126 189.1 134.574L189.82 135.564C189.424 135.912 188.932 136.188 188.344 136.392C187.756 136.596 187.186 136.698 186.634 136.698C185.23 136.698 184.132 136.26 183.34 135.384C182.56 134.496 182.17 133.302 182.17 131.802C182.17 130.854 182.344 130.002 182.692 129.246C183.052 128.49 183.568 127.896 184.24 127.464C184.912 127.032 185.71 126.816 186.634 126.816C187.858 126.816 188.914 127.188 189.802 127.932L189.064 128.922C188.236 128.37 187.42 128.094 186.616 128.094C185.764 128.094 185.08 128.412 184.564 129.048C184.06 129.672 183.808 130.59 183.808 131.802C183.808 133.014 184.06 133.92 184.564 134.52C185.08 135.108 185.77 135.402 186.634 135.402ZM200.019 134.43C200.019 134.802 200.079 135.078 200.199 135.258C200.319 135.426 200.517 135.552 200.793 135.636L200.415 136.716C199.491 136.596 198.915 136.146 198.687 135.366C198.351 135.798 197.925 136.128 197.409 136.356C196.905 136.584 196.341 136.698 195.717 136.698C194.769 136.698 194.019 136.434 193.467 135.906C192.927 135.378 192.657 134.67 192.657 133.782C192.657 132.81 193.035 132.06 193.791 131.532C194.559 131.004 195.657 130.74 197.085 130.74H198.489V129.966C198.489 129.294 198.297 128.814 197.913 128.526C197.529 128.226 196.971 128.076 196.239 128.076C195.519 128.076 194.697 128.238 193.773 128.562L193.359 127.41C194.475 127.014 195.513 126.816 196.473 126.816C197.625 126.816 198.501 127.086 199.101 127.626C199.713 128.166 200.019 128.916 200.019 129.876V134.43ZM196.095 135.564C196.563 135.564 197.007 135.444 197.427 135.204C197.859 134.964 198.213 134.634 198.489 134.214V131.784H197.121C196.113 131.784 195.387 131.952 194.943 132.288C194.499 132.624 194.277 133.116 194.277 133.764C194.277 134.964 194.883 135.564 196.095 135.564ZM211.64 136.014C211.316 136.23 210.92 136.398 210.452 136.518C209.996 136.638 209.54 136.698 209.084 136.698C208.088 136.698 207.308 136.44 206.744 135.924C206.18 135.396 205.898 134.706 205.898 133.854V128.202H203.72V127.014H205.898V124.872L207.41 124.692V127.014H210.704L210.506 128.202H207.41V133.836C207.41 134.376 207.554 134.778 207.842 135.042C208.13 135.306 208.592 135.438 209.228 135.438C209.876 135.438 210.482 135.288 211.046 134.988L211.64 136.014ZM218.581 122.586C218.917 122.586 219.187 122.688 219.391 122.892C219.595 123.084 219.697 123.336 219.697 123.648C219.697 123.96 219.595 124.218 219.391 124.422C219.187 124.614 218.917 124.71 218.581 124.71C218.257 124.71 217.993 124.614 217.789 124.422C217.597 124.218 217.501 123.96 217.501 123.648C217.501 123.336 217.597 123.084 217.789 122.892C217.993 122.688 218.257 122.586 218.581 122.586ZM219.787 135.294H222.451V136.5H215.359V135.294H218.275V128.22H215.449V127.014H219.787V135.294ZM229.482 126.816C230.79 126.816 231.792 127.26 232.488 128.148C233.196 129.024 233.55 130.224 233.55 131.748C233.55 133.236 233.19 134.436 232.47 135.348C231.762 136.248 230.76 136.698 229.464 136.698C228.156 136.698 227.148 136.26 226.44 135.384C225.732 134.496 225.378 133.29 225.378 131.766C225.378 130.266 225.732 129.066 226.44 128.166C227.16 127.266 228.174 126.816 229.482 126.816ZM229.482 128.058C228.654 128.058 228.036 128.364 227.628 128.976C227.22 129.588 227.016 130.518 227.016 131.766C227.016 133.014 227.214 133.944 227.61 134.556C228.018 135.156 228.636 135.456 229.464 135.456C230.292 135.456 230.904 135.156 231.3 134.556C231.708 133.944 231.912 133.008 231.912 131.748C231.912 130.5 231.708 129.576 231.3 128.976C230.904 128.364 230.298 128.058 229.482 128.058ZM236.747 127.014H238.043L238.169 128.346C238.541 127.866 239.009 127.494 239.573 127.23C240.149 126.954 240.725 126.816 241.301 126.816C243.077 126.816 243.965 127.752 243.965 129.624V136.5H242.453V130.74C242.453 130.032 242.411 129.492 242.327 129.12C242.255 128.748 242.105 128.472 241.877 128.292C241.649 128.112 241.301 128.022 240.833 128.022C240.317 128.022 239.831 128.178 239.375 128.49C238.919 128.802 238.547 129.174 238.259 129.606V136.5H236.747V127.014ZM251.986 136.5H250.42V125.448H246.55V124.098H255.892L255.73 125.448H251.986V136.5ZM263.085 136.554C262.713 137.646 262.203 138.516 261.555 139.164C260.907 139.812 260.001 140.196 258.837 140.316L258.621 139.11C259.257 139.002 259.761 138.834 260.133 138.606C260.517 138.39 260.817 138.114 261.033 137.778C261.249 137.454 261.447 137.028 261.627 136.5H261.123L257.829 127.014H259.431L262.149 135.348L264.831 127.014H266.397L263.085 136.554ZM273.644 126.816C275.936 126.816 277.082 128.46 277.082 131.748C277.082 133.248 276.77 134.448 276.146 135.348C275.522 136.248 274.616 136.698 273.428 136.698C272.396 136.698 271.556 136.338 270.908 135.618V140.136L269.396 140.316V127.014H270.692L270.818 128.346C271.166 127.854 271.58 127.476 272.06 127.212C272.552 126.948 273.08 126.816 273.644 126.816ZM273.284 128.04C272.804 128.04 272.36 128.184 271.952 128.472C271.556 128.76 271.208 129.12 270.908 129.552V134.25C271.16 134.622 271.472 134.916 271.844 135.132C272.228 135.336 272.642 135.438 273.086 135.438C273.878 135.438 274.466 135.138 274.85 134.538C275.246 133.926 275.444 132.996 275.444 131.748C275.444 130.5 275.27 129.57 274.922 128.958C274.574 128.346 274.028 128.04 273.284 128.04ZM281.485 132.288C281.521 133.332 281.791 134.118 282.295 134.646C282.811 135.174 283.459 135.438 284.239 135.438C284.707 135.438 285.133 135.372 285.517 135.24C285.913 135.096 286.333 134.88 286.777 134.592L287.479 135.6C287.035 135.948 286.525 136.218 285.949 136.41C285.385 136.602 284.815 136.698 284.239 136.698C282.871 136.698 281.803 136.254 281.035 135.366C280.279 134.466 279.901 133.266 279.901 131.766C279.901 130.818 280.069 129.972 280.405 129.228C280.741 128.472 281.221 127.884 281.845 127.464C282.469 127.032 283.195 126.816 284.023 126.816C285.223 126.816 286.165 127.236 286.849 128.076C287.545 128.904 287.893 130.038 287.893 131.478C287.893 131.754 287.881 132.024 287.857 132.288H281.485ZM284.041 128.058C283.309 128.058 282.715 128.322 282.259 128.85C281.803 129.366 281.545 130.128 281.485 131.136H286.417C286.405 130.14 286.189 129.378 285.769 128.85C285.349 128.322 284.773 128.058 284.041 128.058Z" fill="#F2A68C"/>
<path d="M298.254 129.84H291.27V128.544H298.254V129.84ZM298.254 133.26H291.27V131.964H298.254V133.26ZM310.217 130.308C310.217 131.7 310.013 132.876 309.605 133.836C309.209 134.784 308.555 135.51 307.643 136.014C308.531 136.194 309.221 136.506 309.713 136.95C310.217 137.394 310.619 138.066 310.919 138.966L309.263 139.614C308.855 138.594 308.375 137.85 307.823 137.382C307.271 136.914 306.485 136.68 305.465 136.68C304.529 136.68 303.731 136.422 303.071 135.906C302.411 135.378 301.907 134.64 301.559 133.692C301.223 132.732 301.055 131.61 301.055 130.326C301.055 129.066 301.229 127.95 301.577 126.978C301.925 126.006 302.441 125.25 303.125 124.71C303.821 124.17 304.661 123.9 305.645 123.9C307.109 123.9 308.237 124.482 309.029 125.646C309.821 126.798 310.217 128.352 310.217 130.308ZM308.579 130.308C308.579 128.616 308.345 127.344 307.877 126.492C307.409 125.64 306.665 125.214 305.645 125.214C304.625 125.214 303.875 125.646 303.395 126.51C302.927 127.362 302.693 128.634 302.693 130.326C302.693 132.006 302.933 133.272 303.413 134.124C303.893 134.964 304.637 135.384 305.645 135.384C306.665 135.384 307.409 134.964 307.877 134.124C308.345 133.272 308.579 132 308.579 130.308ZM314.44 133.746C314.44 134.358 314.566 134.808 314.818 135.096C315.082 135.372 315.49 135.51 316.042 135.51C316.546 135.51 317.032 135.366 317.5 135.078C317.968 134.79 318.34 134.43 318.616 133.998V127.014H320.128V136.5H318.832L318.706 135.222C318.334 135.69 317.872 136.056 317.32 136.32C316.78 136.572 316.228 136.698 315.664 136.698C314.764 136.698 314.08 136.458 313.612 135.978C313.156 135.498 312.928 134.808 312.928 133.908V127.014H314.44V133.746ZM330.614 134.43C330.614 134.802 330.674 135.078 330.794 135.258C330.914 135.426 331.112 135.552 331.388 135.636L331.01 136.716C330.086 136.596 329.51 136.146 329.282 135.366C328.946 135.798 328.52 136.128 328.004 136.356C327.5 136.584 326.936 136.698 326.312 136.698C325.364 136.698 324.614 136.434 324.062 135.906C323.522 135.378 323.252 134.67 323.252 133.782C323.252 132.81 323.63 132.06 324.386 131.532C325.154 131.004 326.252 130.74 327.68 130.74H329.084V129.966C329.084 129.294 328.892 128.814 328.508 128.526C328.124 128.226 327.566 128.076 326.834 128.076C326.114 128.076 325.292 128.238 324.368 128.562L323.954 127.41C325.07 127.014 326.108 126.816 327.068 126.816C328.22 126.816 329.096 127.086 329.696 127.626C330.308 128.166 330.614 128.916 330.614 129.876V134.43ZM326.69 135.564C327.158 135.564 327.602 135.444 328.022 135.204C328.454 134.964 328.808 134.634 329.084 134.214V131.784H327.716C326.708 131.784 325.982 131.952 325.538 132.288C325.094 132.624 324.872 133.116 324.872 133.764C324.872 134.964 325.478 135.564 326.69 135.564ZM337.933 135.456C338.653 135.456 339.223 135.318 339.643 135.042C340.063 134.766 340.273 134.4 340.273 133.944C340.273 133.632 340.219 133.38 340.111 133.188C340.003 132.984 339.787 132.804 339.463 132.648C339.139 132.48 338.647 132.312 337.987 132.144C336.883 131.868 336.067 131.538 335.539 131.154C335.011 130.758 334.747 130.176 334.747 129.408C334.747 128.616 335.077 127.986 335.737 127.518C336.397 127.05 337.267 126.816 338.347 126.816C339.667 126.816 340.819 127.164 341.803 127.86L341.119 128.904C340.723 128.628 340.309 128.418 339.877 128.274C339.445 128.118 338.947 128.04 338.383 128.04C337.015 128.04 336.331 128.454 336.331 129.282C336.331 129.57 336.403 129.804 336.547 129.984C336.703 130.164 336.949 130.326 337.285 130.47C337.633 130.602 338.149 130.764 338.833 130.956C339.865 131.232 340.633 131.586 341.137 132.018C341.653 132.438 341.911 133.056 341.911 133.872C341.911 134.82 341.527 135.528 340.759 135.996C339.991 136.464 339.049 136.698 337.933 136.698C336.445 136.698 335.209 136.272 334.225 135.42L335.071 134.43C335.455 134.742 335.893 134.994 336.385 135.186C336.877 135.366 337.393 135.456 337.933 135.456ZM347.088 128.328C347.46 127.848 347.916 127.476 348.456 127.212C348.996 126.948 349.554 126.816 350.13 126.816C351.906 126.816 352.794 127.752 352.794 129.624V136.5H351.282V129.642C351.282 129.078 351.15 128.67 350.886 128.418C350.622 128.154 350.202 128.022 349.626 128.022C349.134 128.022 348.66 128.178 348.204 128.49C347.748 128.802 347.376 129.168 347.088 129.588V136.5H345.576V123.216L347.088 123.054V128.328ZM358.457 135.114C358.457 134.67 358.607 134.298 358.907 133.998C359.219 133.686 359.597 133.53 360.041 133.53C360.497 133.53 360.875 133.686 361.175 133.998C361.475 134.298 361.625 134.67 361.625 135.114C361.625 135.57 361.475 135.948 361.175 136.248C360.875 136.548 360.497 136.698 360.041 136.698C359.597 136.698 359.219 136.548 358.907 136.248C358.607 135.936 358.457 135.558 358.457 135.114ZM371.698 136.5H370.132V125.448H366.262V124.098H375.604L375.442 125.448H371.698V136.5ZM386.091 127.59C386.091 128.478 385.815 129.216 385.263 129.804C384.711 130.38 383.979 130.782 383.067 131.01L386.757 136.5H384.885L381.483 131.19H379.809V136.5H378.261V124.098H381.429C382.965 124.098 384.123 124.392 384.903 124.98C385.695 125.568 386.091 126.438 386.091 127.59ZM384.435 127.59C384.435 126.798 384.207 126.228 383.751 125.88C383.295 125.532 382.581 125.358 381.609 125.358H379.809V129.966H381.627C382.551 129.966 383.247 129.78 383.715 129.408C384.195 129.024 384.435 128.418 384.435 127.59ZM396.254 125.358H393.5V135.258H396.254V136.5H389.162V135.258H391.916V125.358H389.162V124.098H396.254V125.358ZM408.217 127.914C408.217 129.294 407.791 130.302 406.939 130.938C406.087 131.574 404.917 131.892 403.429 131.892H401.827V136.5H400.279V124.098H403.429C404.953 124.098 406.129 124.416 406.957 125.052C407.797 125.688 408.217 126.642 408.217 127.914ZM406.543 127.932C406.543 127.032 406.279 126.378 405.751 125.97C405.235 125.55 404.527 125.34 403.627 125.34H401.827V130.65H403.573C404.509 130.65 405.235 130.446 405.751 130.038C406.279 129.63 406.543 128.928 406.543 127.932ZM411.522 124.098H413.07V135.114H418.74L418.542 136.5H411.522V124.098ZM423.773 129.57H428.381V130.848H423.773V135.24H429.425V136.5H422.225V124.098H429.263L429.083 125.394H423.773V129.57ZM431.74 138.444H440.74V139.776H431.74V138.444ZM447.879 136.5H446.313V125.448H442.443V124.098H451.785L451.623 125.448H447.879V136.5ZM455.504 133.332L454.514 136.5H452.966L457.016 124.098H458.996L463.028 136.5H461.408L460.418 133.332H455.504ZM460.004 132.036L457.97 125.43L455.918 132.036H460.004ZM473.515 127.914C473.515 129.294 473.089 130.302 472.237 130.938C471.385 131.574 470.215 131.892 468.727 131.892H467.125V136.5H465.577V124.098H468.727C470.251 124.098 471.427 124.416 472.255 125.052C473.095 125.688 473.515 126.642 473.515 127.914ZM471.841 127.932C471.841 127.032 471.577 126.378 471.049 125.97C470.533 125.55 469.825 125.34 468.925 125.34H467.125V130.65H468.871C469.807 130.65 470.533 130.446 471.049 130.038C471.577 129.63 471.841 128.928 471.841 127.932ZM484.038 133.062C484.038 133.782 483.858 134.418 483.498 134.97C483.138 135.51 482.616 135.936 481.932 136.248C481.248 136.548 480.438 136.698 479.502 136.698C478.602 136.698 477.78 136.566 477.036 136.302C476.304 136.026 475.674 135.636 475.146 135.132L476.082 134.07C476.538 134.502 477.042 134.832 477.594 135.06C478.158 135.288 478.8 135.402 479.52 135.402C480.336 135.402 481.02 135.204 481.572 134.808C482.124 134.412 482.4 133.842 482.4 133.098C482.4 132.678 482.322 132.33 482.166 132.054C482.01 131.778 481.734 131.532 481.338 131.316C480.954 131.1 480.408 130.89 479.7 130.686C478.356 130.29 477.354 129.828 476.694 129.3C476.034 128.76 475.704 128.028 475.704 127.104C475.704 126.492 475.872 125.94 476.208 125.448C476.544 124.956 477.018 124.578 477.63 124.314C478.242 124.038 478.938 123.9 479.718 123.9C480.534 123.9 481.26 124.02 481.896 124.26C482.544 124.5 483.138 124.854 483.678 125.322L482.742 126.33C481.89 125.586 480.9 125.214 479.772 125.214C479.052 125.214 478.458 125.37 477.99 125.682C477.522 125.994 477.288 126.45 477.288 127.05C477.288 127.41 477.384 127.716 477.576 127.968C477.768 128.22 478.086 128.454 478.53 128.67C478.974 128.886 479.598 129.108 480.402 129.336C481.566 129.672 482.46 130.11 483.084 130.65C483.72 131.19 484.038 131.994 484.038 133.062Z" fill="#76F8E7"/>
<path d="M88.966 153.2C88.966 151.964 88.828 150.896 88.552 149.996C88.288 149.084 87.88 148.262 87.328 147.53C86.788 146.798 86.056 146.024 85.132 145.208L85.906 144.38C86.962 145.232 87.82 146.072 88.48 146.9C89.152 147.728 89.662 148.652 90.01 149.672C90.37 150.692 90.55 151.868 90.55 153.2C90.55 154.532 90.37 155.708 90.01 156.728C89.662 157.748 89.152 158.672 88.48 159.5C87.82 160.328 86.962 161.168 85.906 162.02L85.132 161.192C86.044 160.376 86.77 159.602 87.31 158.87C87.862 158.126 88.276 157.304 88.552 156.404C88.828 155.492 88.966 154.424 88.966 153.2Z" fill="#BEC0C5"/>
<rect x="842" y="18.5" width="40" height="40" rx="8" fill="white" fill-opacity="0.2"/>
<g clip-path="url(#clip0_160_91)">
<path d="M866 27.5H854C852.9 27.5 852 28.4 852 29.5V43.5H854V29.5H866V27.5ZM869 31.5H858C856.9 31.5 856 32.4 856 33.5V47.5C856 48.6 856.9 49.5 858 49.5H869C870.1 49.5 871 48.6 871 47.5V33.5C871 32.4 870.1 31.5 869 31.5ZM869 47.5H858V33.5H869V47.5Z" fill="white"/>
</g>
<defs>
<clipPath id="clip0_160_91">
<rect width="24" height="24" fill="white" transform="translate(850 26.5)"/>
</clipPath>
</defs>
</svg>
