<svg width="200" height="59" viewBox="0 0 200 59" fill="none" xmlns="http://www.w3.org/2000/svg">
<path d="M19.6506 42.217C19.3786 42.345 19.0666 42.393 18.7146 42.361C18.3786 42.345 18.0426 42.249 17.7066 42.073C17.3706 41.913 17.0746 41.697 16.8186 41.425C16.7066 41.297 16.6346 41.169 16.6026 41.041C16.5706 40.929 16.5866 40.769 16.6506 40.561C16.7306 40.273 16.8346 40.129 16.9626 40.129C17.1386 40.129 17.3386 40.281 17.5626 40.585C18.0106 40.985 18.4506 41.097 18.8826 40.921C19.3306 40.745 19.8026 40.273 20.2986 39.505C20.3946 39.265 20.5466 38.921 20.7546 38.473C20.9626 38.025 21.1786 37.545 21.4026 37.033C21.6426 36.521 21.8586 36.049 22.0506 35.617C22.2426 35.169 22.3706 34.849 22.4346 34.657C22.4346 34.657 22.4346 34.633 22.4346 34.585C22.4506 34.521 22.4906 34.457 22.5546 34.393C22.5706 34.329 22.6106 34.201 22.6746 34.009C22.7386 33.817 22.8026 33.593 22.8666 33.337C22.9306 33.161 23.0186 32.897 23.1306 32.545C23.2586 32.193 23.3866 31.825 23.5146 31.441C23.6586 31.057 23.7786 30.737 23.8746 30.481C23.9546 30.145 24.0506 29.785 24.1626 29.401C24.2906 29.001 24.3946 28.697 24.4746 28.489C24.5386 28.361 24.6346 28.105 24.7626 27.721C24.8906 27.321 25.0346 26.889 25.1946 26.425C25.3866 25.801 25.5706 25.225 25.7466 24.697C25.9226 24.153 26.0586 23.713 26.1546 23.377C26.2666 23.025 26.3066 22.825 26.2746 22.777C26.2746 22.777 26.1306 22.801 25.8426 22.849C25.5706 22.897 25.2666 22.953 24.9306 23.017C24.6586 23.129 24.3866 23.169 24.1146 23.137C23.8586 23.089 23.7386 23.033 23.7546 22.969C23.7546 22.905 23.7546 22.873 23.7546 22.873C23.7546 22.857 23.7546 22.849 23.7546 22.849C23.7066 22.881 23.6426 22.873 23.5626 22.825C23.4826 22.761 23.4106 22.681 23.3466 22.585C23.2826 22.473 23.2506 22.377 23.2506 22.297C23.2506 22.169 23.4106 22.057 23.7306 21.961C24.0506 21.849 24.4586 21.761 24.9546 21.697C25.2746 21.649 25.5866 21.609 25.8906 21.577C26.2106 21.529 26.4746 21.489 26.6826 21.457C26.7466 21.409 26.8586 21.409 27.0186 21.457C27.1946 21.505 27.3706 21.569 27.5466 21.649C27.7386 21.729 27.8746 21.817 27.9546 21.913C28.0506 22.041 28.1066 22.177 28.1226 22.321C28.1546 22.465 28.1386 22.665 28.0746 22.921C28.0106 23.177 27.8906 23.545 27.7146 24.025C27.5546 24.489 27.3226 25.129 27.0186 25.945C26.6666 26.937 26.3546 27.841 26.0826 28.657C25.8106 29.457 25.5626 30.121 25.3386 30.649C25.2906 30.825 25.2026 31.081 25.0746 31.417C24.9626 31.753 24.8506 32.097 24.7386 32.449C24.6266 32.785 24.5386 33.065 24.4746 33.289C24.3466 33.593 24.2266 33.921 24.1146 34.273C24.0026 34.625 23.9146 34.905 23.8506 35.113C23.8506 35.241 23.8186 35.385 23.7546 35.545C23.6906 35.705 23.6186 35.825 23.5386 35.905C23.5386 35.905 23.4826 36.049 23.3706 36.337C23.2586 36.609 23.1226 36.937 22.9626 37.321C22.8346 37.641 22.6906 37.993 22.5306 38.377C22.3866 38.777 22.2506 39.081 22.1226 39.289C22.0426 39.481 21.9466 39.657 21.8346 39.817C21.7226 39.993 21.6666 40.113 21.6666 40.177C21.6666 40.177 21.6586 40.201 21.6426 40.249C21.6426 40.297 21.6106 40.321 21.5466 40.321C21.5466 40.321 21.5226 40.337 21.4746 40.369C21.4266 40.417 21.4026 40.481 21.4026 40.561C21.3706 40.657 21.2826 40.785 21.1386 40.945C21.0106 41.105 20.8506 41.273 20.6586 41.449C20.4826 41.625 20.2986 41.777 20.1066 41.905C19.9306 42.049 19.7786 42.153 19.6506 42.217ZM32.6378 37.825C32.4778 37.665 32.3178 37.449 32.1578 37.177C31.9978 36.889 31.8698 36.561 31.7738 36.193C31.7418 36.065 31.7258 35.889 31.7258 35.665C31.7418 35.441 31.7418 35.281 31.7258 35.185C31.6778 35.297 31.5978 35.417 31.4858 35.545C31.3898 35.657 31.2938 35.753 31.1978 35.833C31.1338 35.897 30.9898 36.025 30.7658 36.217C30.5418 36.393 30.3178 36.537 30.0938 36.649C29.5658 36.985 29.1258 37.169 28.7738 37.201C28.4378 37.233 28.1178 37.057 27.8138 36.673C27.5578 36.465 27.3738 36.233 27.2618 35.977C27.1658 35.721 27.1658 35.369 27.2618 34.921C27.2938 34.361 27.3738 33.817 27.5018 33.289C27.6298 32.745 27.8938 32.025 28.2938 31.129C28.6298 30.473 28.8858 29.993 29.0618 29.689C29.2378 29.369 29.3498 29.177 29.3978 29.113C29.6378 29.033 29.8378 29.041 29.9978 29.137C30.1578 29.217 30.2538 29.369 30.2858 29.593C30.3818 29.753 30.3658 30.025 30.2378 30.409C30.1258 30.793 29.9258 31.265 29.6378 31.825C29.4138 32.369 29.2058 32.913 29.0138 33.457C28.8378 34.001 28.7338 34.465 28.7018 34.849C28.6698 35.233 28.7658 35.465 28.9898 35.545C29.1338 35.625 29.3818 35.601 29.7338 35.473C30.1018 35.345 30.5098 35.025 30.9578 34.513C31.4218 34.001 31.8698 33.225 32.3018 32.185C32.4298 31.865 32.5258 31.585 32.5898 31.345C32.6538 31.089 32.6938 30.809 32.7098 30.505C32.6778 30.313 32.6858 30.145 32.7338 30.001C32.7978 29.841 32.9258 29.705 33.1178 29.593C33.1818 29.513 33.2698 29.441 33.3818 29.377C33.4938 29.297 33.5658 29.297 33.5978 29.377L33.9818 29.353C34.0458 29.337 34.0858 29.377 34.1018 29.473C34.1338 29.553 34.1898 29.625 34.2698 29.689C34.4458 29.833 34.4938 30.145 34.4138 30.625C34.3338 31.105 34.1098 31.777 33.7418 32.641C33.4378 33.297 33.2298 33.793 33.1178 34.129C33.0218 34.465 32.9658 34.793 32.9498 35.113C32.9498 35.401 33.0058 35.673 33.1178 35.929C33.2298 36.185 33.4058 36.417 33.6458 36.625C33.8218 36.737 33.9178 36.865 33.9338 37.009C33.9658 37.153 33.9738 37.321 33.9578 37.513C33.9258 37.657 33.8298 37.777 33.6698 37.873C33.5258 37.953 33.3578 37.993 33.1658 37.993C32.9738 37.993 32.7978 37.937 32.6378 37.825ZM37.3686 37.969C37.0646 37.841 36.7766 37.673 36.5046 37.465C36.2326 37.241 36.0566 37.057 35.9766 36.913C35.9766 36.769 36.0006 36.673 36.0486 36.625C36.0966 36.561 36.2326 36.537 36.4566 36.553C36.6966 36.553 37.0806 36.585 37.6086 36.649C37.8006 36.649 38.0406 36.633 38.3286 36.601C38.6166 36.569 38.8806 36.521 39.1206 36.457C39.3766 36.393 39.5206 36.313 39.5526 36.217C39.6326 36.217 39.6486 36.193 39.6006 36.145C39.5526 36.081 39.4966 36.017 39.4326 35.953C39.3686 35.953 39.2966 35.929 39.2166 35.881C39.1366 35.817 39.0646 35.785 39.0006 35.785C39.0006 35.705 38.9206 35.617 38.7606 35.521C38.6166 35.409 38.4646 35.321 38.3046 35.257C37.9526 34.969 37.6486 34.713 37.3926 34.489C37.1366 34.249 37.0406 34.089 37.1046 34.009C37.1046 33.945 37.1046 33.913 37.1046 33.913C37.1046 33.897 37.1046 33.889 37.1046 33.889C36.9926 33.889 36.8646 33.729 36.7206 33.409C36.5926 33.089 36.5286 32.801 36.5286 32.545C36.5286 32.353 36.5846 32.113 36.6966 31.825C36.8086 31.521 36.9606 31.209 37.1526 30.889C37.3446 30.569 37.5446 30.305 37.7526 30.097C38.0406 29.825 38.4006 29.537 38.8326 29.233C39.2646 28.913 39.6886 28.633 40.1046 28.393C40.5366 28.137 40.8966 27.969 41.1846 27.889C41.4726 27.777 41.7366 27.721 41.9766 27.721C42.2326 27.721 42.4566 27.777 42.6486 27.889C42.8086 27.969 42.9526 28.089 43.0806 28.249C43.2246 28.393 43.3446 28.545 43.4406 28.705C43.5526 28.849 43.6246 28.977 43.6566 29.089C43.6566 29.281 43.6406 29.497 43.6086 29.737C43.5766 29.961 43.5286 30.161 43.4646 30.337C43.4166 30.513 43.3366 30.601 43.2246 30.601C43.2246 30.601 43.2006 30.609 43.1526 30.625C43.1206 30.625 43.1046 30.665 43.1046 30.745C43.1046 30.905 42.9846 31.089 42.7446 31.297C42.4406 31.505 42.1766 31.633 41.9526 31.681C41.7286 31.713 41.5926 31.625 41.5446 31.417C41.4966 31.353 41.4646 31.297 41.4486 31.249C41.4326 31.201 41.3926 31.177 41.3286 31.177C41.3286 31.177 41.3046 31.153 41.2566 31.105C41.2086 31.057 41.1846 30.977 41.1846 30.865C41.1846 30.801 41.2086 30.745 41.2566 30.697C41.3046 30.633 41.3286 30.601 41.3286 30.601C41.4086 30.601 41.5126 30.513 41.6406 30.337C41.7686 30.145 41.8806 29.945 41.9766 29.737C42.0886 29.513 42.1446 29.361 42.1446 29.281C42.1446 29.185 42.1286 29.129 42.0966 29.113C42.0806 29.097 42.0086 29.089 41.8806 29.089C41.6566 29.185 41.3846 29.313 41.0646 29.473C40.7446 29.633 40.4406 29.793 40.1526 29.953C39.8806 30.097 39.6806 30.233 39.5526 30.361C39.4886 30.473 39.4486 30.545 39.4326 30.577C39.4166 30.593 39.3766 30.601 39.3126 30.601C39.3126 30.537 39.2566 30.569 39.1446 30.697C39.0486 30.809 38.9206 30.969 38.7606 31.177C38.6166 31.385 38.4726 31.593 38.3286 31.801C38.2006 31.993 38.1046 32.137 38.0406 32.233C38.0086 32.265 37.9686 32.361 37.9206 32.521C37.8886 32.665 37.8726 32.801 37.8726 32.929C37.8086 33.121 37.8166 33.257 37.8966 33.337C37.9766 33.401 38.1526 33.545 38.4246 33.769C38.9846 34.185 39.4246 34.529 39.7446 34.801C40.0646 35.073 40.3046 35.297 40.4646 35.473C40.6246 35.649 40.7206 35.809 40.7526 35.953C41.0406 36.433 41.1286 36.801 41.0166 37.057C40.9046 37.313 40.6326 37.537 40.2006 37.729C40.0406 37.809 39.7766 37.873 39.4086 37.921C39.0406 37.969 38.6646 37.993 38.2806 37.993C37.8966 38.009 37.5926 38.001 37.3686 37.969ZM47.2043 37.825C46.9803 37.761 46.7963 37.689 46.6523 37.609C46.5083 37.513 46.3163 37.361 46.0763 37.153C45.8843 36.897 45.7323 36.657 45.6203 36.433C45.5243 36.209 45.4603 35.953 45.4283 35.665C45.3963 35.361 45.3803 34.977 45.3803 34.513C45.3803 34.321 45.4123 34.033 45.4763 33.649C45.5563 33.265 45.6443 32.865 45.7403 32.449C45.8523 32.017 45.9483 31.633 46.0283 31.297C46.1243 30.961 46.1803 30.745 46.1963 30.649C46.2443 30.441 46.1643 30.321 45.9563 30.289C45.7483 30.257 45.5163 30.249 45.2603 30.265C45.0203 30.265 44.8603 30.241 44.7803 30.193C44.7163 30.177 44.6843 30.153 44.6843 30.121C44.6843 30.073 44.6843 30.049 44.6843 30.049C44.6843 29.985 44.6763 29.945 44.6603 29.929C44.6603 29.897 44.6363 29.841 44.5883 29.761C44.5563 29.697 44.5723 29.609 44.6363 29.497C44.7163 29.369 44.8443 29.289 45.0203 29.257C45.1643 29.225 45.3563 29.201 45.5963 29.185C45.8523 29.153 46.1083 29.097 46.3643 29.017C46.6203 28.921 46.8283 28.777 46.9883 28.585C47.1323 28.233 47.3003 27.841 47.4923 27.409C47.6843 26.977 47.8683 26.593 48.0443 26.257C48.2363 25.905 48.3643 25.689 48.4283 25.609C48.7003 25.465 48.9003 25.409 49.0283 25.441C49.1563 25.457 49.3003 25.593 49.4603 25.849C49.5403 25.961 49.5963 26.049 49.6283 26.113C49.6763 26.177 49.6843 26.273 49.6523 26.401C49.6203 26.529 49.5323 26.729 49.3883 27.001C49.2603 27.273 49.0603 27.665 48.7883 28.177C48.7083 28.337 48.6363 28.481 48.5723 28.609C48.5083 28.721 48.4763 28.777 48.4763 28.777C48.5403 28.793 48.6363 28.801 48.7643 28.801C48.8923 28.801 49.0523 28.793 49.2443 28.777C49.4203 28.745 49.6443 28.721 49.9163 28.705C50.1883 28.673 50.4043 28.673 50.5643 28.705C50.9323 28.705 51.2043 28.777 51.3803 28.921C51.5563 29.049 51.6523 29.273 51.6683 29.593C51.7003 29.769 51.6603 29.873 51.5483 29.905C51.4523 29.937 51.1883 29.953 50.7563 29.953C50.6123 29.953 50.3883 29.961 50.0843 29.977C49.7803 29.993 49.4603 30.009 49.1243 30.025C48.8043 30.041 48.5243 30.065 48.2843 30.097C48.0603 30.113 47.9483 30.137 47.9483 30.169C47.9003 30.201 47.8203 30.353 47.7083 30.625C47.6123 30.897 47.5083 31.209 47.3963 31.561C47.3003 31.897 47.2123 32.201 47.1323 32.473C47.0203 33.017 46.9323 33.561 46.8683 34.105C46.8203 34.649 46.8123 35.121 46.8443 35.521C46.8763 35.921 46.9643 36.201 47.1083 36.361C47.2523 36.505 47.5323 36.537 47.9483 36.457C48.3643 36.361 48.7003 36.209 48.9563 36.001C49.2443 35.761 49.4763 35.641 49.6523 35.641C49.8443 35.641 49.9483 35.729 49.9643 35.905C49.9963 36.065 49.9083 36.297 49.7003 36.601C49.5083 36.889 49.2683 37.145 48.9803 37.369C48.6923 37.577 48.3883 37.729 48.0683 37.825C47.7643 37.905 47.4763 37.905 47.2043 37.825ZM61.6581 37.249C61.4501 37.345 61.2101 37.385 60.9381 37.369C60.6661 37.353 60.2981 37.265 59.8341 37.105C59.8021 37.105 59.7301 37.073 59.6181 37.009C59.5221 36.945 59.4181 36.865 59.3061 36.769C59.2101 36.657 59.1301 36.537 59.0661 36.409C58.8101 36.041 58.7061 35.497 58.7541 34.777C58.8021 34.057 59.0261 33.193 59.4261 32.185C59.5381 31.945 59.7061 31.641 59.9301 31.273C60.1701 30.905 60.4021 30.569 60.6261 30.265C60.8661 29.945 61.0341 29.761 61.1301 29.713C61.1301 29.713 61.2181 29.681 61.3941 29.617C61.5701 29.553 61.7941 29.449 62.0661 29.305C62.1461 29.273 62.2341 29.241 62.3301 29.209C62.4421 29.177 62.5541 29.153 62.6661 29.137C62.7781 29.121 62.8741 29.121 62.9541 29.137C63.2741 29.153 63.6021 29.273 63.9381 29.497C64.2901 29.705 64.5781 29.953 64.8021 30.241C65.0261 30.513 65.0981 30.753 65.0181 30.961C65.0181 30.993 64.9701 31.057 64.8741 31.153C64.7941 31.233 64.6981 31.321 64.5861 31.417C64.4901 31.497 64.4101 31.577 64.3461 31.657C64.2661 31.753 64.1541 31.793 64.0101 31.777C63.8821 31.761 63.7621 31.697 63.6501 31.585C63.5541 31.457 63.4981 31.297 63.4821 31.105C63.4501 30.977 63.3301 30.857 63.1221 30.745C62.9301 30.633 62.8341 30.577 62.8341 30.577C62.7061 30.577 62.5221 30.697 62.2821 30.937C62.0581 31.161 61.8341 31.433 61.6101 31.753C61.3221 32.041 61.0741 32.385 60.8661 32.785C60.6581 33.169 60.4901 33.537 60.3621 33.889C60.2501 34.225 60.1701 34.465 60.1221 34.609C60.0581 34.769 60.0501 34.993 60.0981 35.281C60.1461 35.569 60.2021 35.745 60.2661 35.809C60.3301 35.841 60.4901 35.849 60.7461 35.833C61.0181 35.817 61.3381 35.785 61.7061 35.737C62.0741 35.673 62.4341 35.601 62.7861 35.521C63.1381 35.441 63.4261 35.353 63.6501 35.257C63.9541 35.065 64.2181 34.953 64.4421 34.921C64.6661 34.889 64.8341 34.889 64.9461 34.921C65.1221 34.985 65.2261 35.073 65.2581 35.185C65.2901 35.297 65.2501 35.425 65.1381 35.569C65.0261 35.697 64.8341 35.833 64.5621 35.977C64.3061 36.105 64.0741 36.249 63.8661 36.409C63.6741 36.553 63.5781 36.665 63.5781 36.745C63.5141 36.745 63.4421 36.769 63.3621 36.817C63.2981 36.849 63.2421 36.857 63.1941 36.841C63.1621 36.841 63.0341 36.865 62.8101 36.913C62.5861 36.961 62.3541 37.017 62.1141 37.081C61.8901 37.145 61.7381 37.201 61.6581 37.249ZM69.7953 36.961C69.4593 37.025 69.2433 37.049 69.1473 37.033C69.0673 37.001 68.9393 36.905 68.7633 36.745C68.5073 36.617 68.2913 36.457 68.1153 36.265C67.9553 36.073 67.8353 35.873 67.7553 35.665C67.6913 35.441 67.6673 35.257 67.6833 35.113C67.7313 34.553 67.8673 33.953 68.0913 33.313C68.3153 32.673 68.5873 32.057 68.9073 31.465C69.2273 30.873 69.5713 30.369 69.9393 29.953C70.3233 29.521 70.6913 29.241 71.0433 29.113C71.3633 28.985 71.6673 28.937 71.9553 28.969C72.2433 29.001 72.4513 29.153 72.5793 29.425C72.8193 29.889 72.7633 30.185 72.4113 30.313C72.3633 30.313 72.3073 30.337 72.2433 30.385C72.1793 30.417 72.1473 30.465 72.1473 30.529C72.2113 30.561 72.3873 30.569 72.6753 30.553C72.9633 30.521 73.2513 30.473 73.5393 30.409C73.8433 30.329 74.0433 30.249 74.1393 30.169C74.2353 30.121 74.3073 30.097 74.3553 30.097C74.4033 30.097 74.5233 30.113 74.7153 30.145C74.9873 30.225 75.1233 30.321 75.1233 30.433C75.1233 30.497 75.1473 30.561 75.1953 30.625C75.2433 30.673 75.2993 30.697 75.3633 30.697C75.4753 30.713 75.4593 30.785 75.3153 30.913C75.1873 31.041 74.9633 31.217 74.6433 31.441C74.3393 31.633 74.1473 31.761 74.0673 31.825C74.0033 31.873 73.9953 31.985 74.0433 32.161C74.1713 32.465 74.1793 32.817 74.0673 33.217C73.9553 33.617 73.7553 34.025 73.4673 34.441C73.1793 34.857 72.8273 35.249 72.4113 35.617C72.0113 35.969 71.5793 36.273 71.1153 36.529C70.6673 36.769 70.2273 36.913 69.7953 36.961ZM69.3873 35.905C69.4513 35.905 69.5633 35.873 69.7233 35.809C69.8833 35.729 70.0113 35.665 70.1073 35.617C70.1713 35.553 70.2513 35.481 70.3473 35.401C70.4593 35.305 70.5473 35.249 70.6113 35.233C70.6753 35.233 70.7553 35.209 70.8513 35.161C70.9473 35.097 71.0833 34.977 71.2593 34.801C71.4353 34.609 71.6673 34.329 71.9553 33.961C72.2753 33.609 72.5233 33.289 72.6993 33.001C72.8753 32.697 72.9233 32.417 72.8433 32.161C72.8273 32.097 72.7793 32.057 72.6993 32.041C72.6353 32.025 72.5473 31.985 72.4353 31.921C72.2753 31.921 72.1233 31.881 71.9793 31.801C71.8513 31.705 71.6993 31.585 71.5233 31.441L71.1393 30.961L70.7313 31.369C70.4753 31.625 70.2033 32.009 69.9153 32.521C69.6433 33.017 69.4113 33.529 69.2193 34.057C69.0273 34.569 68.9153 34.977 68.8833 35.281C68.8673 35.521 68.9073 35.681 69.0033 35.761C69.0993 35.841 69.2273 35.889 69.3873 35.905ZM74.9202 43.249C74.8562 43.249 74.7762 43.249 74.6802 43.249C74.5842 43.265 74.4962 43.201 74.4162 43.057C74.3522 42.977 74.3122 42.857 74.2962 42.697C74.2962 42.537 74.3362 42.249 74.4162 41.833C74.4962 41.561 74.5602 41.289 74.6082 41.017C74.6562 40.761 74.6802 40.569 74.6802 40.441C74.6802 40.377 74.6962 40.249 74.7282 40.057C74.7762 39.881 74.8002 39.753 74.8002 39.673C74.8802 39.545 74.9442 39.369 74.9922 39.145C75.0402 38.921 75.0642 38.721 75.0642 38.545C75.0642 38.353 75.1602 38.177 75.3522 38.017C75.3522 37.889 75.3762 37.729 75.4242 37.537C75.4882 37.345 75.5202 37.217 75.5202 37.153C75.5682 36.929 75.6722 36.537 75.8322 35.977C76.0082 35.401 76.2162 34.753 76.4562 34.033C76.7122 33.313 76.9602 32.609 77.2002 31.921C77.4402 31.233 77.6562 30.649 77.8482 30.169C78.0402 29.721 78.1682 29.337 78.2322 29.017C78.3122 28.681 78.3522 28.433 78.3522 28.273C78.3522 28.209 78.3682 28.161 78.4002 28.129C78.4322 28.081 78.5042 27.993 78.6162 27.865C78.7762 27.705 78.9122 27.657 79.0242 27.721C79.1522 27.785 79.3042 27.881 79.4802 28.009C79.6082 28.217 79.6962 28.393 79.7442 28.537C79.8082 28.681 79.8082 28.929 79.7442 29.281C79.7442 29.521 79.7042 29.729 79.6242 29.905C79.5442 30.081 79.4722 30.217 79.4082 30.313C79.3442 30.393 79.3282 30.425 79.3602 30.409C80.0162 30.105 80.5922 29.945 81.0882 29.929C81.6002 29.897 82.0242 29.985 82.3602 30.193C82.7122 30.385 82.9762 30.657 83.1522 31.009C83.3282 31.361 83.4162 31.769 83.4162 32.233C83.4162 32.425 83.3762 32.657 83.2962 32.929C83.2162 33.185 83.1122 33.425 82.9842 33.649C82.8722 33.857 82.7682 34.009 82.6722 34.105C82.6082 34.105 82.5442 34.161 82.4802 34.273C82.4162 34.369 82.3522 34.481 82.2882 34.609C82.1602 34.769 81.9522 34.953 81.6642 35.161C81.3922 35.353 81.1202 35.513 80.8482 35.641C80.5762 35.753 80.3762 35.785 80.2482 35.737C80.2482 35.737 80.2242 35.745 80.1762 35.761C80.1442 35.761 80.1282 35.801 80.1282 35.881C80.1282 35.913 80.0002 35.985 79.7442 36.097C79.4882 36.193 79.1922 36.289 78.8562 36.385C78.5202 36.465 78.2242 36.505 77.9682 36.505C77.6322 36.505 77.3922 36.441 77.2482 36.313C77.2162 36.345 77.1762 36.393 77.1282 36.457C77.0962 36.521 77.0802 36.577 77.0802 36.625C77.0802 36.721 77.0402 36.905 76.9602 37.177C76.8962 37.433 76.8162 37.681 76.7202 37.921C76.6242 38.161 76.5362 38.281 76.4562 38.281C76.4562 38.281 76.4402 38.305 76.4082 38.353C76.3762 38.401 76.3922 38.465 76.4562 38.545C76.4562 38.545 76.4482 38.633 76.4322 38.809C76.4322 39.001 76.3922 39.161 76.3122 39.289C76.3122 39.417 76.2882 39.609 76.2402 39.865C76.1922 40.121 76.1362 40.313 76.0722 40.441C76.0722 40.633 76.0402 40.817 75.9762 40.993C75.9282 41.185 75.8722 41.281 75.8082 41.281C75.7442 41.297 75.7042 41.393 75.6882 41.569C75.6722 41.761 75.6642 41.897 75.6642 41.977C75.6482 42.377 75.5682 42.689 75.4242 42.913C75.2802 43.137 75.1122 43.249 74.9202 43.249ZM77.8242 35.233C77.9522 35.233 78.2162 35.177 78.6162 35.065C79.0162 34.953 79.4242 34.817 79.8402 34.657C80.2722 34.481 80.5922 34.305 80.8002 34.129C81.2162 33.761 81.5362 33.345 81.7602 32.881C82.0002 32.401 81.9842 31.945 81.7122 31.513C81.5842 31.289 81.3522 31.201 81.0162 31.249C80.6802 31.281 80.3122 31.409 79.9122 31.633C79.5122 31.857 79.1362 32.137 78.7842 32.473C78.5922 32.681 78.4162 32.937 78.2562 33.241C78.0962 33.545 77.9602 33.849 77.8482 34.153C77.7522 34.457 77.6962 34.713 77.6802 34.921C77.6642 35.129 77.7122 35.233 77.8242 35.233ZM84.6625 43.657C84.3105 43.721 84.0705 43.729 83.9425 43.681C83.8145 43.633 83.6385 43.553 83.4145 43.441C83.2385 43.313 83.1025 43.217 83.0065 43.153C82.9105 43.089 82.8625 43.025 82.8625 42.961C82.8625 42.913 82.8785 42.857 82.9105 42.793C82.9425 42.745 82.9985 42.697 83.0785 42.649C83.1745 42.617 83.3025 42.601 83.4625 42.601C83.5745 42.665 83.7585 42.697 84.0145 42.697C84.2865 42.697 84.4545 42.665 84.5185 42.601C84.5185 42.601 84.5905 42.553 84.7345 42.457C84.8945 42.377 85.1025 42.313 85.3585 42.265C85.8545 42.025 86.2945 41.721 86.6785 41.353C87.0625 40.985 87.4305 40.505 87.7825 39.913C87.9265 39.689 88.0785 39.425 88.2385 39.121C88.3985 38.833 88.5105 38.545 88.5745 38.257C88.7025 37.937 88.8465 37.505 89.0065 36.961C89.1825 36.417 89.3345 35.881 89.4625 35.353C89.5905 34.809 89.6625 34.401 89.6785 34.129C89.7745 33.233 89.9265 32.409 90.1345 31.657C90.3585 30.889 90.5505 30.033 90.7105 29.089C90.8065 28.865 90.8785 28.737 90.9265 28.705C90.9745 28.657 91.0785 28.633 91.2385 28.633C91.4145 28.633 91.5425 28.649 91.6225 28.681C91.7185 28.697 91.8225 28.793 91.9345 28.969C92.0945 29.273 92.1505 29.633 92.1025 30.049C92.0705 30.449 91.9505 30.801 91.7425 31.105C91.5825 31.329 91.4385 31.681 91.3105 32.161C91.1985 32.625 91.0865 33.209 90.9745 33.913C90.8945 34.265 90.8065 34.681 90.7105 35.161C90.6305 35.625 90.5425 36.145 90.4465 36.721C90.3825 36.881 90.2945 37.129 90.1825 37.465C90.0705 37.785 89.9985 38.041 89.9665 38.233C89.9505 38.297 89.9025 38.425 89.8225 38.617C89.7425 38.809 89.6625 38.993 89.5825 39.169C89.5025 39.361 89.4465 39.489 89.4145 39.553C88.7905 40.849 88.0785 41.841 87.2785 42.529C86.4785 43.217 85.6065 43.593 84.6625 43.657ZM86.4865 36.697C86.3105 36.697 86.1265 36.601 85.9345 36.409C85.7585 36.217 85.6385 36.065 85.5745 35.953C85.5105 35.793 85.4305 35.641 85.3345 35.497C85.2385 35.353 85.1665 35.177 85.1185 34.969C85.0865 34.761 85.1025 34.505 85.1665 34.201C85.2305 33.993 85.3185 33.697 85.4305 33.313C85.5585 32.913 85.6945 32.481 85.8385 32.017C85.9985 31.553 86.1585 31.097 86.3185 30.649C86.4945 30.185 86.6545 29.777 86.7985 29.425C86.9425 29.057 87.0705 28.793 87.1825 28.633C87.2785 28.505 87.3825 28.425 87.4945 28.393C87.6225 28.361 87.7505 28.377 87.8785 28.441C88.0065 28.489 88.1185 28.593 88.2145 28.753C88.3905 28.977 88.4625 29.169 88.4305 29.329C88.3985 29.489 88.2545 29.801 87.9985 30.265C87.9345 30.441 87.8545 30.633 87.7585 30.841C87.6625 31.033 87.6145 31.161 87.6145 31.225C87.5985 31.257 87.5665 31.369 87.5185 31.561C87.4865 31.737 87.4465 31.905 87.3985 32.065C87.3505 32.225 87.3025 32.305 87.2545 32.305C87.1905 32.369 87.1185 32.553 87.0385 32.857C86.9585 33.145 86.8865 33.473 86.8225 33.841C86.7585 34.193 86.7185 34.505 86.7025 34.777C86.6865 35.033 86.7105 35.161 86.7745 35.161C87.2705 35.161 87.7825 34.969 88.3105 34.585C88.8545 34.201 89.3985 33.641 89.9425 32.905L90.3505 34.609C90.1265 34.721 89.9185 34.841 89.7265 34.969C89.5345 35.081 89.3585 35.217 89.1985 35.377C89.1505 35.441 89.0385 35.529 88.8625 35.641C88.6865 35.753 88.5105 35.857 88.3345 35.953C88.1745 36.033 88.0705 36.073 88.0225 36.073C88.0225 36.073 87.9985 36.081 87.9505 36.097C87.9185 36.097 87.9025 36.129 87.9025 36.193C87.9025 36.225 87.7985 36.289 87.5905 36.385C87.3825 36.465 87.1665 36.537 86.9425 36.601C86.7185 36.665 86.5665 36.697 86.4865 36.697ZM100.767 37.081C100.575 37.113 100.367 37.081 100.143 36.985C99.9187 36.889 99.7187 36.753 99.5427 36.577C99.3827 36.401 99.2787 36.217 99.2307 36.025C99.1667 35.689 99.2067 35.273 99.3507 34.777C99.5107 34.265 99.7347 33.729 100.023 33.169C100.327 32.593 100.663 32.041 101.031 31.513C101.415 30.985 101.807 30.529 102.207 30.145C102.623 29.745 103.007 29.473 103.359 29.329C103.535 29.217 103.671 29.145 103.767 29.113C103.879 29.065 103.991 29.057 104.103 29.089C104.231 29.121 104.415 29.201 104.655 29.329C104.879 29.393 105.047 29.465 105.159 29.545C105.271 29.625 105.415 29.785 105.591 30.025C105.719 30.265 105.815 30.505 105.879 30.745C105.943 30.985 105.999 31.257 106.047 31.561C106.175 31.961 106.223 32.225 106.191 32.353C106.159 32.465 106.111 32.553 106.047 32.617C105.919 32.777 105.887 32.857 105.951 32.857C105.951 32.857 105.943 32.889 105.927 32.953C105.927 33.001 105.895 33.081 105.831 33.193C105.719 33.545 105.631 33.913 105.567 34.297C105.519 34.665 105.527 34.969 105.591 35.209C105.719 35.561 105.951 35.769 106.287 35.833C106.623 35.897 106.967 35.753 107.319 35.401C107.495 35.273 107.663 35.161 107.823 35.065C107.983 34.953 108.063 34.961 108.063 35.089C108.063 35.089 108.087 35.113 108.135 35.161C108.183 35.193 108.239 35.209 108.303 35.209C108.383 35.209 108.431 35.241 108.447 35.305C108.479 35.369 108.479 35.457 108.447 35.569C108.431 35.665 108.383 35.777 108.303 35.905C108.063 36.145 107.943 36.305 107.943 36.385C107.943 36.385 107.911 36.417 107.847 36.481C107.799 36.529 107.711 36.609 107.583 36.721C107.295 36.897 106.927 36.985 106.479 36.985C106.047 36.985 105.711 36.897 105.471 36.721C105.231 36.545 105.007 36.305 104.799 36.001C104.607 35.697 104.479 35.433 104.415 35.209L104.295 34.969L103.599 35.425C103.423 35.601 103.231 35.769 103.023 35.929C102.831 36.089 102.703 36.201 102.639 36.265C102.591 36.329 102.535 36.385 102.471 36.433C102.423 36.481 102.367 36.505 102.303 36.505C102.239 36.505 102.183 36.505 102.135 36.505C102.087 36.505 102.063 36.505 102.063 36.505C102.063 36.569 101.983 36.649 101.823 36.745C101.679 36.841 101.503 36.921 101.295 36.985C101.103 37.049 100.927 37.081 100.767 37.081ZM100.527 35.785C100.623 35.785 100.791 35.713 101.031 35.569C101.287 35.409 101.567 35.225 101.871 35.017C102.191 34.809 102.471 34.601 102.711 34.393C102.967 34.185 103.143 34.025 103.239 33.913C103.303 33.849 103.407 33.745 103.551 33.601C103.695 33.441 103.823 33.305 103.935 33.193C104.303 32.777 104.559 32.321 104.703 31.825C104.847 31.313 104.831 30.913 104.655 30.625C104.591 30.449 104.511 30.353 104.415 30.337C104.319 30.321 104.119 30.377 103.815 30.505C103.623 30.617 103.383 30.833 103.095 31.153C102.823 31.457 102.527 31.817 102.207 32.233C101.903 32.633 101.615 33.049 101.343 33.481C101.071 33.913 100.847 34.313 100.671 34.681C100.495 35.049 100.407 35.337 100.407 35.545C100.407 35.609 100.423 35.665 100.455 35.713C100.503 35.761 100.527 35.785 100.527 35.785ZM110.394 36.817C110.33 36.817 110.234 36.777 110.106 36.697C109.994 36.601 109.906 36.521 109.842 36.457C109.73 36.329 109.658 36.201 109.626 36.073C109.61 35.945 109.602 35.657 109.602 35.209C109.602 34.697 109.706 34.145 109.914 33.553C110.122 32.945 110.474 32.097 110.97 31.009L111.762 29.329C111.826 29.201 111.882 29.105 111.93 29.041C111.994 28.977 112.05 28.913 112.098 28.849C112.162 28.849 112.218 28.849 112.266 28.849C112.314 28.849 112.338 28.849 112.338 28.849C112.466 28.849 112.594 28.929 112.722 29.089C112.85 29.233 112.946 29.393 113.01 29.569C113.01 29.777 112.978 29.993 112.914 30.217C112.866 30.441 112.674 30.777 112.338 31.225C112.226 31.401 112.074 31.697 111.882 32.113C111.706 32.529 111.586 32.889 111.522 33.193C111.506 33.209 111.474 33.281 111.426 33.409C111.378 33.521 111.322 33.649 111.258 33.793C111.21 33.937 111.154 34.073 111.09 34.201L110.97 34.729L112.578 33.073C113.33 32.321 113.938 31.785 114.402 31.465C114.866 31.145 115.234 31.009 115.506 31.057C115.778 31.105 116.01 31.321 116.202 31.705C116.314 31.881 116.394 32.041 116.442 32.185C116.506 32.313 116.546 32.489 116.562 32.713C116.578 32.937 116.562 33.273 116.514 33.721V35.209C116.754 35.145 116.946 35.089 117.09 35.041C117.234 34.977 117.386 34.913 117.546 34.849C117.69 34.785 117.858 34.729 118.05 34.681C118.242 34.617 118.482 34.577 118.77 34.561C118.754 34.769 118.682 34.993 118.554 35.233C118.426 35.457 118.266 35.673 118.074 35.881C117.882 36.089 117.666 36.257 117.426 36.385C117.202 36.513 116.978 36.577 116.754 36.577C116.546 36.577 116.314 36.473 116.058 36.265C115.802 36.057 115.618 35.825 115.506 35.569C115.442 35.393 115.402 35.201 115.386 34.993C115.386 34.785 115.386 34.401 115.386 33.841V32.953C115.386 32.697 115.306 32.625 115.146 32.737C115.002 32.833 114.882 32.921 114.786 33.001C114.546 33.209 114.29 33.449 114.018 33.721C113.762 33.993 113.498 34.273 113.226 34.561C112.49 35.329 111.874 35.897 111.378 36.265C110.898 36.633 110.57 36.817 110.394 36.817ZM126.455 38.329C126.247 38.377 126.071 38.345 125.927 38.233C125.799 38.137 125.703 37.993 125.639 37.801C125.511 37.433 125.415 37.033 125.351 36.601C125.303 36.153 125.295 35.761 125.327 35.425L125.375 34.921L124.439 35.665C123.895 36.145 123.367 36.489 122.855 36.697C122.359 36.905 121.919 37.009 121.535 37.009C121.359 36.977 121.183 36.913 121.007 36.817C120.831 36.721 120.671 36.601 120.527 36.457C120.399 36.313 120.295 36.161 120.215 36.001C120.119 35.777 120.087 35.473 120.119 35.089C120.167 34.705 120.263 34.289 120.407 33.841C120.567 33.377 120.759 32.929 120.983 32.497C121.223 32.049 121.495 31.657 121.799 31.321C122.327 30.521 122.895 30.033 123.503 29.857C124.111 29.681 124.711 29.769 125.303 30.121C125.719 30.297 125.975 30.377 126.071 30.361C126.183 30.345 126.279 30.161 126.359 29.809C126.423 29.553 126.487 29.297 126.551 29.041C126.615 28.769 126.719 28.409 126.863 27.961C127.263 26.745 127.607 25.793 127.895 25.105C128.199 24.417 128.471 23.817 128.711 23.305C128.887 22.937 129.031 22.713 129.143 22.633C129.271 22.537 129.399 22.497 129.527 22.513C129.703 22.513 129.863 22.577 130.007 22.705C130.151 22.833 130.263 23.009 130.343 23.233C130.407 23.377 130.431 23.505 130.415 23.617C130.415 23.713 130.367 23.849 130.271 24.025C130.063 24.409 129.815 24.921 129.527 25.561C129.255 26.185 128.975 26.873 128.687 27.625C128.415 28.377 128.159 29.121 127.919 29.857C127.679 30.593 127.479 31.241 127.319 31.801C127.223 32.153 127.135 32.601 127.055 33.145C126.991 33.689 126.935 34.249 126.887 34.825C126.839 35.385 126.807 35.889 126.791 36.337C126.791 36.769 126.807 37.049 126.839 37.177C126.935 37.497 126.975 37.737 126.959 37.897C126.959 38.057 126.919 38.161 126.839 38.209C126.759 38.273 126.631 38.313 126.455 38.329ZM122.399 35.665C122.623 35.617 122.839 35.529 123.047 35.401C123.271 35.273 123.503 35.121 123.743 34.945C124.223 34.577 124.639 34.241 124.991 33.937C125.343 33.633 125.575 33.169 125.687 32.545C125.719 32.241 125.687 32.001 125.591 31.825C125.511 31.633 125.375 31.457 125.183 31.297C124.991 31.169 124.727 31.121 124.391 31.153C124.071 31.169 123.735 31.337 123.383 31.657C122.999 32.009 122.623 32.481 122.255 33.073C121.903 33.665 121.639 34.393 121.463 35.257C121.431 35.417 121.479 35.545 121.607 35.641C121.735 35.737 121.999 35.745 122.399 35.665ZM135.738 42.073C135.546 42.201 135.346 42.193 135.138 42.049C134.946 41.905 134.802 41.689 134.706 41.401C134.61 41.113 134.618 40.809 134.73 40.489C134.762 40.393 134.81 40.233 134.874 40.009C134.938 39.801 134.978 39.617 134.994 39.457C135.01 39.345 135.058 39.153 135.138 38.881C135.218 38.625 135.306 38.369 135.402 38.113C135.514 37.857 135.602 37.673 135.666 37.561C135.762 37.401 135.826 37.217 135.858 37.009C135.906 36.801 135.93 36.641 135.93 36.529C135.962 36.417 136.002 36.289 136.05 36.145C136.114 36.001 136.178 35.889 136.242 35.809C136.274 35.681 136.322 35.545 136.386 35.401C136.45 35.241 136.522 35.105 136.602 34.993C136.634 34.881 136.658 34.745 136.674 34.585C136.706 34.425 136.754 34.337 136.818 34.321C136.834 34.257 136.842 34.193 136.842 34.129C136.858 34.065 136.89 33.977 136.938 33.865C136.97 33.689 137.042 33.433 137.154 33.097C137.266 32.761 137.402 32.393 137.562 31.993C137.738 31.529 137.818 31.089 137.802 30.673C137.802 30.241 137.682 29.977 137.442 29.881C137.314 29.817 137.234 29.729 137.202 29.617C137.17 29.489 137.186 29.361 137.25 29.233C137.314 29.105 137.41 29.017 137.538 28.969C137.682 28.905 137.834 28.881 137.994 28.897C138.17 28.913 138.322 28.945 138.45 28.993C138.578 29.025 138.634 29.057 138.618 29.089C138.618 29.169 138.658 29.217 138.738 29.233C138.77 29.185 138.834 29.241 138.93 29.401C139.042 29.545 139.146 29.713 139.242 29.905C139.338 30.097 139.386 30.233 139.386 30.313C139.354 30.377 139.338 30.417 139.338 30.433C139.338 30.433 139.37 30.433 139.434 30.433C139.434 30.433 139.522 30.393 139.698 30.313C139.874 30.217 140.058 30.113 140.25 30.001C140.458 29.873 140.594 29.777 140.658 29.713C140.658 29.713 140.698 29.697 140.778 29.665C140.874 29.617 140.954 29.561 141.018 29.497C141.338 29.369 141.682 29.345 142.05 29.425C142.434 29.505 142.738 29.649 142.962 29.857C143.282 30.257 143.442 30.641 143.442 31.009C143.458 31.377 143.354 31.841 143.13 32.401C143.098 32.481 143.026 32.617 142.914 32.809C142.818 32.985 142.722 33.153 142.626 33.313C142.53 33.457 142.482 33.529 142.482 33.529C142.114 34.105 141.682 34.585 141.186 34.969C140.69 35.353 140.186 35.689 139.674 35.977C139.514 36.089 139.346 36.177 139.17 36.241C139.01 36.289 138.866 36.321 138.738 36.337C138.61 36.337 138.522 36.321 138.474 36.289C138.298 36.161 138.138 35.889 137.994 35.473C137.914 35.681 137.834 35.889 137.754 36.097C137.69 36.289 137.65 36.417 137.634 36.481C137.618 36.593 137.602 36.689 137.586 36.769C137.57 36.833 137.53 36.889 137.466 36.937C137.466 36.937 137.458 36.969 137.442 37.033C137.426 37.097 137.37 37.193 137.274 37.321C137.114 37.785 136.97 38.185 136.842 38.521C136.714 38.873 136.61 39.169 136.53 39.409C136.45 39.665 136.386 39.889 136.338 40.081C136.306 40.513 136.218 40.937 136.074 41.353C135.93 41.785 135.818 42.025 135.738 42.073ZM138.594 35.233C138.658 35.201 138.794 35.113 139.002 34.969C139.226 34.809 139.474 34.625 139.746 34.417C140.018 34.193 140.266 33.985 140.49 33.793C140.73 33.601 140.89 33.457 140.97 33.361C141.098 33.217 141.218 33.065 141.33 32.905C141.442 32.729 141.53 32.537 141.594 32.329C141.642 32.201 141.698 32.057 141.762 31.897C141.826 31.737 141.882 31.585 141.93 31.441C141.994 31.313 142.018 31.185 142.002 31.057C142.002 30.913 141.954 30.793 141.858 30.697C141.794 30.681 141.602 30.729 141.282 30.841C140.962 30.937 140.61 31.105 140.226 31.345C139.842 31.569 139.506 31.865 139.218 32.233C138.882 32.665 138.634 33.113 138.474 33.577C138.33 34.041 138.266 34.433 138.282 34.753C138.314 35.073 138.418 35.233 138.594 35.233ZM145 37.009C144.936 36.881 144.856 36.785 144.76 36.721C144.664 36.641 144.616 36.569 144.616 36.505C144.616 36.441 144.608 36.377 144.592 36.313C144.592 36.233 144.56 36.161 144.496 36.097C144.416 36.001 144.424 35.785 144.52 35.449C144.616 35.097 144.776 34.673 145 34.177C145.224 33.665 145.488 33.129 145.792 32.569C145.92 32.441 146.048 32.273 146.176 32.065C146.304 31.857 146.4 31.721 146.464 31.657C146.464 31.593 146.488 31.537 146.536 31.489C146.584 31.425 146.64 31.393 146.704 31.393V31.249C146.704 31.169 146.776 31.033 146.92 30.841C147.08 30.649 147.272 30.441 147.496 30.217C147.72 29.977 147.952 29.753 148.192 29.545C148.432 29.321 148.632 29.161 148.792 29.065C149.128 28.841 149.472 28.705 149.824 28.657C150.192 28.609 150.504 28.689 150.76 28.897C150.808 28.945 150.888 29.025 151 29.137C151.112 29.249 151.24 29.377 151.384 29.521C151.544 29.649 151.704 29.785 151.864 29.929L152.752 30.721L152.32 31.921C152.112 32.561 152.056 33.121 152.152 33.601C152.264 34.081 152.424 34.497 152.632 34.849C152.712 35.025 152.872 35.193 153.112 35.353C153.368 35.513 153.608 35.609 153.832 35.641C153.96 35.657 154.08 35.705 154.192 35.785C154.304 35.865 154.36 35.993 154.36 36.169C154.36 36.329 154.328 36.457 154.264 36.553C154.2 36.649 154.088 36.713 153.928 36.745C153.4 36.809 152.904 36.681 152.44 36.361C151.992 36.041 151.576 35.513 151.192 34.777C151.128 34.681 151.04 34.505 150.928 34.249C150.832 33.977 150.776 33.801 150.76 33.721C150.696 33.801 150.576 33.953 150.4 34.177C150.224 34.385 150.088 34.537 149.992 34.633C148.856 35.785 147.872 36.561 147.04 36.961C146.224 37.345 145.544 37.361 145 37.009ZM145.864 35.665C145.864 35.777 146.032 35.777 146.368 35.665C146.72 35.537 147.096 35.313 147.496 34.993C148.04 34.529 148.584 34.017 149.128 33.457C149.688 32.897 150.136 32.377 150.472 31.897L151 31.033C150.84 30.665 150.664 30.417 150.472 30.289C150.296 30.145 150.144 30.073 150.016 30.073C149.808 30.073 149.496 30.265 149.08 30.649C148.68 31.033 148.248 31.545 147.784 32.185C147.32 32.825 146.88 33.529 146.464 34.297C146.304 34.617 146.16 34.929 146.032 35.233C145.92 35.521 145.864 35.665 145.864 35.665ZM157.636 37.537C156.836 37.537 156.252 37.249 155.884 36.673C155.772 36.513 155.716 36.353 155.716 36.193C155.732 36.017 155.78 35.897 155.86 35.833C155.956 35.769 156.068 35.825 156.196 36.001C156.42 36.129 156.74 36.193 157.156 36.193C157.364 36.193 157.58 36.177 157.804 36.145C158.028 36.097 158.252 36.033 158.476 35.953C158.716 35.841 158.876 35.745 158.956 35.665C159.036 35.569 159.02 35.489 158.908 35.425H158.932C158.516 35.313 158.092 35.137 157.66 34.897C157.244 34.641 156.884 34.369 156.58 34.081C156.276 33.777 156.1 33.505 156.052 33.265C155.924 32.769 155.956 32.265 156.148 31.753C156.34 31.225 156.612 30.761 156.964 30.361C157.092 30.281 157.252 30.185 157.444 30.073C157.636 29.945 157.788 29.873 157.9 29.857V29.881C158.204 29.561 158.572 29.305 159.004 29.113C159.452 28.921 159.924 28.745 160.42 28.585L160.78 28.537C160.972 28.505 161.132 28.489 161.26 28.489C161.244 28.489 161.276 28.505 161.356 28.537C161.436 28.553 161.508 28.569 161.572 28.585C161.668 28.633 161.748 28.657 161.812 28.657C162.02 28.689 162.212 28.785 162.388 28.945C162.564 29.105 162.7 29.297 162.796 29.521C162.908 29.729 162.948 29.929 162.916 30.121C162.884 30.425 162.788 30.697 162.628 30.937C162.484 31.177 162.308 31.313 162.1 31.345C162.132 31.329 162.108 31.305 162.028 31.273C161.964 31.225 161.892 31.177 161.812 31.129L161.74 31.177C161.74 31.177 161.732 31.161 161.716 31.129C161.716 31.081 161.7 31.025 161.668 30.961C161.62 30.865 161.596 30.761 161.596 30.649C161.596 30.521 161.604 30.385 161.62 30.241C161.652 30.065 161.652 29.961 161.62 29.929C161.604 29.897 161.5 29.873 161.308 29.857C161.084 29.809 160.756 29.849 160.324 29.977C159.908 30.105 159.556 30.281 159.268 30.505C158.916 30.729 158.62 30.945 158.38 31.153C158.14 31.345 157.948 31.537 157.804 31.729C157.66 31.905 157.532 32.113 157.42 32.353C157.34 32.465 157.268 32.577 157.204 32.689C157.156 32.785 157.132 32.873 157.132 32.953C157.132 33.129 157.26 33.313 157.516 33.505C157.788 33.681 158.188 33.889 158.716 34.129C159.132 34.305 159.484 34.497 159.772 34.705C160.06 34.913 160.26 35.153 160.372 35.425C160.404 35.489 160.412 35.569 160.396 35.665C160.396 35.745 160.38 35.801 160.348 35.833C160.38 35.865 160.396 35.889 160.396 35.905V35.881C160.524 36.073 160.524 36.273 160.396 36.481C160.284 36.689 160.084 36.873 159.796 37.033C159.524 37.177 159.188 37.289 158.788 37.369H158.812C158.604 37.433 158.396 37.481 158.188 37.513C157.996 37.529 157.812 37.537 157.636 37.537ZM165.624 37.705C165.448 37.673 165.264 37.585 165.072 37.441C164.896 37.281 164.736 37.105 164.592 36.913C164.464 36.705 164.376 36.521 164.328 36.361C164.328 36.329 164.304 36.289 164.256 36.241C164.224 36.193 164.208 36.169 164.208 36.169C164.144 36.121 164.104 35.913 164.088 35.545C164.088 35.161 164.112 34.737 164.16 34.273C164.208 33.809 164.264 33.441 164.328 33.169C164.408 32.913 164.528 32.569 164.688 32.137C164.848 31.689 164.984 31.289 165.096 30.937L165.744 29.545L164.784 29.281C164.672 29.249 164.576 29.185 164.496 29.089C164.432 28.993 164.4 28.913 164.4 28.849C164.4 28.721 164.472 28.569 164.616 28.393C164.76 28.201 164.864 28.105 164.928 28.105C165.008 28.121 165.152 28.129 165.36 28.129C165.584 28.129 165.8 28.121 166.008 28.105C166.216 28.089 166.344 28.073 166.392 28.057C166.456 28.025 166.52 27.985 166.584 27.937C166.648 27.873 166.696 27.785 166.728 27.673C166.808 27.497 166.88 27.337 166.944 27.193C167.008 27.033 167.096 26.857 167.208 26.665C167.32 26.457 167.408 26.281 167.472 26.137C167.552 25.993 167.672 25.793 167.832 25.537C167.912 25.425 168 25.289 168.096 25.129C168.192 24.969 168.312 24.833 168.456 24.721C168.6 24.593 168.744 24.537 168.888 24.553C169.048 24.553 169.248 24.657 169.488 24.865C169.616 25.025 169.688 25.145 169.704 25.225C169.72 25.305 169.656 25.457 169.512 25.681C169.384 25.953 169.232 26.225 169.056 26.497C168.896 26.769 168.744 27.041 168.6 27.313C168.344 27.665 168.296 27.865 168.456 27.913C168.616 27.961 169.064 27.929 169.8 27.817C170.264 27.737 170.6 27.761 170.808 27.889C171.016 28.001 171.136 28.193 171.168 28.465C171.216 28.849 171.176 29.081 171.048 29.161C170.92 29.241 170.552 29.281 169.944 29.281C169.56 29.345 169.232 29.385 168.96 29.401C168.688 29.401 168.488 29.401 168.36 29.401C168.152 29.417 168.016 29.425 167.952 29.425C167.888 29.425 167.792 29.441 167.664 29.473C167.536 29.505 167.44 29.561 167.376 29.641C167.328 29.705 167.272 29.801 167.208 29.929C167.144 29.993 167.048 30.161 166.92 30.433C166.792 30.705 166.632 31.001 166.44 31.321C166.216 31.993 166.024 32.665 165.864 33.337C165.704 33.993 165.576 34.633 165.48 35.257C165.416 35.657 165.424 35.937 165.504 36.097C165.584 36.241 165.792 36.329 166.128 36.361C166.304 36.377 166.584 36.377 166.968 36.361C167.368 36.329 167.68 36.281 167.904 36.217C168.08 36.137 168.264 36.057 168.456 35.977C168.648 35.881 168.824 35.785 168.984 35.689C169.128 35.609 169.272 35.529 169.416 35.449C169.56 35.353 169.632 35.305 169.632 35.305C169.712 35.177 169.8 35.137 169.896 35.185C169.992 35.233 170.072 35.353 170.136 35.545C170.136 35.737 170.096 35.937 170.016 36.145C169.936 36.353 169.64 36.601 169.128 36.889C168.408 37.337 167.744 37.609 167.136 37.705C166.544 37.785 166.04 37.785 165.624 37.705ZM174.097 37.945C173.393 37.945 172.817 37.681 172.369 37.153C171.921 36.609 171.705 35.937 171.721 35.137C171.753 34.561 171.865 33.945 172.057 33.289C172.265 32.617 172.537 31.977 172.873 31.369C173.209 30.745 173.577 30.201 173.977 29.737C174.377 29.273 174.793 28.945 175.225 28.753C175.385 28.673 175.553 28.609 175.729 28.561C175.921 28.513 176.113 28.489 176.305 28.489C176.481 28.489 176.665 28.521 176.857 28.585C177.049 28.633 177.209 28.689 177.337 28.753C177.609 28.865 177.817 29.001 177.961 29.161C178.105 29.321 178.233 29.569 178.345 29.905C178.393 30.209 178.417 30.425 178.417 30.553C178.417 30.681 178.377 30.873 178.297 31.129C178.105 31.705 177.857 32.201 177.553 32.617C177.249 33.033 176.841 33.385 176.329 33.673C176.201 33.753 176.049 33.817 175.873 33.865C175.713 33.897 175.545 33.913 175.369 33.913C175.049 33.913 174.737 33.857 174.433 33.745C174.145 33.617 173.913 33.433 173.737 33.193L173.569 33.001L173.497 33.193C173.337 33.625 173.209 34.025 173.113 34.393C173.033 34.761 172.993 35.097 172.993 35.401C172.993 35.593 173.009 35.777 173.041 35.953C173.089 36.129 173.153 36.281 173.233 36.409C173.297 36.505 173.401 36.577 173.545 36.625C173.705 36.657 173.873 36.673 174.049 36.673C174.161 36.673 174.273 36.673 174.385 36.673C174.513 36.657 174.633 36.625 174.745 36.577C175.017 36.481 175.233 36.377 175.393 36.265C175.569 36.153 175.745 36.033 175.921 35.905L176.017 35.857H175.993C176.185 35.761 176.353 35.665 176.497 35.569C176.657 35.473 176.737 35.425 176.737 35.425C176.801 35.425 176.865 35.385 176.929 35.305C177.057 35.241 177.217 35.265 177.409 35.377C177.617 35.489 177.721 35.633 177.721 35.809C177.705 35.889 177.633 36.017 177.505 36.193C177.377 36.353 177.233 36.505 177.073 36.649C176.929 36.793 176.809 36.873 176.713 36.889C176.697 36.905 176.641 36.937 176.545 36.985C176.449 37.017 176.385 37.049 176.353 37.081H176.377C176.233 37.273 176.089 37.369 175.945 37.369H175.753C175.689 37.481 175.481 37.609 175.129 37.753C174.777 37.881 174.433 37.945 174.097 37.945ZM175.177 32.665C175.465 32.665 175.713 32.585 175.921 32.425C176.145 32.249 176.337 32.057 176.497 31.849C176.817 31.417 177.001 31.001 177.049 30.601C177.113 30.185 177.065 29.897 176.905 29.737C176.809 29.689 176.721 29.665 176.641 29.665C176.577 29.649 176.441 29.673 176.233 29.737C176.089 29.769 175.889 29.889 175.633 30.097C175.377 30.305 175.121 30.537 174.865 30.793C174.625 31.049 174.441 31.265 174.313 31.441L174.001 31.945C174.129 31.897 174.249 31.873 174.361 31.873C174.489 31.857 174.561 31.865 174.577 31.897C174.577 32.041 174.601 32.177 174.649 32.305C174.713 32.417 174.785 32.505 174.865 32.569C174.961 32.633 175.065 32.665 175.177 32.665Z" fill="black"/>
<path d="M173.735 45.0586L169.862 52.2033" stroke="#418A30" stroke-width="2.96435" stroke-linecap="round"/>
<path d="M180.853 45.0676L183.684 55.0169" stroke="#418A30" stroke-width="2.96435" stroke-linecap="round"/>
<path d="M186.164 40.7231L195.429 45.3182" stroke="#418A30" stroke-width="2.96435" stroke-linecap="round"/>
<path d="M185.872 33.3042L193.551 30.6663" stroke="#418A30" stroke-width="2.96435" stroke-linecap="round"/>
<path d="M26.2921 14.708L30.1219 7.53967" stroke="#418A30" stroke-width="2.96435" stroke-linecap="round"/>
<path d="M19.1751 14.7421L16.2831 4.8104" stroke="#418A30" stroke-width="2.96435" stroke-linecap="round"/>
<path d="M13.8907 19.1169L4.59731 14.5786" stroke="#418A30" stroke-width="2.96435" stroke-linecap="round"/>
<path d="M14.2282 26.5383L6.566 29.2232" stroke="#418A30" stroke-width="2.96435" stroke-linecap="round"/>
</svg>
