<svg width="42" height="43" viewBox="0 0 42 43" fill="none" xmlns="http://www.w3.org/2000/svg">
<g filter="url(#filter0_d_160_353)">
<rect x="4" y="4.88281" width="34" height="34" rx="6" fill="white" fill-opacity="0.2" shape-rendering="crispEdges"/>
<g clip-path="url(#clip0_160_353)">
<path opacity="0.3" d="M18 18.1328H26.25V28.6328H18V18.1328Z" fill="#262C3E" fill-opacity="0.2"/>
<path d="M24 13.6328H15C14.175 13.6328 13.5 14.3078 13.5 15.1328V25.6328H15V15.1328H24V13.6328ZM26.25 16.6328H18C17.175 16.6328 16.5 17.3078 16.5 18.1328V28.6328C16.5 29.4578 17.175 30.1328 18 30.1328H26.25C27.075 30.1328 27.75 29.4578 27.75 28.6328V18.1328C27.75 17.3078 27.075 16.6328 26.25 16.6328ZM26.25 28.6328H18V18.1328H26.25V28.6328Z" fill="white"/>
</g>
</g>
<defs>
<filter id="filter0_d_160_353" x="0" y="0.882812" width="42" height="42" filterUnits="userSpaceOnUse" color-interpolation-filters="sRGB">
<feFlood flood-opacity="0" result="BackgroundImageFix"/>
<feColorMatrix in="SourceAlpha" type="matrix" values="0 0 0 0 0 0 0 0 0 0 0 0 0 0 0 0 0 0 127 0" result="hardAlpha"/>
<feOffset/>
<feGaussianBlur stdDeviation="2"/>
<feComposite in2="hardAlpha" operator="out"/>
<feColorMatrix type="matrix" values="0 0 0 0 0 0 0 0 0 0 0 0 0 0 0 0 0 0 0.45 0"/>
<feBlend mode="normal" in2="BackgroundImageFix" result="effect1_dropShadow_160_353"/>
<feBlend mode="normal" in="SourceGraphic" in2="effect1_dropShadow_160_353" result="shape"/>
</filter>
<clipPath id="clip0_160_353">
<rect width="18" height="18" fill="white" transform="translate(12 12.8828)"/>
</clipPath>
</defs>
</svg>
