<svg width="150" height="131" viewBox="0 0 150 131" fill="none" xmlns="http://www.w3.org/2000/svg">
<g id="Group 18140777">
<g id="Group 18140780">
<g id="Rectangle 4303" filter="url(#filter0_d_363_5414)">
<path d="M4.74023 10.2018C4.74023 6.25457 7.94006 3.05475 11.8872 3.05474L68.8332 3.05469C70.7576 3.05469 72.6006 3.83067 73.9454 5.2071L95.2138 26.9759C96.5183 28.3111 97.2486 30.1038 97.2486 31.9705V119.8C97.2486 123.747 94.0488 126.947 90.1016 126.947H11.8873C7.94007 126.947 4.74023 123.747 4.74023 119.8V10.2018Z" fill="#111111"/>
<path d="M4.74023 10.2018C4.74023 6.25457 7.94006 3.05475 11.8872 3.05474L68.8332 3.05469C70.7576 3.05469 72.6006 3.83067 73.9454 5.2071L95.2138 26.9759C96.5183 28.3111 97.2486 30.1038 97.2486 31.9705V119.8C97.2486 123.747 94.0488 126.947 90.1016 126.947H11.8873C7.94007 126.947 4.74023 123.747 4.74023 119.8V10.2018Z" fill="#252525"/>
<path d="M4.79128 10.2018C4.79128 6.28277 7.96825 3.1058 11.8872 3.10579L68.8332 3.10574C70.7438 3.10574 72.5737 3.87618 73.9089 5.24278L95.1772 27.0116C96.4725 28.3373 97.1976 30.1171 97.1976 31.9705V119.8C97.1976 123.719 94.0206 126.896 90.1016 126.896H11.8873C7.96827 126.896 4.79128 123.719 4.79128 119.8V10.2018Z" stroke="#CDCDCD" stroke-opacity="0.2" stroke-width="0.1021"/>
</g>
<g id="Rectangle 4304" filter="url(#filter1_d_363_5414)">
<path d="M95.5475 27.3182L73.5931 4.8472C72.9534 4.19247 71.8418 4.64536 71.8418 5.56071V27.9776C71.8418 28.5405 72.2974 28.9973 72.8603 28.9986L94.8147 29.0527C95.7198 29.0549 96.18 27.9656 95.5475 27.3182Z" fill="#111111"/>
<path d="M95.5475 27.3182L73.5931 4.8472C72.9534 4.19247 71.8418 4.64536 71.8418 5.56071V27.9776C71.8418 28.5405 72.2974 28.9973 72.8603 28.9986L94.8147 29.0527C95.7198 29.0549 96.18 27.9656 95.5475 27.3182Z" fill="#2D2D2D"/>
<path d="M73.5566 4.88288L95.511 27.3539C96.1119 27.9689 95.6747 29.0038 94.8148 29.0016L72.8604 28.9476C72.3257 28.9463 71.8928 28.5124 71.8928 27.9776V5.56071C71.8928 4.69113 72.9489 4.26088 73.5566 4.88288Z" stroke="#CDCDCD" stroke-opacity="0.2" stroke-width="0.1021"/>
</g>
<path id="Line 1027" d="M16.8242 44.5293H67.1056" stroke="#3A3A3A" stroke-width="5.87076" stroke-linecap="round"/>
<path id="Line 1028" d="M16.8262 58.6953H57.2226" stroke="#3A3A3A" stroke-width="5.87076" stroke-linecap="round"/>
<path id="Line 1029" d="M16.8242 72.8613H57.2206" stroke="#3A3A3A" stroke-width="5.87076" stroke-linecap="round"/>
<path id="Line 1030" d="M16.8242 87.0293H62.7805" stroke="#3A3A3A" stroke-width="5.87076" stroke-linecap="round"/>
</g>
<g id="Group 18140779">
<g id="Union" filter="url(#filter2_d_363_5414)">
<path d="M120.797 83.697C127.432 72.379 125.895 57.5911 116.185 47.881C104.648 36.3443 85.9431 36.3443 74.4064 47.881C62.8697 59.4178 62.8697 78.1225 74.4064 89.6592C84.1164 99.3692 98.9042 100.907 110.222 94.2716L134.159 118.208C137.079 121.128 141.813 121.128 144.734 118.208C147.654 115.288 147.654 110.554 144.734 107.634L120.797 83.697Z" fill="#444444"/>
<path d="M120.797 83.697C127.432 72.379 125.895 57.5911 116.185 47.881C104.648 36.3443 85.9431 36.3443 74.4064 47.881C62.8697 59.4178 62.8697 78.1225 74.4064 89.6592C84.1164 99.3692 98.9042 100.907 110.222 94.2716L134.159 118.208C137.079 121.128 141.813 121.128 144.734 118.208C147.654 115.288 147.654 110.554 144.734 107.634L120.797 83.697Z" fill="white"/>
<path d="M120.739 83.6629L120.712 83.7079L120.749 83.7447L144.686 107.681C147.58 110.575 147.58 115.267 144.686 118.161C141.792 121.054 137.1 121.054 134.207 118.161L110.27 94.2239L110.233 94.1871L110.188 94.2134C98.8959 100.833 84.1419 99.2993 74.4541 89.6115C62.9438 78.1011 62.9438 59.4391 74.4541 47.9287C85.9645 36.4184 104.626 36.4184 116.137 47.9287C125.825 57.6166 127.359 72.3707 120.739 83.6629Z" stroke="#CDCDCD" stroke-opacity="0.2" stroke-width="0.134876"/>
</g>
<g id="Ellipse 1220">
<circle cx="95.149" cy="68.7037" r="18.8717" fill="#111111"/>
<circle cx="95.149" cy="68.7037" r="18.8717" fill="url(#paint0_linear_363_5414)" fill-opacity="0.9"/>
</g>
</g>
</g>
<defs>
<filter id="filter0_d_363_5414" x="0.656225" y="-0.00831985" width="98.6338" height="130.019" filterUnits="userSpaceOnUse" color-interpolation-filters="sRGB">
<feFlood flood-opacity="0" result="BackgroundImageFix"/>
<feColorMatrix in="SourceAlpha" type="matrix" values="0 0 0 0 0 0 0 0 0 0 0 0 0 0 0 0 0 0 127 0" result="hardAlpha"/>
<feOffset dx="-1.021"/>
<feGaussianBlur stdDeviation="1.5315"/>
<feComposite in2="hardAlpha" operator="out"/>
<feColorMatrix type="matrix" values="0 0 0 0 0 0 0 0 0 0 0 0 0 0 0 0 0 0 0.45 0"/>
<feBlend mode="normal" in2="BackgroundImageFix" result="effect1_dropShadow_363_5414"/>
<feBlend mode="normal" in="SourceGraphic" in2="effect1_dropShadow_363_5414" result="shape"/>
</filter>
<filter id="filter1_d_363_5414" x="67.7578" y="1.47508" width="30.1241" height="30.6407" filterUnits="userSpaceOnUse" color-interpolation-filters="sRGB">
<feFlood flood-opacity="0" result="BackgroundImageFix"/>
<feColorMatrix in="SourceAlpha" type="matrix" values="0 0 0 0 0 0 0 0 0 0 0 0 0 0 0 0 0 0 127 0" result="hardAlpha"/>
<feOffset dx="-1.021"/>
<feGaussianBlur stdDeviation="1.5315"/>
<feComposite in2="hardAlpha" operator="out"/>
<feColorMatrix type="matrix" values="0 0 0 0 0 0 0 0 0 0 0 0 0 0 0 0 0 0 0.45 0"/>
<feBlend mode="normal" in2="BackgroundImageFix" result="effect1_dropShadow_363_5414"/>
<feBlend mode="normal" in="SourceGraphic" in2="effect1_dropShadow_363_5414" result="shape"/>
</filter>
<filter id="filter2_d_363_5414" x="60.3589" y="35.1822" width="89.2625" height="89.2625" filterUnits="userSpaceOnUse" color-interpolation-filters="sRGB">
<feFlood flood-opacity="0" result="BackgroundImageFix"/>
<feColorMatrix in="SourceAlpha" type="matrix" values="0 0 0 0 0 0 0 0 0 0 0 0 0 0 0 0 0 0 127 0" result="hardAlpha"/>
<feOffset dx="-1.34876"/>
<feGaussianBlur stdDeviation="2.02314"/>
<feComposite in2="hardAlpha" operator="out"/>
<feColorMatrix type="matrix" values="0 0 0 0 0 0 0 0 0 0 0 0 0 0 0 0 0 0 0.45 0"/>
<feBlend mode="normal" in2="BackgroundImageFix" result="effect1_dropShadow_363_5414"/>
<feBlend mode="normal" in="SourceGraphic" in2="effect1_dropShadow_363_5414" result="shape"/>
</filter>
<linearGradient id="paint0_linear_363_5414" x1="95.149" y1="41.3549" x2="95.149" y2="81.8225" gradientUnits="userSpaceOnUse">
<stop stop-color="#252525"/>
<stop offset="1" stop-color="#252525" stop-opacity="0"/>
</linearGradient>
</defs>
</svg>
