<svg width="270" height="170" viewBox="0 0 270 170" fill="none" xmlns="http://www.w3.org/2000/svg">
<g filter="url(#filter0_b_363_5438)">
<path d="M82.4337 126.391C82.1416 126.229 81.918 125.969 81.7903 125.661C81.6624 125.352 81.6366 125.009 81.7298 124.688L83.178 119.695C83.2614 119.407 83.2759 119.103 83.2204 118.808C83.1649 118.514 83.041 118.236 82.8585 117.998C81.4742 116.189 79.8561 114.571 78.0466 113.188C77.8096 113.007 77.5337 112.884 77.2407 112.828C76.9478 112.773 76.646 112.787 76.3592 112.868L71.3604 114.316C71.0439 114.407 70.7029 114.381 70.3985 114.255C70.0966 114.13 69.8445 113.913 69.685 113.628L67.1336 109.065C66.9883 108.805 66.7841 108.582 66.5374 108.414C66.2906 108.246 66.0081 108.138 65.7123 108.099C63.4549 107.799 61.1676 107.8 58.9105 108.102C58.6131 108.141 58.3291 108.25 58.0814 108.419C57.8337 108.588 57.6292 108.813 57.4844 109.076L54.9818 113.61C54.82 113.903 54.5635 114.132 54.2542 114.26C53.9448 114.388 53.601 114.407 53.2793 114.314L48.2887 112.872C48.0005 112.789 47.6968 112.774 47.402 112.83C47.1071 112.885 46.8295 113.009 46.5914 113.192C44.7824 114.576 43.1651 116.194 41.7816 118.004C41.6007 118.241 41.4776 118.517 41.4221 118.81C41.3666 119.102 41.3803 119.404 41.462 119.691L42.9134 124.7C43.0049 125.016 42.979 125.357 42.8532 125.661C42.7279 125.963 42.5095 126.214 42.2233 126.373L37.6562 128.91C37.3955 129.055 37.1725 129.26 37.0047 129.506C36.8369 129.753 36.7292 130.036 36.6899 130.331C36.3898 132.589 36.39 134.876 36.6906 137.134C36.7304 137.431 36.8395 137.715 37.0091 137.963C37.1787 138.211 37.4041 138.415 37.6671 138.559L42.2005 141.062C42.4936 141.224 42.7229 141.48 42.851 141.789C42.9792 142.099 42.9983 142.443 42.9054 142.764L41.4631 147.755C41.3798 148.043 41.3652 148.347 41.4207 148.642C41.4762 148.936 41.6002 149.214 41.7826 149.452C43.1669 151.261 44.785 152.879 46.5946 154.262C46.8316 154.443 47.1075 154.566 47.4004 154.622C47.6934 154.677 47.9952 154.663 48.2819 154.582L53.2813 153.134C53.5975 153.042 53.9391 153.068 54.2433 153.194C54.5456 153.32 54.7965 153.537 54.9559 153.823L57.501 158.387C57.6462 158.648 57.8504 158.871 58.0972 159.039C58.3439 159.207 58.6265 159.314 58.9223 159.354C61.1799 159.654 63.4674 159.654 65.7249 159.353C66.0224 159.313 66.3063 159.204 66.5539 159.035C66.8014 158.865 67.0057 158.64 67.1501 158.377L69.6529 153.843C69.8141 153.551 70.0744 153.327 70.3827 153.199C70.6915 153.071 71.0344 153.046 71.3555 153.139L76.3486 154.587C76.6368 154.67 76.9405 154.685 77.2353 154.63C77.5301 154.574 77.8078 154.45 78.0459 154.268C79.8556 152.884 81.473 151.266 82.8557 149.456C83.0366 149.219 83.1597 148.943 83.2152 148.65C83.2707 148.357 83.257 148.055 83.1753 147.768L81.7278 142.77C81.6361 142.453 81.6626 142.112 81.7886 141.808C81.9137 141.506 82.1308 141.254 82.416 141.094L86.9784 138.543C87.239 138.397 87.4621 138.193 87.6298 137.946C87.7976 137.7 87.9054 137.417 87.9446 137.121C88.2447 134.864 88.2445 132.576 87.9439 130.319C87.9041 130.021 87.7951 129.737 87.6255 129.49C87.4558 129.242 87.2304 129.038 86.9674 128.894L82.4337 126.391ZM65.9823 142.575C64.2323 143.3 62.3066 143.489 60.4488 143.12C58.591 142.75 56.8845 141.838 55.5451 140.499C54.2057 139.159 53.2935 137.453 52.924 135.595C52.5544 133.737 52.7441 131.811 53.469 130.061C54.1939 128.311 55.4214 126.816 56.9964 125.763C58.5714 124.711 60.4231 124.149 62.3173 124.149C64.2115 124.149 66.0631 124.711 67.6381 125.763C69.2131 126.816 70.4406 128.311 71.1655 130.061C72.1376 132.408 72.1376 135.045 71.1655 137.391C70.1935 139.738 68.329 141.603 65.9823 142.575Z" fill="#696969" fill-opacity="0.22"/>
<path d="M46.5914 113.192C46.8295 113.009 47.1071 112.885 47.402 112.83C47.6968 112.774 48.0005 112.789 48.2887 112.872L53.2793 114.314C53.601 114.407 53.9448 114.388 54.2542 114.26C54.5635 114.132 54.82 113.903 54.9818 113.61L46.5914 113.192ZM46.5914 113.192C44.7824 114.576 43.1651 116.194 41.7816 118.004L46.5914 113.192ZM86.9784 138.543C87.239 138.397 87.4621 138.193 87.6298 137.946C87.7976 137.7 87.9054 137.417 87.9446 137.121C88.2447 134.864 88.2445 132.576 87.9439 130.319C87.9041 130.021 87.7951 129.737 87.6255 129.49C87.4558 129.242 87.2304 129.038 86.9674 128.894L86.9784 138.543ZM86.9784 138.543L82.416 141.094C82.1308 141.254 81.9137 141.506 81.7886 141.808C81.6626 142.112 81.6361 142.453 81.7278 142.77L83.1753 147.768L86.9784 138.543ZM87.8235 130.335C87.7862 130.056 87.6841 129.79 87.5252 129.558C87.3664 129.327 87.1553 129.135 86.9089 129L86.9087 129L82.375 126.497C82.0573 126.322 81.8156 126.039 81.6781 125.707C81.5403 125.375 81.5118 125.004 81.6131 124.654L83.0613 119.661L87.8235 130.335ZM87.8235 130.335C88.1227 132.582 88.1229 134.858 87.8242 137.105L87.8242 137.105C87.7874 137.382 87.6865 137.647 87.5294 137.878C87.3722 138.109 87.1633 138.3 86.9192 138.437L86.9191 138.437L82.3567 140.988C82.0465 141.162 81.8113 141.435 81.6764 141.761C81.5406 142.089 81.5112 142.458 81.6111 142.803L83.0584 147.802C83.0585 147.802 83.0585 147.802 83.0585 147.802C83.135 148.07 83.1478 148.353 83.0958 148.627C83.0439 148.902 82.9286 149.16 82.7592 149.382C81.383 151.184 79.7732 152.794 77.9721 154.171L77.972 154.171C77.749 154.342 77.489 154.458 77.2128 154.51C76.9367 154.562 76.6523 154.549 76.3824 154.47L87.8235 130.335ZM65.7123 108.099C63.4549 107.799 61.1676 107.8 58.9105 108.102L67.1336 109.065C66.9883 108.805 66.7841 108.582 66.5374 108.414C66.2906 108.246 66.0081 108.138 65.7123 108.099ZM76.3824 154.47L71.3893 153.022C71.0401 152.921 70.6689 152.949 70.3362 153.087C70.0041 153.225 69.7219 153.466 69.5465 153.784L67.0438 158.318L67.0436 158.318C66.9083 158.564 66.7171 158.775 66.4852 158.934C66.2534 159.093 65.9875 159.195 65.7089 159.233C63.462 159.532 61.1853 159.532 58.9383 159.233L58.9382 159.233C58.6612 159.197 58.3966 159.096 58.1655 158.938C57.9343 158.781 57.7431 158.572 57.6071 158.328L57.501 158.387L57.6071 158.328L55.062 153.764C54.8888 153.453 54.6163 153.217 54.2898 153.082C53.9619 152.946 53.5919 152.918 53.2475 153.017L48.2486 154.465C48.2485 154.465 48.2485 154.465 48.2484 154.465C47.9799 154.541 47.6973 154.554 47.423 154.502C47.1487 154.45 46.8903 154.335 46.6684 154.166C44.8673 152.789 43.2569 151.179 41.8791 149.378L41.8791 149.378C41.7082 149.155 41.5921 148.895 41.5401 148.619C41.4881 148.343 41.5017 148.059 41.5798 147.789L41.5798 147.789L43.0221 142.798C43.1227 142.45 43.102 142.078 42.9633 141.743C42.8246 141.408 42.5764 141.131 42.2592 140.955L37.7258 138.453L37.7256 138.453C37.4792 138.317 37.2681 138.126 37.1093 137.894C36.9504 137.662 36.8483 137.397 36.811 137.118C36.5119 134.871 36.5116 132.594 36.8104 130.347L36.8104 130.347C36.8471 130.07 36.948 129.806 37.1052 129.575C37.2623 129.343 37.4712 129.152 37.7153 129.016L42.2822 126.48C42.5935 126.307 42.83 126.034 42.9654 125.707C43.1011 125.38 43.1298 125.01 43.0301 124.666L41.5788 119.658C41.5788 119.658 41.5788 119.658 41.5787 119.657C41.5023 119.389 41.4895 119.106 41.5415 118.832C41.5934 118.558 41.7087 118.299 41.8781 118.077C43.2551 116.276 44.8648 114.666 46.6652 113.288L46.6652 113.288C46.8883 113.117 47.1483 113.001 47.4244 112.949C47.7006 112.897 47.985 112.911 48.2549 112.989L48.255 112.989L53.2456 114.431C53.5938 114.532 53.9659 114.511 54.3007 114.372C54.6354 114.234 54.9131 113.985 55.0881 113.668L57.5907 109.135L57.5908 109.135C57.7264 108.889 57.9179 108.678 58.1499 108.52C58.3819 108.361 58.6479 108.259 58.9265 108.222L58.9266 108.222C61.1731 107.921 63.4495 107.92 65.6962 108.219L65.6963 108.219C65.9733 108.256 66.238 108.357 66.4691 108.514C66.7002 108.671 66.8914 108.88 67.0275 109.124L67.0275 109.125L69.579 113.687C69.7525 113.997 70.0262 114.232 70.352 114.367C70.68 114.503 71.0494 114.532 71.3942 114.433L76.3925 112.985C76.3926 112.985 76.3927 112.985 76.3927 112.985C76.6612 112.909 76.9438 112.896 77.2181 112.948C77.4925 113 77.7509 113.115 77.9729 113.284C79.7739 114.661 81.3843 116.271 82.762 118.072L82.7621 118.072C82.933 118.295 83.0491 118.555 83.101 118.831C83.153 119.107 83.1394 119.391 83.0613 119.661L76.3824 154.47ZM60.4251 143.239C62.3065 143.613 64.2566 143.421 66.0288 142.687C68.4053 141.702 70.2934 139.814 71.2778 137.438C72.2621 135.061 72.2621 132.391 71.2778 130.015C70.5437 128.243 69.3006 126.728 67.7056 125.662C66.1107 124.596 64.2355 124.028 62.3173 124.028C60.399 124.028 58.5239 124.596 56.9289 125.662C55.334 126.728 54.0908 128.243 53.3568 130.015C52.6227 131.787 52.4306 133.737 52.8049 135.619C53.1791 137.5 54.1028 139.228 55.4592 140.584C56.8156 141.941 58.5438 142.865 60.4251 143.239Z" stroke="white" stroke-opacity="0.1" stroke-width="0.242954"/>
</g>
<g filter="url(#filter1_d_363_5438)">
<g clip-path="url(#clip0_363_5438)">
<rect x="60.6836" y="24.335" width="138" height="111" rx="7.14702" fill="#111111"/>
<rect x="60.6836" y="24.335" width="138" height="111" rx="7.14702" fill="#252525"/>
<circle cx="71.7938" cy="34.8612" r="3.50862" fill="#CDCDCD" fill-opacity="0.1"/>
<circle cx="71.7938" cy="34.8612" r="3.23164" stroke="#CDCDCD" stroke-opacity="0.12" stroke-width="0.553957"/>
<circle cx="81.1492" cy="34.8612" r="3.50862" fill="#CDCDCD" fill-opacity="0.1"/>
<circle cx="81.1492" cy="34.8612" r="3.23164" stroke="#CDCDCD" stroke-opacity="0.12" stroke-width="0.553957"/>
<circle cx="90.5067" cy="34.8612" r="3.50862" fill="#CDCDCD" fill-opacity="0.1"/>
<circle cx="90.5067" cy="34.8612" r="3.23164" stroke="#CDCDCD" stroke-opacity="0.12" stroke-width="0.553957"/>
<rect x="68.2852" y="46.4541" width="122.841" height="82.2129" rx="4" fill="#111111"/>
<rect x="68.2852" y="46.4541" width="122.841" height="82.2129" rx="4" fill="url(#paint0_linear_363_5438)" fill-opacity="0.9"/>
<path d="M103.211 91.988V90.1729H101.396V88.3579H99.5812V86.5428H97.7661V84.7277H95.9511V82.9127H94.136V77.4674H95.9511V75.6524H97.7661V73.8373H99.5812V72.0222H101.396V70.2071H103.211V68.3921H105.026V66.577H108.657V70.2071H106.842V72.0222H105.026V73.8373H103.211V75.6524H101.396V77.4674H99.5812V79.2825H97.7661V81.0976H99.5812V82.9127H101.396V84.7277H103.211V86.5428H105.026V88.3579H106.842V90.1729H108.657V93.8031H105.026V91.988H103.211ZM137.916 68.3921H141.546V75.6524H139.731V77.4674H137.916V79.2825H136.1V81.0976H134.285V82.9127H132.47V84.7277H130.655V86.5428H128.84V88.3579H127.025V93.8031H123.395V86.5428H125.21V84.7277H127.025V82.9127H128.84V81.0976H130.655V79.2825H132.47V77.4674H134.285V75.6524H136.1V73.8373H137.916V68.3921ZM159.914 91.988V93.8031H156.284V90.1729H158.099V88.3579H159.914V86.5428H161.729V84.7277H163.544V82.9127H165.359V81.0976H167.175V79.2825H165.359V77.4674H163.544V75.6524H161.729V73.8373H159.914V72.0222H158.099V70.2071H156.284V66.577H159.914V68.3921H161.729V70.2071H163.544V72.0222H165.359V73.8373H167.175V75.6524H168.99V77.4674H170.805V82.9127H168.99V84.7277H167.175V86.5428H165.359V88.3579H163.544V90.1729H161.729V91.988H159.914Z" fill="white"/>
<line x1="76.2266" y1="56.4697" x2="86.4985" y2="56.4697" stroke="#CDCDCD" stroke-opacity="0.12" stroke-linecap="round"/>
<line x1="76.2266" y1="111.923" x2="86.4985" y2="111.923" stroke="#CDCDCD" stroke-opacity="0.12" stroke-linecap="round"/>
<line x1="94.5156" y1="56.4697" x2="104.788" y2="56.4697" stroke="#CDCDCD" stroke-opacity="0.12" stroke-linecap="round"/>
<line x1="94.5156" y1="111.923" x2="104.788" y2="111.923" stroke="#CDCDCD" stroke-opacity="0.12" stroke-linecap="round"/>
<line x1="120.455" y1="120.366" x2="130.727" y2="120.366" stroke="#CDCDCD" stroke-opacity="0.12" stroke-linecap="round"/>
<line x1="140.717" y1="120.366" x2="150.989" y2="120.366" stroke="#CDCDCD" stroke-opacity="0.12" stroke-linecap="round"/>
<line x1="113.758" y1="56.4697" x2="175.147" y2="56.4697" stroke="#CDCDCD" stroke-opacity="0.12" stroke-linecap="round"/>
<line x1="113.758" y1="111.923" x2="148.698" y2="111.923" stroke="#CDCDCD" stroke-opacity="0.12" stroke-linecap="round"/>
<line x1="76.2266" y1="104.069" x2="111.167" y2="104.069" stroke="#CDCDCD" stroke-opacity="0.12" stroke-linecap="round"/>
<line x1="76.2266" y1="120.366" x2="111.167" y2="120.366" stroke="#CDCDCD" stroke-opacity="0.12" stroke-linecap="round"/>
<line x1="123.828" y1="104.069" x2="136.517" y2="104.069" stroke="#CDCDCD" stroke-opacity="0.12" stroke-linecap="round"/>
</g>
<rect x="60.7346" y="24.386" width="137.898" height="110.898" rx="7.09597" stroke="#CDCDCD" stroke-opacity="0.2" stroke-width="0.1021"/>
</g>
<g filter="url(#filter2_b_363_5438)">
<path d="M220.096 27.0479C219.785 26.8762 219.547 26.5991 219.411 26.2708C219.275 25.942 219.248 25.5768 219.347 25.235L220.889 19.9184C220.978 19.6115 220.993 19.2881 220.934 18.9742C220.875 18.6603 220.743 18.3646 220.549 18.1111C219.075 16.1849 217.352 14.4628 215.425 12.9896C215.173 12.797 214.879 12.6659 214.567 12.6069C214.255 12.5478 213.934 12.5623 213.628 12.6494L208.306 14.1906C207.969 14.2882 207.606 14.26 207.281 14.1258C206.96 13.9927 206.692 13.7615 206.522 13.4578L203.805 8.59986C203.65 8.32235 203.433 8.0848 203.17 7.90618C202.907 7.72756 202.607 7.61279 202.292 7.57103C199.888 7.25104 197.452 7.25207 195.049 7.57412C194.732 7.61604 194.43 7.73176 194.166 7.91195C193.903 8.09214 193.685 8.33176 193.531 8.61151L190.866 13.4387C190.694 13.7507 190.42 13.9949 190.091 14.1313C189.762 14.2678 189.396 14.2882 189.053 14.1892L183.739 12.6535C183.432 12.5647 183.109 12.5493 182.795 12.6083C182.481 12.6674 182.185 12.7994 181.932 12.9937C180.006 14.4677 178.283 16.1906 176.81 18.1174C176.618 18.3698 176.487 18.6636 176.428 18.9755C176.368 19.2874 176.383 19.6088 176.47 19.9141L178.015 25.2474C178.113 25.5837 178.085 25.9471 177.951 26.2706C177.818 26.5928 177.585 26.8601 177.281 27.0294L172.418 29.7305C172.14 29.8852 171.903 30.1025 171.724 30.3653C171.545 30.6281 171.431 30.9289 171.389 31.2439C171.069 33.6478 171.069 36.0835 171.39 38.4873C171.432 38.804 171.548 39.1064 171.729 39.37C171.909 39.6335 172.149 39.851 172.429 40.0048L177.256 42.6696C177.568 42.8419 177.813 43.115 177.949 43.4443C178.086 43.7738 178.106 44.1398 178.007 44.4824L176.471 49.7964C176.382 50.1032 176.367 50.4266 176.426 50.7406C176.485 51.0545 176.617 51.3501 176.811 51.6037C178.285 53.5298 180.008 55.252 181.935 56.7251C182.188 56.9177 182.481 57.0488 182.793 57.1079C183.105 57.167 183.427 57.1524 183.732 57.0654L189.055 55.524C189.392 55.4264 189.756 55.4541 190.079 55.5882C190.401 55.7215 190.669 55.9535 190.838 56.2577L193.548 61.1178C193.703 61.3953 193.92 61.6329 194.183 61.8115C194.446 61.9901 194.747 62.1049 195.062 62.1467C197.466 62.4662 199.901 62.466 202.305 62.1459C202.622 62.1036 202.924 61.9875 203.188 61.8068C203.451 61.6262 203.669 61.3862 203.823 61.1062L206.488 56.2787C206.659 55.9677 206.936 55.7295 207.265 55.5936C207.593 55.4574 207.959 55.43 208.3 55.5292L213.617 57.0712C213.924 57.16 214.247 57.1755 214.561 57.1164C214.875 57.0573 215.171 56.9253 215.424 56.731C217.351 55.2579 219.074 53.5349 220.546 51.6073C220.738 51.355 220.869 51.0612 220.929 50.7493C220.988 50.4374 220.973 50.116 220.886 49.8107L219.345 44.4879C219.247 44.1509 219.275 43.7878 219.41 43.4637C219.543 43.1422 219.774 42.8738 220.078 42.7039L224.936 39.9872C225.213 39.8325 225.451 39.6151 225.629 39.3524C225.808 39.0896 225.923 38.7888 225.964 38.4738C226.284 36.0699 226.284 33.6342 225.964 31.2304C225.921 30.9137 225.805 30.6113 225.625 30.3477C225.444 30.0841 225.204 29.8667 224.924 29.7128L220.096 27.0479ZM202.579 44.2804C200.716 45.0523 198.665 45.2542 196.687 44.8607C194.709 44.4673 192.892 43.496 191.466 42.0698C190.039 40.6436 189.068 38.8265 188.675 36.8483C188.281 34.8702 188.483 32.8197 189.255 30.9563C190.027 29.0929 191.334 27.5002 193.011 26.3796C194.688 25.2591 196.66 24.661 198.677 24.661C200.694 24.661 202.665 25.2591 204.342 26.3796C206.019 27.5002 207.326 29.0929 208.098 30.9563C209.133 33.4551 209.133 36.2626 208.098 38.7614C207.063 41.2601 205.078 43.2454 202.579 44.2804Z" fill="#696969" fill-opacity="0.22"/>
<path d="M224.936 39.9872C225.213 39.8325 225.451 39.6151 225.629 39.3524C225.808 39.0896 225.923 38.7888 225.964 38.4738C226.284 36.0699 226.284 33.6342 225.964 31.2304C225.921 30.9137 225.805 30.6113 225.625 30.3477C225.444 30.0841 225.204 29.8667 224.924 29.7128L220.096 27.0479C219.785 26.8762 219.547 26.5991 219.411 26.2708C219.275 25.942 219.248 25.5768 219.347 25.235L224.936 39.9872ZM224.936 39.9872L220.078 42.7039M224.936 39.9872L220.078 42.7039M220.772 19.8846L219.23 25.2011C219.123 25.5712 219.153 25.9646 219.299 26.3173C219.445 26.6693 219.701 26.9684 220.038 27.1543L224.865 29.8192L224.865 29.8193C225.129 29.964 225.355 30.1685 225.524 30.4164C225.694 30.6643 225.803 30.9486 225.843 31.2464C226.162 33.6396 226.162 36.0645 225.844 38.4578L225.844 38.4578C225.805 38.754 225.697 39.037 225.529 39.2841C225.361 39.5312 225.137 39.7356 224.876 39.8811L224.876 39.8812L220.018 42.5979C219.69 42.7818 219.44 43.0718 219.297 43.4172C219.153 43.7649 219.122 44.1564 219.228 44.5217L220.769 49.844C220.769 49.844 220.769 49.8441 220.769 49.8441C220.851 50.1312 220.865 50.4334 220.809 50.7267C220.754 51.02 220.63 51.2963 220.449 51.5336C218.984 53.4526 217.269 55.168 215.351 56.6345L215.35 56.6346C215.112 56.8173 214.834 56.9415 214.539 56.997C214.244 57.0526 213.939 57.038 213.651 56.9546L220.772 19.8846ZM220.772 19.8846C220.856 19.596 220.87 19.2919 220.815 18.9967C220.759 18.7014 220.635 18.4234 220.452 18.1849L220.452 18.1849C218.985 16.2673 217.27 14.5528 215.351 13.0862C215.114 12.905 214.838 12.7818 214.544 12.7262C214.251 12.6707 213.949 12.6843 213.662 12.7661C213.662 12.7661 213.662 12.7662 213.662 12.7662L208.339 14.3073C207.974 14.4131 207.583 14.3821 207.235 14.2381C206.89 14.095 206.6 13.8458 206.416 13.5171L203.699 8.65916L203.699 8.65901C203.553 8.39802 203.349 8.17463 203.102 8.00664C202.855 7.83866 202.572 7.73073 202.276 7.69145L202.276 7.69144C199.883 7.37287 197.458 7.37391 195.065 7.69452L195.065 7.69454C194.767 7.73397 194.483 7.8428 194.235 8.01225C193.987 8.18171 193.782 8.40706 193.637 8.67015L193.637 8.67022L190.972 13.4974C190.787 13.8335 190.492 14.0966 190.138 14.2435C189.783 14.3905 189.388 14.4125 189.019 14.3059L183.705 12.7702L183.705 12.7702C183.417 12.6867 183.113 12.6722 182.817 12.7277C182.522 12.7833 182.244 12.9074 182.006 13.0901L182.006 13.0902C180.088 14.5576 178.373 16.2729 176.907 18.1911C176.726 18.4284 176.602 18.7048 176.547 18.9981C176.491 19.2913 176.505 19.5935 176.587 19.8805C176.587 19.8806 176.587 19.8807 176.587 19.8808L178.132 25.2136C178.238 25.5782 178.207 25.9698 178.064 26.3171C177.92 26.6635 177.669 26.9524 177.34 27.1356L172.477 29.8366C172.216 29.9821 171.992 30.1865 171.824 30.4336C171.656 30.6807 171.548 30.9636 171.509 31.2598L171.509 31.2599C171.191 33.6532 171.191 36.0781 171.51 38.4713C171.55 38.7691 171.659 39.0534 171.829 39.3013C171.999 39.5492 172.224 39.7537 172.488 39.8984L172.488 39.8985L177.315 42.5633C177.651 42.7488 177.914 43.0431 178.061 43.3978C178.208 43.7527 178.23 44.1471 178.124 44.5161L176.588 49.8301L176.588 49.8301C176.504 50.1187 176.49 50.4229 176.545 50.7181C176.601 51.0133 176.725 51.2913 176.908 51.5298L176.908 51.5299C178.375 53.4475 180.091 55.162 182.009 56.6286C182.246 56.8097 182.523 56.933 182.816 56.9885C183.109 57.0441 183.411 57.0304 183.698 56.9486C183.698 56.9486 183.698 56.9486 183.699 56.9486L189.021 55.4073C189.386 55.3016 189.778 55.332 190.126 55.476C190.472 55.6193 190.761 55.8695 190.944 56.1986L193.654 61.0587L193.548 61.1178L193.654 61.0587C193.8 61.3197 194.004 61.5431 194.251 61.711C194.498 61.879 194.781 61.987 195.078 62.0262L195.078 62.0262C197.471 62.3444 199.896 62.3442 202.289 62.0255C202.587 61.9857 202.871 61.8765 203.119 61.7066C203.367 61.5368 203.571 61.3111 203.716 61.0477L203.716 61.0475L206.381 56.22C206.567 55.8834 206.866 55.6272 207.218 55.4814C207.571 55.3353 207.964 55.3052 208.334 55.4125L213.651 56.9545L220.772 19.8846ZM220.886 49.8107C220.973 50.116 220.988 50.4374 220.929 50.7493C220.869 51.0612 220.738 51.355 220.546 51.6073C219.074 53.5349 217.351 55.2579 215.424 56.731C215.171 56.9253 214.875 57.0573 214.561 57.1164L220.886 49.8107ZM220.886 49.8107L219.345 44.4879M220.886 49.8107L219.345 44.4879M219.345 44.4879C219.247 44.1509 219.275 43.7878 219.41 43.4637M219.345 44.4879L219.41 43.4637M219.41 43.4637C219.543 43.1422 219.774 42.8738 220.078 42.7039M219.41 43.4637L220.078 42.7039M196.663 44.9799C198.665 45.3781 200.74 45.1737 202.626 44.3926C205.154 43.3453 207.163 41.3364 208.21 38.8079C209.258 36.2793 209.258 33.4383 208.21 30.9098C207.429 29.0242 206.107 27.4125 204.41 26.2786C202.713 25.1447 200.718 24.5395 198.677 24.5395C196.636 24.5395 194.64 25.1447 192.943 26.2786C191.246 27.4125 189.924 29.0242 189.143 30.9098C188.362 32.7954 188.157 34.8703 188.556 36.872C188.954 38.8738 189.937 40.7125 191.38 42.1557C192.823 43.5989 194.662 44.5817 196.663 44.9799Z" stroke="white" stroke-opacity="0.1" stroke-width="0.242954"/>
</g>
<g filter="url(#filter3_d_363_5438)">
<path d="M197.329 138.578C197.676 138.925 197.951 139.336 198.139 139.79C198.327 140.243 198.423 140.729 198.423 141.219C198.423 141.71 198.327 142.195 198.139 142.649C197.951 143.102 197.676 143.514 197.329 143.861L196.236 144.953C195.89 145.3 195.478 145.575 195.025 145.763C194.571 145.951 194.086 146.047 193.595 146.047C193.105 146.047 192.619 145.951 192.166 145.763C191.712 145.575 191.301 145.3 190.954 144.953L178.056 132.058L172.949 143.809C172.662 144.476 172.186 145.043 171.58 145.441C170.974 145.839 170.263 146.05 169.538 146.048H169.356C168.6 146.016 167.871 145.753 167.27 145.294C166.668 144.834 166.222 144.201 165.992 143.48L153.79 106.111C153.576 105.457 153.548 104.757 153.707 104.088C153.867 103.418 154.21 102.807 154.696 102.32C155.183 101.834 155.794 101.491 156.463 101.331C157.133 101.172 157.833 101.2 158.487 101.414L195.856 113.616C196.57 113.855 197.195 114.304 197.65 114.905C198.104 115.505 198.366 116.229 198.402 116.982C198.438 117.734 198.245 118.479 197.849 119.12C197.454 119.761 196.874 120.267 196.185 120.573L184.434 125.68L197.329 138.578Z" fill="#363636"/>
<path d="M197.133 138.774L197.133 138.774C197.454 139.095 197.709 139.476 197.883 139.896C198.057 140.315 198.146 140.765 198.146 141.219C198.146 141.673 198.057 142.123 197.883 142.543C197.709 142.962 197.454 143.344 197.133 143.665L197.133 143.665L196.041 144.757L196.041 144.757C195.719 145.078 195.338 145.333 194.919 145.507C194.499 145.681 194.049 145.77 193.595 145.77C193.141 145.77 192.691 145.681 192.272 145.507C191.852 145.333 191.471 145.078 191.15 144.757L191.15 144.757L178.252 131.862L177.964 131.574L177.802 131.947L172.695 143.699L172.694 143.7C172.429 144.316 171.989 144.842 171.428 145.21C170.867 145.578 170.21 145.773 169.539 145.771H169.538H169.362C168.664 145.74 167.993 145.497 167.438 145.073C166.881 144.649 166.469 144.063 166.256 143.396L166.255 143.394L154.053 106.025L154.053 106.025C153.855 105.42 153.829 104.771 153.977 104.152C154.125 103.532 154.442 102.966 154.892 102.516C155.342 102.066 155.908 101.749 156.528 101.601C157.147 101.453 157.796 101.479 158.401 101.677L158.401 101.677L195.768 113.879C195.768 113.879 195.769 113.879 195.769 113.879C196.43 114.1 197.008 114.516 197.429 115.072C197.85 115.628 198.092 116.298 198.125 116.995C198.158 117.691 197.98 118.381 197.614 118.975C197.247 119.568 196.711 120.036 196.074 120.319C196.073 120.319 196.073 120.319 196.073 120.319L184.323 125.426L183.95 125.588L184.238 125.876L197.133 138.774Z" stroke="#CDCDCD" stroke-opacity="0.12" stroke-width="0.553957"/>
</g>
<defs>
<filter id="filter0_b_363_5438" x="29.1762" y="100.585" width="66.2823" height="66.2823" filterUnits="userSpaceOnUse" color-interpolation-filters="sRGB">
<feFlood flood-opacity="0" result="BackgroundImageFix"/>
<feGaussianBlur in="BackgroundImageFix" stdDeviation="3.64431"/>
<feComposite in2="SourceAlpha" operator="in" result="effect1_backgroundBlur_363_5438"/>
<feBlend mode="normal" in="SourceGraphic" in2="effect1_backgroundBlur_363_5438" result="shape"/>
</filter>
<filter id="filter1_d_363_5438" x="56.5996" y="21.272" width="144.126" height="117.126" filterUnits="userSpaceOnUse" color-interpolation-filters="sRGB">
<feFlood flood-opacity="0" result="BackgroundImageFix"/>
<feColorMatrix in="SourceAlpha" type="matrix" values="0 0 0 0 0 0 0 0 0 0 0 0 0 0 0 0 0 0 127 0" result="hardAlpha"/>
<feOffset dx="-1.021"/>
<feGaussianBlur stdDeviation="1.5315"/>
<feComposite in2="hardAlpha" operator="out"/>
<feColorMatrix type="matrix" values="0 0 0 0 0 0 0 0 0 0 0 0 0 0 0 0 0 0 0.45 0"/>
<feBlend mode="normal" in2="BackgroundImageFix" result="effect1_dropShadow_363_5438"/>
<feBlend mode="normal" in="SourceGraphic" in2="effect1_dropShadow_363_5438" result="shape"/>
</filter>
<filter id="filter2_b_363_5438" x="163.86" y="0.0434079" width="69.6319" height="69.631" filterUnits="userSpaceOnUse" color-interpolation-filters="sRGB">
<feFlood flood-opacity="0" result="BackgroundImageFix"/>
<feGaussianBlur in="BackgroundImageFix" stdDeviation="3.64431"/>
<feComposite in2="SourceAlpha" operator="in" result="effect1_backgroundBlur_363_5438"/>
<feBlend mode="normal" in="SourceGraphic" in2="effect1_backgroundBlur_363_5438" result="shape"/>
</filter>
<filter id="filter3_d_363_5438" x="132.905" y="84.5295" width="70.2184" height="70.2184" filterUnits="userSpaceOnUse" color-interpolation-filters="sRGB">
<feFlood flood-opacity="0" result="BackgroundImageFix"/>
<feColorMatrix in="SourceAlpha" type="matrix" values="0 0 0 0 0 0 0 0 0 0 0 0 0 0 0 0 0 0 127 0" result="hardAlpha"/>
<feOffset dx="-8" dy="-4"/>
<feGaussianBlur stdDeviation="6.35"/>
<feComposite in2="hardAlpha" operator="out"/>
<feColorMatrix type="matrix" values="0 0 0 0 0 0 0 0 0 0 0 0 0 0 0 0 0 0 0.59 0"/>
<feBlend mode="normal" in2="BackgroundImageFix" result="effect1_dropShadow_363_5438"/>
<feBlend mode="normal" in="SourceGraphic" in2="effect1_dropShadow_363_5438" result="shape"/>
</filter>
<linearGradient id="paint0_linear_363_5438" x1="129.706" y1="27.9892" x2="129.706" y2="116.136" gradientUnits="userSpaceOnUse">
<stop stop-color="#252525"/>
<stop offset="1" stop-color="#252525" stop-opacity="0"/>
</linearGradient>
<clipPath id="clip0_363_5438">
<rect x="60.6836" y="24.335" width="138" height="111" rx="7.14702" fill="white"/>
</clipPath>
</defs>
</svg>
