<svg width="100" height="101" viewBox="0 0 100 101" fill="none" xmlns="http://www.w3.org/2000/svg">
<circle cx="50" cy="50.5" r="50" fill="url(#paint0_radial_160_85)"/>
<path fill-rule="evenodd" clip-rule="evenodd" d="M43.6091 27.7833C45.5004 26.727 47.6799 26.125 50 26.125C52.3201 26.125 54.4996 26.727 56.3909 27.7833L57.7746 26.3996C58.1407 26.0335 58.7343 26.0335 59.1004 26.3996C59.4665 26.7657 59.4665 27.3593 59.1004 27.7254L57.9897 28.8362C61.1123 31.2355 63.125 35.0077 63.125 39.25H36.875C36.875 35.0077 38.8877 31.2355 42.0103 28.8362L40.8996 27.7254C40.5335 27.3593 40.5335 26.7657 40.8996 26.3996C41.2657 26.0335 41.8593 26.0335 42.2254 26.3996L43.6091 27.7833ZM46.25 33.625C46.25 34.6605 45.4105 35.5 44.375 35.5C43.3395 35.5 42.5 34.6605 42.5 33.625C42.5 32.5895 43.3395 31.75 44.375 31.75C45.4105 31.75 46.25 32.5895 46.25 33.625ZM55.625 35.5C56.6605 35.5 57.5 34.6605 57.5 33.625C57.5 32.5895 56.6605 31.75 55.625 31.75C54.5895 31.75 53.75 32.5895 53.75 33.625C53.75 34.6605 54.5895 35.5 55.625 35.5Z" fill="#87C527"/>
<path d="M29.375 43.9375C29.375 42.3842 30.6342 41.125 32.1875 41.125C33.7408 41.125 35 42.3842 35 43.9375V55.1875C35 56.7408 33.7408 58 32.1875 58C30.6342 58 29.375 56.7408 29.375 55.1875V43.9375Z" fill="#87C527"/>
<path d="M42.5 65.5V72.0625C42.5 73.6158 43.7592 74.875 45.3125 74.875C46.8658 74.875 48.125 73.6158 48.125 72.0625V65.5H51.875V72.0625C51.875 73.6158 53.1342 74.875 54.6875 74.875C56.2408 74.875 57.5 73.6158 57.5 72.0625V65.5H59.375C61.4461 65.5 63.125 63.8211 63.125 61.75V41.125H36.875V61.75C36.875 63.8211 38.5539 65.5 40.625 65.5H42.5Z" fill="#87C527"/>
<path d="M65 43.9375C65 42.3842 66.2592 41.125 67.8125 41.125C69.3658 41.125 70.625 42.3842 70.625 43.9375V55.1875C70.625 56.7408 69.3658 58 67.8125 58C66.2592 58 65 56.7408 65 55.1875V43.9375Z" fill="#87C527"/>
<defs>
<radialGradient id="paint0_radial_160_85" cx="0" cy="0" r="1" gradientUnits="userSpaceOnUse" gradientTransform="translate(50 50.5) rotate(90) scale(50)">
<stop stop-color="#C7E2B8"/>
<stop offset="1" stop-color="#C7E2B8" stop-opacity="0"/>
</radialGradient>
</defs>
</svg>
