<svg width="152" height="177" viewBox="0 0 152 177" fill="none" xmlns="http://www.w3.org/2000/svg">
<g id="Group 18140690">
<g id="Group 18140688">
<path id="Ellipse 115 (Stroke)" fill-rule="evenodd" clip-rule="evenodd" d="M5.94337 123.217C4.224 123.217 2.83018 121.823 2.83018 120.104C2.83018 118.384 4.224 116.99 5.94337 116.99C7.66274 116.99 9.05657 118.384 9.05657 120.104C9.05657 121.823 7.66274 123.217 5.94337 123.217ZM0 120.104C0 123.386 2.66094 126.047 5.94337 126.047C9.22581 126.047 11.8867 123.386 11.8867 120.104C11.8867 116.821 9.22581 114.16 5.94337 114.16C2.66094 114.16 0 116.821 0 120.104Z" fill="#418A30" fill-opacity="0.1"/>
<path id="Ellipse 115 (Stroke)_2" fill-rule="evenodd" clip-rule="evenodd" d="M5.94337 157.17C4.224 157.17 2.83018 155.776 2.83018 154.057C2.83018 152.337 4.224 150.943 5.94337 150.943C7.66274 150.943 9.05657 152.337 9.05657 154.057C9.05657 155.776 7.66274 157.17 5.94337 157.17ZM0 154.057C0 157.339 2.66094 160 5.94337 160C9.22581 160 11.8867 157.339 11.8867 154.057C11.8867 150.774 9.22581 148.113 5.94337 148.113C2.66094 148.113 0 150.774 0 154.057Z" fill="#418A30" fill-opacity="0.1"/>
<path id="Ellipse 115 (Stroke)_3" fill-rule="evenodd" clip-rule="evenodd" d="M5.94337 140.193C4.224 140.193 2.83018 138.799 2.83018 137.08C2.83018 135.361 4.224 133.967 5.94337 133.967C7.66274 133.967 9.05657 135.361 9.05657 137.08C9.05657 138.799 7.66274 140.193 5.94337 140.193ZM0 137.08C0 140.362 2.66094 143.023 5.94337 143.023C9.22581 143.023 11.8867 140.362 11.8867 137.08C11.8867 133.798 9.22581 131.137 5.94337 131.137C2.66094 131.137 0 133.798 0 137.08Z" fill="#418A30" fill-opacity="0.1"/>
<path id="Ellipse 115 (Stroke)_4" fill-rule="evenodd" clip-rule="evenodd" d="M27.1621 174.146C25.4428 174.146 24.0489 172.753 24.0489 171.033C24.0489 169.314 25.4428 167.92 27.1621 167.92C28.8815 167.92 30.2753 169.314 30.2753 171.033C30.2753 172.753 28.8815 174.146 27.1621 174.146ZM21.2188 171.033C21.2188 174.316 23.8797 176.977 27.1621 176.977C30.4446 176.977 33.1055 174.316 33.1055 171.033C33.1055 167.751 30.4446 165.09 27.1621 165.09C23.8797 165.09 21.2188 167.751 21.2188 171.033Z" fill="#418A30" fill-opacity="0.1"/>
<path id="Ellipse 115 (Stroke)_5" fill-rule="evenodd" clip-rule="evenodd" d="M27.1621 123.217C25.4428 123.217 24.0489 121.823 24.0489 120.104C24.0489 118.384 25.4428 116.99 27.1621 116.99C28.8815 116.99 30.2753 118.384 30.2753 120.104C30.2753 121.823 28.8815 123.217 27.1621 123.217ZM21.2188 120.104C21.2188 123.386 23.8797 126.047 27.1621 126.047C30.4446 126.047 33.1055 123.386 33.1055 120.104C33.1055 116.821 30.4446 114.16 27.1621 114.16C23.8797 114.16 21.2188 116.821 21.2188 120.104Z" fill="#418A30" fill-opacity="0.1"/>
<path id="Ellipse 115 (Stroke)_6" fill-rule="evenodd" clip-rule="evenodd" d="M27.1621 157.17C25.4428 157.17 24.0489 155.776 24.0489 154.057C24.0489 152.337 25.4428 150.943 27.1621 150.943C28.8815 150.943 30.2753 152.337 30.2753 154.057C30.2753 155.776 28.8815 157.17 27.1621 157.17ZM21.2188 154.057C21.2188 157.339 23.8797 160 27.1621 160C30.4446 160 33.1055 157.339 33.1055 154.057C33.1055 150.774 30.4446 148.113 27.1621 148.113C23.8797 148.113 21.2188 150.774 21.2188 154.057Z" fill="#418A30" fill-opacity="0.1"/>
<path id="Ellipse 115 (Stroke)_7" fill-rule="evenodd" clip-rule="evenodd" d="M27.1621 106.24C25.4428 106.24 24.0489 104.846 24.0489 103.127C24.0489 101.408 25.4428 100.014 27.1621 100.014C28.8815 100.014 30.2753 101.408 30.2753 103.127C30.2753 104.846 28.8815 106.24 27.1621 106.24ZM21.2188 103.127C21.2188 106.409 23.8797 109.07 27.1621 109.07C30.4446 109.07 33.1055 106.409 33.1055 103.127C33.1055 99.8445 30.4446 97.1836 27.1621 97.1836C23.8797 97.1836 21.2188 99.8445 21.2188 103.127Z" fill="#418A30" fill-opacity="0.1"/>
<path id="Ellipse 115 (Stroke)_8" fill-rule="evenodd" clip-rule="evenodd" d="M27.1621 140.193C25.4428 140.193 24.0489 138.799 24.0489 137.08C24.0489 135.361 25.4428 133.967 27.1621 133.967C28.8815 133.967 30.2753 135.361 30.2753 137.08C30.2753 138.799 28.8815 140.193 27.1621 140.193ZM21.2188 137.08C21.2188 140.362 23.8797 143.023 27.1621 143.023C30.4446 143.023 33.1055 140.362 33.1055 137.08C33.1055 133.798 30.4446 131.137 27.1621 131.137C23.8797 131.137 21.2188 133.798 21.2188 137.08Z" fill="#418A30" fill-opacity="0.1"/>
<path id="Ellipse 115 (Stroke)_9" fill-rule="evenodd" clip-rule="evenodd" d="M48.3809 174.146C46.6615 174.146 45.2677 172.753 45.2677 171.033C45.2677 169.314 46.6615 167.92 48.3809 167.92C50.1002 167.92 51.4941 169.314 51.4941 171.033C51.4941 172.753 50.1002 174.146 48.3809 174.146ZM42.4375 171.033C42.4375 174.316 45.0984 176.977 48.3809 176.977C51.6633 176.977 54.3242 174.316 54.3242 171.033C54.3242 167.751 51.6633 165.09 48.3809 165.09C45.0984 165.09 42.4375 167.751 42.4375 171.033Z" fill="#418A30" fill-opacity="0.1"/>
<path id="Ellipse 115 (Stroke)_10" fill-rule="evenodd" clip-rule="evenodd" d="M48.3809 123.217C46.6615 123.217 45.2677 121.823 45.2677 120.104C45.2677 118.384 46.6615 116.99 48.3809 116.99C50.1002 116.99 51.4941 118.384 51.4941 120.104C51.4941 121.823 50.1002 123.217 48.3809 123.217ZM42.4375 120.104C42.4375 123.386 45.0984 126.047 48.3809 126.047C51.6633 126.047 54.3242 123.386 54.3242 120.104C54.3242 116.821 51.6633 114.16 48.3809 114.16C45.0984 114.16 42.4375 116.821 42.4375 120.104Z" fill="#418A30" fill-opacity="0.1"/>
<path id="Ellipse 115 (Stroke)_11" fill-rule="evenodd" clip-rule="evenodd" d="M48.3809 157.17C46.6615 157.17 45.2677 155.776 45.2677 154.057C45.2677 152.337 46.6615 150.943 48.3809 150.943C50.1002 150.943 51.4941 152.337 51.4941 154.057C51.4941 155.776 50.1002 157.17 48.3809 157.17ZM42.4375 154.057C42.4375 157.339 45.0984 160 48.3809 160C51.6633 160 54.3242 157.339 54.3242 154.057C54.3242 150.774 51.6633 148.113 48.3809 148.113C45.0984 148.113 42.4375 150.774 42.4375 154.057Z" fill="#418A30" fill-opacity="0.1"/>
<path id="Ellipse 115 (Stroke)_12" fill-rule="evenodd" clip-rule="evenodd" d="M48.3809 106.24C46.6615 106.24 45.2677 104.846 45.2677 103.127C45.2677 101.408 46.6615 100.014 48.3809 100.014C50.1002 100.014 51.4941 101.408 51.4941 103.127C51.4941 104.846 50.1002 106.24 48.3809 106.24ZM42.4375 103.127C42.4375 106.409 45.0984 109.07 48.3809 109.07C51.6633 109.07 54.3242 106.409 54.3242 103.127C54.3242 99.8445 51.6633 97.1836 48.3809 97.1836C45.0984 97.1836 42.4375 99.8445 42.4375 103.127Z" fill="#418A30" fill-opacity="0.1"/>
<path id="Ellipse 115 (Stroke)_13" fill-rule="evenodd" clip-rule="evenodd" d="M48.3809 140.193C46.6615 140.193 45.2677 138.799 45.2677 137.08C45.2677 135.361 46.6615 133.967 48.3809 133.967C50.1002 133.967 51.4941 135.361 51.4941 137.08C51.4941 138.799 50.1002 140.193 48.3809 140.193ZM42.4375 137.08C42.4375 140.362 45.0984 143.023 48.3809 143.023C51.6633 143.023 54.3242 140.362 54.3242 137.08C54.3242 133.798 51.6633 131.137 48.3809 131.137C45.0984 131.137 42.4375 133.798 42.4375 137.08Z" fill="#418A30" fill-opacity="0.1"/>
<path id="Ellipse 115 (Stroke)_14" fill-rule="evenodd" clip-rule="evenodd" d="M69.5996 123.217C67.8803 123.217 66.4864 121.823 66.4864 120.104C66.4864 118.384 67.8803 116.99 69.5996 116.99C71.319 116.99 72.7128 118.384 72.7128 120.104C72.7128 121.823 71.319 123.217 69.5996 123.217ZM63.6562 120.104C63.6562 123.386 66.3172 126.047 69.5996 126.047C72.8821 126.047 75.543 123.386 75.543 120.104C75.543 116.821 72.8821 114.16 69.5996 114.16C66.3172 114.16 63.6562 116.821 63.6562 120.104Z" fill="#418A30" fill-opacity="0.1"/>
<path id="Ellipse 115 (Stroke)_15" fill-rule="evenodd" clip-rule="evenodd" d="M69.5996 157.17C67.8803 157.17 66.4864 155.776 66.4864 154.057C66.4864 152.337 67.8803 150.943 69.5996 150.943C71.319 150.943 72.7128 152.337 72.7128 154.057C72.7128 155.776 71.319 157.17 69.5996 157.17ZM63.6562 154.057C63.6562 157.339 66.3172 160 69.5996 160C72.8821 160 75.543 157.339 75.543 154.057C75.543 150.774 72.8821 148.113 69.5996 148.113C66.3172 148.113 63.6562 150.774 63.6562 154.057Z" fill="#418A30" fill-opacity="0.1"/>
<path id="Ellipse 115 (Stroke)_16" fill-rule="evenodd" clip-rule="evenodd" d="M69.5996 140.193C67.8803 140.193 66.4864 138.799 66.4864 137.08C66.4864 135.361 67.8803 133.967 69.5996 133.967C71.319 133.967 72.7128 135.361 72.7128 137.08C72.7128 138.799 71.319 140.193 69.5996 140.193ZM63.6562 137.08C63.6562 140.362 66.3172 143.023 69.5996 143.023C72.8821 143.023 75.543 140.362 75.543 137.08C75.543 133.798 72.8821 131.137 69.5996 131.137C66.3172 131.137 63.6562 133.798 63.6562 137.08Z" fill="#418A30" fill-opacity="0.1"/>
</g>
<g id="Group 18140685">
<path id="Ellipse 115 (Stroke)_17" fill-rule="evenodd" clip-rule="evenodd" d="M98.4863 123.217C96.767 123.217 95.3731 121.823 95.3731 120.104C95.3731 118.384 96.767 116.99 98.4863 116.99C100.206 116.99 101.6 118.384 101.6 120.104C101.6 121.823 100.206 123.217 98.4863 123.217ZM92.543 120.104C92.543 123.386 95.2039 126.047 98.4863 126.047C101.769 126.047 104.43 123.386 104.43 120.104C104.43 116.821 101.769 114.16 98.4863 114.16C95.2039 114.16 92.543 116.821 92.543 120.104Z" fill="#418A30" fill-opacity="0.3"/>
<path id="Ellipse 115 (Stroke)_18" fill-rule="evenodd" clip-rule="evenodd" d="M98.4863 157.17C96.767 157.17 95.3731 155.776 95.3731 154.057C95.3731 152.337 96.767 150.943 98.4863 150.943C100.206 150.943 101.6 152.337 101.6 154.057C101.6 155.776 100.206 157.17 98.4863 157.17ZM92.543 154.057C92.543 157.339 95.2039 160 98.4863 160C101.769 160 104.43 157.339 104.43 154.057C104.43 150.774 101.769 148.113 98.4863 148.113C95.2039 148.113 92.543 150.774 92.543 154.057Z" fill="#418A30" fill-opacity="0.3"/>
<path id="Ellipse 115 (Stroke)_19" fill-rule="evenodd" clip-rule="evenodd" d="M98.4863 140.193C96.767 140.193 95.3731 138.799 95.3731 137.08C95.3731 135.361 96.767 133.967 98.4863 133.967C100.206 133.967 101.6 135.361 101.6 137.08C101.6 138.799 100.206 140.193 98.4863 140.193ZM92.543 137.08C92.543 140.362 95.2039 143.023 98.4863 143.023C101.769 143.023 104.43 140.362 104.43 137.08C104.43 133.798 101.769 131.137 98.4863 131.137C95.2039 131.137 92.543 133.798 92.543 137.08Z" fill="#418A30" fill-opacity="0.3"/>
<path id="Ellipse 115 (Stroke)_20" fill-rule="evenodd" clip-rule="evenodd" d="M119.705 174.146C117.986 174.146 116.592 172.753 116.592 171.033C116.592 169.314 117.986 167.92 119.705 167.92C121.424 167.92 122.818 169.314 122.818 171.033C122.818 172.753 121.424 174.146 119.705 174.146ZM113.762 171.033C113.762 174.316 116.423 176.977 119.705 176.977C122.988 176.977 125.648 174.316 125.648 171.033C125.648 167.751 122.988 165.09 119.705 165.09C116.423 165.09 113.762 167.751 113.762 171.033Z" fill="#418A30" fill-opacity="0.3"/>
<path id="Ellipse 115 (Stroke)_21" fill-rule="evenodd" clip-rule="evenodd" d="M119.705 123.217C117.986 123.217 116.592 121.823 116.592 120.104C116.592 118.384 117.986 116.99 119.705 116.99C121.424 116.99 122.818 118.384 122.818 120.104C122.818 121.823 121.424 123.217 119.705 123.217ZM113.762 120.104C113.762 123.386 116.423 126.047 119.705 126.047C122.988 126.047 125.648 123.386 125.648 120.104C125.648 116.821 122.988 114.16 119.705 114.16C116.423 114.16 113.762 116.821 113.762 120.104Z" fill="#418A30" fill-opacity="0.3"/>
<path id="Ellipse 115 (Stroke)_22" fill-rule="evenodd" clip-rule="evenodd" d="M119.705 157.17C117.986 157.17 116.592 155.776 116.592 154.057C116.592 152.337 117.986 150.943 119.705 150.943C121.424 150.943 122.818 152.337 122.818 154.057C122.818 155.776 121.424 157.17 119.705 157.17ZM113.762 154.057C113.762 157.339 116.423 160 119.705 160C122.988 160 125.648 157.339 125.648 154.057C125.648 150.774 122.988 148.113 119.705 148.113C116.423 148.113 113.762 150.774 113.762 154.057Z" fill="#418A30" fill-opacity="0.3"/>
<path id="Ellipse 115 (Stroke)_23" fill-rule="evenodd" clip-rule="evenodd" d="M119.705 106.24C117.986 106.24 116.592 104.846 116.592 103.127C116.592 101.408 117.986 100.014 119.705 100.014C121.424 100.014 122.818 101.408 122.818 103.127C122.818 104.846 121.424 106.24 119.705 106.24ZM113.762 103.127C113.762 106.409 116.423 109.07 119.705 109.07C122.988 109.07 125.648 106.409 125.648 103.127C125.648 99.8445 122.988 97.1836 119.705 97.1836C116.423 97.1836 113.762 99.8445 113.762 103.127Z" fill="#418A30" fill-opacity="0.3"/>
<path id="Ellipse 115 (Stroke)_24" fill-rule="evenodd" clip-rule="evenodd" d="M119.705 140.193C117.986 140.193 116.592 138.799 116.592 137.08C116.592 135.361 117.986 133.967 119.705 133.967C121.424 133.967 122.818 135.361 122.818 137.08C122.818 138.799 121.424 140.193 119.705 140.193ZM113.762 137.08C113.762 140.362 116.423 143.023 119.705 143.023C122.988 143.023 125.648 140.362 125.648 137.08C125.648 133.798 122.988 131.137 119.705 131.137C116.423 131.137 113.762 133.798 113.762 137.08Z" fill="#418A30" fill-opacity="0.3"/>
<path id="Ellipse 115 (Stroke)_25" fill-rule="evenodd" clip-rule="evenodd" d="M140.924 174.146C139.204 174.146 137.811 172.753 137.811 171.033C137.811 169.314 139.204 167.92 140.924 167.92C142.643 167.92 144.037 169.314 144.037 171.033C144.037 172.753 142.643 174.146 140.924 174.146ZM134.98 171.033C134.98 174.316 137.641 176.977 140.924 176.977C144.206 176.977 146.867 174.316 146.867 171.033C146.867 167.751 144.206 165.09 140.924 165.09C137.641 165.09 134.98 167.751 134.98 171.033Z" fill="#418A30" fill-opacity="0.3"/>
<path id="Ellipse 115 (Stroke)_26" fill-rule="evenodd" clip-rule="evenodd" d="M140.924 123.217C139.204 123.217 137.811 121.823 137.811 120.104C137.811 118.384 139.204 116.99 140.924 116.99C142.643 116.99 144.037 118.384 144.037 120.104C144.037 121.823 142.643 123.217 140.924 123.217ZM134.98 120.104C134.98 123.386 137.641 126.047 140.924 126.047C144.206 126.047 146.867 123.386 146.867 120.104C146.867 116.821 144.206 114.16 140.924 114.16C137.641 114.16 134.98 116.821 134.98 120.104Z" fill="#418A30" fill-opacity="0.3"/>
<path id="Ellipse 115 (Stroke)_27" fill-rule="evenodd" clip-rule="evenodd" d="M140.924 157.17C139.204 157.17 137.811 155.776 137.811 154.057C137.811 152.337 139.204 150.943 140.924 150.943C142.643 150.943 144.037 152.337 144.037 154.057C144.037 155.776 142.643 157.17 140.924 157.17ZM134.98 154.057C134.98 157.339 137.641 160 140.924 160C144.206 160 146.867 157.339 146.867 154.057C146.867 150.774 144.206 148.113 140.924 148.113C137.641 148.113 134.98 150.774 134.98 154.057Z" fill="#418A30" fill-opacity="0.3"/>
<path id="Ellipse 115 (Stroke)_28" fill-rule="evenodd" clip-rule="evenodd" d="M140.924 106.24C139.204 106.24 137.811 104.846 137.811 103.127C137.811 101.408 139.204 100.014 140.924 100.014C142.643 100.014 144.037 101.408 144.037 103.127C144.037 104.846 142.643 106.24 140.924 106.24ZM134.98 103.127C134.98 106.409 137.641 109.07 140.924 109.07C144.206 109.07 146.867 106.409 146.867 103.127C146.867 99.8445 144.206 97.1836 140.924 97.1836C137.641 97.1836 134.98 99.8445 134.98 103.127Z" fill="#418A30" fill-opacity="0.3"/>
<path id="Ellipse 115 (Stroke)_29" fill-rule="evenodd" clip-rule="evenodd" d="M140.924 140.193C139.204 140.193 137.811 138.799 137.811 137.08C137.811 135.361 139.204 133.967 140.924 133.967C142.643 133.967 144.037 135.361 144.037 137.08C144.037 138.799 142.643 140.193 140.924 140.193ZM134.98 137.08C134.98 140.362 137.641 143.023 140.924 143.023C144.206 143.023 146.867 140.362 146.867 137.08C146.867 133.798 144.206 131.137 140.924 131.137C137.641 131.137 134.98 133.798 134.98 137.08Z" fill="#418A30" fill-opacity="0.3"/>
</g>
<g id="Group 18140687">
<path id="Ellipse 115 (Stroke)_30" fill-rule="evenodd" clip-rule="evenodd" d="M98.4863 26.4198C96.767 26.4198 95.3731 25.026 95.3731 23.3066C95.3731 21.5873 96.767 20.1934 98.4863 20.1934C100.206 20.1934 101.6 21.5873 101.6 23.3066C101.6 25.026 100.206 26.4198 98.4863 26.4198ZM92.543 23.3066C92.543 26.5891 95.2039 29.25 98.4863 29.25C101.769 29.25 104.43 26.5891 104.43 23.3066C104.43 20.0242 101.769 17.3633 98.4863 17.3633C95.2039 17.3633 92.543 20.0242 92.543 23.3066Z" fill="#418A30" fill-opacity="0.3"/>
<path id="Ellipse 115 (Stroke)_31" fill-rule="evenodd" clip-rule="evenodd" d="M98.4863 60.3729C96.767 60.3729 95.3731 58.9791 95.3731 57.2598C95.3731 55.5404 96.767 54.1466 98.4863 54.1466C100.206 54.1466 101.6 55.5404 101.6 57.2598C101.6 58.9791 100.206 60.3729 98.4863 60.3729ZM92.543 57.2598C92.543 60.5422 95.2039 63.2031 98.4863 63.2031C101.769 63.2031 104.43 60.5422 104.43 57.2598C104.43 53.9773 101.769 51.3164 98.4863 51.3164C95.2039 51.3164 92.543 53.9773 92.543 57.2598Z" fill="#418A30" fill-opacity="0.3"/>
<path id="Ellipse 115 (Stroke)_32" fill-rule="evenodd" clip-rule="evenodd" d="M98.4863 43.3964C96.767 43.3964 95.3731 42.0026 95.3731 40.2832C95.3731 38.5638 96.767 37.17 98.4863 37.17C100.206 37.17 101.6 38.5638 101.6 40.2832C101.6 42.0026 100.206 43.3964 98.4863 43.3964ZM92.543 40.2832C92.543 43.5656 95.2039 46.2266 98.4863 46.2266C101.769 46.2266 104.43 43.5656 104.43 40.2832C104.43 37.0008 101.769 34.3398 98.4863 34.3398C95.2039 34.3398 92.543 37.0008 92.543 40.2832Z" fill="#418A30" fill-opacity="0.3"/>
<path id="Ellipse 115 (Stroke)_33" fill-rule="evenodd" clip-rule="evenodd" d="M119.705 77.3495C117.986 77.3495 116.592 75.9557 116.592 74.2363C116.592 72.5169 117.986 71.1231 119.705 71.1231C121.424 71.1231 122.818 72.5169 122.818 74.2363C122.818 75.9557 121.424 77.3495 119.705 77.3495ZM113.762 74.2363C113.762 77.5187 116.423 80.1797 119.705 80.1797C122.988 80.1797 125.648 77.5187 125.648 74.2363C125.648 70.9539 122.988 68.2929 119.705 68.2929C116.423 68.2929 113.762 70.9539 113.762 74.2363Z" fill="#418A30" fill-opacity="0.3"/>
<path id="Ellipse 115 (Stroke)_34" fill-rule="evenodd" clip-rule="evenodd" d="M119.705 26.4198C117.986 26.4198 116.592 25.026 116.592 23.3066C116.592 21.5873 117.986 20.1934 119.705 20.1934C121.424 20.1934 122.818 21.5873 122.818 23.3066C122.818 25.026 121.424 26.4198 119.705 26.4198ZM113.762 23.3066C113.762 26.5891 116.423 29.25 119.705 29.25C122.988 29.25 125.648 26.5891 125.648 23.3066C125.648 20.0242 122.988 17.3633 119.705 17.3633C116.423 17.3633 113.762 20.0242 113.762 23.3066Z" fill="#418A30" fill-opacity="0.3"/>
<path id="Ellipse 115 (Stroke)_35" fill-rule="evenodd" clip-rule="evenodd" d="M119.705 60.3729C117.986 60.3729 116.592 58.9791 116.592 57.2598C116.592 55.5404 117.986 54.1466 119.705 54.1466C121.424 54.1466 122.818 55.5404 122.818 57.2598C122.818 58.9791 121.424 60.3729 119.705 60.3729ZM113.762 57.2598C113.762 60.5422 116.423 63.2031 119.705 63.2031C122.988 63.2031 125.648 60.5422 125.648 57.2598C125.648 53.9773 122.988 51.3164 119.705 51.3164C116.423 51.3164 113.762 53.9773 113.762 57.2598Z" fill="#418A30" fill-opacity="0.3"/>
<path id="Ellipse 115 (Stroke)_36" fill-rule="evenodd" clip-rule="evenodd" d="M119.705 9.44326C117.986 9.44326 116.592 8.04944 116.592 6.33007C116.592 4.6107 117.986 3.21687 119.705 3.21687C121.424 3.21687 122.818 4.6107 122.818 6.33007C122.818 8.04944 121.424 9.44326 119.705 9.44326ZM113.762 6.33007C113.762 9.6125 116.423 12.2734 119.705 12.2734C122.988 12.2734 125.648 9.6125 125.648 6.33007C125.648 3.04763 122.988 0.386694 119.705 0.386694C116.423 0.386694 113.762 3.04763 113.762 6.33007Z" fill="#418A30" fill-opacity="0.3"/>
<path id="Ellipse 115 (Stroke)_37" fill-rule="evenodd" clip-rule="evenodd" d="M119.705 43.3964C117.986 43.3964 116.592 42.0026 116.592 40.2832C116.592 38.5638 117.986 37.17 119.705 37.17C121.424 37.17 122.818 38.5638 122.818 40.2832C122.818 42.0026 121.424 43.3964 119.705 43.3964ZM113.762 40.2832C113.762 43.5656 116.423 46.2266 119.705 46.2266C122.988 46.2266 125.648 43.5656 125.648 40.2832C125.648 37.0008 122.988 34.3398 119.705 34.3398C116.423 34.3398 113.762 37.0008 113.762 40.2832Z" fill="#418A30" fill-opacity="0.3"/>
<path id="Ellipse 115 (Stroke)_38" fill-rule="evenodd" clip-rule="evenodd" d="M140.924 77.3495C139.204 77.3495 137.811 75.9557 137.811 74.2363C137.811 72.5169 139.204 71.1231 140.924 71.1231C142.643 71.1231 144.037 72.5169 144.037 74.2363C144.037 75.9557 142.643 77.3495 140.924 77.3495ZM134.98 74.2363C134.98 77.5187 137.641 80.1797 140.924 80.1797C144.206 80.1797 146.867 77.5187 146.867 74.2363C146.867 70.9539 144.206 68.2929 140.924 68.2929C137.641 68.2929 134.98 70.9539 134.98 74.2363Z" fill="#418A30" fill-opacity="0.3"/>
<path id="Ellipse 115 (Stroke)_39" fill-rule="evenodd" clip-rule="evenodd" d="M140.924 26.4198C139.204 26.4198 137.811 25.026 137.811 23.3066C137.811 21.5873 139.204 20.1934 140.924 20.1934C142.643 20.1934 144.037 21.5873 144.037 23.3066C144.037 25.026 142.643 26.4198 140.924 26.4198ZM134.98 23.3066C134.98 26.5891 137.641 29.25 140.924 29.25C144.206 29.25 146.867 26.5891 146.867 23.3066C146.867 20.0242 144.206 17.3633 140.924 17.3633C137.641 17.3633 134.98 20.0242 134.98 23.3066Z" fill="#418A30" fill-opacity="0.3"/>
<path id="Ellipse 115 (Stroke)_40" fill-rule="evenodd" clip-rule="evenodd" d="M140.924 60.3729C139.204 60.3729 137.811 58.9791 137.811 57.2598C137.811 55.5404 139.204 54.1466 140.924 54.1466C142.643 54.1466 144.037 55.5404 144.037 57.2598C144.037 58.9791 142.643 60.3729 140.924 60.3729ZM134.98 57.2598C134.98 60.5422 137.641 63.2031 140.924 63.2031C144.206 63.2031 146.867 60.5422 146.867 57.2598C146.867 53.9773 144.206 51.3164 140.924 51.3164C137.641 51.3164 134.98 53.9773 134.98 57.2598Z" fill="#418A30" fill-opacity="0.3"/>
<path id="Ellipse 115 (Stroke)_41" fill-rule="evenodd" clip-rule="evenodd" d="M140.924 9.44326C139.204 9.44326 137.811 8.04944 137.811 6.33007C137.811 4.6107 139.204 3.21687 140.924 3.21687C142.643 3.21687 144.037 4.6107 144.037 6.33007C144.037 8.04944 142.643 9.44326 140.924 9.44326ZM134.98 6.33007C134.98 9.6125 137.641 12.2734 140.924 12.2734C144.206 12.2734 146.867 9.6125 146.867 6.33007C146.867 3.04763 144.206 0.386694 140.924 0.386694C137.641 0.386694 134.98 3.04763 134.98 6.33007Z" fill="#418A30" fill-opacity="0.3"/>
<path id="Ellipse 115 (Stroke)_42" fill-rule="evenodd" clip-rule="evenodd" d="M140.924 43.3964C139.204 43.3964 137.811 42.0026 137.811 40.2832C137.811 38.5638 139.204 37.17 140.924 37.17C142.643 37.17 144.037 38.5638 144.037 40.2832C144.037 42.0026 142.643 43.3964 140.924 43.3964ZM134.98 40.2832C134.98 43.5656 137.641 46.2266 140.924 46.2266C144.206 46.2266 146.867 43.5656 146.867 40.2832C146.867 37.0008 144.206 34.3398 140.924 34.3398C137.641 34.3398 134.98 37.0008 134.98 40.2832Z" fill="#418A30" fill-opacity="0.3"/>
</g>
</g>
</svg>
