<svg width="59" height="80" viewBox="0 0 59 80" fill="none" xmlns="http://www.w3.org/2000/svg">
<g id="Group 18140684">
<path id="Ellipse 115 (Stroke)" fill-rule="evenodd" clip-rule="evenodd" d="M10.1621 2.83018C8.44275 2.83018 7.04893 4.224 7.04893 5.94337C7.04893 7.66274 8.44275 9.05657 10.1621 9.05657C11.8815 9.05657 13.2753 7.66274 13.2753 5.94337C13.2753 4.224 11.8815 2.83018 10.1621 2.83018ZM4.21875 5.94337C4.21875 2.66094 6.87969 0 10.1621 0C13.4446 0 16.1055 2.66094 16.1055 5.94337C16.1055 9.22581 13.4446 11.8867 10.1621 11.8867C6.87969 11.8867 4.21875 9.22581 4.21875 5.94337Z" fill="#DFEED4"/>
<path id="Ellipse 115 (Stroke)_2" fill-rule="evenodd" clip-rule="evenodd" d="M10.1621 53.757C8.44275 53.757 7.04893 55.1509 7.04893 56.8702C7.04893 58.5896 8.44275 59.9834 10.1621 59.9834C11.8815 59.9834 13.2753 58.5896 13.2753 56.8702C13.2753 55.1509 11.8815 53.757 10.1621 53.757ZM4.21875 56.8702C4.21875 53.5878 6.87969 50.9268 10.1621 50.9268C13.4446 50.9268 16.1055 53.5878 16.1055 56.8702C16.1055 60.1527 13.4446 62.8136 10.1621 62.8136C6.87969 62.8136 4.21875 60.1527 4.21875 56.8702Z" fill="#DFEED4"/>
<path id="Ellipse 115 (Stroke)_3" fill-rule="evenodd" clip-rule="evenodd" d="M10.1621 19.8058C8.44275 19.8058 7.04893 21.1996 7.04893 22.919C7.04893 24.6384 8.44275 26.0322 10.1621 26.0322C11.8815 26.0322 13.2753 24.6384 13.2753 22.919C13.2753 21.1996 11.8815 19.8058 10.1621 19.8058ZM4.21875 22.919C4.21875 19.6366 6.87969 16.9756 10.1621 16.9756C13.4446 16.9756 16.1055 19.6366 16.1055 22.919C16.1055 26.2014 13.4446 28.8624 10.1621 28.8624C6.87969 28.8624 4.21875 26.2014 4.21875 22.919Z" fill="#DFEED4"/>
<path id="Ellipse 115 (Stroke)_4" fill-rule="evenodd" clip-rule="evenodd" d="M10.1621 70.7326C8.44275 70.7326 7.04893 72.1265 7.04893 73.8458C7.04893 75.5652 8.44275 76.959 10.1621 76.959C11.8815 76.959 13.2753 75.5652 13.2753 73.8458C13.2753 72.1265 11.8815 70.7326 10.1621 70.7326ZM4.21875 73.8458C4.21875 70.5634 6.87969 67.9025 10.1621 67.9025C13.4446 67.9025 16.1055 70.5634 16.1055 73.8458C16.1055 77.1283 13.4446 79.7892 10.1621 79.7892C6.87969 79.7892 4.21875 77.1283 4.21875 73.8458Z" fill="#DFEED4"/>
<path id="Ellipse 115 (Stroke)_5" fill-rule="evenodd" clip-rule="evenodd" d="M10.1621 36.7814C8.44275 36.7814 7.04893 38.1752 7.04893 39.8946C7.04893 41.614 8.44275 43.0078 10.1621 43.0078C11.8815 43.0078 13.2753 41.614 13.2753 39.8946C13.2753 38.1752 11.8815 36.7814 10.1621 36.7814ZM4.21875 39.8946C4.21875 36.6122 6.87969 33.9512 10.1621 33.9512C13.4446 33.9512 16.1055 36.6122 16.1055 39.8946C16.1055 43.177 13.4446 45.838 10.1621 45.838C6.87969 45.838 4.21875 43.177 4.21875 39.8946Z" fill="#DFEED4"/>
<path id="Ellipse 115 (Stroke)_6" fill-rule="evenodd" clip-rule="evenodd" d="M31.3809 2.83018C29.6615 2.83018 28.2677 4.224 28.2677 5.94337C28.2677 7.66274 29.6615 9.05657 31.3809 9.05657C33.1002 9.05657 34.4941 7.66274 34.4941 5.94337C34.4941 4.224 33.1002 2.83018 31.3809 2.83018ZM25.4375 5.94337C25.4375 2.66094 28.0984 0 31.3809 0C34.6633 0 37.3242 2.66094 37.3242 5.94337C37.3242 9.22581 34.6633 11.8867 31.3809 11.8867C28.0984 11.8867 25.4375 9.22581 25.4375 5.94337Z" fill="#DFEED4"/>
<path id="Ellipse 115 (Stroke)_7" fill-rule="evenodd" clip-rule="evenodd" d="M31.3809 53.757C29.6615 53.757 28.2677 55.1509 28.2677 56.8702C28.2677 58.5896 29.6615 59.9834 31.3809 59.9834C33.1002 59.9834 34.4941 58.5896 34.4941 56.8702C34.4941 55.1509 33.1002 53.757 31.3809 53.757ZM25.4375 56.8702C25.4375 53.5878 28.0984 50.9268 31.3809 50.9268C34.6633 50.9268 37.3242 53.5878 37.3242 56.8702C37.3242 60.1527 34.6633 62.8136 31.3809 62.8136C28.0984 62.8136 25.4375 60.1527 25.4375 56.8702Z" fill="#DFEED4"/>
<path id="Ellipse 115 (Stroke)_8" fill-rule="evenodd" clip-rule="evenodd" d="M31.3809 19.8058C29.6615 19.8058 28.2677 21.1996 28.2677 22.919C28.2677 24.6384 29.6615 26.0322 31.3809 26.0322C33.1002 26.0322 34.4941 24.6384 34.4941 22.919C34.4941 21.1996 33.1002 19.8058 31.3809 19.8058ZM25.4375 22.919C25.4375 19.6366 28.0984 16.9756 31.3809 16.9756C34.6633 16.9756 37.3242 19.6366 37.3242 22.919C37.3242 26.2014 34.6633 28.8624 31.3809 28.8624C28.0984 28.8624 25.4375 26.2014 25.4375 22.919Z" fill="#DFEED4"/>
<path id="Ellipse 115 (Stroke)_9" fill-rule="evenodd" clip-rule="evenodd" d="M31.3809 70.7326C29.6615 70.7326 28.2677 72.1265 28.2677 73.8458C28.2677 75.5652 29.6615 76.959 31.3809 76.959C33.1002 76.959 34.4941 75.5652 34.4941 73.8458C34.4941 72.1265 33.1002 70.7326 31.3809 70.7326ZM25.4375 73.8458C25.4375 70.5634 28.0984 67.9025 31.3809 67.9025C34.6633 67.9025 37.3242 70.5634 37.3242 73.8458C37.3242 77.1283 34.6633 79.7892 31.3809 79.7892C28.0984 79.7892 25.4375 77.1283 25.4375 73.8458Z" fill="#DFEED4"/>
<path id="Ellipse 115 (Stroke)_10" fill-rule="evenodd" clip-rule="evenodd" d="M31.3809 36.7814C29.6615 36.7814 28.2677 38.1752 28.2677 39.8946C28.2677 41.614 29.6615 43.0078 31.3809 43.0078C33.1002 43.0078 34.4941 41.614 34.4941 39.8946C34.4941 38.1752 33.1002 36.7814 31.3809 36.7814ZM25.4375 39.8946C25.4375 36.6122 28.0984 33.9512 31.3809 33.9512C34.6633 33.9512 37.3242 36.6122 37.3242 39.8946C37.3242 43.177 34.6633 45.838 31.3809 45.838C28.0984 45.838 25.4375 43.177 25.4375 39.8946Z" fill="#DFEED4"/>
<path id="Ellipse 115 (Stroke)_11" fill-rule="evenodd" clip-rule="evenodd" d="M52.6001 2.83018C50.8807 2.83018 49.4869 4.224 49.4869 5.94337C49.4869 7.66274 50.8807 9.05657 52.6001 9.05657C54.3195 9.05657 55.7133 7.66274 55.7133 5.94337C55.7133 4.224 54.3195 2.83018 52.6001 2.83018ZM46.6567 5.94337C46.6567 2.66094 49.3177 0 52.6001 0C55.8825 0 58.5435 2.66094 58.5435 5.94337C58.5435 9.22581 55.8825 11.8867 52.6001 11.8867C49.3177 11.8867 46.6567 9.22581 46.6567 5.94337Z" fill="#DFEED4"/>
<path id="Ellipse 115 (Stroke)_12" fill-rule="evenodd" clip-rule="evenodd" d="M52.6001 53.757C50.8807 53.757 49.4869 55.1509 49.4869 56.8702C49.4869 58.5896 50.8807 59.9834 52.6001 59.9834C54.3195 59.9834 55.7133 58.5896 55.7133 56.8702C55.7133 55.1509 54.3195 53.757 52.6001 53.757ZM46.6567 56.8702C46.6567 53.5878 49.3177 50.9268 52.6001 50.9268C55.8825 50.9268 58.5435 53.5878 58.5435 56.8702C58.5435 60.1527 55.8825 62.8136 52.6001 62.8136C49.3177 62.8136 46.6567 60.1527 46.6567 56.8702Z" fill="#DFEED4"/>
<path id="Ellipse 115 (Stroke)_13" fill-rule="evenodd" clip-rule="evenodd" d="M52.6001 19.8058C50.8807 19.8058 49.4869 21.1996 49.4869 22.919C49.4869 24.6384 50.8807 26.0322 52.6001 26.0322C54.3195 26.0322 55.7133 24.6384 55.7133 22.919C55.7133 21.1996 54.3195 19.8058 52.6001 19.8058ZM46.6567 22.919C46.6567 19.6366 49.3177 16.9756 52.6001 16.9756C55.8825 16.9756 58.5435 19.6366 58.5435 22.919C58.5435 26.2014 55.8825 28.8624 52.6001 28.8624C49.3177 28.8624 46.6567 26.2014 46.6567 22.919Z" fill="#DFEED4"/>
<path id="Ellipse 115 (Stroke)_14" fill-rule="evenodd" clip-rule="evenodd" d="M52.6001 70.7326C50.8807 70.7326 49.4869 72.1265 49.4869 73.8458C49.4869 75.5652 50.8807 76.959 52.6001 76.959C54.3195 76.959 55.7133 75.5652 55.7133 73.8458C55.7133 72.1265 54.3195 70.7326 52.6001 70.7326ZM46.6567 73.8458C46.6567 70.5634 49.3177 67.9025 52.6001 67.9025C55.8825 67.9025 58.5435 70.5634 58.5435 73.8458C58.5435 77.1283 55.8825 79.7892 52.6001 79.7892C49.3177 79.7892 46.6567 77.1283 46.6567 73.8458Z" fill="#DFEED4"/>
<path id="Ellipse 115 (Stroke)_15" fill-rule="evenodd" clip-rule="evenodd" d="M52.6001 36.7814C50.8807 36.7814 49.4869 38.1752 49.4869 39.8946C49.4869 41.614 50.8807 43.0078 52.6001 43.0078C54.3195 43.0078 55.7133 41.614 55.7133 39.8946C55.7133 38.1752 54.3195 36.7814 52.6001 36.7814ZM46.6567 39.8946C46.6567 36.6122 49.3177 33.9512 52.6001 33.9512C55.8825 33.9512 58.5435 36.6122 58.5435 39.8946C58.5435 43.177 55.8825 45.838 52.6001 45.838C49.3177 45.838 46.6567 43.177 46.6567 39.8946Z" fill="#DFEED4"/>
</g>
</svg>
