<svg width="64" height="170" viewBox="0 0 64 170" fill="none" xmlns="http://www.w3.org/2000/svg">
<g id="Group 18140688">
<path id="Ellipse 115 (Stroke)" fill-rule="evenodd" clip-rule="evenodd" d="M5.60445 6.00212C1.95808 6.00212 -0.997881 8.95808 -0.997881 12.6045C-0.997881 16.2508 1.95808 19.2068 5.60445 19.2068C9.25082 19.2068 12.2068 16.2508 12.2068 12.6045C12.2068 8.95808 9.25082 6.00212 5.60445 6.00212ZM-7 12.6045C-7 5.6432 -1.3568 0 5.60445 0C12.5657 0 18.2089 5.6432 18.2089 12.6045C18.2089 19.5657 12.5657 25.2089 5.60445 25.2089C-1.3568 25.2089 -7 19.5657 -7 12.6045Z" fill="#418A30" fill-opacity="0.4"/>
<path id="Ellipse 115 (Stroke)_2" fill-rule="evenodd" clip-rule="evenodd" d="M5.60445 114.002C1.95808 114.002 -0.997881 116.958 -0.997881 120.604C-0.997881 124.251 1.95808 127.207 5.60445 127.207C9.25082 127.207 12.2068 124.251 12.2068 120.604C12.2068 116.958 9.25082 114.002 5.60445 114.002ZM-7 120.604C-7 113.643 -1.3568 108 5.60445 108C12.5657 108 18.2089 113.643 18.2089 120.604C18.2089 127.566 12.5657 133.209 5.60445 133.209C-1.3568 133.209 -7 127.566 -7 120.604Z" fill="#418A30" fill-opacity="0.4"/>
<path id="Ellipse 115 (Stroke)_3" fill-rule="evenodd" clip-rule="evenodd" d="M5.60445 42.0021C1.95808 42.0021 -0.997881 44.9581 -0.997881 48.6045C-0.997881 52.2508 1.95808 55.2068 5.60445 55.2068C9.25082 55.2068 12.2068 52.2508 12.2068 48.6045C12.2068 44.9581 9.25082 42.0021 5.60445 42.0021ZM-7 48.6045C-7 41.6432 -1.3568 36 5.60445 36C12.5657 36 18.2089 41.6432 18.2089 48.6045C18.2089 55.5657 12.5657 61.2089 5.60445 61.2089C-1.3568 61.2089 -7 55.5657 -7 48.6045Z" fill="#418A30" fill-opacity="0.4"/>
<path id="Ellipse 115 (Stroke)_4" fill-rule="evenodd" clip-rule="evenodd" d="M5.60445 150.002C1.95808 150.002 -0.997881 152.958 -0.997881 156.604C-0.997881 160.251 1.95808 163.207 5.60445 163.207C9.25082 163.207 12.2068 160.251 12.2068 156.604C12.2068 152.958 9.25082 150.002 5.60445 150.002ZM-7 156.604C-7 149.643 -1.3568 144 5.60445 144C12.5657 144 18.2089 149.643 18.2089 156.604C18.2089 163.566 12.5657 169.209 5.60445 169.209C-1.3568 169.209 -7 163.566 -7 156.604Z" fill="#418A30" fill-opacity="0.4"/>
<path id="Ellipse 115 (Stroke)_5" fill-rule="evenodd" clip-rule="evenodd" d="M5.60445 78.0021C1.95808 78.0021 -0.997881 80.9581 -0.997881 84.6045C-0.997881 88.2508 1.95808 91.2068 5.60445 91.2068C9.25082 91.2068 12.2068 88.2508 12.2068 84.6045C12.2068 80.9581 9.25082 78.0021 5.60445 78.0021ZM-7 84.6045C-7 77.6432 -1.3568 72 5.60445 72C12.5657 72 18.2089 77.6432 18.2089 84.6045C18.2089 91.5657 12.5657 97.2089 5.60445 97.2089C-1.3568 97.2089 -7 91.5657 -7 84.6045Z" fill="#418A30" fill-opacity="0.4"/>
<path id="Ellipse 115 (Stroke)_6" fill-rule="evenodd" clip-rule="evenodd" d="M50.6045 114.002C46.9581 114.002 44.0021 116.958 44.0021 120.604C44.0021 124.251 46.9581 127.207 50.6045 127.207C54.2508 127.207 57.2068 124.251 57.2068 120.604C57.2068 116.958 54.2508 114.002 50.6045 114.002ZM38 120.604C38 113.643 43.6432 108 50.6045 108C57.5657 108 63.2089 113.643 63.2089 120.604C63.2089 127.566 57.5657 133.209 50.6045 133.209C43.6432 133.209 38 127.566 38 120.604Z" fill="#418A30" fill-opacity="0.4"/>
<path id="Ellipse 115 (Stroke)_7" fill-rule="evenodd" clip-rule="evenodd" d="M50.6045 42.0021C46.9581 42.0021 44.0021 44.9581 44.0021 48.6045C44.0021 52.2508 46.9581 55.2068 50.6045 55.2068C54.2508 55.2068 57.2068 52.2508 57.2068 48.6045C57.2068 44.9581 54.2508 42.0021 50.6045 42.0021ZM38 48.6045C38 41.6432 43.6432 36 50.6045 36C57.5657 36 63.2089 41.6432 63.2089 48.6045C63.2089 55.5657 57.5657 61.2089 50.6045 61.2089C43.6432 61.2089 38 55.5657 38 48.6045Z" fill="#418A30" fill-opacity="0.4"/>
<path id="Ellipse 115 (Stroke)_8" fill-rule="evenodd" clip-rule="evenodd" d="M50.6045 78.0021C46.9581 78.0021 44.0021 80.9581 44.0021 84.6045C44.0021 88.2508 46.9581 91.2068 50.6045 91.2068C54.2508 91.2068 57.2068 88.2508 57.2068 84.6045C57.2068 80.9581 54.2508 78.0021 50.6045 78.0021ZM38 84.6045C38 77.6432 43.6432 72 50.6045 72C57.5657 72 63.2089 77.6432 63.2089 84.6045C63.2089 91.5657 57.5657 97.2089 50.6045 97.2089C43.6432 97.2089 38 91.5657 38 84.6045Z" fill="#418A30" fill-opacity="0.4"/>
</g>
</svg>
