<svg width="153" height="177" viewBox="0 0 153 177" fill="none" xmlns="http://www.w3.org/2000/svg">
<g id="Group 18140689">
<g id="Group 18140688">
<path id="Ellipse 115 (Stroke)" fill-rule="evenodd" clip-rule="evenodd" d="M146.144 54.1427C147.863 54.1427 149.257 55.5365 149.257 57.2559C149.257 58.9752 147.863 60.3691 146.144 60.3691C144.424 60.3691 143.03 58.9752 143.03 57.2559C143.03 55.5365 144.424 54.1427 146.144 54.1427ZM152.087 57.2559C152.087 53.9734 149.426 51.3125 146.144 51.3125C142.861 51.3125 140.2 53.9734 140.2 57.2559C140.2 60.5383 142.861 63.1992 146.144 63.1992C149.426 63.1992 152.087 60.5383 152.087 57.2559Z" fill="#418A30" fill-opacity="0.3"/>
<path id="Ellipse 115 (Stroke)_2" fill-rule="evenodd" clip-rule="evenodd" d="M146.144 20.1896C147.863 20.1896 149.257 21.5834 149.257 23.3027C149.257 25.0221 147.863 26.4159 146.144 26.4159C144.424 26.4159 143.03 25.0221 143.03 23.3027C143.03 21.5834 144.424 20.1896 146.144 20.1896ZM152.087 23.3027C152.087 20.0203 149.426 17.3594 146.144 17.3594C142.861 17.3594 140.2 20.0203 140.2 23.3027C140.2 26.5852 142.861 29.2461 146.144 29.2461C149.426 29.2461 152.087 26.5852 152.087 23.3027Z" fill="#418A30" fill-opacity="0.3"/>
<path id="Ellipse 115 (Stroke)_3" fill-rule="evenodd" clip-rule="evenodd" d="M146.144 37.1661C147.863 37.1661 149.257 38.5599 149.257 40.2793C149.257 41.9987 147.863 43.3925 146.144 43.3925C144.424 43.3925 143.03 41.9987 143.03 40.2793C143.03 38.5599 144.424 37.1661 146.144 37.1661ZM152.087 40.2793C152.087 36.9969 149.426 34.3359 146.144 34.3359C142.861 34.3359 140.2 36.9969 140.2 40.2793C140.2 43.5617 142.861 46.2227 146.144 46.2227C149.426 46.2227 152.087 43.5617 152.087 40.2793Z" fill="#418A30" fill-opacity="0.3"/>
<path id="Ellipse 115 (Stroke)_4" fill-rule="evenodd" clip-rule="evenodd" d="M124.925 3.21299C126.644 3.21299 128.038 4.60681 128.038 6.32618C128.038 8.04555 126.644 9.43938 124.925 9.43938C123.205 9.43938 121.812 8.04555 121.812 6.32618C121.812 4.60681 123.205 3.21299 124.925 3.21299ZM130.868 6.32618C130.868 3.04375 128.207 0.382812 124.925 0.382812C121.642 0.382812 118.981 3.04375 118.981 6.32618C118.981 9.60862 121.642 12.2696 124.925 12.2696C128.207 12.2696 130.868 9.60862 130.868 6.32618Z" fill="#418A30" fill-opacity="0.3"/>
<path id="Ellipse 115 (Stroke)_5" fill-rule="evenodd" clip-rule="evenodd" d="M124.925 54.1427C126.644 54.1427 128.038 55.5365 128.038 57.2559C128.038 58.9752 126.644 60.3691 124.925 60.3691C123.205 60.3691 121.812 58.9752 121.812 57.2559C121.812 55.5365 123.205 54.1427 124.925 54.1427ZM130.868 57.2559C130.868 53.9734 128.207 51.3125 124.925 51.3125C121.642 51.3125 118.981 53.9734 118.981 57.2559C118.981 60.5383 121.642 63.1992 124.925 63.1992C128.207 63.1992 130.868 60.5383 130.868 57.2559Z" fill="#418A30" fill-opacity="0.3"/>
<path id="Ellipse 115 (Stroke)_6" fill-rule="evenodd" clip-rule="evenodd" d="M124.925 20.1896C126.644 20.1896 128.038 21.5834 128.038 23.3027C128.038 25.0221 126.644 26.4159 124.925 26.4159C123.205 26.4159 121.812 25.0221 121.812 23.3027C121.812 21.5834 123.205 20.1896 124.925 20.1896ZM130.868 23.3027C130.868 20.0203 128.207 17.3594 124.925 17.3594C121.642 17.3594 118.981 20.0203 118.981 23.3027C118.981 26.5852 121.642 29.2461 124.925 29.2461C128.207 29.2461 130.868 26.5852 130.868 23.3027Z" fill="#418A30" fill-opacity="0.3"/>
<path id="Ellipse 115 (Stroke)_7" fill-rule="evenodd" clip-rule="evenodd" d="M124.925 71.1192C126.644 71.1192 128.038 72.5131 128.038 74.2324C128.038 75.9518 126.644 77.3456 124.925 77.3456C123.205 77.3456 121.812 75.9518 121.812 74.2324C121.812 72.5131 123.205 71.1192 124.925 71.1192ZM130.868 74.2324C130.868 70.95 128.207 68.2891 124.925 68.2891C121.642 68.2891 118.981 70.95 118.981 74.2324C118.981 77.5149 121.642 80.1758 124.925 80.1758C128.207 80.1758 130.868 77.5149 130.868 74.2324Z" fill="#418A30" fill-opacity="0.3"/>
<path id="Ellipse 115 (Stroke)_8" fill-rule="evenodd" clip-rule="evenodd" d="M124.925 37.1661C126.644 37.1661 128.038 38.5599 128.038 40.2793C128.038 41.9987 126.644 43.3925 124.925 43.3925C123.205 43.3925 121.812 41.9987 121.812 40.2793C121.812 38.5599 123.205 37.1661 124.925 37.1661ZM130.868 40.2793C130.868 36.9969 128.207 34.3359 124.925 34.3359C121.642 34.3359 118.981 36.9969 118.981 40.2793C118.981 43.5617 121.642 46.2227 124.925 46.2227C128.207 46.2227 130.868 43.5617 130.868 40.2793Z" fill="#418A30" fill-opacity="0.3"/>
<path id="Ellipse 115 (Stroke)_9" fill-rule="evenodd" clip-rule="evenodd" d="M103.706 3.21299C105.425 3.21299 106.819 4.60681 106.819 6.32618C106.819 8.04555 105.425 9.43938 103.706 9.43938C101.987 9.43938 100.593 8.04555 100.593 6.32618C100.593 4.60681 101.987 3.21299 103.706 3.21299ZM109.649 6.32618C109.649 3.04375 106.988 0.382812 103.706 0.382812C100.424 0.382812 97.7627 3.04375 97.7627 6.32618C97.7627 9.60862 100.424 12.2696 103.706 12.2696C106.988 12.2696 109.649 9.60862 109.649 6.32618Z" fill="#418A30" fill-opacity="0.3"/>
<path id="Ellipse 115 (Stroke)_10" fill-rule="evenodd" clip-rule="evenodd" d="M103.706 54.1427C105.425 54.1427 106.819 55.5365 106.819 57.2559C106.819 58.9752 105.425 60.3691 103.706 60.3691C101.987 60.3691 100.593 58.9752 100.593 57.2559C100.593 55.5365 101.987 54.1427 103.706 54.1427ZM109.649 57.2559C109.649 53.9734 106.988 51.3125 103.706 51.3125C100.424 51.3125 97.7627 53.9734 97.7627 57.2559C97.7627 60.5383 100.424 63.1992 103.706 63.1992C106.988 63.1992 109.649 60.5383 109.649 57.2559Z" fill="#418A30" fill-opacity="0.3"/>
<path id="Ellipse 115 (Stroke)_11" fill-rule="evenodd" clip-rule="evenodd" d="M103.706 20.1896C105.425 20.1896 106.819 21.5834 106.819 23.3027C106.819 25.0221 105.425 26.4159 103.706 26.4159C101.987 26.4159 100.593 25.0221 100.593 23.3027C100.593 21.5834 101.987 20.1896 103.706 20.1896ZM109.649 23.3027C109.649 20.0203 106.988 17.3594 103.706 17.3594C100.424 17.3594 97.7627 20.0203 97.7627 23.3027C97.7627 26.5852 100.424 29.2461 103.706 29.2461C106.988 29.2461 109.649 26.5852 109.649 23.3027Z" fill="#418A30" fill-opacity="0.3"/>
<path id="Ellipse 115 (Stroke)_12" fill-rule="evenodd" clip-rule="evenodd" d="M103.706 71.1192C105.425 71.1192 106.819 72.5131 106.819 74.2324C106.819 75.9518 105.425 77.3456 103.706 77.3456C101.987 77.3456 100.593 75.9518 100.593 74.2324C100.593 72.5131 101.987 71.1192 103.706 71.1192ZM109.649 74.2324C109.649 70.95 106.988 68.2891 103.706 68.2891C100.424 68.2891 97.7627 70.95 97.7627 74.2324C97.7627 77.5149 100.424 80.1758 103.706 80.1758C106.988 80.1758 109.649 77.5149 109.649 74.2324Z" fill="#418A30" fill-opacity="0.3"/>
<path id="Ellipse 115 (Stroke)_13" fill-rule="evenodd" clip-rule="evenodd" d="M103.706 37.1661C105.425 37.1661 106.819 38.5599 106.819 40.2793C106.819 41.9987 105.425 43.3925 103.706 43.3925C101.987 43.3925 100.593 41.9987 100.593 40.2793C100.593 38.5599 101.987 37.1661 103.706 37.1661ZM109.649 40.2793C109.649 36.9969 106.988 34.3359 103.706 34.3359C100.424 34.3359 97.7627 36.9969 97.7627 40.2793C97.7627 43.5617 100.424 46.2227 103.706 46.2227C106.988 46.2227 109.649 43.5617 109.649 40.2793Z" fill="#418A30" fill-opacity="0.3"/>
<path id="Ellipse 115 (Stroke)_14" fill-rule="evenodd" clip-rule="evenodd" d="M82.4873 54.1427C84.2067 54.1427 85.6005 55.5365 85.6005 57.2559C85.6005 58.9752 84.2067 60.3691 82.4873 60.3691C80.7679 60.3691 79.3741 58.9752 79.3741 57.2559C79.3741 55.5365 80.7679 54.1427 82.4873 54.1427ZM88.4307 57.2559C88.4307 53.9734 85.7697 51.3125 82.4873 51.3125C79.2049 51.3125 76.5439 53.9734 76.5439 57.2559C76.5439 60.5383 79.2049 63.1992 82.4873 63.1992C85.7697 63.1992 88.4307 60.5383 88.4307 57.2559Z" fill="#418A30" fill-opacity="0.3"/>
<path id="Ellipse 115 (Stroke)_15" fill-rule="evenodd" clip-rule="evenodd" d="M82.4873 20.1896C84.2067 20.1896 85.6005 21.5834 85.6005 23.3027C85.6005 25.0221 84.2067 26.4159 82.4873 26.4159C80.7679 26.4159 79.3741 25.0221 79.3741 23.3027C79.3741 21.5834 80.7679 20.1896 82.4873 20.1896ZM88.4307 23.3027C88.4307 20.0203 85.7697 17.3594 82.4873 17.3594C79.2049 17.3594 76.5439 20.0203 76.5439 23.3027C76.5439 26.5852 79.2049 29.2461 82.4873 29.2461C85.7697 29.2461 88.4307 26.5852 88.4307 23.3027Z" fill="#418A30" fill-opacity="0.3"/>
<path id="Ellipse 115 (Stroke)_16" fill-rule="evenodd" clip-rule="evenodd" d="M82.4873 37.1661C84.2067 37.1661 85.6005 38.5599 85.6005 40.2793C85.6005 41.9987 84.2067 43.3925 82.4873 43.3925C80.7679 43.3925 79.3741 41.9987 79.3741 40.2793C79.3741 38.5599 80.7679 37.1661 82.4873 37.1661ZM88.4307 40.2793C88.4307 36.9969 85.7697 34.3359 82.4873 34.3359C79.2049 34.3359 76.5439 36.9969 76.5439 40.2793C76.5439 43.5617 79.2049 46.2227 82.4873 46.2227C85.7697 46.2227 88.4307 43.5617 88.4307 40.2793Z" fill="#418A30" fill-opacity="0.3"/>
</g>
<g id="Group 18140685">
<path id="Ellipse 115 (Stroke)_17" fill-rule="evenodd" clip-rule="evenodd" d="M53.6006 54.1427C55.3199 54.1427 56.7138 55.5365 56.7138 57.2559C56.7138 58.9752 55.3199 60.3691 53.6006 60.3691C51.8812 60.3691 50.4874 58.9752 50.4874 57.2559C50.4874 55.5365 51.8812 54.1427 53.6006 54.1427ZM59.5439 57.2559C59.5439 53.9734 56.883 51.3125 53.6006 51.3125C50.3181 51.3125 47.6572 53.9734 47.6572 57.2559C47.6572 60.5383 50.3181 63.1992 53.6006 63.1992C56.883 63.1992 59.5439 60.5383 59.5439 57.2559Z" fill="#418A30" fill-opacity="0.3"/>
<path id="Ellipse 115 (Stroke)_18" fill-rule="evenodd" clip-rule="evenodd" d="M53.6006 20.1896C55.3199 20.1896 56.7138 21.5834 56.7138 23.3027C56.7138 25.0221 55.3199 26.4159 53.6006 26.4159C51.8812 26.4159 50.4874 25.0221 50.4874 23.3027C50.4874 21.5834 51.8812 20.1896 53.6006 20.1896ZM59.5439 23.3027C59.5439 20.0203 56.883 17.3594 53.6006 17.3594C50.3181 17.3594 47.6572 20.0203 47.6572 23.3027C47.6572 26.5852 50.3181 29.2461 53.6006 29.2461C56.883 29.2461 59.5439 26.5852 59.5439 23.3027Z" fill="#418A30" fill-opacity="0.3"/>
<path id="Ellipse 115 (Stroke)_19" fill-rule="evenodd" clip-rule="evenodd" d="M53.6006 37.1661C55.3199 37.1661 56.7138 38.5599 56.7138 40.2793C56.7138 41.9987 55.3199 43.3925 53.6006 43.3925C51.8812 43.3925 50.4874 41.9987 50.4874 40.2793C50.4874 38.5599 51.8812 37.1661 53.6006 37.1661ZM59.5439 40.2793C59.5439 36.9969 56.883 34.3359 53.6006 34.3359C50.3181 34.3359 47.6572 36.9969 47.6572 40.2793C47.6572 43.5617 50.3181 46.2227 53.6006 46.2227C56.883 46.2227 59.5439 43.5617 59.5439 40.2793Z" fill="#418A30" fill-opacity="0.3"/>
<path id="Ellipse 115 (Stroke)_20" fill-rule="evenodd" clip-rule="evenodd" d="M32.3818 3.21299C34.1012 3.21299 35.495 4.60681 35.495 6.32618C35.495 8.04555 34.1012 9.43938 32.3818 9.43938C30.6625 9.43938 29.2686 8.04555 29.2686 6.32618C29.2686 4.60681 30.6625 3.21299 32.3818 3.21299ZM38.3252 6.32618C38.3252 3.04375 35.6643 0.382812 32.3818 0.382812C29.0994 0.382812 26.4385 3.04375 26.4385 6.32618C26.4385 9.60862 29.0994 12.2696 32.3818 12.2696C35.6643 12.2696 38.3252 9.60862 38.3252 6.32618Z" fill="#418A30" fill-opacity="0.3"/>
<path id="Ellipse 115 (Stroke)_21" fill-rule="evenodd" clip-rule="evenodd" d="M32.3818 54.1427C34.1012 54.1427 35.495 55.5365 35.495 57.2559C35.495 58.9752 34.1012 60.3691 32.3818 60.3691C30.6625 60.3691 29.2686 58.9752 29.2686 57.2559C29.2686 55.5365 30.6625 54.1427 32.3818 54.1427ZM38.3252 57.2559C38.3252 53.9734 35.6643 51.3125 32.3818 51.3125C29.0994 51.3125 26.4385 53.9734 26.4385 57.2559C26.4385 60.5383 29.0994 63.1992 32.3818 63.1992C35.6643 63.1992 38.3252 60.5383 38.3252 57.2559Z" fill="#418A30" fill-opacity="0.3"/>
<path id="Ellipse 115 (Stroke)_22" fill-rule="evenodd" clip-rule="evenodd" d="M32.3818 20.1896C34.1012 20.1896 35.495 21.5834 35.495 23.3027C35.495 25.0221 34.1012 26.4159 32.3818 26.4159C30.6625 26.4159 29.2686 25.0221 29.2686 23.3027C29.2686 21.5834 30.6625 20.1896 32.3818 20.1896ZM38.3252 23.3027C38.3252 20.0203 35.6643 17.3594 32.3818 17.3594C29.0994 17.3594 26.4385 20.0203 26.4385 23.3027C26.4385 26.5852 29.0994 29.2461 32.3818 29.2461C35.6643 29.2461 38.3252 26.5852 38.3252 23.3027Z" fill="#418A30" fill-opacity="0.3"/>
<path id="Ellipse 115 (Stroke)_23" fill-rule="evenodd" clip-rule="evenodd" d="M32.3818 71.1192C34.1012 71.1192 35.495 72.5131 35.495 74.2324C35.495 75.9518 34.1012 77.3456 32.3818 77.3456C30.6625 77.3456 29.2686 75.9518 29.2686 74.2324C29.2686 72.5131 30.6625 71.1192 32.3818 71.1192ZM38.3252 74.2324C38.3252 70.95 35.6643 68.2891 32.3818 68.2891C29.0994 68.2891 26.4385 70.95 26.4385 74.2324C26.4385 77.5149 29.0994 80.1758 32.3818 80.1758C35.6643 80.1758 38.3252 77.5149 38.3252 74.2324Z" fill="#418A30" fill-opacity="0.3"/>
<path id="Ellipse 115 (Stroke)_24" fill-rule="evenodd" clip-rule="evenodd" d="M32.3818 37.1661C34.1012 37.1661 35.495 38.5599 35.495 40.2793C35.495 41.9987 34.1012 43.3925 32.3818 43.3925C30.6625 43.3925 29.2686 41.9987 29.2686 40.2793C29.2686 38.5599 30.6625 37.1661 32.3818 37.1661ZM38.3252 40.2793C38.3252 36.9969 35.6643 34.3359 32.3818 34.3359C29.0994 34.3359 26.4385 36.9969 26.4385 40.2793C26.4385 43.5617 29.0994 46.2227 32.3818 46.2227C35.6643 46.2227 38.3252 43.5617 38.3252 40.2793Z" fill="#418A30" fill-opacity="0.3"/>
<path id="Ellipse 115 (Stroke)_25" fill-rule="evenodd" clip-rule="evenodd" d="M11.1631 3.21299C12.8824 3.21299 14.2763 4.60681 14.2763 6.32618C14.2763 8.04555 12.8824 9.43938 11.1631 9.43938C9.4437 9.43938 8.04988 8.04555 8.04988 6.32618C8.04988 4.60681 9.4437 3.21299 11.1631 3.21299ZM17.1064 6.32618C17.1064 3.04375 14.4455 0.382812 11.1631 0.382812C7.88064 0.382812 5.2197 3.04375 5.2197 6.32618C5.2197 9.60862 7.88064 12.2696 11.1631 12.2696C14.4455 12.2696 17.1064 9.60862 17.1064 6.32618Z" fill="#418A30" fill-opacity="0.3"/>
<path id="Ellipse 115 (Stroke)_26" fill-rule="evenodd" clip-rule="evenodd" d="M11.1631 54.1427C12.8824 54.1427 14.2763 55.5365 14.2763 57.2559C14.2763 58.9752 12.8824 60.3691 11.1631 60.3691C9.4437 60.3691 8.04988 58.9752 8.04988 57.2559C8.04988 55.5365 9.4437 54.1427 11.1631 54.1427ZM17.1064 57.2559C17.1064 53.9734 14.4455 51.3125 11.1631 51.3125C7.88064 51.3125 5.2197 53.9734 5.2197 57.2559C5.2197 60.5383 7.88064 63.1992 11.1631 63.1992C14.4455 63.1992 17.1064 60.5383 17.1064 57.2559Z" fill="#418A30" fill-opacity="0.3"/>
<path id="Ellipse 115 (Stroke)_27" fill-rule="evenodd" clip-rule="evenodd" d="M11.1631 20.1896C12.8824 20.1896 14.2763 21.5834 14.2763 23.3027C14.2763 25.0221 12.8824 26.4159 11.1631 26.4159C9.4437 26.4159 8.04988 25.0221 8.04988 23.3027C8.04988 21.5834 9.4437 20.1896 11.1631 20.1896ZM17.1064 23.3027C17.1064 20.0203 14.4455 17.3594 11.1631 17.3594C7.88064 17.3594 5.2197 20.0203 5.2197 23.3027C5.2197 26.5852 7.88064 29.2461 11.1631 29.2461C14.4455 29.2461 17.1064 26.5852 17.1064 23.3027Z" fill="#418A30" fill-opacity="0.3"/>
<path id="Ellipse 115 (Stroke)_28" fill-rule="evenodd" clip-rule="evenodd" d="M11.1631 71.1192C12.8824 71.1192 14.2763 72.5131 14.2763 74.2324C14.2763 75.9518 12.8824 77.3456 11.1631 77.3456C9.4437 77.3456 8.04988 75.9518 8.04988 74.2324C8.04988 72.5131 9.4437 71.1192 11.1631 71.1192ZM17.1064 74.2324C17.1064 70.95 14.4455 68.2891 11.1631 68.2891C7.88064 68.2891 5.2197 70.95 5.2197 74.2324C5.2197 77.5149 7.88064 80.1758 11.1631 80.1758C14.4455 80.1758 17.1064 77.5149 17.1064 74.2324Z" fill="#418A30" fill-opacity="0.3"/>
<path id="Ellipse 115 (Stroke)_29" fill-rule="evenodd" clip-rule="evenodd" d="M11.1631 37.1661C12.8824 37.1661 14.2763 38.5599 14.2763 40.2793C14.2763 41.9987 12.8824 43.3925 11.1631 43.3925C9.4437 43.3925 8.04988 41.9987 8.04988 40.2793C8.04988 38.5599 9.4437 37.1661 11.1631 37.1661ZM17.1064 40.2793C17.1064 36.9969 14.4455 34.3359 11.1631 34.3359C7.88064 34.3359 5.2197 36.9969 5.2197 40.2793C5.2197 43.5617 7.88064 46.2227 11.1631 46.2227C14.4455 46.2227 17.1064 43.5617 17.1064 40.2793Z" fill="#418A30" fill-opacity="0.3"/>
</g>
<g id="Group 18140687">
<path id="Ellipse 115 (Stroke)_30" fill-rule="evenodd" clip-rule="evenodd" d="M53.6006 150.94C55.3199 150.94 56.7138 152.333 56.7138 154.053C56.7138 155.772 55.3199 157.166 53.6006 157.166C51.8812 157.166 50.4874 155.772 50.4874 154.053C50.4874 152.333 51.8812 150.94 53.6006 150.94ZM59.5439 154.053C59.5439 150.77 56.883 148.109 53.6006 148.109C50.3181 148.109 47.6572 150.77 47.6572 154.053C47.6572 157.335 50.3181 159.996 53.6006 159.996C56.883 159.996 59.5439 157.335 59.5439 154.053Z" fill="#418A30" fill-opacity="0.3"/>
<path id="Ellipse 115 (Stroke)_31" fill-rule="evenodd" clip-rule="evenodd" d="M53.6006 116.986C55.3199 116.986 56.7138 118.38 56.7138 120.1C56.7138 121.819 55.3199 123.213 53.6006 123.213C51.8812 123.213 50.4874 121.819 50.4874 120.1C50.4874 118.38 51.8812 116.986 53.6006 116.986ZM59.5439 120.1C59.5439 116.817 56.883 114.156 53.6006 114.156C50.3181 114.156 47.6572 116.817 47.6572 120.1C47.6572 123.382 50.3181 126.043 53.6006 126.043C56.883 126.043 59.5439 123.382 59.5439 120.1Z" fill="#418A30" fill-opacity="0.3"/>
<path id="Ellipse 115 (Stroke)_32" fill-rule="evenodd" clip-rule="evenodd" d="M53.6006 133.963C55.3199 133.963 56.7138 135.357 56.7138 137.076C56.7138 138.796 55.3199 140.189 53.6006 140.189C51.8812 140.189 50.4874 138.796 50.4874 137.076C50.4874 135.357 51.8812 133.963 53.6006 133.963ZM59.5439 137.076C59.5439 133.794 56.883 131.133 53.6006 131.133C50.3181 131.133 47.6572 133.794 47.6572 137.076C47.6572 140.359 50.3181 143.02 53.6006 143.02C56.883 143.02 59.5439 140.359 59.5439 137.076Z" fill="#418A30" fill-opacity="0.3"/>
<path id="Ellipse 115 (Stroke)_33" fill-rule="evenodd" clip-rule="evenodd" d="M32.3818 100.01C34.1012 100.01 35.495 101.404 35.495 103.123C35.495 104.842 34.1012 106.236 32.3818 106.236C30.6625 106.236 29.2686 104.842 29.2686 103.123C29.2686 101.404 30.6625 100.01 32.3818 100.01ZM38.3252 103.123C38.3252 99.8406 35.6643 97.1797 32.3818 97.1797C29.0994 97.1797 26.4385 99.8406 26.4385 103.123C26.4385 106.405 29.0994 109.066 32.3818 109.066C35.6643 109.066 38.3252 106.405 38.3252 103.123Z" fill="#418A30" fill-opacity="0.3"/>
<path id="Ellipse 115 (Stroke)_34" fill-rule="evenodd" clip-rule="evenodd" d="M32.3818 150.94C34.1012 150.94 35.495 152.333 35.495 154.053C35.495 155.772 34.1012 157.166 32.3818 157.166C30.6625 157.166 29.2686 155.772 29.2686 154.053C29.2686 152.333 30.6625 150.94 32.3818 150.94ZM38.3252 154.053C38.3252 150.77 35.6643 148.109 32.3818 148.109C29.0994 148.109 26.4385 150.77 26.4385 154.053C26.4385 157.335 29.0994 159.996 32.3818 159.996C35.6643 159.996 38.3252 157.335 38.3252 154.053Z" fill="#418A30" fill-opacity="0.3"/>
<path id="Ellipse 115 (Stroke)_35" fill-rule="evenodd" clip-rule="evenodd" d="M32.3818 116.986C34.1012 116.986 35.495 118.38 35.495 120.1C35.495 121.819 34.1012 123.213 32.3818 123.213C30.6625 123.213 29.2686 121.819 29.2686 120.1C29.2686 118.38 30.6625 116.986 32.3818 116.986ZM38.3252 120.1C38.3252 116.817 35.6643 114.156 32.3818 114.156C29.0994 114.156 26.4385 116.817 26.4385 120.1C26.4385 123.382 29.0994 126.043 32.3818 126.043C35.6643 126.043 38.3252 123.382 38.3252 120.1Z" fill="#418A30" fill-opacity="0.3"/>
<path id="Ellipse 115 (Stroke)_36" fill-rule="evenodd" clip-rule="evenodd" d="M32.3818 167.916C34.1012 167.916 35.495 169.31 35.495 171.029C35.495 172.749 34.1012 174.143 32.3818 174.143C30.6625 174.143 29.2686 172.749 29.2686 171.029C29.2686 169.31 30.6625 167.916 32.3818 167.916ZM38.3252 171.029C38.3252 167.747 35.6643 165.086 32.3818 165.086C29.0994 165.086 26.4385 167.747 26.4385 171.029C26.4385 174.312 29.0994 176.973 32.3818 176.973C35.6643 176.973 38.3252 174.312 38.3252 171.029Z" fill="#418A30" fill-opacity="0.3"/>
<path id="Ellipse 115 (Stroke)_37" fill-rule="evenodd" clip-rule="evenodd" d="M32.3818 133.963C34.1012 133.963 35.495 135.357 35.495 137.076C35.495 138.796 34.1012 140.189 32.3818 140.189C30.6625 140.189 29.2686 138.796 29.2686 137.076C29.2686 135.357 30.6625 133.963 32.3818 133.963ZM38.3252 137.076C38.3252 133.794 35.6643 131.133 32.3818 131.133C29.0994 131.133 26.4385 133.794 26.4385 137.076C26.4385 140.359 29.0994 143.02 32.3818 143.02C35.6643 143.02 38.3252 140.359 38.3252 137.076Z" fill="#418A30" fill-opacity="0.3"/>
<path id="Ellipse 115 (Stroke)_38" fill-rule="evenodd" clip-rule="evenodd" d="M11.1631 100.01C12.8824 100.01 14.2763 101.404 14.2763 103.123C14.2763 104.842 12.8824 106.236 11.1631 106.236C9.4437 106.236 8.04988 104.842 8.04988 103.123C8.04988 101.404 9.4437 100.01 11.1631 100.01ZM17.1064 103.123C17.1064 99.8406 14.4455 97.1797 11.1631 97.1797C7.88064 97.1797 5.2197 99.8406 5.2197 103.123C5.2197 106.405 7.88064 109.066 11.1631 109.066C14.4455 109.066 17.1064 106.405 17.1064 103.123Z" fill="#418A30" fill-opacity="0.3"/>
<path id="Ellipse 115 (Stroke)_39" fill-rule="evenodd" clip-rule="evenodd" d="M11.1631 150.94C12.8824 150.94 14.2763 152.333 14.2763 154.053C14.2763 155.772 12.8824 157.166 11.1631 157.166C9.4437 157.166 8.04988 155.772 8.04988 154.053C8.04988 152.333 9.4437 150.94 11.1631 150.94ZM17.1064 154.053C17.1064 150.77 14.4455 148.109 11.1631 148.109C7.88064 148.109 5.2197 150.77 5.2197 154.053C5.2197 157.335 7.88064 159.996 11.1631 159.996C14.4455 159.996 17.1064 157.335 17.1064 154.053Z" fill="#418A30" fill-opacity="0.3"/>
<path id="Ellipse 115 (Stroke)_40" fill-rule="evenodd" clip-rule="evenodd" d="M11.1631 116.986C12.8824 116.986 14.2763 118.38 14.2763 120.1C14.2763 121.819 12.8824 123.213 11.1631 123.213C9.4437 123.213 8.04988 121.819 8.04988 120.1C8.04988 118.38 9.4437 116.986 11.1631 116.986ZM17.1064 120.1C17.1064 116.817 14.4455 114.156 11.1631 114.156C7.88064 114.156 5.2197 116.817 5.2197 120.1C5.2197 123.382 7.88064 126.043 11.1631 126.043C14.4455 126.043 17.1064 123.382 17.1064 120.1Z" fill="#418A30" fill-opacity="0.3"/>
<path id="Ellipse 115 (Stroke)_41" fill-rule="evenodd" clip-rule="evenodd" d="M11.1631 167.916C12.8824 167.916 14.2763 169.31 14.2763 171.029C14.2763 172.749 12.8824 174.143 11.1631 174.143C9.4437 174.143 8.04988 172.749 8.04988 171.029C8.04988 169.31 9.4437 167.916 11.1631 167.916ZM17.1064 171.029C17.1064 167.747 14.4455 165.086 11.1631 165.086C7.88064 165.086 5.2197 167.747 5.2197 171.029C5.2197 174.312 7.88064 176.973 11.1631 176.973C14.4455 176.973 17.1064 174.312 17.1064 171.029Z" fill="#418A30" fill-opacity="0.3"/>
<path id="Ellipse 115 (Stroke)_42" fill-rule="evenodd" clip-rule="evenodd" d="M11.1631 133.963C12.8824 133.963 14.2763 135.357 14.2763 137.076C14.2763 138.796 12.8824 140.189 11.1631 140.189C9.4437 140.189 8.04988 138.796 8.04988 137.076C8.04988 135.357 9.4437 133.963 11.1631 133.963ZM17.1064 137.076C17.1064 133.794 14.4455 131.133 11.1631 131.133C7.88064 131.133 5.2197 133.794 5.2197 137.076C5.2197 140.359 7.88064 143.02 11.1631 143.02C14.4455 143.02 17.1064 140.359 17.1064 137.076Z" fill="#418A30" fill-opacity="0.3"/>
</g>
</g>
</svg>
