<svg width="48" height="178" viewBox="0 0 48 178" fill="none" xmlns="http://www.w3.org/2000/svg">
<path fill-rule="evenodd" clip-rule="evenodd" d="M5.94337 174.623C4.224 174.623 2.83018 173.229 2.83018 171.51C2.83018 169.79 4.224 168.397 5.94337 168.397C7.66274 168.397 9.05657 169.79 9.05657 171.51C9.05657 173.229 7.66274 174.623 5.94337 174.623ZM0 171.51C0 174.792 2.66094 177.453 5.94337 177.453C9.22581 177.453 11.8867 174.792 11.8867 171.51C11.8867 168.227 9.22581 165.566 5.94337 165.566C2.66094 165.566 0 168.227 0 171.51Z" fill="#D5E8C8"/>
<path fill-rule="evenodd" clip-rule="evenodd" d="M5.94337 123.696C4.224 123.696 2.83018 122.302 2.83018 120.583C2.83018 118.864 4.224 117.47 5.94337 117.47C7.66274 117.47 9.05657 118.864 9.05657 120.583C9.05657 122.302 7.66274 123.696 5.94337 123.696ZM0 120.583C0 123.865 2.66094 126.526 5.94337 126.526C9.22581 126.526 11.8867 123.865 11.8867 120.583C11.8867 117.3 9.22581 114.64 5.94337 114.64C2.66094 114.64 0 117.3 0 120.583Z" fill="#D5E8C8"/>
<path fill-rule="evenodd" clip-rule="evenodd" d="M5.94337 157.647C4.224 157.647 2.83018 156.254 2.83018 154.534C2.83018 152.815 4.224 151.421 5.94337 151.421C7.66274 151.421 9.05657 152.815 9.05657 154.534C9.05657 156.254 7.66274 157.647 5.94337 157.647ZM0 154.534C0 157.817 2.66094 160.478 5.94337 160.478C9.22581 160.478 11.8867 157.817 11.8867 154.534C11.8867 151.252 9.22581 148.591 5.94337 148.591C2.66094 148.591 0 151.252 0 154.534Z" fill="#D5E8C8"/>
<path fill-rule="evenodd" clip-rule="evenodd" d="M5.94337 106.72C4.224 106.72 2.83018 105.327 2.83018 103.607C2.83018 101.888 4.224 100.494 5.94337 100.494C7.66274 100.494 9.05657 101.888 9.05657 103.607C9.05657 105.327 7.66274 106.72 5.94337 106.72ZM0 103.607C0 106.89 2.66094 109.551 5.94337 109.551C9.22581 109.551 11.8867 106.89 11.8867 103.607C11.8867 100.325 9.22581 97.6639 5.94337 97.6639C2.66094 97.6639 0 100.325 0 103.607Z" fill="#D5E8C8"/>
<path fill-rule="evenodd" clip-rule="evenodd" d="M5.94337 140.672C4.224 140.672 2.83018 139.278 2.83018 137.559C2.83018 135.839 4.224 134.445 5.94337 134.445C7.66274 134.445 9.05657 135.839 9.05657 137.559C9.05657 139.278 7.66274 140.672 5.94337 140.672ZM0 137.559C0 140.841 2.66094 143.502 5.94337 143.502C9.22581 143.502 11.8867 140.841 11.8867 137.559C11.8867 134.276 9.22581 131.615 5.94337 131.615C2.66094 131.615 0 134.276 0 137.559Z" fill="#D5E8C8"/>
<path fill-rule="evenodd" clip-rule="evenodd" d="M27.1621 174.623C25.4428 174.623 24.0489 173.229 24.0489 171.51C24.0489 169.79 25.4428 168.397 27.1621 168.397C28.8815 168.397 30.2753 169.79 30.2753 171.51C30.2753 173.229 28.8815 174.623 27.1621 174.623ZM21.2188 171.51C21.2188 174.792 23.8797 177.453 27.1621 177.453C30.4446 177.453 33.1055 174.792 33.1055 171.51C33.1055 168.227 30.4446 165.566 27.1621 165.566C23.8797 165.566 21.2188 168.227 21.2188 171.51Z" fill="#D5E8C8"/>
<path fill-rule="evenodd" clip-rule="evenodd" d="M27.1621 123.696C25.4428 123.696 24.0489 122.302 24.0489 120.583C24.0489 118.864 25.4428 117.47 27.1621 117.47C28.8815 117.47 30.2753 118.864 30.2753 120.583C30.2753 122.302 28.8815 123.696 27.1621 123.696ZM21.2188 120.583C21.2188 123.865 23.8797 126.526 27.1621 126.526C30.4446 126.526 33.1055 123.865 33.1055 120.583C33.1055 117.3 30.4446 114.64 27.1621 114.64C23.8797 114.64 21.2188 117.3 21.2188 120.583Z" fill="#D5E8C8"/>
<path fill-rule="evenodd" clip-rule="evenodd" d="M27.1621 157.647C25.4428 157.647 24.0489 156.254 24.0489 154.534C24.0489 152.815 25.4428 151.421 27.1621 151.421C28.8815 151.421 30.2753 152.815 30.2753 154.534C30.2753 156.254 28.8815 157.647 27.1621 157.647ZM21.2188 154.534C21.2188 157.817 23.8797 160.478 27.1621 160.478C30.4446 160.478 33.1055 157.817 33.1055 154.534C33.1055 151.252 30.4446 148.591 27.1621 148.591C23.8797 148.591 21.2188 151.252 21.2188 154.534Z" fill="#D5E8C8"/>
<path fill-rule="evenodd" clip-rule="evenodd" d="M27.1621 106.72C25.4428 106.72 24.0489 105.327 24.0489 103.607C24.0489 101.888 25.4428 100.494 27.1621 100.494C28.8815 100.494 30.2753 101.888 30.2753 103.607C30.2753 105.327 28.8815 106.72 27.1621 106.72ZM21.2188 103.607C21.2188 106.89 23.8797 109.551 27.1621 109.551C30.4446 109.551 33.1055 106.89 33.1055 103.607C33.1055 100.325 30.4446 97.6639 27.1621 97.6639C23.8797 97.6639 21.2188 100.325 21.2188 103.607Z" fill="#D5E8C8"/>
<path fill-rule="evenodd" clip-rule="evenodd" d="M27.1621 140.672C25.4428 140.672 24.0489 139.278 24.0489 137.559C24.0489 135.839 25.4428 134.445 27.1621 134.445C28.8815 134.445 30.2753 135.839 30.2753 137.559C30.2753 139.278 28.8815 140.672 27.1621 140.672ZM21.2188 137.559C21.2188 140.841 23.8797 143.502 27.1621 143.502C30.4446 143.502 33.1055 140.841 33.1055 137.559C33.1055 134.276 30.4446 131.615 27.1621 131.615C23.8797 131.615 21.2188 134.276 21.2188 137.559Z" fill="#D5E8C8"/>
<path fill-rule="evenodd" clip-rule="evenodd" d="M48.3809 174.623C46.6615 174.623 45.2677 173.229 45.2677 171.51C45.2677 169.79 46.6615 168.397 48.3809 168.397C50.1002 168.397 51.4941 169.79 51.4941 171.51C51.4941 173.229 50.1002 174.623 48.3809 174.623ZM42.4375 171.51C42.4375 174.792 45.0984 177.453 48.3809 177.453C51.6633 177.453 54.3242 174.792 54.3242 171.51C54.3242 168.227 51.6633 165.566 48.3809 165.566C45.0984 165.566 42.4375 168.227 42.4375 171.51Z" fill="#D5E8C8"/>
<path fill-rule="evenodd" clip-rule="evenodd" d="M48.3809 123.696C46.6615 123.696 45.2677 122.302 45.2677 120.583C45.2677 118.864 46.6615 117.47 48.3809 117.47C50.1002 117.47 51.4941 118.864 51.4941 120.583C51.4941 122.302 50.1002 123.696 48.3809 123.696ZM42.4375 120.583C42.4375 123.865 45.0984 126.526 48.3809 126.526C51.6633 126.526 54.3242 123.865 54.3242 120.583C54.3242 117.3 51.6633 114.64 48.3809 114.64C45.0984 114.64 42.4375 117.3 42.4375 120.583Z" fill="#D5E8C8"/>
<path fill-rule="evenodd" clip-rule="evenodd" d="M48.3809 157.647C46.6615 157.647 45.2677 156.254 45.2677 154.534C45.2677 152.815 46.6615 151.421 48.3809 151.421C50.1002 151.421 51.4941 152.815 51.4941 154.534C51.4941 156.254 50.1002 157.647 48.3809 157.647ZM42.4375 154.534C42.4375 157.817 45.0984 160.478 48.3809 160.478C51.6633 160.478 54.3242 157.817 54.3242 154.534C54.3242 151.252 51.6633 148.591 48.3809 148.591C45.0984 148.591 42.4375 151.252 42.4375 154.534Z" fill="#D5E8C8"/>
<path fill-rule="evenodd" clip-rule="evenodd" d="M48.3809 106.72C46.6615 106.72 45.2677 105.327 45.2677 103.607C45.2677 101.888 46.6615 100.494 48.3809 100.494C50.1002 100.494 51.4941 101.888 51.4941 103.607C51.4941 105.327 50.1002 106.72 48.3809 106.72ZM42.4375 103.607C42.4375 106.89 45.0984 109.551 48.3809 109.551C51.6633 109.551 54.3242 106.89 54.3242 103.607C54.3242 100.325 51.6633 97.6639 48.3809 97.6639C45.0984 97.6639 42.4375 100.325 42.4375 103.607Z" fill="#D5E8C8"/>
<path fill-rule="evenodd" clip-rule="evenodd" d="M48.3809 140.672C46.6615 140.672 45.2677 139.278 45.2677 137.559C45.2677 135.839 46.6615 134.445 48.3809 134.445C50.1002 134.445 51.4941 135.839 51.4941 137.559C51.4941 139.278 50.1002 140.672 48.3809 140.672ZM42.4375 137.559C42.4375 140.841 45.0984 143.502 48.3809 143.502C51.6633 143.502 54.3242 140.841 54.3242 137.559C54.3242 134.276 51.6633 131.615 48.3809 131.615C45.0984 131.615 42.4375 134.276 42.4375 137.559Z" fill="#D5E8C8"/>
<path fill-rule="evenodd" clip-rule="evenodd" d="M5.94337 77.9578C4.224 77.9578 2.83018 76.564 2.83018 74.8446C2.83018 73.1253 4.224 71.7315 5.94337 71.7315C7.66274 71.7315 9.05657 73.1253 9.05657 74.8446C9.05657 76.564 7.66274 77.9578 5.94337 77.9578ZM0 74.8446C0 78.1271 2.66094 80.788 5.94337 80.788C9.22581 80.788 11.8867 78.1271 11.8867 74.8446C11.8867 71.5622 9.22581 68.9013 5.94337 68.9013C2.66094 68.9013 0 71.5622 0 74.8446Z" fill="#A7D18F" fill-opacity="0.7"/>
<path fill-rule="evenodd" clip-rule="evenodd" d="M5.94337 27.0308C4.224 27.0308 2.83018 25.637 2.83018 23.9176C2.83018 22.1982 4.224 20.8044 5.94337 20.8044C7.66274 20.8044 9.05657 22.1982 9.05657 23.9176C9.05657 25.637 7.66274 27.0308 5.94337 27.0308ZM0 23.9176C0 27.2 2.66094 29.861 5.94337 29.861C9.22581 29.861 11.8867 27.2 11.8867 23.9176C11.8867 20.6352 9.22581 17.9742 5.94337 17.9742C2.66094 17.9742 0 20.6352 0 23.9176Z" fill="#A7D18F" fill-opacity="0.7"/>
<path fill-rule="evenodd" clip-rule="evenodd" d="M5.94337 60.982C4.224 60.982 2.83018 59.5882 2.83018 57.8688C2.83018 56.1494 4.224 54.7556 5.94337 54.7556C7.66274 54.7556 9.05657 56.1494 9.05657 57.8688C9.05657 59.5882 7.66274 60.982 5.94337 60.982ZM0 57.8688C0 61.1512 2.66094 63.8122 5.94337 63.8122C9.22581 63.8122 11.8867 61.1512 11.8867 57.8688C11.8867 54.5864 9.22581 51.9254 5.94337 51.9254C2.66094 51.9254 0 54.5864 0 57.8688Z" fill="#A7D18F" fill-opacity="0.7"/>
<path fill-rule="evenodd" clip-rule="evenodd" d="M5.94337 10.0552C4.224 10.0552 2.83018 8.66134 2.83018 6.94197C2.83018 5.2226 4.224 3.82878 5.94337 3.82878C7.66274 3.82878 9.05657 5.2226 9.05657 6.94197C9.05657 8.66134 7.66274 10.0552 5.94337 10.0552ZM0 6.94197C0 10.2244 2.66094 12.8853 5.94337 12.8853C9.22581 12.8853 11.8867 10.2244 11.8867 6.94197C11.8867 3.65954 9.22581 0.998602 5.94337 0.998602C2.66094 0.998602 0 3.65954 0 6.94197Z" fill="#A7D18F" fill-opacity="0.7"/>
<path fill-rule="evenodd" clip-rule="evenodd" d="M5.94337 44.0064C4.224 44.0064 2.83018 42.6126 2.83018 40.8932C2.83018 39.1738 4.224 37.78 5.94337 37.78C7.66274 37.78 9.05657 39.1738 9.05657 40.8932C9.05657 42.6126 7.66274 44.0064 5.94337 44.0064ZM0 40.8932C0 44.1756 2.66094 46.8366 5.94337 46.8366C9.22581 46.8366 11.8867 44.1756 11.8867 40.8932C11.8867 37.6108 9.22581 34.9498 5.94337 34.9498C2.66094 34.9498 0 37.6108 0 40.8932Z" fill="#A7D18F" fill-opacity="0.7"/>
<path fill-rule="evenodd" clip-rule="evenodd" d="M27.1621 77.9576C25.4428 77.9576 24.0489 76.5638 24.0489 74.8444C24.0489 73.1251 25.4428 71.7312 27.1621 71.7312C28.8815 71.7312 30.2753 73.1251 30.2753 74.8444C30.2753 76.5638 28.8815 77.9576 27.1621 77.9576ZM21.2188 74.8444C21.2188 78.1269 23.8797 80.7878 27.1621 80.7878C30.4446 80.7878 33.1055 78.1269 33.1055 74.8444C33.1055 71.562 30.4446 68.9011 27.1621 68.9011C23.8797 68.9011 21.2188 71.562 21.2188 74.8444Z" fill="#A7D18F" fill-opacity="0.7"/>
<path fill-rule="evenodd" clip-rule="evenodd" d="M27.1621 27.0308C25.4428 27.0308 24.0489 25.637 24.0489 23.9176C24.0489 22.1982 25.4428 20.8044 27.1621 20.8044C28.8815 20.8044 30.2753 22.1982 30.2753 23.9176C30.2753 25.637 28.8815 27.0308 27.1621 27.0308ZM21.2188 23.9176C21.2188 27.2 23.8797 29.861 27.1621 29.861C30.4446 29.861 33.1055 27.2 33.1055 23.9176C33.1055 20.6352 30.4446 17.9742 27.1621 17.9742C23.8797 17.9742 21.2188 20.6352 21.2188 23.9176Z" fill="#A7D18F" fill-opacity="0.7"/>
<path fill-rule="evenodd" clip-rule="evenodd" d="M27.1621 60.982C25.4428 60.982 24.0489 59.5882 24.0489 57.8688C24.0489 56.1494 25.4428 54.7556 27.1621 54.7556C28.8815 54.7556 30.2753 56.1494 30.2753 57.8688C30.2753 59.5882 28.8815 60.982 27.1621 60.982ZM21.2188 57.8688C21.2188 61.1512 23.8797 63.8122 27.1621 63.8122C30.4446 63.8122 33.1055 61.1512 33.1055 57.8688C33.1055 54.5864 30.4446 51.9254 27.1621 51.9254C23.8797 51.9254 21.2188 54.5864 21.2188 57.8688Z" fill="#A7D18F" fill-opacity="0.7"/>
<path fill-rule="evenodd" clip-rule="evenodd" d="M27.1621 10.0552C25.4428 10.0552 24.0489 8.66134 24.0489 6.94197C24.0489 5.2226 25.4428 3.82878 27.1621 3.82878C28.8815 3.82878 30.2753 5.2226 30.2753 6.94197C30.2753 8.66134 28.8815 10.0552 27.1621 10.0552ZM21.2188 6.94197C21.2188 10.2244 23.8797 12.8853 27.1621 12.8853C30.4446 12.8853 33.1055 10.2244 33.1055 6.94197C33.1055 3.65954 30.4446 0.998602 27.1621 0.998602C23.8797 0.998602 21.2188 3.65954 21.2188 6.94197Z" fill="#A7D18F" fill-opacity="0.7"/>
<path fill-rule="evenodd" clip-rule="evenodd" d="M27.1621 44.0064C25.4428 44.0064 24.0489 42.6126 24.0489 40.8932C24.0489 39.1738 25.4428 37.78 27.1621 37.78C28.8815 37.78 30.2753 39.1738 30.2753 40.8932C30.2753 42.6126 28.8815 44.0064 27.1621 44.0064ZM21.2188 40.8932C21.2188 44.1756 23.8797 46.8366 27.1621 46.8366C30.4446 46.8366 33.1055 44.1756 33.1055 40.8932C33.1055 37.6108 30.4446 34.9498 27.1621 34.9498C23.8797 34.9498 21.2188 37.6108 21.2188 40.8932Z" fill="#A7D18F" fill-opacity="0.7"/>
<path fill-rule="evenodd" clip-rule="evenodd" d="M48.3809 77.9576C46.6615 77.9576 45.2677 76.5638 45.2677 74.8444C45.2677 73.1251 46.6615 71.7312 48.3809 71.7312C50.1002 71.7312 51.4941 73.1251 51.4941 74.8444C51.4941 76.5638 50.1002 77.9576 48.3809 77.9576ZM42.4375 74.8444C42.4375 78.1269 45.0984 80.7878 48.3809 80.7878C51.6633 80.7878 54.3242 78.1269 54.3242 74.8444C54.3242 71.562 51.6633 68.9011 48.3809 68.9011C45.0984 68.9011 42.4375 71.562 42.4375 74.8444Z" fill="#A7D18F" fill-opacity="0.7"/>
<path fill-rule="evenodd" clip-rule="evenodd" d="M48.3809 27.0308C46.6615 27.0308 45.2677 25.637 45.2677 23.9176C45.2677 22.1982 46.6615 20.8044 48.3809 20.8044C50.1002 20.8044 51.4941 22.1982 51.4941 23.9176C51.4941 25.637 50.1002 27.0308 48.3809 27.0308ZM42.4375 23.9176C42.4375 27.2 45.0984 29.861 48.3809 29.861C51.6633 29.861 54.3242 27.2 54.3242 23.9176C54.3242 20.6352 51.6633 17.9742 48.3809 17.9742C45.0984 17.9742 42.4375 20.6352 42.4375 23.9176Z" fill="#A7D18F" fill-opacity="0.7"/>
<path fill-rule="evenodd" clip-rule="evenodd" d="M48.3809 60.982C46.6615 60.982 45.2677 59.5882 45.2677 57.8688C45.2677 56.1494 46.6615 54.7556 48.3809 54.7556C50.1002 54.7556 51.4941 56.1494 51.4941 57.8688C51.4941 59.5882 50.1002 60.982 48.3809 60.982ZM42.4375 57.8688C42.4375 61.1512 45.0984 63.8122 48.3809 63.8122C51.6633 63.8122 54.3242 61.1512 54.3242 57.8688C54.3242 54.5864 51.6633 51.9254 48.3809 51.9254C45.0984 51.9254 42.4375 54.5864 42.4375 57.8688Z" fill="#A7D18F" fill-opacity="0.7"/>
<path fill-rule="evenodd" clip-rule="evenodd" d="M48.3809 10.0552C46.6615 10.0552 45.2677 8.66134 45.2677 6.94197C45.2677 5.2226 46.6615 3.82878 48.3809 3.82878C50.1002 3.82878 51.4941 5.2226 51.4941 6.94197C51.4941 8.66134 50.1002 10.0552 48.3809 10.0552ZM42.4375 6.94197C42.4375 10.2244 45.0984 12.8853 48.3809 12.8853C51.6633 12.8853 54.3242 10.2244 54.3242 6.94197C54.3242 3.65954 51.6633 0.998602 48.3809 0.998602C45.0984 0.998602 42.4375 3.65954 42.4375 6.94197Z" fill="#A7D18F" fill-opacity="0.7"/>
<path fill-rule="evenodd" clip-rule="evenodd" d="M48.3809 44.0064C46.6615 44.0064 45.2677 42.6126 45.2677 40.8932C45.2677 39.1738 46.6615 37.78 48.3809 37.78C50.1002 37.78 51.4941 39.1738 51.4941 40.8932C51.4941 42.6126 50.1002 44.0064 48.3809 44.0064ZM42.4375 40.8932C42.4375 44.1756 45.0984 46.8366 48.3809 46.8366C51.6633 46.8366 54.3242 44.1756 54.3242 40.8932C54.3242 37.6108 51.6633 34.9498 48.3809 34.9498C45.0984 34.9498 42.4375 37.6108 42.4375 40.8932Z" fill="#A7D18F" fill-opacity="0.7"/>
</svg>
