<svg width="135" height="177" viewBox="0 0 135 177" fill="none" xmlns="http://www.w3.org/2000/svg">
<g id="Group 18140689">
<g id="Group 18140688">
<path id="Ellipse 115 (Stroke)" fill-rule="evenodd" clip-rule="evenodd" d="M128.143 53.7599C129.862 53.7599 131.256 55.1537 131.256 56.8731C131.256 58.5924 129.862 59.9863 128.143 59.9863C126.423 59.9863 125.029 58.5924 125.029 56.8731C125.029 55.1537 126.423 53.7599 128.143 53.7599ZM134.086 56.8731C134.086 53.5906 131.425 50.9297 128.143 50.9297C124.86 50.9297 122.199 53.5906 122.199 56.8731C122.199 60.1555 124.86 62.8164 128.143 62.8164C131.425 62.8164 134.086 60.1555 134.086 56.8731Z" fill="#418A30" fill-opacity="0.3"/>
<path id="Ellipse 115 (Stroke)_2" fill-rule="evenodd" clip-rule="evenodd" d="M128.143 19.8067C129.862 19.8067 131.256 21.2006 131.256 22.9199C131.256 24.6393 129.862 26.0331 128.143 26.0331C126.423 26.0331 125.029 24.6393 125.029 22.9199C125.029 21.2006 126.423 19.8067 128.143 19.8067ZM134.086 22.9199C134.086 19.6375 131.425 16.9766 128.143 16.9766C124.86 16.9766 122.199 19.6375 122.199 22.9199C122.199 26.2024 124.86 28.8633 128.143 28.8633C131.425 28.8633 134.086 26.2024 134.086 22.9199Z" fill="#418A30" fill-opacity="0.3"/>
<path id="Ellipse 115 (Stroke)_3" fill-rule="evenodd" clip-rule="evenodd" d="M128.143 36.7833C129.862 36.7833 131.256 38.1771 131.256 39.8965C131.256 41.6159 129.862 43.0097 128.143 43.0097C126.423 43.0097 125.029 41.6159 125.029 39.8965C125.029 38.1771 126.423 36.7833 128.143 36.7833ZM134.086 39.8965C134.086 36.6141 131.425 33.9531 128.143 33.9531C124.86 33.9531 122.199 36.6141 122.199 39.8965C122.199 43.1789 124.86 45.8399 128.143 45.8399C131.425 45.8399 134.086 43.1789 134.086 39.8965Z" fill="#418A30" fill-opacity="0.3"/>
<path id="Ellipse 115 (Stroke)_4" fill-rule="evenodd" clip-rule="evenodd" d="M106.924 2.83018C108.643 2.83018 110.037 4.224 110.037 5.94337C110.037 7.66274 108.643 9.05657 106.924 9.05657C105.204 9.05657 103.811 7.66274 103.811 5.94337C103.811 4.224 105.204 2.83018 106.924 2.83018ZM112.867 5.94337C112.867 2.66094 110.206 0 106.924 0C103.641 0 100.98 2.66094 100.98 5.94337C100.98 9.22581 103.641 11.8867 106.924 11.8867C110.206 11.8867 112.867 9.22581 112.867 5.94337Z" fill="#418A30" fill-opacity="0.3"/>
<path id="Ellipse 115 (Stroke)_5" fill-rule="evenodd" clip-rule="evenodd" d="M106.924 53.7599C108.643 53.7599 110.037 55.1537 110.037 56.8731C110.037 58.5924 108.643 59.9863 106.924 59.9863C105.204 59.9863 103.811 58.5924 103.811 56.8731C103.811 55.1537 105.204 53.7599 106.924 53.7599ZM112.867 56.8731C112.867 53.5906 110.206 50.9297 106.924 50.9297C103.641 50.9297 100.98 53.5906 100.98 56.8731C100.98 60.1555 103.641 62.8164 106.924 62.8164C110.206 62.8164 112.867 60.1555 112.867 56.8731Z" fill="#418A30" fill-opacity="0.3"/>
<path id="Ellipse 115 (Stroke)_6" fill-rule="evenodd" clip-rule="evenodd" d="M106.924 19.8067C108.643 19.8067 110.037 21.2006 110.037 22.9199C110.037 24.6393 108.643 26.0331 106.924 26.0331C105.204 26.0331 103.811 24.6393 103.811 22.9199C103.811 21.2006 105.204 19.8067 106.924 19.8067ZM112.867 22.9199C112.867 19.6375 110.206 16.9766 106.924 16.9766C103.641 16.9766 100.98 19.6375 100.98 22.9199C100.98 26.2024 103.641 28.8633 106.924 28.8633C110.206 28.8633 112.867 26.2024 112.867 22.9199Z" fill="#418A30" fill-opacity="0.3"/>
<path id="Ellipse 115 (Stroke)_7" fill-rule="evenodd" clip-rule="evenodd" d="M106.924 70.7364C108.643 70.7364 110.037 72.1303 110.037 73.8496C110.037 75.569 108.643 76.9628 106.924 76.9628C105.204 76.9628 103.811 75.569 103.811 73.8496C103.811 72.1303 105.204 70.7364 106.924 70.7364ZM112.867 73.8496C112.867 70.5672 110.206 67.9062 106.924 67.9062C103.641 67.9062 100.98 70.5672 100.98 73.8496C100.98 77.1321 103.641 79.793 106.924 79.793C110.206 79.793 112.867 77.1321 112.867 73.8496Z" fill="#418A30" fill-opacity="0.3"/>
<path id="Ellipse 115 (Stroke)_8" fill-rule="evenodd" clip-rule="evenodd" d="M106.924 36.7833C108.643 36.7833 110.037 38.1771 110.037 39.8965C110.037 41.6159 108.643 43.0097 106.924 43.0097C105.204 43.0097 103.811 41.6159 103.811 39.8965C103.811 38.1771 105.204 36.7833 106.924 36.7833ZM112.867 39.8965C112.867 36.6141 110.206 33.9531 106.924 33.9531C103.641 33.9531 100.98 36.6141 100.98 39.8965C100.98 43.1789 103.641 45.8399 106.924 45.8399C110.206 45.8399 112.867 43.1789 112.867 39.8965Z" fill="#418A30" fill-opacity="0.3"/>
<path id="Ellipse 115 (Stroke)_9" fill-rule="evenodd" clip-rule="evenodd" d="M85.7051 2.83018C87.4244 2.83018 88.8183 4.224 88.8183 5.94337C88.8183 7.66274 87.4244 9.05657 85.7051 9.05657C83.9857 9.05657 82.5919 7.66274 82.5919 5.94337C82.5919 4.224 83.9857 2.83018 85.7051 2.83018ZM91.6484 5.94337C91.6484 2.66094 88.9875 0 85.7051 0C82.4226 0 79.7617 2.66094 79.7617 5.94337C79.7617 9.22581 82.4226 11.8867 85.7051 11.8867C88.9875 11.8867 91.6484 9.22581 91.6484 5.94337Z" fill="#418A30" fill-opacity="0.3"/>
<path id="Ellipse 115 (Stroke)_10" fill-rule="evenodd" clip-rule="evenodd" d="M85.7051 53.7599C87.4244 53.7599 88.8183 55.1537 88.8183 56.8731C88.8183 58.5924 87.4244 59.9863 85.7051 59.9863C83.9857 59.9863 82.5919 58.5924 82.5919 56.8731C82.5919 55.1537 83.9857 53.7599 85.7051 53.7599ZM91.6484 56.8731C91.6484 53.5906 88.9875 50.9297 85.7051 50.9297C82.4226 50.9297 79.7617 53.5906 79.7617 56.8731C79.7617 60.1555 82.4226 62.8164 85.7051 62.8164C88.9875 62.8164 91.6484 60.1555 91.6484 56.8731Z" fill="#418A30" fill-opacity="0.3"/>
<path id="Ellipse 115 (Stroke)_11" fill-rule="evenodd" clip-rule="evenodd" d="M85.7051 19.8067C87.4244 19.8067 88.8183 21.2006 88.8183 22.9199C88.8183 24.6393 87.4244 26.0331 85.7051 26.0331C83.9857 26.0331 82.5919 24.6393 82.5919 22.9199C82.5919 21.2006 83.9857 19.8067 85.7051 19.8067ZM91.6484 22.9199C91.6484 19.6375 88.9875 16.9766 85.7051 16.9766C82.4226 16.9766 79.7617 19.6375 79.7617 22.9199C79.7617 26.2024 82.4226 28.8633 85.7051 28.8633C88.9875 28.8633 91.6484 26.2024 91.6484 22.9199Z" fill="#418A30" fill-opacity="0.3"/>
<path id="Ellipse 115 (Stroke)_12" fill-rule="evenodd" clip-rule="evenodd" d="M85.7051 70.7364C87.4244 70.7364 88.8183 72.1303 88.8183 73.8496C88.8183 75.569 87.4244 76.9628 85.7051 76.9628C83.9857 76.9628 82.5919 75.569 82.5919 73.8496C82.5919 72.1303 83.9857 70.7364 85.7051 70.7364ZM91.6484 73.8496C91.6484 70.5672 88.9875 67.9062 85.7051 67.9062C82.4226 67.9062 79.7617 70.5672 79.7617 73.8496C79.7617 77.1321 82.4226 79.793 85.7051 79.793C88.9875 79.793 91.6484 77.1321 91.6484 73.8496Z" fill="#418A30" fill-opacity="0.3"/>
<path id="Ellipse 115 (Stroke)_13" fill-rule="evenodd" clip-rule="evenodd" d="M85.7051 36.7833C87.4244 36.7833 88.8183 38.1771 88.8183 39.8965C88.8183 41.6159 87.4244 43.0097 85.7051 43.0097C83.9857 43.0097 82.5919 41.6159 82.5919 39.8965C82.5919 38.1771 83.9857 36.7833 85.7051 36.7833ZM91.6484 39.8965C91.6484 36.6141 88.9875 33.9531 85.7051 33.9531C82.4226 33.9531 79.7617 36.6141 79.7617 39.8965C79.7617 43.1789 82.4226 45.8399 85.7051 45.8399C88.9875 45.8399 91.6484 43.1789 91.6484 39.8965Z" fill="#418A30" fill-opacity="0.3"/>
<path id="Ellipse 115 (Stroke)_14" fill-rule="evenodd" clip-rule="evenodd" d="M64.4863 53.7599C66.2057 53.7599 67.5995 55.1537 67.5995 56.8731C67.5995 58.5924 66.2057 59.9863 64.4863 59.9863C62.7669 59.9863 61.3731 58.5924 61.3731 56.8731C61.3731 55.1537 62.7669 53.7599 64.4863 53.7599ZM70.4297 56.8731C70.4297 53.5906 67.7687 50.9297 64.4863 50.9297C61.2039 50.9297 58.5429 53.5906 58.5429 56.8731C58.5429 60.1555 61.2039 62.8164 64.4863 62.8164C67.7687 62.8164 70.4297 60.1555 70.4297 56.8731Z" fill="#418A30" fill-opacity="0.3"/>
<path id="Ellipse 115 (Stroke)_15" fill-rule="evenodd" clip-rule="evenodd" d="M64.4863 19.8067C66.2057 19.8067 67.5995 21.2006 67.5995 22.9199C67.5995 24.6393 66.2057 26.0331 64.4863 26.0331C62.7669 26.0331 61.3731 24.6393 61.3731 22.9199C61.3731 21.2006 62.7669 19.8067 64.4863 19.8067ZM70.4297 22.9199C70.4297 19.6375 67.7687 16.9766 64.4863 16.9766C61.2039 16.9766 58.5429 19.6375 58.5429 22.9199C58.5429 26.2024 61.2039 28.8633 64.4863 28.8633C67.7687 28.8633 70.4297 26.2024 70.4297 22.9199Z" fill="#418A30" fill-opacity="0.3"/>
<path id="Ellipse 115 (Stroke)_16" fill-rule="evenodd" clip-rule="evenodd" d="M64.4863 36.7833C66.2057 36.7833 67.5995 38.1771 67.5995 39.8965C67.5995 41.6159 66.2057 43.0097 64.4863 43.0097C62.7669 43.0097 61.3731 41.6159 61.3731 39.8965C61.3731 38.1771 62.7669 36.7833 64.4863 36.7833ZM70.4297 39.8965C70.4297 36.6141 67.7687 33.9531 64.4863 33.9531C61.2039 33.9531 58.5429 36.6141 58.5429 39.8965C58.5429 43.1789 61.2039 45.8399 64.4863 45.8399C67.7687 45.8399 70.4297 43.1789 70.4297 39.8965Z" fill="#418A30" fill-opacity="0.3"/>
</g>
<g id="Group 18140685">
<path id="Ellipse 115 (Stroke)_17" fill-rule="evenodd" clip-rule="evenodd" d="M35.5996 53.7599C37.319 53.7599 38.7128 55.1537 38.7128 56.8731C38.7128 58.5924 37.319 59.9863 35.5996 59.9863C33.8802 59.9863 32.4864 58.5924 32.4864 56.8731C32.4864 55.1537 33.8802 53.7599 35.5996 53.7599ZM41.543 56.8731C41.543 53.5906 38.882 50.9297 35.5996 50.9297C32.3172 50.9297 29.6562 53.5906 29.6562 56.8731C29.6562 60.1555 32.3172 62.8164 35.5996 62.8164C38.882 62.8164 41.543 60.1555 41.543 56.8731Z" fill="#418A30" fill-opacity="0.3"/>
<path id="Ellipse 115 (Stroke)_18" fill-rule="evenodd" clip-rule="evenodd" d="M35.5996 19.8067C37.319 19.8067 38.7128 21.2006 38.7128 22.9199C38.7128 24.6393 37.319 26.0331 35.5996 26.0331C33.8802 26.0331 32.4864 24.6393 32.4864 22.9199C32.4864 21.2006 33.8802 19.8067 35.5996 19.8067ZM41.543 22.9199C41.543 19.6375 38.882 16.9766 35.5996 16.9766C32.3172 16.9766 29.6562 19.6375 29.6562 22.9199C29.6562 26.2024 32.3172 28.8633 35.5996 28.8633C38.882 28.8633 41.543 26.2024 41.543 22.9199Z" fill="#418A30" fill-opacity="0.3"/>
<path id="Ellipse 115 (Stroke)_19" fill-rule="evenodd" clip-rule="evenodd" d="M35.5996 36.7833C37.319 36.7833 38.7128 38.1771 38.7128 39.8965C38.7128 41.6159 37.319 43.0097 35.5996 43.0097C33.8802 43.0097 32.4864 41.6159 32.4864 39.8965C32.4864 38.1771 33.8802 36.7833 35.5996 36.7833ZM41.543 39.8965C41.543 36.6141 38.882 33.9531 35.5996 33.9531C32.3172 33.9531 29.6562 36.6141 29.6562 39.8965C29.6562 43.1789 32.3172 45.8399 35.5996 45.8399C38.882 45.8399 41.543 43.1789 41.543 39.8965Z" fill="#418A30" fill-opacity="0.3"/>
<path id="Ellipse 115 (Stroke)_20" fill-rule="evenodd" clip-rule="evenodd" d="M14.3808 2.83018C16.1002 2.83018 17.494 4.224 17.494 5.94337C17.494 7.66274 16.1002 9.05657 14.3808 9.05657C12.6615 9.05657 11.2677 7.66274 11.2677 5.94337C11.2677 4.224 12.6615 2.83018 14.3808 2.83018ZM20.3242 5.94337C20.3242 2.66094 17.6633 0 14.3808 0C11.0984 0 8.43748 2.66094 8.43748 5.94337C8.43748 9.22581 11.0984 11.8867 14.3808 11.8867C17.6633 11.8867 20.3242 9.22581 20.3242 5.94337Z" fill="#418A30" fill-opacity="0.3"/>
<path id="Ellipse 115 (Stroke)_21" fill-rule="evenodd" clip-rule="evenodd" d="M14.3808 53.7599C16.1002 53.7599 17.494 55.1537 17.494 56.8731C17.494 58.5924 16.1002 59.9863 14.3808 59.9863C12.6615 59.9863 11.2677 58.5924 11.2677 56.8731C11.2677 55.1537 12.6615 53.7599 14.3808 53.7599ZM20.3242 56.8731C20.3242 53.5906 17.6633 50.9297 14.3808 50.9297C11.0984 50.9297 8.43748 53.5906 8.43748 56.8731C8.43748 60.1555 11.0984 62.8164 14.3808 62.8164C17.6633 62.8164 20.3242 60.1555 20.3242 56.8731Z" fill="#418A30" fill-opacity="0.3"/>
<path id="Ellipse 115 (Stroke)_22" fill-rule="evenodd" clip-rule="evenodd" d="M14.3808 19.8067C16.1002 19.8067 17.494 21.2006 17.494 22.9199C17.494 24.6393 16.1002 26.0331 14.3808 26.0331C12.6615 26.0331 11.2677 24.6393 11.2677 22.9199C11.2677 21.2006 12.6615 19.8067 14.3808 19.8067ZM20.3242 22.9199C20.3242 19.6375 17.6633 16.9766 14.3808 16.9766C11.0984 16.9766 8.43748 19.6375 8.43748 22.9199C8.43748 26.2024 11.0984 28.8633 14.3808 28.8633C17.6633 28.8633 20.3242 26.2024 20.3242 22.9199Z" fill="#418A30" fill-opacity="0.3"/>
<path id="Ellipse 115 (Stroke)_23" fill-rule="evenodd" clip-rule="evenodd" d="M14.3808 70.7364C16.1002 70.7364 17.494 72.1303 17.494 73.8496C17.494 75.569 16.1002 76.9628 14.3808 76.9628C12.6615 76.9628 11.2677 75.569 11.2677 73.8496C11.2677 72.1303 12.6615 70.7364 14.3808 70.7364ZM20.3242 73.8496C20.3242 70.5672 17.6633 67.9062 14.3808 67.9062C11.0984 67.9062 8.43748 70.5672 8.43748 73.8496C8.43748 77.1321 11.0984 79.793 14.3808 79.793C17.6633 79.793 20.3242 77.1321 20.3242 73.8496Z" fill="#418A30" fill-opacity="0.3"/>
<path id="Ellipse 115 (Stroke)_24" fill-rule="evenodd" clip-rule="evenodd" d="M14.3808 36.7833C16.1002 36.7833 17.494 38.1771 17.494 39.8965C17.494 41.6159 16.1002 43.0097 14.3808 43.0097C12.6615 43.0097 11.2677 41.6159 11.2677 39.8965C11.2677 38.1771 12.6615 36.7833 14.3808 36.7833ZM20.3242 39.8965C20.3242 36.6141 17.6633 33.9531 14.3808 33.9531C11.0984 33.9531 8.43748 36.6141 8.43748 39.8965C8.43748 43.1789 11.0984 45.8399 14.3808 45.8399C17.6633 45.8399 20.3242 43.1789 20.3242 39.8965Z" fill="#418A30" fill-opacity="0.3"/>
</g>
<g id="Group 18140687">
<path id="Ellipse 115 (Stroke)_25" fill-rule="evenodd" clip-rule="evenodd" d="M35.5996 150.557C37.319 150.557 38.7128 151.951 38.7128 153.67C38.7128 155.389 37.319 156.783 35.5996 156.783C33.8802 156.783 32.4864 155.389 32.4864 153.67C32.4864 151.951 33.8802 150.557 35.5996 150.557ZM41.543 153.67C41.543 150.388 38.882 147.727 35.5996 147.727C32.3172 147.727 29.6562 150.388 29.6562 153.67C29.6562 156.952 32.3172 159.613 35.5996 159.613C38.882 159.613 41.543 156.952 41.543 153.67Z" fill="#418A30" fill-opacity="0.3"/>
<path id="Ellipse 115 (Stroke)_26" fill-rule="evenodd" clip-rule="evenodd" d="M35.5996 116.604C37.319 116.604 38.7128 117.997 38.7128 119.717C38.7128 121.436 37.319 122.83 35.5996 122.83C33.8802 122.83 32.4864 121.436 32.4864 119.717C32.4864 117.997 33.8802 116.604 35.5996 116.604ZM41.543 119.717C41.543 116.434 38.882 113.773 35.5996 113.773C32.3172 113.773 29.6562 116.434 29.6562 119.717C29.6562 122.999 32.3172 125.66 35.5996 125.66C38.882 125.66 41.543 122.999 41.543 119.717Z" fill="#418A30" fill-opacity="0.3"/>
<path id="Ellipse 115 (Stroke)_27" fill-rule="evenodd" clip-rule="evenodd" d="M35.5996 133.58C37.319 133.58 38.7128 134.974 38.7128 136.693C38.7128 138.413 37.319 139.807 35.5996 139.807C33.8802 139.807 32.4864 138.413 32.4864 136.693C32.4864 134.974 33.8802 133.58 35.5996 133.58ZM41.543 136.693C41.543 133.411 38.882 130.75 35.5996 130.75C32.3172 130.75 29.6562 133.411 29.6562 136.693C29.6562 139.976 32.3172 142.637 35.5996 142.637C38.882 142.637 41.543 139.976 41.543 136.693Z" fill="#418A30" fill-opacity="0.3"/>
<path id="Ellipse 115 (Stroke)_28" fill-rule="evenodd" clip-rule="evenodd" d="M14.3808 99.6271C16.1002 99.6271 17.494 101.021 17.494 102.74C17.494 104.46 16.1002 105.853 14.3808 105.853C12.6615 105.853 11.2677 104.46 11.2677 102.74C11.2677 101.021 12.6615 99.6271 14.3808 99.6271ZM20.3242 102.74C20.3242 99.4578 17.6633 96.7969 14.3808 96.7969C11.0984 96.7969 8.43748 99.4578 8.43748 102.74C8.43748 106.023 11.0984 108.684 14.3808 108.684C17.6633 108.684 20.3242 106.023 20.3242 102.74Z" fill="#418A30" fill-opacity="0.3"/>
<path id="Ellipse 115 (Stroke)_29" fill-rule="evenodd" clip-rule="evenodd" d="M14.3808 150.557C16.1002 150.557 17.494 151.951 17.494 153.67C17.494 155.389 16.1002 156.783 14.3808 156.783C12.6615 156.783 11.2677 155.389 11.2677 153.67C11.2677 151.951 12.6615 150.557 14.3808 150.557ZM20.3242 153.67C20.3242 150.388 17.6633 147.727 14.3808 147.727C11.0984 147.727 8.43748 150.388 8.43748 153.67C8.43748 156.952 11.0984 159.613 14.3808 159.613C17.6633 159.613 20.3242 156.952 20.3242 153.67Z" fill="#418A30" fill-opacity="0.3"/>
<path id="Ellipse 115 (Stroke)_30" fill-rule="evenodd" clip-rule="evenodd" d="M14.3808 116.604C16.1002 116.604 17.494 117.997 17.494 119.717C17.494 121.436 16.1002 122.83 14.3808 122.83C12.6615 122.83 11.2677 121.436 11.2677 119.717C11.2677 117.997 12.6615 116.604 14.3808 116.604ZM20.3242 119.717C20.3242 116.434 17.6633 113.773 14.3808 113.773C11.0984 113.773 8.43748 116.434 8.43748 119.717C8.43748 122.999 11.0984 125.66 14.3808 125.66C17.6633 125.66 20.3242 122.999 20.3242 119.717Z" fill="#418A30" fill-opacity="0.3"/>
<path id="Ellipse 115 (Stroke)_31" fill-rule="evenodd" clip-rule="evenodd" d="M14.3808 167.533C16.1002 167.533 17.494 168.927 17.494 170.646C17.494 172.366 16.1002 173.76 14.3808 173.76C12.6615 173.76 11.2677 172.366 11.2677 170.646C11.2677 168.927 12.6615 167.533 14.3808 167.533ZM20.3242 170.646C20.3242 167.364 17.6633 164.703 14.3808 164.703C11.0984 164.703 8.43748 167.364 8.43748 170.646C8.43748 173.929 11.0984 176.59 14.3808 176.59C17.6633 176.59 20.3242 173.929 20.3242 170.646Z" fill="#418A30" fill-opacity="0.3"/>
<path id="Ellipse 115 (Stroke)_32" fill-rule="evenodd" clip-rule="evenodd" d="M14.3808 133.58C16.1002 133.58 17.494 134.974 17.494 136.693C17.494 138.413 16.1002 139.807 14.3808 139.807C12.6615 139.807 11.2677 138.413 11.2677 136.693C11.2677 134.974 12.6615 133.58 14.3808 133.58ZM20.3242 136.693C20.3242 133.411 17.6633 130.75 14.3808 130.75C11.0984 130.75 8.43748 133.411 8.43748 136.693C8.43748 139.976 11.0984 142.637 14.3808 142.637C17.6633 142.637 20.3242 139.976 20.3242 136.693Z" fill="#418A30" fill-opacity="0.3"/>
</g>
</g>
</svg>
