<svg width="163" height="178" viewBox="0 0 163 178" fill="none" xmlns="http://www.w3.org/2000/svg">
<g id="Group 18140690">
<g id="Group 18140686">
<path id="Ellipse 115 (Stroke)" fill-rule="evenodd" clip-rule="evenodd" d="M99.3628 77.9578C97.6434 77.9578 96.2496 76.564 96.2496 74.8447C96.2496 73.1253 97.6434 71.7315 99.3628 71.7315C101.082 71.7315 102.476 73.1253 102.476 74.8447C102.476 76.564 101.082 77.9578 99.3628 77.9578ZM93.4194 74.8447C93.4194 78.1271 96.0804 80.788 99.3628 80.788C102.645 80.788 105.306 78.1271 105.306 74.8447C105.306 71.5622 102.645 68.9013 99.3628 68.9013C96.0804 68.9013 93.4194 71.5622 93.4194 74.8447Z" fill="#A7D18F" fill-opacity="0.5"/>
<path id="Ellipse 115 (Stroke)_2" fill-rule="evenodd" clip-rule="evenodd" d="M99.3628 27.0308C97.6434 27.0308 96.2496 25.637 96.2496 23.9176C96.2496 22.1982 97.6434 20.8044 99.3628 20.8044C101.082 20.8044 102.476 22.1982 102.476 23.9176C102.476 25.637 101.082 27.0308 99.3628 27.0308ZM93.4194 23.9176C93.4194 27.2 96.0804 29.861 99.3628 29.861C102.645 29.861 105.306 27.2 105.306 23.9176C105.306 20.6352 102.645 17.9742 99.3628 17.9742C96.0804 17.9742 93.4194 20.6352 93.4194 23.9176Z" fill="#A7D18F" fill-opacity="0.5"/>
<path id="Ellipse 115 (Stroke)_3" fill-rule="evenodd" clip-rule="evenodd" d="M99.3628 60.982C97.6434 60.982 96.2496 59.5882 96.2496 57.8688C96.2496 56.1495 97.6434 54.7556 99.3628 54.7556C101.082 54.7556 102.476 56.1495 102.476 57.8688C102.476 59.5882 101.082 60.982 99.3628 60.982ZM93.4194 57.8688C93.4194 61.1513 96.0804 63.8122 99.3628 63.8122C102.645 63.8122 105.306 61.1513 105.306 57.8688C105.306 54.5864 102.645 51.9255 99.3628 51.9255C96.0804 51.9255 93.4194 54.5864 93.4194 57.8688Z" fill="#A7D18F" fill-opacity="0.5"/>
<path id="Ellipse 115 (Stroke)_4" fill-rule="evenodd" clip-rule="evenodd" d="M99.3628 10.0552C97.6434 10.0552 96.2496 8.66134 96.2496 6.94197C96.2496 5.2226 97.6434 3.82878 99.3628 3.82878C101.082 3.82878 102.476 5.2226 102.476 6.94197C102.476 8.66134 101.082 10.0552 99.3628 10.0552ZM93.4194 6.94197C93.4194 10.2244 96.0804 12.8853 99.3628 12.8853C102.645 12.8853 105.306 10.2244 105.306 6.94197C105.306 3.65954 102.645 0.998602 99.3628 0.998602C96.0804 0.998602 93.4194 3.65954 93.4194 6.94197Z" fill="#A7D18F" fill-opacity="0.5"/>
<path id="Ellipse 115 (Stroke)_5" fill-rule="evenodd" clip-rule="evenodd" d="M99.3628 44.0064C97.6434 44.0064 96.2496 42.6126 96.2496 40.8932C96.2496 39.1738 97.6434 37.78 99.3628 37.78C101.082 37.78 102.476 39.1738 102.476 40.8932C102.476 42.6126 101.082 44.0064 99.3628 44.0064ZM93.4194 40.8932C93.4194 44.1756 96.0804 46.8366 99.3628 46.8366C102.645 46.8366 105.306 44.1756 105.306 40.8932C105.306 37.6108 102.645 34.9498 99.3628 34.9498C96.0804 34.9498 93.4194 37.6108 93.4194 40.8932Z" fill="#A7D18F" fill-opacity="0.5"/>
<path id="Ellipse 115 (Stroke)_6" fill-rule="evenodd" clip-rule="evenodd" d="M120.582 77.9576C118.862 77.9576 117.468 76.5638 117.468 74.8444C117.468 73.1251 118.862 71.7312 120.582 71.7312C122.301 71.7312 123.695 73.1251 123.695 74.8444C123.695 76.5638 122.301 77.9576 120.582 77.9576ZM114.638 74.8444C114.638 78.1269 117.299 80.7878 120.582 80.7878C123.864 80.7878 126.525 78.1269 126.525 74.8444C126.525 71.562 123.864 68.9011 120.582 68.9011C117.299 68.9011 114.638 71.562 114.638 74.8444Z" fill="#A7D18F" fill-opacity="0.5"/>
<path id="Ellipse 115 (Stroke)_7" fill-rule="evenodd" clip-rule="evenodd" d="M120.582 27.0308C118.862 27.0308 117.468 25.637 117.468 23.9176C117.468 22.1982 118.862 20.8044 120.582 20.8044C122.301 20.8044 123.695 22.1982 123.695 23.9176C123.695 25.637 122.301 27.0308 120.582 27.0308ZM114.638 23.9176C114.638 27.2 117.299 29.861 120.582 29.861C123.864 29.861 126.525 27.2 126.525 23.9176C126.525 20.6352 123.864 17.9742 120.582 17.9742C117.299 17.9742 114.638 20.6352 114.638 23.9176Z" fill="#A7D18F" fill-opacity="0.5"/>
<path id="Ellipse 115 (Stroke)_8" fill-rule="evenodd" clip-rule="evenodd" d="M120.582 60.982C118.862 60.982 117.468 59.5882 117.468 57.8688C117.468 56.1495 118.862 54.7556 120.582 54.7556C122.301 54.7556 123.695 56.1495 123.695 57.8688C123.695 59.5882 122.301 60.982 120.582 60.982ZM114.638 57.8688C114.638 61.1513 117.299 63.8122 120.582 63.8122C123.864 63.8122 126.525 61.1513 126.525 57.8688C126.525 54.5864 123.864 51.9255 120.582 51.9255C117.299 51.9255 114.638 54.5864 114.638 57.8688Z" fill="#A7D18F" fill-opacity="0.5"/>
<path id="Ellipse 115 (Stroke)_9" fill-rule="evenodd" clip-rule="evenodd" d="M120.582 10.0552C118.862 10.0552 117.468 8.66134 117.468 6.94197C117.468 5.2226 118.862 3.82878 120.582 3.82878C122.301 3.82878 123.695 5.2226 123.695 6.94197C123.695 8.66134 122.301 10.0552 120.582 10.0552ZM114.638 6.94197C114.638 10.2244 117.299 12.8853 120.582 12.8853C123.864 12.8853 126.525 10.2244 126.525 6.94197C126.525 3.65954 123.864 0.998602 120.582 0.998602C117.299 0.998602 114.638 3.65954 114.638 6.94197Z" fill="#A7D18F" fill-opacity="0.5"/>
<path id="Ellipse 115 (Stroke)_10" fill-rule="evenodd" clip-rule="evenodd" d="M120.582 44.0064C118.862 44.0064 117.468 42.6126 117.468 40.8932C117.468 39.1738 118.862 37.78 120.582 37.78C122.301 37.78 123.695 39.1738 123.695 40.8932C123.695 42.6126 122.301 44.0064 120.582 44.0064ZM114.638 40.8932C114.638 44.1756 117.299 46.8366 120.582 46.8366C123.864 46.8366 126.525 44.1756 126.525 40.8932C126.525 37.6108 123.864 34.9498 120.582 34.9498C117.299 34.9498 114.638 37.6108 114.638 40.8932Z" fill="#A7D18F" fill-opacity="0.5"/>
<path id="Ellipse 115 (Stroke)_11" fill-rule="evenodd" clip-rule="evenodd" d="M141.8 77.9576C140.081 77.9576 138.687 76.5638 138.687 74.8444C138.687 73.1251 140.081 71.7312 141.8 71.7312C143.52 71.7312 144.913 73.1251 144.913 74.8444C144.913 76.5638 143.52 77.9576 141.8 77.9576ZM135.857 74.8444C135.857 78.1269 138.518 80.7878 141.8 80.7878C145.083 80.7878 147.744 78.1269 147.744 74.8444C147.744 71.562 145.083 68.9011 141.8 68.9011C138.518 68.9011 135.857 71.562 135.857 74.8444Z" fill="#A7D18F" fill-opacity="0.5"/>
<path id="Ellipse 115 (Stroke)_12" fill-rule="evenodd" clip-rule="evenodd" d="M141.8 27.0308C140.081 27.0308 138.687 25.637 138.687 23.9176C138.687 22.1982 140.081 20.8044 141.8 20.8044C143.52 20.8044 144.913 22.1982 144.913 23.9176C144.913 25.637 143.52 27.0308 141.8 27.0308ZM135.857 23.9176C135.857 27.2 138.518 29.861 141.8 29.861C145.083 29.861 147.744 27.2 147.744 23.9176C147.744 20.6352 145.083 17.9742 141.8 17.9742C138.518 17.9742 135.857 20.6352 135.857 23.9176Z" fill="#A7D18F" fill-opacity="0.5"/>
<path id="Ellipse 115 (Stroke)_13" fill-rule="evenodd" clip-rule="evenodd" d="M141.8 60.982C140.081 60.982 138.687 59.5882 138.687 57.8688C138.687 56.1495 140.081 54.7556 141.8 54.7556C143.52 54.7556 144.913 56.1495 144.913 57.8688C144.913 59.5882 143.52 60.982 141.8 60.982ZM135.857 57.8688C135.857 61.1513 138.518 63.8122 141.8 63.8122C145.083 63.8122 147.744 61.1513 147.744 57.8688C147.744 54.5864 145.083 51.9255 141.8 51.9255C138.518 51.9255 135.857 54.5864 135.857 57.8688Z" fill="#A7D18F" fill-opacity="0.5"/>
<path id="Ellipse 115 (Stroke)_14" fill-rule="evenodd" clip-rule="evenodd" d="M141.8 10.0552C140.081 10.0552 138.687 8.66134 138.687 6.94197C138.687 5.2226 140.081 3.82878 141.8 3.82878C143.52 3.82878 144.913 5.2226 144.913 6.94197C144.913 8.66134 143.52 10.0552 141.8 10.0552ZM135.857 6.94197C135.857 10.2244 138.518 12.8853 141.8 12.8853C145.083 12.8853 147.744 10.2244 147.744 6.94197C147.744 3.65954 145.083 0.998602 141.8 0.998602C138.518 0.998602 135.857 3.65954 135.857 6.94197Z" fill="#A7D18F" fill-opacity="0.5"/>
<path id="Ellipse 115 (Stroke)_15" fill-rule="evenodd" clip-rule="evenodd" d="M141.8 44.0064C140.081 44.0064 138.687 42.6126 138.687 40.8932C138.687 39.1738 140.081 37.78 141.8 37.78C143.52 37.78 144.913 39.1738 144.913 40.8932C144.913 42.6126 143.52 44.0064 141.8 44.0064ZM135.857 40.8932C135.857 44.1756 138.518 46.8366 141.8 46.8366C145.083 46.8366 147.744 44.1756 147.744 40.8932C147.744 37.6108 145.083 34.9498 141.8 34.9498C138.518 34.9498 135.857 37.6108 135.857 40.8932Z" fill="#A7D18F" fill-opacity="0.5"/>
<path id="Ellipse 115 (Stroke)_16" fill-rule="evenodd" clip-rule="evenodd" d="M163.02 77.9576C161.3 77.9576 159.906 76.5638 159.906 74.8444C159.906 73.1251 161.3 71.7312 163.02 71.7312C164.739 71.7312 166.133 73.1251 166.133 74.8444C166.133 76.5638 164.739 77.9576 163.02 77.9576ZM157.076 74.8444C157.076 78.1269 159.737 80.7878 163.02 80.7878C166.302 80.7878 168.963 78.1269 168.963 74.8444C168.963 71.562 166.302 68.9011 163.02 68.9011C159.737 68.9011 157.076 71.562 157.076 74.8444Z" fill="#A7D18F" fill-opacity="0.5"/>
<path id="Ellipse 115 (Stroke)_17" fill-rule="evenodd" clip-rule="evenodd" d="M163.02 27.0308C161.3 27.0308 159.906 25.637 159.906 23.9176C159.906 22.1982 161.3 20.8044 163.02 20.8044C164.739 20.8044 166.133 22.1982 166.133 23.9176C166.133 25.637 164.739 27.0308 163.02 27.0308ZM157.076 23.9176C157.076 27.2 159.737 29.861 163.02 29.861C166.302 29.861 168.963 27.2 168.963 23.9176C168.963 20.6352 166.302 17.9742 163.02 17.9742C159.737 17.9742 157.076 20.6352 157.076 23.9176Z" fill="#A7D18F" fill-opacity="0.5"/>
<path id="Ellipse 115 (Stroke)_18" fill-rule="evenodd" clip-rule="evenodd" d="M163.02 60.982C161.3 60.982 159.906 59.5882 159.906 57.8688C159.906 56.1495 161.3 54.7556 163.02 54.7556C164.739 54.7556 166.133 56.1495 166.133 57.8688C166.133 59.5882 164.739 60.982 163.02 60.982ZM157.076 57.8688C157.076 61.1513 159.737 63.8122 163.02 63.8122C166.302 63.8122 168.963 61.1513 168.963 57.8688C168.963 54.5864 166.302 51.9255 163.02 51.9255C159.737 51.9255 157.076 54.5864 157.076 57.8688Z" fill="#A7D18F" fill-opacity="0.5"/>
<path id="Ellipse 115 (Stroke)_19" fill-rule="evenodd" clip-rule="evenodd" d="M163.02 10.0552C161.3 10.0552 159.906 8.66134 159.906 6.94197C159.906 5.2226 161.3 3.82878 163.02 3.82878C164.739 3.82878 166.133 5.2226 166.133 6.94197C166.133 8.66134 164.739 10.0552 163.02 10.0552ZM157.076 6.94197C157.076 10.2244 159.737 12.8853 163.02 12.8853C166.302 12.8853 168.963 10.2244 168.963 6.94197C168.963 3.65954 166.302 0.998602 163.02 0.998602C159.737 0.998602 157.076 3.65954 157.076 6.94197Z" fill="#A7D18F" fill-opacity="0.5"/>
<path id="Ellipse 115 (Stroke)_20" fill-rule="evenodd" clip-rule="evenodd" d="M163.02 44.0064C161.3 44.0064 159.906 42.6126 159.906 40.8932C159.906 39.1738 161.3 37.78 163.02 37.78C164.739 37.78 166.133 39.1738 166.133 40.8932C166.133 42.6126 164.739 44.0064 163.02 44.0064ZM157.076 40.8932C157.076 44.1756 159.737 46.8366 163.02 46.8366C166.302 46.8366 168.963 44.1756 168.963 40.8932C168.963 37.6108 166.302 34.9498 163.02 34.9498C159.737 34.9498 157.076 37.6108 157.076 40.8932Z" fill="#A7D18F" fill-opacity="0.5"/>
</g>
<g id="Group 18140688">
<path id="Ellipse 115 (Stroke)_21" fill-rule="evenodd" clip-rule="evenodd" d="M70.1426 151.76C71.8619 151.76 73.2558 153.154 73.2558 154.873C73.2558 156.592 71.8619 157.986 70.1426 157.986C68.4232 157.986 67.0294 156.592 67.0294 154.873C67.0294 153.154 68.4232 151.76 70.1426 151.76ZM76.0859 154.873C76.0859 151.591 73.425 148.93 70.1426 148.93C66.8601 148.93 64.1992 151.591 64.1992 154.873C64.1992 158.155 66.8601 160.816 70.1426 160.816C73.425 160.816 76.0859 158.155 76.0859 154.873Z" fill="#418A30" fill-opacity="0.3"/>
<path id="Ellipse 115 (Stroke)_22" fill-rule="evenodd" clip-rule="evenodd" d="M70.1426 117.807C71.8619 117.807 73.2558 119.201 73.2558 120.92C73.2558 122.639 71.8619 124.033 70.1426 124.033C68.4232 124.033 67.0294 122.639 67.0294 120.92C67.0294 119.201 68.4232 117.807 70.1426 117.807ZM76.0859 120.92C76.0859 117.638 73.425 114.977 70.1426 114.977C66.8601 114.977 64.1992 117.638 64.1992 120.92C64.1992 124.202 66.8601 126.863 70.1426 126.863C73.425 126.863 76.0859 124.202 76.0859 120.92Z" fill="#418A30" fill-opacity="0.3"/>
<path id="Ellipse 115 (Stroke)_23" fill-rule="evenodd" clip-rule="evenodd" d="M70.1426 134.783C71.8619 134.783 73.2558 136.177 73.2558 137.896C73.2558 139.616 71.8619 141.01 70.1426 141.01C68.4232 141.01 67.0294 139.616 67.0294 137.896C67.0294 136.177 68.4232 134.783 70.1426 134.783ZM76.0859 137.896C76.0859 134.614 73.425 131.953 70.1426 131.953C66.8601 131.953 64.1992 134.614 64.1992 137.896C64.1992 141.179 66.8601 143.84 70.1426 143.84C73.425 143.84 76.0859 141.179 76.0859 137.896Z" fill="#418A30" fill-opacity="0.3"/>
<path id="Ellipse 115 (Stroke)_24" fill-rule="evenodd" clip-rule="evenodd" d="M48.9238 100.83C50.6432 100.83 52.037 102.224 52.037 103.943C52.037 105.663 50.6432 107.057 48.9238 107.057C47.2044 107.057 45.8106 105.663 45.8106 103.943C45.8106 102.224 47.2044 100.83 48.9238 100.83ZM54.8672 103.943C54.8672 100.661 52.2062 98 48.9238 98C45.6414 98 42.9804 100.661 42.9804 103.943C42.9804 107.226 45.6414 109.887 48.9238 109.887C52.2062 109.887 54.8672 107.226 54.8672 103.943Z" fill="#418A30" fill-opacity="0.3"/>
<path id="Ellipse 115 (Stroke)_25" fill-rule="evenodd" clip-rule="evenodd" d="M48.9238 151.76C50.6432 151.76 52.037 153.154 52.037 154.873C52.037 156.592 50.6432 157.986 48.9238 157.986C47.2044 157.986 45.8106 156.592 45.8106 154.873C45.8106 153.154 47.2044 151.76 48.9238 151.76ZM54.8672 154.873C54.8672 151.591 52.2062 148.93 48.9238 148.93C45.6414 148.93 42.9804 151.591 42.9804 154.873C42.9804 158.155 45.6414 160.816 48.9238 160.816C52.2062 160.816 54.8672 158.155 54.8672 154.873Z" fill="#418A30" fill-opacity="0.3"/>
<path id="Ellipse 115 (Stroke)_26" fill-rule="evenodd" clip-rule="evenodd" d="M48.9238 117.807C50.6432 117.807 52.037 119.201 52.037 120.92C52.037 122.639 50.6432 124.033 48.9238 124.033C47.2044 124.033 45.8106 122.639 45.8106 120.92C45.8106 119.201 47.2044 117.807 48.9238 117.807ZM54.8672 120.92C54.8672 117.638 52.2062 114.977 48.9238 114.977C45.6414 114.977 42.9804 117.638 42.9804 120.92C42.9804 124.202 45.6414 126.863 48.9238 126.863C52.2062 126.863 54.8672 124.202 54.8672 120.92Z" fill="#418A30" fill-opacity="0.3"/>
<path id="Ellipse 115 (Stroke)_27" fill-rule="evenodd" clip-rule="evenodd" d="M48.9238 168.736C50.6432 168.736 52.037 170.13 52.037 171.85C52.037 173.569 50.6432 174.963 48.9238 174.963C47.2044 174.963 45.8106 173.569 45.8106 171.85C45.8106 170.13 47.2044 168.736 48.9238 168.736ZM54.8672 171.85C54.8672 168.567 52.2062 165.906 48.9238 165.906C45.6414 165.906 42.9804 168.567 42.9804 171.85C42.9804 175.132 45.6414 177.793 48.9238 177.793C52.2062 177.793 54.8672 175.132 54.8672 171.85Z" fill="#418A30" fill-opacity="0.3"/>
<path id="Ellipse 115 (Stroke)_28" fill-rule="evenodd" clip-rule="evenodd" d="M48.9238 134.783C50.6432 134.783 52.037 136.177 52.037 137.896C52.037 139.616 50.6432 141.01 48.9238 141.01C47.2044 141.01 45.8106 139.616 45.8106 137.896C45.8106 136.177 47.2044 134.783 48.9238 134.783ZM54.8672 137.896C54.8672 134.614 52.2062 131.953 48.9238 131.953C45.6414 131.953 42.9804 134.614 42.9804 137.896C42.9804 141.179 45.6414 143.84 48.9238 143.84C52.2062 143.84 54.8672 141.179 54.8672 137.896Z" fill="#418A30" fill-opacity="0.3"/>
<path id="Ellipse 115 (Stroke)_29" fill-rule="evenodd" clip-rule="evenodd" d="M27.7051 100.83C29.4244 100.83 30.8183 102.224 30.8183 103.943C30.8183 105.663 29.4244 107.057 27.7051 107.057C25.9857 107.057 24.5919 105.663 24.5919 103.943C24.5919 102.224 25.9857 100.83 27.7051 100.83ZM33.6484 103.943C33.6484 100.661 30.9875 98 27.7051 98C24.4226 98 21.7617 100.661 21.7617 103.943C21.7617 107.226 24.4226 109.887 27.7051 109.887C30.9875 109.887 33.6484 107.226 33.6484 103.943Z" fill="#418A30" fill-opacity="0.3"/>
<path id="Ellipse 115 (Stroke)_30" fill-rule="evenodd" clip-rule="evenodd" d="M27.7051 151.76C29.4244 151.76 30.8183 153.154 30.8183 154.873C30.8183 156.592 29.4244 157.986 27.7051 157.986C25.9857 157.986 24.5919 156.592 24.5919 154.873C24.5919 153.154 25.9857 151.76 27.7051 151.76ZM33.6484 154.873C33.6484 151.591 30.9875 148.93 27.7051 148.93C24.4226 148.93 21.7617 151.591 21.7617 154.873C21.7617 158.155 24.4226 160.816 27.7051 160.816C30.9875 160.816 33.6484 158.155 33.6484 154.873Z" fill="#418A30" fill-opacity="0.3"/>
<path id="Ellipse 115 (Stroke)_31" fill-rule="evenodd" clip-rule="evenodd" d="M27.7051 117.807C29.4244 117.807 30.8183 119.201 30.8183 120.92C30.8183 122.639 29.4244 124.033 27.7051 124.033C25.9857 124.033 24.5919 122.639 24.5919 120.92C24.5919 119.201 25.9857 117.807 27.7051 117.807ZM33.6484 120.92C33.6484 117.638 30.9875 114.977 27.7051 114.977C24.4226 114.977 21.7617 117.638 21.7617 120.92C21.7617 124.202 24.4226 126.863 27.7051 126.863C30.9875 126.863 33.6484 124.202 33.6484 120.92Z" fill="#418A30" fill-opacity="0.3"/>
<path id="Ellipse 115 (Stroke)_32" fill-rule="evenodd" clip-rule="evenodd" d="M27.7051 168.736C29.4244 168.736 30.8183 170.13 30.8183 171.85C30.8183 173.569 29.4244 174.963 27.7051 174.963C25.9857 174.963 24.5919 173.569 24.5919 171.85C24.5919 170.13 25.9857 168.736 27.7051 168.736ZM33.6484 171.85C33.6484 168.567 30.9875 165.906 27.7051 165.906C24.4226 165.906 21.7617 168.567 21.7617 171.85C21.7617 175.132 24.4226 177.793 27.7051 177.793C30.9875 177.793 33.6484 175.132 33.6484 171.85Z" fill="#418A30" fill-opacity="0.3"/>
<path id="Ellipse 115 (Stroke)_33" fill-rule="evenodd" clip-rule="evenodd" d="M27.7051 134.783C29.4244 134.783 30.8183 136.177 30.8183 137.896C30.8183 139.616 29.4244 141.01 27.7051 141.01C25.9857 141.01 24.5919 139.616 24.5919 137.896C24.5919 136.177 25.9857 134.783 27.7051 134.783ZM33.6484 137.896C33.6484 134.614 30.9875 131.953 27.7051 131.953C24.4226 131.953 21.7617 134.614 21.7617 137.896C21.7617 141.179 24.4226 143.84 27.7051 143.84C30.9875 143.84 33.6484 141.179 33.6484 137.896Z" fill="#418A30" fill-opacity="0.3"/>
<path id="Ellipse 115 (Stroke)_34" fill-rule="evenodd" clip-rule="evenodd" d="M6.48632 151.76C8.20569 151.76 9.59951 153.154 9.59951 154.873C9.59951 156.592 8.20569 157.986 6.48632 157.986C4.76695 157.986 3.37312 156.592 3.37312 154.873C3.37312 153.154 4.76695 151.76 6.48632 151.76ZM12.4297 154.873C12.4297 151.591 9.76875 148.93 6.48632 148.93C3.20388 148.93 0.542944 151.591 0.542944 154.873C0.542944 158.155 3.20388 160.816 6.48632 160.816C9.76875 160.816 12.4297 158.155 12.4297 154.873Z" fill="#418A30" fill-opacity="0.3"/>
<path id="Ellipse 115 (Stroke)_35" fill-rule="evenodd" clip-rule="evenodd" d="M6.48632 117.807C8.20569 117.807 9.59951 119.201 9.59951 120.92C9.59951 122.639 8.20569 124.033 6.48632 124.033C4.76695 124.033 3.37312 122.639 3.37312 120.92C3.37312 119.201 4.76695 117.807 6.48632 117.807ZM12.4297 120.92C12.4297 117.638 9.76875 114.977 6.48632 114.977C3.20388 114.977 0.542944 117.638 0.542944 120.92C0.542944 124.202 3.20388 126.863 6.48632 126.863C9.76875 126.863 12.4297 124.202 12.4297 120.92Z" fill="#418A30" fill-opacity="0.3"/>
<path id="Ellipse 115 (Stroke)_36" fill-rule="evenodd" clip-rule="evenodd" d="M6.48632 134.783C8.20569 134.783 9.59951 136.177 9.59951 137.896C9.59951 139.616 8.20569 141.01 6.48632 141.01C4.76695 141.01 3.37312 139.616 3.37312 137.896C3.37312 136.177 4.76695 134.783 6.48632 134.783ZM12.4297 137.896C12.4297 134.614 9.76875 131.953 6.48632 131.953C3.20388 131.953 0.542944 134.614 0.542944 137.896C0.542944 141.179 3.20388 143.84 6.48632 143.84C9.76875 143.84 12.4297 141.179 12.4297 137.896Z" fill="#418A30" fill-opacity="0.3"/>
</g>
<g id="Group 18140685">
<path id="Ellipse 115 (Stroke)_37" fill-rule="evenodd" clip-rule="evenodd" d="M99.3628 174.623C97.6434 174.623 96.2496 173.229 96.2496 171.51C96.2496 169.79 97.6434 168.397 99.3628 168.397C101.082 168.397 102.476 169.79 102.476 171.51C102.476 173.229 101.082 174.623 99.3628 174.623ZM93.4194 171.51C93.4194 174.792 96.0804 177.453 99.3628 177.453C102.645 177.453 105.306 174.792 105.306 171.51C105.306 168.227 102.645 165.566 99.3628 165.566C96.0804 165.566 93.4194 168.227 93.4194 171.51Z" fill="#A7D18F" fill-opacity="0.5"/>
<path id="Ellipse 115 (Stroke)_38" fill-rule="evenodd" clip-rule="evenodd" d="M99.3628 123.696C97.6434 123.696 96.2496 122.302 96.2496 120.583C96.2496 118.864 97.6434 117.47 99.3628 117.47C101.082 117.47 102.476 118.864 102.476 120.583C102.476 122.302 101.082 123.696 99.3628 123.696ZM93.4194 120.583C93.4194 123.865 96.0804 126.526 99.3628 126.526C102.645 126.526 105.306 123.865 105.306 120.583C105.306 117.3 102.645 114.64 99.3628 114.64C96.0804 114.64 93.4194 117.3 93.4194 120.583Z" fill="#A7D18F" fill-opacity="0.5"/>
<path id="Ellipse 115 (Stroke)_39" fill-rule="evenodd" clip-rule="evenodd" d="M99.3628 157.647C97.6434 157.647 96.2496 156.254 96.2496 154.534C96.2496 152.815 97.6434 151.421 99.3628 151.421C101.082 151.421 102.476 152.815 102.476 154.534C102.476 156.254 101.082 157.647 99.3628 157.647ZM93.4194 154.534C93.4194 157.817 96.0804 160.478 99.3628 160.478C102.645 160.478 105.306 157.817 105.306 154.534C105.306 151.252 102.645 148.591 99.3628 148.591C96.0804 148.591 93.4194 151.252 93.4194 154.534Z" fill="#A7D18F" fill-opacity="0.5"/>
<path id="Ellipse 115 (Stroke)_40" fill-rule="evenodd" clip-rule="evenodd" d="M99.3628 106.72C97.6434 106.72 96.2496 105.327 96.2496 103.607C96.2496 101.888 97.6434 100.494 99.3628 100.494C101.082 100.494 102.476 101.888 102.476 103.607C102.476 105.327 101.082 106.72 99.3628 106.72ZM93.4194 103.607C93.4194 106.89 96.0804 109.551 99.3628 109.551C102.645 109.551 105.306 106.89 105.306 103.607C105.306 100.325 102.645 97.6639 99.3628 97.6639C96.0804 97.6639 93.4194 100.325 93.4194 103.607Z" fill="#A7D18F" fill-opacity="0.5"/>
<path id="Ellipse 115 (Stroke)_41" fill-rule="evenodd" clip-rule="evenodd" d="M99.3628 140.672C97.6434 140.672 96.2496 139.278 96.2496 137.559C96.2496 135.839 97.6434 134.445 99.3628 134.445C101.082 134.445 102.476 135.839 102.476 137.559C102.476 139.278 101.082 140.672 99.3628 140.672ZM93.4194 137.559C93.4194 140.841 96.0804 143.502 99.3628 143.502C102.645 143.502 105.306 140.841 105.306 137.559C105.306 134.276 102.645 131.615 99.3628 131.615C96.0804 131.615 93.4194 134.276 93.4194 137.559Z" fill="#A7D18F" fill-opacity="0.5"/>
<path id="Ellipse 115 (Stroke)_42" fill-rule="evenodd" clip-rule="evenodd" d="M120.582 174.623C118.862 174.623 117.468 173.229 117.468 171.51C117.468 169.79 118.862 168.397 120.582 168.397C122.301 168.397 123.695 169.79 123.695 171.51C123.695 173.229 122.301 174.623 120.582 174.623ZM114.638 171.51C114.638 174.792 117.299 177.453 120.582 177.453C123.864 177.453 126.525 174.792 126.525 171.51C126.525 168.227 123.864 165.566 120.582 165.566C117.299 165.566 114.638 168.227 114.638 171.51Z" fill="#A7D18F" fill-opacity="0.5"/>
<path id="Ellipse 115 (Stroke)_43" fill-rule="evenodd" clip-rule="evenodd" d="M120.582 123.696C118.862 123.696 117.468 122.302 117.468 120.583C117.468 118.864 118.862 117.47 120.582 117.47C122.301 117.47 123.695 118.864 123.695 120.583C123.695 122.302 122.301 123.696 120.582 123.696ZM114.638 120.583C114.638 123.865 117.299 126.526 120.582 126.526C123.864 126.526 126.525 123.865 126.525 120.583C126.525 117.3 123.864 114.64 120.582 114.64C117.299 114.64 114.638 117.3 114.638 120.583Z" fill="#A7D18F" fill-opacity="0.5"/>
<path id="Ellipse 115 (Stroke)_44" fill-rule="evenodd" clip-rule="evenodd" d="M120.582 157.647C118.862 157.647 117.468 156.254 117.468 154.534C117.468 152.815 118.862 151.421 120.582 151.421C122.301 151.421 123.695 152.815 123.695 154.534C123.695 156.254 122.301 157.647 120.582 157.647ZM114.638 154.534C114.638 157.817 117.299 160.478 120.582 160.478C123.864 160.478 126.525 157.817 126.525 154.534C126.525 151.252 123.864 148.591 120.582 148.591C117.299 148.591 114.638 151.252 114.638 154.534Z" fill="#A7D18F" fill-opacity="0.5"/>
<path id="Ellipse 115 (Stroke)_45" fill-rule="evenodd" clip-rule="evenodd" d="M120.582 106.72C118.862 106.72 117.468 105.327 117.468 103.607C117.468 101.888 118.862 100.494 120.582 100.494C122.301 100.494 123.695 101.888 123.695 103.607C123.695 105.327 122.301 106.72 120.582 106.72ZM114.638 103.607C114.638 106.89 117.299 109.551 120.582 109.551C123.864 109.551 126.525 106.89 126.525 103.607C126.525 100.325 123.864 97.6639 120.582 97.6639C117.299 97.6639 114.638 100.325 114.638 103.607Z" fill="#A7D18F" fill-opacity="0.5"/>
<path id="Ellipse 115 (Stroke)_46" fill-rule="evenodd" clip-rule="evenodd" d="M120.582 140.672C118.862 140.672 117.468 139.278 117.468 137.559C117.468 135.839 118.862 134.445 120.582 134.445C122.301 134.445 123.695 135.839 123.695 137.559C123.695 139.278 122.301 140.672 120.582 140.672ZM114.638 137.559C114.638 140.841 117.299 143.502 120.582 143.502C123.864 143.502 126.525 140.841 126.525 137.559C126.525 134.276 123.864 131.615 120.582 131.615C117.299 131.615 114.638 134.276 114.638 137.559Z" fill="#A7D18F" fill-opacity="0.5"/>
<path id="Ellipse 115 (Stroke)_47" fill-rule="evenodd" clip-rule="evenodd" d="M141.8 174.623C140.081 174.623 138.687 173.229 138.687 171.51C138.687 169.79 140.081 168.397 141.8 168.397C143.52 168.397 144.913 169.79 144.913 171.51C144.913 173.229 143.52 174.623 141.8 174.623ZM135.857 171.51C135.857 174.792 138.518 177.453 141.8 177.453C145.083 177.453 147.744 174.792 147.744 171.51C147.744 168.227 145.083 165.566 141.8 165.566C138.518 165.566 135.857 168.227 135.857 171.51Z" fill="#A7D18F" fill-opacity="0.5"/>
<path id="Ellipse 115 (Stroke)_48" fill-rule="evenodd" clip-rule="evenodd" d="M141.8 123.696C140.081 123.696 138.687 122.302 138.687 120.583C138.687 118.864 140.081 117.47 141.8 117.47C143.52 117.47 144.913 118.864 144.913 120.583C144.913 122.302 143.52 123.696 141.8 123.696ZM135.857 120.583C135.857 123.865 138.518 126.526 141.8 126.526C145.083 126.526 147.744 123.865 147.744 120.583C147.744 117.3 145.083 114.64 141.8 114.64C138.518 114.64 135.857 117.3 135.857 120.583Z" fill="#A7D18F" fill-opacity="0.5"/>
<path id="Ellipse 115 (Stroke)_49" fill-rule="evenodd" clip-rule="evenodd" d="M141.8 157.647C140.081 157.647 138.687 156.254 138.687 154.534C138.687 152.815 140.081 151.421 141.8 151.421C143.52 151.421 144.913 152.815 144.913 154.534C144.913 156.254 143.52 157.647 141.8 157.647ZM135.857 154.534C135.857 157.817 138.518 160.478 141.8 160.478C145.083 160.478 147.744 157.817 147.744 154.534C147.744 151.252 145.083 148.591 141.8 148.591C138.518 148.591 135.857 151.252 135.857 154.534Z" fill="#A7D18F" fill-opacity="0.5"/>
<path id="Ellipse 115 (Stroke)_50" fill-rule="evenodd" clip-rule="evenodd" d="M141.8 106.72C140.081 106.72 138.687 105.327 138.687 103.607C138.687 101.888 140.081 100.494 141.8 100.494C143.52 100.494 144.913 101.888 144.913 103.607C144.913 105.327 143.52 106.72 141.8 106.72ZM135.857 103.607C135.857 106.89 138.518 109.551 141.8 109.551C145.083 109.551 147.744 106.89 147.744 103.607C147.744 100.325 145.083 97.6639 141.8 97.6639C138.518 97.6639 135.857 100.325 135.857 103.607Z" fill="#A7D18F" fill-opacity="0.5"/>
<path id="Ellipse 115 (Stroke)_51" fill-rule="evenodd" clip-rule="evenodd" d="M141.8 140.672C140.081 140.672 138.687 139.278 138.687 137.559C138.687 135.839 140.081 134.445 141.8 134.445C143.52 134.445 144.913 135.839 144.913 137.559C144.913 139.278 143.52 140.672 141.8 140.672ZM135.857 137.559C135.857 140.841 138.518 143.502 141.8 143.502C145.083 143.502 147.744 140.841 147.744 137.559C147.744 134.276 145.083 131.615 141.8 131.615C138.518 131.615 135.857 134.276 135.857 137.559Z" fill="#A7D18F" fill-opacity="0.5"/>
<path id="Ellipse 115 (Stroke)_52" fill-rule="evenodd" clip-rule="evenodd" d="M163.02 174.623C161.3 174.623 159.906 173.229 159.906 171.51C159.906 169.79 161.3 168.397 163.02 168.397C164.739 168.397 166.133 169.79 166.133 171.51C166.133 173.229 164.739 174.623 163.02 174.623ZM157.076 171.51C157.076 174.792 159.737 177.453 163.02 177.453C166.302 177.453 168.963 174.792 168.963 171.51C168.963 168.227 166.302 165.566 163.02 165.566C159.737 165.566 157.076 168.227 157.076 171.51Z" fill="#A7D18F" fill-opacity="0.5"/>
<path id="Ellipse 115 (Stroke)_53" fill-rule="evenodd" clip-rule="evenodd" d="M163.02 123.696C161.3 123.696 159.906 122.302 159.906 120.583C159.906 118.864 161.3 117.47 163.02 117.47C164.739 117.47 166.133 118.864 166.133 120.583C166.133 122.302 164.739 123.696 163.02 123.696ZM157.076 120.583C157.076 123.865 159.737 126.526 163.02 126.526C166.302 126.526 168.963 123.865 168.963 120.583C168.963 117.3 166.302 114.64 163.02 114.64C159.737 114.64 157.076 117.3 157.076 120.583Z" fill="#A7D18F" fill-opacity="0.5"/>
<path id="Ellipse 115 (Stroke)_54" fill-rule="evenodd" clip-rule="evenodd" d="M163.02 157.647C161.3 157.647 159.906 156.254 159.906 154.534C159.906 152.815 161.3 151.421 163.02 151.421C164.739 151.421 166.133 152.815 166.133 154.534C166.133 156.254 164.739 157.647 163.02 157.647ZM157.076 154.534C157.076 157.817 159.737 160.478 163.02 160.478C166.302 160.478 168.963 157.817 168.963 154.534C168.963 151.252 166.302 148.591 163.02 148.591C159.737 148.591 157.076 151.252 157.076 154.534Z" fill="#A7D18F" fill-opacity="0.5"/>
<path id="Ellipse 115 (Stroke)_55" fill-rule="evenodd" clip-rule="evenodd" d="M163.02 106.72C161.3 106.72 159.906 105.327 159.906 103.607C159.906 101.888 161.3 100.494 163.02 100.494C164.739 100.494 166.133 101.888 166.133 103.607C166.133 105.327 164.739 106.72 163.02 106.72ZM157.076 103.607C157.076 106.89 159.737 109.551 163.02 109.551C166.302 109.551 168.963 106.89 168.963 103.607C168.963 100.325 166.302 97.6639 163.02 97.6639C159.737 97.6639 157.076 100.325 157.076 103.607Z" fill="#A7D18F" fill-opacity="0.5"/>
<path id="Ellipse 115 (Stroke)_56" fill-rule="evenodd" clip-rule="evenodd" d="M163.02 140.672C161.3 140.672 159.906 139.278 159.906 137.559C159.906 135.839 161.3 134.445 163.02 134.445C164.739 134.445 166.133 135.839 166.133 137.559C166.133 139.278 164.739 140.672 163.02 140.672ZM157.076 137.559C157.076 140.841 159.737 143.502 163.02 143.502C166.302 143.502 168.963 140.841 168.963 137.559C168.963 134.276 166.302 131.615 163.02 131.615C159.737 131.615 157.076 134.276 157.076 137.559Z" fill="#A7D18F" fill-opacity="0.5"/>
</g>
</g>
</svg>
