<svg width="60" height="61" viewBox="0 0 60 61" fill="none" xmlns="http://www.w3.org/2000/svg">
<g id="Group 100">
<path id="Ellipse 112 (Stroke)" fill-rule="evenodd" clip-rule="evenodd" d="M45.9999 7.04994C41.9499 7.04994 38.6666 10.3334 38.6666 14.3838C38.6666 18.4342 41.9499 21.7176 45.9999 21.7176C50.05 21.7176 53.3332 18.4342 53.3332 14.3838C53.3332 10.3334 50.05 7.04994 45.9999 7.04994ZM32 14.3838C32 6.65126 38.268 0.382812 45.9999 0.382812C53.7319 0.382812 59.9999 6.65126 59.9999 14.3838C59.9999 22.1163 53.7319 28.3848 45.9999 28.3848C38.268 28.3848 32 22.1163 32 14.3838Z" fill="#418A30"/>
<path id="Ellipse 116 (Stroke)" fill-rule="evenodd" clip-rule="evenodd" d="M13.9999 7.04994C9.94987 7.04994 6.66664 10.3334 6.66664 14.3838C6.66664 18.4342 9.94987 21.7176 13.9999 21.7176C18.05 21.7176 21.3332 18.4342 21.3332 14.3838C21.3332 10.3334 18.05 7.04994 13.9999 7.04994ZM0 14.3838C0 6.65126 6.26798 0.382812 13.9999 0.382812C21.7319 0.382812 27.9999 6.65126 27.9999 14.3838C27.9999 22.1163 21.7319 28.3848 13.9999 28.3848C6.26798 28.3848 0 22.1163 0 14.3838Z" fill="#418A30"/>
<path id="Ellipse 115 (Stroke)" fill-rule="evenodd" clip-rule="evenodd" d="M45.9999 39.048C41.9499 39.048 38.6666 42.3315 38.6666 46.3818C38.6666 50.4322 41.9499 53.7157 45.9999 53.7157C50.05 53.7157 53.3332 50.4322 53.3332 46.3818C53.3332 42.3315 50.05 39.048 45.9999 39.048ZM32 46.3818C32 38.6493 38.268 32.3809 45.9999 32.3809C53.7319 32.3809 59.9999 38.6493 59.9999 46.3818C59.9999 54.1144 53.7319 60.3828 45.9999 60.3828C38.268 60.3828 32 54.1144 32 46.3818Z" fill="#418A30"/>
</g>
</svg>
