<svg width="260" height="375" viewBox="0 0 260 375" fill="none" xmlns="http://www.w3.org/2000/svg">
<path fill-rule="evenodd" clip-rule="evenodd" d="M5.60445 6.00212C1.95808 6.00212 -0.997881 8.95808 -0.997881 12.6045C-0.997881 16.2508 1.95808 19.2068 5.60445 19.2068C9.25082 19.2068 12.2068 16.2508 12.2068 12.6045C12.2068 8.95808 9.25082 6.00212 5.60445 6.00212ZM-7 12.6045C-7 5.6432 -1.3568 0 5.60445 0C12.5657 0 18.2089 5.6432 18.2089 12.6045C18.2089 19.5657 12.5657 25.2089 5.60445 25.2089C-1.3568 25.2089 -7 19.5657 -7 12.6045Z" fill="#418A30" fill-opacity="0.4"/>
<path fill-rule="evenodd" clip-rule="evenodd" d="M5.60445 114.002C1.95808 114.002 -0.997881 116.958 -0.997881 120.604C-0.997881 124.251 1.95808 127.207 5.60445 127.207C9.25082 127.207 12.2068 124.251 12.2068 120.604C12.2068 116.958 9.25082 114.002 5.60445 114.002ZM-7 120.604C-7 113.643 -1.3568 108 5.60445 108C12.5657 108 18.2089 113.643 18.2089 120.604C18.2089 127.566 12.5657 133.209 5.60445 133.209C-1.3568 133.209 -7 127.566 -7 120.604Z" fill="#418A30" fill-opacity="0.4"/>
<path fill-rule="evenodd" clip-rule="evenodd" d="M5.60445 42.0021C1.95808 42.0021 -0.997881 44.9581 -0.997881 48.6045C-0.997881 52.2508 1.95808 55.2068 5.60445 55.2068C9.25082 55.2068 12.2068 52.2508 12.2068 48.6045C12.2068 44.9581 9.25082 42.0021 5.60445 42.0021ZM-7 48.6045C-7 41.6432 -1.3568 36 5.60445 36C12.5657 36 18.2089 41.6432 18.2089 48.6045C18.2089 55.5657 12.5657 61.2089 5.60445 61.2089C-1.3568 61.2089 -7 55.5657 -7 48.6045Z" fill="#418A30" fill-opacity="0.4"/>
<path fill-rule="evenodd" clip-rule="evenodd" d="M5.60445 150.002C1.95808 150.002 -0.997881 152.958 -0.997881 156.604C-0.997881 160.251 1.95808 163.207 5.60445 163.207C9.25082 163.207 12.2068 160.251 12.2068 156.604C12.2068 152.958 9.25082 150.002 5.60445 150.002ZM-7 156.604C-7 149.643 -1.3568 144 5.60445 144C12.5657 144 18.2089 149.643 18.2089 156.604C18.2089 163.566 12.5657 169.209 5.60445 169.209C-1.3568 169.209 -7 163.566 -7 156.604Z" fill="#418A30" fill-opacity="0.4"/>
<path fill-rule="evenodd" clip-rule="evenodd" d="M5.60445 78.0021C1.95808 78.0021 -0.997881 80.9581 -0.997881 84.6045C-0.997881 88.2508 1.95808 91.2068 5.60445 91.2068C9.25082 91.2068 12.2068 88.2508 12.2068 84.6045C12.2068 80.9581 9.25082 78.0021 5.60445 78.0021ZM-7 84.6045C-7 77.6432 -1.3568 72 5.60445 72C12.5657 72 18.2089 77.6432 18.2089 84.6045C18.2089 91.5657 12.5657 97.2089 5.60445 97.2089C-1.3568 97.2089 -7 91.5657 -7 84.6045Z" fill="#418A30" fill-opacity="0.4"/>
<path fill-rule="evenodd" clip-rule="evenodd" d="M50.6045 114.002C46.9581 114.002 44.0021 116.958 44.0021 120.604C44.0021 124.251 46.9581 127.207 50.6045 127.207C54.2508 127.207 57.2068 124.251 57.2068 120.604C57.2068 116.958 54.2508 114.002 50.6045 114.002ZM38 120.604C38 113.643 43.6432 108 50.6045 108C57.5657 108 63.2089 113.643 63.2089 120.604C63.2089 127.566 57.5657 133.209 50.6045 133.209C43.6432 133.209 38 127.566 38 120.604Z" fill="#418A30" fill-opacity="0.4"/>
<path fill-rule="evenodd" clip-rule="evenodd" d="M50.6045 42.0021C46.9581 42.0021 44.0021 44.9581 44.0021 48.6045C44.0021 52.2508 46.9581 55.2068 50.6045 55.2068C54.2508 55.2068 57.2068 52.2508 57.2068 48.6045C57.2068 44.9581 54.2508 42.0021 50.6045 42.0021ZM38 48.6045C38 41.6432 43.6432 36 50.6045 36C57.5657 36 63.2089 41.6432 63.2089 48.6045C63.2089 55.5657 57.5657 61.2089 50.6045 61.2089C43.6432 61.2089 38 55.5657 38 48.6045Z" fill="#418A30" fill-opacity="0.4"/>
<path fill-rule="evenodd" clip-rule="evenodd" d="M50.6045 78.0021C46.9581 78.0021 44.0021 80.9581 44.0021 84.6045C44.0021 88.2508 46.9581 91.2068 50.6045 91.2068C54.2508 91.2068 57.2068 88.2508 57.2068 84.6045C57.2068 80.9581 54.2508 78.0021 50.6045 78.0021ZM38 84.6045C38 77.6432 43.6432 72 50.6045 72C57.5657 72 63.2089 77.6432 63.2089 84.6045C63.2089 91.5657 57.5657 97.2089 50.6045 97.2089C43.6432 97.2089 38 91.5657 38 84.6045Z" fill="#418A30" fill-opacity="0.4"/>
<path fill-rule="evenodd" clip-rule="evenodd" d="M111.604 114.002C107.958 114.002 105.002 116.958 105.002 120.604C105.002 124.251 107.958 127.207 111.604 127.207C115.251 127.207 118.207 124.251 118.207 120.604C118.207 116.958 115.251 114.002 111.604 114.002ZM99 120.604C99 113.643 104.643 108 111.604 108C118.566 108 124.209 113.643 124.209 120.604C124.209 127.566 118.566 133.209 111.604 133.209C104.643 133.209 99 127.566 99 120.604Z" fill="#418A30" fill-opacity="0.4"/>
<path fill-rule="evenodd" clip-rule="evenodd" d="M111.604 42.0021C107.958 42.0021 105.002 44.9581 105.002 48.6045C105.002 52.2508 107.958 55.2068 111.604 55.2068C115.251 55.2068 118.207 52.2508 118.207 48.6045C118.207 44.9581 115.251 42.0021 111.604 42.0021ZM99 48.6045C99 41.6432 104.643 36 111.604 36C118.566 36 124.209 41.6432 124.209 48.6045C124.209 55.5657 118.566 61.2089 111.604 61.2089C104.643 61.2089 99 55.5657 99 48.6045Z" fill="#418A30" fill-opacity="0.4"/>
<path fill-rule="evenodd" clip-rule="evenodd" d="M111.604 78.0021C107.958 78.0021 105.002 80.9581 105.002 84.6045C105.002 88.2508 107.958 91.2068 111.604 91.2068C115.251 91.2068 118.207 88.2508 118.207 84.6045C118.207 80.9581 115.251 78.0021 111.604 78.0021ZM99 84.6045C99 77.6432 104.643 72 111.604 72C118.566 72 124.209 77.6432 124.209 84.6045C124.209 91.5657 118.566 97.2089 111.604 97.2089C104.643 97.2089 99 91.5657 99 84.6045Z" fill="#418A30" fill-opacity="0.4"/>
<path fill-rule="evenodd" clip-rule="evenodd" d="M156.604 6.00212C152.958 6.00212 150.002 8.95808 150.002 12.6045C150.002 16.2508 152.958 19.2068 156.604 19.2068C160.251 19.2068 163.207 16.2508 163.207 12.6045C163.207 8.95808 160.251 6.00212 156.604 6.00212ZM144 12.6045C144 5.6432 149.643 0 156.604 0C163.566 0 169.209 5.6432 169.209 12.6045C169.209 19.5657 163.566 25.2089 156.604 25.2089C149.643 25.2089 144 19.5657 144 12.6045Z" fill="#418A30" fill-opacity="0.4"/>
<path fill-rule="evenodd" clip-rule="evenodd" d="M156.604 114.002C152.958 114.002 150.002 116.958 150.002 120.604C150.002 124.251 152.958 127.207 156.604 127.207C160.251 127.207 163.207 124.251 163.207 120.604C163.207 116.958 160.251 114.002 156.604 114.002ZM144 120.604C144 113.643 149.643 108 156.604 108C163.566 108 169.209 113.643 169.209 120.604C169.209 127.566 163.566 133.209 156.604 133.209C149.643 133.209 144 127.566 144 120.604Z" fill="#418A30" fill-opacity="0.4"/>
<path fill-rule="evenodd" clip-rule="evenodd" d="M156.604 42.0021C152.958 42.0021 150.002 44.9581 150.002 48.6045C150.002 52.2508 152.958 55.2068 156.604 55.2068C160.251 55.2068 163.207 52.2508 163.207 48.6045C163.207 44.9581 160.251 42.0021 156.604 42.0021ZM144 48.6045C144 41.6432 149.643 36 156.604 36C163.566 36 169.209 41.6432 169.209 48.6045C169.209 55.5657 163.566 61.2089 156.604 61.2089C149.643 61.2089 144 55.5657 144 48.6045Z" fill="#418A30" fill-opacity="0.4"/>
<path fill-rule="evenodd" clip-rule="evenodd" d="M156.604 150.002C152.958 150.002 150.002 152.958 150.002 156.604C150.002 160.251 152.958 163.207 156.604 163.207C160.251 163.207 163.207 160.251 163.207 156.604C163.207 152.958 160.251 150.002 156.604 150.002ZM144 156.604C144 149.643 149.643 144 156.604 144C163.566 144 169.209 149.643 169.209 156.604C169.209 163.566 163.566 169.209 156.604 169.209C149.643 169.209 144 163.566 144 156.604Z" fill="#418A30" fill-opacity="0.4"/>
<path fill-rule="evenodd" clip-rule="evenodd" d="M156.604 78.0021C152.958 78.0021 150.002 80.9581 150.002 84.6045C150.002 88.2508 152.958 91.2068 156.604 91.2068C160.251 91.2068 163.207 88.2508 163.207 84.6045C163.207 80.9581 160.251 78.0021 156.604 78.0021ZM144 84.6045C144 77.6432 149.643 72 156.604 72C163.566 72 169.209 77.6432 169.209 84.6045C169.209 91.5657 163.566 97.2089 156.604 97.2089C149.643 97.2089 144 91.5657 144 84.6045Z" fill="#418A30" fill-opacity="0.4"/>
<path fill-rule="evenodd" clip-rule="evenodd" d="M201.604 6.00212C197.958 6.00212 195.002 8.95808 195.002 12.6045C195.002 16.2508 197.958 19.2068 201.604 19.2068C205.251 19.2068 208.207 16.2508 208.207 12.6045C208.207 8.95808 205.251 6.00212 201.604 6.00212ZM189 12.6045C189 5.6432 194.643 0 201.604 0C208.566 0 214.209 5.6432 214.209 12.6045C214.209 19.5657 208.566 25.2089 201.604 25.2089C194.643 25.2089 189 19.5657 189 12.6045Z" fill="#418A30" fill-opacity="0.4"/>
<path fill-rule="evenodd" clip-rule="evenodd" d="M201.604 114.002C197.958 114.002 195.002 116.958 195.002 120.604C195.002 124.251 197.958 127.207 201.604 127.207C205.251 127.207 208.207 124.251 208.207 120.604C208.207 116.958 205.251 114.002 201.604 114.002ZM189 120.604C189 113.643 194.643 108 201.604 108C208.566 108 214.209 113.643 214.209 120.604C214.209 127.566 208.566 133.209 201.604 133.209C194.643 133.209 189 127.566 189 120.604Z" fill="#418A30" fill-opacity="0.4"/>
<path fill-rule="evenodd" clip-rule="evenodd" d="M201.604 42.0021C197.958 42.0021 195.002 44.9581 195.002 48.6045C195.002 52.2508 197.958 55.2068 201.604 55.2068C205.251 55.2068 208.207 52.2508 208.207 48.6045C208.207 44.9581 205.251 42.0021 201.604 42.0021ZM189 48.6045C189 41.6432 194.643 36 201.604 36C208.566 36 214.209 41.6432 214.209 48.6045C214.209 55.5657 208.566 61.2089 201.604 61.2089C194.643 61.2089 189 55.5657 189 48.6045Z" fill="#418A30" fill-opacity="0.4"/>
<path fill-rule="evenodd" clip-rule="evenodd" d="M201.604 150.002C197.958 150.002 195.002 152.958 195.002 156.604C195.002 160.251 197.958 163.207 201.604 163.207C205.251 163.207 208.207 160.251 208.207 156.604C208.207 152.958 205.251 150.002 201.604 150.002ZM189 156.604C189 149.643 194.643 144 201.604 144C208.566 144 214.209 149.643 214.209 156.604C214.209 163.566 208.566 169.209 201.604 169.209C194.643 169.209 189 163.566 189 156.604Z" fill="#418A30" fill-opacity="0.4"/>
<path fill-rule="evenodd" clip-rule="evenodd" d="M201.604 78.0021C197.958 78.0021 195.002 80.9581 195.002 84.6045C195.002 88.2508 197.958 91.2068 201.604 91.2068C205.251 91.2068 208.207 88.2508 208.207 84.6045C208.207 80.9581 205.251 78.0021 201.604 78.0021ZM189 84.6045C189 77.6432 194.643 72 201.604 72C208.566 72 214.209 77.6432 214.209 84.6045C214.209 91.5657 208.566 97.2089 201.604 97.2089C194.643 97.2089 189 91.5657 189 84.6045Z" fill="#418A30" fill-opacity="0.4"/>
<path fill-rule="evenodd" clip-rule="evenodd" d="M246.604 114.002C242.958 114.002 240.002 116.958 240.002 120.604C240.002 124.251 242.958 127.207 246.604 127.207C250.251 127.207 253.207 124.251 253.207 120.604C253.207 116.958 250.251 114.002 246.604 114.002ZM234 120.604C234 113.643 239.643 108 246.604 108C253.566 108 259.209 113.643 259.209 120.604C259.209 127.566 253.566 133.209 246.604 133.209C239.643 133.209 234 127.566 234 120.604Z" fill="#418A30" fill-opacity="0.4"/>
<path fill-rule="evenodd" clip-rule="evenodd" d="M246.604 42.0021C242.958 42.0021 240.002 44.9581 240.002 48.6045C240.002 52.2508 242.958 55.2068 246.604 55.2068C250.251 55.2068 253.207 52.2508 253.207 48.6045C253.207 44.9581 250.251 42.0021 246.604 42.0021ZM234 48.6045C234 41.6432 239.643 36 246.604 36C253.566 36 259.209 41.6432 259.209 48.6045C259.209 55.5657 253.566 61.2089 246.604 61.2089C239.643 61.2089 234 55.5657 234 48.6045Z" fill="#418A30" fill-opacity="0.4"/>
<path fill-rule="evenodd" clip-rule="evenodd" d="M246.604 78.0021C242.958 78.0021 240.002 80.9581 240.002 84.6045C240.002 88.2508 242.958 91.2068 246.604 91.2068C250.251 91.2068 253.207 88.2508 253.207 84.6045C253.207 80.9581 250.251 78.0021 246.604 78.0021ZM234 84.6045C234 77.6432 239.643 72 246.604 72C253.566 72 259.209 77.6432 259.209 84.6045C259.209 91.5657 253.566 97.2089 246.604 97.2089C239.643 97.2089 234 91.5657 234 84.6045Z" fill="#418A30" fill-opacity="0.4"/>
<path fill-rule="evenodd" clip-rule="evenodd" d="M111.604 319.002C107.958 319.002 105.002 321.958 105.002 325.604C105.002 329.251 107.958 332.207 111.604 332.207C115.251 332.207 118.207 329.251 118.207 325.604C118.207 321.958 115.251 319.002 111.604 319.002ZM99 325.604C99 318.643 104.643 313 111.604 313C118.566 313 124.209 318.643 124.209 325.604C124.209 332.566 118.566 338.209 111.604 338.209C104.643 338.209 99 332.566 99 325.604Z" fill="#418A30" fill-opacity="0.4"/>
<path fill-rule="evenodd" clip-rule="evenodd" d="M111.604 247.002C107.958 247.002 105.002 249.958 105.002 253.604C105.002 257.251 107.958 260.207 111.604 260.207C115.251 260.207 118.207 257.251 118.207 253.604C118.207 249.958 115.251 247.002 111.604 247.002ZM99 253.604C99 246.643 104.643 241 111.604 241C118.566 241 124.209 246.643 124.209 253.604C124.209 260.566 118.566 266.209 111.604 266.209C104.643 266.209 99 260.566 99 253.604Z" fill="#418A30" fill-opacity="0.4"/>
<path fill-rule="evenodd" clip-rule="evenodd" d="M111.604 283.002C107.958 283.002 105.002 285.958 105.002 289.604C105.002 293.251 107.958 296.207 111.604 296.207C115.251 296.207 118.207 293.251 118.207 289.604C118.207 285.958 115.251 283.002 111.604 283.002ZM99 289.604C99 282.643 104.643 277 111.604 277C118.566 277 124.209 282.643 124.209 289.604C124.209 296.566 118.566 302.209 111.604 302.209C104.643 302.209 99 296.566 99 289.604Z" fill="#418A30" fill-opacity="0.4"/>
<path fill-rule="evenodd" clip-rule="evenodd" d="M156.604 211.002C152.958 211.002 150.002 213.958 150.002 217.604C150.002 221.251 152.958 224.207 156.604 224.207C160.251 224.207 163.207 221.251 163.207 217.604C163.207 213.958 160.251 211.002 156.604 211.002ZM144 217.604C144 210.643 149.643 205 156.604 205C163.566 205 169.209 210.643 169.209 217.604C169.209 224.566 163.566 230.209 156.604 230.209C149.643 230.209 144 224.566 144 217.604Z" fill="#418A30" fill-opacity="0.4"/>
<path fill-rule="evenodd" clip-rule="evenodd" d="M156.604 319.002C152.958 319.002 150.002 321.958 150.002 325.604C150.002 329.251 152.958 332.207 156.604 332.207C160.251 332.207 163.207 329.251 163.207 325.604C163.207 321.958 160.251 319.002 156.604 319.002ZM144 325.604C144 318.643 149.643 313 156.604 313C163.566 313 169.209 318.643 169.209 325.604C169.209 332.566 163.566 338.209 156.604 338.209C149.643 338.209 144 332.566 144 325.604Z" fill="#418A30" fill-opacity="0.4"/>
<path fill-rule="evenodd" clip-rule="evenodd" d="M156.604 247.002C152.958 247.002 150.002 249.958 150.002 253.604C150.002 257.251 152.958 260.207 156.604 260.207C160.251 260.207 163.207 257.251 163.207 253.604C163.207 249.958 160.251 247.002 156.604 247.002ZM144 253.604C144 246.643 149.643 241 156.604 241C163.566 241 169.209 246.643 169.209 253.604C169.209 260.566 163.566 266.209 156.604 266.209C149.643 266.209 144 260.566 144 253.604Z" fill="#418A30" fill-opacity="0.4"/>
<path fill-rule="evenodd" clip-rule="evenodd" d="M156.604 355.002C152.958 355.002 150.002 357.958 150.002 361.604C150.002 365.251 152.958 368.207 156.604 368.207C160.251 368.207 163.207 365.251 163.207 361.604C163.207 357.958 160.251 355.002 156.604 355.002ZM144 361.604C144 354.643 149.643 349 156.604 349C163.566 349 169.209 354.643 169.209 361.604C169.209 368.566 163.566 374.209 156.604 374.209C149.643 374.209 144 368.566 144 361.604Z" fill="#418A30" fill-opacity="0.4"/>
<path fill-rule="evenodd" clip-rule="evenodd" d="M156.604 283.002C152.958 283.002 150.002 285.958 150.002 289.604C150.002 293.251 152.958 296.207 156.604 296.207C160.251 296.207 163.207 293.251 163.207 289.604C163.207 285.958 160.251 283.002 156.604 283.002ZM144 289.604C144 282.643 149.643 277 156.604 277C163.566 277 169.209 282.643 169.209 289.604C169.209 296.566 163.566 302.209 156.604 302.209C149.643 302.209 144 296.566 144 289.604Z" fill="#418A30" fill-opacity="0.4"/>
<path fill-rule="evenodd" clip-rule="evenodd" d="M201.604 211.002C197.958 211.002 195.002 213.958 195.002 217.604C195.002 221.251 197.958 224.207 201.604 224.207C205.251 224.207 208.207 221.251 208.207 217.604C208.207 213.958 205.251 211.002 201.604 211.002ZM189 217.604C189 210.643 194.643 205 201.604 205C208.566 205 214.209 210.643 214.209 217.604C214.209 224.566 208.566 230.209 201.604 230.209C194.643 230.209 189 224.566 189 217.604Z" fill="#418A30" fill-opacity="0.4"/>
<path fill-rule="evenodd" clip-rule="evenodd" d="M201.604 319.002C197.958 319.002 195.002 321.958 195.002 325.604C195.002 329.251 197.958 332.207 201.604 332.207C205.251 332.207 208.207 329.251 208.207 325.604C208.207 321.958 205.251 319.002 201.604 319.002ZM189 325.604C189 318.643 194.643 313 201.604 313C208.566 313 214.209 318.643 214.209 325.604C214.209 332.566 208.566 338.209 201.604 338.209C194.643 338.209 189 332.566 189 325.604Z" fill="#418A30" fill-opacity="0.4"/>
<path fill-rule="evenodd" clip-rule="evenodd" d="M201.604 247.002C197.958 247.002 195.002 249.958 195.002 253.604C195.002 257.251 197.958 260.207 201.604 260.207C205.251 260.207 208.207 257.251 208.207 253.604C208.207 249.958 205.251 247.002 201.604 247.002ZM189 253.604C189 246.643 194.643 241 201.604 241C208.566 241 214.209 246.643 214.209 253.604C214.209 260.566 208.566 266.209 201.604 266.209C194.643 266.209 189 260.566 189 253.604Z" fill="#418A30" fill-opacity="0.4"/>
<path fill-rule="evenodd" clip-rule="evenodd" d="M201.604 355.002C197.958 355.002 195.002 357.958 195.002 361.604C195.002 365.251 197.958 368.207 201.604 368.207C205.251 368.207 208.207 365.251 208.207 361.604C208.207 357.958 205.251 355.002 201.604 355.002ZM189 361.604C189 354.643 194.643 349 201.604 349C208.566 349 214.209 354.643 214.209 361.604C214.209 368.566 208.566 374.209 201.604 374.209C194.643 374.209 189 368.566 189 361.604Z" fill="#418A30" fill-opacity="0.4"/>
<path fill-rule="evenodd" clip-rule="evenodd" d="M201.604 283.002C197.958 283.002 195.002 285.958 195.002 289.604C195.002 293.251 197.958 296.207 201.604 296.207C205.251 296.207 208.207 293.251 208.207 289.604C208.207 285.958 205.251 283.002 201.604 283.002ZM189 289.604C189 282.643 194.643 277 201.604 277C208.566 277 214.209 282.643 214.209 289.604C214.209 296.566 208.566 302.209 201.604 302.209C194.643 302.209 189 296.566 189 289.604Z" fill="#418A30" fill-opacity="0.4"/>
<path fill-rule="evenodd" clip-rule="evenodd" d="M246.604 319.002C242.958 319.002 240.002 321.958 240.002 325.604C240.002 329.251 242.958 332.207 246.604 332.207C250.251 332.207 253.207 329.251 253.207 325.604C253.207 321.958 250.251 319.002 246.604 319.002ZM234 325.604C234 318.643 239.643 313 246.604 313C253.566 313 259.209 318.643 259.209 325.604C259.209 332.566 253.566 338.209 246.604 338.209C239.643 338.209 234 332.566 234 325.604Z" fill="#418A30" fill-opacity="0.4"/>
<path fill-rule="evenodd" clip-rule="evenodd" d="M246.604 247.002C242.958 247.002 240.002 249.958 240.002 253.604C240.002 257.251 242.958 260.207 246.604 260.207C250.251 260.207 253.207 257.251 253.207 253.604C253.207 249.958 250.251 247.002 246.604 247.002ZM234 253.604C234 246.643 239.643 241 246.604 241C253.566 241 259.209 246.643 259.209 253.604C259.209 260.566 253.566 266.209 246.604 266.209C239.643 266.209 234 260.566 234 253.604Z" fill="#418A30" fill-opacity="0.4"/>
<path fill-rule="evenodd" clip-rule="evenodd" d="M246.604 283.002C242.958 283.002 240.002 285.958 240.002 289.604C240.002 293.251 242.958 296.207 246.604 296.207C250.251 296.207 253.207 293.251 253.207 289.604C253.207 285.958 250.251 283.002 246.604 283.002ZM234 289.604C234 282.643 239.643 277 246.604 277C253.566 277 259.209 282.643 259.209 289.604C259.209 296.566 253.566 302.209 246.604 302.209C239.643 302.209 234 296.566 234 289.604Z" fill="#418A30" fill-opacity="0.4"/>
</svg>
