<svg width="894" height="148" viewBox="0 0 894 148" fill="none" xmlns="http://www.w3.org/2000/svg">
<path d="M0.683563 50V0.829996H7.94356L26.4236 26.438H22.7936L40.9436 0.829996H48.2036V50H40.4816V10.004L43.3856 10.796L24.8396 36.14H24.0476L5.89756 10.796L8.47156 10.004V50H0.683563ZM74.8691 50.792C71.4371 50.792 68.2911 49.978 65.4311 48.35C62.6151 46.722 60.3711 44.5 58.6991 41.684C57.0271 38.868 56.1911 35.678 56.1911 32.114C56.1911 28.506 57.0271 25.316 58.6991 22.544C60.3711 19.728 62.6151 17.528 65.4311 15.944C68.2471 14.316 71.3931 13.502 74.8691 13.502C78.3891 13.502 81.5351 14.316 84.3071 15.944C87.1231 17.528 89.3451 19.728 90.9731 22.544C92.6451 25.316 93.4811 28.506 93.4811 32.114C93.4811 35.722 92.6451 38.934 90.9731 41.75C89.3011 44.566 87.0571 46.788 84.2411 48.416C81.4251 50 78.3011 50.792 74.8691 50.792ZM74.8691 43.862C76.9811 43.862 78.8511 43.356 80.4791 42.344C82.1071 41.332 83.3831 39.946 84.3071 38.186C85.2751 36.382 85.7591 34.358 85.7591 32.114C85.7591 29.87 85.2751 27.868 84.3071 26.108C83.3831 24.348 82.1071 22.962 80.4791 21.95C78.8511 20.938 76.9811 20.432 74.8691 20.432C72.8011 20.432 70.9311 20.938 69.2591 21.95C67.6311 22.962 66.3331 24.348 65.3651 26.108C64.4411 27.868 63.9791 29.87 63.9791 32.114C63.9791 34.358 64.4411 36.382 65.3651 38.186C66.3331 39.946 67.6311 41.332 69.2591 42.344C70.9311 43.356 72.8011 43.862 74.8691 43.862ZM119.836 50.792C117.064 50.792 114.534 50.22 112.246 49.076C110.002 47.932 108.264 46.282 107.032 44.126L107.89 42.74V50H100.762V0.0379981H108.22V21.686L107.032 19.97C108.352 17.946 110.112 16.362 112.312 15.218C114.512 14.074 117.02 13.502 119.836 13.502C123.224 13.502 126.26 14.316 128.944 15.944C131.672 17.572 133.806 19.794 135.346 22.61C136.93 25.426 137.722 28.594 137.722 32.114C137.722 35.634 136.93 38.802 135.346 41.618C133.806 44.434 131.694 46.678 129.01 48.35C126.326 49.978 123.268 50.792 119.836 50.792ZM119.11 43.862C121.222 43.862 123.092 43.356 124.72 42.344C126.348 41.332 127.624 39.946 128.548 38.186C129.516 36.382 130 34.358 130 32.114C130 29.87 129.516 27.868 128.548 26.108C127.624 24.348 126.348 22.962 124.72 21.95C123.092 20.938 121.222 20.432 119.11 20.432C117.042 20.432 115.172 20.938 113.5 21.95C111.872 22.962 110.574 24.348 109.606 26.108C108.682 27.868 108.22 29.87 108.22 32.114C108.22 34.358 108.682 36.382 109.606 38.186C110.574 39.946 111.872 41.332 113.5 42.344C115.172 43.356 117.042 43.862 119.11 43.862ZM144.977 50V14.294H152.435V50H144.977ZM144.977 9.41V0.829996H152.435V9.41H144.977ZM161.155 50V0.0379981H168.613V50H161.155ZM194.097 50.792C190.533 50.792 187.365 49.978 184.593 48.35C181.865 46.678 179.731 44.434 178.191 41.618C176.651 38.758 175.881 35.568 175.881 32.048C175.881 28.44 176.651 25.25 178.191 22.478C179.775 19.706 181.887 17.528 184.527 15.944C187.167 14.316 190.159 13.502 193.503 13.502C196.187 13.502 198.585 13.964 200.697 14.888C202.809 15.812 204.591 17.088 206.043 18.716C207.495 20.3 208.595 22.126 209.343 24.194C210.135 26.262 210.531 28.462 210.531 30.794C210.531 31.366 210.509 31.96 210.465 32.576C210.421 33.192 210.333 33.764 210.201 34.292H181.755V28.352H205.977L202.413 31.058C202.853 28.902 202.699 26.988 201.951 25.316C201.247 23.6 200.147 22.258 198.651 21.29C197.199 20.278 195.483 19.772 193.503 19.772C191.523 19.772 189.763 20.278 188.223 21.29C186.683 22.258 185.495 23.666 184.659 25.514C183.823 27.318 183.493 29.518 183.669 32.114C183.449 34.534 183.779 36.646 184.659 38.45C185.583 40.254 186.859 41.662 188.487 42.674C190.159 43.686 192.051 44.192 194.163 44.192C196.319 44.192 198.145 43.708 199.641 42.74C201.181 41.772 202.391 40.518 203.271 38.978L209.343 41.948C208.639 43.62 207.539 45.138 206.043 46.502C204.591 47.822 202.831 48.878 200.763 49.67C198.739 50.418 196.517 50.792 194.097 50.792ZM238.784 50V7.76H225.716V0.829996H259.376V7.76H246.506V50H238.784ZM276.597 50.792C273.033 50.792 269.865 49.978 267.093 48.35C264.365 46.678 262.231 44.434 260.691 41.618C259.151 38.758 258.381 35.568 258.381 32.048C258.381 28.44 259.151 25.25 260.691 22.478C262.275 19.706 264.387 17.528 267.027 15.944C269.667 14.316 272.659 13.502 276.003 13.502C278.687 13.502 281.085 13.964 283.197 14.888C285.309 15.812 287.091 17.088 288.543 18.716C289.995 20.3 291.095 22.126 291.843 24.194C292.635 26.262 293.031 28.462 293.031 30.794C293.031 31.366 293.009 31.96 292.965 32.576C292.921 33.192 292.833 33.764 292.701 34.292H264.255V28.352H288.477L284.913 31.058C285.353 28.902 285.199 26.988 284.451 25.316C283.747 23.6 282.647 22.258 281.151 21.29C279.699 20.278 277.983 19.772 276.003 19.772C274.023 19.772 272.263 20.278 270.723 21.29C269.183 22.258 267.995 23.666 267.159 25.514C266.323 27.318 265.993 29.518 266.169 32.114C265.949 34.534 266.279 36.646 267.159 38.45C268.083 40.254 269.359 41.662 270.987 42.674C272.659 43.686 274.551 44.192 276.663 44.192C278.819 44.192 280.645 43.708 282.141 42.74C283.681 41.772 284.891 40.518 285.771 38.978L291.843 41.948C291.139 43.62 290.039 45.138 288.543 46.502C287.091 47.822 285.331 48.878 283.263 49.67C281.239 50.418 279.017 50.792 276.597 50.792ZM313.509 50.792C309.857 50.792 306.645 49.89 303.873 48.086C301.145 46.282 299.231 43.862 298.131 40.826L303.873 38.12C304.841 40.144 306.161 41.75 307.833 42.938C309.549 44.126 311.441 44.72 313.509 44.72C315.269 44.72 316.699 44.324 317.799 43.532C318.899 42.74 319.449 41.662 319.449 40.298C319.449 39.418 319.207 38.714 318.723 38.186C318.239 37.614 317.623 37.152 316.875 36.8C316.171 36.448 315.445 36.184 314.697 36.008L309.087 34.424C306.007 33.544 303.697 32.224 302.157 30.464C300.661 28.66 299.913 26.57 299.913 24.194C299.913 22.038 300.463 20.168 301.563 18.584C302.663 16.956 304.181 15.702 306.117 14.822C308.053 13.942 310.231 13.502 312.651 13.502C315.907 13.502 318.811 14.316 321.363 15.944C323.915 17.528 325.719 19.75 326.775 22.61L321.033 25.316C320.329 23.6 319.207 22.236 317.667 21.224C316.171 20.212 314.477 19.706 312.585 19.706C310.957 19.706 309.659 20.102 308.691 20.894C307.723 21.642 307.239 22.632 307.239 23.864C307.239 24.7 307.459 25.404 307.899 25.976C308.339 26.504 308.911 26.944 309.615 27.296C310.319 27.604 311.045 27.868 311.793 28.088L317.601 29.804C320.549 30.64 322.815 31.96 324.399 33.764C325.983 35.524 326.775 37.636 326.775 40.1C326.775 42.212 326.203 44.082 325.059 45.71C323.959 47.294 322.419 48.548 320.439 49.472C318.459 50.352 316.149 50.792 313.509 50.792ZM349.527 50.396C345.787 50.396 342.883 49.34 340.815 47.228C338.747 45.116 337.713 42.146 337.713 38.318V21.026H331.443V14.294H332.433C334.105 14.294 335.403 13.81 336.327 12.842C337.251 11.874 337.713 10.554 337.713 8.882V6.11H345.171V14.294H353.289V21.026H345.171V37.988C345.171 39.22 345.369 40.276 345.765 41.156C346.161 41.992 346.799 42.652 347.679 43.136C348.559 43.576 349.703 43.796 351.111 43.796C351.463 43.796 351.859 43.774 352.299 43.73C352.739 43.686 353.157 43.642 353.553 43.598V50C352.937 50.088 352.255 50.176 351.507 50.264C350.759 50.352 350.099 50.396 349.527 50.396ZM360.831 50V14.294H368.289V50H360.831ZM360.831 9.41V0.829996H368.289V9.41H360.831ZM377.008 50V14.294H384.136V21.29L383.278 20.366C384.158 18.122 385.566 16.428 387.502 15.284C389.438 14.096 391.682 13.502 394.234 13.502C396.874 13.502 399.206 14.074 401.23 15.218C403.254 16.362 404.838 17.946 405.982 19.97C407.126 21.994 407.698 24.326 407.698 26.966V50H400.306V28.946C400.306 27.142 399.976 25.624 399.316 24.392C398.656 23.116 397.71 22.148 396.478 21.488C395.29 20.784 393.926 20.432 392.386 20.432C390.846 20.432 389.46 20.784 388.228 21.488C387.04 22.148 386.116 23.116 385.456 24.392C384.796 25.668 384.466 27.186 384.466 28.946V50H377.008ZM432.906 64.52C430.31 64.52 427.912 64.102 425.712 63.266C423.512 62.43 421.62 61.264 420.036 59.768C418.452 58.316 417.264 56.6 416.472 54.62L423.336 51.782C423.952 53.454 425.074 54.84 426.702 55.94C428.374 57.04 430.42 57.59 432.84 57.59C434.732 57.59 436.426 57.216 437.922 56.468C439.418 55.764 440.606 54.708 441.486 53.3C442.366 51.936 442.806 50.286 442.806 48.35V40.298L444.126 41.816C442.894 44.104 441.178 45.842 438.978 47.03C436.822 48.218 434.38 48.812 431.652 48.812C428.352 48.812 425.382 48.042 422.742 46.502C420.102 44.962 418.012 42.85 416.472 40.166C414.976 37.482 414.228 34.468 414.228 31.124C414.228 27.736 414.976 24.722 416.472 22.082C418.012 19.442 420.08 17.352 422.676 15.812C425.272 14.272 428.242 13.502 431.586 13.502C434.314 13.502 436.734 14.096 438.846 15.284C441.002 16.428 442.762 18.1 444.126 20.3L443.136 22.148V14.294H450.198V48.35C450.198 51.43 449.45 54.18 447.954 56.6C446.502 59.064 444.478 61 441.882 62.408C439.286 63.816 436.294 64.52 432.906 64.52ZM432.51 41.882C434.49 41.882 436.25 41.42 437.79 40.496C439.33 39.528 440.54 38.252 441.42 36.668C442.344 35.04 442.806 33.214 442.806 31.19C442.806 29.166 442.344 27.34 441.42 25.712C440.496 24.084 439.264 22.808 437.724 21.884C436.184 20.916 434.446 20.432 432.51 20.432C430.486 20.432 428.682 20.916 427.098 21.884C425.514 22.808 424.26 24.084 423.336 25.712C422.456 27.296 422.016 29.122 422.016 31.19C422.016 33.17 422.456 34.974 423.336 36.602C424.26 38.23 425.514 39.528 427.098 40.496C428.682 41.42 430.486 41.882 432.51 41.882ZM483.665 50.792C480.013 50.792 476.801 49.89 474.029 48.086C471.301 46.282 469.387 43.862 468.287 40.826L474.029 38.12C474.997 40.144 476.317 41.75 477.989 42.938C479.705 44.126 481.597 44.72 483.665 44.72C485.425 44.72 486.855 44.324 487.955 43.532C489.055 42.74 489.605 41.662 489.605 40.298C489.605 39.418 489.363 38.714 488.879 38.186C488.395 37.614 487.779 37.152 487.031 36.8C486.327 36.448 485.601 36.184 484.853 36.008L479.243 34.424C476.163 33.544 473.853 32.224 472.313 30.464C470.817 28.66 470.069 26.57 470.069 24.194C470.069 22.038 470.619 20.168 471.719 18.584C472.819 16.956 474.337 15.702 476.273 14.822C478.209 13.942 480.387 13.502 482.807 13.502C486.063 13.502 488.967 14.316 491.519 15.944C494.071 17.528 495.875 19.75 496.931 22.61L491.189 25.316C490.485 23.6 489.363 22.236 487.823 21.224C486.327 20.212 484.633 19.706 482.741 19.706C481.113 19.706 479.815 20.102 478.847 20.894C477.879 21.642 477.395 22.632 477.395 23.864C477.395 24.7 477.615 25.404 478.055 25.976C478.495 26.504 479.067 26.944 479.771 27.296C480.475 27.604 481.201 27.868 481.949 28.088L487.757 29.804C490.705 30.64 492.971 31.96 494.555 33.764C496.139 35.524 496.931 37.636 496.931 40.1C496.931 42.212 496.359 44.082 495.215 45.71C494.115 47.294 492.575 48.548 490.595 49.472C488.615 50.352 486.305 50.792 483.665 50.792ZM504.239 50V0.0379981H511.697V21.29L510.509 20.366C511.389 18.122 512.797 16.428 514.733 15.284C516.669 14.096 518.913 13.502 521.465 13.502C524.105 13.502 526.437 14.074 528.461 15.218C530.485 16.362 532.069 17.946 533.213 19.97C534.357 21.994 534.929 24.304 534.929 26.9V50H527.537V28.946C527.537 27.142 527.185 25.624 526.481 24.392C525.821 23.116 524.897 22.148 523.709 21.488C522.521 20.784 521.157 20.432 519.617 20.432C518.121 20.432 516.757 20.784 515.525 21.488C514.337 22.148 513.391 23.116 512.687 24.392C512.027 25.668 511.697 27.186 511.697 28.946V50H504.239ZM560.137 50.792C556.705 50.792 553.559 49.978 550.699 48.35C547.883 46.722 545.639 44.5 543.967 41.684C542.295 38.868 541.459 35.678 541.459 32.114C541.459 28.506 542.295 25.316 543.967 22.544C545.639 19.728 547.883 17.528 550.699 15.944C553.515 14.316 556.661 13.502 560.137 13.502C563.657 13.502 566.803 14.316 569.575 15.944C572.391 17.528 574.613 19.728 576.241 22.544C577.913 25.316 578.749 28.506 578.749 32.114C578.749 35.722 577.913 38.934 576.241 41.75C574.569 44.566 572.325 46.788 569.509 48.416C566.693 50 563.569 50.792 560.137 50.792ZM560.137 43.862C562.249 43.862 564.119 43.356 565.747 42.344C567.375 41.332 568.651 39.946 569.575 38.186C570.543 36.382 571.027 34.358 571.027 32.114C571.027 29.87 570.543 27.868 569.575 26.108C568.651 24.348 567.375 22.962 565.747 21.95C564.119 20.938 562.249 20.432 560.137 20.432C558.069 20.432 556.199 20.938 554.527 21.95C552.899 22.962 551.601 24.348 550.633 26.108C549.709 27.868 549.247 29.87 549.247 32.114C549.247 34.358 549.709 36.382 550.633 38.186C551.601 39.946 552.899 41.332 554.527 42.344C556.199 43.356 558.069 43.862 560.137 43.862ZM598.768 50.792C596.084 50.792 593.73 50.198 591.706 49.01C589.682 47.778 588.098 46.084 586.954 43.928C585.854 41.728 585.304 39.198 585.304 36.338V14.294H592.762V35.678C592.762 37.306 593.092 38.736 593.752 39.968C594.412 41.2 595.336 42.168 596.524 42.872C597.712 43.532 599.076 43.862 600.616 43.862C602.2 43.862 603.586 43.51 604.774 42.806C605.962 42.102 606.886 41.112 607.546 39.836C608.25 38.56 608.602 37.064 608.602 35.348V14.294H615.994V50H608.932V43.004L609.724 43.928C608.888 46.128 607.502 47.822 605.566 49.01C603.63 50.198 601.364 50.792 598.768 50.792ZM624.702 50V0.0379981H632.16V50H624.702ZM657.379 50.792C653.947 50.792 650.867 49.978 648.139 48.35C645.455 46.678 643.321 44.434 641.737 41.618C640.197 38.802 639.427 35.634 639.427 32.114C639.427 28.594 640.219 25.426 641.803 22.61C643.387 19.794 645.521 17.572 648.205 15.944C650.889 14.316 653.925 13.502 657.313 13.502C660.173 13.502 662.703 14.074 664.903 15.218C667.103 16.362 668.841 17.946 670.117 19.97L668.995 21.686V0.0379981H676.387V50H669.325V42.74L670.183 44.126C668.951 46.282 667.191 47.932 664.903 49.076C662.615 50.22 660.107 50.792 657.379 50.792ZM658.105 43.862C660.173 43.862 662.021 43.356 663.649 42.344C665.321 41.332 666.619 39.946 667.543 38.186C668.511 36.382 668.995 34.358 668.995 32.114C668.995 29.87 668.511 27.868 667.543 26.108C666.619 24.348 665.321 22.962 663.649 21.95C662.021 20.938 660.173 20.432 658.105 20.432C656.037 20.432 654.167 20.938 652.495 21.95C650.823 22.962 649.525 24.348 648.601 26.108C647.677 27.868 647.215 29.87 647.215 32.114C647.215 34.358 647.677 36.382 648.601 38.186C649.525 39.946 650.801 41.332 652.429 42.344C654.101 43.356 655.993 43.862 658.105 43.862ZM696.631 50V14.294H703.759V21.29L702.901 20.366C703.781 18.122 705.189 16.428 707.125 15.284C709.061 14.096 711.305 13.502 713.857 13.502C716.497 13.502 718.829 14.074 720.853 15.218C722.877 16.362 724.461 17.946 725.605 19.97C726.749 21.994 727.321 24.326 727.321 26.966V50H719.929V28.946C719.929 27.142 719.599 25.624 718.939 24.392C718.279 23.116 717.333 22.148 716.101 21.488C714.913 20.784 713.549 20.432 712.009 20.432C710.469 20.432 709.083 20.784 707.851 21.488C706.663 22.148 705.739 23.116 705.079 24.392C704.419 25.668 704.089 27.186 704.089 28.946V50H696.631ZM752.529 50.792C749.097 50.792 745.951 49.978 743.091 48.35C740.275 46.722 738.031 44.5 736.359 41.684C734.687 38.868 733.851 35.678 733.851 32.114C733.851 28.506 734.687 25.316 736.359 22.544C738.031 19.728 740.275 17.528 743.091 15.944C745.907 14.316 749.053 13.502 752.529 13.502C756.049 13.502 759.195 14.316 761.967 15.944C764.783 17.528 767.005 19.728 768.633 22.544C770.305 25.316 771.141 28.506 771.141 32.114C771.141 35.722 770.305 38.934 768.633 41.75C766.961 44.566 764.717 46.788 761.901 48.416C759.085 50 755.961 50.792 752.529 50.792ZM752.529 43.862C754.641 43.862 756.511 43.356 758.139 42.344C759.767 41.332 761.043 39.946 761.967 38.186C762.935 36.382 763.419 34.358 763.419 32.114C763.419 29.87 762.935 27.868 761.967 26.108C761.043 24.348 759.767 22.962 758.139 21.95C756.511 20.938 754.641 20.432 752.529 20.432C750.461 20.432 748.591 20.938 746.919 21.95C745.291 22.962 743.993 24.348 743.025 26.108C742.101 27.868 741.639 29.87 741.639 32.114C741.639 34.358 742.101 36.382 743.025 38.186C743.993 39.946 745.291 41.332 746.919 42.344C748.591 43.356 750.461 43.862 752.529 43.862ZM793.222 50.396C789.482 50.396 786.578 49.34 784.51 47.228C782.442 45.116 781.408 42.146 781.408 38.318V21.026H775.138V14.294H776.128C777.8 14.294 779.098 13.81 780.022 12.842C780.946 11.874 781.408 10.554 781.408 8.882V6.11H788.866V14.294H796.984V21.026H788.866V37.988C788.866 39.22 789.064 40.276 789.46 41.156C789.856 41.992 790.494 42.652 791.374 43.136C792.254 43.576 793.398 43.796 794.806 43.796C795.158 43.796 795.554 43.774 795.994 43.73C796.434 43.686 796.852 43.642 797.248 43.598V50C796.632 50.088 795.95 50.176 795.202 50.264C794.454 50.352 793.794 50.396 793.222 50.396ZM835.137 50.792C832.365 50.792 829.835 50.22 827.547 49.076C825.303 47.932 823.565 46.282 822.333 44.126L823.191 42.74V50H816.063V0.0379981H823.521V21.686L822.333 19.97C823.653 17.946 825.413 16.362 827.613 15.218C829.813 14.074 832.321 13.502 835.137 13.502C838.525 13.502 841.561 14.316 844.245 15.944C846.973 17.572 849.107 19.794 850.647 22.61C852.231 25.426 853.023 28.594 853.023 32.114C853.023 35.634 852.231 38.802 850.647 41.618C849.107 44.434 846.995 46.678 844.311 48.35C841.627 49.978 838.569 50.792 835.137 50.792ZM834.411 43.862C836.523 43.862 838.393 43.356 840.021 42.344C841.649 41.332 842.925 39.946 843.849 38.186C844.817 36.382 845.301 34.358 845.301 32.114C845.301 29.87 844.817 27.868 843.849 26.108C842.925 24.348 841.649 22.962 840.021 21.95C838.393 20.938 836.523 20.432 834.411 20.432C832.343 20.432 830.473 20.938 828.801 21.95C827.173 22.962 825.875 24.348 824.907 26.108C823.983 27.868 823.521 29.87 823.521 32.114C823.521 34.358 823.983 36.382 824.907 38.186C825.875 39.946 827.173 41.332 828.801 42.344C830.473 43.356 832.343 43.862 834.411 43.862ZM877.042 50.792C873.478 50.792 870.31 49.978 867.538 48.35C864.81 46.678 862.676 44.434 861.136 41.618C859.596 38.758 858.826 35.568 858.826 32.048C858.826 28.44 859.596 25.25 861.136 22.478C862.72 19.706 864.832 17.528 867.472 15.944C870.112 14.316 873.104 13.502 876.448 13.502C879.132 13.502 881.53 13.964 883.642 14.888C885.754 15.812 887.536 17.088 888.988 18.716C890.44 20.3 891.54 22.126 892.288 24.194C893.08 26.262 893.476 28.462 893.476 30.794C893.476 31.366 893.454 31.96 893.41 32.576C893.366 33.192 893.278 33.764 893.146 34.292H864.7V28.352H888.922L885.358 31.058C885.798 28.902 885.644 26.988 884.896 25.316C884.192 23.6 883.092 22.258 881.596 21.29C880.144 20.278 878.428 19.772 876.448 19.772C874.468 19.772 872.708 20.278 871.168 21.29C869.628 22.258 868.44 23.666 867.604 25.514C866.768 27.318 866.438 29.518 866.614 32.114C866.394 34.534 866.724 36.646 867.604 38.45C868.528 40.254 869.804 41.662 871.432 42.674C873.104 43.686 874.996 44.192 877.108 44.192C879.264 44.192 881.09 43.708 882.586 42.74C884.126 41.772 885.336 40.518 886.216 38.978L892.288 41.948C891.584 43.62 890.484 45.138 888.988 46.502C887.536 47.822 885.776 48.878 883.708 49.67C881.684 50.418 879.462 50.792 877.042 50.792ZM193.369 133.792C189.717 133.792 186.505 132.89 183.733 131.086C181.005 129.282 179.091 126.862 177.99 123.826L183.733 121.12C184.701 123.144 186.021 124.75 187.693 125.938C189.409 127.126 191.301 127.72 193.369 127.72C195.129 127.72 196.559 127.324 197.659 126.532C198.759 125.74 199.309 124.662 199.309 123.298C199.309 122.418 199.067 121.714 198.583 121.186C198.099 120.614 197.483 120.152 196.735 119.8C196.031 119.448 195.305 119.184 194.557 119.008L188.947 117.424C185.867 116.544 183.557 115.224 182.017 113.464C180.521 111.66 179.773 109.57 179.773 107.194C179.773 105.038 180.323 103.168 181.423 101.584C182.523 99.956 184.041 98.702 185.977 97.822C187.913 96.942 190.091 96.502 192.511 96.502C195.767 96.502 198.671 97.316 201.223 98.944C203.775 100.528 205.579 102.75 206.635 105.61L200.893 108.316C200.189 106.6 199.067 105.236 197.527 104.224C196.031 103.212 194.337 102.706 192.445 102.706C190.817 102.706 189.519 103.102 188.551 103.894C187.583 104.642 187.099 105.632 187.099 106.864C187.099 107.7 187.319 108.404 187.759 108.976C188.199 109.504 188.771 109.944 189.475 110.296C190.179 110.604 190.905 110.868 191.653 111.088L197.461 112.804C200.409 113.64 202.675 114.96 204.259 116.764C205.843 118.524 206.635 120.636 206.635 123.1C206.635 125.212 206.063 127.082 204.919 128.71C203.819 130.294 202.279 131.548 200.299 132.472C198.319 133.352 196.009 133.792 193.369 133.792ZM213.942 133V83.038H221.4V133H213.942ZM247.346 133.792C243.914 133.792 240.768 132.978 237.908 131.35C235.092 129.722 232.848 127.5 231.176 124.684C229.504 121.868 228.668 118.678 228.668 115.114C228.668 111.506 229.504 108.316 231.176 105.544C232.848 102.728 235.092 100.528 237.908 98.944C240.724 97.316 243.87 96.502 247.346 96.502C250.866 96.502 254.012 97.316 256.784 98.944C259.6 100.528 261.822 102.728 263.45 105.544C265.122 108.316 265.958 111.506 265.958 115.114C265.958 118.722 265.122 121.934 263.45 124.75C261.778 127.566 259.534 129.788 256.718 131.416C253.902 133 250.778 133.792 247.346 133.792ZM247.346 126.862C249.458 126.862 251.328 126.356 252.956 125.344C254.584 124.332 255.86 122.946 256.784 121.186C257.752 119.382 258.236 117.358 258.236 115.114C258.236 112.87 257.752 110.868 256.784 109.108C255.86 107.348 254.584 105.962 252.956 104.95C251.328 103.938 249.458 103.432 247.346 103.432C245.278 103.432 243.408 103.938 241.736 104.95C240.108 105.962 238.81 107.348 237.842 109.108C236.918 110.868 236.456 112.87 236.456 115.114C236.456 117.358 236.918 119.382 237.842 121.186C238.81 122.946 240.108 124.332 241.736 125.344C243.408 126.356 245.278 126.862 247.346 126.862ZM281.24 133L268.964 97.294H276.884L286.256 125.74H283.484L293.054 97.294H299.852L309.356 125.74H306.584L316.022 97.294H323.942L311.6 133H304.868L295.232 103.894H297.674L288.038 133H281.24ZM351.284 133.792C348.864 133.792 346.73 133.374 344.882 132.538C343.078 131.658 341.67 130.47 340.658 128.974C339.646 127.434 339.14 125.63 339.14 123.562C339.14 121.626 339.558 119.888 340.394 118.348C341.274 116.808 342.616 115.51 344.42 114.454C346.224 113.398 348.49 112.65 351.218 112.21L363.626 110.164V116.038L352.67 117.952C350.69 118.304 349.238 118.942 348.314 119.866C347.39 120.746 346.928 121.89 346.928 123.298C346.928 124.662 347.434 125.784 348.446 126.664C349.502 127.5 350.844 127.918 352.472 127.918C354.496 127.918 356.256 127.478 357.752 126.598C359.292 125.718 360.48 124.552 361.316 123.1C362.152 121.604 362.57 119.954 362.57 118.15V108.976C362.57 107.216 361.91 105.786 360.59 104.686C359.314 103.542 357.598 102.97 355.442 102.97C353.462 102.97 351.724 103.498 350.228 104.554C348.776 105.566 347.698 106.886 346.994 108.514L340.79 105.412C341.45 103.652 342.528 102.112 344.024 100.792C345.52 99.428 347.258 98.372 349.238 97.624C351.262 96.876 353.396 96.502 355.64 96.502C358.456 96.502 360.942 97.03 363.098 98.086C365.298 99.142 366.992 100.616 368.18 102.508C369.412 104.356 370.028 106.512 370.028 108.976V133H362.9V126.532L364.418 126.73C363.582 128.182 362.504 129.436 361.184 130.492C359.908 131.548 358.434 132.362 356.762 132.934C355.134 133.506 353.308 133.792 351.284 133.792ZM378.749 133V97.294H385.877V104.29L385.019 103.366C385.899 101.122 387.307 99.428 389.243 98.284C391.179 97.096 393.423 96.502 395.975 96.502C398.615 96.502 400.947 97.074 402.971 98.218C404.995 99.362 406.579 100.946 407.723 102.97C408.867 104.994 409.439 107.326 409.439 109.966V133H402.047V111.946C402.047 110.142 401.717 108.624 401.057 107.392C400.397 106.116 399.451 105.148 398.219 104.488C397.031 103.784 395.667 103.432 394.127 103.432C392.587 103.432 391.201 103.784 389.969 104.488C388.781 105.148 387.857 106.116 387.197 107.392C386.537 108.668 386.207 110.186 386.207 111.946V133H378.749ZM433.92 133.792C430.488 133.792 427.408 132.978 424.68 131.35C421.996 129.678 419.862 127.434 418.278 124.618C416.738 121.802 415.968 118.634 415.968 115.114C415.968 111.594 416.76 108.426 418.344 105.61C419.928 102.794 422.062 100.572 424.746 98.944C427.43 97.316 430.466 96.502 433.854 96.502C436.714 96.502 439.244 97.074 441.444 98.218C443.644 99.362 445.382 100.946 446.658 102.97L445.536 104.686V83.038H452.928V133H445.866V125.74L446.724 127.126C445.492 129.282 443.732 130.932 441.444 132.076C439.156 133.22 436.648 133.792 433.92 133.792ZM434.646 126.862C436.714 126.862 438.562 126.356 440.19 125.344C441.862 124.332 443.16 122.946 444.084 121.186C445.052 119.382 445.536 117.358 445.536 115.114C445.536 112.87 445.052 110.868 444.084 109.108C443.16 107.348 441.862 105.962 440.19 104.95C438.562 103.938 436.714 103.432 434.646 103.432C432.578 103.432 430.708 103.938 429.036 104.95C427.364 105.962 426.066 107.348 425.142 109.108C424.218 110.868 423.756 112.87 423.756 115.114C423.756 117.358 424.218 119.382 425.142 121.186C426.066 122.946 427.342 124.332 428.97 125.344C430.642 126.356 432.534 126.862 434.646 126.862ZM488.616 133.396C484.876 133.396 481.972 132.34 479.904 130.228C477.836 128.116 476.802 125.146 476.802 121.318V104.026H470.532V97.294H471.522C473.194 97.294 474.492 96.81 475.416 95.842C476.34 94.874 476.802 93.554 476.802 91.882V89.11H484.26V97.294H492.378V104.026H484.26V120.988C484.26 122.22 484.458 123.276 484.854 124.156C485.25 124.992 485.888 125.652 486.768 126.136C487.648 126.576 488.792 126.796 490.2 126.796C490.552 126.796 490.948 126.774 491.388 126.73C491.828 126.686 492.246 126.642 492.642 126.598V133C492.026 133.088 491.344 133.176 490.596 133.264C489.848 133.352 489.188 133.396 488.616 133.396ZM510.29 133.792C507.87 133.792 505.736 133.374 503.888 132.538C502.084 131.658 500.676 130.47 499.664 128.974C498.652 127.434 498.146 125.63 498.146 123.562C498.146 121.626 498.564 119.888 499.4 118.348C500.28 116.808 501.622 115.51 503.426 114.454C505.23 113.398 507.496 112.65 510.224 112.21L522.632 110.164V116.038L511.676 117.952C509.696 118.304 508.244 118.942 507.32 119.866C506.396 120.746 505.934 121.89 505.934 123.298C505.934 124.662 506.44 125.784 507.452 126.664C508.508 127.5 509.85 127.918 511.478 127.918C513.502 127.918 515.262 127.478 516.758 126.598C518.298 125.718 519.486 124.552 520.322 123.1C521.158 121.604 521.576 119.954 521.576 118.15V108.976C521.576 107.216 520.916 105.786 519.596 104.686C518.32 103.542 516.604 102.97 514.448 102.97C512.468 102.97 510.73 103.498 509.234 104.554C507.782 105.566 506.704 106.886 506 108.514L499.796 105.412C500.456 103.652 501.534 102.112 503.03 100.792C504.526 99.428 506.264 98.372 508.244 97.624C510.268 96.876 512.402 96.502 514.646 96.502C517.462 96.502 519.948 97.03 522.104 98.086C524.304 99.142 525.998 100.616 527.186 102.508C528.418 104.356 529.034 106.512 529.034 108.976V133H521.906V126.532L523.424 126.73C522.588 128.182 521.51 129.436 520.19 130.492C518.914 131.548 517.44 132.362 515.768 132.934C514.14 133.506 512.314 133.792 510.29 133.792ZM537.754 133V97.294H544.882V104.29L544.024 103.366C544.904 101.122 546.312 99.428 548.248 98.284C550.184 97.096 552.428 96.502 554.98 96.502C557.62 96.502 559.952 97.074 561.976 98.218C564 99.362 565.584 100.946 566.728 102.97C567.872 104.994 568.444 107.326 568.444 109.966V133H561.052V111.946C561.052 110.142 560.722 108.624 560.062 107.392C559.402 106.116 558.456 105.148 557.224 104.488C556.036 103.784 554.672 103.432 553.132 103.432C551.592 103.432 550.206 103.784 548.974 104.488C547.786 105.148 546.862 106.116 546.202 107.392C545.542 108.668 545.212 110.186 545.212 111.946V133H537.754ZM593.652 147.52C591.056 147.52 588.658 147.102 586.458 146.266C584.258 145.43 582.366 144.264 580.782 142.768C579.198 141.316 578.01 139.6 577.218 137.62L584.082 134.782C584.698 136.454 585.82 137.84 587.448 138.94C589.12 140.04 591.166 140.59 593.586 140.59C595.478 140.59 597.172 140.216 598.668 139.468C600.164 138.764 601.352 137.708 602.232 136.3C603.112 134.936 603.552 133.286 603.552 131.35V123.298L604.872 124.816C603.64 127.104 601.924 128.842 599.724 130.03C597.568 131.218 595.126 131.812 592.398 131.812C589.098 131.812 586.128 131.042 583.488 129.502C580.848 127.962 578.758 125.85 577.218 123.166C575.722 120.482 574.974 117.468 574.974 114.124C574.974 110.736 575.722 107.722 577.218 105.082C578.758 102.442 580.826 100.352 583.422 98.812C586.018 97.272 588.988 96.502 592.332 96.502C595.06 96.502 597.48 97.096 599.592 98.284C601.748 99.428 603.508 101.1 604.872 103.3L603.882 105.148V97.294H610.944V131.35C610.944 134.43 610.196 137.18 608.7 139.6C607.248 142.064 605.224 144 602.628 145.408C600.032 146.816 597.04 147.52 593.652 147.52ZM593.256 124.882C595.236 124.882 596.996 124.42 598.536 123.496C600.076 122.528 601.286 121.252 602.166 119.668C603.09 118.04 603.552 116.214 603.552 114.19C603.552 112.166 603.09 110.34 602.166 108.712C601.242 107.084 600.01 105.808 598.47 104.884C596.93 103.916 595.192 103.432 593.256 103.432C591.232 103.432 589.428 103.916 587.844 104.884C586.26 105.808 585.006 107.084 584.082 108.712C583.202 110.296 582.762 112.122 582.762 114.19C582.762 116.17 583.202 117.974 584.082 119.602C585.006 121.23 586.26 122.528 587.844 123.496C589.428 124.42 591.232 124.882 593.256 124.882ZM619.674 133V83.038H627.132V133H619.674ZM652.616 133.792C649.052 133.792 645.884 132.978 643.112 131.35C640.384 129.678 638.25 127.434 636.71 124.618C635.17 121.758 634.4 118.568 634.4 115.048C634.4 111.44 635.17 108.25 636.71 105.478C638.294 102.706 640.406 100.528 643.046 98.944C645.686 97.316 648.678 96.502 652.022 96.502C654.706 96.502 657.104 96.964 659.216 97.888C661.328 98.812 663.11 100.088 664.562 101.716C666.014 103.3 667.114 105.126 667.862 107.194C668.654 109.262 669.05 111.462 669.05 113.794C669.05 114.366 669.028 114.96 668.984 115.576C668.94 116.192 668.852 116.764 668.72 117.292H640.274V111.352H664.496L660.932 114.058C661.372 111.902 661.218 109.988 660.47 108.316C659.766 106.6 658.666 105.258 657.17 104.29C655.718 103.278 654.002 102.772 652.022 102.772C650.042 102.772 648.282 103.278 646.742 104.29C645.202 105.258 644.014 106.666 643.178 108.514C642.342 110.318 642.012 112.518 642.188 115.114C641.968 117.534 642.298 119.646 643.178 121.45C644.102 123.254 645.378 124.662 647.006 125.674C648.678 126.686 650.57 127.192 652.682 127.192C654.838 127.192 656.664 126.708 658.16 125.74C659.7 124.772 660.91 123.518 661.79 121.978L667.862 124.948C667.158 126.62 666.058 128.138 664.562 129.502C663.11 130.822 661.35 131.878 659.282 132.67C657.258 133.418 655.036 133.792 652.616 133.792ZM692.829 133.792C689.397 133.792 686.317 132.978 683.589 131.35C680.905 129.678 678.771 127.434 677.187 124.618C675.647 121.802 674.877 118.634 674.877 115.114C674.877 111.594 675.669 108.426 677.253 105.61C678.837 102.794 680.971 100.572 683.655 98.944C686.339 97.316 689.375 96.502 692.763 96.502C695.623 96.502 698.153 97.074 700.353 98.218C702.553 99.362 704.291 100.946 705.567 102.97L704.445 104.686V83.038H711.837V133H704.775V125.74L705.633 127.126C704.401 129.282 702.641 130.932 700.353 132.076C698.065 133.22 695.557 133.792 692.829 133.792ZM693.555 126.862C695.623 126.862 697.471 126.356 699.099 125.344C700.771 124.332 702.069 122.946 702.993 121.186C703.961 119.382 704.445 117.358 704.445 115.114C704.445 112.87 703.961 110.868 702.993 109.108C702.069 107.348 700.771 105.962 699.099 104.95C697.471 103.938 695.623 103.432 693.555 103.432C691.487 103.432 689.617 103.938 687.945 104.95C686.273 105.962 684.975 107.348 684.051 109.108C683.127 110.868 682.665 112.87 682.665 115.114C682.665 117.358 683.127 119.382 684.051 121.186C684.975 122.946 686.251 124.332 687.879 125.344C689.551 126.356 691.443 126.862 693.555 126.862Z" fill="white"/>
<path d="M0.683563 50V0.829996H7.94356L26.4236 26.438H22.7936L40.9436 0.829996H48.2036V50H40.4816V10.004L43.3856 10.796L24.8396 36.14H24.0476L5.89756 10.796L8.47156 10.004V50H0.683563ZM74.8691 50.792C71.4371 50.792 68.2911 49.978 65.4311 48.35C62.6151 46.722 60.3711 44.5 58.6991 41.684C57.0271 38.868 56.1911 35.678 56.1911 32.114C56.1911 28.506 57.0271 25.316 58.6991 22.544C60.3711 19.728 62.6151 17.528 65.4311 15.944C68.2471 14.316 71.3931 13.502 74.8691 13.502C78.3891 13.502 81.5351 14.316 84.3071 15.944C87.1231 17.528 89.3451 19.728 90.9731 22.544C92.6451 25.316 93.4811 28.506 93.4811 32.114C93.4811 35.722 92.6451 38.934 90.9731 41.75C89.3011 44.566 87.0571 46.788 84.2411 48.416C81.4251 50 78.3011 50.792 74.8691 50.792ZM74.8691 43.862C76.9811 43.862 78.8511 43.356 80.4791 42.344C82.1071 41.332 83.3831 39.946 84.3071 38.186C85.2751 36.382 85.7591 34.358 85.7591 32.114C85.7591 29.87 85.2751 27.868 84.3071 26.108C83.3831 24.348 82.1071 22.962 80.4791 21.95C78.8511 20.938 76.9811 20.432 74.8691 20.432C72.8011 20.432 70.9311 20.938 69.2591 21.95C67.6311 22.962 66.3331 24.348 65.3651 26.108C64.4411 27.868 63.9791 29.87 63.9791 32.114C63.9791 34.358 64.4411 36.382 65.3651 38.186C66.3331 39.946 67.6311 41.332 69.2591 42.344C70.9311 43.356 72.8011 43.862 74.8691 43.862ZM119.836 50.792C117.064 50.792 114.534 50.22 112.246 49.076C110.002 47.932 108.264 46.282 107.032 44.126L107.89 42.74V50H100.762V0.0379981H108.22V21.686L107.032 19.97C108.352 17.946 110.112 16.362 112.312 15.218C114.512 14.074 117.02 13.502 119.836 13.502C123.224 13.502 126.26 14.316 128.944 15.944C131.672 17.572 133.806 19.794 135.346 22.61C136.93 25.426 137.722 28.594 137.722 32.114C137.722 35.634 136.93 38.802 135.346 41.618C133.806 44.434 131.694 46.678 129.01 48.35C126.326 49.978 123.268 50.792 119.836 50.792ZM119.11 43.862C121.222 43.862 123.092 43.356 124.72 42.344C126.348 41.332 127.624 39.946 128.548 38.186C129.516 36.382 130 34.358 130 32.114C130 29.87 129.516 27.868 128.548 26.108C127.624 24.348 126.348 22.962 124.72 21.95C123.092 20.938 121.222 20.432 119.11 20.432C117.042 20.432 115.172 20.938 113.5 21.95C111.872 22.962 110.574 24.348 109.606 26.108C108.682 27.868 108.22 29.87 108.22 32.114C108.22 34.358 108.682 36.382 109.606 38.186C110.574 39.946 111.872 41.332 113.5 42.344C115.172 43.356 117.042 43.862 119.11 43.862ZM144.977 50V14.294H152.435V50H144.977ZM144.977 9.41V0.829996H152.435V9.41H144.977ZM161.155 50V0.0379981H168.613V50H161.155ZM194.097 50.792C190.533 50.792 187.365 49.978 184.593 48.35C181.865 46.678 179.731 44.434 178.191 41.618C176.651 38.758 175.881 35.568 175.881 32.048C175.881 28.44 176.651 25.25 178.191 22.478C179.775 19.706 181.887 17.528 184.527 15.944C187.167 14.316 190.159 13.502 193.503 13.502C196.187 13.502 198.585 13.964 200.697 14.888C202.809 15.812 204.591 17.088 206.043 18.716C207.495 20.3 208.595 22.126 209.343 24.194C210.135 26.262 210.531 28.462 210.531 30.794C210.531 31.366 210.509 31.96 210.465 32.576C210.421 33.192 210.333 33.764 210.201 34.292H181.755V28.352H205.977L202.413 31.058C202.853 28.902 202.699 26.988 201.951 25.316C201.247 23.6 200.147 22.258 198.651 21.29C197.199 20.278 195.483 19.772 193.503 19.772C191.523 19.772 189.763 20.278 188.223 21.29C186.683 22.258 185.495 23.666 184.659 25.514C183.823 27.318 183.493 29.518 183.669 32.114C183.449 34.534 183.779 36.646 184.659 38.45C185.583 40.254 186.859 41.662 188.487 42.674C190.159 43.686 192.051 44.192 194.163 44.192C196.319 44.192 198.145 43.708 199.641 42.74C201.181 41.772 202.391 40.518 203.271 38.978L209.343 41.948C208.639 43.62 207.539 45.138 206.043 46.502C204.591 47.822 202.831 48.878 200.763 49.67C198.739 50.418 196.517 50.792 194.097 50.792ZM238.784 50V7.76H225.716V0.829996H259.376V7.76H246.506V50H238.784ZM276.597 50.792C273.033 50.792 269.865 49.978 267.093 48.35C264.365 46.678 262.231 44.434 260.691 41.618C259.151 38.758 258.381 35.568 258.381 32.048C258.381 28.44 259.151 25.25 260.691 22.478C262.275 19.706 264.387 17.528 267.027 15.944C269.667 14.316 272.659 13.502 276.003 13.502C278.687 13.502 281.085 13.964 283.197 14.888C285.309 15.812 287.091 17.088 288.543 18.716C289.995 20.3 291.095 22.126 291.843 24.194C292.635 26.262 293.031 28.462 293.031 30.794C293.031 31.366 293.009 31.96 292.965 32.576C292.921 33.192 292.833 33.764 292.701 34.292H264.255V28.352H288.477L284.913 31.058C285.353 28.902 285.199 26.988 284.451 25.316C283.747 23.6 282.647 22.258 281.151 21.29C279.699 20.278 277.983 19.772 276.003 19.772C274.023 19.772 272.263 20.278 270.723 21.29C269.183 22.258 267.995 23.666 267.159 25.514C266.323 27.318 265.993 29.518 266.169 32.114C265.949 34.534 266.279 36.646 267.159 38.45C268.083 40.254 269.359 41.662 270.987 42.674C272.659 43.686 274.551 44.192 276.663 44.192C278.819 44.192 280.645 43.708 282.141 42.74C283.681 41.772 284.891 40.518 285.771 38.978L291.843 41.948C291.139 43.62 290.039 45.138 288.543 46.502C287.091 47.822 285.331 48.878 283.263 49.67C281.239 50.418 279.017 50.792 276.597 50.792ZM313.509 50.792C309.857 50.792 306.645 49.89 303.873 48.086C301.145 46.282 299.231 43.862 298.131 40.826L303.873 38.12C304.841 40.144 306.161 41.75 307.833 42.938C309.549 44.126 311.441 44.72 313.509 44.72C315.269 44.72 316.699 44.324 317.799 43.532C318.899 42.74 319.449 41.662 319.449 40.298C319.449 39.418 319.207 38.714 318.723 38.186C318.239 37.614 317.623 37.152 316.875 36.8C316.171 36.448 315.445 36.184 314.697 36.008L309.087 34.424C306.007 33.544 303.697 32.224 302.157 30.464C300.661 28.66 299.913 26.57 299.913 24.194C299.913 22.038 300.463 20.168 301.563 18.584C302.663 16.956 304.181 15.702 306.117 14.822C308.053 13.942 310.231 13.502 312.651 13.502C315.907 13.502 318.811 14.316 321.363 15.944C323.915 17.528 325.719 19.75 326.775 22.61L321.033 25.316C320.329 23.6 319.207 22.236 317.667 21.224C316.171 20.212 314.477 19.706 312.585 19.706C310.957 19.706 309.659 20.102 308.691 20.894C307.723 21.642 307.239 22.632 307.239 23.864C307.239 24.7 307.459 25.404 307.899 25.976C308.339 26.504 308.911 26.944 309.615 27.296C310.319 27.604 311.045 27.868 311.793 28.088L317.601 29.804C320.549 30.64 322.815 31.96 324.399 33.764C325.983 35.524 326.775 37.636 326.775 40.1C326.775 42.212 326.203 44.082 325.059 45.71C323.959 47.294 322.419 48.548 320.439 49.472C318.459 50.352 316.149 50.792 313.509 50.792ZM349.527 50.396C345.787 50.396 342.883 49.34 340.815 47.228C338.747 45.116 337.713 42.146 337.713 38.318V21.026H331.443V14.294H332.433C334.105 14.294 335.403 13.81 336.327 12.842C337.251 11.874 337.713 10.554 337.713 8.882V6.11H345.171V14.294H353.289V21.026H345.171V37.988C345.171 39.22 345.369 40.276 345.765 41.156C346.161 41.992 346.799 42.652 347.679 43.136C348.559 43.576 349.703 43.796 351.111 43.796C351.463 43.796 351.859 43.774 352.299 43.73C352.739 43.686 353.157 43.642 353.553 43.598V50C352.937 50.088 352.255 50.176 351.507 50.264C350.759 50.352 350.099 50.396 349.527 50.396ZM360.831 50V14.294H368.289V50H360.831ZM360.831 9.41V0.829996H368.289V9.41H360.831ZM377.008 50V14.294H384.136V21.29L383.278 20.366C384.158 18.122 385.566 16.428 387.502 15.284C389.438 14.096 391.682 13.502 394.234 13.502C396.874 13.502 399.206 14.074 401.23 15.218C403.254 16.362 404.838 17.946 405.982 19.97C407.126 21.994 407.698 24.326 407.698 26.966V50H400.306V28.946C400.306 27.142 399.976 25.624 399.316 24.392C398.656 23.116 397.71 22.148 396.478 21.488C395.29 20.784 393.926 20.432 392.386 20.432C390.846 20.432 389.46 20.784 388.228 21.488C387.04 22.148 386.116 23.116 385.456 24.392C384.796 25.668 384.466 27.186 384.466 28.946V50H377.008ZM432.906 64.52C430.31 64.52 427.912 64.102 425.712 63.266C423.512 62.43 421.62 61.264 420.036 59.768C418.452 58.316 417.264 56.6 416.472 54.62L423.336 51.782C423.952 53.454 425.074 54.84 426.702 55.94C428.374 57.04 430.42 57.59 432.84 57.59C434.732 57.59 436.426 57.216 437.922 56.468C439.418 55.764 440.606 54.708 441.486 53.3C442.366 51.936 442.806 50.286 442.806 48.35V40.298L444.126 41.816C442.894 44.104 441.178 45.842 438.978 47.03C436.822 48.218 434.38 48.812 431.652 48.812C428.352 48.812 425.382 48.042 422.742 46.502C420.102 44.962 418.012 42.85 416.472 40.166C414.976 37.482 414.228 34.468 414.228 31.124C414.228 27.736 414.976 24.722 416.472 22.082C418.012 19.442 420.08 17.352 422.676 15.812C425.272 14.272 428.242 13.502 431.586 13.502C434.314 13.502 436.734 14.096 438.846 15.284C441.002 16.428 442.762 18.1 444.126 20.3L443.136 22.148V14.294H450.198V48.35C450.198 51.43 449.45 54.18 447.954 56.6C446.502 59.064 444.478 61 441.882 62.408C439.286 63.816 436.294 64.52 432.906 64.52ZM432.51 41.882C434.49 41.882 436.25 41.42 437.79 40.496C439.33 39.528 440.54 38.252 441.42 36.668C442.344 35.04 442.806 33.214 442.806 31.19C442.806 29.166 442.344 27.34 441.42 25.712C440.496 24.084 439.264 22.808 437.724 21.884C436.184 20.916 434.446 20.432 432.51 20.432C430.486 20.432 428.682 20.916 427.098 21.884C425.514 22.808 424.26 24.084 423.336 25.712C422.456 27.296 422.016 29.122 422.016 31.19C422.016 33.17 422.456 34.974 423.336 36.602C424.26 38.23 425.514 39.528 427.098 40.496C428.682 41.42 430.486 41.882 432.51 41.882ZM483.665 50.792C480.013 50.792 476.801 49.89 474.029 48.086C471.301 46.282 469.387 43.862 468.287 40.826L474.029 38.12C474.997 40.144 476.317 41.75 477.989 42.938C479.705 44.126 481.597 44.72 483.665 44.72C485.425 44.72 486.855 44.324 487.955 43.532C489.055 42.74 489.605 41.662 489.605 40.298C489.605 39.418 489.363 38.714 488.879 38.186C488.395 37.614 487.779 37.152 487.031 36.8C486.327 36.448 485.601 36.184 484.853 36.008L479.243 34.424C476.163 33.544 473.853 32.224 472.313 30.464C470.817 28.66 470.069 26.57 470.069 24.194C470.069 22.038 470.619 20.168 471.719 18.584C472.819 16.956 474.337 15.702 476.273 14.822C478.209 13.942 480.387 13.502 482.807 13.502C486.063 13.502 488.967 14.316 491.519 15.944C494.071 17.528 495.875 19.75 496.931 22.61L491.189 25.316C490.485 23.6 489.363 22.236 487.823 21.224C486.327 20.212 484.633 19.706 482.741 19.706C481.113 19.706 479.815 20.102 478.847 20.894C477.879 21.642 477.395 22.632 477.395 23.864C477.395 24.7 477.615 25.404 478.055 25.976C478.495 26.504 479.067 26.944 479.771 27.296C480.475 27.604 481.201 27.868 481.949 28.088L487.757 29.804C490.705 30.64 492.971 31.96 494.555 33.764C496.139 35.524 496.931 37.636 496.931 40.1C496.931 42.212 496.359 44.082 495.215 45.71C494.115 47.294 492.575 48.548 490.595 49.472C488.615 50.352 486.305 50.792 483.665 50.792ZM504.239 50V0.0379981H511.697V21.29L510.509 20.366C511.389 18.122 512.797 16.428 514.733 15.284C516.669 14.096 518.913 13.502 521.465 13.502C524.105 13.502 526.437 14.074 528.461 15.218C530.485 16.362 532.069 17.946 533.213 19.97C534.357 21.994 534.929 24.304 534.929 26.9V50H527.537V28.946C527.537 27.142 527.185 25.624 526.481 24.392C525.821 23.116 524.897 22.148 523.709 21.488C522.521 20.784 521.157 20.432 519.617 20.432C518.121 20.432 516.757 20.784 515.525 21.488C514.337 22.148 513.391 23.116 512.687 24.392C512.027 25.668 511.697 27.186 511.697 28.946V50H504.239ZM560.137 50.792C556.705 50.792 553.559 49.978 550.699 48.35C547.883 46.722 545.639 44.5 543.967 41.684C542.295 38.868 541.459 35.678 541.459 32.114C541.459 28.506 542.295 25.316 543.967 22.544C545.639 19.728 547.883 17.528 550.699 15.944C553.515 14.316 556.661 13.502 560.137 13.502C563.657 13.502 566.803 14.316 569.575 15.944C572.391 17.528 574.613 19.728 576.241 22.544C577.913 25.316 578.749 28.506 578.749 32.114C578.749 35.722 577.913 38.934 576.241 41.75C574.569 44.566 572.325 46.788 569.509 48.416C566.693 50 563.569 50.792 560.137 50.792ZM560.137 43.862C562.249 43.862 564.119 43.356 565.747 42.344C567.375 41.332 568.651 39.946 569.575 38.186C570.543 36.382 571.027 34.358 571.027 32.114C571.027 29.87 570.543 27.868 569.575 26.108C568.651 24.348 567.375 22.962 565.747 21.95C564.119 20.938 562.249 20.432 560.137 20.432C558.069 20.432 556.199 20.938 554.527 21.95C552.899 22.962 551.601 24.348 550.633 26.108C549.709 27.868 549.247 29.87 549.247 32.114C549.247 34.358 549.709 36.382 550.633 38.186C551.601 39.946 552.899 41.332 554.527 42.344C556.199 43.356 558.069 43.862 560.137 43.862ZM598.768 50.792C596.084 50.792 593.73 50.198 591.706 49.01C589.682 47.778 588.098 46.084 586.954 43.928C585.854 41.728 585.304 39.198 585.304 36.338V14.294H592.762V35.678C592.762 37.306 593.092 38.736 593.752 39.968C594.412 41.2 595.336 42.168 596.524 42.872C597.712 43.532 599.076 43.862 600.616 43.862C602.2 43.862 603.586 43.51 604.774 42.806C605.962 42.102 606.886 41.112 607.546 39.836C608.25 38.56 608.602 37.064 608.602 35.348V14.294H615.994V50H608.932V43.004L609.724 43.928C608.888 46.128 607.502 47.822 605.566 49.01C603.63 50.198 601.364 50.792 598.768 50.792ZM624.702 50V0.0379981H632.16V50H624.702ZM657.379 50.792C653.947 50.792 650.867 49.978 648.139 48.35C645.455 46.678 643.321 44.434 641.737 41.618C640.197 38.802 639.427 35.634 639.427 32.114C639.427 28.594 640.219 25.426 641.803 22.61C643.387 19.794 645.521 17.572 648.205 15.944C650.889 14.316 653.925 13.502 657.313 13.502C660.173 13.502 662.703 14.074 664.903 15.218C667.103 16.362 668.841 17.946 670.117 19.97L668.995 21.686V0.0379981H676.387V50H669.325V42.74L670.183 44.126C668.951 46.282 667.191 47.932 664.903 49.076C662.615 50.22 660.107 50.792 657.379 50.792ZM658.105 43.862C660.173 43.862 662.021 43.356 663.649 42.344C665.321 41.332 666.619 39.946 667.543 38.186C668.511 36.382 668.995 34.358 668.995 32.114C668.995 29.87 668.511 27.868 667.543 26.108C666.619 24.348 665.321 22.962 663.649 21.95C662.021 20.938 660.173 20.432 658.105 20.432C656.037 20.432 654.167 20.938 652.495 21.95C650.823 22.962 649.525 24.348 648.601 26.108C647.677 27.868 647.215 29.87 647.215 32.114C647.215 34.358 647.677 36.382 648.601 38.186C649.525 39.946 650.801 41.332 652.429 42.344C654.101 43.356 655.993 43.862 658.105 43.862ZM696.631 50V14.294H703.759V21.29L702.901 20.366C703.781 18.122 705.189 16.428 707.125 15.284C709.061 14.096 711.305 13.502 713.857 13.502C716.497 13.502 718.829 14.074 720.853 15.218C722.877 16.362 724.461 17.946 725.605 19.97C726.749 21.994 727.321 24.326 727.321 26.966V50H719.929V28.946C719.929 27.142 719.599 25.624 718.939 24.392C718.279 23.116 717.333 22.148 716.101 21.488C714.913 20.784 713.549 20.432 712.009 20.432C710.469 20.432 709.083 20.784 707.851 21.488C706.663 22.148 705.739 23.116 705.079 24.392C704.419 25.668 704.089 27.186 704.089 28.946V50H696.631ZM752.529 50.792C749.097 50.792 745.951 49.978 743.091 48.35C740.275 46.722 738.031 44.5 736.359 41.684C734.687 38.868 733.851 35.678 733.851 32.114C733.851 28.506 734.687 25.316 736.359 22.544C738.031 19.728 740.275 17.528 743.091 15.944C745.907 14.316 749.053 13.502 752.529 13.502C756.049 13.502 759.195 14.316 761.967 15.944C764.783 17.528 767.005 19.728 768.633 22.544C770.305 25.316 771.141 28.506 771.141 32.114C771.141 35.722 770.305 38.934 768.633 41.75C766.961 44.566 764.717 46.788 761.901 48.416C759.085 50 755.961 50.792 752.529 50.792ZM752.529 43.862C754.641 43.862 756.511 43.356 758.139 42.344C759.767 41.332 761.043 39.946 761.967 38.186C762.935 36.382 763.419 34.358 763.419 32.114C763.419 29.87 762.935 27.868 761.967 26.108C761.043 24.348 759.767 22.962 758.139 21.95C756.511 20.938 754.641 20.432 752.529 20.432C750.461 20.432 748.591 20.938 746.919 21.95C745.291 22.962 743.993 24.348 743.025 26.108C742.101 27.868 741.639 29.87 741.639 32.114C741.639 34.358 742.101 36.382 743.025 38.186C743.993 39.946 745.291 41.332 746.919 42.344C748.591 43.356 750.461 43.862 752.529 43.862ZM793.222 50.396C789.482 50.396 786.578 49.34 784.51 47.228C782.442 45.116 781.408 42.146 781.408 38.318V21.026H775.138V14.294H776.128C777.8 14.294 779.098 13.81 780.022 12.842C780.946 11.874 781.408 10.554 781.408 8.882V6.11H788.866V14.294H796.984V21.026H788.866V37.988C788.866 39.22 789.064 40.276 789.46 41.156C789.856 41.992 790.494 42.652 791.374 43.136C792.254 43.576 793.398 43.796 794.806 43.796C795.158 43.796 795.554 43.774 795.994 43.73C796.434 43.686 796.852 43.642 797.248 43.598V50C796.632 50.088 795.95 50.176 795.202 50.264C794.454 50.352 793.794 50.396 793.222 50.396ZM835.137 50.792C832.365 50.792 829.835 50.22 827.547 49.076C825.303 47.932 823.565 46.282 822.333 44.126L823.191 42.74V50H816.063V0.0379981H823.521V21.686L822.333 19.97C823.653 17.946 825.413 16.362 827.613 15.218C829.813 14.074 832.321 13.502 835.137 13.502C838.525 13.502 841.561 14.316 844.245 15.944C846.973 17.572 849.107 19.794 850.647 22.61C852.231 25.426 853.023 28.594 853.023 32.114C853.023 35.634 852.231 38.802 850.647 41.618C849.107 44.434 846.995 46.678 844.311 48.35C841.627 49.978 838.569 50.792 835.137 50.792ZM834.411 43.862C836.523 43.862 838.393 43.356 840.021 42.344C841.649 41.332 842.925 39.946 843.849 38.186C844.817 36.382 845.301 34.358 845.301 32.114C845.301 29.87 844.817 27.868 843.849 26.108C842.925 24.348 841.649 22.962 840.021 21.95C838.393 20.938 836.523 20.432 834.411 20.432C832.343 20.432 830.473 20.938 828.801 21.95C827.173 22.962 825.875 24.348 824.907 26.108C823.983 27.868 823.521 29.87 823.521 32.114C823.521 34.358 823.983 36.382 824.907 38.186C825.875 39.946 827.173 41.332 828.801 42.344C830.473 43.356 832.343 43.862 834.411 43.862ZM877.042 50.792C873.478 50.792 870.31 49.978 867.538 48.35C864.81 46.678 862.676 44.434 861.136 41.618C859.596 38.758 858.826 35.568 858.826 32.048C858.826 28.44 859.596 25.25 861.136 22.478C862.72 19.706 864.832 17.528 867.472 15.944C870.112 14.316 873.104 13.502 876.448 13.502C879.132 13.502 881.53 13.964 883.642 14.888C885.754 15.812 887.536 17.088 888.988 18.716C890.44 20.3 891.54 22.126 892.288 24.194C893.08 26.262 893.476 28.462 893.476 30.794C893.476 31.366 893.454 31.96 893.41 32.576C893.366 33.192 893.278 33.764 893.146 34.292H864.7V28.352H888.922L885.358 31.058C885.798 28.902 885.644 26.988 884.896 25.316C884.192 23.6 883.092 22.258 881.596 21.29C880.144 20.278 878.428 19.772 876.448 19.772C874.468 19.772 872.708 20.278 871.168 21.29C869.628 22.258 868.44 23.666 867.604 25.514C866.768 27.318 866.438 29.518 866.614 32.114C866.394 34.534 866.724 36.646 867.604 38.45C868.528 40.254 869.804 41.662 871.432 42.674C873.104 43.686 874.996 44.192 877.108 44.192C879.264 44.192 881.09 43.708 882.586 42.74C884.126 41.772 885.336 40.518 886.216 38.978L892.288 41.948C891.584 43.62 890.484 45.138 888.988 46.502C887.536 47.822 885.776 48.878 883.708 49.67C881.684 50.418 879.462 50.792 877.042 50.792ZM193.369 133.792C189.717 133.792 186.505 132.89 183.733 131.086C181.005 129.282 179.091 126.862 177.99 123.826L183.733 121.12C184.701 123.144 186.021 124.75 187.693 125.938C189.409 127.126 191.301 127.72 193.369 127.72C195.129 127.72 196.559 127.324 197.659 126.532C198.759 125.74 199.309 124.662 199.309 123.298C199.309 122.418 199.067 121.714 198.583 121.186C198.099 120.614 197.483 120.152 196.735 119.8C196.031 119.448 195.305 119.184 194.557 119.008L188.947 117.424C185.867 116.544 183.557 115.224 182.017 113.464C180.521 111.66 179.773 109.57 179.773 107.194C179.773 105.038 180.323 103.168 181.423 101.584C182.523 99.956 184.041 98.702 185.977 97.822C187.913 96.942 190.091 96.502 192.511 96.502C195.767 96.502 198.671 97.316 201.223 98.944C203.775 100.528 205.579 102.75 206.635 105.61L200.893 108.316C200.189 106.6 199.067 105.236 197.527 104.224C196.031 103.212 194.337 102.706 192.445 102.706C190.817 102.706 189.519 103.102 188.551 103.894C187.583 104.642 187.099 105.632 187.099 106.864C187.099 107.7 187.319 108.404 187.759 108.976C188.199 109.504 188.771 109.944 189.475 110.296C190.179 110.604 190.905 110.868 191.653 111.088L197.461 112.804C200.409 113.64 202.675 114.96 204.259 116.764C205.843 118.524 206.635 120.636 206.635 123.1C206.635 125.212 206.063 127.082 204.919 128.71C203.819 130.294 202.279 131.548 200.299 132.472C198.319 133.352 196.009 133.792 193.369 133.792ZM213.942 133V83.038H221.4V133H213.942ZM247.346 133.792C243.914 133.792 240.768 132.978 237.908 131.35C235.092 129.722 232.848 127.5 231.176 124.684C229.504 121.868 228.668 118.678 228.668 115.114C228.668 111.506 229.504 108.316 231.176 105.544C232.848 102.728 235.092 100.528 237.908 98.944C240.724 97.316 243.87 96.502 247.346 96.502C250.866 96.502 254.012 97.316 256.784 98.944C259.6 100.528 261.822 102.728 263.45 105.544C265.122 108.316 265.958 111.506 265.958 115.114C265.958 118.722 265.122 121.934 263.45 124.75C261.778 127.566 259.534 129.788 256.718 131.416C253.902 133 250.778 133.792 247.346 133.792ZM247.346 126.862C249.458 126.862 251.328 126.356 252.956 125.344C254.584 124.332 255.86 122.946 256.784 121.186C257.752 119.382 258.236 117.358 258.236 115.114C258.236 112.87 257.752 110.868 256.784 109.108C255.86 107.348 254.584 105.962 252.956 104.95C251.328 103.938 249.458 103.432 247.346 103.432C245.278 103.432 243.408 103.938 241.736 104.95C240.108 105.962 238.81 107.348 237.842 109.108C236.918 110.868 236.456 112.87 236.456 115.114C236.456 117.358 236.918 119.382 237.842 121.186C238.81 122.946 240.108 124.332 241.736 125.344C243.408 126.356 245.278 126.862 247.346 126.862ZM281.24 133L268.964 97.294H276.884L286.256 125.74H283.484L293.054 97.294H299.852L309.356 125.74H306.584L316.022 97.294H323.942L311.6 133H304.868L295.232 103.894H297.674L288.038 133H281.24ZM351.284 133.792C348.864 133.792 346.73 133.374 344.882 132.538C343.078 131.658 341.67 130.47 340.658 128.974C339.646 127.434 339.14 125.63 339.14 123.562C339.14 121.626 339.558 119.888 340.394 118.348C341.274 116.808 342.616 115.51 344.42 114.454C346.224 113.398 348.49 112.65 351.218 112.21L363.626 110.164V116.038L352.67 117.952C350.69 118.304 349.238 118.942 348.314 119.866C347.39 120.746 346.928 121.89 346.928 123.298C346.928 124.662 347.434 125.784 348.446 126.664C349.502 127.5 350.844 127.918 352.472 127.918C354.496 127.918 356.256 127.478 357.752 126.598C359.292 125.718 360.48 124.552 361.316 123.1C362.152 121.604 362.57 119.954 362.57 118.15V108.976C362.57 107.216 361.91 105.786 360.59 104.686C359.314 103.542 357.598 102.97 355.442 102.97C353.462 102.97 351.724 103.498 350.228 104.554C348.776 105.566 347.698 106.886 346.994 108.514L340.79 105.412C341.45 103.652 342.528 102.112 344.024 100.792C345.52 99.428 347.258 98.372 349.238 97.624C351.262 96.876 353.396 96.502 355.64 96.502C358.456 96.502 360.942 97.03 363.098 98.086C365.298 99.142 366.992 100.616 368.18 102.508C369.412 104.356 370.028 106.512 370.028 108.976V133H362.9V126.532L364.418 126.73C363.582 128.182 362.504 129.436 361.184 130.492C359.908 131.548 358.434 132.362 356.762 132.934C355.134 133.506 353.308 133.792 351.284 133.792ZM378.749 133V97.294H385.877V104.29L385.019 103.366C385.899 101.122 387.307 99.428 389.243 98.284C391.179 97.096 393.423 96.502 395.975 96.502C398.615 96.502 400.947 97.074 402.971 98.218C404.995 99.362 406.579 100.946 407.723 102.97C408.867 104.994 409.439 107.326 409.439 109.966V133H402.047V111.946C402.047 110.142 401.717 108.624 401.057 107.392C400.397 106.116 399.451 105.148 398.219 104.488C397.031 103.784 395.667 103.432 394.127 103.432C392.587 103.432 391.201 103.784 389.969 104.488C388.781 105.148 387.857 106.116 387.197 107.392C386.537 108.668 386.207 110.186 386.207 111.946V133H378.749ZM433.92 133.792C430.488 133.792 427.408 132.978 424.68 131.35C421.996 129.678 419.862 127.434 418.278 124.618C416.738 121.802 415.968 118.634 415.968 115.114C415.968 111.594 416.76 108.426 418.344 105.61C419.928 102.794 422.062 100.572 424.746 98.944C427.43 97.316 430.466 96.502 433.854 96.502C436.714 96.502 439.244 97.074 441.444 98.218C443.644 99.362 445.382 100.946 446.658 102.97L445.536 104.686V83.038H452.928V133H445.866V125.74L446.724 127.126C445.492 129.282 443.732 130.932 441.444 132.076C439.156 133.22 436.648 133.792 433.92 133.792ZM434.646 126.862C436.714 126.862 438.562 126.356 440.19 125.344C441.862 124.332 443.16 122.946 444.084 121.186C445.052 119.382 445.536 117.358 445.536 115.114C445.536 112.87 445.052 110.868 444.084 109.108C443.16 107.348 441.862 105.962 440.19 104.95C438.562 103.938 436.714 103.432 434.646 103.432C432.578 103.432 430.708 103.938 429.036 104.95C427.364 105.962 426.066 107.348 425.142 109.108C424.218 110.868 423.756 112.87 423.756 115.114C423.756 117.358 424.218 119.382 425.142 121.186C426.066 122.946 427.342 124.332 428.97 125.344C430.642 126.356 432.534 126.862 434.646 126.862ZM488.616 133.396C484.876 133.396 481.972 132.34 479.904 130.228C477.836 128.116 476.802 125.146 476.802 121.318V104.026H470.532V97.294H471.522C473.194 97.294 474.492 96.81 475.416 95.842C476.34 94.874 476.802 93.554 476.802 91.882V89.11H484.26V97.294H492.378V104.026H484.26V120.988C484.26 122.22 484.458 123.276 484.854 124.156C485.25 124.992 485.888 125.652 486.768 126.136C487.648 126.576 488.792 126.796 490.2 126.796C490.552 126.796 490.948 126.774 491.388 126.73C491.828 126.686 492.246 126.642 492.642 126.598V133C492.026 133.088 491.344 133.176 490.596 133.264C489.848 133.352 489.188 133.396 488.616 133.396ZM510.29 133.792C507.87 133.792 505.736 133.374 503.888 132.538C502.084 131.658 500.676 130.47 499.664 128.974C498.652 127.434 498.146 125.63 498.146 123.562C498.146 121.626 498.564 119.888 499.4 118.348C500.28 116.808 501.622 115.51 503.426 114.454C505.23 113.398 507.496 112.65 510.224 112.21L522.632 110.164V116.038L511.676 117.952C509.696 118.304 508.244 118.942 507.32 119.866C506.396 120.746 505.934 121.89 505.934 123.298C505.934 124.662 506.44 125.784 507.452 126.664C508.508 127.5 509.85 127.918 511.478 127.918C513.502 127.918 515.262 127.478 516.758 126.598C518.298 125.718 519.486 124.552 520.322 123.1C521.158 121.604 521.576 119.954 521.576 118.15V108.976C521.576 107.216 520.916 105.786 519.596 104.686C518.32 103.542 516.604 102.97 514.448 102.97C512.468 102.97 510.73 103.498 509.234 104.554C507.782 105.566 506.704 106.886 506 108.514L499.796 105.412C500.456 103.652 501.534 102.112 503.03 100.792C504.526 99.428 506.264 98.372 508.244 97.624C510.268 96.876 512.402 96.502 514.646 96.502C517.462 96.502 519.948 97.03 522.104 98.086C524.304 99.142 525.998 100.616 527.186 102.508C528.418 104.356 529.034 106.512 529.034 108.976V133H521.906V126.532L523.424 126.73C522.588 128.182 521.51 129.436 520.19 130.492C518.914 131.548 517.44 132.362 515.768 132.934C514.14 133.506 512.314 133.792 510.29 133.792ZM537.754 133V97.294H544.882V104.29L544.024 103.366C544.904 101.122 546.312 99.428 548.248 98.284C550.184 97.096 552.428 96.502 554.98 96.502C557.62 96.502 559.952 97.074 561.976 98.218C564 99.362 565.584 100.946 566.728 102.97C567.872 104.994 568.444 107.326 568.444 109.966V133H561.052V111.946C561.052 110.142 560.722 108.624 560.062 107.392C559.402 106.116 558.456 105.148 557.224 104.488C556.036 103.784 554.672 103.432 553.132 103.432C551.592 103.432 550.206 103.784 548.974 104.488C547.786 105.148 546.862 106.116 546.202 107.392C545.542 108.668 545.212 110.186 545.212 111.946V133H537.754ZM593.652 147.52C591.056 147.52 588.658 147.102 586.458 146.266C584.258 145.43 582.366 144.264 580.782 142.768C579.198 141.316 578.01 139.6 577.218 137.62L584.082 134.782C584.698 136.454 585.82 137.84 587.448 138.94C589.12 140.04 591.166 140.59 593.586 140.59C595.478 140.59 597.172 140.216 598.668 139.468C600.164 138.764 601.352 137.708 602.232 136.3C603.112 134.936 603.552 133.286 603.552 131.35V123.298L604.872 124.816C603.64 127.104 601.924 128.842 599.724 130.03C597.568 131.218 595.126 131.812 592.398 131.812C589.098 131.812 586.128 131.042 583.488 129.502C580.848 127.962 578.758 125.85 577.218 123.166C575.722 120.482 574.974 117.468 574.974 114.124C574.974 110.736 575.722 107.722 577.218 105.082C578.758 102.442 580.826 100.352 583.422 98.812C586.018 97.272 588.988 96.502 592.332 96.502C595.06 96.502 597.48 97.096 599.592 98.284C601.748 99.428 603.508 101.1 604.872 103.3L603.882 105.148V97.294H610.944V131.35C610.944 134.43 610.196 137.18 608.7 139.6C607.248 142.064 605.224 144 602.628 145.408C600.032 146.816 597.04 147.52 593.652 147.52ZM593.256 124.882C595.236 124.882 596.996 124.42 598.536 123.496C600.076 122.528 601.286 121.252 602.166 119.668C603.09 118.04 603.552 116.214 603.552 114.19C603.552 112.166 603.09 110.34 602.166 108.712C601.242 107.084 600.01 105.808 598.47 104.884C596.93 103.916 595.192 103.432 593.256 103.432C591.232 103.432 589.428 103.916 587.844 104.884C586.26 105.808 585.006 107.084 584.082 108.712C583.202 110.296 582.762 112.122 582.762 114.19C582.762 116.17 583.202 117.974 584.082 119.602C585.006 121.23 586.26 122.528 587.844 123.496C589.428 124.42 591.232 124.882 593.256 124.882ZM619.674 133V83.038H627.132V133H619.674ZM652.616 133.792C649.052 133.792 645.884 132.978 643.112 131.35C640.384 129.678 638.25 127.434 636.71 124.618C635.17 121.758 634.4 118.568 634.4 115.048C634.4 111.44 635.17 108.25 636.71 105.478C638.294 102.706 640.406 100.528 643.046 98.944C645.686 97.316 648.678 96.502 652.022 96.502C654.706 96.502 657.104 96.964 659.216 97.888C661.328 98.812 663.11 100.088 664.562 101.716C666.014 103.3 667.114 105.126 667.862 107.194C668.654 109.262 669.05 111.462 669.05 113.794C669.05 114.366 669.028 114.96 668.984 115.576C668.94 116.192 668.852 116.764 668.72 117.292H640.274V111.352H664.496L660.932 114.058C661.372 111.902 661.218 109.988 660.47 108.316C659.766 106.6 658.666 105.258 657.17 104.29C655.718 103.278 654.002 102.772 652.022 102.772C650.042 102.772 648.282 103.278 646.742 104.29C645.202 105.258 644.014 106.666 643.178 108.514C642.342 110.318 642.012 112.518 642.188 115.114C641.968 117.534 642.298 119.646 643.178 121.45C644.102 123.254 645.378 124.662 647.006 125.674C648.678 126.686 650.57 127.192 652.682 127.192C654.838 127.192 656.664 126.708 658.16 125.74C659.7 124.772 660.91 123.518 661.79 121.978L667.862 124.948C667.158 126.62 666.058 128.138 664.562 129.502C663.11 130.822 661.35 131.878 659.282 132.67C657.258 133.418 655.036 133.792 652.616 133.792ZM692.829 133.792C689.397 133.792 686.317 132.978 683.589 131.35C680.905 129.678 678.771 127.434 677.187 124.618C675.647 121.802 674.877 118.634 674.877 115.114C674.877 111.594 675.669 108.426 677.253 105.61C678.837 102.794 680.971 100.572 683.655 98.944C686.339 97.316 689.375 96.502 692.763 96.502C695.623 96.502 698.153 97.074 700.353 98.218C702.553 99.362 704.291 100.946 705.567 102.97L704.445 104.686V83.038H711.837V133H704.775V125.74L705.633 127.126C704.401 129.282 702.641 130.932 700.353 132.076C698.065 133.22 695.557 133.792 692.829 133.792ZM693.555 126.862C695.623 126.862 697.471 126.356 699.099 125.344C700.771 124.332 702.069 122.946 702.993 121.186C703.961 119.382 704.445 117.358 704.445 115.114C704.445 112.87 703.961 110.868 702.993 109.108C702.069 107.348 700.771 105.962 699.099 104.95C697.471 103.938 695.623 103.432 693.555 103.432C691.487 103.432 689.617 103.938 687.945 104.95C686.273 105.962 684.975 107.348 684.051 109.108C683.127 110.868 682.665 112.87 682.665 115.114C682.665 117.358 683.127 119.382 684.051 121.186C684.975 122.946 686.251 124.332 687.879 125.344C689.551 126.356 691.443 126.862 693.555 126.862Z" fill="url(#paint0_linear_2002_5975)"/>
<defs>
<linearGradient id="paint0_linear_2002_5975" x1="615" y1="231" x2="606" y2="9.50002" gradientUnits="userSpaceOnUse">
<stop stop-color="#1A122F"/>
<stop offset="1" stop-color="#060519" stop-opacity="0"/>
</linearGradient>
</defs>
</svg>
