<svg width="100" height="101" viewBox="0 0 100 101" fill="none" xmlns="http://www.w3.org/2000/svg">
<g id="Frame 1533208576" clip-path="url(#clip0_363_5516)">
<g id="Group 18140785">
<g id="Mask group">
<g id="Ellipse 1232" filter="url(#filter0_d_363_5516)">
<ellipse cx="44.7905" cy="50.4999" rx="40.5893" ry="39.2899" fill="#111111"/>
<ellipse cx="44.7905" cy="50.4999" rx="40.5893" ry="39.2899" fill="url(#paint0_linear_363_5516)" fill-opacity="0.9"/>
</g>
<mask id="mask0_363_5516" style="mask-type:alpha" maskUnits="userSpaceOnUse" x="4" y="11" width="82" height="79">
<ellipse id="Ellipse 1230" cx="44.7905" cy="50.4999" rx="40.5893" ry="39.2899" fill="#D9D9D9"/>
</mask>
<g mask="url(#mask0_363_5516)">
<g id="Ellipse 1231" filter="url(#filter1_d_363_5516)">
<ellipse cx="44.7905" cy="50.4999" rx="40.5893" ry="39.2899" fill="#111111"/>
<ellipse cx="44.7905" cy="50.4999" rx="40.5893" ry="39.2899" fill="url(#paint1_linear_363_5516)" fill-opacity="0.9"/>
</g>
<g id="Union" filter="url(#filter2_d_363_5516)">
<mask id="path-4-inside-1_363_5516" fill="white">
<path fill-rule="evenodd" clip-rule="evenodd" d="M32.4422 48.1256L41.2003 32.841C35.8752 33.7074 30.9716 36.8794 28.0803 41.9252C24.4522 48.2568 24.9718 55.8301 28.7857 61.5021L-12.5807 133.693L1.63909 141.841L43.0052 69.6506C49.8275 70.0736 56.6246 66.6924 60.2529 60.3605C63.3086 55.0278 63.4222 48.8143 61.1033 43.5978L52.0657 59.3701L39.0079 59.4127L32.4422 48.1256Z"/>
</mask>
<path fill-rule="evenodd" clip-rule="evenodd" d="M32.4422 48.1256L41.2003 32.841C35.8752 33.7074 30.9716 36.8794 28.0803 41.9252C24.4522 48.2568 24.9718 55.8301 28.7857 61.5021L-12.5807 133.693L1.63909 141.841L43.0052 69.6506C49.8275 70.0736 56.6246 66.6924 60.2529 60.3605C63.3086 55.0278 63.4222 48.8143 61.1033 43.5978L52.0657 59.3701L39.0079 59.4127L32.4422 48.1256Z" fill="#111111"/>
<path fill-rule="evenodd" clip-rule="evenodd" d="M32.4422 48.1256L41.2003 32.841C35.8752 33.7074 30.9716 36.8794 28.0803 41.9252C24.4522 48.2568 24.9718 55.8301 28.7857 61.5021L-12.5807 133.693L1.63909 141.841L43.0052 69.6506C49.8275 70.0736 56.6246 66.6924 60.2529 60.3605C63.3086 55.0278 63.4222 48.8143 61.1033 43.5978L52.0657 59.3701L39.0079 59.4127L32.4422 48.1256Z" fill="#4B4B4B"/>
<path d="M41.2003 32.841L41.592 33.0655L42.0632 32.2432L41.1278 32.3954L41.2003 32.841ZM32.4422 48.1256L32.0505 47.9011L31.9209 48.1273L32.0519 48.3526L32.4422 48.1256ZM28.7857 61.5021L29.1774 61.7266L29.317 61.4831L29.1604 61.2502L28.7857 61.5021ZM-12.5807 133.693L-12.9724 133.469L-13.1969 133.86L-12.8051 134.085L-12.5807 133.693ZM1.63909 141.841L1.41462 142.233L1.80636 142.457L2.03083 142.066L1.63909 141.841ZM43.0052 69.6506L43.0331 69.2L42.753 69.1827L42.6135 69.4262L43.0052 69.6506ZM61.1033 43.5978L61.5159 43.4144L61.1542 42.6008L60.7116 43.3733L61.1033 43.5978ZM52.0657 59.3701L52.0672 59.8216L52.3279 59.8208L52.4575 59.5946L52.0657 59.3701ZM39.0079 59.4127L38.6177 59.6397L38.7488 59.865L39.0094 59.8642L39.0079 59.4127ZM40.8086 32.6166L32.0505 47.9011L32.8339 48.3501L41.592 33.0655L40.8086 32.6166ZM28.4721 42.1497C31.2929 37.2269 36.0763 34.1321 41.2728 33.2867L41.1278 32.3954C35.6742 33.2827 30.6504 36.5319 27.6886 41.7008L28.4721 42.1497ZM29.1604 61.2502C25.4386 55.7153 24.9327 48.3265 28.4721 42.1497L27.6886 41.7008C23.9718 48.1871 24.5049 55.9449 28.411 61.754L29.1604 61.2502ZM-12.1889 133.918L29.1774 61.7266L28.394 61.2776L-12.9724 133.469L-12.1889 133.918ZM1.86356 141.45L-12.3562 133.301L-12.8051 134.085L1.41462 142.233L1.86356 141.45ZM42.6135 69.4262L1.24735 141.617L2.03083 142.066L43.3969 69.8751L42.6135 69.4262ZM59.8612 60.136C56.3216 66.3132 49.6905 69.6127 43.0331 69.2L42.9773 70.1013C49.9645 70.5344 56.9277 67.0717 60.6446 60.585L59.8612 60.136ZM60.6908 43.7812C62.9536 48.8719 62.8423 54.9335 59.8612 60.136L60.6446 60.585C63.7749 55.1222 63.8907 48.7568 61.5159 43.4144L60.6908 43.7812ZM52.4575 59.5946L61.4951 43.8223L60.7116 43.3733L51.674 59.1456L52.4575 59.5946ZM39.0094 59.8642L52.0672 59.8216L52.0643 58.9186L39.0065 58.9612L39.0094 59.8642ZM32.0519 48.3526L38.6177 59.6397L39.3982 59.1857L32.8325 47.8986L32.0519 48.3526Z" fill="#CDCDCD" fill-opacity="0.2" mask="url(#path-4-inside-1_363_5516)"/>
</g>
</g>
</g>
<g id="Group 18140784">
<g id="Union_2" filter="url(#filter3_d_363_5516)">
<mask id="path-6-inside-2_363_5516" fill="white">
<path fill-rule="evenodd" clip-rule="evenodd" d="M74.0208 12.01C74.1397 11.7726 74.3114 11.4971 74.4025 11.3979C74.672 11.104 74.9519 11.1642 75.478 11.6292C76.9143 12.8988 78.7439 12.8988 80.1802 11.6292C80.8894 11.0025 81.155 11.059 81.5949 11.9303C82.3928 13.511 84.2798 14.215 85.824 13.5081C86.7277 13.0943 87.0181 13.2581 87.1806 14.273C87.4753 16.1136 88.7494 17.1904 90.6023 17.1646C91.7082 17.1492 91.9083 17.3689 91.6656 18.3324C91.2276 20.0712 92.2063 21.7588 93.9609 22.29C94.7805 22.5383 94.9908 22.9665 94.5666 23.5237C93.5392 24.8733 93.7035 26.8809 94.9265 27.9186C95.7301 28.6004 95.7985 28.681 95.7985 28.9461C95.7985 29.2112 95.7301 29.2919 94.9265 29.9736C93.7532 30.9692 93.5495 32.8845 94.4741 34.2286C94.9819 34.9668 94.8444 35.3346 93.9609 35.6022C92.2063 36.1334 91.2276 37.821 91.6656 39.5598C91.9098 40.5294 91.7182 40.7347 90.5749 40.7285C88.7121 40.7183 87.4758 41.7759 87.1782 43.6339C87.0193 44.6265 86.7179 44.7934 85.824 44.3841C84.2912 43.6825 82.3926 44.3817 81.6075 45.9371C81.1718 46.8001 80.8667 46.8698 80.1802 46.263C78.7439 44.9934 76.9143 44.9934 75.478 46.263C74.7672 46.8912 74.4896 46.8187 74.0208 45.8822C73.2455 44.3334 71.2735 43.6723 69.6987 44.4331C68.9821 44.7793 68.5842 44.5417 68.4903 43.7115C68.2819 41.8692 66.9587 40.7097 65.0833 40.726C63.9618 40.7358 63.7543 40.5295 63.9859 39.6351C64.4611 37.8016 63.4745 36.1103 61.6186 35.5763C60.8887 35.3663 60.6858 34.9014 61.0916 34.3685C61.8628 33.3555 61.9908 32.0425 61.4291 30.906C61.1631 30.3678 60.9709 30.1512 60.108 29.4166C59.7661 29.1256 59.7661 28.7667 60.108 28.4756C60.9834 27.7304 61.1615 27.5276 61.446 26.9517C61.9834 25.864 61.8497 24.5173 61.1081 23.5449C60.6663 22.9657 60.8653 22.542 61.6973 22.29C63.4821 21.7497 64.4355 20.0902 63.9945 18.291C63.7668 17.3614 63.9618 17.1576 65.074 17.1626C66.9502 17.1711 68.1817 16.1209 68.48 14.2583C68.6404 13.2564 68.9427 13.0952 69.8575 13.5237C71.3106 14.2044 73.281 13.488 74.0208 12.01Z"/>
</mask>
<path fill-rule="evenodd" clip-rule="evenodd" d="M74.0208 12.01C74.1397 11.7726 74.3114 11.4971 74.4025 11.3979C74.672 11.104 74.9519 11.1642 75.478 11.6292C76.9143 12.8988 78.7439 12.8988 80.1802 11.6292C80.8894 11.0025 81.155 11.059 81.5949 11.9303C82.3928 13.511 84.2798 14.215 85.824 13.5081C86.7277 13.0943 87.0181 13.2581 87.1806 14.273C87.4753 16.1136 88.7494 17.1904 90.6023 17.1646C91.7082 17.1492 91.9083 17.3689 91.6656 18.3324C91.2276 20.0712 92.2063 21.7588 93.9609 22.29C94.7805 22.5383 94.9908 22.9665 94.5666 23.5237C93.5392 24.8733 93.7035 26.8809 94.9265 27.9186C95.7301 28.6004 95.7985 28.681 95.7985 28.9461C95.7985 29.2112 95.7301 29.2919 94.9265 29.9736C93.7532 30.9692 93.5495 32.8845 94.4741 34.2286C94.9819 34.9668 94.8444 35.3346 93.9609 35.6022C92.2063 36.1334 91.2276 37.821 91.6656 39.5598C91.9098 40.5294 91.7182 40.7347 90.5749 40.7285C88.7121 40.7183 87.4758 41.7759 87.1782 43.6339C87.0193 44.6265 86.7179 44.7934 85.824 44.3841C84.2912 43.6825 82.3926 44.3817 81.6075 45.9371C81.1718 46.8001 80.8667 46.8698 80.1802 46.263C78.7439 44.9934 76.9143 44.9934 75.478 46.263C74.7672 46.8912 74.4896 46.8187 74.0208 45.8822C73.2455 44.3334 71.2735 43.6723 69.6987 44.4331C68.9821 44.7793 68.5842 44.5417 68.4903 43.7115C68.2819 41.8692 66.9587 40.7097 65.0833 40.726C63.9618 40.7358 63.7543 40.5295 63.9859 39.6351C64.4611 37.8016 63.4745 36.1103 61.6186 35.5763C60.8887 35.3663 60.6858 34.9014 61.0916 34.3685C61.8628 33.3555 61.9908 32.0425 61.4291 30.906C61.1631 30.3678 60.9709 30.1512 60.108 29.4166C59.7661 29.1256 59.7661 28.7667 60.108 28.4756C60.9834 27.7304 61.1615 27.5276 61.446 26.9517C61.9834 25.864 61.8497 24.5173 61.1081 23.5449C60.6663 22.9657 60.8653 22.542 61.6973 22.29C63.4821 21.7497 64.4355 20.0902 63.9945 18.291C63.7668 17.3614 63.9618 17.1576 65.074 17.1626C66.9502 17.1711 68.1817 16.1209 68.48 14.2583C68.6404 13.2564 68.9427 13.0952 69.8575 13.5237C71.3106 14.2044 73.281 13.488 74.0208 12.01Z" fill="#111111"/>
<path fill-rule="evenodd" clip-rule="evenodd" d="M74.0208 12.01C74.1397 11.7726 74.3114 11.4971 74.4025 11.3979C74.672 11.104 74.9519 11.1642 75.478 11.6292C76.9143 12.8988 78.7439 12.8988 80.1802 11.6292C80.8894 11.0025 81.155 11.059 81.5949 11.9303C82.3928 13.511 84.2798 14.215 85.824 13.5081C86.7277 13.0943 87.0181 13.2581 87.1806 14.273C87.4753 16.1136 88.7494 17.1904 90.6023 17.1646C91.7082 17.1492 91.9083 17.3689 91.6656 18.3324C91.2276 20.0712 92.2063 21.7588 93.9609 22.29C94.7805 22.5383 94.9908 22.9665 94.5666 23.5237C93.5392 24.8733 93.7035 26.8809 94.9265 27.9186C95.7301 28.6004 95.7985 28.681 95.7985 28.9461C95.7985 29.2112 95.7301 29.2919 94.9265 29.9736C93.7532 30.9692 93.5495 32.8845 94.4741 34.2286C94.9819 34.9668 94.8444 35.3346 93.9609 35.6022C92.2063 36.1334 91.2276 37.821 91.6656 39.5598C91.9098 40.5294 91.7182 40.7347 90.5749 40.7285C88.7121 40.7183 87.4758 41.7759 87.1782 43.6339C87.0193 44.6265 86.7179 44.7934 85.824 44.3841C84.2912 43.6825 82.3926 44.3817 81.6075 45.9371C81.1718 46.8001 80.8667 46.8698 80.1802 46.263C78.7439 44.9934 76.9143 44.9934 75.478 46.263C74.7672 46.8912 74.4896 46.8187 74.0208 45.8822C73.2455 44.3334 71.2735 43.6723 69.6987 44.4331C68.9821 44.7793 68.5842 44.5417 68.4903 43.7115C68.2819 41.8692 66.9587 40.7097 65.0833 40.726C63.9618 40.7358 63.7543 40.5295 63.9859 39.6351C64.4611 37.8016 63.4745 36.1103 61.6186 35.5763C60.8887 35.3663 60.6858 34.9014 61.0916 34.3685C61.8628 33.3555 61.9908 32.0425 61.4291 30.906C61.1631 30.3678 60.9709 30.1512 60.108 29.4166C59.7661 29.1256 59.7661 28.7667 60.108 28.4756C60.9834 27.7304 61.1615 27.5276 61.446 26.9517C61.9834 25.864 61.8497 24.5173 61.1081 23.5449C60.6663 22.9657 60.8653 22.542 61.6973 22.29C63.4821 21.7497 64.4355 20.0902 63.9945 18.291C63.7668 17.3614 63.9618 17.1576 65.074 17.1626C66.9502 17.1711 68.1817 16.1209 68.48 14.2583C68.6404 13.2564 68.9427 13.0952 69.8575 13.5237C71.3106 14.2044 73.281 13.488 74.0208 12.01Z" fill="#4B4B4B"/>
<path d="M74.4025 11.3979L74.735 11.7033L74.7352 11.7031L74.4025 11.3979ZM74.0208 12.01L73.6171 11.8079L73.6171 11.8079L74.0208 12.01ZM75.478 11.6292L75.179 11.9675L75.179 11.9675L75.478 11.6292ZM80.1802 11.6292L79.8812 11.2909L79.8812 11.2909L80.1802 11.6292ZM81.5949 11.9303L81.9979 11.7268L81.9979 11.7268L81.5949 11.9303ZM85.824 13.5081L86.0119 13.9186L86.0119 13.9186L85.824 13.5081ZM87.1806 14.273L86.7348 14.3443L86.7348 14.3444L87.1806 14.273ZM90.6023 17.1646L90.6086 17.616L90.6086 17.616L90.6023 17.1646ZM91.6656 18.3324L92.1034 18.4427L92.1034 18.4426L91.6656 18.3324ZM93.9609 22.29L94.0917 21.8579L94.0917 21.8579L93.9609 22.29ZM94.5666 23.5237L94.9259 23.7972L94.9259 23.7972L94.5666 23.5237ZM94.9265 27.9186L94.6344 28.2628L94.6344 28.2628L94.9265 27.9186ZM94.9265 29.9736L94.6344 29.6294L94.6344 29.6294L94.9265 29.9736ZM94.4741 34.2286L94.8461 33.9728L94.8461 33.9727L94.4741 34.2286ZM93.9609 35.6022L94.0917 36.0343L94.0917 36.0343L93.9609 35.6022ZM91.6656 39.5598L92.1034 39.4496L92.1034 39.4496L91.6656 39.5598ZM90.5749 40.7285L90.5725 41.18L90.5725 41.18L90.5749 40.7285ZM87.1782 43.6339L86.7324 43.5625L86.7324 43.5625L87.1782 43.6339ZM85.824 44.3841L86.0119 43.9736L86.0119 43.9736L85.824 44.3841ZM81.6075 45.9371L82.0105 46.1405L82.0105 46.1405L81.6075 45.9371ZM80.1802 46.263L80.4792 45.9247L80.4792 45.9247L80.1802 46.263ZM75.478 46.263L75.777 46.6013L75.777 46.6013L75.478 46.263ZM74.0208 45.8822L73.6171 46.0843L73.6171 46.0843L74.0208 45.8822ZM69.6987 44.4331L69.5023 44.0265L69.5022 44.0266L69.6987 44.4331ZM68.4903 43.7115L68.0417 43.7622L68.0417 43.7623L68.4903 43.7115ZM65.0833 40.726L65.0793 40.2745H65.0793L65.0833 40.726ZM63.9859 39.6351L63.5489 39.5218L63.5489 39.5219L63.9859 39.6351ZM61.6186 35.5763L61.4938 36.0102L61.4938 36.0102L61.6186 35.5763ZM61.0916 34.3685L61.4508 34.642L61.4508 34.642L61.0916 34.3685ZM61.4291 30.906L61.0243 31.106L61.0243 31.106L61.4291 30.906ZM60.108 29.4166L60.4006 29.0728L60.4006 29.0728L60.108 29.4166ZM60.108 28.4756L59.8153 28.1318L59.8153 28.1318L60.108 28.4756ZM61.446 26.9517L61.0412 26.7518L61.0412 26.7518L61.446 26.9517ZM61.1081 23.5449L61.4671 23.2711L61.4671 23.271L61.1081 23.5449ZM61.6973 22.29L61.5665 21.8579L61.5665 21.8579L61.6973 22.29ZM63.9945 18.291L63.556 18.3984L63.556 18.3985L63.9945 18.291ZM65.074 17.1626L65.0761 16.7111L65.0761 16.7111L65.074 17.1626ZM68.48 14.2583L68.0342 14.1869L68.0342 14.1869L68.48 14.2583ZM69.8575 13.5237L69.666 13.9326L69.666 13.9326L69.8575 13.5237ZM74.0699 11.0925C73.9346 11.2399 73.7402 11.562 73.6171 11.8079L74.4245 12.2122C74.5392 11.9831 74.6881 11.7543 74.735 11.7033L74.0699 11.0925ZM75.777 11.2909C75.5106 11.0554 75.2328 10.8508 74.939 10.7876C74.7756 10.7524 74.6078 10.7606 74.4452 10.8244C74.2895 10.8856 74.167 10.9867 74.0698 11.0927L74.7352 11.7031C74.7727 11.6621 74.7863 11.6606 74.7753 11.6649C74.7575 11.6719 74.7431 11.6691 74.7491 11.6704C74.7633 11.6734 74.8054 11.6867 74.8835 11.7365C74.9605 11.7855 75.057 11.8597 75.179 11.9675L75.777 11.2909ZM79.8812 11.2909C79.2361 11.8612 78.5234 12.1299 77.8291 12.1299C77.1348 12.1299 76.4221 11.8612 75.777 11.2909L75.179 11.9675C75.9701 12.6668 76.8904 13.0329 77.8291 13.0329C78.7678 13.0329 79.6881 12.6668 80.4792 11.9675L79.8812 11.2909ZM81.9979 11.7268C81.8837 11.5005 81.7664 11.2972 81.6356 11.1394C81.5037 10.9803 81.3257 10.8281 81.0825 10.7764C80.8365 10.724 80.6121 10.793 80.4283 10.8898C80.248 10.9847 80.066 11.1276 79.8812 11.2909L80.4792 11.9675C80.649 11.8175 80.7661 11.7324 80.8489 11.6888C80.928 11.6472 80.9305 11.6672 80.8946 11.6596C80.8615 11.6526 80.8766 11.6387 80.9404 11.7157C81.0053 11.7939 81.0862 11.9244 81.1919 12.1338L81.9979 11.7268ZM85.636 13.0975C84.3276 13.6965 82.6942 13.1061 81.9979 11.7268L81.1918 12.1337C82.0915 13.916 84.232 14.7334 86.0119 13.9186L85.636 13.0975ZM87.6264 14.2016C87.5837 13.9352 87.5283 13.6926 87.4429 13.4911C87.3566 13.2873 87.2231 13.0862 87.002 12.9615C86.7785 12.8354 86.5369 12.8277 86.3178 12.8653C86.1037 12.9022 85.8744 12.9884 85.636 13.0976L86.0119 13.9186C86.2254 13.8208 86.3713 13.7724 86.4709 13.7553C86.5655 13.739 86.5762 13.758 86.5585 13.7481C86.5433 13.7395 86.5693 13.7437 86.6114 13.8432C86.6544 13.9448 86.6962 14.1033 86.7348 14.3443L87.6264 14.2016ZM90.596 16.7132C89.7604 16.7248 89.0896 16.4888 88.5986 16.0738C88.1073 15.6587 87.7596 15.0336 87.6264 14.2016L86.7348 14.3444C86.8963 15.353 87.333 16.1866 88.0157 16.7635C88.6987 17.3407 89.5913 17.6302 90.6086 17.616L90.596 16.7132ZM92.1034 18.4426C92.1667 18.1913 92.2115 17.9513 92.2088 17.7357C92.2061 17.5128 92.1517 17.2731 91.9735 17.0774C91.8022 16.8893 91.5725 16.8046 91.3561 16.7621C91.1388 16.7194 90.8813 16.7092 90.596 16.7132L90.6086 17.616C90.8762 17.6123 91.0585 17.6238 91.1821 17.6481C91.3067 17.6726 91.3193 17.7001 91.3058 17.6854C91.2856 17.6632 91.3048 17.6581 91.3059 17.7468C91.3071 17.843 91.2858 17.9917 91.2278 18.2221L92.1034 18.4426ZM94.0917 21.8579C92.5594 21.394 91.7264 19.9393 92.1034 18.4427L91.2278 18.2221C90.7288 20.2031 91.8532 22.1236 93.8301 22.7222L94.0917 21.8579ZM94.9259 23.7972C95.1847 23.4572 95.3468 23.0224 95.1354 22.592C94.9472 22.2086 94.531 21.991 94.0917 21.8579L93.83 22.7222C94.2104 22.8373 94.3092 22.958 94.3249 22.99C94.327 22.9944 94.3322 23.0023 94.3254 23.0331C94.3167 23.0722 94.288 23.1443 94.2074 23.2502L94.9259 23.7972ZM95.2186 27.5743C94.1953 26.706 94.0303 24.9735 94.9259 23.7972L94.2074 23.2502C93.048 24.7731 93.2118 27.0558 94.6344 28.2628L95.2186 27.5743ZM96.25 28.9461C96.25 28.8623 96.2454 28.749 96.2025 28.6235C96.1594 28.4974 96.0895 28.3924 96.0081 28.2964C95.8607 28.1228 95.6076 27.9043 95.2186 27.5743L94.6344 28.2628C95.049 28.6146 95.2318 28.7773 95.3196 28.8807C95.3557 28.9233 95.3532 28.9307 95.348 28.9156C95.3431 28.9011 95.347 28.8974 95.347 28.9461H96.25ZM95.2186 30.3179C95.6076 29.9879 95.8607 29.7694 96.0081 29.5958C96.0895 29.4998 96.1594 29.3948 96.2025 29.2687C96.2454 29.1432 96.25 29.0299 96.25 28.9461H95.347C95.347 28.9948 95.3431 28.9911 95.348 28.9766C95.3532 28.9615 95.3557 28.9689 95.3196 29.0115C95.2318 29.1149 95.049 29.2776 94.6344 29.6294L95.2186 30.3179ZM94.8461 33.9727C94.0405 32.8017 94.2381 31.1499 95.2186 30.3179L94.6344 29.6294C93.2683 30.7885 93.0585 32.9674 94.1022 34.4845L94.8461 33.9727ZM94.0917 36.0343C94.332 35.9615 94.5512 35.8736 94.7306 35.7575C94.913 35.6394 95.0774 35.4767 95.1622 35.2499C95.3305 34.7995 95.1019 34.3446 94.8461 33.9728L94.1021 34.4845C94.2169 34.6513 94.276 34.7705 94.3016 34.8522C94.3256 34.9287 94.3122 34.9448 94.3163 34.9339C94.3197 34.9248 94.3159 34.9503 94.2399 34.9995C94.1608 35.0506 94.0315 35.109 93.83 35.17L94.0917 36.0343ZM92.1034 39.4496C91.7264 37.9529 92.5594 36.4982 94.0917 36.0343L93.8301 35.17C91.8532 35.7686 90.7288 37.6891 91.2278 39.6701L92.1034 39.4496ZM90.5725 41.18C90.8656 41.1816 91.1276 41.1703 91.347 41.1283C91.5641 41.0867 91.7967 41.0046 91.9707 40.8181C92.1536 40.6221 92.2083 40.3804 92.2105 40.1566C92.2125 39.9414 92.1668 39.701 92.1034 39.4496L91.2278 39.6701C91.2866 39.9035 91.3084 40.0523 91.3075 40.148C91.3067 40.2353 91.2878 40.2263 91.3105 40.202C91.3242 40.1873 91.3098 40.216 91.177 40.2414C91.0466 40.2664 90.856 40.2785 90.5774 40.277L90.5725 41.18ZM87.6241 43.7053C87.7593 42.8605 88.1005 42.2365 88.5831 41.8237C89.0652 41.4113 89.7287 41.1754 90.5725 41.18L90.5774 40.277C89.5583 40.2714 88.6722 40.5592 87.9961 41.1375C87.3204 41.7155 86.8947 42.5492 86.7324 43.5625L87.6241 43.7053ZM85.636 44.7947C85.873 44.9031 86.1013 44.9883 86.3153 45.0244C86.5339 45.0613 86.7735 45.0527 86.9955 44.9297C87.216 44.8075 87.3515 44.61 87.4395 44.4071C87.5262 44.2072 87.5821 43.9674 87.6241 43.7053L86.7324 43.5625C86.6949 43.7967 86.6535 43.95 86.6111 44.0477C86.57 44.1426 86.5445 44.1473 86.558 44.1398C86.5731 44.1314 86.5597 44.1499 86.4655 44.134C86.3665 44.1173 86.222 44.0698 86.0119 43.9736L85.636 44.7947ZM82.0105 46.1405C82.6923 44.7898 84.3358 44.1994 85.636 44.7947L86.0119 43.9736C84.2465 43.1655 82.0929 43.9735 81.2044 45.7336L82.0105 46.1405ZM79.8812 46.6013C80.0634 46.7623 80.2462 46.9025 80.4313 46.994C80.6216 47.0883 80.8465 47.1466 81.0884 47.0914C81.3261 47.0371 81.5051 46.8901 81.6413 46.7297C81.7762 46.5709 81.8959 46.3676 82.0105 46.1405L81.2044 45.7336C81.1012 45.938 81.0194 46.0671 80.9531 46.1451C80.8881 46.2216 80.8662 46.2159 80.8874 46.211C80.9128 46.2052 80.9054 46.2212 80.8318 46.1848C80.753 46.1457 80.6403 46.0671 80.4792 45.9247L79.8812 46.6013ZM75.777 46.6013C76.4221 46.031 77.1348 45.7623 77.8291 45.7623C78.5234 45.7623 79.2361 46.031 79.8812 46.6013L80.4792 45.9247C79.6881 45.2254 78.7678 44.8593 77.8291 44.8593C76.8904 44.8593 75.9701 45.2254 75.179 45.9247L75.777 46.6013ZM73.6171 46.0843C73.7384 46.3266 73.8606 46.5409 73.9939 46.7074C74.1269 46.8733 74.3036 47.0332 74.5445 47.0962C74.7944 47.1615 75.0261 47.1005 75.2189 47.0037C75.4054 46.9101 75.591 46.7657 75.777 46.6013L75.179 45.9247C75.0096 46.0744 74.894 46.1565 74.8139 46.1967C74.7401 46.2337 74.7398 46.2139 74.7728 46.2225C74.7969 46.2288 74.7719 46.2342 74.6987 46.1429C74.6259 46.052 74.5376 45.906 74.4245 45.6801L73.6171 46.0843ZM69.8951 44.8396C71.2513 44.1844 72.9541 44.7599 73.6171 46.0843L74.4245 45.6801C73.5369 43.9069 71.2957 43.1601 69.5023 44.0265L69.8951 44.8396ZM68.0417 43.7623C68.0925 44.2111 68.2387 44.6677 68.6295 44.9011C69.032 45.1414 69.4973 45.0318 69.8951 44.8396L69.5022 44.0266C69.3525 44.0989 69.2465 44.1271 69.1775 44.1337C69.1141 44.1398 69.0947 44.1271 69.0925 44.1258C69.0818 44.1194 68.9821 44.0421 68.9389 43.6607L68.0417 43.7623ZM65.0872 41.1775C65.9291 41.1702 66.6171 41.4256 67.1144 41.8613C67.6113 42.2968 67.9486 42.9392 68.0417 43.7622L68.9389 43.6607C68.8236 42.6415 68.3951 41.783 67.7095 41.1822C67.0243 40.5817 66.1129 40.2656 65.0793 40.2745L65.0872 41.1775ZM63.5489 39.5219C63.488 39.757 63.4443 39.9876 63.4507 40.1979C63.4574 40.4202 63.5219 40.6539 63.7088 40.8398C63.8834 41.0133 64.1111 41.0902 64.3244 41.1295C64.541 41.1693 64.7986 41.18 65.0872 41.1775L65.0793 40.2745C64.8072 40.2769 64.6183 40.2654 64.4878 40.2414C64.3541 40.2168 64.334 40.1881 64.3455 40.1994C64.3693 40.2232 64.3553 40.2382 64.3532 40.1705C64.3508 40.091 64.3681 39.9604 64.423 39.7483L63.5489 39.5219ZM61.4938 36.0102C63.1222 36.4787 63.9606 37.9329 63.5489 39.5218L64.423 39.7484C64.9615 37.6704 63.8268 35.7418 61.7435 35.1424L61.4938 36.0102ZM60.7324 34.095C60.474 34.4344 60.3342 34.8588 60.5154 35.2741C60.6852 35.6631 61.074 35.8894 61.4938 36.0102L61.7435 35.1424C61.4334 35.0532 61.3557 34.9421 61.343 34.9129C61.3418 34.91 61.3034 34.8356 61.4508 34.642L60.7324 34.095ZM61.0243 31.106C61.5096 32.088 61.4003 33.2177 60.7323 34.095L61.4508 34.642C62.3253 33.4933 62.4719 31.9969 61.8338 30.7059L61.0243 31.106ZM59.8153 29.7604C60.2485 30.1291 60.4893 30.3481 60.6546 30.5345C60.8089 30.7085 60.9027 30.8598 61.0243 31.106L61.8338 30.706C61.6895 30.4139 61.5542 30.1879 61.3302 29.9353C61.1172 29.6953 60.8304 29.4386 60.4006 29.0728L59.8153 29.7604ZM59.8153 28.1318C59.5773 28.3345 59.4001 28.6127 59.4001 28.9461C59.4001 29.2795 59.5773 29.5577 59.8153 29.7604L60.4006 29.0728C60.3493 29.0291 60.3243 28.9942 60.3129 28.9731C60.3074 28.9629 60.305 28.9559 60.304 28.9522C60.3031 28.9486 60.3031 28.9468 60.3031 28.9461C60.3031 28.9454 60.3031 28.9436 60.304 28.9401C60.305 28.9363 60.3074 28.9294 60.3129 28.9191C60.3243 28.898 60.3493 28.8631 60.4006 28.8194L59.8153 28.1318ZM61.0412 26.7518C60.9084 27.0207 60.813 27.1772 60.6593 27.3523C60.4945 27.54 60.2554 27.7572 59.8153 28.1318L60.4006 28.8194C60.836 28.4489 61.1237 28.192 61.3379 27.9481C61.5632 27.6915 61.6991 27.4586 61.8508 27.1517L61.0412 26.7518ZM60.7491 23.8187C61.3878 24.6561 61.5018 25.8194 61.0412 26.7518L61.8508 27.1517C62.4649 25.9085 62.3117 24.3785 61.4671 23.2711L60.7491 23.8187ZM61.5665 21.8579C61.1247 21.9917 60.701 22.2096 60.5163 22.6028C60.311 23.0401 60.4888 23.4774 60.7491 23.8187L61.4671 23.271C61.3801 23.157 61.3464 23.0781 61.3354 23.033C61.3265 22.9964 61.3331 22.988 61.3337 22.9867C61.3461 22.9602 61.4378 22.8404 61.8282 22.7222L61.5665 21.8579ZM63.556 18.3985C63.9392 19.962 63.1242 21.3863 61.5665 21.8579L61.8281 22.7222C63.8401 22.113 64.9317 20.2183 64.433 18.1835L63.556 18.3985ZM65.0761 16.7111C64.7903 16.7098 64.5341 16.7213 64.3188 16.7627C64.1057 16.8037 63.878 16.884 63.7055 17.0642C63.5235 17.2545 63.4647 17.4902 63.4593 17.7108C63.4542 17.9219 63.4966 18.156 63.556 18.3984L64.433 18.1835C64.3785 17.9611 64.3599 17.8212 64.3621 17.7328C64.364 17.6539 64.3808 17.6647 64.358 17.6884C64.3449 17.7022 64.3602 17.6743 64.4894 17.6494C64.6164 17.625 64.8017 17.6129 65.072 17.6141L65.0761 16.7111ZM68.0342 14.1869C67.8984 15.0345 67.5581 15.6573 67.0758 16.0686C66.5937 16.4797 65.9281 16.715 65.0761 16.7111L65.072 17.6141C66.0962 17.6187 66.9844 17.3332 67.6617 16.7557C68.3387 16.1784 68.7632 15.3448 68.9258 14.3297L68.0342 14.1869ZM70.049 13.1149C69.8077 13.0018 69.5765 12.9127 69.361 12.8728C69.1416 12.8323 68.8993 12.8357 68.6734 12.9562C68.4478 13.0765 68.3097 13.2756 68.2205 13.4799C68.1327 13.681 68.0765 13.9228 68.0342 14.1869L68.9258 14.3297C68.9637 14.0929 69.0054 13.9388 69.048 13.8413C69.0892 13.747 69.1139 13.7447 69.0983 13.753C69.0824 13.7615 69.0972 13.7424 69.1968 13.7608C69.3002 13.7799 69.4499 13.8314 69.666 13.9326L70.049 13.1149ZM73.6171 11.8079C72.9814 13.0779 71.2696 13.6866 70.049 13.1149L69.666 13.9326C71.3516 14.7222 73.5806 13.8981 74.4245 12.2121L73.6171 11.8079Z" fill="#CDCDCD" fill-opacity="0.2" mask="url(#path-6-inside-2_363_5516)"/>
</g>
<g id="AI">
<path d="M74.78 35.1995L73.9909 32.1866H70.5655L69.7943 35.1995H67.0684L70.4579 22.6816H74.2599L77.6494 35.1995H74.78ZM72.3589 25.2821H72.2154L70.9959 30.0166H73.5784L72.3589 25.2821Z" fill="white"/>
<path d="M80.5118 35.1995V33.2089H83.2019V24.6723H80.5118V22.6816H88.5821V24.6723H85.892V33.2089H88.5821V35.1995H80.5118Z" fill="white"/>
</g>
</g>
</g>
</g>
<defs>
<filter id="filter0_d_363_5516" x="-11.7988" y="-0.790039" width="105.178" height="102.58" filterUnits="userSpaceOnUse" color-interpolation-filters="sRGB">
<feFlood flood-opacity="0" result="BackgroundImageFix"/>
<feColorMatrix in="SourceAlpha" type="matrix" values="0 0 0 0 0 0 0 0 0 0 0 0 0 0 0 0 0 0 127 0" result="hardAlpha"/>
<feOffset dx="-4"/>
<feGaussianBlur stdDeviation="6"/>
<feComposite in2="hardAlpha" operator="out"/>
<feColorMatrix type="matrix" values="0 0 0 0 0 0 0 0 0 0 0 0 0 0 0 0 0 0 0.45 0"/>
<feBlend mode="normal" in2="BackgroundImageFix" result="effect1_dropShadow_363_5516"/>
<feBlend mode="normal" in="SourceGraphic" in2="effect1_dropShadow_363_5516" result="shape"/>
</filter>
<filter id="filter1_d_363_5516" x="-11.7988" y="-0.790039" width="105.178" height="102.58" filterUnits="userSpaceOnUse" color-interpolation-filters="sRGB">
<feFlood flood-opacity="0" result="BackgroundImageFix"/>
<feColorMatrix in="SourceAlpha" type="matrix" values="0 0 0 0 0 0 0 0 0 0 0 0 0 0 0 0 0 0 127 0" result="hardAlpha"/>
<feOffset dx="-4"/>
<feGaussianBlur stdDeviation="6"/>
<feComposite in2="hardAlpha" operator="out"/>
<feColorMatrix type="matrix" values="0 0 0 0 0 0 0 0 0 0 0 0 0 0 0 0 0 0 0.45 0"/>
<feBlend mode="normal" in2="BackgroundImageFix" result="effect1_dropShadow_363_5516"/>
<feBlend mode="normal" in="SourceGraphic" in2="effect1_dropShadow_363_5516" result="shape"/>
</filter>
<filter id="filter2_d_363_5516" x="-30.6397" y="19.2961" width="102.378" height="136.089" filterUnits="userSpaceOnUse" color-interpolation-filters="sRGB">
<feFlood flood-opacity="0" result="BackgroundImageFix"/>
<feColorMatrix in="SourceAlpha" type="matrix" values="0 0 0 0 0 0 0 0 0 0 0 0 0 0 0 0 0 0 127 0" result="hardAlpha"/>
<feOffset dx="-4.5149"/>
<feGaussianBlur stdDeviation="6.77236"/>
<feComposite in2="hardAlpha" operator="out"/>
<feColorMatrix type="matrix" values="0 0 0 0 0 0 0 0 0 0 0 0 0 0 0 0 0 0 0.45 0"/>
<feBlend mode="normal" in2="BackgroundImageFix" result="effect1_dropShadow_363_5516"/>
<feBlend mode="normal" in="SourceGraphic" in2="effect1_dropShadow_363_5516" result="shape"/>
</filter>
<filter id="filter3_d_363_5516" x="41.7919" y="-2.33475" width="63.0367" height="62.5513" filterUnits="userSpaceOnUse" color-interpolation-filters="sRGB">
<feFlood flood-opacity="0" result="BackgroundImageFix"/>
<feColorMatrix in="SourceAlpha" type="matrix" values="0 0 0 0 0 0 0 0 0 0 0 0 0 0 0 0 0 0 127 0" result="hardAlpha"/>
<feOffset dx="-4.5149"/>
<feGaussianBlur stdDeviation="6.77236"/>
<feComposite in2="hardAlpha" operator="out"/>
<feColorMatrix type="matrix" values="0 0 0 0 0 0 0 0 0 0 0 0 0 0 0 0 0 0 0.45 0"/>
<feBlend mode="normal" in2="BackgroundImageFix" result="effect1_dropShadow_363_5516"/>
<feBlend mode="normal" in="SourceGraphic" in2="effect1_dropShadow_363_5516" result="shape"/>
</filter>
<linearGradient id="paint0_linear_363_5516" x1="44.7904" y1="-6.43901" x2="44.7904" y2="77.8127" gradientUnits="userSpaceOnUse">
<stop stop-color="#252525"/>
<stop offset="1" stop-color="#252525" stop-opacity="0"/>
</linearGradient>
<linearGradient id="paint1_linear_363_5516" x1="44.7904" y1="-6.43901" x2="44.7904" y2="77.8127" gradientUnits="userSpaceOnUse">
<stop stop-color="#252525"/>
<stop offset="1" stop-color="#252525" stop-opacity="0"/>
</linearGradient>
<clipPath id="clip0_363_5516">
<rect width="100" height="100" fill="white" transform="translate(0 0.5)"/>
</clipPath>
</defs>
</svg>
