<svg width="72" height="72" viewBox="0 0 72 72" fill="none" xmlns="http://www.w3.org/2000/svg">
<path d="M58.5 27C59.6935 27 60.8381 26.5259 61.682 25.682C62.5259 24.8381 63 23.6935 63 22.5V13.5C63 12.3065 62.5259 11.1619 61.682 10.318C60.8381 9.47411 59.6935 9 58.5 9H49.5C48.3065 9 47.1619 9.47411 46.318 10.318C45.4741 11.1619 45 12.3065 45 13.5V15.75H27V13.5C27 12.3065 26.5259 11.1619 25.682 10.318C24.8381 9.47411 23.6935 9 22.5 9H13.5C12.3065 9 11.1619 9.47411 10.318 10.318C9.47411 11.1619 9 12.3065 9 13.5V22.5C9 23.6935 9.47411 24.8381 10.318 25.682C11.1619 26.5259 12.3065 27 13.5 27H15.75V45H13.5C12.3065 45 11.1619 45.4741 10.318 46.318C9.47411 47.1619 9 48.3065 9 49.5V58.5C9 59.6935 9.47411 60.8381 10.318 61.682C11.1619 62.5259 12.3065 63 13.5 63H22.5C23.6935 63 24.8381 62.5259 25.682 61.682C26.5259 60.8381 27 59.6935 27 58.5V56.25H45V58.5C45 59.6935 45.4741 60.8381 46.318 61.682C47.1619 62.5259 48.3065 63 49.5 63H58.5C59.6935 63 60.8381 62.5259 61.682 61.682C62.5259 60.8381 63 59.6935 63 58.5V49.5C63 48.3065 62.5259 47.1619 61.682 46.318C60.8381 45.4741 59.6935 45 58.5 45H56.25V27H58.5ZM49.5 13.5H58.5V22.5H49.5V13.5ZM13.5 13.5H22.5V17.9719C22.4963 17.9904 22.4963 18.0096 22.5 18.0281V22.5H13.5V13.5ZM22.5 58.5H13.5V49.5H22.5V53.9719C22.4963 53.9904 22.4963 54.0096 22.5 54.0281V58.5ZM58.5 58.5H49.5V49.5H58.5V58.5ZM51.75 45H49.5C48.3065 45 47.1619 45.4741 46.318 46.318C45.4741 47.1619 45 48.3065 45 49.5V51.75H27V49.5C27 48.3065 26.5259 47.1619 25.682 46.318C24.8381 45.4741 23.6935 45 22.5 45H20.25V27H22.5C23.6935 27 24.8381 26.5259 25.682 25.682C26.5259 24.8381 27 23.6935 27 22.5V20.25H45V22.5C45 23.6935 45.4741 24.8381 46.318 25.682C47.1619 26.5259 48.3065 27 49.5 27H51.75V45Z" fill="white"/>
</svg>
