<svg width="695" height="673" viewBox="0 0 695 673" fill="none" xmlns="http://www.w3.org/2000/svg">
<path d="M633.284 261.833C634.948 265.703 636.325 269.675 637.401 273.744L636.434 274C636.964 276.006 637.421 278.036 637.802 280.09C638.183 282.143 638.485 284.202 638.71 286.265L639.704 286.156C640.16 290.341 640.3 294.542 640.134 298.752L639.135 298.712C638.973 302.838 638.515 306.973 637.769 311.11L638.753 311.288C638.018 315.368 637.007 319.449 635.729 323.523L634.775 323.223C633.549 327.13 632.076 331.032 630.362 334.923L631.277 335.327C629.613 339.104 627.726 342.869 625.623 346.615L624.751 346.126C622.751 349.689 620.553 353.237 618.164 356.765L618.992 357.326C616.679 360.742 614.189 364.138 611.527 367.508L610.743 366.889C608.194 370.116 605.487 373.321 602.627 376.5L603.37 377.169C600.61 380.237 597.708 383.28 594.67 386.294L593.965 385.584C591.045 388.481 587.997 391.352 584.826 394.193L585.493 394.938C582.411 397.699 579.213 400.432 575.904 403.134L575.272 402.359C572.073 404.971 568.769 407.554 565.363 410.106L565.963 410.906C562.642 413.393 559.226 415.851 555.717 418.275L555.149 417.452C551.741 419.806 548.247 422.129 544.667 424.419L545.206 425.261C541.704 427.501 538.121 429.709 534.461 431.883L533.95 431.023C530.382 433.142 526.739 435.229 523.025 437.281L523.508 438.156C519.864 440.17 516.15 442.151 512.37 444.097L511.913 443.207C508.216 445.111 504.455 446.98 500.633 448.815L501.065 449.716C497.305 451.521 493.485 453.291 489.609 455.026L489.2 454.113C485.398 455.815 481.54 457.482 477.629 459.113L478.014 460.036C474.159 461.644 470.252 463.217 466.295 464.754L465.933 463.821C462.053 465.328 458.125 466.8 454.15 468.235L454.49 469.176C450.564 470.594 446.593 471.976 442.58 473.321L442.262 472.373C438.308 473.698 434.312 474.987 430.276 476.239L430.572 477.194C426.578 478.433 422.545 479.636 418.475 480.8L418.2 479.839C414.183 480.988 410.13 482.1 406.041 483.174L406.295 484.141C402.244 485.206 398.158 486.233 394.04 487.222L393.807 486.249C389.749 487.223 385.659 488.16 381.539 489.058L381.752 490.035C377.664 490.926 373.547 491.778 369.401 492.592L369.208 491.611C367.145 492.016 365.074 492.411 362.997 492.797C360.92 493.182 358.845 493.556 356.774 493.918L356.946 494.903C352.785 495.631 348.635 496.312 344.5 496.947L344.348 495.959C340.18 496.599 336.027 497.192 331.89 497.739L332.021 498.73C327.822 499.285 323.64 499.792 319.476 500.252L319.366 499.258C315.165 499.722 310.982 500.138 306.82 500.506L306.909 501.502C302.691 501.876 298.496 502.2 294.323 502.477L294.257 501.479C290.041 501.758 285.848 501.989 281.682 502.17L281.725 503.169C277.496 503.354 273.294 503.488 269.121 503.573L269.1 502.573C264.876 502.659 260.681 502.695 256.519 502.68L256.515 503.68C252.271 503.666 248.06 503.599 243.884 503.481L243.912 502.482C239.676 502.362 235.477 502.19 231.317 501.966L231.264 502.965C227.023 502.736 222.822 502.454 218.665 502.118L218.745 501.122C214.519 500.781 210.338 500.385 206.204 499.935L206.096 500.929C201.87 500.469 197.693 499.952 193.569 499.38L193.706 498.39C189.502 497.806 185.354 497.165 181.263 496.468L181.095 497.453C176.898 496.738 172.762 495.962 168.689 495.127L168.89 494.148C164.727 493.295 160.631 492.38 156.607 491.406L156.371 492.378C152.226 491.374 148.156 490.306 144.164 489.175L144.436 488.213C140.342 487.053 136.331 485.828 132.408 484.537L132.096 485.487C128.038 484.152 124.073 482.748 120.205 481.277L120.561 480.342C116.581 478.828 112.706 477.242 108.941 475.585L108.538 476.501C104.621 474.777 100.82 472.978 97.1432 471.105L97.5971 470.214C93.7865 468.273 90.1097 466.252 86.5732 464.154L86.0629 465.014C82.3693 462.822 78.8265 460.546 75.4418 458.187L76.0136 457.367C72.5179 454.931 69.1936 452.407 66.0483 449.799L65.4099 450.569C62.1027 447.826 58.9905 444.989 56.0826 442.06L56.7922 441.355C53.7963 438.338 51.0208 435.224 48.4754 432.017L47.6921 432.639C45.0378 429.295 42.6297 425.848 40.4794 422.303L41.3344 421.785C39.154 418.19 37.2425 414.495 35.6113 410.702L34.6927 411.097C33.0283 407.228 31.6518 403.256 30.5758 399.186L31.5425 398.931C31.0121 396.925 30.5556 394.895 30.1746 392.841C29.7935 390.787 29.4913 388.729 29.2667 386.666L28.2726 386.774C27.8169 382.59 27.6769 378.388 27.8421 374.179L28.8414 374.218C29.0033 370.093 29.4618 365.958 30.2074 361.82L29.2232 361.643C29.9586 357.563 30.9699 353.482 32.2478 349.408L33.202 349.707C34.4274 345.801 35.901 341.899 37.6149 338.007L36.6997 337.604C38.3633 333.827 40.2504 330.062 42.3535 326.315L43.2255 326.805C45.2255 323.242 47.4232 319.693 49.8122 316.165L48.9842 315.605C51.2973 312.189 53.7876 308.793 56.4491 305.422L57.2339 306.042C59.7822 302.815 62.4892 299.609 65.3497 296.43L64.6063 295.761C67.3666 292.693 70.2684 289.651 73.3069 286.637L74.0111 287.347C76.9316 284.45 79.9795 281.579 83.1508 278.738L82.4835 277.993C85.5657 275.232 88.7632 272.498 92.0724 269.797L92.7048 270.571C95.9037 267.959 99.2077 265.376 102.613 262.825L102.014 262.025C105.334 259.537 108.751 257.08 112.26 254.656L112.828 255.479C116.235 253.125 119.73 250.802 123.31 248.512L122.771 247.67C126.273 245.43 129.855 243.222 133.516 241.048L134.027 241.908C137.595 239.789 141.237 237.702 144.952 235.65L144.468 234.774C148.113 232.76 151.826 230.78 155.606 228.834L156.064 229.723C159.761 227.82 163.522 225.951 167.344 224.116L166.911 223.215C170.672 221.41 174.491 219.639 178.368 217.905L178.776 218.817C182.579 217.116 186.436 215.449 190.347 213.818L189.962 212.895C193.818 211.287 197.725 209.714 201.682 208.177L202.044 209.109C205.924 207.602 209.852 206.13 213.826 204.695L213.486 203.755C217.412 202.337 221.383 200.955 225.397 199.609L225.715 200.558C229.669 199.232 233.665 197.943 237.701 196.691L237.404 195.736C241.398 194.497 245.431 193.295 249.501 192.131L249.777 193.092C253.793 191.943 257.847 190.831 261.935 189.756L261.681 188.789C265.733 187.725 269.818 186.698 273.937 185.709L274.17 186.681C278.228 185.707 282.318 184.771 286.438 183.873L286.225 182.896C290.312 182.005 294.43 181.152 298.576 180.338L298.768 181.32C300.832 180.915 302.902 180.519 304.979 180.134C307.057 179.749 309.131 179.375 311.202 179.012L311.03 178.027C315.192 177.3 319.341 176.618 323.476 175.983L323.628 176.972C327.796 176.332 331.95 175.739 336.087 175.192L335.956 174.201C340.155 173.646 344.337 173.139 348.5 172.679L348.61 173.673C352.812 173.209 356.994 172.793 361.156 172.424L361.068 171.428C365.285 171.055 369.481 170.73 373.653 170.454L373.72 171.452C377.936 171.172 382.128 170.942 386.295 170.76L386.251 169.761C390.48 169.577 394.682 169.443 398.856 169.358L398.876 170.357C403.101 170.271 407.295 170.236 411.458 170.25L411.461 169.25C415.706 169.265 419.917 169.332 424.093 169.449L424.065 170.449C428.3 170.568 432.499 170.741 436.659 170.965L436.713 169.966C440.954 170.195 445.154 170.477 449.312 170.812L449.231 171.809C453.457 172.15 457.639 172.546 461.772 172.996L461.88 172.002C466.107 172.462 470.283 172.978 474.408 173.551L474.27 174.541C478.474 175.124 482.623 175.765 486.714 176.463L486.882 175.477C491.079 176.193 495.215 176.969 499.287 177.803L499.086 178.783C503.249 179.636 507.345 180.55 511.37 181.525L511.605 180.553C515.75 181.557 519.821 182.625 523.813 183.756L523.54 184.718C527.634 185.877 531.645 187.103 535.568 188.393L535.881 187.443C539.939 188.778 543.904 190.182 547.772 191.654L547.416 192.589C551.395 194.103 555.27 195.689 559.036 197.345L559.438 196.43C563.356 198.153 567.156 199.952 570.833 201.826L570.379 202.717C574.19 204.658 577.867 206.679 581.403 208.777L581.914 207.917C585.607 210.108 589.15 212.385 592.535 214.743L591.963 215.564C595.459 218 598.783 220.523 601.928 223.132L602.567 222.362C605.874 225.105 608.986 227.942 611.894 230.871L611.184 231.575C614.18 234.593 616.956 237.707 619.501 240.914L620.284 240.292C622.939 243.636 625.347 247.082 627.497 250.627L626.642 251.146C628.823 254.74 630.734 258.436 632.365 262.228L633.284 261.833Z" stroke="white" stroke-opacity="0.16" stroke-width="2" stroke-dasharray="13 13"/>
<path d="M528.637 97.1769C532.291 99.2741 535.775 101.625 539.077 104.235L538.457 105.02C540.085 106.306 541.669 107.657 543.206 109.071C544.743 110.485 546.22 111.951 547.637 113.466L548.368 112.783C551.243 115.857 553.876 119.134 556.269 122.601L555.446 123.169C557.792 126.566 559.906 130.149 561.792 133.907L562.686 133.458C564.546 137.164 566.186 141.035 567.608 145.061L566.665 145.394C568.029 149.254 569.191 153.26 570.155 157.402L571.129 157.175C572.064 161.195 572.814 165.339 573.379 169.598L572.388 169.73C572.926 173.78 573.297 177.937 573.503 182.193L574.502 182.145C574.701 186.266 574.746 190.476 574.639 194.77L573.64 194.745C573.537 198.856 573.295 203.044 572.914 207.304L573.91 207.393C573.543 211.504 573.047 215.679 572.425 219.913L571.436 219.768C570.837 223.837 570.122 227.963 569.289 232.139L570.27 232.334C569.461 236.392 568.543 240.498 567.517 244.645L566.547 244.404C565.555 248.413 564.461 252.462 563.268 256.546L564.228 256.827C563.064 260.809 561.805 264.825 560.453 268.87L559.504 268.553C558.191 272.48 556.789 276.435 555.299 280.415L556.235 280.766C554.778 284.659 553.237 288.575 551.613 292.51L550.688 292.129C549.105 295.965 547.443 299.82 545.703 303.69L546.615 304.1C544.908 307.898 543.126 311.711 541.269 315.535L540.37 315.099C538.554 318.839 536.667 322.592 534.71 326.353L535.597 326.814C533.672 330.514 531.679 334.222 529.618 337.936L528.744 337.451C526.723 341.094 524.637 344.742 522.487 348.394L523.349 348.901C521.229 352.501 519.047 356.104 516.804 359.707L515.955 359.178C513.755 362.712 511.496 366.246 509.178 369.779L510.014 370.328C507.724 373.818 505.377 377.306 502.973 380.79L502.15 380.222C499.782 383.655 497.359 387.084 494.881 390.507L495.691 391.094C493.24 394.481 490.735 397.863 488.177 401.237L487.38 400.632C484.856 403.962 482.281 407.284 479.655 410.596L480.438 411.218C477.836 414.5 475.184 417.773 472.482 421.035L471.712 420.397C469.05 423.611 466.341 426.815 463.583 430.005L464.34 430.659C461.604 433.824 458.822 436.977 455.994 440.116L455.251 439.446C453.843 441.008 452.424 442.567 450.994 444.121C449.563 445.676 448.128 447.22 446.688 448.753L447.417 449.437C444.525 452.517 441.614 455.551 438.687 458.54L437.972 457.841C435.022 460.854 432.055 463.82 429.074 466.74L429.773 467.454C426.747 470.418 423.706 473.333 420.651 476.199L419.967 475.469C416.884 478.362 413.787 481.204 410.679 483.996L411.347 484.74C408.198 487.569 405.036 490.346 401.864 493.071L401.212 492.313C398.007 495.066 394.791 497.766 391.567 500.411L392.201 501.184C388.929 503.869 385.648 506.498 382.36 509.07L381.744 508.282C378.416 510.886 375.082 513.431 371.743 515.917L372.34 516.719C368.936 519.254 365.527 521.728 362.116 524.139L361.538 523.323C358.078 525.769 354.616 528.15 351.154 530.467L351.71 531.298C348.18 533.66 344.65 535.955 341.123 538.181L340.589 537.335C337.004 539.598 333.422 541.79 329.845 543.91L330.355 544.771C326.698 546.938 323.046 549.031 319.404 551.048L318.919 550.173C315.206 552.229 311.503 554.206 307.812 556.102L308.268 556.992C304.482 558.937 300.707 560.798 296.949 562.574L296.522 561.67C292.679 563.486 288.854 565.212 285.05 566.847L285.445 567.765C281.526 569.449 277.629 571.037 273.757 572.528L273.398 571.595C269.427 573.124 265.483 574.55 261.57 575.872L261.89 576.819C257.843 578.186 253.828 579.442 249.851 580.585L249.575 579.624C245.483 580.801 241.431 581.857 237.425 582.791L237.652 583.765C233.484 584.737 229.365 585.578 225.299 586.286L225.127 585.301C220.914 586.034 216.76 586.623 212.672 587.067L212.78 588.061C208.51 588.524 204.31 588.829 200.187 588.973L200.152 587.974C195.894 588.122 191.721 588.098 187.639 587.899L187.591 588.897C183.299 588.688 179.107 588.285 175.023 587.687L175.168 586.698C170.961 586.081 166.872 585.256 162.912 584.217L162.658 585.185C158.528 584.102 154.534 582.79 150.687 581.244L151.06 580.316C147.159 578.749 143.412 576.94 139.832 574.885L139.334 575.752C135.68 573.655 132.196 571.303 128.893 568.693L129.513 567.909C127.885 566.622 126.302 565.272 124.765 563.858C123.228 562.444 121.751 560.978 120.334 559.463L119.603 560.146C116.728 557.072 114.095 553.795 111.702 550.328L112.525 549.76C110.179 546.363 108.064 542.779 106.178 539.022L105.285 539.471C103.425 535.765 101.785 531.894 100.363 527.868L101.306 527.535C99.9423 523.675 98.7798 519.669 97.8159 515.527L96.842 515.754C95.9064 511.734 95.1571 507.59 94.5914 503.331L95.5827 503.199C95.0447 499.149 94.6739 494.991 94.4681 490.736L93.4693 490.784C93.2701 486.663 93.2248 482.452 93.3315 478.159L94.3312 478.184C94.4334 474.073 94.6757 469.885 95.0564 465.625L94.0604 465.536C94.4278 461.425 94.9235 457.25 95.5458 453.016L96.5352 453.161C97.1334 449.091 97.8492 444.966 98.6814 440.79L97.7006 440.595C98.5094 436.536 99.4275 432.431 100.454 428.284L101.424 428.524C102.416 424.516 103.509 420.467 104.703 416.382L103.743 416.102C104.907 412.119 106.166 408.104 107.518 404.059L108.467 404.376C109.78 400.449 111.182 396.494 112.672 392.514L111.735 392.163C113.193 388.27 114.734 384.354 116.358 380.419L117.283 380.8C118.866 376.964 120.528 373.109 122.268 369.238L121.356 368.828C123.063 365.031 124.845 361.218 126.701 357.393L127.601 357.83C129.417 354.089 131.304 350.337 133.261 346.576L132.374 346.115C134.299 342.415 136.292 338.706 138.353 334.993L139.227 335.478C141.248 331.835 143.334 328.187 145.484 324.535L144.622 324.028C146.742 320.428 148.923 316.825 151.167 313.222L152.016 313.751C154.216 310.217 156.475 306.682 158.793 303.15L157.957 302.601C160.247 299.111 162.594 295.623 164.998 292.138L165.821 292.706C168.189 289.274 170.612 285.845 173.09 282.421L172.28 281.835C174.731 278.448 177.236 275.066 179.794 271.692L180.591 272.296C183.115 268.967 185.69 265.645 188.316 262.332L187.532 261.711C190.135 258.429 192.787 255.155 195.488 251.894L196.259 252.531C198.92 249.317 201.63 246.114 204.387 242.924L203.631 242.27C206.366 239.105 209.149 235.952 211.977 232.813L212.72 233.483C214.127 231.921 215.547 230.362 216.977 228.807C218.408 227.253 219.843 225.709 221.282 224.176L220.554 223.492C223.446 220.412 226.357 217.378 229.284 214.388L229.998 215.088C232.949 212.075 235.916 209.109 238.897 206.189L238.198 205.474C241.224 202.511 244.265 199.596 247.32 196.73L248.004 197.459C251.087 194.567 254.184 191.725 257.292 188.933L256.624 188.189C259.773 185.36 262.935 182.582 266.107 179.858L266.759 180.616C269.964 177.863 273.18 175.163 276.404 172.518L275.77 171.745C279.042 169.06 282.323 166.431 285.611 163.859L286.227 164.646C289.555 162.043 292.889 159.498 296.228 157.012L295.631 156.209C299.035 153.675 302.444 151.201 305.855 148.79L306.432 149.606C309.893 147.16 313.355 144.778 316.817 142.462L316.261 141.631C319.791 139.269 323.321 136.974 326.848 134.748L327.382 135.594C330.967 133.331 334.549 131.139 338.126 129.018L337.616 128.158C341.273 125.99 344.925 123.898 348.567 121.881L349.052 122.755C352.764 120.7 356.468 118.723 360.159 116.827L359.702 115.937C363.489 113.992 367.264 112.13 371.022 110.355L371.449 111.259C375.291 109.443 379.117 107.717 382.921 106.082L382.526 105.163C386.445 103.479 390.342 101.891 394.214 100.401L394.573 101.334C398.544 99.8049 402.488 98.3789 406.401 97.0572L406.081 96.1098C410.128 94.7427 414.142 93.4867 418.12 92.3435L418.396 93.3045C422.488 92.1282 426.54 91.072 430.546 90.1377L430.319 89.1639C434.487 88.1918 438.606 87.3509 442.672 86.6431L442.843 87.6283C447.057 86.8949 451.211 86.3054 455.299 85.8619L455.191 84.8677C459.461 84.4046 463.661 84.0998 467.784 83.9559L467.819 84.9553C472.077 84.8066 476.25 84.8307 480.332 85.0303L480.38 84.0314C484.672 84.2412 488.864 84.6435 492.948 85.2418L492.803 86.2312C497.01 86.8476 501.099 87.6732 505.059 88.7113L505.313 87.7441C509.442 88.8266 513.437 90.1387 517.284 91.6844L516.911 92.6123C520.812 94.1796 524.559 95.9889 528.139 98.0442L528.637 97.1769Z" stroke="white" stroke-opacity="0.16" stroke-width="2" stroke-dasharray="13 13"/>
<path d="M339.363 28.0523C343.531 27.4463 347.724 27.1446 351.933 27.1585L351.93 28.1585C354.005 28.1654 356.084 28.2498 358.166 28.4132C360.249 28.5767 362.315 28.8176 364.366 29.1346L364.519 28.1463C368.679 28.7893 372.773 29.7413 376.796 30.9904L376.5 31.9454C380.442 33.1695 384.318 34.6826 388.121 36.4737L388.547 35.569C392.299 37.3354 395.979 39.3685 399.583 41.6572L399.047 42.5014C402.503 44.6961 405.891 47.1295 409.206 49.7921L409.832 49.0125C413.05 51.5969 416.198 54.3943 419.273 57.3953L418.575 58.1109C421.499 60.9651 424.357 64.0062 427.147 67.2269L427.903 66.5721C430.604 69.6906 433.239 72.9749 435.806 76.4181L435.004 77.0159C437.462 80.3126 439.858 83.757 442.188 87.3428L443.027 86.7979C445.275 90.2582 447.464 93.8486 449.588 97.5636L448.72 98.06C450.763 101.631 452.747 105.318 454.67 109.116L455.562 108.665C457.432 112.357 459.244 116.153 460.998 120.048L460.086 120.459C461.781 124.225 463.421 128.084 465.004 132.034L465.932 131.662C467.475 135.514 468.964 139.45 470.398 143.466L469.456 143.802C470.848 147.703 472.187 151.68 473.472 155.73L474.425 155.428C475.683 159.39 476.888 163.422 478.04 167.52L477.078 167.791C478.201 171.786 479.274 175.845 480.295 179.964L481.266 179.723C482.268 183.765 483.22 187.864 484.121 192.019L483.144 192.231C484.025 196.295 484.857 200.411 485.64 204.578L486.623 204.393C487.393 208.493 488.114 212.64 488.787 216.834L487.799 216.992C488.459 221.105 489.071 225.263 489.634 229.463L490.625 229.33C491.18 233.47 491.689 237.651 492.149 241.871L491.155 241.979C491.606 246.117 492.011 250.293 492.369 254.503L493.365 254.418C493.719 258.577 494.026 262.77 494.286 266.995L493.288 267.057C493.545 271.219 493.756 275.413 493.921 279.635L494.92 279.596C495.083 283.775 495.2 287.981 495.272 292.214L494.272 292.231C494.342 296.409 494.368 300.612 494.347 304.839L495.347 304.844C495.327 309.033 495.261 313.245 495.15 317.479L494.151 317.453C494.041 321.625 493.887 325.817 493.688 330.029L494.687 330.077C494.49 334.256 494.248 338.453 493.961 342.669L492.963 342.601C492.82 344.699 492.666 346.801 492.501 348.907C492.336 351.013 492.16 353.114 491.973 355.208L492.97 355.297C492.595 359.505 492.179 363.689 491.723 367.848L490.729 367.739C490.268 371.93 489.766 376.096 489.223 380.233L490.215 380.363C489.664 384.563 489.071 388.734 488.438 392.874L487.449 392.723C486.81 396.902 486.129 401.05 485.408 405.165L486.393 405.338C485.662 409.508 484.89 413.645 484.077 417.746L483.096 417.552C482.275 421.697 481.412 425.806 480.509 429.878L481.485 430.094C480.569 434.227 479.611 438.32 478.613 442.374L477.642 442.135C476.632 446.237 475.581 450.298 474.489 454.315L475.454 454.578C474.341 458.673 473.187 462.724 471.993 466.727L471.034 466.441C469.823 470.502 468.57 474.513 467.277 478.473L468.227 478.783C466.909 482.821 465.549 486.805 464.149 490.734L463.207 490.398C461.784 494.392 460.319 498.328 458.815 502.205L459.747 502.566C458.209 506.53 456.629 510.43 455.009 514.266L454.087 513.877C452.436 517.787 450.743 521.628 449.01 525.399L449.919 525.816C448.141 529.685 446.322 533.479 444.462 537.197L443.567 536.75C441.666 540.55 439.723 544.269 437.739 547.905L438.617 548.384C436.575 552.128 434.49 555.783 432.364 559.346L431.506 558.834C429.326 562.489 427.104 566.045 424.842 569.501L425.679 570.049C423.339 573.623 420.957 577.09 418.534 580.445L417.723 579.859C415.231 583.311 412.696 586.644 410.121 589.852L410.901 590.478C408.223 593.816 405.501 597.021 402.74 600.088L401.997 599.419C399.136 602.597 396.232 605.626 393.29 608.499L393.989 609.214C390.916 612.215 387.8 615.048 384.646 617.707L384.002 616.942C380.744 619.688 377.446 622.246 374.112 624.609L374.69 625.425C371.185 627.909 367.639 630.181 364.057 632.232L363.561 631.364C359.87 633.477 356.144 635.352 352.388 636.981L352.786 637.898C348.869 639.597 344.917 641.031 340.936 642.19L340.656 641.23C336.62 642.406 332.556 643.296 328.47 643.89L328.614 644.879C324.445 645.485 320.253 645.787 316.043 645.773L316.047 644.773C313.972 644.766 311.893 644.682 309.81 644.518C307.728 644.355 305.661 644.114 303.611 643.797L303.458 644.785C299.298 644.142 295.204 643.19 291.181 641.941L291.477 640.986C287.534 639.762 283.659 638.249 279.855 636.458L279.429 637.363C275.678 635.596 271.998 633.563 268.394 631.275L268.93 630.43C265.474 628.236 262.086 625.802 258.771 623.14L258.144 623.919C254.926 621.335 251.778 618.538 248.704 615.536L249.402 614.821C246.478 611.967 243.619 608.926 240.83 605.705L240.074 606.36C237.373 603.241 234.738 599.957 232.171 596.514L232.972 595.916C230.515 592.619 228.119 589.175 225.789 585.589L224.95 586.134C222.701 582.674 220.513 579.083 218.388 575.368L219.256 574.872C217.214 571.301 215.23 567.614 213.306 563.815L212.414 564.267C210.545 560.575 208.732 556.779 206.979 552.884L207.891 552.473C206.196 548.707 204.556 544.847 202.973 540.897L202.045 541.269C200.501 537.418 199.012 533.482 197.579 529.465L198.521 529.129C197.129 525.229 195.79 521.252 194.504 517.202L193.551 517.504C192.294 513.542 191.089 509.51 189.936 505.411L190.899 505.141C189.775 501.146 188.703 497.087 187.682 492.968L186.711 493.208C185.709 489.167 184.757 485.067 183.856 480.913L184.833 480.701C183.952 476.637 183.119 472.521 182.337 468.354L181.354 468.538C180.584 464.439 179.862 460.291 179.19 456.098L180.177 455.94C179.518 451.826 178.906 447.669 178.343 443.469L177.352 443.602C176.796 439.461 176.288 435.28 175.828 431.061L176.822 430.952C176.371 426.814 175.966 422.639 175.608 418.429L174.612 418.514C174.258 414.354 173.951 410.161 173.69 405.936L174.688 405.875C174.432 401.712 174.221 397.519 174.056 393.296L173.057 393.335C172.894 389.157 172.776 384.95 172.705 380.717L173.705 380.7C173.634 376.523 173.609 372.32 173.63 368.093L172.63 368.088C172.65 363.899 172.715 359.687 172.826 355.453L173.826 355.479C173.936 351.307 174.089 347.114 174.288 342.902L173.29 342.855C173.487 338.676 173.729 334.478 174.016 330.263L175.014 330.331C175.156 328.233 175.31 326.131 175.476 324.025C175.641 321.918 175.817 319.818 176.003 317.724L175.007 317.635C175.381 313.427 175.797 309.242 176.254 305.084L177.248 305.193C177.709 301.001 178.211 296.836 178.754 292.698L177.762 292.568C178.313 288.369 178.906 284.198 179.539 280.057L180.527 280.209C181.167 276.03 181.847 271.882 182.569 267.767L181.584 267.594C182.314 263.424 183.087 259.287 183.9 255.185L184.881 255.38C185.702 251.235 186.565 247.126 187.467 243.054L186.491 242.838C187.408 238.705 188.366 234.611 189.364 230.558L190.335 230.797C191.345 226.694 192.396 222.633 193.488 218.616L192.523 218.354C193.635 214.258 194.79 210.208 195.984 206.205L196.942 206.491C198.154 202.43 199.407 198.419 200.7 194.459L199.749 194.148C201.068 190.111 202.428 186.127 203.828 182.198L204.77 182.533C206.193 178.54 207.657 174.603 209.162 170.727L208.23 170.365C209.768 166.402 211.348 162.501 212.968 158.666L213.889 159.055C215.54 155.145 217.233 151.304 218.966 147.533L218.058 147.115C219.835 143.247 221.655 139.452 223.515 135.735L224.409 136.182C226.311 132.382 228.254 128.662 230.237 125.027L229.359 124.548C231.402 120.804 233.487 117.149 235.612 113.585L236.471 114.098C238.651 110.443 240.873 106.886 243.134 103.431L242.298 102.883C244.637 99.3088 247.02 95.8421 249.443 92.4872L250.253 93.0726C252.746 89.6206 255.281 86.2881 257.855 83.0798L257.075 82.454C259.754 79.1159 262.475 75.9109 265.236 72.8438L265.98 73.5129C268.841 70.3345 271.745 67.3061 274.687 64.4331L273.988 63.7176C277.061 60.717 280.176 57.8841 283.331 55.2252L283.975 55.9898C287.233 53.2438 290.531 50.6858 293.864 48.3229L293.286 47.507C296.791 45.0224 300.337 42.7505 303.919 40.6997L304.416 41.5676C308.106 39.4547 311.832 37.5797 315.589 35.951L315.191 35.0335C319.108 33.3352 323.06 31.9011 327.041 30.7415L327.32 31.7016C331.357 30.5259 335.421 29.6359 339.507 29.042L339.363 28.0523Z" stroke="white" stroke-opacity="0.16" stroke-width="2" stroke-dasharray="13 13"/>
<g filter="url(#filter0_d_2125_3089)">
<rect x="388.012" y="282" width="108.011" height="108.011" rx="54.0057" transform="rotate(90 388.012 282)" fill="black"/>
<path fill-rule="evenodd" clip-rule="evenodd" d="M346.046 316.377C342.462 316.377 339.557 319.282 339.557 322.866C339.557 326.449 342.462 329.354 346.046 329.354C349.63 329.354 352.535 326.449 352.535 322.866C352.535 319.282 349.63 316.377 346.046 316.377ZM333.659 322.866C333.659 316.025 339.205 310.479 346.046 310.479C352.887 310.479 358.433 316.025 358.433 322.866C358.433 329.707 352.887 335.253 346.046 335.253C339.205 335.253 333.659 329.707 333.659 322.866Z" fill="white"/>
<path fill-rule="evenodd" clip-rule="evenodd" d="M317.734 316.377C314.151 316.377 311.246 319.282 311.246 322.866C311.246 326.449 314.151 329.354 317.734 329.354C321.318 329.354 324.223 326.449 324.223 322.866C324.223 319.282 321.318 316.377 317.734 316.377ZM305.347 322.866C305.347 316.025 310.893 310.479 317.734 310.479C324.576 310.479 330.122 316.025 330.122 322.866C330.122 329.707 324.576 335.253 317.734 335.253C310.893 335.253 305.347 329.707 305.347 322.866Z" fill="white"/>
<path fill-rule="evenodd" clip-rule="evenodd" d="M346.046 344.692C342.462 344.692 339.557 347.597 339.557 351.18C339.557 354.764 342.462 357.669 346.046 357.669C349.63 357.669 352.535 354.764 352.535 351.18C352.535 347.597 349.63 344.692 346.046 344.692ZM333.659 351.18C333.659 344.339 339.205 338.793 346.046 338.793C352.887 338.793 358.433 344.339 358.433 351.18C358.433 358.022 352.887 363.568 346.046 363.568C339.205 363.568 333.659 358.022 333.659 351.18Z" fill="white"/>
<rect x="387.644" y="282.368" width="107.275" height="107.275" rx="53.6376" transform="rotate(90 387.644 282.368)" stroke="#212121" stroke-width="0.736105"/>
</g>
<g filter="url(#filter1_b_2125_3089)">
<rect x="56.9883" y="546.189" width="103.451" height="103.451" rx="51.7255" transform="rotate(-30 56.9883 546.189)" fill="url(#paint0_linear_2125_3089)" fill-opacity="0.1"/>
<g filter="url(#filter2_b_2125_3089)">
<circle cx="127.647" cy="565.122" r="51.7255" transform="rotate(-30 127.647 565.122)" fill="white" fill-opacity="0.06"/>
</g>
<path d="M143.414 590.715H111.451C109.414 590.715 107.763 589.064 107.763 587.027V542.77C107.763 540.733 109.414 539.082 111.451 539.082H134.809L147.102 551.376V587.027C147.102 589.064 145.451 590.715 143.414 590.715Z" fill="white"/>
<path d="M147.098 551.374H134.805V539.08L147.098 551.374Z" fill="#2B2B2B"/>
<path d="M134.804 551.377L147.098 563.671V551.377H134.804Z" fill="white" fill-opacity="0.8"/>
<path d="M136.037 563.668H118.826H116.367V566.127V568.585V571.044V573.503V575.962V578.42V580.879H138.496V578.42V575.962V573.503V571.044V568.585V566.127V563.668H136.037ZM118.826 566.127H123.743V568.585H118.826V566.127ZM118.826 571.044H123.743V573.503H118.826V571.044ZM118.826 575.962H123.743V578.42H118.826V575.962ZM136.037 578.42H126.202V575.962H136.037V578.42ZM136.037 573.503H126.202V571.044H136.037V573.503ZM136.037 568.585H126.202V566.127H136.037V568.585Z" fill="#2B2B2B"/>
<rect x="57.3205" y="546.278" width="102.965" height="102.965" rx="51.4823" transform="rotate(-30 57.3205 546.278)" stroke="url(#paint1_linear_2125_3089)" stroke-width="0.486384"/>
</g>
<g filter="url(#filter3_b_2125_3089)">
<rect x="367.988" y="66.1895" width="103.451" height="103.451" rx="51.7255" transform="rotate(-30 367.988 66.1895)" fill="url(#paint2_linear_2125_3089)" fill-opacity="0.1"/>
<g filter="url(#filter4_b_2125_3089)">
<circle cx="438.646" cy="85.1223" r="51.7255" transform="rotate(-30 438.646 85.1223)" fill="white" fill-opacity="0.06"/>
</g>
<path d="M439.29 58.9922C424.806 58.9922 413.063 70.735 413.063 85.2185C413.063 97.5077 421.526 107.791 432.934 110.636C432.812 110.282 432.733 109.871 432.733 109.362V104.879C431.669 104.879 429.885 104.879 429.437 104.879C427.643 104.879 426.047 104.108 425.274 102.674C424.415 101.081 424.266 98.6441 422.138 97.1536C421.506 96.6575 421.987 96.0914 422.715 96.1679C424.059 96.5482 425.173 97.4705 426.222 98.8386C427.267 100.209 427.759 100.519 429.71 100.519C430.657 100.519 432.073 100.465 433.406 100.255C434.123 98.4343 435.362 96.758 436.877 95.9669C428.143 95.0686 423.976 90.7238 423.976 84.8251C423.976 82.2855 425.057 79.829 426.895 77.7593C426.292 75.7049 425.534 71.5152 427.127 69.9198C431.057 69.9198 433.432 72.4681 434.003 73.1566C435.961 72.4856 438.112 72.1053 440.371 72.1053C442.636 72.1053 444.795 72.4856 446.757 73.1609C447.321 72.4769 449.699 69.9198 453.637 69.9198C455.237 71.5174 454.47 75.7246 453.86 77.7746C455.687 79.8399 456.763 82.2899 456.763 84.8251C456.763 90.7194 452.602 95.0621 443.881 95.9647C446.281 97.217 448.032 100.736 448.032 103.387V109.362C448.032 109.589 447.981 109.753 447.955 109.948C458.175 106.366 465.516 96.6619 465.516 85.2185C465.516 70.735 453.773 58.9922 439.29 58.9922Z" fill="white"/>
<rect x="368.32" y="66.2785" width="102.965" height="102.965" rx="51.4823" transform="rotate(-30 368.32 66.2785)" stroke="url(#paint3_linear_2125_3089)" stroke-width="0.486384"/>
</g>
<g filter="url(#filter5_b_2125_3089)">
<rect x="107.988" y="215.189" width="103.451" height="103.451" rx="51.7255" transform="rotate(-30 107.988 215.189)" fill="url(#paint4_linear_2125_3089)" fill-opacity="0.1"/>
<g filter="url(#filter6_b_2125_3089)">
<circle cx="178.646" cy="234.122" r="51.7255" transform="rotate(-30 178.646 234.122)" fill="white" fill-opacity="0.06"/>
</g>
<path d="M178.47 208.775C173.511 213.797 173.48 221.939 178.47 226.929L186.09 234.549L181.408 239.231C185.016 242.842 186.638 247.742 186.293 252.499L195.167 243.625L202.803 235.989C203.601 235.193 203.598 233.904 202.803 233.108L187.547 217.852L178.47 208.775ZM170.647 216.598L161.773 225.472L161.518 225.732L154.141 233.104C153.346 233.902 153.346 235.191 154.141 235.989L176.324 258.171L178.47 260.322C183.429 255.301 183.46 247.159 178.47 242.169L170.85 234.549L175.532 229.866C171.924 226.256 170.302 221.356 170.647 216.598Z" fill="white"/>
<rect x="108.32" y="215.278" width="102.965" height="102.965" rx="51.4823" transform="rotate(-30 108.32 215.278)" stroke="url(#paint5_linear_2125_3089)" stroke-width="0.486384"/>
</g>
<g filter="url(#filter7_b_2125_3089)">
<rect x="335.988" y="468.189" width="103.451" height="103.451" rx="51.7255" transform="rotate(-30 335.988 468.189)" fill="url(#paint6_linear_2125_3089)" fill-opacity="0.1"/>
<g filter="url(#filter8_b_2125_3089)">
<circle cx="406.648" cy="487.122" r="51.7255" transform="rotate(-30 406.648 487.122)" fill="white" fill-opacity="0.06"/>
</g>
<path d="M416.519 467.82C416.519 464.99 414.226 462.697 411.397 462.697C408.567 462.697 406.274 464.99 406.274 467.82C406.274 469.451 406.274 478.478 406.274 480.113C406.274 482.943 408.567 485.235 411.397 485.235C414.226 485.235 416.519 482.943 416.519 480.113C416.519 478.478 416.519 469.451 416.519 467.82ZM428.813 480.113C428.813 482.943 426.52 485.235 423.69 485.235C422.418 485.235 418.568 485.235 418.568 485.235C418.568 485.235 418.568 481.67 418.568 480.113C418.568 477.284 420.861 474.991 423.69 474.991C426.52 474.991 428.813 477.284 428.813 480.113ZM423.69 497.529C426.52 497.529 428.813 495.236 428.813 492.407C428.813 489.577 426.52 487.284 423.69 487.284C422.059 487.284 413.032 487.284 411.397 487.284C408.567 487.284 406.274 489.577 406.274 492.407C406.274 495.236 408.567 497.529 411.397 497.529C413.032 497.529 422.059 497.529 423.69 497.529ZM411.397 509.823C408.567 509.823 406.274 507.53 406.274 504.7C406.274 503.428 406.274 499.578 406.274 499.578C406.274 499.578 409.84 499.578 411.397 499.578C414.226 499.578 416.519 501.871 416.519 504.7C416.519 507.53 414.226 509.823 411.397 509.823ZM393.981 504.7C393.981 507.53 396.274 509.823 399.103 509.823C401.933 509.823 404.225 507.53 404.225 504.7C404.225 503.069 404.225 494.042 404.225 492.407C404.225 489.577 401.933 487.284 399.103 487.284C396.274 487.284 393.981 489.577 393.981 492.407C393.981 494.042 393.981 503.069 393.981 504.7ZM381.687 492.407C381.687 489.577 383.98 487.284 386.81 487.284C388.082 487.284 391.932 487.284 391.932 487.284C391.932 487.284 391.932 490.85 391.932 492.407C391.932 495.236 389.639 497.529 386.81 497.529C383.98 497.529 381.687 495.236 381.687 492.407ZM386.81 474.991C383.98 474.991 381.687 477.284 381.687 480.113C381.687 482.943 383.98 485.235 386.81 485.235C388.441 485.235 397.468 485.235 399.103 485.235C401.933 485.235 404.225 482.943 404.225 480.113C404.225 477.284 401.933 474.991 399.103 474.991C397.468 474.991 388.441 474.991 386.81 474.991ZM399.103 462.697C401.933 462.697 404.225 464.99 404.225 467.82C404.225 469.092 404.225 472.942 404.225 472.942C404.225 472.942 400.66 472.942 399.103 472.942C396.274 472.942 393.981 470.649 393.981 467.82C393.981 464.99 396.274 462.697 399.103 462.697Z" fill="white"/>
<rect x="336.32" y="468.278" width="102.965" height="102.965" rx="51.4823" transform="rotate(-30 336.32 468.278)" stroke="url(#paint7_linear_2125_3089)" stroke-width="0.486384"/>
</g>
<g filter="url(#filter9_b_2125_3089)">
<rect x="552.988" y="248.189" width="103.451" height="103.451" rx="51.7255" transform="rotate(-30 552.988 248.189)" fill="url(#paint8_linear_2125_3089)" fill-opacity="0.1"/>
<g filter="url(#filter10_b_2125_3089)">
<circle cx="623.647" cy="267.122" r="51.7255" transform="rotate(-30 623.647 267.122)" fill="white" fill-opacity="0.06"/>
</g>
<path d="M630.337 243.025H612.641C611.355 243.025 610.312 244.068 610.312 245.354V255.044H630.337V243.025Z" fill="white" fill-opacity="0.6"/>
<path d="M610.313 279.143V288.757C610.313 290.043 611.355 291.085 612.64 291.085H630.337V279.143H610.313Z" fill="white"/>
<path d="M610.312 255.043H630.337V267.06H610.312V255.043Z" fill="white" fill-opacity="0.8"/>
<path d="M610.312 267.062H630.336V279.144H610.312V267.062Z" fill="white" fill-opacity="0.95"/>
<path d="M648.032 243.025H630.336V255.044H650.36V245.354C650.36 244.068 649.318 243.025 648.032 243.025Z" fill="white" fill-opacity="0.3"/>
<path d="M630.337 279.139V291.081H648.034C649.318 291.081 650.361 290.039 650.361 288.754V279.14L630.337 279.139Z" fill="white" fill-opacity="0.85"/>
<path d="M630.336 255.043H650.36V267.06H630.336V255.043Z" fill="white" fill-opacity="0.6"/>
<path d="M630.337 267.062H650.361V279.144H630.337V267.062Z" fill="white" fill-opacity="0.75"/>
<path d="M621.42 280.402H599.209C597.97 280.402 596.965 279.397 596.965 278.158V255.947C596.965 254.708 597.97 253.703 599.209 253.703H621.42C622.659 253.703 623.664 254.708 623.664 255.947V278.158C623.664 279.397 622.659 280.402 621.42 280.402Z" fill="white"/>
<path d="M604.718 260.381H607.903L610.488 265.392L613.219 260.381H616.195L612.095 267.056L616.288 273.731H613.15L610.333 268.484L607.528 273.731H604.343L608.606 267.032L604.718 260.381Z" fill="#17152B"/>
<rect x="553.32" y="248.278" width="102.965" height="102.965" rx="51.4823" transform="rotate(-30 553.32 248.278)" stroke="url(#paint9_linear_2125_3089)" stroke-width="0.486384"/>
</g>
<circle cx="123" cy="249" r="6" fill="#333333" fill-opacity="0.9"/>
<circle cx="224" cy="201" r="6" fill="#333333" fill-opacity="0.9"/>
<circle cx="466" cy="135" r="6" fill="#333333" fill-opacity="0.9"/>
<circle cx="401" cy="44" r="6" fill="#333333" fill-opacity="0.9"/>
<circle cx="597" cy="217" r="6" fill="#333333" fill-opacity="0.9"/>
<circle cx="634" cy="324" r="6" fill="#333333" fill-opacity="0.9"/>
<circle cx="447" cy="449" r="6" fill="#333333" fill-opacity="0.9"/>
<circle cx="362" cy="522" r="6" fill="#333333" fill-opacity="0.9"/>
<circle cx="180" cy="589" r="6" fill="#333333" fill-opacity="0.9"/>
<circle cx="97" cy="517" r="6" fill="#333333" fill-opacity="0.9"/>
<defs>
<filter id="filter0_d_2125_3089" x="257.917" y="259.917" width="152.178" height="152.178" filterUnits="userSpaceOnUse" color-interpolation-filters="sRGB">
<feFlood flood-opacity="0" result="BackgroundImageFix"/>
<feColorMatrix in="SourceAlpha" type="matrix" values="0 0 0 0 0 0 0 0 0 0 0 0 0 0 0 0 0 0 127 0" result="hardAlpha"/>
<feOffset/>
<feGaussianBlur stdDeviation="11.0416"/>
<feColorMatrix type="matrix" values="0 0 0 0 1 0 0 0 0 1 0 0 0 0 1 0 0 0 0.3 0"/>
<feBlend mode="normal" in2="BackgroundImageFix" result="effect1_dropShadow_2125_3089"/>
<feBlend mode="normal" in="SourceGraphic" in2="effect1_dropShadow_2125_3089" result="shape"/>
</filter>
<filter id="filter1_b_2125_3089" x="42.3968" y="479.873" width="170.5" height="170.499" filterUnits="userSpaceOnUse" color-interpolation-filters="sRGB">
<feFlood flood-opacity="0" result="BackgroundImageFix"/>
<feGaussianBlur in="BackgroundImageFix" stdDeviation="7.29576"/>
<feComposite in2="SourceAlpha" operator="in" result="effect1_backgroundBlur_2125_3089"/>
<feBlend mode="normal" in="SourceGraphic" in2="effect1_backgroundBlur_2125_3089" result="shape"/>
</filter>
<filter id="filter2_b_2125_3089" x="61.3209" y="498.797" width="132.651" height="132.65" filterUnits="userSpaceOnUse" color-interpolation-filters="sRGB">
<feFlood flood-opacity="0" result="BackgroundImageFix"/>
<feGaussianBlur in="BackgroundImageFix" stdDeviation="7.29576"/>
<feComposite in2="SourceAlpha" operator="in" result="effect1_backgroundBlur_2125_3089"/>
<feBlend mode="normal" in="SourceGraphic" in2="effect1_backgroundBlur_2125_3089" result="shape"/>
</filter>
<filter id="filter3_b_2125_3089" x="353.397" y="-0.12766" width="170.5" height="170.5" filterUnits="userSpaceOnUse" color-interpolation-filters="sRGB">
<feFlood flood-opacity="0" result="BackgroundImageFix"/>
<feGaussianBlur in="BackgroundImageFix" stdDeviation="7.29576"/>
<feComposite in2="SourceAlpha" operator="in" result="effect1_backgroundBlur_2125_3089"/>
<feBlend mode="normal" in="SourceGraphic" in2="effect1_backgroundBlur_2125_3089" result="shape"/>
</filter>
<filter id="filter4_b_2125_3089" x="372.321" y="18.7971" width="132.651" height="132.65" filterUnits="userSpaceOnUse" color-interpolation-filters="sRGB">
<feFlood flood-opacity="0" result="BackgroundImageFix"/>
<feGaussianBlur in="BackgroundImageFix" stdDeviation="7.29576"/>
<feComposite in2="SourceAlpha" operator="in" result="effect1_backgroundBlur_2125_3089"/>
<feBlend mode="normal" in="SourceGraphic" in2="effect1_backgroundBlur_2125_3089" result="shape"/>
</filter>
<filter id="filter5_b_2125_3089" x="93.3968" y="148.873" width="170.5" height="170.499" filterUnits="userSpaceOnUse" color-interpolation-filters="sRGB">
<feFlood flood-opacity="0" result="BackgroundImageFix"/>
<feGaussianBlur in="BackgroundImageFix" stdDeviation="7.29576"/>
<feComposite in2="SourceAlpha" operator="in" result="effect1_backgroundBlur_2125_3089"/>
<feBlend mode="normal" in="SourceGraphic" in2="effect1_backgroundBlur_2125_3089" result="shape"/>
</filter>
<filter id="filter6_b_2125_3089" x="112.32" y="167.797" width="132.651" height="132.65" filterUnits="userSpaceOnUse" color-interpolation-filters="sRGB">
<feFlood flood-opacity="0" result="BackgroundImageFix"/>
<feGaussianBlur in="BackgroundImageFix" stdDeviation="7.29576"/>
<feComposite in2="SourceAlpha" operator="in" result="effect1_backgroundBlur_2125_3089"/>
<feBlend mode="normal" in="SourceGraphic" in2="effect1_backgroundBlur_2125_3089" result="shape"/>
</filter>
<filter id="filter7_b_2125_3089" x="321.397" y="401.873" width="170.5" height="170.499" filterUnits="userSpaceOnUse" color-interpolation-filters="sRGB">
<feFlood flood-opacity="0" result="BackgroundImageFix"/>
<feGaussianBlur in="BackgroundImageFix" stdDeviation="7.29576"/>
<feComposite in2="SourceAlpha" operator="in" result="effect1_backgroundBlur_2125_3089"/>
<feBlend mode="normal" in="SourceGraphic" in2="effect1_backgroundBlur_2125_3089" result="shape"/>
</filter>
<filter id="filter8_b_2125_3089" x="340.322" y="420.797" width="132.651" height="132.65" filterUnits="userSpaceOnUse" color-interpolation-filters="sRGB">
<feFlood flood-opacity="0" result="BackgroundImageFix"/>
<feGaussianBlur in="BackgroundImageFix" stdDeviation="7.29576"/>
<feComposite in2="SourceAlpha" operator="in" result="effect1_backgroundBlur_2125_3089"/>
<feBlend mode="normal" in="SourceGraphic" in2="effect1_backgroundBlur_2125_3089" result="shape"/>
</filter>
<filter id="filter9_b_2125_3089" x="538.397" y="181.873" width="170.5" height="170.499" filterUnits="userSpaceOnUse" color-interpolation-filters="sRGB">
<feFlood flood-opacity="0" result="BackgroundImageFix"/>
<feGaussianBlur in="BackgroundImageFix" stdDeviation="7.29576"/>
<feComposite in2="SourceAlpha" operator="in" result="effect1_backgroundBlur_2125_3089"/>
<feBlend mode="normal" in="SourceGraphic" in2="effect1_backgroundBlur_2125_3089" result="shape"/>
</filter>
<filter id="filter10_b_2125_3089" x="557.321" y="200.797" width="132.651" height="132.65" filterUnits="userSpaceOnUse" color-interpolation-filters="sRGB">
<feFlood flood-opacity="0" result="BackgroundImageFix"/>
<feGaussianBlur in="BackgroundImageFix" stdDeviation="7.29576"/>
<feComposite in2="SourceAlpha" operator="in" result="effect1_backgroundBlur_2125_3089"/>
<feBlend mode="normal" in="SourceGraphic" in2="effect1_backgroundBlur_2125_3089" result="shape"/>
</filter>
<linearGradient id="paint0_linear_2125_3089" x1="108.714" y1="546.189" x2="108.714" y2="649.64" gradientUnits="userSpaceOnUse">
<stop stop-color="#D9D9D9"/>
<stop offset="1" stop-color="#D9D9D9" stop-opacity="0"/>
</linearGradient>
<linearGradient id="paint1_linear_2125_3089" x1="108.714" y1="546.189" x2="108.714" y2="649.64" gradientUnits="userSpaceOnUse">
<stop stop-color="white" stop-opacity="0.63"/>
<stop offset="1" stop-color="white" stop-opacity="0.33"/>
</linearGradient>
<linearGradient id="paint2_linear_2125_3089" x1="419.714" y1="66.1895" x2="419.714" y2="169.64" gradientUnits="userSpaceOnUse">
<stop stop-color="#D9D9D9"/>
<stop offset="1" stop-color="#D9D9D9" stop-opacity="0"/>
</linearGradient>
<linearGradient id="paint3_linear_2125_3089" x1="419.714" y1="66.1895" x2="419.714" y2="169.64" gradientUnits="userSpaceOnUse">
<stop stop-color="white" stop-opacity="0.63"/>
<stop offset="1" stop-color="white" stop-opacity="0.33"/>
</linearGradient>
<linearGradient id="paint4_linear_2125_3089" x1="159.714" y1="215.189" x2="159.714" y2="318.64" gradientUnits="userSpaceOnUse">
<stop stop-color="#D9D9D9"/>
<stop offset="1" stop-color="#D9D9D9" stop-opacity="0"/>
</linearGradient>
<linearGradient id="paint5_linear_2125_3089" x1="159.714" y1="215.189" x2="159.714" y2="318.64" gradientUnits="userSpaceOnUse">
<stop stop-color="white" stop-opacity="0.63"/>
<stop offset="1" stop-color="white" stop-opacity="0.33"/>
</linearGradient>
<linearGradient id="paint6_linear_2125_3089" x1="387.714" y1="468.189" x2="387.714" y2="571.64" gradientUnits="userSpaceOnUse">
<stop stop-color="#D9D9D9"/>
<stop offset="1" stop-color="#D9D9D9" stop-opacity="0"/>
</linearGradient>
<linearGradient id="paint7_linear_2125_3089" x1="387.714" y1="468.189" x2="387.714" y2="571.64" gradientUnits="userSpaceOnUse">
<stop stop-color="white" stop-opacity="0.63"/>
<stop offset="1" stop-color="white" stop-opacity="0.33"/>
</linearGradient>
<linearGradient id="paint8_linear_2125_3089" x1="604.714" y1="248.189" x2="604.714" y2="351.64" gradientUnits="userSpaceOnUse">
<stop stop-color="#D9D9D9"/>
<stop offset="1" stop-color="#D9D9D9" stop-opacity="0"/>
</linearGradient>
<linearGradient id="paint9_linear_2125_3089" x1="604.714" y1="248.189" x2="604.714" y2="351.64" gradientUnits="userSpaceOnUse">
<stop stop-color="white" stop-opacity="0.63"/>
<stop offset="1" stop-color="white" stop-opacity="0.33"/>
</linearGradient>
</defs>
</svg>
