<svg width="220" height="101" viewBox="0 0 220 101" fill="none" xmlns="http://www.w3.org/2000/svg">
<circle cx="50" cy="50.5" r="50" fill="url(#paint0_radial_160_84)"/>
<path fill-rule="evenodd" clip-rule="evenodd" d="M43.6091 27.7833C45.5004 26.727 47.6799 26.125 50 26.125C52.3201 26.125 54.4996 26.727 56.3909 27.7833L57.7746 26.3996C58.1407 26.0335 58.7343 26.0335 59.1004 26.3996C59.4665 26.7657 59.4665 27.3593 59.1004 27.7254L57.9897 28.8362C61.1123 31.2355 63.125 35.0077 63.125 39.25H36.875C36.875 35.0077 38.8877 31.2355 42.0103 28.8362L40.8996 27.7254C40.5335 27.3593 40.5335 26.7657 40.8996 26.3996C41.2657 26.0335 41.8593 26.0335 42.2254 26.3996L43.6091 27.7833ZM46.25 33.625C46.25 34.6605 45.4105 35.5 44.375 35.5C43.3395 35.5 42.5 34.6605 42.5 33.625C42.5 32.5895 43.3395 31.75 44.375 31.75C45.4105 31.75 46.25 32.5895 46.25 33.625ZM55.625 35.5C56.6605 35.5 57.5 34.6605 57.5 33.625C57.5 32.5895 56.6605 31.75 55.625 31.75C54.5895 31.75 53.75 32.5895 53.75 33.625C53.75 34.6605 54.5895 35.5 55.625 35.5Z" fill="#87C527"/>
<path d="M29.375 43.9375C29.375 42.3842 30.6342 41.125 32.1875 41.125C33.7408 41.125 35 42.3842 35 43.9375V55.1875C35 56.7408 33.7408 58 32.1875 58C30.6342 58 29.375 56.7408 29.375 55.1875V43.9375Z" fill="#87C527"/>
<path d="M42.5 65.5V72.0625C42.5 73.6158 43.7592 74.875 45.3125 74.875C46.8658 74.875 48.125 73.6158 48.125 72.0625V65.5H51.875V72.0625C51.875 73.6158 53.1342 74.875 54.6875 74.875C56.2408 74.875 57.5 73.6158 57.5 72.0625V65.5H59.375C61.4461 65.5 63.125 63.8211 63.125 61.75V41.125H36.875V61.75C36.875 63.8211 38.5539 65.5 40.625 65.5H42.5Z" fill="#87C527"/>
<path d="M65 43.9375C65 42.3842 66.2592 41.125 67.8125 41.125C69.3658 41.125 70.625 42.3842 70.625 43.9375V55.1875C70.625 56.7408 69.3658 58 67.8125 58C66.2592 58 65 56.7408 65 55.1875V43.9375Z" fill="#87C527"/>
<circle cx="170" cy="50.5" r="50" fill="url(#paint1_radial_160_84)"/>
<path d="M196.25 50.5C196.25 64.99 184.503 76.75 170 76.75C155.497 76.75 143.75 64.99 143.75 50.5C143.75 35.9969 155.497 24.25 170 24.25C184.503 24.25 196.25 35.9969 196.25 50.5Z" fill="#283544"/>
<path d="M153.286 59.5738H156.153V46.2706H153.286V59.5738ZM154.714 44.5261C155.601 44.5261 156.314 43.7731 156.314 42.8318C156.314 41.8655 155.601 41.125 154.714 41.125C153.839 41.125 153.125 41.8655 153.125 42.8318C153.125 43.7731 153.839 44.5261 154.714 44.5261Z" fill="white"/>
<path d="M166.171 41.1627C161.323 41.1627 158.283 44.7646 158.283 50.5251C158.283 56.2856 161.323 59.875 166.171 59.875C171.007 59.875 174.046 56.2856 174.046 50.5251C174.046 44.7646 171.007 41.1627 166.171 41.1627ZM166.171 43.9237C169.13 43.9237 171.018 46.4839 171.018 50.5251C171.018 54.5537 169.13 57.114 166.171 57.114C163.2 57.114 161.323 54.5537 161.323 50.5251C161.323 46.4839 163.2 43.9237 166.171 43.9237Z" fill="white"/>
<path d="M175.739 54.4784C175.866 57.8168 178.376 59.875 182.198 59.875C186.217 59.875 188.75 57.7164 188.75 54.2776C188.75 51.5793 187.322 50.0607 183.949 49.2199L182.037 48.743C179.999 48.2159 179.159 47.5131 179.159 46.3082C179.159 44.8022 180.425 43.7982 182.302 43.7982C184.202 43.7982 185.503 44.8148 185.641 46.509H188.474C188.405 43.3213 185.987 41.1627 182.325 41.1627C178.71 41.1627 176.142 43.3338 176.142 46.5467C176.142 49.132 177.593 50.7385 180.656 51.504L182.809 52.0562C184.904 52.5959 185.756 53.3489 185.756 54.6541C185.756 56.1601 184.363 57.2395 182.36 57.2395C180.333 57.2395 178.802 56.1476 178.617 54.4784H175.739Z" fill="white"/>
<defs>
<radialGradient id="paint0_radial_160_84" cx="0" cy="0" r="1" gradientUnits="userSpaceOnUse" gradientTransform="translate(50 50.5) rotate(90) scale(50)">
<stop stop-color="#C7E2B8"/>
<stop offset="1" stop-color="#C7E2B8" stop-opacity="0"/>
</radialGradient>
<radialGradient id="paint1_radial_160_84" cx="0" cy="0" r="1" gradientUnits="userSpaceOnUse" gradientTransform="translate(170 50.5) rotate(90) scale(50)">
<stop stop-color="#C7E2B8"/>
<stop offset="1" stop-color="#C7E2B8" stop-opacity="0"/>
</radialGradient>
</defs>
</svg>
