<svg width="100" height="101" viewBox="0 0 100 101" fill="none" xmlns="http://www.w3.org/2000/svg">
<circle cx="50" cy="50.5" r="50" fill="url(#paint0_radial_160_88)"/>
<path d="M76.25 50.5C76.25 64.99 64.5031 76.75 50 76.75C35.4969 76.75 23.75 64.99 23.75 50.5C23.75 35.9969 35.4969 24.25 50 24.25C64.5031 24.25 76.25 35.9969 76.25 50.5Z" fill="#283544"/>
<path d="M33.2862 59.5738H36.1532V46.2706H33.2862V59.5738ZM34.714 44.5261C35.6006 44.5261 36.3144 43.7731 36.3144 42.8318C36.3144 41.8655 35.6006 41.125 34.714 41.125C33.8389 41.125 33.125 41.8655 33.125 42.8318C33.125 43.7731 33.8389 44.5261 34.714 44.5261Z" fill="white"/>
<path d="M46.1706 41.1627C41.3231 41.1627 38.2834 44.7646 38.2834 50.5251C38.2834 56.2856 41.3231 59.875 46.1706 59.875C51.0066 59.875 54.0463 56.2856 54.0463 50.5251C54.0463 44.7646 51.0066 41.1627 46.1706 41.1627ZM46.1706 43.9237C49.1298 43.9237 51.0181 46.4839 51.0181 50.5251C51.0181 54.5537 49.1298 57.114 46.1706 57.114C43.1999 57.114 41.3231 54.5537 41.3231 50.5251C41.3231 46.4839 43.1999 43.9237 46.1706 43.9237Z" fill="white"/>
<path d="M55.7389 54.4784C55.8656 57.8168 58.3757 59.875 62.1984 59.875C66.2169 59.875 68.75 57.7164 68.75 54.2776C68.75 51.5793 67.3222 50.0607 63.9486 49.2199L62.0372 48.743C59.9992 48.2159 59.1587 47.5131 59.1587 46.3082C59.1587 44.8022 60.4252 43.7982 62.302 43.7982C64.2019 43.7982 65.503 44.8148 65.6412 46.509H68.4737C68.4046 43.3213 65.9866 41.1627 62.3251 41.1627C58.7096 41.1627 56.1419 43.3338 56.1419 46.5467C56.1419 49.132 57.5927 50.7385 60.6555 51.504L62.8087 52.0562C64.9043 52.5959 65.7563 53.3489 65.7563 54.6541C65.7563 56.1601 64.3631 57.2395 62.3596 57.2395C60.3331 57.2395 58.8017 56.1476 58.6175 54.4784H55.7389Z" fill="white"/>
<defs>
<radialGradient id="paint0_radial_160_88" cx="0" cy="0" r="1" gradientUnits="userSpaceOnUse" gradientTransform="translate(50 50.5) rotate(90) scale(50)">
<stop stop-color="#C7E2B8"/>
<stop offset="1" stop-color="#C7E2B8" stop-opacity="0"/>
</radialGradient>
</defs>
</svg>
