<svg width="62" height="62" viewBox="0 0 62 62" fill="none" xmlns="http://www.w3.org/2000/svg">
<g filter="url(#filter0_d_2009_2338)">
<rect x="7" y="7" width="48.0001" height="48.0001" rx="24.0001" fill="#0D0D0D"/>
<path d="M22.9631 20.5078C22.3118 20.5078 21.6872 20.7665 21.2266 21.2271C20.7661 21.6877 20.5073 22.3123 20.5073 22.9636C20.5073 23.615 20.7661 24.2396 21.2266 24.7002C21.6872 25.1607 22.3118 25.4195 22.9631 25.4195C23.6145 25.4195 24.2391 25.1607 24.6997 24.7002C25.1602 24.2396 25.419 23.615 25.419 22.9636C25.419 22.3123 25.1602 21.6877 24.6997 21.2271C24.2391 20.7665 23.6145 20.5078 22.9631 20.5078ZM21.4897 27.3841C20.9464 27.3841 20.5073 27.8232 20.5073 28.3664V41.1367C20.5073 41.6799 20.9464 42.119 21.4897 42.119H24.4366C24.9799 42.119 25.419 41.6799 25.419 41.1367V28.3664C25.419 27.8232 24.9799 27.3841 24.4366 27.3841H21.4897ZM28.3659 27.3841C27.8227 27.3841 27.3836 27.8232 27.3836 28.3664V41.1367C27.3836 41.6799 27.8227 42.119 28.3659 42.119H31.3129C31.8562 42.119 32.2953 41.6799 32.2953 41.1367V33.7692C32.2953 32.4146 33.3964 31.3134 34.7511 31.3134C36.1057 31.3134 37.2069 32.4146 37.2069 33.7692V41.1367C37.2069 41.6799 37.646 42.119 38.1892 42.119H41.1362C41.6794 42.119 42.1185 41.6799 42.1185 41.1367V33.2781C42.1185 30.0276 39.4751 27.3841 36.2246 27.3841C34.7137 27.3841 33.3395 27.9598 32.2953 28.8979V28.3664C32.2953 27.8232 31.8562 27.3841 31.3129 27.3841H28.3659Z" fill="white"/>
<rect x="7.24856" y="7.24856" width="47.503" height="47.503" rx="23.7515" stroke="#212121" stroke-width="0.497128"/>
</g>
<defs>
<filter id="filter0_d_2009_2338" x="0.246497" y="0.246497" width="61.5071" height="61.5071" filterUnits="userSpaceOnUse" color-interpolation-filters="sRGB">
<feFlood flood-opacity="0" result="BackgroundImageFix"/>
<feColorMatrix in="SourceAlpha" type="matrix" values="0 0 0 0 0 0 0 0 0 0 0 0 0 0 0 0 0 0 127 0" result="hardAlpha"/>
<feOffset/>
<feGaussianBlur stdDeviation="3.37675"/>
<feColorMatrix type="matrix" values="0 0 0 0 1 0 0 0 0 1 0 0 0 0 1 0 0 0 0.14 0"/>
<feBlend mode="normal" in2="BackgroundImageFix" result="effect1_dropShadow_2009_2338"/>
<feBlend mode="normal" in="SourceGraphic" in2="effect1_dropShadow_2009_2338" result="shape"/>
</filter>
</defs>
</svg>
