<svg width="64" height="16" viewBox="0 0 64 16" fill="none" xmlns="http://www.w3.org/2000/svg">
<path fill-rule="evenodd" clip-rule="evenodd" d="M10.8102 2.51599C9.85834 2.51599 9.08673 3.2876 9.08673 4.23943C9.08673 5.19127 9.85834 5.96288 10.8102 5.96288C11.762 5.96288 12.5336 5.19127 12.5336 4.23943C12.5336 3.2876 11.762 2.51599 10.8102 2.51599ZM7.51996 4.23943C7.51996 2.4223 8.99304 0.949219 10.8102 0.949219C12.6273 0.949219 14.1004 2.4223 14.1004 4.23943C14.1004 6.05657 12.6273 7.52965 10.8102 7.52965C8.99304 7.52965 7.51996 6.05657 7.51996 4.23943Z" fill="white"/>
<path fill-rule="evenodd" clip-rule="evenodd" d="M3.29022 2.51599C2.33838 2.51599 1.56677 3.2876 1.56677 4.23943C1.56677 5.19127 2.33838 5.96288 3.29022 5.96288C4.24205 5.96288 5.01366 5.19127 5.01366 4.23943C5.01366 3.2876 4.24205 2.51599 3.29022 2.51599ZM0 4.23943C0 2.4223 1.47308 0.949219 3.29022 0.949219C5.10735 0.949219 6.58043 2.4223 6.58043 4.23943C6.58043 6.05657 5.10735 7.52965 3.29022 7.52965C1.47308 7.52965 0 6.05657 0 4.23943Z" fill="white"/>
<path fill-rule="evenodd" clip-rule="evenodd" d="M10.8102 10.0375C9.8584 10.0375 9.08679 10.8091 9.08679 11.7609C9.08679 12.7128 9.8584 13.4844 10.8102 13.4844C11.7621 13.4844 12.5337 12.7128 12.5337 11.7609C12.5337 10.8091 11.7621 10.0375 10.8102 10.0375ZM7.52002 11.7609C7.52002 9.94378 8.9931 8.4707 10.8102 8.4707C12.6274 8.4707 14.1005 9.94378 14.1005 11.7609C14.1005 13.5781 12.6274 15.0511 10.8102 15.0511C8.9931 15.0511 7.52002 13.5781 7.52002 11.7609Z" fill="white"/>
<path d="M25.1505 16V10.2333L25.5671 10.2833C25.556 10.55 25.456 10.8167 25.2671 11.0833C25.0894 11.3389 24.8505 11.5778 24.5505 11.8C24.2616 12.0111 23.9338 12.1833 23.5671 12.3167C23.2116 12.4389 22.8394 12.5 22.4505 12.5C21.6727 12.5 20.9727 12.3056 20.3505 11.9167C19.7393 11.5167 19.256 10.9722 18.9005 10.2833C18.5449 9.59445 18.3671 8.81112 18.3671 7.93334C18.3671 7.04445 18.5393 6.26111 18.8838 5.58333C19.2393 4.89445 19.7171 4.35556 20.3171 3.96667C20.9282 3.56667 21.6227 3.36667 22.4005 3.36667C22.8227 3.36667 23.2282 3.43333 23.6171 3.56667C24.006 3.7 24.356 3.87778 24.6671 4.1C24.9782 4.32222 25.2227 4.57222 25.4005 4.85C25.5894 5.12778 25.6894 5.41111 25.7005 5.7L25.1671 5.75L25.2005 3.53333H27.2005V16H25.1505ZM22.7838 10.6833C23.2616 10.6833 23.6838 10.5667 24.0505 10.3333C24.4171 10.1 24.7005 9.77778 24.9005 9.36667C25.1116 8.95556 25.2171 8.47778 25.2171 7.93334C25.2171 7.38889 25.1116 6.91111 24.9005 6.5C24.7005 6.07778 24.4171 5.75 24.0505 5.51667C23.6838 5.28334 23.2616 5.16667 22.7838 5.16667C22.306 5.16667 21.8838 5.28889 21.5171 5.53333C21.1505 5.76667 20.8616 6.09445 20.6505 6.51667C20.4505 6.92778 20.3505 7.4 20.3505 7.93334C20.3505 8.46667 20.4505 8.94445 20.6505 9.36667C20.8616 9.77778 21.1505 10.1 21.5171 10.3333C21.8838 10.5667 22.306 10.6833 22.7838 10.6833Z" fill="white"/>
<path d="M31.8113 12.5C31.1779 12.5 30.6279 12.3611 30.1613 12.0833C29.6946 11.7944 29.339 11.3889 29.0946 10.8667C28.8502 10.3333 28.7279 9.7 28.7279 8.96667V3.55H30.7779V8.53334C30.7779 9 30.8502 9.4 30.9946 9.73334C31.139 10.0556 31.3502 10.3056 31.6279 10.4833C31.9057 10.6611 32.239 10.75 32.6279 10.75C32.9168 10.75 33.1779 10.7056 33.4113 10.6167C33.6557 10.5167 33.8668 10.3833 34.0446 10.2167C34.2224 10.0389 34.3613 9.83334 34.4613 9.6C34.5613 9.35556 34.6113 9.09445 34.6113 8.81667V3.55H36.6613V12.3333H34.6613L34.6279 10.5L34.9946 10.3C34.8613 10.7222 34.6335 11.1 34.3113 11.4333C34.0002 11.7556 33.6279 12.0167 33.1946 12.2167C32.7613 12.4056 32.3002 12.5 31.8113 12.5Z" fill="white"/>
<path d="M41.5473 12.5C40.8251 12.5 40.1696 12.3 39.5807 11.9C38.9918 11.5 38.5196 10.9556 38.164 10.2667C37.8085 9.57778 37.6307 8.79445 37.6307 7.91667C37.6307 7.03889 37.8085 6.25556 38.164 5.56667C38.5196 4.87778 39.0029 4.33889 39.614 3.95C40.2251 3.56111 40.914 3.36667 41.6807 3.36667C42.1251 3.36667 42.5307 3.43333 42.8973 3.56667C43.264 3.68889 43.5862 3.86667 43.864 4.1C44.1418 4.33333 44.3696 4.6 44.5473 4.9C44.7362 5.2 44.864 5.52222 44.9307 5.86667L44.4807 5.75V3.55H46.5473V12.3333H44.464V10.2333L44.9473 10.15C44.8696 10.45 44.7251 10.7444 44.514 11.0333C44.314 11.3111 44.0585 11.5611 43.7473 11.7833C43.4473 11.9944 43.1085 12.1667 42.7307 12.3C42.364 12.4333 41.9696 12.5 41.5473 12.5ZM42.114 10.6833C42.5918 10.6833 43.014 10.5667 43.3807 10.3333C43.7473 10.1 44.0307 9.77778 44.2307 9.36667C44.4418 8.94445 44.5473 8.46111 44.5473 7.91667C44.5473 7.38334 44.4418 6.91111 44.2307 6.5C44.0307 6.08889 43.7473 5.76667 43.3807 5.53333C43.014 5.3 42.5918 5.18334 42.114 5.18334C41.6362 5.18334 41.214 5.3 40.8473 5.53333C40.4918 5.76667 40.214 6.08889 40.014 6.5C39.814 6.91111 39.714 7.38334 39.714 7.91667C39.714 8.46111 39.814 8.94445 40.014 9.36667C40.214 9.77778 40.4918 10.1 40.8473 10.3333C41.214 10.5667 41.6362 10.6833 42.114 10.6833Z" fill="white"/>
<path d="M51.024 12.5C50.2463 12.5 49.5463 12.3722 48.924 12.1167C48.3129 11.85 47.8129 11.4722 47.424 10.9833L48.7574 9.83334C49.0907 10.2111 49.4629 10.4833 49.874 10.65C50.2851 10.8167 50.7185 10.9 51.174 10.9C51.3629 10.9 51.5296 10.8778 51.674 10.8333C51.8296 10.7889 51.9629 10.7222 52.074 10.6333C52.1852 10.5444 52.2685 10.4444 52.324 10.3333C52.3907 10.2111 52.424 10.0778 52.424 9.93334C52.424 9.66667 52.324 9.45556 52.124 9.3C52.0129 9.22223 51.8351 9.13889 51.5907 9.05C51.3574 8.96111 51.0518 8.87223 50.674 8.78334C50.074 8.62778 49.574 8.45 49.174 8.25C48.774 8.03889 48.4629 7.80556 48.2407 7.55C48.0518 7.33889 47.9074 7.1 47.8074 6.83334C47.7185 6.56667 47.674 6.27778 47.674 5.96667C47.674 5.57778 47.7574 5.22778 47.924 4.91667C48.1018 4.59445 48.3407 4.31667 48.6407 4.08333C48.9407 3.85 49.2907 3.67222 49.6907 3.55C50.0907 3.42778 50.5074 3.36667 50.9407 3.36667C51.3851 3.36667 51.8129 3.42222 52.224 3.53333C52.6463 3.64445 53.0351 3.80556 53.3907 4.01667C53.7574 4.21667 54.0685 4.46111 54.324 4.75L53.1907 6C52.9796 5.8 52.7463 5.62222 52.4907 5.46667C52.2463 5.31111 51.9963 5.18889 51.7407 5.1C51.4851 5 51.2463 4.95 51.024 4.95C50.8129 4.95 50.624 4.97222 50.4574 5.01667C50.2907 5.05 50.1518 5.10556 50.0407 5.18334C49.9296 5.26111 49.8407 5.36111 49.774 5.48334C49.7185 5.59445 49.6907 5.72778 49.6907 5.88334C49.7018 6.01667 49.7351 6.14445 49.7907 6.26667C49.8574 6.37778 49.9463 6.47222 50.0574 6.55C50.1796 6.62778 50.3629 6.71667 50.6074 6.81667C50.8518 6.91667 51.1685 7.01111 51.5574 7.1C52.1018 7.24445 52.5574 7.40556 52.924 7.58334C53.2907 7.76111 53.5796 7.96667 53.7907 8.2C54.0018 8.4 54.1518 8.63334 54.2407 8.9C54.3296 9.16667 54.374 9.46111 54.374 9.78334C54.374 10.3056 54.224 10.7722 53.924 11.1833C53.6352 11.5944 53.2351 11.9167 52.724 12.15C52.224 12.3833 51.6574 12.5 51.024 12.5Z" fill="white"/>
<path d="M55.3466 12.3333V0H57.3799V5.35L56.9966 5.55C57.1077 5.15 57.3243 4.78889 57.6466 4.46667C57.9688 4.13333 58.3521 3.86667 58.7966 3.66667C59.241 3.46667 59.6966 3.36667 60.1632 3.36667C60.8299 3.36667 61.3855 3.5 61.8299 3.76667C62.2855 4.03333 62.6243 4.43333 62.8466 4.96667C63.0799 5.5 63.1966 6.16667 63.1966 6.96667V12.3333H61.1466V7.11667C61.1466 6.67222 61.0855 6.30556 60.9632 6.01667C60.841 5.71667 60.6521 5.5 60.3966 5.36667C60.141 5.22222 59.8299 5.15556 59.4632 5.16667C59.1632 5.16667 58.8855 5.21667 58.6299 5.31667C58.3855 5.40556 58.1688 5.53889 57.9799 5.71667C57.8021 5.88334 57.6577 6.07778 57.5466 6.3C57.4466 6.52222 57.3966 6.76667 57.3966 7.03334V12.3333H56.3799C56.1799 12.3333 55.991 12.3333 55.8132 12.3333C55.6466 12.3333 55.491 12.3333 55.3466 12.3333Z" fill="white"/>
</svg>
