<svg width="170" height="171" viewBox="0 0 170 171" fill="none" xmlns="http://www.w3.org/2000/svg">
<circle cx="85" cy="85.3828" r="85" fill="url(#paint0_radial_140_1296)"/>
<path d="M116.831 37.2385H62.954C59.2873 37.2385 56.3149 40.2109 56.3149 43.8776V127.246C56.3149 130.913 59.2873 133.885 62.954 133.885H116.831C120.498 133.885 123.47 130.913 123.47 127.246V43.8776C123.47 40.2109 120.498 37.2385 116.831 37.2385Z" fill="#0B5243"/>
<path d="M115.286 37.2385H61.4091C57.7424 37.2385 54.77 40.2109 54.77 43.8776V127.246C54.77 130.913 57.7424 133.885 61.4091 133.885H115.286C118.953 133.885 121.925 130.913 121.925 127.246V43.8776C121.925 40.2109 118.953 37.2385 115.286 37.2385Z" fill="white" stroke="#0B5243" stroke-width="0.263742" stroke-miterlimit="10"/>
<path d="M111.029 57.1296H63.4764C59.8098 57.1296 56.8374 60.102 56.8374 63.7687V83.5646C56.8374 87.2313 59.8098 90.2037 63.4764 90.2037H111.029C114.696 90.2037 117.668 87.2313 117.668 83.5646V63.7687C117.668 60.102 114.696 57.1296 111.029 57.1296Z" fill="#E0EED5"/>
<path d="M112.116 97.3564H62.3099C58.6439 97.3564 55.6709 100.329 55.6709 103.995V112.07C55.6709 115.736 58.6439 118.709 62.3099 118.709H65.6313C66.0176 118.709 66.3737 118.913 66.563 119.247L68.7558 123.045C69.252 123.905 70.4904 123.905 70.9827 123.045L73.1755 119.247C73.3687 118.913 73.7247 118.709 74.1072 118.709H112.108C115.774 118.709 118.747 115.736 118.747 112.07V103.995C118.747 100.329 115.774 97.3564 112.108 97.3564H112.116Z" fill="#E0EED5"/>
<path d="M62.9541 37.2385H116.835C120.498 37.2385 123.474 40.2115 123.474 43.8776V47.4717H56.3188V43.8776C56.3188 40.2153 59.2918 37.2385 62.9579 37.2385H62.9541Z" fill="#0B5243"/>
<path d="M61.4053 37.2385H115.286C118.949 37.2385 121.925 40.2115 121.925 43.8776V47.4717H54.77V43.8776C54.77 40.2153 57.743 37.2385 61.4091 37.2385H61.4053Z" fill="#E0EED5" stroke="#0B5243" stroke-width="0.263742" stroke-miterlimit="10"/>
<path d="M62.7913 44.685C63.9542 44.685 64.897 43.7423 64.897 42.5793C64.897 41.4164 63.9542 40.4736 62.7913 40.4736C61.6283 40.4736 60.6855 41.4164 60.6855 42.5793C60.6855 43.7423 61.6283 44.685 62.7913 44.685Z" fill="#FBF9ED" stroke="#0B5243" stroke-width="0.263742" stroke-miterlimit="10"/>
<path d="M69.1081 44.685C70.2711 44.685 71.2139 43.7423 71.2139 42.5793C71.2139 41.4164 70.2711 40.4736 69.1081 40.4736C67.9452 40.4736 67.0024 41.4164 67.0024 42.5793C67.0024 43.7423 67.9452 44.685 69.1081 44.685Z" fill="#FBF9ED" stroke="#0B5243" stroke-width="0.263742" stroke-miterlimit="10"/>
<path d="M75.4255 44.685C76.5885 44.685 77.5312 43.7423 77.5312 42.5793C77.5312 41.4164 76.5885 40.4736 75.4255 40.4736C74.2626 40.4736 73.3198 41.4164 73.3198 42.5793C73.3198 43.7423 74.2626 44.685 75.4255 44.685Z" fill="#FBF9ED" stroke="#0B5243" stroke-width="0.263742" stroke-miterlimit="10"/>
<path d="M106.685 54.2078H52.808C49.1413 54.2078 46.1689 57.1802 46.1689 60.8468V80.6427C46.1689 84.3094 49.1413 87.2818 52.808 87.2818H106.685C110.352 87.2818 113.324 84.3094 113.324 80.6427V60.8468C113.324 57.1802 110.352 54.2078 106.685 54.2078Z" fill="white" stroke="#0B5243" stroke-width="0.263742" stroke-linecap="round" stroke-linejoin="round"/>
<path d="M104.587 69.0547H72.763C72.2359 69.0547 71.8086 69.482 71.8086 70.0091C71.8086 70.5362 72.2359 70.9635 72.763 70.9635H104.587C105.114 70.9635 105.542 70.5362 105.542 70.0091C105.542 69.482 105.114 69.0547 104.587 69.0547Z" fill="#83BAA0"/>
<path d="M106.381 63.9631H72.8735C72.3186 63.9631 71.8687 64.4355 71.8687 65.0181C71.8687 65.6007 72.3186 66.0731 72.8735 66.0731H106.381C106.936 66.0731 107.386 65.6007 107.386 65.0181C107.386 64.4355 106.936 63.9631 106.381 63.9631Z" fill="#0B5243"/>
<path d="M95.9447 73.8557H72.763C72.2359 73.8557 71.8086 74.283 71.8086 74.8101C71.8086 75.3372 72.2359 75.7645 72.763 75.7645H95.9447C96.4718 75.7645 96.8991 75.3372 96.8991 74.8101C96.8991 74.283 96.4718 73.8557 95.9447 73.8557Z" fill="#83BAA0"/>
<path d="M98.3723 78.6843H72.763C72.2359 78.6843 71.8086 79.1116 71.8086 79.6387C71.8086 80.1658 72.2359 80.5931 72.763 80.5931H98.3723C98.8994 80.5931 99.3267 80.1658 99.3267 79.6387C99.3267 79.1116 98.8994 78.6843 98.3723 78.6843Z" fill="#83BAA0"/>
<path d="M59.4165 74.7288C63.4325 74.7288 66.688 71.4732 66.688 67.4573C66.688 63.4414 63.4325 60.1858 59.4165 60.1858C55.4006 60.1858 52.145 63.4414 52.145 67.4573C52.145 71.4732 55.4006 74.7288 59.4165 74.7288Z" fill="#E0EED5"/>
<path d="M59.4171 74.7303C61.7576 74.7303 63.8331 73.6206 65.1624 71.905C64.1171 69.7841 61.9394 68.3223 59.4171 68.3223C56.8948 68.3223 54.7172 69.7841 53.6719 71.905C55.0012 73.6206 57.0766 74.7303 59.4171 74.7303Z" fill="#088F73"/>
<path d="M59.4167 67.455C60.7261 67.455 61.7875 66.3936 61.7875 65.0842C61.7875 63.7748 60.7261 62.7134 59.4167 62.7134C58.1073 62.7134 57.0459 63.7748 57.0459 65.0842C57.0459 66.3936 58.1073 67.455 59.4167 67.455Z" fill="#088F73"/>
<path d="M65.1428 77.4934H53.694C52.8385 77.4934 52.145 78.1869 52.145 79.0424C52.145 79.8979 52.8385 80.5914 53.694 80.5914H65.1428C65.9983 80.5914 66.6918 79.8979 66.6918 79.0424C66.6918 78.1869 65.9983 77.4934 65.1428 77.4934Z" fill="#0B5243"/>
<path d="M107.455 94.8064H53.5736C49.9076 94.8064 46.9346 97.7794 46.9346 101.445V109.52C46.9346 113.186 49.9076 116.159 53.5736 116.159H60.9701C61.3564 116.159 61.7124 116.363 61.9018 116.697L64.0946 120.495C64.5907 121.355 65.8291 121.355 66.3215 120.495L68.5143 116.697C68.7074 116.363 69.0634 116.159 69.446 116.159H107.447C111.113 116.159 114.086 113.186 114.086 109.52V101.445C114.086 97.7794 111.113 94.8064 107.447 94.8064H107.455Z" fill="white" stroke="#0B5243" stroke-width="0.263742" stroke-linecap="round" stroke-linejoin="round"/>
<path d="M58.216 110.948C61.2071 110.948 63.6318 108.523 63.6318 105.532C63.6318 102.541 61.2071 100.116 58.216 100.116C55.225 100.116 52.8003 102.541 52.8003 105.532C52.8003 108.523 55.225 110.948 58.216 110.948Z" fill="#E0EED5"/>
<path d="M58.2161 110.956C59.9582 110.956 61.5034 110.13 62.4957 108.854C61.7193 107.274 60.0984 106.184 58.2161 106.184C56.3338 106.184 54.7167 107.274 53.9365 108.854C54.9288 110.13 56.474 110.956 58.2161 110.956Z" fill="#088F73"/>
<path d="M58.2165 105.53C59.1912 105.53 59.9814 104.74 59.9814 103.766C59.9814 102.791 59.1912 102.001 58.2165 102.001C57.2418 102.001 56.4517 102.791 56.4517 103.766C56.4517 104.74 57.2418 105.53 58.2165 105.53Z" fill="#088F73"/>
<path d="M104.647 101.945H72.823C72.296 101.945 71.8687 102.372 71.8687 102.899C71.8687 103.426 72.296 103.854 72.823 103.854H104.647C105.174 103.854 105.602 103.426 105.602 102.899C105.602 102.372 105.174 101.945 104.647 101.945Z" fill="#83BAA0"/>
<path d="M96.0048 107.019H72.823C72.296 107.019 71.8687 107.446 71.8687 107.973C71.8687 108.5 72.296 108.927 72.823 108.927H96.0048C96.5319 108.927 96.9592 108.5 96.9592 107.973C96.9592 107.446 96.5319 107.019 96.0048 107.019Z" fill="#83BAA0"/>
<g clip-path="url(#clip0_140_1296)">
<path d="M115.96 58.2253C113.694 58.2253 111.857 56.3886 111.857 54.1227C111.857 51.8568 113.694 50.02 115.96 50.02C118.226 50.02 120.063 51.8568 120.063 54.1227C120.063 56.3886 118.226 58.2253 115.96 58.2253ZM115.551 55.7637L118.452 52.8627L117.872 52.2826L115.551 54.6035L114.39 53.4429L113.81 54.023L115.551 55.7637Z" fill="#418A30"/>
</g>
<g clip-path="url(#clip1_140_1296)">
<path d="M115.96 102.616C113.694 102.616 111.857 100.779 111.857 98.5133C111.857 96.2474 113.694 94.4106 115.96 94.4106C118.226 94.4106 120.063 96.2474 120.063 98.5133C120.063 100.779 118.226 102.616 115.96 102.616ZM115.551 100.154L118.452 97.2534L117.872 96.6733L115.551 98.9941L114.39 97.8335L113.81 98.4136L115.551 100.154Z" fill="#418A30"/>
</g>
<defs>
<radialGradient id="paint0_radial_140_1296" cx="0" cy="0" r="1" gradientUnits="userSpaceOnUse" gradientTransform="translate(85 85.3828) rotate(90) scale(85)">
<stop offset="0.0104167" stop-color="#51AC3C"/>
<stop offset="0.364583" stop-color="#82BC74" stop-opacity="0.642105"/>
<stop offset="0.661458" stop-color="#A5E397" stop-opacity="0.294737"/>
<stop offset="1" stop-color="#D9D9D9" stop-opacity="0"/>
</radialGradient>
<clipPath id="clip0_140_1296">
<rect width="9.84637" height="9.84637" fill="white" transform="translate(111.037 49.1995)"/>
</clipPath>
<clipPath id="clip1_140_1296">
<rect width="9.84637" height="9.84637" fill="white" transform="translate(111.037 93.5901)"/>
</clipPath>
</defs>
</svg>
