<svg width="190" height="52" viewBox="0 0 190 52" fill="none" xmlns="http://www.w3.org/2000/svg">
<g filter="url(#filter0_d_429_20480)">
<mask id="path-1-inside-1_429_20480" fill="white">
<path fill-rule="evenodd" clip-rule="evenodd" d="M27.9661 14.1793C27.7515 14.2669 27.5614 14.3744 27.5435 14.4181C27.5256 14.4618 27.4483 14.4975 27.3716 14.4975C27.1874 14.4975 26.2595 15.4344 26.2595 15.6203C26.2595 15.7001 26.2156 15.7653 26.162 15.7653C26.1083 15.7653 26.0644 15.875 26.0644 16.0091C26.0644 16.1432 26.0206 16.2529 25.9669 16.2529C25.9133 16.2529 25.8678 16.3516 25.866 16.4723C25.864 16.5931 25.7998 16.8015 25.7231 16.9356C25.6465 17.0697 25.5822 17.2975 25.5803 17.4418C25.5784 17.5861 25.533 17.7313 25.4793 17.7645C25.4257 17.7976 25.3818 17.9538 25.3818 18.1116C25.3818 18.2694 25.3379 18.3984 25.2843 18.3984C25.2306 18.3984 25.1868 18.552 25.1868 18.7397C25.1868 18.9274 25.1429 19.081 25.0892 19.081C25.0356 19.081 24.9902 19.1797 24.9883 19.3004C24.9864 19.4212 24.9221 19.6296 24.8454 19.7637C24.7688 19.8977 24.7045 20.1062 24.7026 20.2269C24.7007 20.3476 24.6553 20.4463 24.6016 20.4463C24.548 20.4463 24.5041 20.5999 24.5041 20.7876C24.5041 20.9754 24.4602 21.1289 24.4066 21.1289C24.353 21.1289 24.3091 21.2533 24.3091 21.4052C24.3091 21.5573 24.2807 21.71 24.246 21.7447C24.1403 21.8504 23.828 22.8213 23.8247 23.055C23.8229 23.1757 23.7776 23.2744 23.724 23.2744C23.6703 23.2744 23.6264 23.428 23.6264 23.6157C23.6264 23.8034 23.5825 23.957 23.5289 23.957C23.4753 23.957 23.4314 24.0887 23.4314 24.2496C23.4314 24.4105 23.3925 24.5422 23.3449 24.5422C23.2974 24.5422 23.2365 24.6629 23.2098 24.8103C23.1575 25.0988 22.9701 25.6558 22.8332 25.9305C22.7868 26.0236 22.7487 26.2102 22.7487 26.3449C22.7487 26.4798 22.7049 26.5901 22.6512 26.5901C22.5976 26.5901 22.5537 26.7437 22.5537 26.9314C22.5537 27.1191 22.5098 27.2727 22.4562 27.2727C22.4025 27.2727 22.3571 27.3714 22.3553 27.4922C22.3533 27.6129 22.289 27.8213 22.2124 27.9554C22.1357 28.0895 22.0715 28.3199 22.0695 28.4674C22.0677 28.6148 22.0222 28.7355 21.9686 28.7355C21.9149 28.7355 21.8711 28.8891 21.8711 29.0769C21.8711 29.2646 21.8272 29.4182 21.7735 29.4182C21.7199 29.4182 21.676 29.5682 21.676 29.7514C21.676 29.9347 21.6431 30.0992 21.6029 30.1171C21.5133 30.1569 21.1884 31.0907 21.1884 31.3085C21.1884 31.3952 21.1445 31.4661 21.0909 31.4661C21.0373 31.4661 20.9934 31.5978 20.9934 31.7587C20.9934 31.9196 20.9495 32.0512 20.8959 32.0512C20.8422 32.0512 20.7983 32.2048 20.7983 32.3926C20.7983 32.5803 20.7545 32.7339 20.7008 32.7339C20.6472 32.7339 20.6019 32.8546 20.6002 33.0021C20.5985 33.1495 20.5327 33.3555 20.4539 33.4595C20.3752 33.5637 20.3107 33.7696 20.3107 33.917C20.3107 34.0646 20.2669 34.2123 20.2132 34.2455C20.1596 34.2786 20.1157 34.4347 20.1157 34.5925C20.1157 34.7503 20.0718 34.8793 20.0182 34.8793C19.9645 34.8793 19.9207 35.0329 19.9207 35.2207C19.9207 35.4084 19.8768 35.562 19.8231 35.562C19.7695 35.562 19.7241 35.6607 19.7222 35.7814C19.7202 35.9021 19.656 36.1105 19.5793 36.2446C19.5027 36.3787 19.4384 36.5871 19.4365 36.7079C19.4346 36.8286 19.3892 36.9273 19.3355 36.9273C19.2819 36.9273 19.238 37.0809 19.238 37.2686C19.238 37.4563 19.1941 37.6099 19.1405 37.6099C19.0869 37.6099 19.043 37.6977 19.043 37.805V38H21.8711C23.6915 38 24.6992 37.9653 24.6992 37.9025C24.6992 37.8488 24.8528 37.805 25.0405 37.805C25.2282 37.805 25.3818 37.7611 25.3818 37.7074C25.3818 37.6538 25.4385 37.6099 25.5078 37.6099C25.577 37.6099 25.7966 37.4563 25.9956 37.2686C26.1946 37.0809 26.3825 36.9273 26.413 36.9273C26.5085 36.9273 26.7471 36.6536 26.7471 36.5441C26.7471 36.4867 26.791 36.4397 26.8446 36.4397C26.8982 36.4397 26.9421 36.3519 26.9421 36.2446C26.9421 36.1374 26.986 36.0496 27.0396 36.0496C27.0933 36.0496 27.1372 35.8996 27.1372 35.7164C27.1372 35.5331 27.1701 35.3686 27.2103 35.3507C27.2999 35.3109 27.6248 34.3771 27.6248 34.1593C27.6248 34.0726 27.6687 34.0017 27.7223 34.0017C27.7759 34.0017 27.8198 33.8481 27.8198 33.6603C27.8198 33.4726 27.8637 33.319 27.9173 33.319C27.971 33.319 28.0149 33.2262 28.0149 33.1127C28.0149 32.8578 28.3293 31.917 28.4293 31.8725C28.4695 31.8545 28.5025 31.69 28.5025 31.5068C28.5025 31.3235 28.5463 31.1736 28.6 31.1736C28.6536 31.1736 28.6975 31.02 28.6975 30.8322C28.6975 30.6445 28.7414 30.4909 28.795 30.4909C28.8487 30.4909 28.8925 30.363 28.8925 30.2065C28.8925 30.05 28.9254 29.9075 28.9657 29.8895C29.0553 29.8497 29.3801 28.916 29.3801 28.6981C29.3801 28.6114 29.424 28.5405 29.4777 28.5405C29.5313 28.5405 29.5752 28.365 29.5752 28.1504C29.5752 27.9359 29.6191 27.7603 29.6727 27.7603C29.7263 27.7603 29.7717 27.6835 29.7734 27.5897C29.777 27.3922 30.1012 26.4217 30.1947 26.3282C30.2294 26.2934 30.2578 26.1407 30.2578 25.9887C30.2578 25.8368 30.3017 25.7124 30.3553 25.7124C30.409 25.7124 30.4529 25.8002 30.4529 25.9075C30.4529 26.0147 30.4967 26.1025 30.5504 26.1025C30.604 26.1025 30.6479 26.2561 30.6479 26.4438C30.6479 26.6315 30.6918 26.7851 30.7454 26.7851C30.7991 26.7851 30.8445 26.8838 30.8464 27.0046C30.8483 27.1253 30.9126 27.3337 30.9892 27.4678C31.0659 27.6019 31.1301 27.8103 31.1321 27.931C31.1339 28.0517 31.1794 28.1504 31.233 28.1504C31.2867 28.1504 31.3306 28.326 31.3306 28.5405C31.3306 28.7551 31.3744 28.9306 31.4281 28.9306C31.4817 28.9306 31.5256 29.0043 31.5256 29.0943C31.5256 29.2827 31.6833 29.81 31.8786 30.2748C31.9526 30.4509 32.0132 30.6814 32.0132 30.7868C32.0132 30.8922 32.0571 30.9785 32.1107 30.9785C32.1644 30.9785 32.2082 31.1321 32.2082 31.3198C32.2082 31.5076 32.2521 31.6612 32.3058 31.6612C32.3594 31.6612 32.4033 31.784 32.4033 31.9342C32.4033 32.0844 32.4394 32.249 32.4835 32.2999C32.5276 32.3509 32.6483 32.6669 32.7517 33.0021C32.855 33.3373 32.9725 33.6116 33.0128 33.6116C33.053 33.6116 33.0859 33.8091 33.0859 34.0504C33.0859 34.2918 33.1298 34.4893 33.1834 34.4893C33.2371 34.4893 33.281 34.5963 33.281 34.7273C33.281 34.8583 33.3248 34.9925 33.3785 35.0256C33.4321 35.0588 33.476 35.1846 33.476 35.3053C33.476 35.4259 33.5405 35.6099 33.6192 35.714C33.698 35.8181 33.7638 36.024 33.7654 36.1715C33.7672 36.3189 33.8124 36.4397 33.8661 36.4397C33.9197 36.4397 33.9636 36.5299 33.9636 36.6402C33.9636 36.9084 34.8545 37.805 35.1208 37.805C35.2353 37.805 35.3289 37.8488 35.3289 37.9025C35.3289 37.9648 36.1903 38 37.7181 38C39.246 38 40.1074 37.9648 40.1074 37.9025C40.1074 37.8488 40.2136 37.805 40.3433 37.805C40.5926 37.805 41.1785 37.5145 41.1795 37.3905C41.1798 37.3502 41.2255 37.3174 41.2809 37.3174C41.4325 37.3174 42.0261 36.6932 42.102 36.4541C42.1385 36.3388 42.2093 36.2446 42.2594 36.2446C42.3094 36.2446 42.3504 36.1569 42.3504 36.0496C42.3504 35.9423 42.3942 35.8545 42.4479 35.8545C42.5015 35.8545 42.5454 35.701 42.5454 35.5132C42.5454 35.3255 42.5893 35.1719 42.6429 35.1719C42.6966 35.1719 42.7404 35.0616 42.7404 34.9267C42.7404 34.792 42.7785 34.6054 42.8249 34.5123C42.9618 34.2377 43.1492 33.6806 43.2015 33.3922C43.2282 33.2447 43.2891 33.124 43.3366 33.124C43.3842 33.124 43.4231 32.9704 43.4231 32.7827C43.4231 32.5949 43.467 32.4413 43.5206 32.4413C43.5742 32.4413 43.6181 32.3097 43.6181 32.1488C43.6181 31.9879 43.662 31.8562 43.7157 31.8562C43.7693 31.8562 43.8132 31.7451 43.8132 31.6093C43.8132 31.4734 43.879 31.2048 43.9595 31.0123C44.0399 30.8197 44.1057 30.5798 44.1057 30.479C44.1057 30.3783 44.1496 30.2959 44.2033 30.2959C44.2569 30.2959 44.3008 30.1642 44.3008 30.0033C44.3008 29.8424 44.3447 29.7108 44.3983 29.7108C44.4519 29.7108 44.4958 29.5572 44.4958 29.3694C44.4958 29.1817 44.5306 29.0281 44.5732 29.0281C44.655 29.0281 44.9834 28.0487 44.9834 27.8052C44.9834 27.7269 45.0273 27.6628 45.0809 27.6628C45.1346 27.6628 45.1785 27.5092 45.1785 27.3215C45.1785 27.1338 45.2223 26.9802 45.276 26.9802C45.3296 26.9802 45.3735 26.8752 45.3735 26.747C45.3735 26.6188 45.4597 26.3226 45.565 26.0887L45.7566 25.6637L45.821 25.9806C45.8565 26.1549 45.9239 26.2975 45.9708 26.2975C46.0177 26.2975 46.0561 26.4511 46.0561 26.6389C46.0561 26.8266 46.1 26.9802 46.1537 26.9802C46.2073 26.9802 46.2512 27.0539 46.2512 27.1439C46.2512 27.3323 46.4089 27.8596 46.6042 28.3244C46.6782 28.5005 46.7388 28.731 46.7388 28.8364C46.7388 28.9418 46.7827 29.0281 46.8363 29.0281C46.8899 29.0281 46.9338 29.1817 46.9338 29.3694C46.9338 29.5572 46.9777 29.7108 47.0313 29.7108C47.085 29.7108 47.1289 29.8398 47.1289 29.9976C47.1289 30.1554 47.1689 30.3091 47.2179 30.3394C47.2669 30.3697 47.3366 30.5697 47.3728 30.784C47.4089 30.9982 47.4786 31.1736 47.5275 31.1736C47.5765 31.1736 47.6165 31.3272 47.6165 31.5149C47.6165 31.7026 47.6604 31.8562 47.714 31.8562C47.7676 31.8562 47.8115 32.0098 47.8115 32.1975C47.8115 32.3853 47.8554 32.5388 47.909 32.5388C47.9627 32.5388 48.0066 32.6272 48.0066 32.7353C48.0066 32.8432 48.0446 33.0078 48.091 33.101C48.2279 33.3756 48.4153 33.9326 48.4676 34.2211C48.4944 34.3685 48.5552 34.4893 48.6027 34.4893C48.6503 34.4893 48.6892 34.6429 48.6892 34.8306C48.6892 35.0183 48.7331 35.1719 48.7867 35.1719C48.8404 35.1719 48.8842 35.3255 48.8842 35.5132C48.8842 35.701 48.9281 35.8545 48.9818 35.8545C49.0354 35.8545 49.0793 35.937 49.0793 36.0377C49.0793 36.1383 49.1451 36.2753 49.2256 36.3422C49.306 36.409 49.3718 36.5035 49.3718 36.5524C49.3718 36.8494 50.6724 37.805 51.0765 37.805C51.2117 37.805 51.3223 37.8488 51.3223 37.9025C51.3223 37.9653 52.3462 38 54.1991 38H57.076V37.8161C57.076 37.7149 57.0104 37.5065 56.9303 37.3529C56.8502 37.1993 56.7844 36.9993 56.784 36.9086C56.7837 36.818 56.7395 36.7166 56.6859 36.6835C56.6322 36.6503 56.5884 36.4942 56.5884 36.3364C56.5884 36.1786 56.5445 36.0496 56.4908 36.0496C56.4372 36.0496 56.3933 35.896 56.3933 35.7083C56.3933 35.5205 56.3494 35.3669 56.2958 35.3669C56.2422 35.3669 56.1983 35.2379 56.1983 35.0801C56.1983 34.9223 56.1582 34.7686 56.1092 34.7383C56.0603 34.708 55.9907 34.5082 55.9545 34.2942C55.9183 34.0803 55.8487 33.8804 55.7997 33.8501C55.7508 33.8199 55.7107 33.6661 55.7107 33.5083C55.7107 33.3505 55.6668 33.2215 55.6132 33.2215C55.5595 33.2215 55.5156 33.0679 55.5156 32.8802C55.5156 32.6924 55.4717 32.5388 55.4181 32.5388C55.3645 32.5388 55.3206 32.468 55.3206 32.3813C55.3206 32.1634 54.9958 31.2296 54.9061 31.1898C54.8659 31.1719 54.833 31.0074 54.833 30.8241C54.833 30.6409 54.7891 30.4909 54.7355 30.4909C54.6818 30.4909 54.6379 30.3619 54.6379 30.2041C54.6379 30.0463 54.5941 29.8902 54.5404 29.857C54.4868 29.8239 54.4429 29.6677 54.4429 29.51C54.4429 29.3522 54.4018 29.2232 54.3513 29.2232C54.301 29.2232 54.2302 29.0257 54.194 28.7843C54.1579 28.5429 54.0893 28.3455 54.0417 28.3455C53.9942 28.3455 53.9553 28.2138 53.9553 28.0529C53.9553 27.892 53.9114 27.7603 53.8578 27.7603C53.8041 27.7603 53.7603 27.65 53.7603 27.5152C53.7603 27.3804 53.7222 27.1938 53.6758 27.1007C53.5389 26.8261 53.3516 26.2691 53.2992 25.9806C53.2725 25.8331 53.2116 25.7124 53.1641 25.7124C53.1165 25.7124 53.0776 25.5588 53.0776 25.3711C53.0776 25.1834 53.0337 25.0298 52.9801 25.0298C52.9265 25.0298 52.8826 24.8799 52.8826 24.6965C52.8826 24.5133 52.8497 24.3488 52.8094 24.3308C52.7094 24.2864 52.395 23.3455 52.395 23.0907C52.395 22.9772 52.3511 22.8843 52.2975 22.8843C52.2438 22.8843 52.1999 22.7307 52.1999 22.543C52.1999 22.3553 52.156 22.2017 52.1024 22.2017C52.0488 22.2017 52.0049 22.1302 52.0049 22.0428C52.0049 21.8167 51.4885 20.3066 51.3978 20.2675C51.3563 20.2496 51.3223 20.0851 51.3223 19.9018C51.3223 19.7185 51.2784 19.5686 51.2247 19.5686C51.1711 19.5686 51.1272 19.415 51.1272 19.2273C51.1272 19.0396 51.0833 18.886 51.0297 18.886C50.9761 18.886 50.9322 18.7627 50.9322 18.612C50.9322 18.4614 50.8677 18.253 50.789 18.1488C50.7102 18.0448 50.6444 17.8388 50.6427 17.6913C50.641 17.5439 50.5957 17.4232 50.5421 17.4232C50.4884 17.4232 50.4446 17.2696 50.4446 17.0818C50.4446 16.8941 50.4007 16.7405 50.347 16.7405C50.2934 16.7405 50.2488 16.6638 50.2481 16.5699C50.2452 16.239 49.7885 15.1802 49.6487 15.1802C49.6037 15.1802 49.5669 15.1344 49.5669 15.0783C49.5669 14.9459 49.1186 14.4975 48.9861 14.4975C48.9301 14.4975 48.8842 14.4537 48.8842 14.4C48.8842 14.3464 48.8001 14.3025 48.6973 14.3025C48.5945 14.3025 48.4922 14.2477 48.4699 14.1806C48.4394 14.0886 47.8492 14.0515 46.0681 14.0294L43.7069 14L43.4037 14.1513C43.237 14.2344 43.0292 14.3025 42.942 14.3025C42.8548 14.3025 42.7203 14.3903 42.6429 14.4975C42.5656 14.6048 42.4661 14.6926 42.4219 14.6926C42.3307 14.6926 41.8628 15.1411 41.8628 15.2286C41.8628 15.2601 41.775 15.3801 41.6677 15.4952C41.5604 15.6104 41.4727 15.7809 41.4727 15.8742C41.4727 15.9676 41.4069 16.1098 41.3264 16.1902C41.2459 16.2707 41.1801 16.4713 41.1801 16.6361C41.1801 16.8008 41.1362 16.9356 41.0826 16.9356C41.029 16.9356 40.9851 17.0672 40.9851 17.2281C40.9851 17.389 40.9412 17.5207 40.8876 17.5207C40.8339 17.5207 40.79 17.6743 40.79 17.862C40.79 18.0497 40.7462 18.2033 40.6925 18.2033C40.6389 18.2033 40.595 18.2896 40.595 18.3951C40.595 18.5005 40.5344 18.7309 40.4604 18.907C40.2651 19.3718 40.1074 19.8991 40.1074 20.0875C40.1074 20.1775 40.0635 20.2513 40.0099 20.2513C39.9562 20.2513 39.9124 20.4022 39.9124 20.5868C39.9124 20.7714 39.8685 20.9495 39.8148 20.9827C39.7612 21.0158 39.7173 21.1416 39.7173 21.2624C39.7173 21.383 39.6529 21.5669 39.5742 21.6711C39.4954 21.7751 39.4295 21.9811 39.4279 22.1285C39.4261 22.276 39.3809 22.3967 39.3272 22.3967C39.2736 22.3967 39.2297 22.5503 39.2297 22.738C39.2297 22.9258 39.1858 23.0794 39.1322 23.0794C39.0786 23.0794 39.0347 23.2022 39.0347 23.3524C39.0347 23.5026 38.9998 23.6672 38.9571 23.7181C38.9145 23.769 38.8005 24.0741 38.7037 24.3959C38.6068 24.7177 38.4882 25.0572 38.4398 25.1503C38.3915 25.2434 38.352 25.4519 38.352 25.6135C38.352 25.7752 38.3081 25.9075 38.2545 25.9075C38.2009 25.9075 38.157 25.9733 38.157 26.0537C38.157 26.1342 38.1131 26.2 38.0595 26.2C38.0058 26.2 37.9619 26.1291 37.9619 26.0424C37.9619 25.8246 37.6371 24.8908 37.5475 24.851C37.5073 24.8331 37.4743 24.6686 37.4743 24.4853C37.4743 24.302 37.4305 24.1521 37.3768 24.1521C37.3232 24.1521 37.2793 23.9985 37.2793 23.8108C37.2793 23.623 37.2354 23.4694 37.1818 23.4694C37.1281 23.4694 37.0843 23.3591 37.0843 23.2243C37.0843 23.0895 37.0457 22.9029 36.9986 22.8098C36.7415 22.3011 36.5967 21.8702 36.5967 21.6132C36.5967 21.4542 36.5528 21.324 36.4991 21.324C36.4455 21.324 36.4016 21.2169 36.4016 21.0859C36.4016 20.955 36.3577 20.8208 36.3041 20.7876C36.2505 20.7545 36.2066 20.6253 36.2066 20.5004C36.2066 20.3757 36.141 20.1479 36.0609 19.9942C35.9808 19.8406 35.915 19.6407 35.9146 19.55C35.9143 19.4593 35.8701 19.358 35.8165 19.3248C35.7629 19.2917 35.719 19.1355 35.719 18.9777C35.719 18.82 35.6751 18.6909 35.6215 18.6909C35.5678 18.6909 35.5239 18.5373 35.5239 18.3496C35.5239 18.1619 35.48 18.0083 35.4264 18.0083C35.3728 18.0083 35.3273 17.9096 35.3255 17.7889C35.3235 17.6681 35.2593 17.4597 35.1826 17.3256C35.106 17.1916 35.0417 16.9832 35.0397 16.8624C35.0379 16.7417 34.9924 16.643 34.9388 16.643C34.8852 16.643 34.8413 16.4675 34.8413 16.2529C34.8413 16.0384 34.7974 15.8628 34.7438 15.8628C34.6901 15.8628 34.6462 15.7754 34.6462 15.6686C34.6462 15.4962 34.4652 15.2265 34.0855 14.8328C34.0185 14.7634 33.9636 14.6595 33.9636 14.602C33.9636 14.5446 33.8794 14.4975 33.7767 14.4975C33.6739 14.4975 33.5752 14.4646 33.5572 14.4244C33.5394 14.3842 33.3587 14.2745 33.1557 14.1806L32.7867 14.0099L30.5715 14.015L28.3562 14.02L27.9661 14.1793Z"/>
</mask>
<path fill-rule="evenodd" clip-rule="evenodd" d="M27.9661 14.1793C27.7515 14.2669 27.5614 14.3744 27.5435 14.4181C27.5256 14.4618 27.4483 14.4975 27.3716 14.4975C27.1874 14.4975 26.2595 15.4344 26.2595 15.6203C26.2595 15.7001 26.2156 15.7653 26.162 15.7653C26.1083 15.7653 26.0644 15.875 26.0644 16.0091C26.0644 16.1432 26.0206 16.2529 25.9669 16.2529C25.9133 16.2529 25.8678 16.3516 25.866 16.4723C25.864 16.5931 25.7998 16.8015 25.7231 16.9356C25.6465 17.0697 25.5822 17.2975 25.5803 17.4418C25.5784 17.5861 25.533 17.7313 25.4793 17.7645C25.4257 17.7976 25.3818 17.9538 25.3818 18.1116C25.3818 18.2694 25.3379 18.3984 25.2843 18.3984C25.2306 18.3984 25.1868 18.552 25.1868 18.7397C25.1868 18.9274 25.1429 19.081 25.0892 19.081C25.0356 19.081 24.9902 19.1797 24.9883 19.3004C24.9864 19.4212 24.9221 19.6296 24.8454 19.7637C24.7688 19.8977 24.7045 20.1062 24.7026 20.2269C24.7007 20.3476 24.6553 20.4463 24.6016 20.4463C24.548 20.4463 24.5041 20.5999 24.5041 20.7876C24.5041 20.9754 24.4602 21.1289 24.4066 21.1289C24.353 21.1289 24.3091 21.2533 24.3091 21.4052C24.3091 21.5573 24.2807 21.71 24.246 21.7447C24.1403 21.8504 23.828 22.8213 23.8247 23.055C23.8229 23.1757 23.7776 23.2744 23.724 23.2744C23.6703 23.2744 23.6264 23.428 23.6264 23.6157C23.6264 23.8034 23.5825 23.957 23.5289 23.957C23.4753 23.957 23.4314 24.0887 23.4314 24.2496C23.4314 24.4105 23.3925 24.5422 23.3449 24.5422C23.2974 24.5422 23.2365 24.6629 23.2098 24.8103C23.1575 25.0988 22.9701 25.6558 22.8332 25.9305C22.7868 26.0236 22.7487 26.2102 22.7487 26.3449C22.7487 26.4798 22.7049 26.5901 22.6512 26.5901C22.5976 26.5901 22.5537 26.7437 22.5537 26.9314C22.5537 27.1191 22.5098 27.2727 22.4562 27.2727C22.4025 27.2727 22.3571 27.3714 22.3553 27.4922C22.3533 27.6129 22.289 27.8213 22.2124 27.9554C22.1357 28.0895 22.0715 28.3199 22.0695 28.4674C22.0677 28.6148 22.0222 28.7355 21.9686 28.7355C21.9149 28.7355 21.8711 28.8891 21.8711 29.0769C21.8711 29.2646 21.8272 29.4182 21.7735 29.4182C21.7199 29.4182 21.676 29.5682 21.676 29.7514C21.676 29.9347 21.6431 30.0992 21.6029 30.1171C21.5133 30.1569 21.1884 31.0907 21.1884 31.3085C21.1884 31.3952 21.1445 31.4661 21.0909 31.4661C21.0373 31.4661 20.9934 31.5978 20.9934 31.7587C20.9934 31.9196 20.9495 32.0512 20.8959 32.0512C20.8422 32.0512 20.7983 32.2048 20.7983 32.3926C20.7983 32.5803 20.7545 32.7339 20.7008 32.7339C20.6472 32.7339 20.6019 32.8546 20.6002 33.0021C20.5985 33.1495 20.5327 33.3555 20.4539 33.4595C20.3752 33.5637 20.3107 33.7696 20.3107 33.917C20.3107 34.0646 20.2669 34.2123 20.2132 34.2455C20.1596 34.2786 20.1157 34.4347 20.1157 34.5925C20.1157 34.7503 20.0718 34.8793 20.0182 34.8793C19.9645 34.8793 19.9207 35.0329 19.9207 35.2207C19.9207 35.4084 19.8768 35.562 19.8231 35.562C19.7695 35.562 19.7241 35.6607 19.7222 35.7814C19.7202 35.9021 19.656 36.1105 19.5793 36.2446C19.5027 36.3787 19.4384 36.5871 19.4365 36.7079C19.4346 36.8286 19.3892 36.9273 19.3355 36.9273C19.2819 36.9273 19.238 37.0809 19.238 37.2686C19.238 37.4563 19.1941 37.6099 19.1405 37.6099C19.0869 37.6099 19.043 37.6977 19.043 37.805V38H21.8711C23.6915 38 24.6992 37.9653 24.6992 37.9025C24.6992 37.8488 24.8528 37.805 25.0405 37.805C25.2282 37.805 25.3818 37.7611 25.3818 37.7074C25.3818 37.6538 25.4385 37.6099 25.5078 37.6099C25.577 37.6099 25.7966 37.4563 25.9956 37.2686C26.1946 37.0809 26.3825 36.9273 26.413 36.9273C26.5085 36.9273 26.7471 36.6536 26.7471 36.5441C26.7471 36.4867 26.791 36.4397 26.8446 36.4397C26.8982 36.4397 26.9421 36.3519 26.9421 36.2446C26.9421 36.1374 26.986 36.0496 27.0396 36.0496C27.0933 36.0496 27.1372 35.8996 27.1372 35.7164C27.1372 35.5331 27.1701 35.3686 27.2103 35.3507C27.2999 35.3109 27.6248 34.3771 27.6248 34.1593C27.6248 34.0726 27.6687 34.0017 27.7223 34.0017C27.7759 34.0017 27.8198 33.8481 27.8198 33.6603C27.8198 33.4726 27.8637 33.319 27.9173 33.319C27.971 33.319 28.0149 33.2262 28.0149 33.1127C28.0149 32.8578 28.3293 31.917 28.4293 31.8725C28.4695 31.8545 28.5025 31.69 28.5025 31.5068C28.5025 31.3235 28.5463 31.1736 28.6 31.1736C28.6536 31.1736 28.6975 31.02 28.6975 30.8322C28.6975 30.6445 28.7414 30.4909 28.795 30.4909C28.8487 30.4909 28.8925 30.363 28.8925 30.2065C28.8925 30.05 28.9254 29.9075 28.9657 29.8895C29.0553 29.8497 29.3801 28.916 29.3801 28.6981C29.3801 28.6114 29.424 28.5405 29.4777 28.5405C29.5313 28.5405 29.5752 28.365 29.5752 28.1504C29.5752 27.9359 29.6191 27.7603 29.6727 27.7603C29.7263 27.7603 29.7717 27.6835 29.7734 27.5897C29.777 27.3922 30.1012 26.4217 30.1947 26.3282C30.2294 26.2934 30.2578 26.1407 30.2578 25.9887C30.2578 25.8368 30.3017 25.7124 30.3553 25.7124C30.409 25.7124 30.4529 25.8002 30.4529 25.9075C30.4529 26.0147 30.4967 26.1025 30.5504 26.1025C30.604 26.1025 30.6479 26.2561 30.6479 26.4438C30.6479 26.6315 30.6918 26.7851 30.7454 26.7851C30.7991 26.7851 30.8445 26.8838 30.8464 27.0046C30.8483 27.1253 30.9126 27.3337 30.9892 27.4678C31.0659 27.6019 31.1301 27.8103 31.1321 27.931C31.1339 28.0517 31.1794 28.1504 31.233 28.1504C31.2867 28.1504 31.3306 28.326 31.3306 28.5405C31.3306 28.7551 31.3744 28.9306 31.4281 28.9306C31.4817 28.9306 31.5256 29.0043 31.5256 29.0943C31.5256 29.2827 31.6833 29.81 31.8786 30.2748C31.9526 30.4509 32.0132 30.6814 32.0132 30.7868C32.0132 30.8922 32.0571 30.9785 32.1107 30.9785C32.1644 30.9785 32.2082 31.1321 32.2082 31.3198C32.2082 31.5076 32.2521 31.6612 32.3058 31.6612C32.3594 31.6612 32.4033 31.784 32.4033 31.9342C32.4033 32.0844 32.4394 32.249 32.4835 32.2999C32.5276 32.3509 32.6483 32.6669 32.7517 33.0021C32.855 33.3373 32.9725 33.6116 33.0128 33.6116C33.053 33.6116 33.0859 33.8091 33.0859 34.0504C33.0859 34.2918 33.1298 34.4893 33.1834 34.4893C33.2371 34.4893 33.281 34.5963 33.281 34.7273C33.281 34.8583 33.3248 34.9925 33.3785 35.0256C33.4321 35.0588 33.476 35.1846 33.476 35.3053C33.476 35.4259 33.5405 35.6099 33.6192 35.714C33.698 35.8181 33.7638 36.024 33.7654 36.1715C33.7672 36.3189 33.8124 36.4397 33.8661 36.4397C33.9197 36.4397 33.9636 36.5299 33.9636 36.6402C33.9636 36.9084 34.8545 37.805 35.1208 37.805C35.2353 37.805 35.3289 37.8488 35.3289 37.9025C35.3289 37.9648 36.1903 38 37.7181 38C39.246 38 40.1074 37.9648 40.1074 37.9025C40.1074 37.8488 40.2136 37.805 40.3433 37.805C40.5926 37.805 41.1785 37.5145 41.1795 37.3905C41.1798 37.3502 41.2255 37.3174 41.2809 37.3174C41.4325 37.3174 42.0261 36.6932 42.102 36.4541C42.1385 36.3388 42.2093 36.2446 42.2594 36.2446C42.3094 36.2446 42.3504 36.1569 42.3504 36.0496C42.3504 35.9423 42.3942 35.8545 42.4479 35.8545C42.5015 35.8545 42.5454 35.701 42.5454 35.5132C42.5454 35.3255 42.5893 35.1719 42.6429 35.1719C42.6966 35.1719 42.7404 35.0616 42.7404 34.9267C42.7404 34.792 42.7785 34.6054 42.8249 34.5123C42.9618 34.2377 43.1492 33.6806 43.2015 33.3922C43.2282 33.2447 43.2891 33.124 43.3366 33.124C43.3842 33.124 43.4231 32.9704 43.4231 32.7827C43.4231 32.5949 43.467 32.4413 43.5206 32.4413C43.5742 32.4413 43.6181 32.3097 43.6181 32.1488C43.6181 31.9879 43.662 31.8562 43.7157 31.8562C43.7693 31.8562 43.8132 31.7451 43.8132 31.6093C43.8132 31.4734 43.879 31.2048 43.9595 31.0123C44.0399 30.8197 44.1057 30.5798 44.1057 30.479C44.1057 30.3783 44.1496 30.2959 44.2033 30.2959C44.2569 30.2959 44.3008 30.1642 44.3008 30.0033C44.3008 29.8424 44.3447 29.7108 44.3983 29.7108C44.4519 29.7108 44.4958 29.5572 44.4958 29.3694C44.4958 29.1817 44.5306 29.0281 44.5732 29.0281C44.655 29.0281 44.9834 28.0487 44.9834 27.8052C44.9834 27.7269 45.0273 27.6628 45.0809 27.6628C45.1346 27.6628 45.1785 27.5092 45.1785 27.3215C45.1785 27.1338 45.2223 26.9802 45.276 26.9802C45.3296 26.9802 45.3735 26.8752 45.3735 26.747C45.3735 26.6188 45.4597 26.3226 45.565 26.0887L45.7566 25.6637L45.821 25.9806C45.8565 26.1549 45.9239 26.2975 45.9708 26.2975C46.0177 26.2975 46.0561 26.4511 46.0561 26.6389C46.0561 26.8266 46.1 26.9802 46.1537 26.9802C46.2073 26.9802 46.2512 27.0539 46.2512 27.1439C46.2512 27.3323 46.4089 27.8596 46.6042 28.3244C46.6782 28.5005 46.7388 28.731 46.7388 28.8364C46.7388 28.9418 46.7827 29.0281 46.8363 29.0281C46.8899 29.0281 46.9338 29.1817 46.9338 29.3694C46.9338 29.5572 46.9777 29.7108 47.0313 29.7108C47.085 29.7108 47.1289 29.8398 47.1289 29.9976C47.1289 30.1554 47.1689 30.3091 47.2179 30.3394C47.2669 30.3697 47.3366 30.5697 47.3728 30.784C47.4089 30.9982 47.4786 31.1736 47.5275 31.1736C47.5765 31.1736 47.6165 31.3272 47.6165 31.5149C47.6165 31.7026 47.6604 31.8562 47.714 31.8562C47.7676 31.8562 47.8115 32.0098 47.8115 32.1975C47.8115 32.3853 47.8554 32.5388 47.909 32.5388C47.9627 32.5388 48.0066 32.6272 48.0066 32.7353C48.0066 32.8432 48.0446 33.0078 48.091 33.101C48.2279 33.3756 48.4153 33.9326 48.4676 34.2211C48.4944 34.3685 48.5552 34.4893 48.6027 34.4893C48.6503 34.4893 48.6892 34.6429 48.6892 34.8306C48.6892 35.0183 48.7331 35.1719 48.7867 35.1719C48.8404 35.1719 48.8842 35.3255 48.8842 35.5132C48.8842 35.701 48.9281 35.8545 48.9818 35.8545C49.0354 35.8545 49.0793 35.937 49.0793 36.0377C49.0793 36.1383 49.1451 36.2753 49.2256 36.3422C49.306 36.409 49.3718 36.5035 49.3718 36.5524C49.3718 36.8494 50.6724 37.805 51.0765 37.805C51.2117 37.805 51.3223 37.8488 51.3223 37.9025C51.3223 37.9653 52.3462 38 54.1991 38H57.076V37.8161C57.076 37.7149 57.0104 37.5065 56.9303 37.3529C56.8502 37.1993 56.7844 36.9993 56.784 36.9086C56.7837 36.818 56.7395 36.7166 56.6859 36.6835C56.6322 36.6503 56.5884 36.4942 56.5884 36.3364C56.5884 36.1786 56.5445 36.0496 56.4908 36.0496C56.4372 36.0496 56.3933 35.896 56.3933 35.7083C56.3933 35.5205 56.3494 35.3669 56.2958 35.3669C56.2422 35.3669 56.1983 35.2379 56.1983 35.0801C56.1983 34.9223 56.1582 34.7686 56.1092 34.7383C56.0603 34.708 55.9907 34.5082 55.9545 34.2942C55.9183 34.0803 55.8487 33.8804 55.7997 33.8501C55.7508 33.8199 55.7107 33.6661 55.7107 33.5083C55.7107 33.3505 55.6668 33.2215 55.6132 33.2215C55.5595 33.2215 55.5156 33.0679 55.5156 32.8802C55.5156 32.6924 55.4717 32.5388 55.4181 32.5388C55.3645 32.5388 55.3206 32.468 55.3206 32.3813C55.3206 32.1634 54.9958 31.2296 54.9061 31.1898C54.8659 31.1719 54.833 31.0074 54.833 30.8241C54.833 30.6409 54.7891 30.4909 54.7355 30.4909C54.6818 30.4909 54.6379 30.3619 54.6379 30.2041C54.6379 30.0463 54.5941 29.8902 54.5404 29.857C54.4868 29.8239 54.4429 29.6677 54.4429 29.51C54.4429 29.3522 54.4018 29.2232 54.3513 29.2232C54.301 29.2232 54.2302 29.0257 54.194 28.7843C54.1579 28.5429 54.0893 28.3455 54.0417 28.3455C53.9942 28.3455 53.9553 28.2138 53.9553 28.0529C53.9553 27.892 53.9114 27.7603 53.8578 27.7603C53.8041 27.7603 53.7603 27.65 53.7603 27.5152C53.7603 27.3804 53.7222 27.1938 53.6758 27.1007C53.5389 26.8261 53.3516 26.2691 53.2992 25.9806C53.2725 25.8331 53.2116 25.7124 53.1641 25.7124C53.1165 25.7124 53.0776 25.5588 53.0776 25.3711C53.0776 25.1834 53.0337 25.0298 52.9801 25.0298C52.9265 25.0298 52.8826 24.8799 52.8826 24.6965C52.8826 24.5133 52.8497 24.3488 52.8094 24.3308C52.7094 24.2864 52.395 23.3455 52.395 23.0907C52.395 22.9772 52.3511 22.8843 52.2975 22.8843C52.2438 22.8843 52.1999 22.7307 52.1999 22.543C52.1999 22.3553 52.156 22.2017 52.1024 22.2017C52.0488 22.2017 52.0049 22.1302 52.0049 22.0428C52.0049 21.8167 51.4885 20.3066 51.3978 20.2675C51.3563 20.2496 51.3223 20.0851 51.3223 19.9018C51.3223 19.7185 51.2784 19.5686 51.2247 19.5686C51.1711 19.5686 51.1272 19.415 51.1272 19.2273C51.1272 19.0396 51.0833 18.886 51.0297 18.886C50.9761 18.886 50.9322 18.7627 50.9322 18.612C50.9322 18.4614 50.8677 18.253 50.789 18.1488C50.7102 18.0448 50.6444 17.8388 50.6427 17.6913C50.641 17.5439 50.5957 17.4232 50.5421 17.4232C50.4884 17.4232 50.4446 17.2696 50.4446 17.0818C50.4446 16.8941 50.4007 16.7405 50.347 16.7405C50.2934 16.7405 50.2488 16.6638 50.2481 16.5699C50.2452 16.239 49.7885 15.1802 49.6487 15.1802C49.6037 15.1802 49.5669 15.1344 49.5669 15.0783C49.5669 14.9459 49.1186 14.4975 48.9861 14.4975C48.9301 14.4975 48.8842 14.4537 48.8842 14.4C48.8842 14.3464 48.8001 14.3025 48.6973 14.3025C48.5945 14.3025 48.4922 14.2477 48.4699 14.1806C48.4394 14.0886 47.8492 14.0515 46.0681 14.0294L43.7069 14L43.4037 14.1513C43.237 14.2344 43.0292 14.3025 42.942 14.3025C42.8548 14.3025 42.7203 14.3903 42.6429 14.4975C42.5656 14.6048 42.4661 14.6926 42.4219 14.6926C42.3307 14.6926 41.8628 15.1411 41.8628 15.2286C41.8628 15.2601 41.775 15.3801 41.6677 15.4952C41.5604 15.6104 41.4727 15.7809 41.4727 15.8742C41.4727 15.9676 41.4069 16.1098 41.3264 16.1902C41.2459 16.2707 41.1801 16.4713 41.1801 16.6361C41.1801 16.8008 41.1362 16.9356 41.0826 16.9356C41.029 16.9356 40.9851 17.0672 40.9851 17.2281C40.9851 17.389 40.9412 17.5207 40.8876 17.5207C40.8339 17.5207 40.79 17.6743 40.79 17.862C40.79 18.0497 40.7462 18.2033 40.6925 18.2033C40.6389 18.2033 40.595 18.2896 40.595 18.3951C40.595 18.5005 40.5344 18.7309 40.4604 18.907C40.2651 19.3718 40.1074 19.8991 40.1074 20.0875C40.1074 20.1775 40.0635 20.2513 40.0099 20.2513C39.9562 20.2513 39.9124 20.4022 39.9124 20.5868C39.9124 20.7714 39.8685 20.9495 39.8148 20.9827C39.7612 21.0158 39.7173 21.1416 39.7173 21.2624C39.7173 21.383 39.6529 21.5669 39.5742 21.6711C39.4954 21.7751 39.4295 21.9811 39.4279 22.1285C39.4261 22.276 39.3809 22.3967 39.3272 22.3967C39.2736 22.3967 39.2297 22.5503 39.2297 22.738C39.2297 22.9258 39.1858 23.0794 39.1322 23.0794C39.0786 23.0794 39.0347 23.2022 39.0347 23.3524C39.0347 23.5026 38.9998 23.6672 38.9571 23.7181C38.9145 23.769 38.8005 24.0741 38.7037 24.3959C38.6068 24.7177 38.4882 25.0572 38.4398 25.1503C38.3915 25.2434 38.352 25.4519 38.352 25.6135C38.352 25.7752 38.3081 25.9075 38.2545 25.9075C38.2009 25.9075 38.157 25.9733 38.157 26.0537C38.157 26.1342 38.1131 26.2 38.0595 26.2C38.0058 26.2 37.9619 26.1291 37.9619 26.0424C37.9619 25.8246 37.6371 24.8908 37.5475 24.851C37.5073 24.8331 37.4743 24.6686 37.4743 24.4853C37.4743 24.302 37.4305 24.1521 37.3768 24.1521C37.3232 24.1521 37.2793 23.9985 37.2793 23.8108C37.2793 23.623 37.2354 23.4694 37.1818 23.4694C37.1281 23.4694 37.0843 23.3591 37.0843 23.2243C37.0843 23.0895 37.0457 22.9029 36.9986 22.8098C36.7415 22.3011 36.5967 21.8702 36.5967 21.6132C36.5967 21.4542 36.5528 21.324 36.4991 21.324C36.4455 21.324 36.4016 21.2169 36.4016 21.0859C36.4016 20.955 36.3577 20.8208 36.3041 20.7876C36.2505 20.7545 36.2066 20.6253 36.2066 20.5004C36.2066 20.3757 36.141 20.1479 36.0609 19.9942C35.9808 19.8406 35.915 19.6407 35.9146 19.55C35.9143 19.4593 35.8701 19.358 35.8165 19.3248C35.7629 19.2917 35.719 19.1355 35.719 18.9777C35.719 18.82 35.6751 18.6909 35.6215 18.6909C35.5678 18.6909 35.5239 18.5373 35.5239 18.3496C35.5239 18.1619 35.48 18.0083 35.4264 18.0083C35.3728 18.0083 35.3273 17.9096 35.3255 17.7889C35.3235 17.6681 35.2593 17.4597 35.1826 17.3256C35.106 17.1916 35.0417 16.9832 35.0397 16.8624C35.0379 16.7417 34.9924 16.643 34.9388 16.643C34.8852 16.643 34.8413 16.4675 34.8413 16.2529C34.8413 16.0384 34.7974 15.8628 34.7438 15.8628C34.6901 15.8628 34.6462 15.7754 34.6462 15.6686C34.6462 15.4962 34.4652 15.2265 34.0855 14.8328C34.0185 14.7634 33.9636 14.6595 33.9636 14.602C33.9636 14.5446 33.8794 14.4975 33.7767 14.4975C33.6739 14.4975 33.5752 14.4646 33.5572 14.4244C33.5394 14.3842 33.3587 14.2745 33.1557 14.1806L32.7867 14.0099L30.5715 14.015L28.3562 14.02L27.9661 14.1793Z" fill="#111111"/>
<path fill-rule="evenodd" clip-rule="evenodd" d="M27.9661 14.1793C27.7515 14.2669 27.5614 14.3744 27.5435 14.4181C27.5256 14.4618 27.4483 14.4975 27.3716 14.4975C27.1874 14.4975 26.2595 15.4344 26.2595 15.6203C26.2595 15.7001 26.2156 15.7653 26.162 15.7653C26.1083 15.7653 26.0644 15.875 26.0644 16.0091C26.0644 16.1432 26.0206 16.2529 25.9669 16.2529C25.9133 16.2529 25.8678 16.3516 25.866 16.4723C25.864 16.5931 25.7998 16.8015 25.7231 16.9356C25.6465 17.0697 25.5822 17.2975 25.5803 17.4418C25.5784 17.5861 25.533 17.7313 25.4793 17.7645C25.4257 17.7976 25.3818 17.9538 25.3818 18.1116C25.3818 18.2694 25.3379 18.3984 25.2843 18.3984C25.2306 18.3984 25.1868 18.552 25.1868 18.7397C25.1868 18.9274 25.1429 19.081 25.0892 19.081C25.0356 19.081 24.9902 19.1797 24.9883 19.3004C24.9864 19.4212 24.9221 19.6296 24.8454 19.7637C24.7688 19.8977 24.7045 20.1062 24.7026 20.2269C24.7007 20.3476 24.6553 20.4463 24.6016 20.4463C24.548 20.4463 24.5041 20.5999 24.5041 20.7876C24.5041 20.9754 24.4602 21.1289 24.4066 21.1289C24.353 21.1289 24.3091 21.2533 24.3091 21.4052C24.3091 21.5573 24.2807 21.71 24.246 21.7447C24.1403 21.8504 23.828 22.8213 23.8247 23.055C23.8229 23.1757 23.7776 23.2744 23.724 23.2744C23.6703 23.2744 23.6264 23.428 23.6264 23.6157C23.6264 23.8034 23.5825 23.957 23.5289 23.957C23.4753 23.957 23.4314 24.0887 23.4314 24.2496C23.4314 24.4105 23.3925 24.5422 23.3449 24.5422C23.2974 24.5422 23.2365 24.6629 23.2098 24.8103C23.1575 25.0988 22.9701 25.6558 22.8332 25.9305C22.7868 26.0236 22.7487 26.2102 22.7487 26.3449C22.7487 26.4798 22.7049 26.5901 22.6512 26.5901C22.5976 26.5901 22.5537 26.7437 22.5537 26.9314C22.5537 27.1191 22.5098 27.2727 22.4562 27.2727C22.4025 27.2727 22.3571 27.3714 22.3553 27.4922C22.3533 27.6129 22.289 27.8213 22.2124 27.9554C22.1357 28.0895 22.0715 28.3199 22.0695 28.4674C22.0677 28.6148 22.0222 28.7355 21.9686 28.7355C21.9149 28.7355 21.8711 28.8891 21.8711 29.0769C21.8711 29.2646 21.8272 29.4182 21.7735 29.4182C21.7199 29.4182 21.676 29.5682 21.676 29.7514C21.676 29.9347 21.6431 30.0992 21.6029 30.1171C21.5133 30.1569 21.1884 31.0907 21.1884 31.3085C21.1884 31.3952 21.1445 31.4661 21.0909 31.4661C21.0373 31.4661 20.9934 31.5978 20.9934 31.7587C20.9934 31.9196 20.9495 32.0512 20.8959 32.0512C20.8422 32.0512 20.7983 32.2048 20.7983 32.3926C20.7983 32.5803 20.7545 32.7339 20.7008 32.7339C20.6472 32.7339 20.6019 32.8546 20.6002 33.0021C20.5985 33.1495 20.5327 33.3555 20.4539 33.4595C20.3752 33.5637 20.3107 33.7696 20.3107 33.917C20.3107 34.0646 20.2669 34.2123 20.2132 34.2455C20.1596 34.2786 20.1157 34.4347 20.1157 34.5925C20.1157 34.7503 20.0718 34.8793 20.0182 34.8793C19.9645 34.8793 19.9207 35.0329 19.9207 35.2207C19.9207 35.4084 19.8768 35.562 19.8231 35.562C19.7695 35.562 19.7241 35.6607 19.7222 35.7814C19.7202 35.9021 19.656 36.1105 19.5793 36.2446C19.5027 36.3787 19.4384 36.5871 19.4365 36.7079C19.4346 36.8286 19.3892 36.9273 19.3355 36.9273C19.2819 36.9273 19.238 37.0809 19.238 37.2686C19.238 37.4563 19.1941 37.6099 19.1405 37.6099C19.0869 37.6099 19.043 37.6977 19.043 37.805V38H21.8711C23.6915 38 24.6992 37.9653 24.6992 37.9025C24.6992 37.8488 24.8528 37.805 25.0405 37.805C25.2282 37.805 25.3818 37.7611 25.3818 37.7074C25.3818 37.6538 25.4385 37.6099 25.5078 37.6099C25.577 37.6099 25.7966 37.4563 25.9956 37.2686C26.1946 37.0809 26.3825 36.9273 26.413 36.9273C26.5085 36.9273 26.7471 36.6536 26.7471 36.5441C26.7471 36.4867 26.791 36.4397 26.8446 36.4397C26.8982 36.4397 26.9421 36.3519 26.9421 36.2446C26.9421 36.1374 26.986 36.0496 27.0396 36.0496C27.0933 36.0496 27.1372 35.8996 27.1372 35.7164C27.1372 35.5331 27.1701 35.3686 27.2103 35.3507C27.2999 35.3109 27.6248 34.3771 27.6248 34.1593C27.6248 34.0726 27.6687 34.0017 27.7223 34.0017C27.7759 34.0017 27.8198 33.8481 27.8198 33.6603C27.8198 33.4726 27.8637 33.319 27.9173 33.319C27.971 33.319 28.0149 33.2262 28.0149 33.1127C28.0149 32.8578 28.3293 31.917 28.4293 31.8725C28.4695 31.8545 28.5025 31.69 28.5025 31.5068C28.5025 31.3235 28.5463 31.1736 28.6 31.1736C28.6536 31.1736 28.6975 31.02 28.6975 30.8322C28.6975 30.6445 28.7414 30.4909 28.795 30.4909C28.8487 30.4909 28.8925 30.363 28.8925 30.2065C28.8925 30.05 28.9254 29.9075 28.9657 29.8895C29.0553 29.8497 29.3801 28.916 29.3801 28.6981C29.3801 28.6114 29.424 28.5405 29.4777 28.5405C29.5313 28.5405 29.5752 28.365 29.5752 28.1504C29.5752 27.9359 29.6191 27.7603 29.6727 27.7603C29.7263 27.7603 29.7717 27.6835 29.7734 27.5897C29.777 27.3922 30.1012 26.4217 30.1947 26.3282C30.2294 26.2934 30.2578 26.1407 30.2578 25.9887C30.2578 25.8368 30.3017 25.7124 30.3553 25.7124C30.409 25.7124 30.4529 25.8002 30.4529 25.9075C30.4529 26.0147 30.4967 26.1025 30.5504 26.1025C30.604 26.1025 30.6479 26.2561 30.6479 26.4438C30.6479 26.6315 30.6918 26.7851 30.7454 26.7851C30.7991 26.7851 30.8445 26.8838 30.8464 27.0046C30.8483 27.1253 30.9126 27.3337 30.9892 27.4678C31.0659 27.6019 31.1301 27.8103 31.1321 27.931C31.1339 28.0517 31.1794 28.1504 31.233 28.1504C31.2867 28.1504 31.3306 28.326 31.3306 28.5405C31.3306 28.7551 31.3744 28.9306 31.4281 28.9306C31.4817 28.9306 31.5256 29.0043 31.5256 29.0943C31.5256 29.2827 31.6833 29.81 31.8786 30.2748C31.9526 30.4509 32.0132 30.6814 32.0132 30.7868C32.0132 30.8922 32.0571 30.9785 32.1107 30.9785C32.1644 30.9785 32.2082 31.1321 32.2082 31.3198C32.2082 31.5076 32.2521 31.6612 32.3058 31.6612C32.3594 31.6612 32.4033 31.784 32.4033 31.9342C32.4033 32.0844 32.4394 32.249 32.4835 32.2999C32.5276 32.3509 32.6483 32.6669 32.7517 33.0021C32.855 33.3373 32.9725 33.6116 33.0128 33.6116C33.053 33.6116 33.0859 33.8091 33.0859 34.0504C33.0859 34.2918 33.1298 34.4893 33.1834 34.4893C33.2371 34.4893 33.281 34.5963 33.281 34.7273C33.281 34.8583 33.3248 34.9925 33.3785 35.0256C33.4321 35.0588 33.476 35.1846 33.476 35.3053C33.476 35.4259 33.5405 35.6099 33.6192 35.714C33.698 35.8181 33.7638 36.024 33.7654 36.1715C33.7672 36.3189 33.8124 36.4397 33.8661 36.4397C33.9197 36.4397 33.9636 36.5299 33.9636 36.6402C33.9636 36.9084 34.8545 37.805 35.1208 37.805C35.2353 37.805 35.3289 37.8488 35.3289 37.9025C35.3289 37.9648 36.1903 38 37.7181 38C39.246 38 40.1074 37.9648 40.1074 37.9025C40.1074 37.8488 40.2136 37.805 40.3433 37.805C40.5926 37.805 41.1785 37.5145 41.1795 37.3905C41.1798 37.3502 41.2255 37.3174 41.2809 37.3174C41.4325 37.3174 42.0261 36.6932 42.102 36.4541C42.1385 36.3388 42.2093 36.2446 42.2594 36.2446C42.3094 36.2446 42.3504 36.1569 42.3504 36.0496C42.3504 35.9423 42.3942 35.8545 42.4479 35.8545C42.5015 35.8545 42.5454 35.701 42.5454 35.5132C42.5454 35.3255 42.5893 35.1719 42.6429 35.1719C42.6966 35.1719 42.7404 35.0616 42.7404 34.9267C42.7404 34.792 42.7785 34.6054 42.8249 34.5123C42.9618 34.2377 43.1492 33.6806 43.2015 33.3922C43.2282 33.2447 43.2891 33.124 43.3366 33.124C43.3842 33.124 43.4231 32.9704 43.4231 32.7827C43.4231 32.5949 43.467 32.4413 43.5206 32.4413C43.5742 32.4413 43.6181 32.3097 43.6181 32.1488C43.6181 31.9879 43.662 31.8562 43.7157 31.8562C43.7693 31.8562 43.8132 31.7451 43.8132 31.6093C43.8132 31.4734 43.879 31.2048 43.9595 31.0123C44.0399 30.8197 44.1057 30.5798 44.1057 30.479C44.1057 30.3783 44.1496 30.2959 44.2033 30.2959C44.2569 30.2959 44.3008 30.1642 44.3008 30.0033C44.3008 29.8424 44.3447 29.7108 44.3983 29.7108C44.4519 29.7108 44.4958 29.5572 44.4958 29.3694C44.4958 29.1817 44.5306 29.0281 44.5732 29.0281C44.655 29.0281 44.9834 28.0487 44.9834 27.8052C44.9834 27.7269 45.0273 27.6628 45.0809 27.6628C45.1346 27.6628 45.1785 27.5092 45.1785 27.3215C45.1785 27.1338 45.2223 26.9802 45.276 26.9802C45.3296 26.9802 45.3735 26.8752 45.3735 26.747C45.3735 26.6188 45.4597 26.3226 45.565 26.0887L45.7566 25.6637L45.821 25.9806C45.8565 26.1549 45.9239 26.2975 45.9708 26.2975C46.0177 26.2975 46.0561 26.4511 46.0561 26.6389C46.0561 26.8266 46.1 26.9802 46.1537 26.9802C46.2073 26.9802 46.2512 27.0539 46.2512 27.1439C46.2512 27.3323 46.4089 27.8596 46.6042 28.3244C46.6782 28.5005 46.7388 28.731 46.7388 28.8364C46.7388 28.9418 46.7827 29.0281 46.8363 29.0281C46.8899 29.0281 46.9338 29.1817 46.9338 29.3694C46.9338 29.5572 46.9777 29.7108 47.0313 29.7108C47.085 29.7108 47.1289 29.8398 47.1289 29.9976C47.1289 30.1554 47.1689 30.3091 47.2179 30.3394C47.2669 30.3697 47.3366 30.5697 47.3728 30.784C47.4089 30.9982 47.4786 31.1736 47.5275 31.1736C47.5765 31.1736 47.6165 31.3272 47.6165 31.5149C47.6165 31.7026 47.6604 31.8562 47.714 31.8562C47.7676 31.8562 47.8115 32.0098 47.8115 32.1975C47.8115 32.3853 47.8554 32.5388 47.909 32.5388C47.9627 32.5388 48.0066 32.6272 48.0066 32.7353C48.0066 32.8432 48.0446 33.0078 48.091 33.101C48.2279 33.3756 48.4153 33.9326 48.4676 34.2211C48.4944 34.3685 48.5552 34.4893 48.6027 34.4893C48.6503 34.4893 48.6892 34.6429 48.6892 34.8306C48.6892 35.0183 48.7331 35.1719 48.7867 35.1719C48.8404 35.1719 48.8842 35.3255 48.8842 35.5132C48.8842 35.701 48.9281 35.8545 48.9818 35.8545C49.0354 35.8545 49.0793 35.937 49.0793 36.0377C49.0793 36.1383 49.1451 36.2753 49.2256 36.3422C49.306 36.409 49.3718 36.5035 49.3718 36.5524C49.3718 36.8494 50.6724 37.805 51.0765 37.805C51.2117 37.805 51.3223 37.8488 51.3223 37.9025C51.3223 37.9653 52.3462 38 54.1991 38H57.076V37.8161C57.076 37.7149 57.0104 37.5065 56.9303 37.3529C56.8502 37.1993 56.7844 36.9993 56.784 36.9086C56.7837 36.818 56.7395 36.7166 56.6859 36.6835C56.6322 36.6503 56.5884 36.4942 56.5884 36.3364C56.5884 36.1786 56.5445 36.0496 56.4908 36.0496C56.4372 36.0496 56.3933 35.896 56.3933 35.7083C56.3933 35.5205 56.3494 35.3669 56.2958 35.3669C56.2422 35.3669 56.1983 35.2379 56.1983 35.0801C56.1983 34.9223 56.1582 34.7686 56.1092 34.7383C56.0603 34.708 55.9907 34.5082 55.9545 34.2942C55.9183 34.0803 55.8487 33.8804 55.7997 33.8501C55.7508 33.8199 55.7107 33.6661 55.7107 33.5083C55.7107 33.3505 55.6668 33.2215 55.6132 33.2215C55.5595 33.2215 55.5156 33.0679 55.5156 32.8802C55.5156 32.6924 55.4717 32.5388 55.4181 32.5388C55.3645 32.5388 55.3206 32.468 55.3206 32.3813C55.3206 32.1634 54.9958 31.2296 54.9061 31.1898C54.8659 31.1719 54.833 31.0074 54.833 30.8241C54.833 30.6409 54.7891 30.4909 54.7355 30.4909C54.6818 30.4909 54.6379 30.3619 54.6379 30.2041C54.6379 30.0463 54.5941 29.8902 54.5404 29.857C54.4868 29.8239 54.4429 29.6677 54.4429 29.51C54.4429 29.3522 54.4018 29.2232 54.3513 29.2232C54.301 29.2232 54.2302 29.0257 54.194 28.7843C54.1579 28.5429 54.0893 28.3455 54.0417 28.3455C53.9942 28.3455 53.9553 28.2138 53.9553 28.0529C53.9553 27.892 53.9114 27.7603 53.8578 27.7603C53.8041 27.7603 53.7603 27.65 53.7603 27.5152C53.7603 27.3804 53.7222 27.1938 53.6758 27.1007C53.5389 26.8261 53.3516 26.2691 53.2992 25.9806C53.2725 25.8331 53.2116 25.7124 53.1641 25.7124C53.1165 25.7124 53.0776 25.5588 53.0776 25.3711C53.0776 25.1834 53.0337 25.0298 52.9801 25.0298C52.9265 25.0298 52.8826 24.8799 52.8826 24.6965C52.8826 24.5133 52.8497 24.3488 52.8094 24.3308C52.7094 24.2864 52.395 23.3455 52.395 23.0907C52.395 22.9772 52.3511 22.8843 52.2975 22.8843C52.2438 22.8843 52.1999 22.7307 52.1999 22.543C52.1999 22.3553 52.156 22.2017 52.1024 22.2017C52.0488 22.2017 52.0049 22.1302 52.0049 22.0428C52.0049 21.8167 51.4885 20.3066 51.3978 20.2675C51.3563 20.2496 51.3223 20.0851 51.3223 19.9018C51.3223 19.7185 51.2784 19.5686 51.2247 19.5686C51.1711 19.5686 51.1272 19.415 51.1272 19.2273C51.1272 19.0396 51.0833 18.886 51.0297 18.886C50.9761 18.886 50.9322 18.7627 50.9322 18.612C50.9322 18.4614 50.8677 18.253 50.789 18.1488C50.7102 18.0448 50.6444 17.8388 50.6427 17.6913C50.641 17.5439 50.5957 17.4232 50.5421 17.4232C50.4884 17.4232 50.4446 17.2696 50.4446 17.0818C50.4446 16.8941 50.4007 16.7405 50.347 16.7405C50.2934 16.7405 50.2488 16.6638 50.2481 16.5699C50.2452 16.239 49.7885 15.1802 49.6487 15.1802C49.6037 15.1802 49.5669 15.1344 49.5669 15.0783C49.5669 14.9459 49.1186 14.4975 48.9861 14.4975C48.9301 14.4975 48.8842 14.4537 48.8842 14.4C48.8842 14.3464 48.8001 14.3025 48.6973 14.3025C48.5945 14.3025 48.4922 14.2477 48.4699 14.1806C48.4394 14.0886 47.8492 14.0515 46.0681 14.0294L43.7069 14L43.4037 14.1513C43.237 14.2344 43.0292 14.3025 42.942 14.3025C42.8548 14.3025 42.7203 14.3903 42.6429 14.4975C42.5656 14.6048 42.4661 14.6926 42.4219 14.6926C42.3307 14.6926 41.8628 15.1411 41.8628 15.2286C41.8628 15.2601 41.775 15.3801 41.6677 15.4952C41.5604 15.6104 41.4727 15.7809 41.4727 15.8742C41.4727 15.9676 41.4069 16.1098 41.3264 16.1902C41.2459 16.2707 41.1801 16.4713 41.1801 16.6361C41.1801 16.8008 41.1362 16.9356 41.0826 16.9356C41.029 16.9356 40.9851 17.0672 40.9851 17.2281C40.9851 17.389 40.9412 17.5207 40.8876 17.5207C40.8339 17.5207 40.79 17.6743 40.79 17.862C40.79 18.0497 40.7462 18.2033 40.6925 18.2033C40.6389 18.2033 40.595 18.2896 40.595 18.3951C40.595 18.5005 40.5344 18.7309 40.4604 18.907C40.2651 19.3718 40.1074 19.8991 40.1074 20.0875C40.1074 20.1775 40.0635 20.2513 40.0099 20.2513C39.9562 20.2513 39.9124 20.4022 39.9124 20.5868C39.9124 20.7714 39.8685 20.9495 39.8148 20.9827C39.7612 21.0158 39.7173 21.1416 39.7173 21.2624C39.7173 21.383 39.6529 21.5669 39.5742 21.6711C39.4954 21.7751 39.4295 21.9811 39.4279 22.1285C39.4261 22.276 39.3809 22.3967 39.3272 22.3967C39.2736 22.3967 39.2297 22.5503 39.2297 22.738C39.2297 22.9258 39.1858 23.0794 39.1322 23.0794C39.0786 23.0794 39.0347 23.2022 39.0347 23.3524C39.0347 23.5026 38.9998 23.6672 38.9571 23.7181C38.9145 23.769 38.8005 24.0741 38.7037 24.3959C38.6068 24.7177 38.4882 25.0572 38.4398 25.1503C38.3915 25.2434 38.352 25.4519 38.352 25.6135C38.352 25.7752 38.3081 25.9075 38.2545 25.9075C38.2009 25.9075 38.157 25.9733 38.157 26.0537C38.157 26.1342 38.1131 26.2 38.0595 26.2C38.0058 26.2 37.9619 26.1291 37.9619 26.0424C37.9619 25.8246 37.6371 24.8908 37.5475 24.851C37.5073 24.8331 37.4743 24.6686 37.4743 24.4853C37.4743 24.302 37.4305 24.1521 37.3768 24.1521C37.3232 24.1521 37.2793 23.9985 37.2793 23.8108C37.2793 23.623 37.2354 23.4694 37.1818 23.4694C37.1281 23.4694 37.0843 23.3591 37.0843 23.2243C37.0843 23.0895 37.0457 22.9029 36.9986 22.8098C36.7415 22.3011 36.5967 21.8702 36.5967 21.6132C36.5967 21.4542 36.5528 21.324 36.4991 21.324C36.4455 21.324 36.4016 21.2169 36.4016 21.0859C36.4016 20.955 36.3577 20.8208 36.3041 20.7876C36.2505 20.7545 36.2066 20.6253 36.2066 20.5004C36.2066 20.3757 36.141 20.1479 36.0609 19.9942C35.9808 19.8406 35.915 19.6407 35.9146 19.55C35.9143 19.4593 35.8701 19.358 35.8165 19.3248C35.7629 19.2917 35.719 19.1355 35.719 18.9777C35.719 18.82 35.6751 18.6909 35.6215 18.6909C35.5678 18.6909 35.5239 18.5373 35.5239 18.3496C35.5239 18.1619 35.48 18.0083 35.4264 18.0083C35.3728 18.0083 35.3273 17.9096 35.3255 17.7889C35.3235 17.6681 35.2593 17.4597 35.1826 17.3256C35.106 17.1916 35.0417 16.9832 35.0397 16.8624C35.0379 16.7417 34.9924 16.643 34.9388 16.643C34.8852 16.643 34.8413 16.4675 34.8413 16.2529C34.8413 16.0384 34.7974 15.8628 34.7438 15.8628C34.6901 15.8628 34.6462 15.7754 34.6462 15.6686C34.6462 15.4962 34.4652 15.2265 34.0855 14.8328C34.0185 14.7634 33.9636 14.6595 33.9636 14.602C33.9636 14.5446 33.8794 14.4975 33.7767 14.4975C33.6739 14.4975 33.5752 14.4646 33.5572 14.4244C33.5394 14.3842 33.3587 14.2745 33.1557 14.1806L32.7867 14.0099L30.5715 14.015L28.3562 14.02L27.9661 14.1793Z" fill="#515151"/>
<path fill-rule="evenodd" clip-rule="evenodd" d="M27.9661 14.1793C27.7515 14.2669 27.5614 14.3744 27.5435 14.4181C27.5256 14.4618 27.4483 14.4975 27.3716 14.4975C27.1874 14.4975 26.2595 15.4344 26.2595 15.6203C26.2595 15.7001 26.2156 15.7653 26.162 15.7653C26.1083 15.7653 26.0644 15.875 26.0644 16.0091C26.0644 16.1432 26.0206 16.2529 25.9669 16.2529C25.9133 16.2529 25.8678 16.3516 25.866 16.4723C25.864 16.5931 25.7998 16.8015 25.7231 16.9356C25.6465 17.0697 25.5822 17.2975 25.5803 17.4418C25.5784 17.5861 25.533 17.7313 25.4793 17.7645C25.4257 17.7976 25.3818 17.9538 25.3818 18.1116C25.3818 18.2694 25.3379 18.3984 25.2843 18.3984C25.2306 18.3984 25.1868 18.552 25.1868 18.7397C25.1868 18.9274 25.1429 19.081 25.0892 19.081C25.0356 19.081 24.9902 19.1797 24.9883 19.3004C24.9864 19.4212 24.9221 19.6296 24.8454 19.7637C24.7688 19.8977 24.7045 20.1062 24.7026 20.2269C24.7007 20.3476 24.6553 20.4463 24.6016 20.4463C24.548 20.4463 24.5041 20.5999 24.5041 20.7876C24.5041 20.9754 24.4602 21.1289 24.4066 21.1289C24.353 21.1289 24.3091 21.2533 24.3091 21.4052C24.3091 21.5573 24.2807 21.71 24.246 21.7447C24.1403 21.8504 23.828 22.8213 23.8247 23.055C23.8229 23.1757 23.7776 23.2744 23.724 23.2744C23.6703 23.2744 23.6264 23.428 23.6264 23.6157C23.6264 23.8034 23.5825 23.957 23.5289 23.957C23.4753 23.957 23.4314 24.0887 23.4314 24.2496C23.4314 24.4105 23.3925 24.5422 23.3449 24.5422C23.2974 24.5422 23.2365 24.6629 23.2098 24.8103C23.1575 25.0988 22.9701 25.6558 22.8332 25.9305C22.7868 26.0236 22.7487 26.2102 22.7487 26.3449C22.7487 26.4798 22.7049 26.5901 22.6512 26.5901C22.5976 26.5901 22.5537 26.7437 22.5537 26.9314C22.5537 27.1191 22.5098 27.2727 22.4562 27.2727C22.4025 27.2727 22.3571 27.3714 22.3553 27.4922C22.3533 27.6129 22.289 27.8213 22.2124 27.9554C22.1357 28.0895 22.0715 28.3199 22.0695 28.4674C22.0677 28.6148 22.0222 28.7355 21.9686 28.7355C21.9149 28.7355 21.8711 28.8891 21.8711 29.0769C21.8711 29.2646 21.8272 29.4182 21.7735 29.4182C21.7199 29.4182 21.676 29.5682 21.676 29.7514C21.676 29.9347 21.6431 30.0992 21.6029 30.1171C21.5133 30.1569 21.1884 31.0907 21.1884 31.3085C21.1884 31.3952 21.1445 31.4661 21.0909 31.4661C21.0373 31.4661 20.9934 31.5978 20.9934 31.7587C20.9934 31.9196 20.9495 32.0512 20.8959 32.0512C20.8422 32.0512 20.7983 32.2048 20.7983 32.3926C20.7983 32.5803 20.7545 32.7339 20.7008 32.7339C20.6472 32.7339 20.6019 32.8546 20.6002 33.0021C20.5985 33.1495 20.5327 33.3555 20.4539 33.4595C20.3752 33.5637 20.3107 33.7696 20.3107 33.917C20.3107 34.0646 20.2669 34.2123 20.2132 34.2455C20.1596 34.2786 20.1157 34.4347 20.1157 34.5925C20.1157 34.7503 20.0718 34.8793 20.0182 34.8793C19.9645 34.8793 19.9207 35.0329 19.9207 35.2207C19.9207 35.4084 19.8768 35.562 19.8231 35.562C19.7695 35.562 19.7241 35.6607 19.7222 35.7814C19.7202 35.9021 19.656 36.1105 19.5793 36.2446C19.5027 36.3787 19.4384 36.5871 19.4365 36.7079C19.4346 36.8286 19.3892 36.9273 19.3355 36.9273C19.2819 36.9273 19.238 37.0809 19.238 37.2686C19.238 37.4563 19.1941 37.6099 19.1405 37.6099C19.0869 37.6099 19.043 37.6977 19.043 37.805V38H21.8711C23.6915 38 24.6992 37.9653 24.6992 37.9025C24.6992 37.8488 24.8528 37.805 25.0405 37.805C25.2282 37.805 25.3818 37.7611 25.3818 37.7074C25.3818 37.6538 25.4385 37.6099 25.5078 37.6099C25.577 37.6099 25.7966 37.4563 25.9956 37.2686C26.1946 37.0809 26.3825 36.9273 26.413 36.9273C26.5085 36.9273 26.7471 36.6536 26.7471 36.5441C26.7471 36.4867 26.791 36.4397 26.8446 36.4397C26.8982 36.4397 26.9421 36.3519 26.9421 36.2446C26.9421 36.1374 26.986 36.0496 27.0396 36.0496C27.0933 36.0496 27.1372 35.8996 27.1372 35.7164C27.1372 35.5331 27.1701 35.3686 27.2103 35.3507C27.2999 35.3109 27.6248 34.3771 27.6248 34.1593C27.6248 34.0726 27.6687 34.0017 27.7223 34.0017C27.7759 34.0017 27.8198 33.8481 27.8198 33.6603C27.8198 33.4726 27.8637 33.319 27.9173 33.319C27.971 33.319 28.0149 33.2262 28.0149 33.1127C28.0149 32.8578 28.3293 31.917 28.4293 31.8725C28.4695 31.8545 28.5025 31.69 28.5025 31.5068C28.5025 31.3235 28.5463 31.1736 28.6 31.1736C28.6536 31.1736 28.6975 31.02 28.6975 30.8322C28.6975 30.6445 28.7414 30.4909 28.795 30.4909C28.8487 30.4909 28.8925 30.363 28.8925 30.2065C28.8925 30.05 28.9254 29.9075 28.9657 29.8895C29.0553 29.8497 29.3801 28.916 29.3801 28.6981C29.3801 28.6114 29.424 28.5405 29.4777 28.5405C29.5313 28.5405 29.5752 28.365 29.5752 28.1504C29.5752 27.9359 29.6191 27.7603 29.6727 27.7603C29.7263 27.7603 29.7717 27.6835 29.7734 27.5897C29.777 27.3922 30.1012 26.4217 30.1947 26.3282C30.2294 26.2934 30.2578 26.1407 30.2578 25.9887C30.2578 25.8368 30.3017 25.7124 30.3553 25.7124C30.409 25.7124 30.4529 25.8002 30.4529 25.9075C30.4529 26.0147 30.4967 26.1025 30.5504 26.1025C30.604 26.1025 30.6479 26.2561 30.6479 26.4438C30.6479 26.6315 30.6918 26.7851 30.7454 26.7851C30.7991 26.7851 30.8445 26.8838 30.8464 27.0046C30.8483 27.1253 30.9126 27.3337 30.9892 27.4678C31.0659 27.6019 31.1301 27.8103 31.1321 27.931C31.1339 28.0517 31.1794 28.1504 31.233 28.1504C31.2867 28.1504 31.3306 28.326 31.3306 28.5405C31.3306 28.7551 31.3744 28.9306 31.4281 28.9306C31.4817 28.9306 31.5256 29.0043 31.5256 29.0943C31.5256 29.2827 31.6833 29.81 31.8786 30.2748C31.9526 30.4509 32.0132 30.6814 32.0132 30.7868C32.0132 30.8922 32.0571 30.9785 32.1107 30.9785C32.1644 30.9785 32.2082 31.1321 32.2082 31.3198C32.2082 31.5076 32.2521 31.6612 32.3058 31.6612C32.3594 31.6612 32.4033 31.784 32.4033 31.9342C32.4033 32.0844 32.4394 32.249 32.4835 32.2999C32.5276 32.3509 32.6483 32.6669 32.7517 33.0021C32.855 33.3373 32.9725 33.6116 33.0128 33.6116C33.053 33.6116 33.0859 33.8091 33.0859 34.0504C33.0859 34.2918 33.1298 34.4893 33.1834 34.4893C33.2371 34.4893 33.281 34.5963 33.281 34.7273C33.281 34.8583 33.3248 34.9925 33.3785 35.0256C33.4321 35.0588 33.476 35.1846 33.476 35.3053C33.476 35.4259 33.5405 35.6099 33.6192 35.714C33.698 35.8181 33.7638 36.024 33.7654 36.1715C33.7672 36.3189 33.8124 36.4397 33.8661 36.4397C33.9197 36.4397 33.9636 36.5299 33.9636 36.6402C33.9636 36.9084 34.8545 37.805 35.1208 37.805C35.2353 37.805 35.3289 37.8488 35.3289 37.9025C35.3289 37.9648 36.1903 38 37.7181 38C39.246 38 40.1074 37.9648 40.1074 37.9025C40.1074 37.8488 40.2136 37.805 40.3433 37.805C40.5926 37.805 41.1785 37.5145 41.1795 37.3905C41.1798 37.3502 41.2255 37.3174 41.2809 37.3174C41.4325 37.3174 42.0261 36.6932 42.102 36.4541C42.1385 36.3388 42.2093 36.2446 42.2594 36.2446C42.3094 36.2446 42.3504 36.1569 42.3504 36.0496C42.3504 35.9423 42.3942 35.8545 42.4479 35.8545C42.5015 35.8545 42.5454 35.701 42.5454 35.5132C42.5454 35.3255 42.5893 35.1719 42.6429 35.1719C42.6966 35.1719 42.7404 35.0616 42.7404 34.9267C42.7404 34.792 42.7785 34.6054 42.8249 34.5123C42.9618 34.2377 43.1492 33.6806 43.2015 33.3922C43.2282 33.2447 43.2891 33.124 43.3366 33.124C43.3842 33.124 43.4231 32.9704 43.4231 32.7827C43.4231 32.5949 43.467 32.4413 43.5206 32.4413C43.5742 32.4413 43.6181 32.3097 43.6181 32.1488C43.6181 31.9879 43.662 31.8562 43.7157 31.8562C43.7693 31.8562 43.8132 31.7451 43.8132 31.6093C43.8132 31.4734 43.879 31.2048 43.9595 31.0123C44.0399 30.8197 44.1057 30.5798 44.1057 30.479C44.1057 30.3783 44.1496 30.2959 44.2033 30.2959C44.2569 30.2959 44.3008 30.1642 44.3008 30.0033C44.3008 29.8424 44.3447 29.7108 44.3983 29.7108C44.4519 29.7108 44.4958 29.5572 44.4958 29.3694C44.4958 29.1817 44.5306 29.0281 44.5732 29.0281C44.655 29.0281 44.9834 28.0487 44.9834 27.8052C44.9834 27.7269 45.0273 27.6628 45.0809 27.6628C45.1346 27.6628 45.1785 27.5092 45.1785 27.3215C45.1785 27.1338 45.2223 26.9802 45.276 26.9802C45.3296 26.9802 45.3735 26.8752 45.3735 26.747C45.3735 26.6188 45.4597 26.3226 45.565 26.0887L45.7566 25.6637L45.821 25.9806C45.8565 26.1549 45.9239 26.2975 45.9708 26.2975C46.0177 26.2975 46.0561 26.4511 46.0561 26.6389C46.0561 26.8266 46.1 26.9802 46.1537 26.9802C46.2073 26.9802 46.2512 27.0539 46.2512 27.1439C46.2512 27.3323 46.4089 27.8596 46.6042 28.3244C46.6782 28.5005 46.7388 28.731 46.7388 28.8364C46.7388 28.9418 46.7827 29.0281 46.8363 29.0281C46.8899 29.0281 46.9338 29.1817 46.9338 29.3694C46.9338 29.5572 46.9777 29.7108 47.0313 29.7108C47.085 29.7108 47.1289 29.8398 47.1289 29.9976C47.1289 30.1554 47.1689 30.3091 47.2179 30.3394C47.2669 30.3697 47.3366 30.5697 47.3728 30.784C47.4089 30.9982 47.4786 31.1736 47.5275 31.1736C47.5765 31.1736 47.6165 31.3272 47.6165 31.5149C47.6165 31.7026 47.6604 31.8562 47.714 31.8562C47.7676 31.8562 47.8115 32.0098 47.8115 32.1975C47.8115 32.3853 47.8554 32.5388 47.909 32.5388C47.9627 32.5388 48.0066 32.6272 48.0066 32.7353C48.0066 32.8432 48.0446 33.0078 48.091 33.101C48.2279 33.3756 48.4153 33.9326 48.4676 34.2211C48.4944 34.3685 48.5552 34.4893 48.6027 34.4893C48.6503 34.4893 48.6892 34.6429 48.6892 34.8306C48.6892 35.0183 48.7331 35.1719 48.7867 35.1719C48.8404 35.1719 48.8842 35.3255 48.8842 35.5132C48.8842 35.701 48.9281 35.8545 48.9818 35.8545C49.0354 35.8545 49.0793 35.937 49.0793 36.0377C49.0793 36.1383 49.1451 36.2753 49.2256 36.3422C49.306 36.409 49.3718 36.5035 49.3718 36.5524C49.3718 36.8494 50.6724 37.805 51.0765 37.805C51.2117 37.805 51.3223 37.8488 51.3223 37.9025C51.3223 37.9653 52.3462 38 54.1991 38H57.076V37.8161C57.076 37.7149 57.0104 37.5065 56.9303 37.3529C56.8502 37.1993 56.7844 36.9993 56.784 36.9086C56.7837 36.818 56.7395 36.7166 56.6859 36.6835C56.6322 36.6503 56.5884 36.4942 56.5884 36.3364C56.5884 36.1786 56.5445 36.0496 56.4908 36.0496C56.4372 36.0496 56.3933 35.896 56.3933 35.7083C56.3933 35.5205 56.3494 35.3669 56.2958 35.3669C56.2422 35.3669 56.1983 35.2379 56.1983 35.0801C56.1983 34.9223 56.1582 34.7686 56.1092 34.7383C56.0603 34.708 55.9907 34.5082 55.9545 34.2942C55.9183 34.0803 55.8487 33.8804 55.7997 33.8501C55.7508 33.8199 55.7107 33.6661 55.7107 33.5083C55.7107 33.3505 55.6668 33.2215 55.6132 33.2215C55.5595 33.2215 55.5156 33.0679 55.5156 32.8802C55.5156 32.6924 55.4717 32.5388 55.4181 32.5388C55.3645 32.5388 55.3206 32.468 55.3206 32.3813C55.3206 32.1634 54.9958 31.2296 54.9061 31.1898C54.8659 31.1719 54.833 31.0074 54.833 30.8241C54.833 30.6409 54.7891 30.4909 54.7355 30.4909C54.6818 30.4909 54.6379 30.3619 54.6379 30.2041C54.6379 30.0463 54.5941 29.8902 54.5404 29.857C54.4868 29.8239 54.4429 29.6677 54.4429 29.51C54.4429 29.3522 54.4018 29.2232 54.3513 29.2232C54.301 29.2232 54.2302 29.0257 54.194 28.7843C54.1579 28.5429 54.0893 28.3455 54.0417 28.3455C53.9942 28.3455 53.9553 28.2138 53.9553 28.0529C53.9553 27.892 53.9114 27.7603 53.8578 27.7603C53.8041 27.7603 53.7603 27.65 53.7603 27.5152C53.7603 27.3804 53.7222 27.1938 53.6758 27.1007C53.5389 26.8261 53.3516 26.2691 53.2992 25.9806C53.2725 25.8331 53.2116 25.7124 53.1641 25.7124C53.1165 25.7124 53.0776 25.5588 53.0776 25.3711C53.0776 25.1834 53.0337 25.0298 52.9801 25.0298C52.9265 25.0298 52.8826 24.8799 52.8826 24.6965C52.8826 24.5133 52.8497 24.3488 52.8094 24.3308C52.7094 24.2864 52.395 23.3455 52.395 23.0907C52.395 22.9772 52.3511 22.8843 52.2975 22.8843C52.2438 22.8843 52.1999 22.7307 52.1999 22.543C52.1999 22.3553 52.156 22.2017 52.1024 22.2017C52.0488 22.2017 52.0049 22.1302 52.0049 22.0428C52.0049 21.8167 51.4885 20.3066 51.3978 20.2675C51.3563 20.2496 51.3223 20.0851 51.3223 19.9018C51.3223 19.7185 51.2784 19.5686 51.2247 19.5686C51.1711 19.5686 51.1272 19.415 51.1272 19.2273C51.1272 19.0396 51.0833 18.886 51.0297 18.886C50.9761 18.886 50.9322 18.7627 50.9322 18.612C50.9322 18.4614 50.8677 18.253 50.789 18.1488C50.7102 18.0448 50.6444 17.8388 50.6427 17.6913C50.641 17.5439 50.5957 17.4232 50.5421 17.4232C50.4884 17.4232 50.4446 17.2696 50.4446 17.0818C50.4446 16.8941 50.4007 16.7405 50.347 16.7405C50.2934 16.7405 50.2488 16.6638 50.2481 16.5699C50.2452 16.239 49.7885 15.1802 49.6487 15.1802C49.6037 15.1802 49.5669 15.1344 49.5669 15.0783C49.5669 14.9459 49.1186 14.4975 48.9861 14.4975C48.9301 14.4975 48.8842 14.4537 48.8842 14.4C48.8842 14.3464 48.8001 14.3025 48.6973 14.3025C48.5945 14.3025 48.4922 14.2477 48.4699 14.1806C48.4394 14.0886 47.8492 14.0515 46.0681 14.0294L43.7069 14L43.4037 14.1513C43.237 14.2344 43.0292 14.3025 42.942 14.3025C42.8548 14.3025 42.7203 14.3903 42.6429 14.4975C42.5656 14.6048 42.4661 14.6926 42.4219 14.6926C42.3307 14.6926 41.8628 15.1411 41.8628 15.2286C41.8628 15.2601 41.775 15.3801 41.6677 15.4952C41.5604 15.6104 41.4727 15.7809 41.4727 15.8742C41.4727 15.9676 41.4069 16.1098 41.3264 16.1902C41.2459 16.2707 41.1801 16.4713 41.1801 16.6361C41.1801 16.8008 41.1362 16.9356 41.0826 16.9356C41.029 16.9356 40.9851 17.0672 40.9851 17.2281C40.9851 17.389 40.9412 17.5207 40.8876 17.5207C40.8339 17.5207 40.79 17.6743 40.79 17.862C40.79 18.0497 40.7462 18.2033 40.6925 18.2033C40.6389 18.2033 40.595 18.2896 40.595 18.3951C40.595 18.5005 40.5344 18.7309 40.4604 18.907C40.2651 19.3718 40.1074 19.8991 40.1074 20.0875C40.1074 20.1775 40.0635 20.2513 40.0099 20.2513C39.9562 20.2513 39.9124 20.4022 39.9124 20.5868C39.9124 20.7714 39.8685 20.9495 39.8148 20.9827C39.7612 21.0158 39.7173 21.1416 39.7173 21.2624C39.7173 21.383 39.6529 21.5669 39.5742 21.6711C39.4954 21.7751 39.4295 21.9811 39.4279 22.1285C39.4261 22.276 39.3809 22.3967 39.3272 22.3967C39.2736 22.3967 39.2297 22.5503 39.2297 22.738C39.2297 22.9258 39.1858 23.0794 39.1322 23.0794C39.0786 23.0794 39.0347 23.2022 39.0347 23.3524C39.0347 23.5026 38.9998 23.6672 38.9571 23.7181C38.9145 23.769 38.8005 24.0741 38.7037 24.3959C38.6068 24.7177 38.4882 25.0572 38.4398 25.1503C38.3915 25.2434 38.352 25.4519 38.352 25.6135C38.352 25.7752 38.3081 25.9075 38.2545 25.9075C38.2009 25.9075 38.157 25.9733 38.157 26.0537C38.157 26.1342 38.1131 26.2 38.0595 26.2C38.0058 26.2 37.9619 26.1291 37.9619 26.0424C37.9619 25.8246 37.6371 24.8908 37.5475 24.851C37.5073 24.8331 37.4743 24.6686 37.4743 24.4853C37.4743 24.302 37.4305 24.1521 37.3768 24.1521C37.3232 24.1521 37.2793 23.9985 37.2793 23.8108C37.2793 23.623 37.2354 23.4694 37.1818 23.4694C37.1281 23.4694 37.0843 23.3591 37.0843 23.2243C37.0843 23.0895 37.0457 22.9029 36.9986 22.8098C36.7415 22.3011 36.5967 21.8702 36.5967 21.6132C36.5967 21.4542 36.5528 21.324 36.4991 21.324C36.4455 21.324 36.4016 21.2169 36.4016 21.0859C36.4016 20.955 36.3577 20.8208 36.3041 20.7876C36.2505 20.7545 36.2066 20.6253 36.2066 20.5004C36.2066 20.3757 36.141 20.1479 36.0609 19.9942C35.9808 19.8406 35.915 19.6407 35.9146 19.55C35.9143 19.4593 35.8701 19.358 35.8165 19.3248C35.7629 19.2917 35.719 19.1355 35.719 18.9777C35.719 18.82 35.6751 18.6909 35.6215 18.6909C35.5678 18.6909 35.5239 18.5373 35.5239 18.3496C35.5239 18.1619 35.48 18.0083 35.4264 18.0083C35.3728 18.0083 35.3273 17.9096 35.3255 17.7889C35.3235 17.6681 35.2593 17.4597 35.1826 17.3256C35.106 17.1916 35.0417 16.9832 35.0397 16.8624C35.0379 16.7417 34.9924 16.643 34.9388 16.643C34.8852 16.643 34.8413 16.4675 34.8413 16.2529C34.8413 16.0384 34.7974 15.8628 34.7438 15.8628C34.6901 15.8628 34.6462 15.7754 34.6462 15.6686C34.6462 15.4962 34.4652 15.2265 34.0855 14.8328C34.0185 14.7634 33.9636 14.6595 33.9636 14.602C33.9636 14.5446 33.8794 14.4975 33.7767 14.4975C33.6739 14.4975 33.5752 14.4646 33.5572 14.4244C33.5394 14.3842 33.3587 14.2745 33.1557 14.1806L32.7867 14.0099L30.5715 14.015L28.3562 14.02L27.9661 14.1793Z" stroke="#CDCDCD" stroke-opacity="0.2" stroke-width="0.902981" mask="url(#path-1-inside-1_429_20480)"/>
<mask id="path-2-inside-2_429_20480" fill="white">
<path fill-rule="evenodd" clip-rule="evenodd" d="M116.577 18.568L114.487 18.6641L113.818 20.2015C113.451 21.0471 113.074 21.912 112.982 22.1234C112.89 22.3348 112.685 22.8104 112.526 23.1804C112.367 23.5504 112.023 24.3287 111.76 24.9101C111.498 25.4914 111.219 26.1704 111.141 26.4189C110.939 27.0595 110.882 26.9586 109.098 22.796C107.073 18.0721 107.551 18.5459 104.876 18.6102L102.635 18.6641L102.495 21.1625C102.239 25.7274 102.019 33.076 102.135 33.2119C102.252 33.3499 105.973 33.4727 106.102 33.3428C106.141 33.3028 106.237 31.6917 106.314 29.7627C106.391 27.8338 106.509 26.2554 106.575 26.2554C106.641 26.2554 107.303 27.7757 108.045 29.6342C109.612 33.5551 109.487 33.4023 111.055 33.3278L112.266 33.2701L113.007 31.4444C113.414 30.4402 113.865 29.3592 114.009 29.042C114.153 28.7249 114.427 28.0331 114.618 27.5046C114.808 26.9761 115.036 26.4616 115.125 26.3611C115.308 26.1541 115.296 26.0186 115.457 30.1952L115.576 33.2701L117.652 33.3247L119.728 33.3793L119.729 32.4599C119.73 30.7825 119.335 20.603 119.229 19.5929C119.105 18.4102 119.201 18.4473 116.577 18.568ZM166.164 18.552C165.961 18.7559 166.183 19.2692 167.552 21.7596C168.359 23.2281 169.326 24.9917 169.702 25.6788C170.077 26.3659 170.638 27.3862 170.949 27.946L171.514 28.964L171.491 30.8288C171.478 31.8545 171.474 32.8479 171.48 33.0366L171.492 33.3797L173.472 33.3249L175.452 33.2701L175.548 30.9599L175.645 28.6494L178.301 23.8014C179.761 21.1348 180.956 18.8664 180.956 18.7605C180.956 18.6435 180.121 18.568 178.829 18.568H176.702L176.366 19.1322C176.182 19.4426 175.51 20.7343 174.872 22.0027C173.472 24.7901 173.555 24.775 172.365 22.4584C171.835 21.4286 171.146 20.1372 170.834 19.5887L170.265 18.5914L168.254 18.5316C167.148 18.4988 166.207 18.508 166.164 18.552ZM67.423 18.7623C65.3021 19.2052 63.3047 20.7689 62.3212 22.7561L61.6875 24.0362V25.9625V27.8889L62.2901 29.1381C63.2236 31.0734 64.6604 32.32 66.9415 33.1736C69.9909 34.315 74.1685 32.3294 75.7469 28.9888L76.3573 27.6968L76.3621 26.1593C76.3768 21.3694 72.0563 17.7942 67.423 18.7623ZM77.3647 18.6961C77.2939 18.7665 77.2359 22.0961 77.2359 26.0953V33.3662H80.0926H82.9494L83.859 31.8176C85.1146 29.6799 85.1438 29.7385 82.7889 29.6734L80.8092 29.6186L80.7578 24.2468C80.7193 20.2432 80.6456 18.8366 80.4681 18.7244C80.1778 18.5411 77.5448 18.5168 77.3647 18.6961ZM127.454 18.745C123.169 19.428 120.312 23.9511 121.566 28.065C123.584 34.6858 132.637 35.2727 135.525 28.97L136.021 27.8889L136.027 26.0632L136.033 24.2374L135.411 22.955C133.907 19.8554 130.8 18.2116 127.454 18.745ZM137.786 19.0004C137.728 19.2381 137.704 22.5462 137.734 26.3515L137.788 33.2701H139.816H141.844L141.896 29.556C141.925 27.5132 142.024 25.87 142.116 25.9044C142.208 25.9388 143.518 27.6103 145.028 29.6186L147.773 33.2701L149.507 33.3662C150.462 33.4191 151.366 33.3931 151.517 33.3086L151.791 33.155V26.1654C151.791 22.3211 151.738 19.0392 151.674 18.872L151.557 18.568H149.549H147.542V22.4117C147.542 24.5257 147.477 26.2508 147.397 26.245C147.317 26.2392 146.296 24.9235 145.127 23.3211C143.959 21.7186 142.675 19.9936 142.274 19.4878L141.545 18.568H139.719H137.892L137.786 19.0004ZM154.198 18.8059C154.146 18.9402 154.127 22.2495 154.155 26.16L154.205 33.2701H159.807H165.408V31.5405V29.8108L162.138 29.7579C158.625 29.7011 158.446 29.6547 158.471 28.8034C158.5 27.7975 158.59 27.7644 161.227 27.7946C162.57 27.8099 163.825 27.8159 164.015 27.8076L164.361 27.7928L164.305 26.1112L164.249 24.4296L161.835 24.3825C160.507 24.3568 159.225 24.2903 158.986 24.2347L158.551 24.134V23.2775V22.4207L161.883 22.3682L165.215 22.3156V20.4898V18.6641L159.754 18.6129C155.48 18.5731 154.272 18.615 154.198 18.8059ZM89.3994 23.7089C87.8807 26.4306 86.0871 29.618 85.4136 30.7919C83.8474 33.5219 83.8053 33.3662 86.1076 33.3662H88.0259L88.3908 32.8377C88.5917 32.5469 89.4351 31.0984 90.2655 29.6186C91.096 28.1388 91.9055 26.7183 92.0649 26.4623L92.3542 25.9965L92.6263 26.3663C92.9064 26.7468 93.9059 28.5197 95.2827 31.0775C95.7146 31.88 96.1982 32.7209 96.3576 32.9461L96.6473 33.3558L98.4469 33.3866C99.4367 33.4035 100.329 33.3349 100.43 33.2344C100.657 33.0087 92.753 18.7601 92.4011 18.7601C92.269 18.7601 90.9181 20.987 89.3994 23.7089ZM70.9119 22.9782C74.6215 25.3192 71.6694 31.0994 67.6233 29.4172C63.8956 27.8674 64.9077 22.5014 68.941 22.4305L70.0137 22.4117L70.9119 22.9782ZM130.209 22.6519C132.832 24.1106 133.107 27.5048 130.729 29.0705C127.168 31.4153 123.082 26.7133 125.967 23.5899C127.007 22.4628 129.055 22.0102 130.209 22.6519Z"/>
</mask>
<path fill-rule="evenodd" clip-rule="evenodd" d="M116.577 18.568L114.487 18.6641L113.818 20.2015C113.451 21.0471 113.074 21.912 112.982 22.1234C112.89 22.3348 112.685 22.8104 112.526 23.1804C112.367 23.5504 112.023 24.3287 111.76 24.9101C111.498 25.4914 111.219 26.1704 111.141 26.4189C110.939 27.0595 110.882 26.9586 109.098 22.796C107.073 18.0721 107.551 18.5459 104.876 18.6102L102.635 18.6641L102.495 21.1625C102.239 25.7274 102.019 33.076 102.135 33.2119C102.252 33.3499 105.973 33.4727 106.102 33.3428C106.141 33.3028 106.237 31.6917 106.314 29.7627C106.391 27.8338 106.509 26.2554 106.575 26.2554C106.641 26.2554 107.303 27.7757 108.045 29.6342C109.612 33.5551 109.487 33.4023 111.055 33.3278L112.266 33.2701L113.007 31.4444C113.414 30.4402 113.865 29.3592 114.009 29.042C114.153 28.7249 114.427 28.0331 114.618 27.5046C114.808 26.9761 115.036 26.4616 115.125 26.3611C115.308 26.1541 115.296 26.0186 115.457 30.1952L115.576 33.2701L117.652 33.3247L119.728 33.3793L119.729 32.4599C119.73 30.7825 119.335 20.603 119.229 19.5929C119.105 18.4102 119.201 18.4473 116.577 18.568ZM166.164 18.552C165.961 18.7559 166.183 19.2692 167.552 21.7596C168.359 23.2281 169.326 24.9917 169.702 25.6788C170.077 26.3659 170.638 27.3862 170.949 27.946L171.514 28.964L171.491 30.8288C171.478 31.8545 171.474 32.8479 171.48 33.0366L171.492 33.3797L173.472 33.3249L175.452 33.2701L175.548 30.9599L175.645 28.6494L178.301 23.8014C179.761 21.1348 180.956 18.8664 180.956 18.7605C180.956 18.6435 180.121 18.568 178.829 18.568H176.702L176.366 19.1322C176.182 19.4426 175.51 20.7343 174.872 22.0027C173.472 24.7901 173.555 24.775 172.365 22.4584C171.835 21.4286 171.146 20.1372 170.834 19.5887L170.265 18.5914L168.254 18.5316C167.148 18.4988 166.207 18.508 166.164 18.552ZM67.423 18.7623C65.3021 19.2052 63.3047 20.7689 62.3212 22.7561L61.6875 24.0362V25.9625V27.8889L62.2901 29.1381C63.2236 31.0734 64.6604 32.32 66.9415 33.1736C69.9909 34.315 74.1685 32.3294 75.7469 28.9888L76.3573 27.6968L76.3621 26.1593C76.3768 21.3694 72.0563 17.7942 67.423 18.7623ZM77.3647 18.6961C77.2939 18.7665 77.2359 22.0961 77.2359 26.0953V33.3662H80.0926H82.9494L83.859 31.8176C85.1146 29.6799 85.1438 29.7385 82.7889 29.6734L80.8092 29.6186L80.7578 24.2468C80.7193 20.2432 80.6456 18.8366 80.4681 18.7244C80.1778 18.5411 77.5448 18.5168 77.3647 18.6961ZM127.454 18.745C123.169 19.428 120.312 23.9511 121.566 28.065C123.584 34.6858 132.637 35.2727 135.525 28.97L136.021 27.8889L136.027 26.0632L136.033 24.2374L135.411 22.955C133.907 19.8554 130.8 18.2116 127.454 18.745ZM137.786 19.0004C137.728 19.2381 137.704 22.5462 137.734 26.3515L137.788 33.2701H139.816H141.844L141.896 29.556C141.925 27.5132 142.024 25.87 142.116 25.9044C142.208 25.9388 143.518 27.6103 145.028 29.6186L147.773 33.2701L149.507 33.3662C150.462 33.4191 151.366 33.3931 151.517 33.3086L151.791 33.155V26.1654C151.791 22.3211 151.738 19.0392 151.674 18.872L151.557 18.568H149.549H147.542V22.4117C147.542 24.5257 147.477 26.2508 147.397 26.245C147.317 26.2392 146.296 24.9235 145.127 23.3211C143.959 21.7186 142.675 19.9936 142.274 19.4878L141.545 18.568H139.719H137.892L137.786 19.0004ZM154.198 18.8059C154.146 18.9402 154.127 22.2495 154.155 26.16L154.205 33.2701H159.807H165.408V31.5405V29.8108L162.138 29.7579C158.625 29.7011 158.446 29.6547 158.471 28.8034C158.5 27.7975 158.59 27.7644 161.227 27.7946C162.57 27.8099 163.825 27.8159 164.015 27.8076L164.361 27.7928L164.305 26.1112L164.249 24.4296L161.835 24.3825C160.507 24.3568 159.225 24.2903 158.986 24.2347L158.551 24.134V23.2775V22.4207L161.883 22.3682L165.215 22.3156V20.4898V18.6641L159.754 18.6129C155.48 18.5731 154.272 18.615 154.198 18.8059ZM89.3994 23.7089C87.8807 26.4306 86.0871 29.618 85.4136 30.7919C83.8474 33.5219 83.8053 33.3662 86.1076 33.3662H88.0259L88.3908 32.8377C88.5917 32.5469 89.4351 31.0984 90.2655 29.6186C91.096 28.1388 91.9055 26.7183 92.0649 26.4623L92.3542 25.9965L92.6263 26.3663C92.9064 26.7468 93.9059 28.5197 95.2827 31.0775C95.7146 31.88 96.1982 32.7209 96.3576 32.9461L96.6473 33.3558L98.4469 33.3866C99.4367 33.4035 100.329 33.3349 100.43 33.2344C100.657 33.0087 92.753 18.7601 92.4011 18.7601C92.269 18.7601 90.9181 20.987 89.3994 23.7089ZM70.9119 22.9782C74.6215 25.3192 71.6694 31.0994 67.6233 29.4172C63.8956 27.8674 64.9077 22.5014 68.941 22.4305L70.0137 22.4117L70.9119 22.9782ZM130.209 22.6519C132.832 24.1106 133.107 27.5048 130.729 29.0705C127.168 31.4153 123.082 26.7133 125.967 23.5899C127.007 22.4628 129.055 22.0102 130.209 22.6519Z" fill="#111111"/>
<path fill-rule="evenodd" clip-rule="evenodd" d="M116.577 18.568L114.487 18.6641L113.818 20.2015C113.451 21.0471 113.074 21.912 112.982 22.1234C112.89 22.3348 112.685 22.8104 112.526 23.1804C112.367 23.5504 112.023 24.3287 111.76 24.9101C111.498 25.4914 111.219 26.1704 111.141 26.4189C110.939 27.0595 110.882 26.9586 109.098 22.796C107.073 18.0721 107.551 18.5459 104.876 18.6102L102.635 18.6641L102.495 21.1625C102.239 25.7274 102.019 33.076 102.135 33.2119C102.252 33.3499 105.973 33.4727 106.102 33.3428C106.141 33.3028 106.237 31.6917 106.314 29.7627C106.391 27.8338 106.509 26.2554 106.575 26.2554C106.641 26.2554 107.303 27.7757 108.045 29.6342C109.612 33.5551 109.487 33.4023 111.055 33.3278L112.266 33.2701L113.007 31.4444C113.414 30.4402 113.865 29.3592 114.009 29.042C114.153 28.7249 114.427 28.0331 114.618 27.5046C114.808 26.9761 115.036 26.4616 115.125 26.3611C115.308 26.1541 115.296 26.0186 115.457 30.1952L115.576 33.2701L117.652 33.3247L119.728 33.3793L119.729 32.4599C119.73 30.7825 119.335 20.603 119.229 19.5929C119.105 18.4102 119.201 18.4473 116.577 18.568ZM166.164 18.552C165.961 18.7559 166.183 19.2692 167.552 21.7596C168.359 23.2281 169.326 24.9917 169.702 25.6788C170.077 26.3659 170.638 27.3862 170.949 27.946L171.514 28.964L171.491 30.8288C171.478 31.8545 171.474 32.8479 171.48 33.0366L171.492 33.3797L173.472 33.3249L175.452 33.2701L175.548 30.9599L175.645 28.6494L178.301 23.8014C179.761 21.1348 180.956 18.8664 180.956 18.7605C180.956 18.6435 180.121 18.568 178.829 18.568H176.702L176.366 19.1322C176.182 19.4426 175.51 20.7343 174.872 22.0027C173.472 24.7901 173.555 24.775 172.365 22.4584C171.835 21.4286 171.146 20.1372 170.834 19.5887L170.265 18.5914L168.254 18.5316C167.148 18.4988 166.207 18.508 166.164 18.552ZM67.423 18.7623C65.3021 19.2052 63.3047 20.7689 62.3212 22.7561L61.6875 24.0362V25.9625V27.8889L62.2901 29.1381C63.2236 31.0734 64.6604 32.32 66.9415 33.1736C69.9909 34.315 74.1685 32.3294 75.7469 28.9888L76.3573 27.6968L76.3621 26.1593C76.3768 21.3694 72.0563 17.7942 67.423 18.7623ZM77.3647 18.6961C77.2939 18.7665 77.2359 22.0961 77.2359 26.0953V33.3662H80.0926H82.9494L83.859 31.8176C85.1146 29.6799 85.1438 29.7385 82.7889 29.6734L80.8092 29.6186L80.7578 24.2468C80.7193 20.2432 80.6456 18.8366 80.4681 18.7244C80.1778 18.5411 77.5448 18.5168 77.3647 18.6961ZM127.454 18.745C123.169 19.428 120.312 23.9511 121.566 28.065C123.584 34.6858 132.637 35.2727 135.525 28.97L136.021 27.8889L136.027 26.0632L136.033 24.2374L135.411 22.955C133.907 19.8554 130.8 18.2116 127.454 18.745ZM137.786 19.0004C137.728 19.2381 137.704 22.5462 137.734 26.3515L137.788 33.2701H139.816H141.844L141.896 29.556C141.925 27.5132 142.024 25.87 142.116 25.9044C142.208 25.9388 143.518 27.6103 145.028 29.6186L147.773 33.2701L149.507 33.3662C150.462 33.4191 151.366 33.3931 151.517 33.3086L151.791 33.155V26.1654C151.791 22.3211 151.738 19.0392 151.674 18.872L151.557 18.568H149.549H147.542V22.4117C147.542 24.5257 147.477 26.2508 147.397 26.245C147.317 26.2392 146.296 24.9235 145.127 23.3211C143.959 21.7186 142.675 19.9936 142.274 19.4878L141.545 18.568H139.719H137.892L137.786 19.0004ZM154.198 18.8059C154.146 18.9402 154.127 22.2495 154.155 26.16L154.205 33.2701H159.807H165.408V31.5405V29.8108L162.138 29.7579C158.625 29.7011 158.446 29.6547 158.471 28.8034C158.5 27.7975 158.59 27.7644 161.227 27.7946C162.57 27.8099 163.825 27.8159 164.015 27.8076L164.361 27.7928L164.305 26.1112L164.249 24.4296L161.835 24.3825C160.507 24.3568 159.225 24.2903 158.986 24.2347L158.551 24.134V23.2775V22.4207L161.883 22.3682L165.215 22.3156V20.4898V18.6641L159.754 18.6129C155.48 18.5731 154.272 18.615 154.198 18.8059ZM89.3994 23.7089C87.8807 26.4306 86.0871 29.618 85.4136 30.7919C83.8474 33.5219 83.8053 33.3662 86.1076 33.3662H88.0259L88.3908 32.8377C88.5917 32.5469 89.4351 31.0984 90.2655 29.6186C91.096 28.1388 91.9055 26.7183 92.0649 26.4623L92.3542 25.9965L92.6263 26.3663C92.9064 26.7468 93.9059 28.5197 95.2827 31.0775C95.7146 31.88 96.1982 32.7209 96.3576 32.9461L96.6473 33.3558L98.4469 33.3866C99.4367 33.4035 100.329 33.3349 100.43 33.2344C100.657 33.0087 92.753 18.7601 92.4011 18.7601C92.269 18.7601 90.9181 20.987 89.3994 23.7089ZM70.9119 22.9782C74.6215 25.3192 71.6694 31.0994 67.6233 29.4172C63.8956 27.8674 64.9077 22.5014 68.941 22.4305L70.0137 22.4117L70.9119 22.9782ZM130.209 22.6519C132.832 24.1106 133.107 27.5048 130.729 29.0705C127.168 31.4153 123.082 26.7133 125.967 23.5899C127.007 22.4628 129.055 22.0102 130.209 22.6519Z" fill="#515151"/>
<path fill-rule="evenodd" clip-rule="evenodd" d="M116.577 18.568L114.487 18.6641L113.818 20.2015C113.451 21.0471 113.074 21.912 112.982 22.1234C112.89 22.3348 112.685 22.8104 112.526 23.1804C112.367 23.5504 112.023 24.3287 111.76 24.9101C111.498 25.4914 111.219 26.1704 111.141 26.4189C110.939 27.0595 110.882 26.9586 109.098 22.796C107.073 18.0721 107.551 18.5459 104.876 18.6102L102.635 18.6641L102.495 21.1625C102.239 25.7274 102.019 33.076 102.135 33.2119C102.252 33.3499 105.973 33.4727 106.102 33.3428C106.141 33.3028 106.237 31.6917 106.314 29.7627C106.391 27.8338 106.509 26.2554 106.575 26.2554C106.641 26.2554 107.303 27.7757 108.045 29.6342C109.612 33.5551 109.487 33.4023 111.055 33.3278L112.266 33.2701L113.007 31.4444C113.414 30.4402 113.865 29.3592 114.009 29.042C114.153 28.7249 114.427 28.0331 114.618 27.5046C114.808 26.9761 115.036 26.4616 115.125 26.3611C115.308 26.1541 115.296 26.0186 115.457 30.1952L115.576 33.2701L117.652 33.3247L119.728 33.3793L119.729 32.4599C119.73 30.7825 119.335 20.603 119.229 19.5929C119.105 18.4102 119.201 18.4473 116.577 18.568ZM166.164 18.552C165.961 18.7559 166.183 19.2692 167.552 21.7596C168.359 23.2281 169.326 24.9917 169.702 25.6788C170.077 26.3659 170.638 27.3862 170.949 27.946L171.514 28.964L171.491 30.8288C171.478 31.8545 171.474 32.8479 171.48 33.0366L171.492 33.3797L173.472 33.3249L175.452 33.2701L175.548 30.9599L175.645 28.6494L178.301 23.8014C179.761 21.1348 180.956 18.8664 180.956 18.7605C180.956 18.6435 180.121 18.568 178.829 18.568H176.702L176.366 19.1322C176.182 19.4426 175.51 20.7343 174.872 22.0027C173.472 24.7901 173.555 24.775 172.365 22.4584C171.835 21.4286 171.146 20.1372 170.834 19.5887L170.265 18.5914L168.254 18.5316C167.148 18.4988 166.207 18.508 166.164 18.552ZM67.423 18.7623C65.3021 19.2052 63.3047 20.7689 62.3212 22.7561L61.6875 24.0362V25.9625V27.8889L62.2901 29.1381C63.2236 31.0734 64.6604 32.32 66.9415 33.1736C69.9909 34.315 74.1685 32.3294 75.7469 28.9888L76.3573 27.6968L76.3621 26.1593C76.3768 21.3694 72.0563 17.7942 67.423 18.7623ZM77.3647 18.6961C77.2939 18.7665 77.2359 22.0961 77.2359 26.0953V33.3662H80.0926H82.9494L83.859 31.8176C85.1146 29.6799 85.1438 29.7385 82.7889 29.6734L80.8092 29.6186L80.7578 24.2468C80.7193 20.2432 80.6456 18.8366 80.4681 18.7244C80.1778 18.5411 77.5448 18.5168 77.3647 18.6961ZM127.454 18.745C123.169 19.428 120.312 23.9511 121.566 28.065C123.584 34.6858 132.637 35.2727 135.525 28.97L136.021 27.8889L136.027 26.0632L136.033 24.2374L135.411 22.955C133.907 19.8554 130.8 18.2116 127.454 18.745ZM137.786 19.0004C137.728 19.2381 137.704 22.5462 137.734 26.3515L137.788 33.2701H139.816H141.844L141.896 29.556C141.925 27.5132 142.024 25.87 142.116 25.9044C142.208 25.9388 143.518 27.6103 145.028 29.6186L147.773 33.2701L149.507 33.3662C150.462 33.4191 151.366 33.3931 151.517 33.3086L151.791 33.155V26.1654C151.791 22.3211 151.738 19.0392 151.674 18.872L151.557 18.568H149.549H147.542V22.4117C147.542 24.5257 147.477 26.2508 147.397 26.245C147.317 26.2392 146.296 24.9235 145.127 23.3211C143.959 21.7186 142.675 19.9936 142.274 19.4878L141.545 18.568H139.719H137.892L137.786 19.0004ZM154.198 18.8059C154.146 18.9402 154.127 22.2495 154.155 26.16L154.205 33.2701H159.807H165.408V31.5405V29.8108L162.138 29.7579C158.625 29.7011 158.446 29.6547 158.471 28.8034C158.5 27.7975 158.59 27.7644 161.227 27.7946C162.57 27.8099 163.825 27.8159 164.015 27.8076L164.361 27.7928L164.305 26.1112L164.249 24.4296L161.835 24.3825C160.507 24.3568 159.225 24.2903 158.986 24.2347L158.551 24.134V23.2775V22.4207L161.883 22.3682L165.215 22.3156V20.4898V18.6641L159.754 18.6129C155.48 18.5731 154.272 18.615 154.198 18.8059ZM89.3994 23.7089C87.8807 26.4306 86.0871 29.618 85.4136 30.7919C83.8474 33.5219 83.8053 33.3662 86.1076 33.3662H88.0259L88.3908 32.8377C88.5917 32.5469 89.4351 31.0984 90.2655 29.6186C91.096 28.1388 91.9055 26.7183 92.0649 26.4623L92.3542 25.9965L92.6263 26.3663C92.9064 26.7468 93.9059 28.5197 95.2827 31.0775C95.7146 31.88 96.1982 32.7209 96.3576 32.9461L96.6473 33.3558L98.4469 33.3866C99.4367 33.4035 100.329 33.3349 100.43 33.2344C100.657 33.0087 92.753 18.7601 92.4011 18.7601C92.269 18.7601 90.9181 20.987 89.3994 23.7089ZM70.9119 22.9782C74.6215 25.3192 71.6694 31.0994 67.6233 29.4172C63.8956 27.8674 64.9077 22.5014 68.941 22.4305L70.0137 22.4117L70.9119 22.9782ZM130.209 22.6519C132.832 24.1106 133.107 27.5048 130.729 29.0705C127.168 31.4153 123.082 26.7133 125.967 23.5899C127.007 22.4628 129.055 22.0102 130.209 22.6519Z" stroke="#CDCDCD" stroke-opacity="0.2" stroke-width="0.902981" mask="url(#path-2-inside-2_429_20480)"/>
</g>
<defs>
<filter id="filter0_d_429_20480" x="0.98335" y="0.455286" width="189.003" height="51.0894" filterUnits="userSpaceOnUse" color-interpolation-filters="sRGB">
<feFlood flood-opacity="0" result="BackgroundImageFix"/>
<feColorMatrix in="SourceAlpha" type="matrix" values="0 0 0 0 0 0 0 0 0 0 0 0 0 0 0 0 0 0 127 0" result="hardAlpha"/>
<feOffset dx="-4.5149"/>
<feGaussianBlur stdDeviation="6.77236"/>
<feComposite in2="hardAlpha" operator="out"/>
<feColorMatrix type="matrix" values="0 0 0 0 0 0 0 0 0 0 0 0 0 0 0 0 0 0 0.45 0"/>
<feBlend mode="normal" in2="BackgroundImageFix" result="effect1_dropShadow_429_20480"/>
<feBlend mode="normal" in="SourceGraphic" in2="effect1_dropShadow_429_20480" result="shape"/>
</filter>
</defs>
</svg>
