<svg width="266" height="63" viewBox="0 0 266 63" fill="none" xmlns="http://www.w3.org/2000/svg">
<g filter="url(#filter0_d_363_5352)">
<mask id="path-1-inside-1_363_5352" fill="white">
<path fill-rule="evenodd" clip-rule="evenodd" d="M31.6401 14.4153C31.3255 14.5438 31.0466 14.7014 31.0204 14.7654C30.9941 14.8295 30.8807 14.882 30.7683 14.882C30.4982 14.882 29.1374 16.2559 29.1374 16.5285C29.1374 16.6454 29.0731 16.7411 28.9944 16.7411C28.9158 16.7411 28.8514 16.902 28.8514 17.0986C28.8514 17.2953 28.787 17.4562 28.7084 17.4562C28.6297 17.4562 28.5631 17.6009 28.5604 17.7779C28.5575 17.955 28.4633 18.2606 28.3509 18.4572C28.2385 18.6539 28.1442 18.9879 28.1414 19.1996C28.1386 19.4112 28.072 19.6242 27.9933 19.6728C27.9147 19.7214 27.8503 19.9504 27.8503 20.1818C27.8503 20.4132 27.786 20.6024 27.7073 20.6024C27.6287 20.6024 27.5643 20.8276 27.5643 21.1029C27.5643 21.3782 27.5 21.6034 27.4213 21.6034C27.3426 21.6034 27.276 21.7482 27.2733 21.9252C27.2704 22.1023 27.1762 22.4079 27.0638 22.6045C26.9514 22.8012 26.8571 23.1068 26.8543 23.2838C26.8516 23.4609 26.7849 23.6056 26.7063 23.6056C26.6276 23.6056 26.5632 23.8308 26.5632 24.1061C26.5632 24.3814 26.4989 24.6067 26.4202 24.6067C26.3416 24.6067 26.2772 24.789 26.2772 25.0118C26.2772 25.2348 26.2356 25.4587 26.1847 25.5096C26.0297 25.6646 25.5718 27.0885 25.5669 27.4311C25.5643 27.6082 25.4978 27.7529 25.4192 27.7529C25.3405 27.7529 25.2762 27.9781 25.2762 28.2534C25.2762 28.5287 25.2118 28.7539 25.1331 28.7539C25.0545 28.7539 24.9901 28.947 24.9901 29.183C24.9901 29.4189 24.9331 29.612 24.8633 29.612C24.7936 29.612 24.7044 29.7891 24.6652 30.0053C24.5884 30.4283 24.3137 31.2452 24.1129 31.6479C24.0448 31.7845 23.9891 32.0581 23.9891 32.2557C23.9891 32.4535 23.9247 32.6152 23.8461 32.6152C23.7674 32.6152 23.703 32.8405 23.703 33.1158C23.703 33.391 23.6387 33.6163 23.56 33.6163C23.4814 33.6163 23.4147 33.761 23.412 33.9381C23.4092 34.1151 23.3149 34.4207 23.2025 34.6174C23.0901 34.814 22.9959 35.1519 22.993 35.3682C22.9903 35.5844 22.9236 35.7614 22.845 35.7614C22.7663 35.7614 22.702 35.9867 22.702 36.262C22.702 36.5373 22.6376 36.7625 22.559 36.7625C22.4803 36.7625 22.416 36.9825 22.416 37.2512C22.416 37.5199 22.3676 37.7611 22.3087 37.7875C22.1773 37.8458 21.7009 39.2151 21.7009 39.5346C21.7009 39.6617 21.6366 39.7657 21.5579 39.7657C21.4792 39.7657 21.4149 39.9588 21.4149 40.1947C21.4149 40.4307 21.3505 40.6238 21.2719 40.6238C21.1932 40.6238 21.1289 40.849 21.1289 41.1243C21.1289 41.3996 21.0645 41.6248 20.9859 41.6248C20.9072 41.6248 20.8408 41.8019 20.8383 42.0181C20.8358 42.2344 20.7393 42.5364 20.6238 42.689C20.5083 42.8417 20.4138 43.1436 20.4138 43.3598C20.4138 43.5762 20.3495 43.7929 20.2708 43.8415C20.1922 43.8901 20.1278 44.1191 20.1278 44.3505C20.1278 44.5819 20.0634 44.7711 19.9848 44.7711C19.9061 44.7711 19.8418 44.9963 19.8418 45.2716C19.8418 45.5469 19.7774 45.7721 19.6988 45.7721C19.6201 45.7721 19.5535 45.9169 19.5508 46.0939C19.5479 46.271 19.4536 46.5766 19.3412 46.7732C19.2288 46.9698 19.1346 47.2755 19.1317 47.4525C19.129 47.6296 19.0624 47.7743 18.9837 47.7743C18.9051 47.7743 18.8407 47.9995 18.8407 48.2748C18.8407 48.5501 18.7764 48.7753 18.6977 48.7753C18.619 48.7753 18.5547 48.9041 18.5547 49.0614V49.3474H22.702C25.3715 49.3474 26.8493 49.2965 26.8493 49.2044C26.8493 49.1257 27.0745 49.0614 27.3498 49.0614C27.6251 49.0614 27.8503 48.997 27.8503 48.9184C27.8503 48.8397 27.9334 48.7753 28.0351 48.7753C28.1366 48.7753 28.4586 48.5501 28.7504 48.2748C29.0423 47.9995 29.3178 47.7743 29.3625 47.7743C29.5025 47.7743 29.8525 47.373 29.8525 47.2124C29.8525 47.1282 29.9168 47.0592 29.9955 47.0592C30.0741 47.0592 30.1385 46.9305 30.1385 46.7732C30.1385 46.6159 30.2028 46.4872 30.2815 46.4872C30.3602 46.4872 30.4245 46.2672 30.4245 45.9985C30.4245 45.7298 30.4729 45.4886 30.5318 45.4622C30.6632 45.4039 31.1396 44.0346 31.1396 43.7151C31.1396 43.5879 31.2039 43.484 31.2826 43.484C31.3612 43.484 31.4256 43.2587 31.4256 42.9834C31.4256 42.7081 31.4899 42.4829 31.5686 42.4829C31.6472 42.4829 31.7116 42.3468 31.7116 42.1803C31.7116 41.8066 32.1727 40.4269 32.3194 40.3616C32.3783 40.3353 32.4267 40.0941 32.4267 39.8254C32.4267 39.5566 32.491 39.3367 32.5697 39.3367C32.6483 39.3367 32.7127 39.1114 32.7127 38.8362C32.7127 38.5609 32.777 38.3356 32.8557 38.3356C32.9343 38.3356 32.9987 38.148 32.9987 37.9185C32.9987 37.6891 33.0469 37.48 33.1059 37.4537C33.2374 37.3953 33.7137 36.026 33.7137 35.7065C33.7137 35.5794 33.7781 35.4754 33.8568 35.4754C33.9354 35.4754 33.9998 35.218 33.9998 34.9034C33.9998 34.5888 34.0641 34.3313 34.1428 34.3313C34.2214 34.3313 34.2879 34.2186 34.2905 34.0811C34.2958 33.7915 34.7712 32.3682 34.9083 32.2311C34.9592 32.1802 35.0008 31.9562 35.0008 31.7333C35.0008 31.5105 35.0652 31.3281 35.1438 31.3281C35.2225 31.3281 35.2869 31.4568 35.2869 31.6141C35.2869 31.7715 35.3512 31.9002 35.4299 31.9002C35.5085 31.9002 35.5729 32.1254 35.5729 32.4007C35.5729 32.676 35.6372 32.9012 35.7159 32.9012C35.7945 32.9012 35.8612 33.046 35.8639 33.223C35.8668 33.4001 35.961 33.7057 36.0734 33.9023C36.1858 34.0989 36.2801 34.4046 36.2829 34.5816C36.2856 34.7587 36.3523 34.9034 36.4309 34.9034C36.5096 34.9034 36.5739 35.1608 36.5739 35.4754C36.5739 35.79 36.6383 36.0475 36.717 36.0475C36.7956 36.0475 36.86 36.1556 36.86 36.2876C36.86 36.5639 37.0912 37.3371 37.3777 38.0187C37.4862 38.277 37.575 38.6149 37.575 38.7695C37.575 38.9241 37.6394 39.0507 37.718 39.0507C37.7967 39.0507 37.861 39.2759 37.861 39.5512C37.861 39.8265 37.9254 40.0517 38.004 40.0517C38.0827 40.0517 38.1471 40.2319 38.1471 40.4522C38.1471 40.6724 38.2 40.9138 38.2647 40.9885C38.3294 41.0632 38.5064 41.5266 38.658 42.0181C38.8095 42.5098 38.9818 42.9119 39.0409 42.9119C39.0998 42.9119 39.1481 43.2015 39.1481 43.5555C39.1481 43.9094 39.2125 44.199 39.2911 44.199C39.3698 44.199 39.4341 44.3561 39.4341 44.5481C39.4341 44.7402 39.4985 44.937 39.5772 44.9856C39.6558 45.0342 39.7202 45.2187 39.7202 45.3957C39.7202 45.5726 39.8147 45.8424 39.9301 45.9951C40.0457 46.1477 40.1422 46.4497 40.1446 46.666C40.1472 46.8822 40.2135 47.0592 40.2922 47.0592C40.3709 47.0592 40.4352 47.1915 40.4352 47.3533C40.4352 47.7465 41.7416 49.0614 42.1322 49.0614C42.3001 49.0614 42.4373 49.1257 42.4373 49.2044C42.4373 49.2958 43.7006 49.3474 45.9411 49.3474C48.1816 49.3474 49.4448 49.2958 49.4448 49.2044C49.4448 49.1257 49.6006 49.0614 49.7908 49.0614C50.1563 49.0614 51.0155 48.6355 51.0171 48.4536C51.0175 48.3945 51.0844 48.3463 51.1657 48.3463C51.3881 48.3463 52.2586 47.4311 52.3698 47.0804C52.4234 46.9114 52.5273 46.7732 52.6006 46.7732C52.674 46.7732 52.7341 46.6445 52.7341 46.4872C52.7341 46.3299 52.7984 46.2012 52.8771 46.2012C52.9557 46.2012 53.0201 45.9759 53.0201 45.7006C53.0201 45.4253 53.0844 45.2001 53.1631 45.2001C53.2417 45.2001 53.3061 45.0384 53.3061 44.8406C53.3061 44.6429 53.3619 44.3694 53.43 44.2328C53.6307 43.8301 53.9055 43.0132 53.9823 42.5902C54.0214 42.3739 54.1107 42.1969 54.1803 42.1969C54.2501 42.1969 54.3072 41.9716 54.3072 41.6964C54.3072 41.4211 54.3715 41.1958 54.4502 41.1958C54.5288 41.1958 54.5932 41.0028 54.5932 40.7668C54.5932 40.5308 54.6575 40.3378 54.7362 40.3378C54.8149 40.3378 54.8792 40.1749 54.8792 39.9757C54.8792 39.7764 54.9757 39.3825 55.0937 39.1002C55.2117 38.8177 55.3082 38.4659 55.3082 38.3182C55.3082 38.1704 55.3726 38.0496 55.4513 38.0496C55.5299 38.0496 55.5943 37.8565 55.5943 37.6206C55.5943 37.3846 55.6586 37.1915 55.7373 37.1915C55.8159 37.1915 55.8803 36.9663 55.8803 36.691C55.8803 36.4157 55.9313 36.1905 55.9938 36.1905C56.1137 36.1905 56.5953 34.7542 56.5953 34.3971C56.5953 34.2823 56.6597 34.1883 56.7383 34.1883C56.817 34.1883 56.8814 33.9631 56.8814 33.6878C56.8814 33.4125 56.9457 33.1873 57.0244 33.1873C57.103 33.1873 57.1674 33.0334 57.1674 32.8453C57.1674 32.6573 57.2938 32.2229 57.4482 31.88L57.7291 31.2566L57.8236 31.7214C57.8757 31.977 57.9745 32.1862 58.0433 32.1862C58.1121 32.1862 58.1684 32.4114 58.1684 32.6867C58.1684 32.962 58.2328 33.1873 58.3115 33.1873C58.3901 33.1873 58.4545 33.2954 58.4545 33.4274C58.4545 33.7037 58.6857 34.4769 58.9722 35.1585C59.0807 35.4168 59.1695 35.7547 59.1695 35.9093C59.1695 36.0639 59.2339 36.1905 59.3125 36.1905C59.3912 36.1905 59.4555 36.4157 59.4555 36.691C59.4555 36.9663 59.5199 37.1915 59.5985 37.1915C59.6772 37.1915 59.7416 37.3807 59.7416 37.6121C59.7416 37.8435 59.8003 38.069 59.8721 38.1134C59.9439 38.1579 60.0462 38.4512 60.0992 38.7654C60.1523 39.0796 60.2544 39.3367 60.3262 39.3367C60.398 39.3367 60.4566 39.5619 60.4566 39.8372C60.4566 40.1125 60.521 40.3378 60.5996 40.3378C60.6783 40.3378 60.7426 40.563 60.7426 40.8383C60.7426 41.1136 60.807 41.3388 60.8856 41.3388C60.9643 41.3388 61.0286 41.4684 61.0286 41.6269C61.0286 41.7852 61.0844 42.0266 61.1525 42.1631C61.3533 42.5659 61.628 43.3827 61.7048 43.8057C61.744 44.022 61.8332 44.199 61.9029 44.199C61.9727 44.199 62.0297 44.4243 62.0297 44.6996C62.0297 44.9749 62.0941 45.2001 62.1727 45.2001C62.2514 45.2001 62.3157 45.4253 62.3157 45.7006C62.3157 45.9759 62.3801 46.2012 62.4587 46.2012C62.5374 46.2012 62.6017 46.322 62.6017 46.4697C62.6017 46.6173 62.6983 46.8183 62.8163 46.9162C62.9342 47.0142 63.0308 47.1529 63.0308 47.2245C63.0308 47.66 64.938 49.0614 65.5306 49.0614C65.7288 49.0614 65.891 49.1257 65.891 49.2044C65.891 49.2965 67.3926 49.3474 70.1098 49.3474H74.3286V49.0777C74.3286 48.9294 74.2325 48.6238 74.1149 48.3984C73.9975 48.1731 73.901 47.88 73.9004 47.747C73.9 47.614 73.8352 47.4654 73.7565 47.4168C73.6779 47.3681 73.6135 47.1392 73.6135 46.9078C73.6135 46.6764 73.5492 46.4872 73.4705 46.4872C73.3918 46.4872 73.3275 46.2619 73.3275 45.9867C73.3275 45.7114 73.2631 45.4861 73.1845 45.4861C73.1058 45.4861 73.0415 45.2969 73.0415 45.0655C73.0415 44.8341 72.9827 44.6086 72.9109 44.5643C72.8391 44.5198 72.737 44.2268 72.684 43.913C72.6309 43.5992 72.5288 43.3062 72.457 43.2617C72.3852 43.2174 72.3264 42.9919 72.3264 42.7605C72.3264 42.5291 72.2621 42.3399 72.1834 42.3399C72.1048 42.3399 72.0404 42.1147 72.0404 41.8394C72.0404 41.5641 71.9761 41.3388 71.8974 41.3388C71.8187 41.3388 71.7544 41.2349 71.7544 41.1077C71.7544 40.7882 71.278 39.4189 71.1466 39.3606C71.0875 39.3343 71.0393 39.093 71.0393 38.8243C71.0393 38.5556 70.975 38.3356 70.8963 38.3356C70.8177 38.3356 70.7533 38.1464 70.7533 37.915C70.7533 37.6836 70.689 37.4547 70.6103 37.4061C70.5317 37.3574 70.4673 37.1285 70.4673 36.8971C70.4673 36.6657 70.4069 36.4765 70.333 36.4765C70.2592 36.4765 70.1554 36.1869 70.1023 35.8329C70.0493 35.479 69.9487 35.1894 69.879 35.1894C69.8093 35.1894 69.7522 34.9963 69.7522 34.7604C69.7522 34.5244 69.6879 34.3313 69.6092 34.3313C69.5306 34.3313 69.4662 34.1696 69.4662 33.9718C69.4662 33.7742 69.4105 33.5006 69.3424 33.364C69.1416 32.9613 68.8669 32.1444 68.7901 31.7214C68.7509 31.5052 68.6617 31.3281 68.592 31.3281C68.5222 31.3281 68.4652 31.1029 68.4652 30.8276C68.4652 30.5523 68.4008 30.3271 68.3221 30.3271C68.2435 30.3271 68.1791 30.1073 68.1791 29.8384C68.1791 29.5697 68.1309 29.3284 68.0719 29.3021C67.9252 29.2369 67.4641 27.8571 67.4641 27.4834C67.4641 27.317 67.3997 27.1808 67.3211 27.1808C67.2424 27.1808 67.1781 26.9556 67.1781 26.6803C67.1781 26.405 67.1137 26.1798 67.0351 26.1798C66.9564 26.1798 66.892 26.0749 66.892 25.9468C66.892 25.6152 66.1348 23.4007 66.0018 23.3435C65.9409 23.3171 65.891 23.0759 65.891 22.8072C65.891 22.5383 65.8266 22.3185 65.748 22.3185C65.6693 22.3185 65.605 22.0933 65.605 21.818C65.605 21.5427 65.5406 21.3174 65.4619 21.3174C65.3833 21.3174 65.3189 21.1367 65.3189 20.9157C65.3189 20.6948 65.2244 20.3892 65.109 20.2364C64.9935 20.0838 64.8969 19.7818 64.8945 19.5656C64.8919 19.3493 64.8256 19.1723 64.7469 19.1723C64.6682 19.1723 64.6039 18.947 64.6039 18.6717C64.6039 18.3965 64.5395 18.1712 64.4609 18.1712C64.3822 18.1712 64.3169 18.0587 64.3157 17.9209C64.3116 17.4357 63.6419 15.8831 63.4368 15.8831C63.3709 15.8831 63.3168 15.8158 63.3168 15.7336C63.3168 15.5394 62.6594 14.882 62.4652 14.882C62.3829 14.882 62.3157 14.8176 62.3157 14.739C62.3157 14.6603 62.1923 14.596 62.0416 14.596C61.8909 14.596 61.7408 14.5156 61.7081 14.4172C61.6633 14.2823 60.7978 14.2279 58.186 14.1954L54.7233 14.1523L54.2787 14.3742C54.0343 14.4961 53.7296 14.596 53.6017 14.596C53.4739 14.596 53.2765 14.7247 53.1631 14.882C53.0497 15.0393 52.9038 15.168 52.839 15.168C52.7052 15.168 52.019 15.8257 52.019 15.954C52.019 16.0002 51.8903 16.1762 51.733 16.345C51.5757 16.5139 51.447 16.764 51.447 16.9009C51.447 17.0377 51.3504 17.2462 51.2325 17.3642C51.1145 17.4822 51.0179 17.7764 51.0179 18.018C51.0179 18.2596 50.9536 18.4572 50.8749 18.4572C50.7963 18.4572 50.7319 18.6503 50.7319 18.8863C50.7319 19.1222 50.6676 19.3153 50.5889 19.3153C50.5103 19.3153 50.4459 19.5405 50.4459 19.8158C50.4459 20.0911 50.3816 20.3164 50.3029 20.3164C50.2242 20.3164 50.1599 20.4429 50.1599 20.5975C50.1599 20.7521 50.0711 21.09 49.9625 21.3483C49.6761 22.0299 49.4448 22.8032 49.4448 23.0795C49.4448 23.2115 49.3805 23.3196 49.3018 23.3196C49.2232 23.3196 49.1588 23.5409 49.1588 23.8117C49.1588 24.0824 49.0945 24.3435 49.0158 24.3921C48.9372 24.4408 48.8728 24.6253 48.8728 24.8023C48.8728 24.9792 48.7783 25.2489 48.6629 25.4017C48.5473 25.5542 48.4508 25.8563 48.4483 26.0725C48.4458 26.2887 48.3794 26.4658 48.3008 26.4658C48.2221 26.4658 48.1577 26.691 48.1577 26.9663C48.1577 27.2416 48.0934 27.4669 48.0147 27.4669C47.9361 27.4669 47.8717 27.6471 47.8717 27.8673C47.8717 28.0875 47.8205 28.3289 47.758 28.4036C47.6955 28.4782 47.5284 28.9256 47.3864 29.3975C47.2443 29.8694 47.0703 30.3672 46.9994 30.5038C46.9286 30.6404 46.8707 30.9461 46.8707 31.1831C46.8707 31.4202 46.8063 31.6141 46.7276 31.6141C46.649 31.6141 46.5846 31.7107 46.5846 31.8287C46.5846 31.9466 46.5203 32.0432 46.4416 32.0432C46.363 32.0432 46.2986 31.9392 46.2986 31.8121C46.2986 31.4926 45.8223 30.1233 45.6908 30.0649C45.6319 30.0386 45.5836 29.7974 45.5836 29.5286C45.5836 29.2598 45.5192 29.04 45.4406 29.04C45.3619 29.04 45.2975 28.8147 45.2975 28.5394C45.2975 28.2641 45.2332 28.0389 45.1545 28.0389C45.0759 28.0389 45.0115 27.8772 45.0115 27.6794C45.0115 27.4817 44.955 27.2082 44.886 27.0716C44.5088 26.3256 44.2965 25.6937 44.2965 25.3168C44.2965 25.0836 44.2321 24.8927 44.1535 24.8927C44.0748 24.8927 44.0105 24.7357 44.0105 24.5436C44.0105 24.3515 43.9461 24.1547 43.8674 24.1061C43.7888 24.0575 43.7244 23.868 43.7244 23.685C43.7244 23.502 43.6283 23.168 43.5108 22.9426C43.3934 22.7174 43.2968 22.4242 43.2963 22.2912C43.2958 22.1582 43.2311 22.0096 43.1524 21.961C43.0737 21.9124 43.0094 21.6834 43.0094 21.452C43.0094 21.2206 42.945 21.0314 42.8664 21.0314C42.7877 21.0314 42.7234 20.8062 42.7234 20.5309C42.7234 20.2556 42.659 20.0303 42.5804 20.0303C42.5017 20.0303 42.4351 19.8856 42.4323 19.7086C42.4295 19.5315 42.3352 19.2259 42.2228 19.0293C42.1104 18.8326 42.0162 18.527 42.0133 18.35C42.0106 18.1729 41.944 18.0282 41.8653 18.0282C41.7867 18.0282 41.7223 17.7708 41.7223 17.4562C41.7223 17.1415 41.6579 16.8841 41.5793 16.8841C41.5006 16.8841 41.4363 16.7558 41.4363 16.5992C41.4363 16.3464 41.1709 15.951 40.614 15.3736C40.5157 15.2718 40.4352 15.1195 40.4352 15.0351C40.4352 14.9509 40.3118 14.882 40.1611 14.882C40.0103 14.882 39.8656 14.8336 39.8393 14.7747C39.8131 14.7158 39.5481 14.5549 39.2505 14.4172L38.7094 14.1669L35.4608 14.1744L32.2121 14.1817L31.6401 14.4153Z"/>
</mask>
<path fill-rule="evenodd" clip-rule="evenodd" d="M31.6401 14.4153C31.3255 14.5438 31.0466 14.7014 31.0204 14.7654C30.9941 14.8295 30.8807 14.882 30.7683 14.882C30.4982 14.882 29.1374 16.2559 29.1374 16.5285C29.1374 16.6454 29.0731 16.7411 28.9944 16.7411C28.9158 16.7411 28.8514 16.902 28.8514 17.0986C28.8514 17.2953 28.787 17.4562 28.7084 17.4562C28.6297 17.4562 28.5631 17.6009 28.5604 17.7779C28.5575 17.955 28.4633 18.2606 28.3509 18.4572C28.2385 18.6539 28.1442 18.9879 28.1414 19.1996C28.1386 19.4112 28.072 19.6242 27.9933 19.6728C27.9147 19.7214 27.8503 19.9504 27.8503 20.1818C27.8503 20.4132 27.786 20.6024 27.7073 20.6024C27.6287 20.6024 27.5643 20.8276 27.5643 21.1029C27.5643 21.3782 27.5 21.6034 27.4213 21.6034C27.3426 21.6034 27.276 21.7482 27.2733 21.9252C27.2704 22.1023 27.1762 22.4079 27.0638 22.6045C26.9514 22.8012 26.8571 23.1068 26.8543 23.2838C26.8516 23.4609 26.7849 23.6056 26.7063 23.6056C26.6276 23.6056 26.5632 23.8308 26.5632 24.1061C26.5632 24.3814 26.4989 24.6067 26.4202 24.6067C26.3416 24.6067 26.2772 24.789 26.2772 25.0118C26.2772 25.2348 26.2356 25.4587 26.1847 25.5096C26.0297 25.6646 25.5718 27.0885 25.5669 27.4311C25.5643 27.6082 25.4978 27.7529 25.4192 27.7529C25.3405 27.7529 25.2762 27.9781 25.2762 28.2534C25.2762 28.5287 25.2118 28.7539 25.1331 28.7539C25.0545 28.7539 24.9901 28.947 24.9901 29.183C24.9901 29.4189 24.9331 29.612 24.8633 29.612C24.7936 29.612 24.7044 29.7891 24.6652 30.0053C24.5884 30.4283 24.3137 31.2452 24.1129 31.6479C24.0448 31.7845 23.9891 32.0581 23.9891 32.2557C23.9891 32.4535 23.9247 32.6152 23.8461 32.6152C23.7674 32.6152 23.703 32.8405 23.703 33.1158C23.703 33.391 23.6387 33.6163 23.56 33.6163C23.4814 33.6163 23.4147 33.761 23.412 33.9381C23.4092 34.1151 23.3149 34.4207 23.2025 34.6174C23.0901 34.814 22.9959 35.1519 22.993 35.3682C22.9903 35.5844 22.9236 35.7614 22.845 35.7614C22.7663 35.7614 22.702 35.9867 22.702 36.262C22.702 36.5373 22.6376 36.7625 22.559 36.7625C22.4803 36.7625 22.416 36.9825 22.416 37.2512C22.416 37.5199 22.3676 37.7611 22.3087 37.7875C22.1773 37.8458 21.7009 39.2151 21.7009 39.5346C21.7009 39.6617 21.6366 39.7657 21.5579 39.7657C21.4792 39.7657 21.4149 39.9588 21.4149 40.1947C21.4149 40.4307 21.3505 40.6238 21.2719 40.6238C21.1932 40.6238 21.1289 40.849 21.1289 41.1243C21.1289 41.3996 21.0645 41.6248 20.9859 41.6248C20.9072 41.6248 20.8408 41.8019 20.8383 42.0181C20.8358 42.2344 20.7393 42.5364 20.6238 42.689C20.5083 42.8417 20.4138 43.1436 20.4138 43.3598C20.4138 43.5762 20.3495 43.7929 20.2708 43.8415C20.1922 43.8901 20.1278 44.1191 20.1278 44.3505C20.1278 44.5819 20.0634 44.7711 19.9848 44.7711C19.9061 44.7711 19.8418 44.9963 19.8418 45.2716C19.8418 45.5469 19.7774 45.7721 19.6988 45.7721C19.6201 45.7721 19.5535 45.9169 19.5508 46.0939C19.5479 46.271 19.4536 46.5766 19.3412 46.7732C19.2288 46.9698 19.1346 47.2755 19.1317 47.4525C19.129 47.6296 19.0624 47.7743 18.9837 47.7743C18.9051 47.7743 18.8407 47.9995 18.8407 48.2748C18.8407 48.5501 18.7764 48.7753 18.6977 48.7753C18.619 48.7753 18.5547 48.9041 18.5547 49.0614V49.3474H22.702C25.3715 49.3474 26.8493 49.2965 26.8493 49.2044C26.8493 49.1257 27.0745 49.0614 27.3498 49.0614C27.6251 49.0614 27.8503 48.997 27.8503 48.9184C27.8503 48.8397 27.9334 48.7753 28.0351 48.7753C28.1366 48.7753 28.4586 48.5501 28.7504 48.2748C29.0423 47.9995 29.3178 47.7743 29.3625 47.7743C29.5025 47.7743 29.8525 47.373 29.8525 47.2124C29.8525 47.1282 29.9168 47.0592 29.9955 47.0592C30.0741 47.0592 30.1385 46.9305 30.1385 46.7732C30.1385 46.6159 30.2028 46.4872 30.2815 46.4872C30.3602 46.4872 30.4245 46.2672 30.4245 45.9985C30.4245 45.7298 30.4729 45.4886 30.5318 45.4622C30.6632 45.4039 31.1396 44.0346 31.1396 43.7151C31.1396 43.5879 31.2039 43.484 31.2826 43.484C31.3612 43.484 31.4256 43.2587 31.4256 42.9834C31.4256 42.7081 31.4899 42.4829 31.5686 42.4829C31.6472 42.4829 31.7116 42.3468 31.7116 42.1803C31.7116 41.8066 32.1727 40.4269 32.3194 40.3616C32.3783 40.3353 32.4267 40.0941 32.4267 39.8254C32.4267 39.5566 32.491 39.3367 32.5697 39.3367C32.6483 39.3367 32.7127 39.1114 32.7127 38.8362C32.7127 38.5609 32.777 38.3356 32.8557 38.3356C32.9343 38.3356 32.9987 38.148 32.9987 37.9185C32.9987 37.6891 33.0469 37.48 33.1059 37.4537C33.2374 37.3953 33.7137 36.026 33.7137 35.7065C33.7137 35.5794 33.7781 35.4754 33.8568 35.4754C33.9354 35.4754 33.9998 35.218 33.9998 34.9034C33.9998 34.5888 34.0641 34.3313 34.1428 34.3313C34.2214 34.3313 34.2879 34.2186 34.2905 34.0811C34.2958 33.7915 34.7712 32.3682 34.9083 32.2311C34.9592 32.1802 35.0008 31.9562 35.0008 31.7333C35.0008 31.5105 35.0652 31.3281 35.1438 31.3281C35.2225 31.3281 35.2869 31.4568 35.2869 31.6141C35.2869 31.7715 35.3512 31.9002 35.4299 31.9002C35.5085 31.9002 35.5729 32.1254 35.5729 32.4007C35.5729 32.676 35.6372 32.9012 35.7159 32.9012C35.7945 32.9012 35.8612 33.046 35.8639 33.223C35.8668 33.4001 35.961 33.7057 36.0734 33.9023C36.1858 34.0989 36.2801 34.4046 36.2829 34.5816C36.2856 34.7587 36.3523 34.9034 36.4309 34.9034C36.5096 34.9034 36.5739 35.1608 36.5739 35.4754C36.5739 35.79 36.6383 36.0475 36.717 36.0475C36.7956 36.0475 36.86 36.1556 36.86 36.2876C36.86 36.5639 37.0912 37.3371 37.3777 38.0187C37.4862 38.277 37.575 38.6149 37.575 38.7695C37.575 38.9241 37.6394 39.0507 37.718 39.0507C37.7967 39.0507 37.861 39.2759 37.861 39.5512C37.861 39.8265 37.9254 40.0517 38.004 40.0517C38.0827 40.0517 38.1471 40.2319 38.1471 40.4522C38.1471 40.6724 38.2 40.9138 38.2647 40.9885C38.3294 41.0632 38.5064 41.5266 38.658 42.0181C38.8095 42.5098 38.9818 42.9119 39.0409 42.9119C39.0998 42.9119 39.1481 43.2015 39.1481 43.5555C39.1481 43.9094 39.2125 44.199 39.2911 44.199C39.3698 44.199 39.4341 44.3561 39.4341 44.5481C39.4341 44.7402 39.4985 44.937 39.5772 44.9856C39.6558 45.0342 39.7202 45.2187 39.7202 45.3957C39.7202 45.5726 39.8147 45.8424 39.9301 45.9951C40.0457 46.1477 40.1422 46.4497 40.1446 46.666C40.1472 46.8822 40.2135 47.0592 40.2922 47.0592C40.3709 47.0592 40.4352 47.1915 40.4352 47.3533C40.4352 47.7465 41.7416 49.0614 42.1322 49.0614C42.3001 49.0614 42.4373 49.1257 42.4373 49.2044C42.4373 49.2958 43.7006 49.3474 45.9411 49.3474C48.1816 49.3474 49.4448 49.2958 49.4448 49.2044C49.4448 49.1257 49.6006 49.0614 49.7908 49.0614C50.1563 49.0614 51.0155 48.6355 51.0171 48.4536C51.0175 48.3945 51.0844 48.3463 51.1657 48.3463C51.3881 48.3463 52.2586 47.4311 52.3698 47.0804C52.4234 46.9114 52.5273 46.7732 52.6006 46.7732C52.674 46.7732 52.7341 46.6445 52.7341 46.4872C52.7341 46.3299 52.7984 46.2012 52.8771 46.2012C52.9557 46.2012 53.0201 45.9759 53.0201 45.7006C53.0201 45.4253 53.0844 45.2001 53.1631 45.2001C53.2417 45.2001 53.3061 45.0384 53.3061 44.8406C53.3061 44.6429 53.3619 44.3694 53.43 44.2328C53.6307 43.8301 53.9055 43.0132 53.9823 42.5902C54.0214 42.3739 54.1107 42.1969 54.1803 42.1969C54.2501 42.1969 54.3072 41.9716 54.3072 41.6964C54.3072 41.4211 54.3715 41.1958 54.4502 41.1958C54.5288 41.1958 54.5932 41.0028 54.5932 40.7668C54.5932 40.5308 54.6575 40.3378 54.7362 40.3378C54.8149 40.3378 54.8792 40.1749 54.8792 39.9757C54.8792 39.7764 54.9757 39.3825 55.0937 39.1002C55.2117 38.8177 55.3082 38.4659 55.3082 38.3182C55.3082 38.1704 55.3726 38.0496 55.4513 38.0496C55.5299 38.0496 55.5943 37.8565 55.5943 37.6206C55.5943 37.3846 55.6586 37.1915 55.7373 37.1915C55.8159 37.1915 55.8803 36.9663 55.8803 36.691C55.8803 36.4157 55.9313 36.1905 55.9938 36.1905C56.1137 36.1905 56.5953 34.7542 56.5953 34.3971C56.5953 34.2823 56.6597 34.1883 56.7383 34.1883C56.817 34.1883 56.8814 33.9631 56.8814 33.6878C56.8814 33.4125 56.9457 33.1873 57.0244 33.1873C57.103 33.1873 57.1674 33.0334 57.1674 32.8453C57.1674 32.6573 57.2938 32.2229 57.4482 31.88L57.7291 31.2566L57.8236 31.7214C57.8757 31.977 57.9745 32.1862 58.0433 32.1862C58.1121 32.1862 58.1684 32.4114 58.1684 32.6867C58.1684 32.962 58.2328 33.1873 58.3115 33.1873C58.3901 33.1873 58.4545 33.2954 58.4545 33.4274C58.4545 33.7037 58.6857 34.4769 58.9722 35.1585C59.0807 35.4168 59.1695 35.7547 59.1695 35.9093C59.1695 36.0639 59.2339 36.1905 59.3125 36.1905C59.3912 36.1905 59.4555 36.4157 59.4555 36.691C59.4555 36.9663 59.5199 37.1915 59.5985 37.1915C59.6772 37.1915 59.7416 37.3807 59.7416 37.6121C59.7416 37.8435 59.8003 38.069 59.8721 38.1134C59.9439 38.1579 60.0462 38.4512 60.0992 38.7654C60.1523 39.0796 60.2544 39.3367 60.3262 39.3367C60.398 39.3367 60.4566 39.5619 60.4566 39.8372C60.4566 40.1125 60.521 40.3378 60.5996 40.3378C60.6783 40.3378 60.7426 40.563 60.7426 40.8383C60.7426 41.1136 60.807 41.3388 60.8856 41.3388C60.9643 41.3388 61.0286 41.4684 61.0286 41.6269C61.0286 41.7852 61.0844 42.0266 61.1525 42.1631C61.3533 42.5659 61.628 43.3827 61.7048 43.8057C61.744 44.022 61.8332 44.199 61.9029 44.199C61.9727 44.199 62.0297 44.4243 62.0297 44.6996C62.0297 44.9749 62.0941 45.2001 62.1727 45.2001C62.2514 45.2001 62.3157 45.4253 62.3157 45.7006C62.3157 45.9759 62.3801 46.2012 62.4587 46.2012C62.5374 46.2012 62.6017 46.322 62.6017 46.4697C62.6017 46.6173 62.6983 46.8183 62.8163 46.9162C62.9342 47.0142 63.0308 47.1529 63.0308 47.2245C63.0308 47.66 64.938 49.0614 65.5306 49.0614C65.7288 49.0614 65.891 49.1257 65.891 49.2044C65.891 49.2965 67.3926 49.3474 70.1098 49.3474H74.3286V49.0777C74.3286 48.9294 74.2325 48.6238 74.1149 48.3984C73.9975 48.1731 73.901 47.88 73.9004 47.747C73.9 47.614 73.8352 47.4654 73.7565 47.4168C73.6779 47.3681 73.6135 47.1392 73.6135 46.9078C73.6135 46.6764 73.5492 46.4872 73.4705 46.4872C73.3918 46.4872 73.3275 46.2619 73.3275 45.9867C73.3275 45.7114 73.2631 45.4861 73.1845 45.4861C73.1058 45.4861 73.0415 45.2969 73.0415 45.0655C73.0415 44.8341 72.9827 44.6086 72.9109 44.5643C72.8391 44.5198 72.737 44.2268 72.684 43.913C72.6309 43.5992 72.5288 43.3062 72.457 43.2617C72.3852 43.2174 72.3264 42.9919 72.3264 42.7605C72.3264 42.5291 72.2621 42.3399 72.1834 42.3399C72.1048 42.3399 72.0404 42.1147 72.0404 41.8394C72.0404 41.5641 71.9761 41.3388 71.8974 41.3388C71.8187 41.3388 71.7544 41.2349 71.7544 41.1077C71.7544 40.7882 71.278 39.4189 71.1466 39.3606C71.0875 39.3343 71.0393 39.093 71.0393 38.8243C71.0393 38.5556 70.975 38.3356 70.8963 38.3356C70.8177 38.3356 70.7533 38.1464 70.7533 37.915C70.7533 37.6836 70.689 37.4547 70.6103 37.4061C70.5317 37.3574 70.4673 37.1285 70.4673 36.8971C70.4673 36.6657 70.4069 36.4765 70.333 36.4765C70.2592 36.4765 70.1554 36.1869 70.1023 35.8329C70.0493 35.479 69.9487 35.1894 69.879 35.1894C69.8093 35.1894 69.7522 34.9963 69.7522 34.7604C69.7522 34.5244 69.6879 34.3313 69.6092 34.3313C69.5306 34.3313 69.4662 34.1696 69.4662 33.9718C69.4662 33.7742 69.4105 33.5006 69.3424 33.364C69.1416 32.9613 68.8669 32.1444 68.7901 31.7214C68.7509 31.5052 68.6617 31.3281 68.592 31.3281C68.5222 31.3281 68.4652 31.1029 68.4652 30.8276C68.4652 30.5523 68.4008 30.3271 68.3221 30.3271C68.2435 30.3271 68.1791 30.1073 68.1791 29.8384C68.1791 29.5697 68.1309 29.3284 68.0719 29.3021C67.9252 29.2369 67.4641 27.8571 67.4641 27.4834C67.4641 27.317 67.3997 27.1808 67.3211 27.1808C67.2424 27.1808 67.1781 26.9556 67.1781 26.6803C67.1781 26.405 67.1137 26.1798 67.0351 26.1798C66.9564 26.1798 66.892 26.0749 66.892 25.9468C66.892 25.6152 66.1348 23.4007 66.0018 23.3435C65.9409 23.3171 65.891 23.0759 65.891 22.8072C65.891 22.5383 65.8266 22.3185 65.748 22.3185C65.6693 22.3185 65.605 22.0933 65.605 21.818C65.605 21.5427 65.5406 21.3174 65.4619 21.3174C65.3833 21.3174 65.3189 21.1367 65.3189 20.9157C65.3189 20.6948 65.2244 20.3892 65.109 20.2364C64.9935 20.0838 64.8969 19.7818 64.8945 19.5656C64.8919 19.3493 64.8256 19.1723 64.7469 19.1723C64.6682 19.1723 64.6039 18.947 64.6039 18.6717C64.6039 18.3965 64.5395 18.1712 64.4609 18.1712C64.3822 18.1712 64.3169 18.0587 64.3157 17.9209C64.3116 17.4357 63.6419 15.8831 63.4368 15.8831C63.3709 15.8831 63.3168 15.8158 63.3168 15.7336C63.3168 15.5394 62.6594 14.882 62.4652 14.882C62.3829 14.882 62.3157 14.8176 62.3157 14.739C62.3157 14.6603 62.1923 14.596 62.0416 14.596C61.8909 14.596 61.7408 14.5156 61.7081 14.4172C61.6633 14.2823 60.7978 14.2279 58.186 14.1954L54.7233 14.1523L54.2787 14.3742C54.0343 14.4961 53.7296 14.596 53.6017 14.596C53.4739 14.596 53.2765 14.7247 53.1631 14.882C53.0497 15.0393 52.9038 15.168 52.839 15.168C52.7052 15.168 52.019 15.8257 52.019 15.954C52.019 16.0002 51.8903 16.1762 51.733 16.345C51.5757 16.5139 51.447 16.764 51.447 16.9009C51.447 17.0377 51.3504 17.2462 51.2325 17.3642C51.1145 17.4822 51.0179 17.7764 51.0179 18.018C51.0179 18.2596 50.9536 18.4572 50.8749 18.4572C50.7963 18.4572 50.7319 18.6503 50.7319 18.8863C50.7319 19.1222 50.6676 19.3153 50.5889 19.3153C50.5103 19.3153 50.4459 19.5405 50.4459 19.8158C50.4459 20.0911 50.3816 20.3164 50.3029 20.3164C50.2242 20.3164 50.1599 20.4429 50.1599 20.5975C50.1599 20.7521 50.0711 21.09 49.9625 21.3483C49.6761 22.0299 49.4448 22.8032 49.4448 23.0795C49.4448 23.2115 49.3805 23.3196 49.3018 23.3196C49.2232 23.3196 49.1588 23.5409 49.1588 23.8117C49.1588 24.0824 49.0945 24.3435 49.0158 24.3921C48.9372 24.4408 48.8728 24.6253 48.8728 24.8023C48.8728 24.9792 48.7783 25.2489 48.6629 25.4017C48.5473 25.5542 48.4508 25.8563 48.4483 26.0725C48.4458 26.2887 48.3794 26.4658 48.3008 26.4658C48.2221 26.4658 48.1577 26.691 48.1577 26.9663C48.1577 27.2416 48.0934 27.4669 48.0147 27.4669C47.9361 27.4669 47.8717 27.6471 47.8717 27.8673C47.8717 28.0875 47.8205 28.3289 47.758 28.4036C47.6955 28.4782 47.5284 28.9256 47.3864 29.3975C47.2443 29.8694 47.0703 30.3672 46.9994 30.5038C46.9286 30.6404 46.8707 30.9461 46.8707 31.1831C46.8707 31.4202 46.8063 31.6141 46.7276 31.6141C46.649 31.6141 46.5846 31.7107 46.5846 31.8287C46.5846 31.9466 46.5203 32.0432 46.4416 32.0432C46.363 32.0432 46.2986 31.9392 46.2986 31.8121C46.2986 31.4926 45.8223 30.1233 45.6908 30.0649C45.6319 30.0386 45.5836 29.7974 45.5836 29.5286C45.5836 29.2598 45.5192 29.04 45.4406 29.04C45.3619 29.04 45.2975 28.8147 45.2975 28.5394C45.2975 28.2641 45.2332 28.0389 45.1545 28.0389C45.0759 28.0389 45.0115 27.8772 45.0115 27.6794C45.0115 27.4817 44.955 27.2082 44.886 27.0716C44.5088 26.3256 44.2965 25.6937 44.2965 25.3168C44.2965 25.0836 44.2321 24.8927 44.1535 24.8927C44.0748 24.8927 44.0105 24.7357 44.0105 24.5436C44.0105 24.3515 43.9461 24.1547 43.8674 24.1061C43.7888 24.0575 43.7244 23.868 43.7244 23.685C43.7244 23.502 43.6283 23.168 43.5108 22.9426C43.3934 22.7174 43.2968 22.4242 43.2963 22.2912C43.2958 22.1582 43.2311 22.0096 43.1524 21.961C43.0737 21.9124 43.0094 21.6834 43.0094 21.452C43.0094 21.2206 42.945 21.0314 42.8664 21.0314C42.7877 21.0314 42.7234 20.8062 42.7234 20.5309C42.7234 20.2556 42.659 20.0303 42.5804 20.0303C42.5017 20.0303 42.4351 19.8856 42.4323 19.7086C42.4295 19.5315 42.3352 19.2259 42.2228 19.0293C42.1104 18.8326 42.0162 18.527 42.0133 18.35C42.0106 18.1729 41.944 18.0282 41.8653 18.0282C41.7867 18.0282 41.7223 17.7708 41.7223 17.4562C41.7223 17.1415 41.6579 16.8841 41.5793 16.8841C41.5006 16.8841 41.4363 16.7558 41.4363 16.5992C41.4363 16.3464 41.1709 15.951 40.614 15.3736C40.5157 15.2718 40.4352 15.1195 40.4352 15.0351C40.4352 14.9509 40.3118 14.882 40.1611 14.882C40.0103 14.882 39.8656 14.8336 39.8393 14.7747C39.8131 14.7158 39.5481 14.5549 39.2505 14.4172L38.7094 14.1669L35.4608 14.1744L32.2121 14.1817L31.6401 14.4153Z" fill="#111111"/>
<path fill-rule="evenodd" clip-rule="evenodd" d="M31.6401 14.4153C31.3255 14.5438 31.0466 14.7014 31.0204 14.7654C30.9941 14.8295 30.8807 14.882 30.7683 14.882C30.4982 14.882 29.1374 16.2559 29.1374 16.5285C29.1374 16.6454 29.0731 16.7411 28.9944 16.7411C28.9158 16.7411 28.8514 16.902 28.8514 17.0986C28.8514 17.2953 28.787 17.4562 28.7084 17.4562C28.6297 17.4562 28.5631 17.6009 28.5604 17.7779C28.5575 17.955 28.4633 18.2606 28.3509 18.4572C28.2385 18.6539 28.1442 18.9879 28.1414 19.1996C28.1386 19.4112 28.072 19.6242 27.9933 19.6728C27.9147 19.7214 27.8503 19.9504 27.8503 20.1818C27.8503 20.4132 27.786 20.6024 27.7073 20.6024C27.6287 20.6024 27.5643 20.8276 27.5643 21.1029C27.5643 21.3782 27.5 21.6034 27.4213 21.6034C27.3426 21.6034 27.276 21.7482 27.2733 21.9252C27.2704 22.1023 27.1762 22.4079 27.0638 22.6045C26.9514 22.8012 26.8571 23.1068 26.8543 23.2838C26.8516 23.4609 26.7849 23.6056 26.7063 23.6056C26.6276 23.6056 26.5632 23.8308 26.5632 24.1061C26.5632 24.3814 26.4989 24.6067 26.4202 24.6067C26.3416 24.6067 26.2772 24.789 26.2772 25.0118C26.2772 25.2348 26.2356 25.4587 26.1847 25.5096C26.0297 25.6646 25.5718 27.0885 25.5669 27.4311C25.5643 27.6082 25.4978 27.7529 25.4192 27.7529C25.3405 27.7529 25.2762 27.9781 25.2762 28.2534C25.2762 28.5287 25.2118 28.7539 25.1331 28.7539C25.0545 28.7539 24.9901 28.947 24.9901 29.183C24.9901 29.4189 24.9331 29.612 24.8633 29.612C24.7936 29.612 24.7044 29.7891 24.6652 30.0053C24.5884 30.4283 24.3137 31.2452 24.1129 31.6479C24.0448 31.7845 23.9891 32.0581 23.9891 32.2557C23.9891 32.4535 23.9247 32.6152 23.8461 32.6152C23.7674 32.6152 23.703 32.8405 23.703 33.1158C23.703 33.391 23.6387 33.6163 23.56 33.6163C23.4814 33.6163 23.4147 33.761 23.412 33.9381C23.4092 34.1151 23.3149 34.4207 23.2025 34.6174C23.0901 34.814 22.9959 35.1519 22.993 35.3682C22.9903 35.5844 22.9236 35.7614 22.845 35.7614C22.7663 35.7614 22.702 35.9867 22.702 36.262C22.702 36.5373 22.6376 36.7625 22.559 36.7625C22.4803 36.7625 22.416 36.9825 22.416 37.2512C22.416 37.5199 22.3676 37.7611 22.3087 37.7875C22.1773 37.8458 21.7009 39.2151 21.7009 39.5346C21.7009 39.6617 21.6366 39.7657 21.5579 39.7657C21.4792 39.7657 21.4149 39.9588 21.4149 40.1947C21.4149 40.4307 21.3505 40.6238 21.2719 40.6238C21.1932 40.6238 21.1289 40.849 21.1289 41.1243C21.1289 41.3996 21.0645 41.6248 20.9859 41.6248C20.9072 41.6248 20.8408 41.8019 20.8383 42.0181C20.8358 42.2344 20.7393 42.5364 20.6238 42.689C20.5083 42.8417 20.4138 43.1436 20.4138 43.3598C20.4138 43.5762 20.3495 43.7929 20.2708 43.8415C20.1922 43.8901 20.1278 44.1191 20.1278 44.3505C20.1278 44.5819 20.0634 44.7711 19.9848 44.7711C19.9061 44.7711 19.8418 44.9963 19.8418 45.2716C19.8418 45.5469 19.7774 45.7721 19.6988 45.7721C19.6201 45.7721 19.5535 45.9169 19.5508 46.0939C19.5479 46.271 19.4536 46.5766 19.3412 46.7732C19.2288 46.9698 19.1346 47.2755 19.1317 47.4525C19.129 47.6296 19.0624 47.7743 18.9837 47.7743C18.9051 47.7743 18.8407 47.9995 18.8407 48.2748C18.8407 48.5501 18.7764 48.7753 18.6977 48.7753C18.619 48.7753 18.5547 48.9041 18.5547 49.0614V49.3474H22.702C25.3715 49.3474 26.8493 49.2965 26.8493 49.2044C26.8493 49.1257 27.0745 49.0614 27.3498 49.0614C27.6251 49.0614 27.8503 48.997 27.8503 48.9184C27.8503 48.8397 27.9334 48.7753 28.0351 48.7753C28.1366 48.7753 28.4586 48.5501 28.7504 48.2748C29.0423 47.9995 29.3178 47.7743 29.3625 47.7743C29.5025 47.7743 29.8525 47.373 29.8525 47.2124C29.8525 47.1282 29.9168 47.0592 29.9955 47.0592C30.0741 47.0592 30.1385 46.9305 30.1385 46.7732C30.1385 46.6159 30.2028 46.4872 30.2815 46.4872C30.3602 46.4872 30.4245 46.2672 30.4245 45.9985C30.4245 45.7298 30.4729 45.4886 30.5318 45.4622C30.6632 45.4039 31.1396 44.0346 31.1396 43.7151C31.1396 43.5879 31.2039 43.484 31.2826 43.484C31.3612 43.484 31.4256 43.2587 31.4256 42.9834C31.4256 42.7081 31.4899 42.4829 31.5686 42.4829C31.6472 42.4829 31.7116 42.3468 31.7116 42.1803C31.7116 41.8066 32.1727 40.4269 32.3194 40.3616C32.3783 40.3353 32.4267 40.0941 32.4267 39.8254C32.4267 39.5566 32.491 39.3367 32.5697 39.3367C32.6483 39.3367 32.7127 39.1114 32.7127 38.8362C32.7127 38.5609 32.777 38.3356 32.8557 38.3356C32.9343 38.3356 32.9987 38.148 32.9987 37.9185C32.9987 37.6891 33.0469 37.48 33.1059 37.4537C33.2374 37.3953 33.7137 36.026 33.7137 35.7065C33.7137 35.5794 33.7781 35.4754 33.8568 35.4754C33.9354 35.4754 33.9998 35.218 33.9998 34.9034C33.9998 34.5888 34.0641 34.3313 34.1428 34.3313C34.2214 34.3313 34.2879 34.2186 34.2905 34.0811C34.2958 33.7915 34.7712 32.3682 34.9083 32.2311C34.9592 32.1802 35.0008 31.9562 35.0008 31.7333C35.0008 31.5105 35.0652 31.3281 35.1438 31.3281C35.2225 31.3281 35.2869 31.4568 35.2869 31.6141C35.2869 31.7715 35.3512 31.9002 35.4299 31.9002C35.5085 31.9002 35.5729 32.1254 35.5729 32.4007C35.5729 32.676 35.6372 32.9012 35.7159 32.9012C35.7945 32.9012 35.8612 33.046 35.8639 33.223C35.8668 33.4001 35.961 33.7057 36.0734 33.9023C36.1858 34.0989 36.2801 34.4046 36.2829 34.5816C36.2856 34.7587 36.3523 34.9034 36.4309 34.9034C36.5096 34.9034 36.5739 35.1608 36.5739 35.4754C36.5739 35.79 36.6383 36.0475 36.717 36.0475C36.7956 36.0475 36.86 36.1556 36.86 36.2876C36.86 36.5639 37.0912 37.3371 37.3777 38.0187C37.4862 38.277 37.575 38.6149 37.575 38.7695C37.575 38.9241 37.6394 39.0507 37.718 39.0507C37.7967 39.0507 37.861 39.2759 37.861 39.5512C37.861 39.8265 37.9254 40.0517 38.004 40.0517C38.0827 40.0517 38.1471 40.2319 38.1471 40.4522C38.1471 40.6724 38.2 40.9138 38.2647 40.9885C38.3294 41.0632 38.5064 41.5266 38.658 42.0181C38.8095 42.5098 38.9818 42.9119 39.0409 42.9119C39.0998 42.9119 39.1481 43.2015 39.1481 43.5555C39.1481 43.9094 39.2125 44.199 39.2911 44.199C39.3698 44.199 39.4341 44.3561 39.4341 44.5481C39.4341 44.7402 39.4985 44.937 39.5772 44.9856C39.6558 45.0342 39.7202 45.2187 39.7202 45.3957C39.7202 45.5726 39.8147 45.8424 39.9301 45.9951C40.0457 46.1477 40.1422 46.4497 40.1446 46.666C40.1472 46.8822 40.2135 47.0592 40.2922 47.0592C40.3709 47.0592 40.4352 47.1915 40.4352 47.3533C40.4352 47.7465 41.7416 49.0614 42.1322 49.0614C42.3001 49.0614 42.4373 49.1257 42.4373 49.2044C42.4373 49.2958 43.7006 49.3474 45.9411 49.3474C48.1816 49.3474 49.4448 49.2958 49.4448 49.2044C49.4448 49.1257 49.6006 49.0614 49.7908 49.0614C50.1563 49.0614 51.0155 48.6355 51.0171 48.4536C51.0175 48.3945 51.0844 48.3463 51.1657 48.3463C51.3881 48.3463 52.2586 47.4311 52.3698 47.0804C52.4234 46.9114 52.5273 46.7732 52.6006 46.7732C52.674 46.7732 52.7341 46.6445 52.7341 46.4872C52.7341 46.3299 52.7984 46.2012 52.8771 46.2012C52.9557 46.2012 53.0201 45.9759 53.0201 45.7006C53.0201 45.4253 53.0844 45.2001 53.1631 45.2001C53.2417 45.2001 53.3061 45.0384 53.3061 44.8406C53.3061 44.6429 53.3619 44.3694 53.43 44.2328C53.6307 43.8301 53.9055 43.0132 53.9823 42.5902C54.0214 42.3739 54.1107 42.1969 54.1803 42.1969C54.2501 42.1969 54.3072 41.9716 54.3072 41.6964C54.3072 41.4211 54.3715 41.1958 54.4502 41.1958C54.5288 41.1958 54.5932 41.0028 54.5932 40.7668C54.5932 40.5308 54.6575 40.3378 54.7362 40.3378C54.8149 40.3378 54.8792 40.1749 54.8792 39.9757C54.8792 39.7764 54.9757 39.3825 55.0937 39.1002C55.2117 38.8177 55.3082 38.4659 55.3082 38.3182C55.3082 38.1704 55.3726 38.0496 55.4513 38.0496C55.5299 38.0496 55.5943 37.8565 55.5943 37.6206C55.5943 37.3846 55.6586 37.1915 55.7373 37.1915C55.8159 37.1915 55.8803 36.9663 55.8803 36.691C55.8803 36.4157 55.9313 36.1905 55.9938 36.1905C56.1137 36.1905 56.5953 34.7542 56.5953 34.3971C56.5953 34.2823 56.6597 34.1883 56.7383 34.1883C56.817 34.1883 56.8814 33.9631 56.8814 33.6878C56.8814 33.4125 56.9457 33.1873 57.0244 33.1873C57.103 33.1873 57.1674 33.0334 57.1674 32.8453C57.1674 32.6573 57.2938 32.2229 57.4482 31.88L57.7291 31.2566L57.8236 31.7214C57.8757 31.977 57.9745 32.1862 58.0433 32.1862C58.1121 32.1862 58.1684 32.4114 58.1684 32.6867C58.1684 32.962 58.2328 33.1873 58.3115 33.1873C58.3901 33.1873 58.4545 33.2954 58.4545 33.4274C58.4545 33.7037 58.6857 34.4769 58.9722 35.1585C59.0807 35.4168 59.1695 35.7547 59.1695 35.9093C59.1695 36.0639 59.2339 36.1905 59.3125 36.1905C59.3912 36.1905 59.4555 36.4157 59.4555 36.691C59.4555 36.9663 59.5199 37.1915 59.5985 37.1915C59.6772 37.1915 59.7416 37.3807 59.7416 37.6121C59.7416 37.8435 59.8003 38.069 59.8721 38.1134C59.9439 38.1579 60.0462 38.4512 60.0992 38.7654C60.1523 39.0796 60.2544 39.3367 60.3262 39.3367C60.398 39.3367 60.4566 39.5619 60.4566 39.8372C60.4566 40.1125 60.521 40.3378 60.5996 40.3378C60.6783 40.3378 60.7426 40.563 60.7426 40.8383C60.7426 41.1136 60.807 41.3388 60.8856 41.3388C60.9643 41.3388 61.0286 41.4684 61.0286 41.6269C61.0286 41.7852 61.0844 42.0266 61.1525 42.1631C61.3533 42.5659 61.628 43.3827 61.7048 43.8057C61.744 44.022 61.8332 44.199 61.9029 44.199C61.9727 44.199 62.0297 44.4243 62.0297 44.6996C62.0297 44.9749 62.0941 45.2001 62.1727 45.2001C62.2514 45.2001 62.3157 45.4253 62.3157 45.7006C62.3157 45.9759 62.3801 46.2012 62.4587 46.2012C62.5374 46.2012 62.6017 46.322 62.6017 46.4697C62.6017 46.6173 62.6983 46.8183 62.8163 46.9162C62.9342 47.0142 63.0308 47.1529 63.0308 47.2245C63.0308 47.66 64.938 49.0614 65.5306 49.0614C65.7288 49.0614 65.891 49.1257 65.891 49.2044C65.891 49.2965 67.3926 49.3474 70.1098 49.3474H74.3286V49.0777C74.3286 48.9294 74.2325 48.6238 74.1149 48.3984C73.9975 48.1731 73.901 47.88 73.9004 47.747C73.9 47.614 73.8352 47.4654 73.7565 47.4168C73.6779 47.3681 73.6135 47.1392 73.6135 46.9078C73.6135 46.6764 73.5492 46.4872 73.4705 46.4872C73.3918 46.4872 73.3275 46.2619 73.3275 45.9867C73.3275 45.7114 73.2631 45.4861 73.1845 45.4861C73.1058 45.4861 73.0415 45.2969 73.0415 45.0655C73.0415 44.8341 72.9827 44.6086 72.9109 44.5643C72.8391 44.5198 72.737 44.2268 72.684 43.913C72.6309 43.5992 72.5288 43.3062 72.457 43.2617C72.3852 43.2174 72.3264 42.9919 72.3264 42.7605C72.3264 42.5291 72.2621 42.3399 72.1834 42.3399C72.1048 42.3399 72.0404 42.1147 72.0404 41.8394C72.0404 41.5641 71.9761 41.3388 71.8974 41.3388C71.8187 41.3388 71.7544 41.2349 71.7544 41.1077C71.7544 40.7882 71.278 39.4189 71.1466 39.3606C71.0875 39.3343 71.0393 39.093 71.0393 38.8243C71.0393 38.5556 70.975 38.3356 70.8963 38.3356C70.8177 38.3356 70.7533 38.1464 70.7533 37.915C70.7533 37.6836 70.689 37.4547 70.6103 37.4061C70.5317 37.3574 70.4673 37.1285 70.4673 36.8971C70.4673 36.6657 70.4069 36.4765 70.333 36.4765C70.2592 36.4765 70.1554 36.1869 70.1023 35.8329C70.0493 35.479 69.9487 35.1894 69.879 35.1894C69.8093 35.1894 69.7522 34.9963 69.7522 34.7604C69.7522 34.5244 69.6879 34.3313 69.6092 34.3313C69.5306 34.3313 69.4662 34.1696 69.4662 33.9718C69.4662 33.7742 69.4105 33.5006 69.3424 33.364C69.1416 32.9613 68.8669 32.1444 68.7901 31.7214C68.7509 31.5052 68.6617 31.3281 68.592 31.3281C68.5222 31.3281 68.4652 31.1029 68.4652 30.8276C68.4652 30.5523 68.4008 30.3271 68.3221 30.3271C68.2435 30.3271 68.1791 30.1073 68.1791 29.8384C68.1791 29.5697 68.1309 29.3284 68.0719 29.3021C67.9252 29.2369 67.4641 27.8571 67.4641 27.4834C67.4641 27.317 67.3997 27.1808 67.3211 27.1808C67.2424 27.1808 67.1781 26.9556 67.1781 26.6803C67.1781 26.405 67.1137 26.1798 67.0351 26.1798C66.9564 26.1798 66.892 26.0749 66.892 25.9468C66.892 25.6152 66.1348 23.4007 66.0018 23.3435C65.9409 23.3171 65.891 23.0759 65.891 22.8072C65.891 22.5383 65.8266 22.3185 65.748 22.3185C65.6693 22.3185 65.605 22.0933 65.605 21.818C65.605 21.5427 65.5406 21.3174 65.4619 21.3174C65.3833 21.3174 65.3189 21.1367 65.3189 20.9157C65.3189 20.6948 65.2244 20.3892 65.109 20.2364C64.9935 20.0838 64.8969 19.7818 64.8945 19.5656C64.8919 19.3493 64.8256 19.1723 64.7469 19.1723C64.6682 19.1723 64.6039 18.947 64.6039 18.6717C64.6039 18.3965 64.5395 18.1712 64.4609 18.1712C64.3822 18.1712 64.3169 18.0587 64.3157 17.9209C64.3116 17.4357 63.6419 15.8831 63.4368 15.8831C63.3709 15.8831 63.3168 15.8158 63.3168 15.7336C63.3168 15.5394 62.6594 14.882 62.4652 14.882C62.3829 14.882 62.3157 14.8176 62.3157 14.739C62.3157 14.6603 62.1923 14.596 62.0416 14.596C61.8909 14.596 61.7408 14.5156 61.7081 14.4172C61.6633 14.2823 60.7978 14.2279 58.186 14.1954L54.7233 14.1523L54.2787 14.3742C54.0343 14.4961 53.7296 14.596 53.6017 14.596C53.4739 14.596 53.2765 14.7247 53.1631 14.882C53.0497 15.0393 52.9038 15.168 52.839 15.168C52.7052 15.168 52.019 15.8257 52.019 15.954C52.019 16.0002 51.8903 16.1762 51.733 16.345C51.5757 16.5139 51.447 16.764 51.447 16.9009C51.447 17.0377 51.3504 17.2462 51.2325 17.3642C51.1145 17.4822 51.0179 17.7764 51.0179 18.018C51.0179 18.2596 50.9536 18.4572 50.8749 18.4572C50.7963 18.4572 50.7319 18.6503 50.7319 18.8863C50.7319 19.1222 50.6676 19.3153 50.5889 19.3153C50.5103 19.3153 50.4459 19.5405 50.4459 19.8158C50.4459 20.0911 50.3816 20.3164 50.3029 20.3164C50.2242 20.3164 50.1599 20.4429 50.1599 20.5975C50.1599 20.7521 50.0711 21.09 49.9625 21.3483C49.6761 22.0299 49.4448 22.8032 49.4448 23.0795C49.4448 23.2115 49.3805 23.3196 49.3018 23.3196C49.2232 23.3196 49.1588 23.5409 49.1588 23.8117C49.1588 24.0824 49.0945 24.3435 49.0158 24.3921C48.9372 24.4408 48.8728 24.6253 48.8728 24.8023C48.8728 24.9792 48.7783 25.2489 48.6629 25.4017C48.5473 25.5542 48.4508 25.8563 48.4483 26.0725C48.4458 26.2887 48.3794 26.4658 48.3008 26.4658C48.2221 26.4658 48.1577 26.691 48.1577 26.9663C48.1577 27.2416 48.0934 27.4669 48.0147 27.4669C47.9361 27.4669 47.8717 27.6471 47.8717 27.8673C47.8717 28.0875 47.8205 28.3289 47.758 28.4036C47.6955 28.4782 47.5284 28.9256 47.3864 29.3975C47.2443 29.8694 47.0703 30.3672 46.9994 30.5038C46.9286 30.6404 46.8707 30.9461 46.8707 31.1831C46.8707 31.4202 46.8063 31.6141 46.7276 31.6141C46.649 31.6141 46.5846 31.7107 46.5846 31.8287C46.5846 31.9466 46.5203 32.0432 46.4416 32.0432C46.363 32.0432 46.2986 31.9392 46.2986 31.8121C46.2986 31.4926 45.8223 30.1233 45.6908 30.0649C45.6319 30.0386 45.5836 29.7974 45.5836 29.5286C45.5836 29.2598 45.5192 29.04 45.4406 29.04C45.3619 29.04 45.2975 28.8147 45.2975 28.5394C45.2975 28.2641 45.2332 28.0389 45.1545 28.0389C45.0759 28.0389 45.0115 27.8772 45.0115 27.6794C45.0115 27.4817 44.955 27.2082 44.886 27.0716C44.5088 26.3256 44.2965 25.6937 44.2965 25.3168C44.2965 25.0836 44.2321 24.8927 44.1535 24.8927C44.0748 24.8927 44.0105 24.7357 44.0105 24.5436C44.0105 24.3515 43.9461 24.1547 43.8674 24.1061C43.7888 24.0575 43.7244 23.868 43.7244 23.685C43.7244 23.502 43.6283 23.168 43.5108 22.9426C43.3934 22.7174 43.2968 22.4242 43.2963 22.2912C43.2958 22.1582 43.2311 22.0096 43.1524 21.961C43.0737 21.9124 43.0094 21.6834 43.0094 21.452C43.0094 21.2206 42.945 21.0314 42.8664 21.0314C42.7877 21.0314 42.7234 20.8062 42.7234 20.5309C42.7234 20.2556 42.659 20.0303 42.5804 20.0303C42.5017 20.0303 42.4351 19.8856 42.4323 19.7086C42.4295 19.5315 42.3352 19.2259 42.2228 19.0293C42.1104 18.8326 42.0162 18.527 42.0133 18.35C42.0106 18.1729 41.944 18.0282 41.8653 18.0282C41.7867 18.0282 41.7223 17.7708 41.7223 17.4562C41.7223 17.1415 41.6579 16.8841 41.5793 16.8841C41.5006 16.8841 41.4363 16.7558 41.4363 16.5992C41.4363 16.3464 41.1709 15.951 40.614 15.3736C40.5157 15.2718 40.4352 15.1195 40.4352 15.0351C40.4352 14.9509 40.3118 14.882 40.1611 14.882C40.0103 14.882 39.8656 14.8336 39.8393 14.7747C39.8131 14.7158 39.5481 14.5549 39.2505 14.4172L38.7094 14.1669L35.4608 14.1744L32.2121 14.1817L31.6401 14.4153Z" fill="#515151"/>
<path fill-rule="evenodd" clip-rule="evenodd" d="M31.6401 14.4153C31.3255 14.5438 31.0466 14.7014 31.0204 14.7654C30.9941 14.8295 30.8807 14.882 30.7683 14.882C30.4982 14.882 29.1374 16.2559 29.1374 16.5285C29.1374 16.6454 29.0731 16.7411 28.9944 16.7411C28.9158 16.7411 28.8514 16.902 28.8514 17.0986C28.8514 17.2953 28.787 17.4562 28.7084 17.4562C28.6297 17.4562 28.5631 17.6009 28.5604 17.7779C28.5575 17.955 28.4633 18.2606 28.3509 18.4572C28.2385 18.6539 28.1442 18.9879 28.1414 19.1996C28.1386 19.4112 28.072 19.6242 27.9933 19.6728C27.9147 19.7214 27.8503 19.9504 27.8503 20.1818C27.8503 20.4132 27.786 20.6024 27.7073 20.6024C27.6287 20.6024 27.5643 20.8276 27.5643 21.1029C27.5643 21.3782 27.5 21.6034 27.4213 21.6034C27.3426 21.6034 27.276 21.7482 27.2733 21.9252C27.2704 22.1023 27.1762 22.4079 27.0638 22.6045C26.9514 22.8012 26.8571 23.1068 26.8543 23.2838C26.8516 23.4609 26.7849 23.6056 26.7063 23.6056C26.6276 23.6056 26.5632 23.8308 26.5632 24.1061C26.5632 24.3814 26.4989 24.6067 26.4202 24.6067C26.3416 24.6067 26.2772 24.789 26.2772 25.0118C26.2772 25.2348 26.2356 25.4587 26.1847 25.5096C26.0297 25.6646 25.5718 27.0885 25.5669 27.4311C25.5643 27.6082 25.4978 27.7529 25.4192 27.7529C25.3405 27.7529 25.2762 27.9781 25.2762 28.2534C25.2762 28.5287 25.2118 28.7539 25.1331 28.7539C25.0545 28.7539 24.9901 28.947 24.9901 29.183C24.9901 29.4189 24.9331 29.612 24.8633 29.612C24.7936 29.612 24.7044 29.7891 24.6652 30.0053C24.5884 30.4283 24.3137 31.2452 24.1129 31.6479C24.0448 31.7845 23.9891 32.0581 23.9891 32.2557C23.9891 32.4535 23.9247 32.6152 23.8461 32.6152C23.7674 32.6152 23.703 32.8405 23.703 33.1158C23.703 33.391 23.6387 33.6163 23.56 33.6163C23.4814 33.6163 23.4147 33.761 23.412 33.9381C23.4092 34.1151 23.3149 34.4207 23.2025 34.6174C23.0901 34.814 22.9959 35.1519 22.993 35.3682C22.9903 35.5844 22.9236 35.7614 22.845 35.7614C22.7663 35.7614 22.702 35.9867 22.702 36.262C22.702 36.5373 22.6376 36.7625 22.559 36.7625C22.4803 36.7625 22.416 36.9825 22.416 37.2512C22.416 37.5199 22.3676 37.7611 22.3087 37.7875C22.1773 37.8458 21.7009 39.2151 21.7009 39.5346C21.7009 39.6617 21.6366 39.7657 21.5579 39.7657C21.4792 39.7657 21.4149 39.9588 21.4149 40.1947C21.4149 40.4307 21.3505 40.6238 21.2719 40.6238C21.1932 40.6238 21.1289 40.849 21.1289 41.1243C21.1289 41.3996 21.0645 41.6248 20.9859 41.6248C20.9072 41.6248 20.8408 41.8019 20.8383 42.0181C20.8358 42.2344 20.7393 42.5364 20.6238 42.689C20.5083 42.8417 20.4138 43.1436 20.4138 43.3598C20.4138 43.5762 20.3495 43.7929 20.2708 43.8415C20.1922 43.8901 20.1278 44.1191 20.1278 44.3505C20.1278 44.5819 20.0634 44.7711 19.9848 44.7711C19.9061 44.7711 19.8418 44.9963 19.8418 45.2716C19.8418 45.5469 19.7774 45.7721 19.6988 45.7721C19.6201 45.7721 19.5535 45.9169 19.5508 46.0939C19.5479 46.271 19.4536 46.5766 19.3412 46.7732C19.2288 46.9698 19.1346 47.2755 19.1317 47.4525C19.129 47.6296 19.0624 47.7743 18.9837 47.7743C18.9051 47.7743 18.8407 47.9995 18.8407 48.2748C18.8407 48.5501 18.7764 48.7753 18.6977 48.7753C18.619 48.7753 18.5547 48.9041 18.5547 49.0614V49.3474H22.702C25.3715 49.3474 26.8493 49.2965 26.8493 49.2044C26.8493 49.1257 27.0745 49.0614 27.3498 49.0614C27.6251 49.0614 27.8503 48.997 27.8503 48.9184C27.8503 48.8397 27.9334 48.7753 28.0351 48.7753C28.1366 48.7753 28.4586 48.5501 28.7504 48.2748C29.0423 47.9995 29.3178 47.7743 29.3625 47.7743C29.5025 47.7743 29.8525 47.373 29.8525 47.2124C29.8525 47.1282 29.9168 47.0592 29.9955 47.0592C30.0741 47.0592 30.1385 46.9305 30.1385 46.7732C30.1385 46.6159 30.2028 46.4872 30.2815 46.4872C30.3602 46.4872 30.4245 46.2672 30.4245 45.9985C30.4245 45.7298 30.4729 45.4886 30.5318 45.4622C30.6632 45.4039 31.1396 44.0346 31.1396 43.7151C31.1396 43.5879 31.2039 43.484 31.2826 43.484C31.3612 43.484 31.4256 43.2587 31.4256 42.9834C31.4256 42.7081 31.4899 42.4829 31.5686 42.4829C31.6472 42.4829 31.7116 42.3468 31.7116 42.1803C31.7116 41.8066 32.1727 40.4269 32.3194 40.3616C32.3783 40.3353 32.4267 40.0941 32.4267 39.8254C32.4267 39.5566 32.491 39.3367 32.5697 39.3367C32.6483 39.3367 32.7127 39.1114 32.7127 38.8362C32.7127 38.5609 32.777 38.3356 32.8557 38.3356C32.9343 38.3356 32.9987 38.148 32.9987 37.9185C32.9987 37.6891 33.0469 37.48 33.1059 37.4537C33.2374 37.3953 33.7137 36.026 33.7137 35.7065C33.7137 35.5794 33.7781 35.4754 33.8568 35.4754C33.9354 35.4754 33.9998 35.218 33.9998 34.9034C33.9998 34.5888 34.0641 34.3313 34.1428 34.3313C34.2214 34.3313 34.2879 34.2186 34.2905 34.0811C34.2958 33.7915 34.7712 32.3682 34.9083 32.2311C34.9592 32.1802 35.0008 31.9562 35.0008 31.7333C35.0008 31.5105 35.0652 31.3281 35.1438 31.3281C35.2225 31.3281 35.2869 31.4568 35.2869 31.6141C35.2869 31.7715 35.3512 31.9002 35.4299 31.9002C35.5085 31.9002 35.5729 32.1254 35.5729 32.4007C35.5729 32.676 35.6372 32.9012 35.7159 32.9012C35.7945 32.9012 35.8612 33.046 35.8639 33.223C35.8668 33.4001 35.961 33.7057 36.0734 33.9023C36.1858 34.0989 36.2801 34.4046 36.2829 34.5816C36.2856 34.7587 36.3523 34.9034 36.4309 34.9034C36.5096 34.9034 36.5739 35.1608 36.5739 35.4754C36.5739 35.79 36.6383 36.0475 36.717 36.0475C36.7956 36.0475 36.86 36.1556 36.86 36.2876C36.86 36.5639 37.0912 37.3371 37.3777 38.0187C37.4862 38.277 37.575 38.6149 37.575 38.7695C37.575 38.9241 37.6394 39.0507 37.718 39.0507C37.7967 39.0507 37.861 39.2759 37.861 39.5512C37.861 39.8265 37.9254 40.0517 38.004 40.0517C38.0827 40.0517 38.1471 40.2319 38.1471 40.4522C38.1471 40.6724 38.2 40.9138 38.2647 40.9885C38.3294 41.0632 38.5064 41.5266 38.658 42.0181C38.8095 42.5098 38.9818 42.9119 39.0409 42.9119C39.0998 42.9119 39.1481 43.2015 39.1481 43.5555C39.1481 43.9094 39.2125 44.199 39.2911 44.199C39.3698 44.199 39.4341 44.3561 39.4341 44.5481C39.4341 44.7402 39.4985 44.937 39.5772 44.9856C39.6558 45.0342 39.7202 45.2187 39.7202 45.3957C39.7202 45.5726 39.8147 45.8424 39.9301 45.9951C40.0457 46.1477 40.1422 46.4497 40.1446 46.666C40.1472 46.8822 40.2135 47.0592 40.2922 47.0592C40.3709 47.0592 40.4352 47.1915 40.4352 47.3533C40.4352 47.7465 41.7416 49.0614 42.1322 49.0614C42.3001 49.0614 42.4373 49.1257 42.4373 49.2044C42.4373 49.2958 43.7006 49.3474 45.9411 49.3474C48.1816 49.3474 49.4448 49.2958 49.4448 49.2044C49.4448 49.1257 49.6006 49.0614 49.7908 49.0614C50.1563 49.0614 51.0155 48.6355 51.0171 48.4536C51.0175 48.3945 51.0844 48.3463 51.1657 48.3463C51.3881 48.3463 52.2586 47.4311 52.3698 47.0804C52.4234 46.9114 52.5273 46.7732 52.6006 46.7732C52.674 46.7732 52.7341 46.6445 52.7341 46.4872C52.7341 46.3299 52.7984 46.2012 52.8771 46.2012C52.9557 46.2012 53.0201 45.9759 53.0201 45.7006C53.0201 45.4253 53.0844 45.2001 53.1631 45.2001C53.2417 45.2001 53.3061 45.0384 53.3061 44.8406C53.3061 44.6429 53.3619 44.3694 53.43 44.2328C53.6307 43.8301 53.9055 43.0132 53.9823 42.5902C54.0214 42.3739 54.1107 42.1969 54.1803 42.1969C54.2501 42.1969 54.3072 41.9716 54.3072 41.6964C54.3072 41.4211 54.3715 41.1958 54.4502 41.1958C54.5288 41.1958 54.5932 41.0028 54.5932 40.7668C54.5932 40.5308 54.6575 40.3378 54.7362 40.3378C54.8149 40.3378 54.8792 40.1749 54.8792 39.9757C54.8792 39.7764 54.9757 39.3825 55.0937 39.1002C55.2117 38.8177 55.3082 38.4659 55.3082 38.3182C55.3082 38.1704 55.3726 38.0496 55.4513 38.0496C55.5299 38.0496 55.5943 37.8565 55.5943 37.6206C55.5943 37.3846 55.6586 37.1915 55.7373 37.1915C55.8159 37.1915 55.8803 36.9663 55.8803 36.691C55.8803 36.4157 55.9313 36.1905 55.9938 36.1905C56.1137 36.1905 56.5953 34.7542 56.5953 34.3971C56.5953 34.2823 56.6597 34.1883 56.7383 34.1883C56.817 34.1883 56.8814 33.9631 56.8814 33.6878C56.8814 33.4125 56.9457 33.1873 57.0244 33.1873C57.103 33.1873 57.1674 33.0334 57.1674 32.8453C57.1674 32.6573 57.2938 32.2229 57.4482 31.88L57.7291 31.2566L57.8236 31.7214C57.8757 31.977 57.9745 32.1862 58.0433 32.1862C58.1121 32.1862 58.1684 32.4114 58.1684 32.6867C58.1684 32.962 58.2328 33.1873 58.3115 33.1873C58.3901 33.1873 58.4545 33.2954 58.4545 33.4274C58.4545 33.7037 58.6857 34.4769 58.9722 35.1585C59.0807 35.4168 59.1695 35.7547 59.1695 35.9093C59.1695 36.0639 59.2339 36.1905 59.3125 36.1905C59.3912 36.1905 59.4555 36.4157 59.4555 36.691C59.4555 36.9663 59.5199 37.1915 59.5985 37.1915C59.6772 37.1915 59.7416 37.3807 59.7416 37.6121C59.7416 37.8435 59.8003 38.069 59.8721 38.1134C59.9439 38.1579 60.0462 38.4512 60.0992 38.7654C60.1523 39.0796 60.2544 39.3367 60.3262 39.3367C60.398 39.3367 60.4566 39.5619 60.4566 39.8372C60.4566 40.1125 60.521 40.3378 60.5996 40.3378C60.6783 40.3378 60.7426 40.563 60.7426 40.8383C60.7426 41.1136 60.807 41.3388 60.8856 41.3388C60.9643 41.3388 61.0286 41.4684 61.0286 41.6269C61.0286 41.7852 61.0844 42.0266 61.1525 42.1631C61.3533 42.5659 61.628 43.3827 61.7048 43.8057C61.744 44.022 61.8332 44.199 61.9029 44.199C61.9727 44.199 62.0297 44.4243 62.0297 44.6996C62.0297 44.9749 62.0941 45.2001 62.1727 45.2001C62.2514 45.2001 62.3157 45.4253 62.3157 45.7006C62.3157 45.9759 62.3801 46.2012 62.4587 46.2012C62.5374 46.2012 62.6017 46.322 62.6017 46.4697C62.6017 46.6173 62.6983 46.8183 62.8163 46.9162C62.9342 47.0142 63.0308 47.1529 63.0308 47.2245C63.0308 47.66 64.938 49.0614 65.5306 49.0614C65.7288 49.0614 65.891 49.1257 65.891 49.2044C65.891 49.2965 67.3926 49.3474 70.1098 49.3474H74.3286V49.0777C74.3286 48.9294 74.2325 48.6238 74.1149 48.3984C73.9975 48.1731 73.901 47.88 73.9004 47.747C73.9 47.614 73.8352 47.4654 73.7565 47.4168C73.6779 47.3681 73.6135 47.1392 73.6135 46.9078C73.6135 46.6764 73.5492 46.4872 73.4705 46.4872C73.3918 46.4872 73.3275 46.2619 73.3275 45.9867C73.3275 45.7114 73.2631 45.4861 73.1845 45.4861C73.1058 45.4861 73.0415 45.2969 73.0415 45.0655C73.0415 44.8341 72.9827 44.6086 72.9109 44.5643C72.8391 44.5198 72.737 44.2268 72.684 43.913C72.6309 43.5992 72.5288 43.3062 72.457 43.2617C72.3852 43.2174 72.3264 42.9919 72.3264 42.7605C72.3264 42.5291 72.2621 42.3399 72.1834 42.3399C72.1048 42.3399 72.0404 42.1147 72.0404 41.8394C72.0404 41.5641 71.9761 41.3388 71.8974 41.3388C71.8187 41.3388 71.7544 41.2349 71.7544 41.1077C71.7544 40.7882 71.278 39.4189 71.1466 39.3606C71.0875 39.3343 71.0393 39.093 71.0393 38.8243C71.0393 38.5556 70.975 38.3356 70.8963 38.3356C70.8177 38.3356 70.7533 38.1464 70.7533 37.915C70.7533 37.6836 70.689 37.4547 70.6103 37.4061C70.5317 37.3574 70.4673 37.1285 70.4673 36.8971C70.4673 36.6657 70.4069 36.4765 70.333 36.4765C70.2592 36.4765 70.1554 36.1869 70.1023 35.8329C70.0493 35.479 69.9487 35.1894 69.879 35.1894C69.8093 35.1894 69.7522 34.9963 69.7522 34.7604C69.7522 34.5244 69.6879 34.3313 69.6092 34.3313C69.5306 34.3313 69.4662 34.1696 69.4662 33.9718C69.4662 33.7742 69.4105 33.5006 69.3424 33.364C69.1416 32.9613 68.8669 32.1444 68.7901 31.7214C68.7509 31.5052 68.6617 31.3281 68.592 31.3281C68.5222 31.3281 68.4652 31.1029 68.4652 30.8276C68.4652 30.5523 68.4008 30.3271 68.3221 30.3271C68.2435 30.3271 68.1791 30.1073 68.1791 29.8384C68.1791 29.5697 68.1309 29.3284 68.0719 29.3021C67.9252 29.2369 67.4641 27.8571 67.4641 27.4834C67.4641 27.317 67.3997 27.1808 67.3211 27.1808C67.2424 27.1808 67.1781 26.9556 67.1781 26.6803C67.1781 26.405 67.1137 26.1798 67.0351 26.1798C66.9564 26.1798 66.892 26.0749 66.892 25.9468C66.892 25.6152 66.1348 23.4007 66.0018 23.3435C65.9409 23.3171 65.891 23.0759 65.891 22.8072C65.891 22.5383 65.8266 22.3185 65.748 22.3185C65.6693 22.3185 65.605 22.0933 65.605 21.818C65.605 21.5427 65.5406 21.3174 65.4619 21.3174C65.3833 21.3174 65.3189 21.1367 65.3189 20.9157C65.3189 20.6948 65.2244 20.3892 65.109 20.2364C64.9935 20.0838 64.8969 19.7818 64.8945 19.5656C64.8919 19.3493 64.8256 19.1723 64.7469 19.1723C64.6682 19.1723 64.6039 18.947 64.6039 18.6717C64.6039 18.3965 64.5395 18.1712 64.4609 18.1712C64.3822 18.1712 64.3169 18.0587 64.3157 17.9209C64.3116 17.4357 63.6419 15.8831 63.4368 15.8831C63.3709 15.8831 63.3168 15.8158 63.3168 15.7336C63.3168 15.5394 62.6594 14.882 62.4652 14.882C62.3829 14.882 62.3157 14.8176 62.3157 14.739C62.3157 14.6603 62.1923 14.596 62.0416 14.596C61.8909 14.596 61.7408 14.5156 61.7081 14.4172C61.6633 14.2823 60.7978 14.2279 58.186 14.1954L54.7233 14.1523L54.2787 14.3742C54.0343 14.4961 53.7296 14.596 53.6017 14.596C53.4739 14.596 53.2765 14.7247 53.1631 14.882C53.0497 15.0393 52.9038 15.168 52.839 15.168C52.7052 15.168 52.019 15.8257 52.019 15.954C52.019 16.0002 51.8903 16.1762 51.733 16.345C51.5757 16.5139 51.447 16.764 51.447 16.9009C51.447 17.0377 51.3504 17.2462 51.2325 17.3642C51.1145 17.4822 51.0179 17.7764 51.0179 18.018C51.0179 18.2596 50.9536 18.4572 50.8749 18.4572C50.7963 18.4572 50.7319 18.6503 50.7319 18.8863C50.7319 19.1222 50.6676 19.3153 50.5889 19.3153C50.5103 19.3153 50.4459 19.5405 50.4459 19.8158C50.4459 20.0911 50.3816 20.3164 50.3029 20.3164C50.2242 20.3164 50.1599 20.4429 50.1599 20.5975C50.1599 20.7521 50.0711 21.09 49.9625 21.3483C49.6761 22.0299 49.4448 22.8032 49.4448 23.0795C49.4448 23.2115 49.3805 23.3196 49.3018 23.3196C49.2232 23.3196 49.1588 23.5409 49.1588 23.8117C49.1588 24.0824 49.0945 24.3435 49.0158 24.3921C48.9372 24.4408 48.8728 24.6253 48.8728 24.8023C48.8728 24.9792 48.7783 25.2489 48.6629 25.4017C48.5473 25.5542 48.4508 25.8563 48.4483 26.0725C48.4458 26.2887 48.3794 26.4658 48.3008 26.4658C48.2221 26.4658 48.1577 26.691 48.1577 26.9663C48.1577 27.2416 48.0934 27.4669 48.0147 27.4669C47.9361 27.4669 47.8717 27.6471 47.8717 27.8673C47.8717 28.0875 47.8205 28.3289 47.758 28.4036C47.6955 28.4782 47.5284 28.9256 47.3864 29.3975C47.2443 29.8694 47.0703 30.3672 46.9994 30.5038C46.9286 30.6404 46.8707 30.9461 46.8707 31.1831C46.8707 31.4202 46.8063 31.6141 46.7276 31.6141C46.649 31.6141 46.5846 31.7107 46.5846 31.8287C46.5846 31.9466 46.5203 32.0432 46.4416 32.0432C46.363 32.0432 46.2986 31.9392 46.2986 31.8121C46.2986 31.4926 45.8223 30.1233 45.6908 30.0649C45.6319 30.0386 45.5836 29.7974 45.5836 29.5286C45.5836 29.2598 45.5192 29.04 45.4406 29.04C45.3619 29.04 45.2975 28.8147 45.2975 28.5394C45.2975 28.2641 45.2332 28.0389 45.1545 28.0389C45.0759 28.0389 45.0115 27.8772 45.0115 27.6794C45.0115 27.4817 44.955 27.2082 44.886 27.0716C44.5088 26.3256 44.2965 25.6937 44.2965 25.3168C44.2965 25.0836 44.2321 24.8927 44.1535 24.8927C44.0748 24.8927 44.0105 24.7357 44.0105 24.5436C44.0105 24.3515 43.9461 24.1547 43.8674 24.1061C43.7888 24.0575 43.7244 23.868 43.7244 23.685C43.7244 23.502 43.6283 23.168 43.5108 22.9426C43.3934 22.7174 43.2968 22.4242 43.2963 22.2912C43.2958 22.1582 43.2311 22.0096 43.1524 21.961C43.0737 21.9124 43.0094 21.6834 43.0094 21.452C43.0094 21.2206 42.945 21.0314 42.8664 21.0314C42.7877 21.0314 42.7234 20.8062 42.7234 20.5309C42.7234 20.2556 42.659 20.0303 42.5804 20.0303C42.5017 20.0303 42.4351 19.8856 42.4323 19.7086C42.4295 19.5315 42.3352 19.2259 42.2228 19.0293C42.1104 18.8326 42.0162 18.527 42.0133 18.35C42.0106 18.1729 41.944 18.0282 41.8653 18.0282C41.7867 18.0282 41.7223 17.7708 41.7223 17.4562C41.7223 17.1415 41.6579 16.8841 41.5793 16.8841C41.5006 16.8841 41.4363 16.7558 41.4363 16.5992C41.4363 16.3464 41.1709 15.951 40.614 15.3736C40.5157 15.2718 40.4352 15.1195 40.4352 15.0351C40.4352 14.9509 40.3118 14.882 40.1611 14.882C40.0103 14.882 39.8656 14.8336 39.8393 14.7747C39.8131 14.7158 39.5481 14.5549 39.2505 14.4172L38.7094 14.1669L35.4608 14.1744L32.2121 14.1817L31.6401 14.4153Z" stroke="#CDCDCD" stroke-opacity="0.2" stroke-width="0.902981" mask="url(#path-1-inside-1_363_5352)"/>
<mask id="path-2-inside-2_363_5352" fill="white">
<path fill-rule="evenodd" clip-rule="evenodd" d="M161.589 20.8466L158.525 20.9875L157.544 23.2422C157.004 24.4822 156.452 25.7505 156.317 26.0605C156.182 26.3705 155.881 27.068 155.648 27.6106C155.416 28.1531 154.91 29.2945 154.526 30.1471C154.141 30.9996 153.732 31.9953 153.617 32.3597C153.321 33.2991 153.237 33.1511 150.621 27.0469C147.652 20.1195 148.352 20.8142 144.43 20.9086L141.143 20.9875L140.938 24.6513C140.562 31.3457 140.24 42.1221 140.41 42.3213C140.582 42.5237 146.039 42.7038 146.227 42.5133C146.285 42.4546 146.425 40.0921 146.539 37.2633C146.652 34.4346 146.824 32.1199 146.921 32.1199C147.018 32.1199 147.988 34.3494 149.077 37.0748C151.375 42.8247 151.192 42.6006 153.492 42.4913L155.268 42.4067L156.354 39.7293C156.951 38.2568 157.613 36.6715 157.824 36.2064C158.035 35.7414 158.436 34.7268 158.716 33.9518C158.995 33.1767 159.329 32.4223 159.459 32.2749C159.727 31.9713 159.71 31.7727 159.947 37.8974L160.121 42.4067L163.166 42.4868L166.211 42.5668L166.211 41.2185C166.213 38.7587 165.633 23.8309 165.478 22.3496C165.297 20.6152 165.437 20.6696 161.589 20.8466ZM234.306 20.8232C234.008 21.1222 234.334 21.875 236.341 25.527C237.525 27.6805 238.944 30.2668 239.494 31.2744C240.045 32.2819 240.868 33.7782 241.323 34.5991L242.152 36.092L242.118 38.8266C242.1 40.3308 242.093 41.7876 242.102 42.0643L242.12 42.5674L245.023 42.4871L247.926 42.4067L248.068 39.0188L248.21 35.6307L252.104 28.5212C254.246 24.6107 255.999 21.2843 255.999 21.129C255.999 20.9574 254.774 20.8466 252.879 20.8466H249.759L249.268 21.6741C248.997 22.1292 248.011 24.0234 247.077 25.8835C245.023 29.9712 245.145 29.9489 243.399 26.5517C242.623 25.0417 241.613 23.1478 241.155 22.3434L240.321 20.881L237.372 20.7933C235.75 20.7451 234.37 20.7587 234.306 20.8232ZM89.5066 21.1315C86.3963 21.7812 83.4673 24.0741 82.025 26.9883L81.0957 28.8656V31.6904V34.5154L81.9794 36.3474C83.3483 39.1854 85.4554 41.0134 88.8005 42.2653C93.2724 43.9391 99.3986 41.0272 101.713 36.1284L102.608 34.2336L102.615 31.979C102.637 24.9549 96.3011 19.7119 89.5066 21.1315ZM104.086 21.0346C103.982 21.1377 103.897 26.0205 103.897 31.8851V42.5477H108.086H112.275L113.609 40.2767C115.451 37.1418 115.493 37.2278 112.04 37.1323L109.137 37.0519L109.062 29.1745C109.005 23.3033 108.897 21.2406 108.637 21.076C108.211 20.8071 104.35 20.7716 104.086 21.0346ZM177.54 21.1062C171.257 22.1078 167.066 28.7407 168.905 34.7736C171.865 44.4827 185.141 45.3434 189.376 36.1007L190.102 34.5154L190.112 31.838L190.121 29.1606L189.208 27.28C187.002 22.7346 182.446 20.3241 177.54 21.1062ZM192.691 21.4807C192.606 21.8293 192.571 26.6805 192.615 32.2608L192.694 42.4067H195.668H198.642L198.719 36.9601C198.761 33.9645 198.906 31.5548 199.041 31.6053C199.176 31.6557 201.097 34.1068 203.311 37.0519L207.336 42.4067L209.88 42.5477C211.28 42.6252 212.606 42.5871 212.827 42.4631L213.229 42.2379V31.988C213.229 26.3505 213.152 21.5377 213.057 21.2925L212.885 20.8466H209.941H206.998V26.4832C206.998 29.5834 206.902 32.1131 206.785 32.1047C206.668 32.0962 205.171 30.1668 203.457 27.8169C201.743 25.467 199.86 22.9372 199.273 22.1954L198.204 20.8466H195.525H192.846L192.691 21.4807ZM216.759 21.1955C216.683 21.3925 216.654 26.2454 216.695 31.9801L216.77 42.4067H224.984H233.198V39.8702V37.3338L228.403 37.2563C223.25 37.1728 222.988 37.1049 223.025 35.8564C223.068 34.3813 223.2 34.3328 227.066 34.3771C229.036 34.3996 230.877 34.4083 231.155 34.3962L231.662 34.3745L231.58 31.9085L231.498 29.4425L227.958 29.3734C226.01 29.3357 224.13 29.2381 223.78 29.1567L223.143 29.009V27.7529V26.4965L228.029 26.4195L232.914 26.3423V23.6649V20.9875L224.906 20.9125C218.639 20.8542 216.867 20.9156 216.759 21.1955ZM121.734 28.3856C119.507 32.3769 116.877 37.0511 115.889 38.7725C113.592 42.7759 113.531 42.5477 116.907 42.5477H119.72L120.255 41.7726C120.55 41.3462 121.787 39.222 123.004 37.0519C124.222 34.8818 125.409 32.7988 125.643 32.4234L126.067 31.7402L126.466 32.2825C126.877 32.8405 128.343 35.4404 130.362 39.1913C130.995 40.3682 131.704 41.6013 131.938 41.9316L132.363 42.5324L135.002 42.5775C136.453 42.6023 137.762 42.5017 137.91 42.3543C138.243 42.0234 126.652 21.1284 126.136 21.1284C125.942 21.1284 123.961 24.394 121.734 28.3856ZM94.6229 27.3141C100.063 30.7471 95.7338 39.2234 89.8004 36.7566C84.3337 34.4839 85.8179 26.6149 91.7326 26.5109L93.3058 26.4832L94.6229 27.3141ZM181.58 26.8355C185.427 28.9746 185.83 33.9521 182.343 36.2481C177.121 39.6868 171.129 32.7915 175.359 28.2111C176.885 26.5582 179.888 25.8945 181.58 26.8355Z"/>
</mask>
<path fill-rule="evenodd" clip-rule="evenodd" d="M161.589 20.8466L158.525 20.9875L157.544 23.2422C157.004 24.4822 156.452 25.7505 156.317 26.0605C156.182 26.3705 155.881 27.068 155.648 27.6106C155.416 28.1531 154.91 29.2945 154.526 30.1471C154.141 30.9996 153.732 31.9953 153.617 32.3597C153.321 33.2991 153.237 33.1511 150.621 27.0469C147.652 20.1195 148.352 20.8142 144.43 20.9086L141.143 20.9875L140.938 24.6513C140.562 31.3457 140.24 42.1221 140.41 42.3213C140.582 42.5237 146.039 42.7038 146.227 42.5133C146.285 42.4546 146.425 40.0921 146.539 37.2633C146.652 34.4346 146.824 32.1199 146.921 32.1199C147.018 32.1199 147.988 34.3494 149.077 37.0748C151.375 42.8247 151.192 42.6006 153.492 42.4913L155.268 42.4067L156.354 39.7293C156.951 38.2568 157.613 36.6715 157.824 36.2064C158.035 35.7414 158.436 34.7268 158.716 33.9518C158.995 33.1767 159.329 32.4223 159.459 32.2749C159.727 31.9713 159.71 31.7727 159.947 37.8974L160.121 42.4067L163.166 42.4868L166.211 42.5668L166.211 41.2185C166.213 38.7587 165.633 23.8309 165.478 22.3496C165.297 20.6152 165.437 20.6696 161.589 20.8466ZM234.306 20.8232C234.008 21.1222 234.334 21.875 236.341 25.527C237.525 27.6805 238.944 30.2668 239.494 31.2744C240.045 32.2819 240.868 33.7782 241.323 34.5991L242.152 36.092L242.118 38.8266C242.1 40.3308 242.093 41.7876 242.102 42.0643L242.12 42.5674L245.023 42.4871L247.926 42.4067L248.068 39.0188L248.21 35.6307L252.104 28.5212C254.246 24.6107 255.999 21.2843 255.999 21.129C255.999 20.9574 254.774 20.8466 252.879 20.8466H249.759L249.268 21.6741C248.997 22.1292 248.011 24.0234 247.077 25.8835C245.023 29.9712 245.145 29.9489 243.399 26.5517C242.623 25.0417 241.613 23.1478 241.155 22.3434L240.321 20.881L237.372 20.7933C235.75 20.7451 234.37 20.7587 234.306 20.8232ZM89.5066 21.1315C86.3963 21.7812 83.4673 24.0741 82.025 26.9883L81.0957 28.8656V31.6904V34.5154L81.9794 36.3474C83.3483 39.1854 85.4554 41.0134 88.8005 42.2653C93.2724 43.9391 99.3986 41.0272 101.713 36.1284L102.608 34.2336L102.615 31.979C102.637 24.9549 96.3011 19.7119 89.5066 21.1315ZM104.086 21.0346C103.982 21.1377 103.897 26.0205 103.897 31.8851V42.5477H108.086H112.275L113.609 40.2767C115.451 37.1418 115.493 37.2278 112.04 37.1323L109.137 37.0519L109.062 29.1745C109.005 23.3033 108.897 21.2406 108.637 21.076C108.211 20.8071 104.35 20.7716 104.086 21.0346ZM177.54 21.1062C171.257 22.1078 167.066 28.7407 168.905 34.7736C171.865 44.4827 185.141 45.3434 189.376 36.1007L190.102 34.5154L190.112 31.838L190.121 29.1606L189.208 27.28C187.002 22.7346 182.446 20.3241 177.54 21.1062ZM192.691 21.4807C192.606 21.8293 192.571 26.6805 192.615 32.2608L192.694 42.4067H195.668H198.642L198.719 36.9601C198.761 33.9645 198.906 31.5548 199.041 31.6053C199.176 31.6557 201.097 34.1068 203.311 37.0519L207.336 42.4067L209.88 42.5477C211.28 42.6252 212.606 42.5871 212.827 42.4631L213.229 42.2379V31.988C213.229 26.3505 213.152 21.5377 213.057 21.2925L212.885 20.8466H209.941H206.998V26.4832C206.998 29.5834 206.902 32.1131 206.785 32.1047C206.668 32.0962 205.171 30.1668 203.457 27.8169C201.743 25.467 199.86 22.9372 199.273 22.1954L198.204 20.8466H195.525H192.846L192.691 21.4807ZM216.759 21.1955C216.683 21.3925 216.654 26.2454 216.695 31.9801L216.77 42.4067H224.984H233.198V39.8702V37.3338L228.403 37.2563C223.25 37.1728 222.988 37.1049 223.025 35.8564C223.068 34.3813 223.2 34.3328 227.066 34.3771C229.036 34.3996 230.877 34.4083 231.155 34.3962L231.662 34.3745L231.58 31.9085L231.498 29.4425L227.958 29.3734C226.01 29.3357 224.13 29.2381 223.78 29.1567L223.143 29.009V27.7529V26.4965L228.029 26.4195L232.914 26.3423V23.6649V20.9875L224.906 20.9125C218.639 20.8542 216.867 20.9156 216.759 21.1955ZM121.734 28.3856C119.507 32.3769 116.877 37.0511 115.889 38.7725C113.592 42.7759 113.531 42.5477 116.907 42.5477H119.72L120.255 41.7726C120.55 41.3462 121.787 39.222 123.004 37.0519C124.222 34.8818 125.409 32.7988 125.643 32.4234L126.067 31.7402L126.466 32.2825C126.877 32.8405 128.343 35.4404 130.362 39.1913C130.995 40.3682 131.704 41.6013 131.938 41.9316L132.363 42.5324L135.002 42.5775C136.453 42.6023 137.762 42.5017 137.91 42.3543C138.243 42.0234 126.652 21.1284 126.136 21.1284C125.942 21.1284 123.961 24.394 121.734 28.3856ZM94.6229 27.3141C100.063 30.7471 95.7338 39.2234 89.8004 36.7566C84.3337 34.4839 85.8179 26.6149 91.7326 26.5109L93.3058 26.4832L94.6229 27.3141ZM181.58 26.8355C185.427 28.9746 185.83 33.9521 182.343 36.2481C177.121 39.6868 171.129 32.7915 175.359 28.2111C176.885 26.5582 179.888 25.8945 181.58 26.8355Z" fill="#111111"/>
<path fill-rule="evenodd" clip-rule="evenodd" d="M161.589 20.8466L158.525 20.9875L157.544 23.2422C157.004 24.4822 156.452 25.7505 156.317 26.0605C156.182 26.3705 155.881 27.068 155.648 27.6106C155.416 28.1531 154.91 29.2945 154.526 30.1471C154.141 30.9996 153.732 31.9953 153.617 32.3597C153.321 33.2991 153.237 33.1511 150.621 27.0469C147.652 20.1195 148.352 20.8142 144.43 20.9086L141.143 20.9875L140.938 24.6513C140.562 31.3457 140.24 42.1221 140.41 42.3213C140.582 42.5237 146.039 42.7038 146.227 42.5133C146.285 42.4546 146.425 40.0921 146.539 37.2633C146.652 34.4346 146.824 32.1199 146.921 32.1199C147.018 32.1199 147.988 34.3494 149.077 37.0748C151.375 42.8247 151.192 42.6006 153.492 42.4913L155.268 42.4067L156.354 39.7293C156.951 38.2568 157.613 36.6715 157.824 36.2064C158.035 35.7414 158.436 34.7268 158.716 33.9518C158.995 33.1767 159.329 32.4223 159.459 32.2749C159.727 31.9713 159.71 31.7727 159.947 37.8974L160.121 42.4067L163.166 42.4868L166.211 42.5668L166.211 41.2185C166.213 38.7587 165.633 23.8309 165.478 22.3496C165.297 20.6152 165.437 20.6696 161.589 20.8466ZM234.306 20.8232C234.008 21.1222 234.334 21.875 236.341 25.527C237.525 27.6805 238.944 30.2668 239.494 31.2744C240.045 32.2819 240.868 33.7782 241.323 34.5991L242.152 36.092L242.118 38.8266C242.1 40.3308 242.093 41.7876 242.102 42.0643L242.12 42.5674L245.023 42.4871L247.926 42.4067L248.068 39.0188L248.21 35.6307L252.104 28.5212C254.246 24.6107 255.999 21.2843 255.999 21.129C255.999 20.9574 254.774 20.8466 252.879 20.8466H249.759L249.268 21.6741C248.997 22.1292 248.011 24.0234 247.077 25.8835C245.023 29.9712 245.145 29.9489 243.399 26.5517C242.623 25.0417 241.613 23.1478 241.155 22.3434L240.321 20.881L237.372 20.7933C235.75 20.7451 234.37 20.7587 234.306 20.8232ZM89.5066 21.1315C86.3963 21.7812 83.4673 24.0741 82.025 26.9883L81.0957 28.8656V31.6904V34.5154L81.9794 36.3474C83.3483 39.1854 85.4554 41.0134 88.8005 42.2653C93.2724 43.9391 99.3986 41.0272 101.713 36.1284L102.608 34.2336L102.615 31.979C102.637 24.9549 96.3011 19.7119 89.5066 21.1315ZM104.086 21.0346C103.982 21.1377 103.897 26.0205 103.897 31.8851V42.5477H108.086H112.275L113.609 40.2767C115.451 37.1418 115.493 37.2278 112.04 37.1323L109.137 37.0519L109.062 29.1745C109.005 23.3033 108.897 21.2406 108.637 21.076C108.211 20.8071 104.35 20.7716 104.086 21.0346ZM177.54 21.1062C171.257 22.1078 167.066 28.7407 168.905 34.7736C171.865 44.4827 185.141 45.3434 189.376 36.1007L190.102 34.5154L190.112 31.838L190.121 29.1606L189.208 27.28C187.002 22.7346 182.446 20.3241 177.54 21.1062ZM192.691 21.4807C192.606 21.8293 192.571 26.6805 192.615 32.2608L192.694 42.4067H195.668H198.642L198.719 36.9601C198.761 33.9645 198.906 31.5548 199.041 31.6053C199.176 31.6557 201.097 34.1068 203.311 37.0519L207.336 42.4067L209.88 42.5477C211.28 42.6252 212.606 42.5871 212.827 42.4631L213.229 42.2379V31.988C213.229 26.3505 213.152 21.5377 213.057 21.2925L212.885 20.8466H209.941H206.998V26.4832C206.998 29.5834 206.902 32.1131 206.785 32.1047C206.668 32.0962 205.171 30.1668 203.457 27.8169C201.743 25.467 199.86 22.9372 199.273 22.1954L198.204 20.8466H195.525H192.846L192.691 21.4807ZM216.759 21.1955C216.683 21.3925 216.654 26.2454 216.695 31.9801L216.77 42.4067H224.984H233.198V39.8702V37.3338L228.403 37.2563C223.25 37.1728 222.988 37.1049 223.025 35.8564C223.068 34.3813 223.2 34.3328 227.066 34.3771C229.036 34.3996 230.877 34.4083 231.155 34.3962L231.662 34.3745L231.58 31.9085L231.498 29.4425L227.958 29.3734C226.01 29.3357 224.13 29.2381 223.78 29.1567L223.143 29.009V27.7529V26.4965L228.029 26.4195L232.914 26.3423V23.6649V20.9875L224.906 20.9125C218.639 20.8542 216.867 20.9156 216.759 21.1955ZM121.734 28.3856C119.507 32.3769 116.877 37.0511 115.889 38.7725C113.592 42.7759 113.531 42.5477 116.907 42.5477H119.72L120.255 41.7726C120.55 41.3462 121.787 39.222 123.004 37.0519C124.222 34.8818 125.409 32.7988 125.643 32.4234L126.067 31.7402L126.466 32.2825C126.877 32.8405 128.343 35.4404 130.362 39.1913C130.995 40.3682 131.704 41.6013 131.938 41.9316L132.363 42.5324L135.002 42.5775C136.453 42.6023 137.762 42.5017 137.91 42.3543C138.243 42.0234 126.652 21.1284 126.136 21.1284C125.942 21.1284 123.961 24.394 121.734 28.3856ZM94.6229 27.3141C100.063 30.7471 95.7338 39.2234 89.8004 36.7566C84.3337 34.4839 85.8179 26.6149 91.7326 26.5109L93.3058 26.4832L94.6229 27.3141ZM181.58 26.8355C185.427 28.9746 185.83 33.9521 182.343 36.2481C177.121 39.6868 171.129 32.7915 175.359 28.2111C176.885 26.5582 179.888 25.8945 181.58 26.8355Z" fill="#515151"/>
<path fill-rule="evenodd" clip-rule="evenodd" d="M161.589 20.8466L158.525 20.9875L157.544 23.2422C157.004 24.4822 156.452 25.7505 156.317 26.0605C156.182 26.3705 155.881 27.068 155.648 27.6106C155.416 28.1531 154.91 29.2945 154.526 30.1471C154.141 30.9996 153.732 31.9953 153.617 32.3597C153.321 33.2991 153.237 33.1511 150.621 27.0469C147.652 20.1195 148.352 20.8142 144.43 20.9086L141.143 20.9875L140.938 24.6513C140.562 31.3457 140.24 42.1221 140.41 42.3213C140.582 42.5237 146.039 42.7038 146.227 42.5133C146.285 42.4546 146.425 40.0921 146.539 37.2633C146.652 34.4346 146.824 32.1199 146.921 32.1199C147.018 32.1199 147.988 34.3494 149.077 37.0748C151.375 42.8247 151.192 42.6006 153.492 42.4913L155.268 42.4067L156.354 39.7293C156.951 38.2568 157.613 36.6715 157.824 36.2064C158.035 35.7414 158.436 34.7268 158.716 33.9518C158.995 33.1767 159.329 32.4223 159.459 32.2749C159.727 31.9713 159.71 31.7727 159.947 37.8974L160.121 42.4067L163.166 42.4868L166.211 42.5668L166.211 41.2185C166.213 38.7587 165.633 23.8309 165.478 22.3496C165.297 20.6152 165.437 20.6696 161.589 20.8466ZM234.306 20.8232C234.008 21.1222 234.334 21.875 236.341 25.527C237.525 27.6805 238.944 30.2668 239.494 31.2744C240.045 32.2819 240.868 33.7782 241.323 34.5991L242.152 36.092L242.118 38.8266C242.1 40.3308 242.093 41.7876 242.102 42.0643L242.12 42.5674L245.023 42.4871L247.926 42.4067L248.068 39.0188L248.21 35.6307L252.104 28.5212C254.246 24.6107 255.999 21.2843 255.999 21.129C255.999 20.9574 254.774 20.8466 252.879 20.8466H249.759L249.268 21.6741C248.997 22.1292 248.011 24.0234 247.077 25.8835C245.023 29.9712 245.145 29.9489 243.399 26.5517C242.623 25.0417 241.613 23.1478 241.155 22.3434L240.321 20.881L237.372 20.7933C235.75 20.7451 234.37 20.7587 234.306 20.8232ZM89.5066 21.1315C86.3963 21.7812 83.4673 24.0741 82.025 26.9883L81.0957 28.8656V31.6904V34.5154L81.9794 36.3474C83.3483 39.1854 85.4554 41.0134 88.8005 42.2653C93.2724 43.9391 99.3986 41.0272 101.713 36.1284L102.608 34.2336L102.615 31.979C102.637 24.9549 96.3011 19.7119 89.5066 21.1315ZM104.086 21.0346C103.982 21.1377 103.897 26.0205 103.897 31.8851V42.5477H108.086H112.275L113.609 40.2767C115.451 37.1418 115.493 37.2278 112.04 37.1323L109.137 37.0519L109.062 29.1745C109.005 23.3033 108.897 21.2406 108.637 21.076C108.211 20.8071 104.35 20.7716 104.086 21.0346ZM177.54 21.1062C171.257 22.1078 167.066 28.7407 168.905 34.7736C171.865 44.4827 185.141 45.3434 189.376 36.1007L190.102 34.5154L190.112 31.838L190.121 29.1606L189.208 27.28C187.002 22.7346 182.446 20.3241 177.54 21.1062ZM192.691 21.4807C192.606 21.8293 192.571 26.6805 192.615 32.2608L192.694 42.4067H195.668H198.642L198.719 36.9601C198.761 33.9645 198.906 31.5548 199.041 31.6053C199.176 31.6557 201.097 34.1068 203.311 37.0519L207.336 42.4067L209.88 42.5477C211.28 42.6252 212.606 42.5871 212.827 42.4631L213.229 42.2379V31.988C213.229 26.3505 213.152 21.5377 213.057 21.2925L212.885 20.8466H209.941H206.998V26.4832C206.998 29.5834 206.902 32.1131 206.785 32.1047C206.668 32.0962 205.171 30.1668 203.457 27.8169C201.743 25.467 199.86 22.9372 199.273 22.1954L198.204 20.8466H195.525H192.846L192.691 21.4807ZM216.759 21.1955C216.683 21.3925 216.654 26.2454 216.695 31.9801L216.77 42.4067H224.984H233.198V39.8702V37.3338L228.403 37.2563C223.25 37.1728 222.988 37.1049 223.025 35.8564C223.068 34.3813 223.2 34.3328 227.066 34.3771C229.036 34.3996 230.877 34.4083 231.155 34.3962L231.662 34.3745L231.58 31.9085L231.498 29.4425L227.958 29.3734C226.01 29.3357 224.13 29.2381 223.78 29.1567L223.143 29.009V27.7529V26.4965L228.029 26.4195L232.914 26.3423V23.6649V20.9875L224.906 20.9125C218.639 20.8542 216.867 20.9156 216.759 21.1955ZM121.734 28.3856C119.507 32.3769 116.877 37.0511 115.889 38.7725C113.592 42.7759 113.531 42.5477 116.907 42.5477H119.72L120.255 41.7726C120.55 41.3462 121.787 39.222 123.004 37.0519C124.222 34.8818 125.409 32.7988 125.643 32.4234L126.067 31.7402L126.466 32.2825C126.877 32.8405 128.343 35.4404 130.362 39.1913C130.995 40.3682 131.704 41.6013 131.938 41.9316L132.363 42.5324L135.002 42.5775C136.453 42.6023 137.762 42.5017 137.91 42.3543C138.243 42.0234 126.652 21.1284 126.136 21.1284C125.942 21.1284 123.961 24.394 121.734 28.3856ZM94.6229 27.3141C100.063 30.7471 95.7338 39.2234 89.8004 36.7566C84.3337 34.4839 85.8179 26.6149 91.7326 26.5109L93.3058 26.4832L94.6229 27.3141ZM181.58 26.8355C185.427 28.9746 185.83 33.9521 182.343 36.2481C177.121 39.6868 171.129 32.7915 175.359 28.2111C176.885 26.5582 179.888 25.8945 181.58 26.8355Z" stroke="#CDCDCD" stroke-opacity="0.2" stroke-width="0.902981" mask="url(#path-2-inside-2_363_5352)"/>
</g>
<defs>
<filter id="filter0_d_363_5352" x="0.495069" y="0.60763" width="264.533" height="62.2847" filterUnits="userSpaceOnUse" color-interpolation-filters="sRGB">
<feFlood flood-opacity="0" result="BackgroundImageFix"/>
<feColorMatrix in="SourceAlpha" type="matrix" values="0 0 0 0 0 0 0 0 0 0 0 0 0 0 0 0 0 0 127 0" result="hardAlpha"/>
<feOffset dx="-4.5149"/>
<feGaussianBlur stdDeviation="6.77236"/>
<feComposite in2="hardAlpha" operator="out"/>
<feColorMatrix type="matrix" values="0 0 0 0 0 0 0 0 0 0 0 0 0 0 0 0 0 0 0.45 0"/>
<feBlend mode="normal" in2="BackgroundImageFix" result="effect1_dropShadow_363_5352"/>
<feBlend mode="normal" in="SourceGraphic" in2="effect1_dropShadow_363_5352" result="shape"/>
</filter>
</defs>
</svg>
