<svg width="172" height="173" viewBox="0 0 172 173" fill="none" xmlns="http://www.w3.org/2000/svg">
<g id="Illustration">
<circle id="Ellipse 1191" cx="86" cy="86.3828" r="86" fill="url(#paint0_radial_140_1362)"/>
<g id="Group 18140717">
<path id="Vector" d="M130.96 44.4854H35.6908C33.078 44.4854 30.96 46.5938 30.96 49.1947V122.839C30.96 125.439 33.078 127.548 35.6908 127.548H130.96C133.573 127.548 135.691 125.439 135.691 122.839V49.1947C135.691 46.5938 133.573 44.4854 130.96 44.4854Z" fill="#0B5243"/>
<path id="Vector_2" d="M129.709 44.604H37.4725C34.8659 44.604 32.7529 46.7125 32.7529 49.3134V122.957C32.7529 125.558 34.8659 127.667 37.4725 127.667H129.709C132.315 127.667 134.428 125.558 134.428 122.957V49.3134C134.428 46.7125 132.315 44.604 129.709 44.604Z" fill="white" stroke="#0B5243" stroke-width="0.257849" stroke-miterlimit="10"/>
<path id="Vector_3" d="M37.3464 44.4854H129.583C132.186 44.4854 134.302 46.6645 134.302 49.3516V51.986H32.627V49.3516C32.627 46.6645 34.743 44.4854 37.3464 44.4854Z" fill="#E0EED5" stroke="#0B5243" stroke-width="0.257849" stroke-miterlimit="10"/>
<path id="Vector_4" d="M38.7386 49.7641C39.5057 49.7641 40.1276 49.1422 40.1276 48.3751C40.1276 47.608 39.5057 46.9861 38.7386 46.9861C37.9715 46.9861 37.3496 47.608 37.3496 48.3751C37.3496 49.1422 37.9715 49.7641 38.7386 49.7641Z" fill="#FBF9ED" stroke="#0B5243" stroke-width="0.257849" stroke-miterlimit="10"/>
<path id="Vector_5" d="M42.9056 49.7641C43.6727 49.7641 44.2946 49.1422 44.2946 48.3751C44.2946 47.608 43.6727 46.9861 42.9056 46.9861C42.1385 46.9861 41.5166 47.608 41.5166 48.3751C41.5166 49.1422 42.1385 49.7641 42.9056 49.7641Z" fill="#FBF9ED" stroke="#0B5243" stroke-width="0.257849" stroke-miterlimit="10"/>
<path id="Vector_6" d="M47.3499 49.7641C48.1171 49.7641 48.739 49.1422 48.739 48.3751C48.739 47.608 48.1171 46.9861 47.3499 46.9861C46.5828 46.9861 45.9609 47.608 45.9609 48.3751C45.9609 49.1422 46.5828 49.7641 47.3499 49.7641Z" fill="#FBF9ED" stroke="#0B5243" stroke-width="0.257849" stroke-miterlimit="10"/>
<g id="Group 72">
<g id="Group 18140716">
<path id="Vector_7" d="M107.248 62.4792H46.2703C44.1214 62.4792 42.3794 64.4746 42.3794 66.9359V109.592C42.3794 112.054 44.1214 114.049 46.2703 114.049H107.248C109.397 114.049 111.139 112.054 111.139 109.592V66.9359C111.139 64.4746 109.397 62.4792 107.248 62.4792Z" fill="#E0EED5"/>
<path id="Vector_8" d="M69.5091 101.589H46.2398C45.7123 101.589 45.2847 102.008 45.2847 102.523V102.732C45.2847 103.248 45.7123 103.666 46.2398 103.666H69.5091C70.0366 103.666 70.4643 103.248 70.4643 102.732V102.523C70.4643 102.008 70.0366 101.589 69.5091 101.589Z" fill="#83BAA0"/>
<path id="Vector_9" d="M65.3005 106.087H46.2518C45.7177 106.087 45.2847 106.506 45.2847 107.022V107.23C45.2847 107.746 45.7177 108.164 46.2518 108.164H65.3005C65.8347 108.164 66.2677 107.746 66.2677 107.23V107.022C66.2677 106.506 65.8347 106.087 65.3005 106.087Z" fill="#83BAA0"/>
<path id="Vector_10" d="M105.802 105.742H96.4613C95.8314 105.742 95.3208 106.251 95.3208 106.878V108.414C95.3208 109.041 95.8314 109.55 96.4613 109.55H105.802C106.432 109.55 106.942 109.041 106.942 108.414V106.878C106.942 106.251 106.432 105.742 105.802 105.742Z" fill="#0B5243"/>
<g id="Group 5">
<path id="Vector_11" d="M47.0869 91.0777C47.0869 91.0777 53.5613 80.6752 57.9493 80.6752C62.6182 80.6752 65.5654 85.5128 69.7418 85.5128C74.5967 85.5128 77.0989 76.6355 82.7016 76.6355C88.3042 76.6355 91.08 81.7272 96.1209 81.7272C101.162 81.7272 104.911 72.3767 104.911 72.3767" stroke="#0B5243" stroke-width="0.257849" stroke-linecap="round" stroke-linejoin="round"/>
<path id="Vector_12" d="M47.5539 92.2378C48.3355 92.2378 48.9692 91.5585 48.9692 90.7205C48.9692 89.8825 48.3355 89.2031 47.5539 89.2031C46.7723 89.2031 46.1387 89.8825 46.1387 90.7205C46.1387 91.5585 46.7723 92.2378 47.5539 92.2378Z" fill="#FBF9ED"/>
<path id="Vector_13" d="M58.07 82.232C58.8517 82.232 59.4853 81.5526 59.4853 80.7146C59.4853 79.8766 58.8517 79.1973 58.07 79.1973C57.2884 79.1973 56.6548 79.8766 56.6548 80.7146C56.6548 81.5526 57.2884 82.232 58.07 82.232Z" fill="#FBF9ED"/>
<path id="Vector_14" d="M69.7819 86.8091C70.5636 86.8091 71.1972 86.1298 71.1972 85.2918C71.1972 84.4538 70.5636 83.7744 69.7819 83.7744C69.0003 83.7744 68.3667 84.4538 68.3667 85.2918C68.3667 86.1298 69.0003 86.8091 69.7819 86.8091Z" fill="#FBF9ED"/>
<path id="Vector_15" d="M82.5378 78.1724C83.3194 78.1724 83.9531 77.4931 83.9531 76.6551C83.9531 75.817 83.3194 75.1377 82.5378 75.1377C81.7562 75.1377 81.1226 75.817 81.1226 76.6551C81.1226 77.4931 81.7562 78.1724 82.5378 78.1724Z" fill="#FBF9ED"/>
<path id="Vector_16" d="M95.6286 83.2476C96.4102 83.2476 97.0439 82.5683 97.0439 81.7302C97.0439 80.8922 96.4102 80.2129 95.6286 80.2129C94.847 80.2129 94.2134 80.8922 94.2134 81.7302C94.2134 82.5683 94.847 83.2476 95.6286 83.2476Z" fill="#FBF9ED"/>
<path id="Vector_17" d="M104.911 73.8951C105.693 73.8951 106.327 73.2157 106.327 72.3777C106.327 71.5397 105.693 70.8604 104.911 70.8604C104.13 70.8604 103.496 71.5397 103.496 72.3777C103.496 73.2157 104.13 73.8951 104.911 73.8951Z" fill="#FBF9ED"/>
</g>
</g>
</g>
<g id="Group 18140715">
<g id="Group 50">
<rect id="Rectangle 26" x="110.806" y="105.117" width="30.4146" height="30.4146" rx="2.75039" fill="#0B5243"/>
<rect id="Rectangle 25" x="110.235" y="105.246" width="30.1567" height="30.1567" rx="2.62146" fill="white" stroke="#0B5243" stroke-width="0.257849"/>
<g id="Group 35">
<path id="Rectangle 24" d="M110.235 107.872C110.235 106.424 111.409 105.25 112.857 105.25H137.771C139.218 105.25 140.392 106.424 140.392 107.872V110.236H110.235V107.872Z" fill="#E0EED5" stroke="#0B5243" stroke-width="0.257849"/>
<path id="Vector_18" d="M113.222 108.905C113.784 108.905 114.239 108.449 114.239 107.887C114.239 107.325 113.784 106.87 113.222 106.87C112.66 106.87 112.204 107.325 112.204 107.887C112.204 108.449 112.66 108.905 113.222 108.905Z" fill="#FBF9ED" stroke="#0B5243" stroke-width="0.257849" stroke-miterlimit="10"/>
<path id="Vector_19" d="M116.276 108.905C116.838 108.905 117.294 108.449 117.294 107.887C117.294 107.325 116.838 106.87 116.276 106.87C115.714 106.87 115.259 107.325 115.259 107.887C115.259 108.449 115.714 108.905 116.276 108.905Z" fill="#FBF9ED" stroke="#0B5243" stroke-width="0.257849" stroke-miterlimit="10"/>
<path id="Vector_20" d="M119.333 108.905C119.895 108.905 120.351 108.449 120.351 107.887C120.351 107.325 119.895 106.87 119.333 106.87C118.772 106.87 118.316 107.325 118.316 107.887C118.316 108.449 118.772 108.905 119.333 108.905Z" fill="#FBF9ED" stroke="#0B5243" stroke-width="0.257849" stroke-miterlimit="10"/>
</g>
</g>
<g id="Group 3">
<path id="Vector_21" d="M128.59 126.635C128.59 126.635 128.589 126.634 128.589 126.635C127.672 127.704 126.314 128.386 124.793 128.386C123.433 128.386 122.196 127.838 121.294 126.954C121.113 126.777 120.829 126.743 120.626 126.894L117.098 129.528C116.885 129.687 116.84 129.989 117.009 130.193C118.869 132.451 121.685 133.889 124.837 133.889C127.986 133.889 130.718 132.496 132.572 130.301C132.743 130.098 132.703 129.795 132.493 129.634L128.59 126.635C128.59 126.635 128.59 126.635 128.59 126.635Z" fill="#BDDDAB"/>
<path id="Vector_22" d="M119.764 123.384C119.764 122.406 120.048 121.495 120.535 120.724C120.674 120.504 120.642 120.211 120.441 120.047L117.453 117.61C117.248 117.442 116.944 117.472 116.787 117.686C115.665 119.216 115.001 121.103 115.001 123.145C115.001 125.045 115.575 126.811 116.559 128.28C116.706 128.5 117.008 128.542 117.22 128.384L120.132 126.211C120.329 126.063 120.381 125.791 120.272 125.569C119.948 124.909 119.764 124.169 119.764 123.384Z" fill="#0B5243"/>
<path id="Vector_23" d="M124.746 118.382C124.772 118.382 124.793 118.363 124.793 118.337V114.725C124.793 114.46 124.578 114.244 124.313 114.259C122.068 114.386 120.061 115.401 118.635 116.956C118.455 117.152 118.487 117.455 118.693 117.623L120.981 119.49C121.168 119.643 121.438 119.631 121.627 119.48C122.482 118.795 123.565 118.382 124.746 118.382Z" fill="#FDD500"/>
<path id="Vector_24" d="M125.868 112.12C125.603 112.108 125.388 112.324 125.388 112.59V118.001C125.388 118.244 125.569 118.445 125.806 118.496C128.068 118.974 129.766 120.98 129.766 123.384C129.766 124.182 129.577 124.933 129.243 125.602C129.134 125.821 129.182 126.092 129.377 126.242L133.779 129.625C133.989 129.786 134.291 129.747 134.444 129.531C135.708 127.732 136.453 125.541 136.453 123.176C136.454 117.226 131.757 112.371 125.868 112.12Z" fill="#A7D18F"/>
</g>
</g>
<g id="Group 73">
<rect id="Rectangle 26_2" x="110.469" y="37.0356" width="30.6861" height="30.6861" rx="2.75039" fill="#0B5243"/>
<rect id="Rectangle 25_2" x="109.892" y="37.1646" width="30.4283" height="30.4283" rx="2.62146" fill="white" stroke="#0B5243" stroke-width="0.257849"/>
<g id="Group 35_2">
<path id="Rectangle 24_2" d="M109.892 39.7824C109.892 38.3346 111.066 37.1609 112.514 37.1609H137.699C139.147 37.1609 140.32 38.3346 140.32 39.7824V42.1938H109.892V39.7824Z" fill="#E0EED5" stroke="#0B5243" stroke-width="0.257849"/>
<path id="Vector_25" d="M112.906 40.8507C113.473 40.8507 113.933 40.391 113.933 39.824C113.933 39.257 113.473 38.7974 112.906 38.7974C112.339 38.7974 111.879 39.257 111.879 39.824C111.879 40.391 112.339 40.8507 112.906 40.8507Z" fill="#FBF9ED" stroke="#0B5243" stroke-width="0.257849" stroke-miterlimit="10"/>
<path id="Vector_26" d="M115.988 40.8507C116.555 40.8507 117.015 40.391 117.015 39.824C117.015 39.257 116.555 38.7974 115.988 38.7974C115.421 38.7974 114.961 39.257 114.961 39.824C114.961 40.391 115.421 40.8507 115.988 40.8507Z" fill="#FBF9ED" stroke="#0B5243" stroke-width="0.257849" stroke-miterlimit="10"/>
<path id="Vector_27" d="M119.073 40.8507C119.64 40.8507 120.099 40.391 120.099 39.824C120.099 39.257 119.64 38.7974 119.073 38.7974C118.506 38.7974 118.046 39.257 118.046 39.824C118.046 40.391 118.506 40.8507 119.073 40.8507Z" fill="#FBF9ED" stroke="#0B5243" stroke-width="0.257849" stroke-miterlimit="10"/>
</g>
<g id="Group 6">
<path id="Vector_28" d="M115.936 51.04H114.641C114.09 51.04 113.643 51.4869 113.643 52.0382V62.4362C113.643 62.9875 114.09 63.4344 114.641 63.4344H115.936C116.487 63.4344 116.934 62.9875 116.934 62.4362V52.0382C116.934 51.4869 116.487 51.04 115.936 51.04Z" fill="#0B5243"/>
<path id="Vector_29" d="M135.571 48.9805H134.276C133.725 48.9805 133.278 49.4274 133.278 49.9787V62.4365C133.278 62.9878 133.725 63.4347 134.276 63.4347H135.571C136.122 63.4347 136.569 62.9878 136.569 62.4365V49.9787C136.569 49.4274 136.122 48.9805 135.571 48.9805Z" fill="#0B5243"/>
<path id="Vector_30" d="M122.722 53.5464H121.427C120.876 53.5464 120.429 53.9933 120.429 54.5446V62.4348C120.429 62.9861 120.876 63.433 121.427 63.433H122.722C123.273 63.433 123.72 62.9861 123.72 62.4348V54.5446C123.72 53.9933 123.273 53.5464 122.722 53.5464Z" fill="#0B5243"/>
<path id="Vector_31" d="M129.297 44.7937H128.002C127.451 44.7937 127.004 45.2406 127.004 45.7919V62.4365C127.004 62.9877 127.451 63.4346 128.002 63.4346H129.297C129.848 63.4346 130.295 62.9877 130.295 62.4365V45.7919C130.295 45.2406 129.848 44.7937 129.297 44.7937Z" fill="#0B5243"/>
</g>
</g>
</g>
</g>
<defs>
<radialGradient id="paint0_radial_140_1362" cx="0" cy="0" r="1" gradientUnits="userSpaceOnUse" gradientTransform="translate(86 86.3828) rotate(90) scale(86)">
<stop offset="0.0104167" stop-color="#51AC3C"/>
<stop offset="0.364583" stop-color="#82BC74" stop-opacity="0.642105"/>
<stop offset="0.661458" stop-color="#A5E397" stop-opacity="0.294737"/>
<stop offset="1" stop-color="#D9D9D9" stop-opacity="0"/>
</radialGradient>
</defs>
</svg>
