<svg width="198" height="52" viewBox="0 0 198 52" fill="none" xmlns="http://www.w3.org/2000/svg">
<path fill-rule="evenodd" clip-rule="evenodd" d="M40.3914 5.89496C36.9033 5.89496 34.0756 8.72264 34.0756 12.2108C34.0756 15.6989 36.9033 18.5266 40.3914 18.5266C43.8796 18.5266 46.7072 15.6989 46.7072 12.2108C46.7072 8.72264 43.8796 5.89496 40.3914 5.89496ZM28.334 12.2108C28.334 5.55162 33.7323 0.15332 40.3914 0.15332C47.0506 0.15332 52.4489 5.55162 52.4489 12.2108C52.4489 18.8699 47.0506 24.2682 40.3914 24.2682C33.7323 24.2682 28.334 18.8699 28.334 12.2108Z" fill="#FFD233"/>
<path fill-rule="evenodd" clip-rule="evenodd" d="M12.8328 5.89496C9.34472 5.89496 6.51703 8.72264 6.51703 12.2108C6.51703 15.6989 9.34472 18.5266 12.8328 18.5266C16.321 18.5266 19.1486 15.6989 19.1486 12.2108C19.1486 8.72264 16.321 5.89496 12.8328 5.89496ZM0.775391 12.2108C0.775391 5.55162 6.17369 0.15332 12.8328 0.15332C19.492 0.15332 24.8903 5.55162 24.8903 12.2108C24.8903 18.8699 19.492 24.2682 12.8328 24.2682C6.17369 24.2682 0.775391 18.8699 0.775391 12.2108Z" fill="#FFD233"/>
<path fill-rule="evenodd" clip-rule="evenodd" d="M40.3914 33.457C36.9033 33.457 34.0756 36.2847 34.0756 39.7728C34.0756 43.2609 36.9033 46.0886 40.3914 46.0886C43.8796 46.0886 46.7072 43.2609 46.7072 39.7728C46.7072 36.2847 43.8796 33.457 40.3914 33.457ZM28.334 39.7728C28.334 33.1136 33.7323 27.7153 40.3914 27.7153C47.0506 27.7153 52.4489 33.1136 52.4489 39.7728C52.4489 46.4319 47.0506 51.8302 40.3914 51.8302C33.7323 51.8302 28.334 46.4319 28.334 39.7728Z" fill="#FFD233"/>
<path d="M85.352 47.0464V30.0901L86.5771 30.2371C86.5445 31.0212 86.2504 31.8053 85.695 32.5894C85.1723 33.3409 84.4698 34.0433 83.5877 34.6967C82.7383 35.3175 81.7745 35.8239 80.6963 36.2159C79.6509 36.5753 78.5564 36.755 77.4129 36.755C75.1259 36.755 73.0676 36.1833 71.238 35.0398C69.4411 33.8636 68.0199 32.2627 66.9745 30.2371C65.929 28.2115 65.4062 25.9082 65.4062 23.3272C65.4062 20.7135 65.9127 18.4102 66.9255 16.4172C67.9709 14.3916 69.3758 12.8071 71.14 11.6636C72.9369 10.4874 74.9789 9.89935 77.2659 9.89935C78.5074 9.89935 79.6999 10.0954 80.8434 10.4874C81.9868 10.8795 83.016 11.4022 83.9308 12.0556C84.8456 12.7091 85.5643 13.4442 86.0871 14.2609C86.6425 15.0777 86.9365 15.9108 86.9692 16.7603L85.401 16.9073L85.499 10.3894H91.3798V47.0464H85.352ZM78.393 31.4133C79.7979 31.4133 81.0394 31.0702 82.1175 30.3841C83.1957 29.698 84.0288 28.7506 84.6169 27.5418C85.2376 26.3329 85.548 24.9281 85.548 23.3272C85.548 21.7263 85.2376 20.3214 84.6169 19.1126C84.0288 17.8711 83.1957 16.9073 82.1175 16.2212C81.0394 15.5351 79.7979 15.1921 78.393 15.1921C76.9882 15.1921 75.7467 15.5515 74.6685 16.2702C73.5904 16.9563 72.7409 17.9201 72.1202 19.1616C71.5321 20.3704 71.238 21.759 71.238 23.3272C71.238 24.8954 71.5321 26.3003 72.1202 27.5418C72.7409 28.7506 73.5904 29.698 74.6685 30.3841C75.7467 31.0702 76.9882 31.4133 78.393 31.4133Z" fill="#FFD233"/>
<path d="M104.937 36.755C103.075 36.755 101.458 36.3466 100.086 35.5298C98.7136 34.6804 97.6681 33.4879 96.9493 31.9524C96.2306 30.3841 95.8712 28.5219 95.8712 26.3656V10.4384H101.899V25.0914C101.899 26.4636 102.111 27.6398 102.536 28.6199C102.961 29.5674 103.582 30.3025 104.398 30.8252C105.215 31.3479 106.195 31.6093 107.339 31.6093C108.188 31.6093 108.956 31.4786 109.642 31.2173C110.361 30.9232 110.982 30.5312 111.504 30.0411C112.027 29.5184 112.435 28.9139 112.729 28.2278C113.024 27.5091 113.171 26.7413 113.171 25.9245V10.4384H119.198V36.2649H113.318L113.22 30.8742L114.298 30.2861C113.906 31.5276 113.236 32.6384 112.288 33.6186C111.374 34.566 110.279 35.3338 109.005 35.9219C107.731 36.4773 106.375 36.755 104.937 36.755Z" fill="#FFD233"/>
<path d="M133.565 36.755C131.442 36.755 129.514 36.1669 127.783 34.9908C126.051 33.8146 124.662 32.2137 123.617 30.1881C122.572 28.1625 122.049 25.8592 122.049 23.2782C122.049 20.6972 122.572 18.3938 123.617 16.3682C124.662 14.3426 126.084 12.7581 127.881 11.6146C129.677 10.4711 131.703 9.89935 133.957 9.89935C135.264 9.89935 136.457 10.0954 137.535 10.4874C138.613 10.8468 139.56 11.3695 140.377 12.0556C141.194 12.7417 141.864 13.5258 142.387 14.408C142.942 15.2901 143.318 16.2375 143.514 17.2504L142.191 16.9073V10.4384H148.267V36.2649H142.142V30.0901L143.563 29.8451C143.334 30.7272 142.909 31.593 142.289 32.4424C141.7 33.2592 140.949 33.9943 140.034 34.6477C139.152 35.2685 138.156 35.7749 137.045 36.1669C135.967 36.559 134.807 36.755 133.565 36.755ZM135.232 31.4133C136.636 31.4133 137.878 31.0702 138.956 30.3841C140.034 29.698 140.867 28.7506 141.455 27.5418C142.076 26.3003 142.387 24.8791 142.387 23.2782C142.387 21.71 142.076 20.3214 141.455 19.1126C140.867 17.9038 140.034 16.9563 138.956 16.2702C137.878 15.5841 136.636 15.2411 135.232 15.2411C133.827 15.2411 132.585 15.5841 131.507 16.2702C130.462 16.9563 129.645 17.9038 129.057 19.1126C128.469 20.3214 128.175 21.71 128.175 23.2782C128.175 24.8791 128.469 26.3003 129.057 27.5418C129.645 28.7506 130.462 29.698 131.507 30.3841C132.585 31.0702 133.827 31.4133 135.232 31.4133Z" fill="#FFD233"/>
<path d="M161.431 36.755C159.144 36.755 157.085 36.3793 155.256 35.6279C153.459 34.8438 151.989 33.7329 150.845 32.2954L154.766 28.9139C155.746 30.0248 156.84 30.8252 158.049 31.3153C159.258 31.8053 160.532 32.0504 161.872 32.0504C162.427 32.0504 162.917 31.985 163.342 31.8543C163.799 31.7237 164.191 31.5276 164.518 31.2663C164.845 31.0049 165.09 30.7109 165.253 30.3841C165.449 30.0248 165.547 29.6327 165.547 29.208C165.547 28.4239 165.253 27.8031 164.665 27.3457C164.338 27.117 163.816 26.872 163.097 26.6106C162.411 26.3493 161.512 26.0879 160.401 25.8265C158.637 25.3691 157.167 24.8464 155.991 24.2583C154.815 23.6376 153.9 22.9515 153.246 22.2C152.691 21.5793 152.266 20.8768 151.972 20.0927C151.711 19.3086 151.58 18.4592 151.58 17.5444C151.58 16.4009 151.825 15.3718 152.315 14.457C152.838 13.5095 153.541 12.6927 154.423 12.0066C155.305 11.3205 156.334 10.7978 157.51 10.4384C158.686 10.079 159.911 9.89935 161.186 9.89935C162.492 9.89935 163.75 10.0627 164.959 10.3894C166.201 10.7161 167.344 11.1899 168.39 11.8106C169.468 12.3987 170.382 13.1175 171.134 13.9669L167.801 17.6424C167.181 17.0543 166.495 16.5316 165.743 16.0742C165.024 15.6168 164.289 15.2574 163.538 14.996C162.786 14.702 162.084 14.555 161.431 14.555C160.81 14.555 160.254 14.6203 159.764 14.751C159.274 14.849 158.866 15.0124 158.539 15.2411C158.213 15.4698 157.951 15.7638 157.755 16.1232C157.592 16.4499 157.51 16.842 157.51 17.2994C157.543 17.6914 157.641 18.0671 157.804 18.4265C158 18.7532 158.262 19.0309 158.588 19.2596C158.948 19.4883 159.487 19.7497 160.205 20.0437C160.924 20.3378 161.855 20.6155 162.999 20.8768C164.6 21.3016 165.939 21.7753 167.017 22.298C168.096 22.8208 168.945 23.4252 169.566 24.1113C170.186 24.6994 170.628 25.3855 170.889 26.1696C171.15 26.9537 171.281 27.8195 171.281 28.7669C171.281 30.3025 170.84 31.6747 169.958 32.8835C169.108 34.0923 167.932 35.0398 166.429 35.7259C164.959 36.412 163.293 36.755 161.431 36.755Z" fill="#FFD233"/>
<path d="M174.141 36.2649V0H180.119V15.7311L178.992 16.3192C179.319 15.1431 179.956 14.0813 180.903 13.1338C181.851 12.1537 182.978 11.3695 184.285 10.7815C185.592 10.1934 186.931 9.89935 188.303 9.89935C190.264 9.89935 191.897 10.2914 193.204 11.0755C194.544 11.8596 195.54 13.0358 196.194 14.604C196.88 16.1722 197.223 18.1325 197.223 20.4848V36.2649H191.195V20.9258C191.195 19.619 191.015 18.5409 190.656 17.6914C190.296 16.8093 189.741 16.1722 188.99 15.7802C188.238 15.3554 187.323 15.1594 186.245 15.1921C185.363 15.1921 184.546 15.3391 183.795 15.6331C183.076 15.8945 182.439 16.2866 181.884 16.8093C181.361 17.2994 180.936 17.8711 180.609 18.5245C180.315 19.1779 180.168 19.8967 180.168 20.6808V36.2649H177.179C176.591 36.2649 176.035 36.2649 175.513 36.2649C175.023 36.2649 174.565 36.2649 174.141 36.2649Z" fill="#FFD233"/>
</svg>
