<svg width="101" height="101" viewBox="0 0 101 101" fill="none" xmlns="http://www.w3.org/2000/svg">
<g id="Frame 1533208574" clip-path="url(#clip0_363_5505)">
<g id="Group 18140781">
<g id="Vector (Stroke)" filter="url(#filter0_d_363_5505)">
<path fill-rule="evenodd" clip-rule="evenodd" d="M10.7598 31.9097C10.7598 30.7417 11.7066 29.7949 12.8745 29.7949L26.118 29.7949C27.2859 29.7949 28.2327 30.7417 28.2327 31.9097C28.2327 33.0776 27.2859 34.0244 26.118 34.0244L12.8745 34.0244C11.7066 34.0244 10.7598 33.0776 10.7598 31.9097ZM32.3004 31.9097C32.3004 30.7417 33.2472 29.7949 34.4152 29.7949H46.8594C48.0273 29.7949 48.9741 30.7417 48.9741 31.9097C48.9741 33.0776 48.0273 34.0244 46.8594 34.0244H34.4152C33.2472 34.0244 32.3004 33.0776 32.3004 31.9097ZM12.8725 40.2069C12.8725 39.0389 13.8193 38.0921 14.9872 38.0921L28.2307 38.0921C29.3986 38.0921 30.3454 39.0389 30.3454 40.2069C30.3454 41.3748 29.3986 42.3216 28.2307 42.3216L14.9872 42.3216C13.8193 42.3216 12.8725 41.3748 12.8725 40.2069ZM19.8513 48.0434C19.8513 46.8755 20.7981 45.9287 21.966 45.9287L35.2095 45.9287C36.3774 45.9287 37.3242 46.8755 37.3242 48.0434C37.3242 49.2113 36.3774 50.1581 35.2095 50.1581L21.966 50.1581C20.7981 50.1581 19.8513 49.2113 19.8513 48.0434ZM10.7598 56.3406C10.7598 55.1726 11.7066 54.2258 12.8745 54.2258H20.6929C21.8609 54.2258 22.8077 55.1726 22.8077 56.3406C22.8077 57.5085 21.8609 58.4553 20.6929 58.4553H12.8745C11.7066 58.4553 10.7598 57.5085 10.7598 56.3406ZM14.9049 63.9995C14.9049 62.8315 15.8517 61.8847 17.0196 61.8847H30.2631C31.4311 61.8847 32.3779 62.8315 32.3779 63.9995C32.3779 65.1674 31.4311 66.1142 30.2631 66.1142H17.0196C15.8517 66.1142 14.9049 65.1674 14.9049 63.9995ZM17.3815 72.2966C17.3815 71.1287 18.3283 70.1819 19.4962 70.1819H27.3146C28.4826 70.1819 29.4294 71.1287 29.4294 72.2966C29.4294 73.4646 28.4826 74.4114 27.3146 74.4114H19.4962C18.3283 74.4114 17.3815 73.4646 17.3815 72.2966ZM25.2763 80.7533C25.2763 79.5854 26.2231 78.6386 27.391 78.6386H41.1167C42.2846 78.6386 43.2314 79.5854 43.2314 80.7533C43.2314 81.9213 42.2846 82.8681 41.1167 82.8681H27.391C26.2231 82.8681 25.2763 81.9213 25.2763 80.7533Z" fill="#111111"/>
<path fill-rule="evenodd" clip-rule="evenodd" d="M10.7598 31.9097C10.7598 30.7417 11.7066 29.7949 12.8745 29.7949L26.118 29.7949C27.2859 29.7949 28.2327 30.7417 28.2327 31.9097C28.2327 33.0776 27.2859 34.0244 26.118 34.0244L12.8745 34.0244C11.7066 34.0244 10.7598 33.0776 10.7598 31.9097ZM32.3004 31.9097C32.3004 30.7417 33.2472 29.7949 34.4152 29.7949H46.8594C48.0273 29.7949 48.9741 30.7417 48.9741 31.9097C48.9741 33.0776 48.0273 34.0244 46.8594 34.0244H34.4152C33.2472 34.0244 32.3004 33.0776 32.3004 31.9097ZM12.8725 40.2069C12.8725 39.0389 13.8193 38.0921 14.9872 38.0921L28.2307 38.0921C29.3986 38.0921 30.3454 39.0389 30.3454 40.2069C30.3454 41.3748 29.3986 42.3216 28.2307 42.3216L14.9872 42.3216C13.8193 42.3216 12.8725 41.3748 12.8725 40.2069ZM19.8513 48.0434C19.8513 46.8755 20.7981 45.9287 21.966 45.9287L35.2095 45.9287C36.3774 45.9287 37.3242 46.8755 37.3242 48.0434C37.3242 49.2113 36.3774 50.1581 35.2095 50.1581L21.966 50.1581C20.7981 50.1581 19.8513 49.2113 19.8513 48.0434ZM10.7598 56.3406C10.7598 55.1726 11.7066 54.2258 12.8745 54.2258H20.6929C21.8609 54.2258 22.8077 55.1726 22.8077 56.3406C22.8077 57.5085 21.8609 58.4553 20.6929 58.4553H12.8745C11.7066 58.4553 10.7598 57.5085 10.7598 56.3406ZM14.9049 63.9995C14.9049 62.8315 15.8517 61.8847 17.0196 61.8847H30.2631C31.4311 61.8847 32.3779 62.8315 32.3779 63.9995C32.3779 65.1674 31.4311 66.1142 30.2631 66.1142H17.0196C15.8517 66.1142 14.9049 65.1674 14.9049 63.9995ZM17.3815 72.2966C17.3815 71.1287 18.3283 70.1819 19.4962 70.1819H27.3146C28.4826 70.1819 29.4294 71.1287 29.4294 72.2966C29.4294 73.4646 28.4826 74.4114 27.3146 74.4114H19.4962C18.3283 74.4114 17.3815 73.4646 17.3815 72.2966ZM25.2763 80.7533C25.2763 79.5854 26.2231 78.6386 27.391 78.6386H41.1167C42.2846 78.6386 43.2314 79.5854 43.2314 80.7533C43.2314 81.9213 42.2846 82.8681 41.1167 82.8681H27.391C26.2231 82.8681 25.2763 81.9213 25.2763 80.7533Z" fill="#4B4B4B"/>
<path d="M10.9855 31.9097C10.9855 30.8664 11.8312 30.0207 12.8745 30.0207L26.118 30.0207C27.1612 30.0207 28.007 30.8664 28.007 31.9097C28.007 32.9529 27.1612 33.7987 26.118 33.7987L12.8745 33.7987C11.8312 33.7987 10.9855 32.9529 10.9855 31.9097ZM32.5262 31.9097C32.5262 30.8664 33.3719 30.0207 34.4152 30.0207H46.8594C47.9026 30.0207 48.7484 30.8664 48.7484 31.9097C48.7484 32.9529 47.9026 33.7987 46.8594 33.7987H34.4152C33.3719 33.7987 32.5262 32.9529 32.5262 31.9097ZM13.0982 40.2069C13.0982 39.1636 13.944 38.3179 14.9872 38.3179L28.2307 38.3179C29.2739 38.3179 30.1197 39.1636 30.1197 40.2069C30.1197 41.2501 29.2739 42.0958 28.2307 42.0958L14.9872 42.0958C13.944 42.0958 13.0982 41.2501 13.0982 40.2069ZM20.077 48.0434C20.077 47.0001 20.9227 46.1544 21.966 46.1544L35.2095 46.1544C36.2527 46.1544 37.0985 47.0001 37.0985 48.0434C37.0985 49.0867 36.2527 49.9324 35.2095 49.9324L21.966 49.9324C20.9227 49.9324 20.077 49.0867 20.077 48.0434ZM10.9855 56.3406C10.9855 55.2973 11.8312 54.4516 12.8745 54.4516H20.6929C21.7362 54.4516 22.5819 55.2973 22.5819 56.3406C22.5819 57.3838 21.7362 58.2296 20.6929 58.2296H12.8745C11.8312 58.2296 10.9855 57.3838 10.9855 56.3406ZM15.1307 63.9995C15.1307 62.9562 15.9764 62.1105 17.0196 62.1105H30.2631C31.3064 62.1105 32.1521 62.9562 32.1521 63.9995C32.1521 65.0427 31.3064 65.8884 30.2631 65.8884H17.0196C15.9764 65.8884 15.1307 65.0427 15.1307 63.9995ZM17.6072 72.2966C17.6072 71.2534 18.4529 70.4076 19.4962 70.4076H27.3146C28.3579 70.4076 29.2036 71.2534 29.2036 72.2966C29.2036 73.3399 28.3579 74.1856 27.3146 74.1856H19.4962C18.4529 74.1856 17.6072 73.3399 17.6072 72.2966ZM25.502 80.7533C25.502 79.7101 26.3478 78.8643 27.391 78.8643H41.1167C42.16 78.8643 43.0057 79.7101 43.0057 80.7533C43.0057 81.7966 42.16 82.6423 41.1167 82.6423H27.391C26.3478 82.6423 25.502 81.7966 25.502 80.7533Z" stroke="#CDCDCD" stroke-opacity="0.2" stroke-width="0.45149"/>
</g>
<g id="Union" filter="url(#filter1_d_363_5505)">
<mask id="path-3-inside-1_363_5505" fill="white">
<path fill-rule="evenodd" clip-rule="evenodd" d="M60.4706 15.3473C61.2027 13.1928 63.5428 12.0398 65.6972 12.772L82.2985 18.4135C84.453 19.1456 85.606 21.4857 84.8739 23.6401C84.1417 25.7946 81.8017 26.9476 79.6472 26.2154L75.2472 24.7202L73.5296 29.7745C83.6387 34.879 90.571 45.3581 90.571 57.4564C90.571 74.5726 76.6956 88.448 59.5795 88.448C42.4633 88.448 28.5879 74.5726 28.5879 57.4564C28.5879 40.3402 42.4633 26.4648 59.5795 26.4648C61.6899 26.4648 63.7511 26.6758 65.7431 27.0778L67.4452 22.0689L63.0459 20.5739C60.8915 19.8418 59.7385 17.5017 60.4706 15.3473Z"/>
</mask>
<path fill-rule="evenodd" clip-rule="evenodd" d="M60.4706 15.3473C61.2027 13.1928 63.5428 12.0398 65.6972 12.772L82.2985 18.4135C84.453 19.1456 85.606 21.4857 84.8739 23.6401C84.1417 25.7946 81.8017 26.9476 79.6472 26.2154L75.2472 24.7202L73.5296 29.7745C83.6387 34.879 90.571 45.3581 90.571 57.4564C90.571 74.5726 76.6956 88.448 59.5795 88.448C42.4633 88.448 28.5879 74.5726 28.5879 57.4564C28.5879 40.3402 42.4633 26.4648 59.5795 26.4648C61.6899 26.4648 63.7511 26.6758 65.7431 27.0778L67.4452 22.0689L63.0459 20.5739C60.8915 19.8418 59.7385 17.5017 60.4706 15.3473Z" fill="#111111"/>
<path fill-rule="evenodd" clip-rule="evenodd" d="M60.4706 15.3473C61.2027 13.1928 63.5428 12.0398 65.6972 12.772L82.2985 18.4135C84.453 19.1456 85.606 21.4857 84.8739 23.6401C84.1417 25.7946 81.8017 26.9476 79.6472 26.2154L75.2472 24.7202L73.5296 29.7745C83.6387 34.879 90.571 45.3581 90.571 57.4564C90.571 74.5726 76.6956 88.448 59.5795 88.448C42.4633 88.448 28.5879 74.5726 28.5879 57.4564C28.5879 40.3402 42.4633 26.4648 59.5795 26.4648C61.6899 26.4648 63.7511 26.6758 65.7431 27.0778L67.4452 22.0689L63.0459 20.5739C60.8915 19.8418 59.7385 17.5017 60.4706 15.3473Z" fill="#4B4B4B"/>
<path d="M65.6972 12.772L65.8425 12.3445V12.3445L65.6972 12.772ZM60.4706 15.3473L60.8981 15.4926V15.4926L60.4706 15.3473ZM82.2985 18.4135L82.4438 17.986L82.2985 18.4135ZM84.8739 23.6401L84.4464 23.4949L84.8739 23.6401ZM79.6472 26.2154L79.502 26.6429L79.6472 26.2154ZM75.2472 24.7202L75.3924 24.2927L74.965 24.1474L74.8197 24.5749L75.2472 24.7202ZM73.5296 29.7745L73.1021 29.6292L72.9759 30.0007L73.3261 30.1775L73.5296 29.7745ZM65.7431 27.0778L65.6538 27.5203L66.0429 27.5988L66.1706 27.223L65.7431 27.0778ZM67.4452 22.0689L67.8727 22.2142L68.018 21.7867L67.5905 21.6414L67.4452 22.0689ZM63.0459 20.5739L63.1912 20.1464L63.0459 20.5739ZM65.8425 12.3445C63.452 11.5321 60.8555 12.8115 60.0431 15.202L60.8981 15.4926C61.55 13.5742 63.6336 12.5475 65.552 13.1995L65.8425 12.3445ZM82.4438 17.986L65.8425 12.3445L65.552 13.1995L82.1533 18.841L82.4438 17.986ZM85.3013 23.7854C86.1137 21.3949 84.8343 18.7984 82.4438 17.986L82.1533 18.841C84.0716 19.4929 85.0983 21.5765 84.4464 23.4949L85.3013 23.7854ZM79.502 26.6429C81.8925 27.4553 84.489 26.1759 85.3013 23.7854L84.4464 23.4949C83.7945 25.4132 81.7109 26.4399 79.7925 25.788L79.502 26.6429ZM75.1019 25.1477L79.502 26.6429L79.7925 25.788L75.3924 24.2927L75.1019 25.1477ZM74.8197 24.5749L73.1021 29.6292L73.9571 29.9198L75.6747 24.8655L74.8197 24.5749ZM91.0225 57.4564C91.0225 45.1812 83.9884 34.5498 73.7331 29.3715L73.3261 30.1775C83.289 35.2082 90.1195 45.535 90.1195 57.4564H91.0225ZM59.5795 88.8995C76.945 88.8995 91.0225 74.8219 91.0225 57.4564H90.1195C90.1195 74.3232 76.4463 87.9965 59.5795 87.9965V88.8995ZM28.1364 57.4564C28.1364 74.8219 42.2139 88.8995 59.5795 88.8995V87.9965C42.7126 87.9965 29.0394 74.3232 29.0394 57.4564H28.1364ZM59.5795 26.0133C42.2139 26.0133 28.1364 40.0909 28.1364 57.4564H29.0394C29.0394 40.5896 42.7126 26.9163 59.5795 26.9163V26.0133ZM65.8324 26.6352C63.8112 26.2273 61.7201 26.0133 59.5795 26.0133V26.9163C61.6598 26.9163 63.691 27.1243 65.6538 27.5203L65.8324 26.6352ZM66.1706 27.223L67.8727 22.2142L67.0178 21.9236L65.3156 26.9325L66.1706 27.223ZM62.9007 21.0014L67.3 22.4964L67.5905 21.6414L63.1912 20.1464L62.9007 21.0014ZM60.0431 15.202C59.2308 17.5926 60.5101 20.189 62.9007 21.0014L63.1912 20.1464C61.2728 19.4945 60.2462 17.4109 60.8981 15.4926L60.0431 15.202Z" fill="#CDCDCD" fill-opacity="0.2" mask="url(#path-3-inside-1_363_5505)"/>
</g>
<g id="Ellipse 1223 (Stroke)" filter="url(#filter2_d_363_5505)">
<path fill-rule="evenodd" clip-rule="evenodd" d="M59.5782 37.7187C55.6745 37.7187 51.8585 38.8763 48.6127 41.0451C45.3669 43.2138 42.8371 46.2964 41.3432 49.9029C39.8494 53.5095 39.4585 57.478 40.2201 61.3067C40.9816 65.1353 42.8614 68.6522 45.6218 71.4125C48.3821 74.1728 51.8989 76.0526 55.7276 76.8142C59.5563 77.5758 63.5248 77.1849 67.1313 75.691C70.7379 74.1971 73.8204 71.6674 75.9892 68.4216C78.1579 65.1758 79.3155 61.3598 79.3155 57.4561C79.3155 56.2881 80.2623 55.3413 81.4303 55.3413C82.5982 55.3413 83.545 56.2881 83.545 57.4561C83.545 62.1963 82.1394 66.83 79.5059 70.7713C76.8723 74.7127 73.1292 77.7846 68.7499 79.5985C64.3705 81.4125 59.5516 81.8872 54.9025 80.9624C50.2534 80.0376 45.9829 77.755 42.6311 74.4032C39.2792 71.0514 36.9966 66.7809 36.0719 62.1318C35.1471 57.4827 35.6217 52.6637 37.4357 48.2844C39.2497 43.905 42.3216 40.1619 46.2629 37.5284C50.2042 34.8949 54.838 33.4893 59.5782 33.4893C60.7461 33.4893 61.6929 34.4361 61.6929 35.604C61.6929 36.7719 60.7461 37.7187 59.5782 37.7187Z" fill="#111111"/>
<path fill-rule="evenodd" clip-rule="evenodd" d="M59.5782 37.7187C55.6745 37.7187 51.8585 38.8763 48.6127 41.0451C45.3669 43.2138 42.8371 46.2964 41.3432 49.9029C39.8494 53.5095 39.4585 57.478 40.2201 61.3067C40.9816 65.1353 42.8614 68.6522 45.6218 71.4125C48.3821 74.1728 51.8989 76.0526 55.7276 76.8142C59.5563 77.5758 63.5248 77.1849 67.1313 75.691C70.7379 74.1971 73.8204 71.6674 75.9892 68.4216C78.1579 65.1758 79.3155 61.3598 79.3155 57.4561C79.3155 56.2881 80.2623 55.3413 81.4303 55.3413C82.5982 55.3413 83.545 56.2881 83.545 57.4561C83.545 62.1963 82.1394 66.83 79.5059 70.7713C76.8723 74.7127 73.1292 77.7846 68.7499 79.5985C64.3705 81.4125 59.5516 81.8872 54.9025 80.9624C50.2534 80.0376 45.9829 77.755 42.6311 74.4032C39.2792 71.0514 36.9966 66.7809 36.0719 62.1318C35.1471 57.4827 35.6217 52.6637 37.4357 48.2844C39.2497 43.905 42.3216 40.1619 46.2629 37.5284C50.2042 34.8949 54.838 33.4893 59.5782 33.4893C60.7461 33.4893 61.6929 34.4361 61.6929 35.604C61.6929 36.7719 60.7461 37.7187 59.5782 37.7187Z" fill="url(#paint0_linear_363_5505)" fill-opacity="0.9"/>
</g>
<g id="Vector 3 (Stroke)" filter="url(#filter3_b_363_5505)">
<path fill-rule="evenodd" clip-rule="evenodd" d="M60.6248 46.1413C61.6745 46.6534 62.1103 47.9194 61.5983 48.9691L58.3157 55.6984H64.2257C64.9586 55.6984 65.6393 56.0779 66.0246 56.7013C66.4099 57.3248 66.4449 58.1033 66.1171 58.7589L61.5891 67.815C61.0667 68.8596 59.7965 69.283 58.7518 68.7607C57.7072 68.2384 57.2838 66.9681 57.8061 65.9235L60.8039 59.9279H54.9311C54.2019 59.9279 53.5241 59.5521 53.1377 58.9337C52.7513 58.3153 52.7108 57.5414 53.0305 56.886L57.797 47.1148C58.309 46.0651 59.5751 45.6293 60.6248 46.1413Z" fill="#C8C8C8"/>
<path d="M58.2065 55.6451L58.1213 55.8199H58.3157H64.2257C64.9165 55.8199 65.5581 56.1776 65.9212 56.7652C66.2844 57.3529 66.3174 58.0867 66.0085 58.7045L61.4804 67.7606C60.9881 68.7453 59.7908 69.1444 58.8062 68.652C57.8215 68.1597 57.4224 66.9624 57.9148 65.9778L60.9126 59.9822L61.0005 59.8064H60.8039H54.9311C54.2438 59.8064 53.605 59.4522 53.2407 58.8693C52.8765 58.2864 52.8383 57.557 53.1397 56.9392L57.9061 47.1681C58.3888 46.1787 59.5821 45.7679 60.5715 46.2505C61.5609 46.7331 61.9717 47.9265 61.4891 48.9159L58.2065 55.6451Z" stroke="white" stroke-opacity="0.1" stroke-width="0.242954"/>
</g>
</g>
</g>
<defs>
<filter id="filter0_d_363_5505" x="-7.29985" y="16.2502" width="65.3043" height="80.1627" filterUnits="userSpaceOnUse" color-interpolation-filters="sRGB">
<feFlood flood-opacity="0" result="BackgroundImageFix"/>
<feColorMatrix in="SourceAlpha" type="matrix" values="0 0 0 0 0 0 0 0 0 0 0 0 0 0 0 0 0 0 127 0" result="hardAlpha"/>
<feOffset dx="-4.5149"/>
<feGaussianBlur stdDeviation="6.77236"/>
<feComposite in2="hardAlpha" operator="out"/>
<feColorMatrix type="matrix" values="0 0 0 0 0 0 0 0 0 0 0 0 0 0 0 0 0 0 0.45 0"/>
<feBlend mode="normal" in2="BackgroundImageFix" result="effect1_dropShadow_363_5505"/>
<feBlend mode="normal" in="SourceGraphic" in2="effect1_dropShadow_363_5505" result="shape"/>
</filter>
<filter id="filter1_d_363_5505" x="10.5283" y="-0.992956" width="89.0718" height="102.986" filterUnits="userSpaceOnUse" color-interpolation-filters="sRGB">
<feFlood flood-opacity="0" result="BackgroundImageFix"/>
<feColorMatrix in="SourceAlpha" type="matrix" values="0 0 0 0 0 0 0 0 0 0 0 0 0 0 0 0 0 0 127 0" result="hardAlpha"/>
<feOffset dx="-4.5149"/>
<feGaussianBlur stdDeviation="6.77236"/>
<feComposite in2="hardAlpha" operator="out"/>
<feColorMatrix type="matrix" values="0 0 0 0 0 0 0 0 0 0 0 0 0 0 0 0 0 0 0.45 0"/>
<feBlend mode="normal" in2="BackgroundImageFix" result="effect1_dropShadow_363_5505"/>
<feBlend mode="normal" in="SourceGraphic" in2="effect1_dropShadow_363_5505" result="shape"/>
</filter>
<filter id="filter2_d_363_5505" x="19.6113" y="21.4893" width="71.9336" height="71.9336" filterUnits="userSpaceOnUse" color-interpolation-filters="sRGB">
<feFlood flood-opacity="0" result="BackgroundImageFix"/>
<feColorMatrix in="SourceAlpha" type="matrix" values="0 0 0 0 0 0 0 0 0 0 0 0 0 0 0 0 0 0 127 0" result="hardAlpha"/>
<feOffset dx="-4"/>
<feGaussianBlur stdDeviation="6"/>
<feComposite in2="hardAlpha" operator="out"/>
<feColorMatrix type="matrix" values="0 0 0 0 0 0 0 0 0 0 0 0 0 0 0 0 0 0 0.45 0"/>
<feBlend mode="normal" in2="BackgroundImageFix" result="effect1_dropShadow_363_5505"/>
<feBlend mode="normal" in="SourceGraphic" in2="effect1_dropShadow_363_5505" result="shape"/>
</filter>
<filter id="filter3_b_363_5505" x="45.5278" y="38.6381" width="28.1007" height="37.6349" filterUnits="userSpaceOnUse" color-interpolation-filters="sRGB">
<feFlood flood-opacity="0" result="BackgroundImageFix"/>
<feGaussianBlur in="BackgroundImageFix" stdDeviation="3.64431"/>
<feComposite in2="SourceAlpha" operator="in" result="effect1_backgroundBlur_363_5505"/>
<feBlend mode="normal" in="SourceGraphic" in2="effect1_backgroundBlur_363_5505" result="shape"/>
</filter>
<linearGradient id="paint0_linear_363_5505" x1="59.5782" y1="22.7234" x2="59.5782" y2="74.1168" gradientUnits="userSpaceOnUse">
<stop stop-color="#252525"/>
<stop offset="1" stop-color="#252525" stop-opacity="0"/>
</linearGradient>
<clipPath id="clip0_363_5505">
<rect width="100" height="100" fill="white" transform="translate(0.666016 0.5)"/>
</clipPath>
</defs>
</svg>
