<svg width="126" height="61" viewBox="0 0 126 61" fill="none" xmlns="http://www.w3.org/2000/svg">
<g filter="url(#filter0_d_429_20479)">
<mask id="path-1-inside-1_429_20479" fill="white">
<path fill-rule="evenodd" clip-rule="evenodd" d="M102.016 14.2468C101.99 14.3811 101.908 14.9551 101.834 15.5222C101.76 16.0894 101.656 16.8709 101.602 17.2589C101.548 17.647 101.478 18.3064 101.447 18.7243C101.415 19.1422 101.345 19.5305 101.29 19.5872C101.235 19.6439 101.19 19.9463 101.19 20.2592C101.19 20.5721 101.141 20.8583 101.081 20.8952C101.021 20.9321 100.973 21.3012 100.973 21.7156C100.973 22.1456 100.926 22.469 100.864 22.469C100.804 22.469 100.755 22.7606 100.755 23.1265C100.755 23.4882 100.707 23.9888 100.648 24.2391C100.589 24.4894 100.487 25.2071 100.423 25.8339C100.282 27.1929 100.153 28.2219 99.9928 29.253C99.9278 29.6709 99.849 30.3426 99.8176 30.7455C99.7861 31.1484 99.7157 31.4782 99.6609 31.4782C99.606 31.4782 99.5612 31.8445 99.5612 32.2923C99.5612 32.74 99.5188 33.1064 99.4672 33.1064C99.4155 33.1064 99.3438 33.4361 99.3079 33.839C99.2719 34.2419 99.165 35.109 99.0703 35.7657C98.9757 36.4224 98.871 37.1833 98.8377 37.4567C98.7984 37.7792 98.7051 37.9987 98.572 38.0817L98.3669 38.2098L98.3531 37.9646C98.3455 37.8298 98.3507 36.7792 98.3647 35.63L98.3901 33.5405H92.5622H86.7341L86.5791 33.3854C86.4574 33.2639 86.4239 32.852 86.4239 31.4782C86.4239 30.1044 86.4574 29.6925 86.5791 29.571L86.7341 29.4159H91.6664H96.5988L96.6686 28.7486C96.7573 27.9003 96.7569 26.865 96.6673 25.1997L96.5964 23.8801H91.6819C88.9789 23.8801 86.6901 23.8505 86.5957 23.8142L86.4239 23.7483V21.7519V19.7554H92.0697H97.7155V16.9876V14.2197H88.7582H79.801V26.6469V39.074L89.5997 39.1201C99.2332 39.1655 101.033 39.2103 101.239 39.4101C101.295 39.4653 101.671 39.5105 102.074 39.5105C102.476 39.5105 102.836 39.5593 102.873 39.619C102.91 39.6787 103.352 39.7275 103.856 39.7275C104.36 39.7275 104.773 39.7707 104.773 39.8235C104.773 39.8763 105.249 39.9478 105.831 39.9824C106.413 40.0171 107.623 40.1236 108.518 40.2193C109.414 40.3149 110.562 40.4363 111.07 40.4893C111.577 40.5423 112.359 40.6387 112.807 40.7037C113.255 40.7686 113.963 40.8653 114.381 40.9186C114.799 40.9719 115.3 41.0487 115.494 41.0893L115.847 41.1633V40.5539C115.847 40.2188 115.896 39.9446 115.956 39.9446C116.017 39.9446 116.064 39.6371 116.064 39.2391C116.064 38.8511 116.107 38.5336 116.159 38.5336C116.211 38.5336 116.284 38.1551 116.321 37.6923C116.358 37.2296 116.428 36.5762 116.475 36.2401L116.561 35.629L115.851 35.5084C115.461 35.4421 114.946 35.3644 114.707 35.3356C114.468 35.307 113.955 35.232 113.567 35.1688C113.179 35.1057 112.507 35.0257 112.074 34.991C111.641 34.9563 111.287 34.8844 111.287 34.8312C111.287 34.778 110.948 34.7345 110.533 34.7345C110.119 34.7345 109.75 34.6857 109.713 34.626C109.676 34.5663 109.358 34.5174 109.007 34.5174C108.656 34.5174 108.343 34.4761 108.311 34.4254C108.28 34.3748 107.805 34.3015 107.255 34.2625C106.706 34.2235 106.233 34.1685 106.205 34.1402C106.117 34.0525 106.188 32.52 106.282 32.4587C106.332 32.4269 106.4 32.0345 106.435 31.5867C106.492 30.8613 106.596 30.0194 106.953 27.4078C107.011 26.9899 107.086 26.3061 107.12 25.8882C107.155 25.4703 107.227 25.0819 107.281 25.0253C107.335 24.9685 107.378 24.6388 107.378 24.2926C107.378 23.9452 107.427 23.663 107.487 23.663C107.55 23.663 107.596 23.3193 107.596 22.8489C107.596 22.3786 107.641 22.0349 107.704 22.0349C107.765 22.0349 107.813 21.7433 107.813 21.3774C107.813 21.0157 107.862 20.5151 107.922 20.2648C108.045 19.7496 108.235 18.2289 108.317 17.0961C108.348 16.6782 108.418 16.2898 108.473 16.2332C108.528 16.1764 108.573 15.8712 108.573 15.5548V14.9795H108.301C108.152 14.9795 108.03 14.936 108.03 14.8828C108.03 14.8296 107.676 14.7608 107.243 14.7299C106.81 14.6989 105.869 14.5936 105.153 14.4958C104.436 14.398 103.543 14.2892 103.168 14.2538C102.794 14.2184 102.461 14.1474 102.429 14.0961C102.316 13.9135 102.062 14.0063 102.016 14.2468ZM18.7832 26.648V39.0763H22.0675H25.3518L25.3574 35.1933C25.3603 33.0577 25.3998 31.2505 25.4452 31.1772C25.5022 31.0849 25.8962 31.044 26.7262 31.044H27.9248L28.249 31.391C28.4273 31.5819 28.7217 32.0336 28.9033 32.3951C29.0848 32.7564 29.2761 33.0684 29.3283 33.0882C29.3805 33.1082 29.4233 33.1936 29.4233 33.2782C29.4233 33.3629 29.4722 33.432 29.5319 33.432C29.5916 33.432 29.6405 33.5256 29.6405 33.6401C29.6405 33.7545 29.6845 33.8643 29.7385 33.8843C29.7925 33.9042 30.0674 34.36 30.3494 34.8973C30.6315 35.4346 30.8927 35.8987 30.9301 35.9285C30.9674 35.9584 31.0711 36.1293 31.1605 36.3084C31.2498 36.4875 31.3522 36.6585 31.3878 36.6883C31.4235 36.7182 31.6401 37.0968 31.8691 37.5295C32.0982 37.9623 32.3256 38.3165 32.3744 38.3165C32.4234 38.3165 32.4633 38.4142 32.4633 38.5336C32.4633 38.653 32.5122 38.7507 32.5719 38.7507C32.6316 38.7507 32.6805 38.8239 32.6805 38.9135V39.0763H45.7635H58.8465V36.3084V33.5405H53.0053C48.6069 33.5405 47.1319 33.5084 47.0338 33.4103C46.9426 33.3191 46.9035 32.7206 46.9035 31.4138V29.5476L47.0753 29.4818C47.1697 29.4455 49.4905 29.4159 52.2325 29.4159H57.2179V27.0279C57.2179 25.5083 57.1784 24.6399 57.1093 24.6399C57.0496 24.6399 57.0007 24.469 57.0007 24.26V23.8801H52.1239C49.4416 23.8801 47.1697 23.8505 47.0753 23.8142L46.9035 23.7483V21.7519V19.7554H52.5493H58.195V16.9876V14.2197H49.2378H40.2806V26.4852V38.7507H40.11C39.8858 38.7507 39.7169 38.5681 39.4864 38.0768C39.3826 37.8555 39.2501 37.645 39.1919 37.6091C39.1338 37.5733 39.0863 37.4491 39.0863 37.3332C39.0863 37.2172 39.0374 37.1225 38.9777 37.1225C38.918 37.1225 38.8691 37.0492 38.8691 36.9597C38.8691 36.8701 38.8203 36.7969 38.7606 36.7969C38.7008 36.7969 38.652 36.6992 38.652 36.5798C38.652 36.4604 38.6091 36.3627 38.5565 36.3627C38.5041 36.3627 38.4004 36.2161 38.3263 36.0371C38.2521 35.858 38.1584 35.7114 38.1182 35.7114C38.078 35.7114 37.9544 35.4916 37.8435 35.223C37.7328 34.9543 37.6006 34.7345 37.5499 34.7345C37.4992 34.7345 37.4577 34.6368 37.4577 34.5174C37.4577 34.398 37.4088 34.3003 37.3491 34.3003C37.2894 34.3003 37.2405 34.2271 37.2405 34.1375C37.2405 34.048 37.1917 33.9747 37.132 33.9747C37.0723 33.9747 37.0234 33.9273 37.0234 33.8693C37.0234 33.8114 36.8035 33.392 36.5348 32.9377C36.2661 32.4833 36.0462 32.0667 36.0462 32.0119C36.0462 31.9572 35.9974 31.9124 35.9377 31.9124C35.878 31.9124 35.8291 31.8147 35.8291 31.6953C35.8291 31.5759 35.7802 31.4782 35.7205 31.4782C35.6608 31.4782 35.6119 31.4049 35.6119 31.3154C35.6119 31.2258 35.5631 31.1526 35.5034 31.1526C35.4437 31.1526 35.3948 31.1059 35.3948 31.0488C35.3948 30.9917 35.2465 30.6936 35.0653 30.3864C34.6718 29.7191 34.7049 29.5706 35.3419 29.1445C35.6096 28.9654 35.8288 28.7823 35.8289 28.7375C35.829 28.6926 35.8818 28.6561 35.9461 28.6561C36.0542 28.6561 36.3967 28.3202 37.1591 27.4668C37.3233 27.2831 37.4577 27.0602 37.4577 26.9718C37.4577 26.8832 37.4992 26.8108 37.5499 26.8108C37.6006 26.8108 37.7328 26.591 37.8435 26.3224C37.9544 26.0537 38.0839 25.8339 38.1314 25.8339C38.1788 25.8339 38.2177 25.7147 38.2177 25.569C38.2177 25.4232 38.2665 25.2738 38.3263 25.2369C38.386 25.2 38.4348 25.0535 38.4348 24.9113C38.4348 24.7691 38.4837 24.6226 38.5434 24.5857C38.6089 24.5452 38.652 23.7907 38.652 22.6861C38.652 21.5816 38.6089 20.8271 38.5434 20.7866C38.4837 20.7497 38.4348 20.5515 38.4348 20.346C38.4348 20.1406 38.386 19.9725 38.3263 19.9725C38.2665 19.9725 38.2177 19.8805 38.2177 19.768C38.2177 19.1033 36.1383 16.1735 35.6666 16.1735C35.5722 16.1735 34.6929 15.585 34.6529 15.4951C34.6329 15.4503 34.5231 15.4137 34.4086 15.4137C34.2942 15.4137 34.2005 15.3648 34.2005 15.3051C34.2005 15.2454 34.1028 15.1966 33.9834 15.1966C33.8639 15.1966 33.7662 15.1477 33.7662 15.0881C33.7662 15.0284 33.6441 14.9795 33.4948 14.9795C33.3455 14.9795 33.2234 14.9362 33.2234 14.8832C33.2234 14.8304 33.0889 14.7615 32.9248 14.7303C32.7606 14.699 32.1668 14.5714 31.6054 14.4466L30.5846 14.2197H24.6839H18.7832V26.648ZM59.2808 26.648V39.0763L65.2794 39.0747L71.278 39.0729L72.5809 38.8512C73.2975 38.7292 74.0425 38.6024 74.2366 38.5696C74.4308 38.5367 74.5895 38.4663 74.5895 38.4132C74.5895 38.36 74.7116 38.3165 74.8609 38.3165C75.0102 38.3165 75.1324 38.2676 75.1324 38.2079C75.1324 38.1482 75.2301 38.0994 75.3495 38.0994C75.4689 38.0994 75.5667 38.0625 75.5667 38.0173C75.5667 37.9722 75.7243 37.8655 75.917 37.7803C76.6152 37.4712 78.1724 36.1194 78.1724 35.8223C78.1724 35.7613 78.2173 35.7114 78.2724 35.7114C78.3273 35.7114 78.4043 35.5654 78.4435 35.387C78.4827 35.2086 78.5599 35.0348 78.615 35.0007C78.6702 34.9667 78.7153 34.844 78.7153 34.7281C78.7153 34.6122 78.7641 34.5174 78.8238 34.5174C78.8835 34.5174 78.9324 34.3983 78.9324 34.2525C78.9324 34.1067 78.976 33.9605 79.0295 33.9275C79.2528 33.7895 79.4782 30.7184 79.2651 30.7184C79.2016 30.7184 79.1495 30.5259 79.1495 30.2906C79.1495 30.0553 79.1007 29.8327 79.041 29.7958C78.9813 29.7589 78.9324 29.6123 78.9324 29.4701C78.9324 29.3279 78.8835 29.1814 78.8238 29.1445C78.7641 29.1076 78.7153 28.9827 78.7153 28.8667C78.7153 28.7508 78.6717 28.6561 78.6184 28.6561C78.5652 28.6561 78.4909 28.5339 78.4535 28.3847C78.416 28.2354 78.3374 28.1133 78.2789 28.1133C78.2203 28.1133 78.172 28.0278 78.1714 27.9234C78.1709 27.819 78.0157 27.6113 77.8266 27.4621C77.6375 27.3128 77.4215 27.1297 77.3467 27.055C77.272 26.9805 77.1763 26.9194 77.1343 26.9194C77.0922 26.9194 76.9789 26.8301 76.8822 26.7212C76.7857 26.6122 76.5479 26.4537 76.3538 26.369C76.1597 26.2844 76.0009 26.1782 76.0009 26.1331C76.0009 26.0879 75.9032 26.051 75.7838 26.051C75.4152 26.051 75.5317 25.6575 76.0552 25.1341C76.3239 24.8655 76.5438 24.6063 76.5438 24.5582C76.5438 24.5101 76.6415 24.4004 76.7609 24.3143C76.8804 24.2282 76.9781 24.0905 76.9781 24.0082C76.9781 23.8664 77.2049 23.288 77.4215 22.8776C77.4762 22.7739 77.521 22.493 77.521 22.2535C77.521 22.0138 77.5698 21.8178 77.6295 21.8178C77.6934 21.8178 77.7381 21.4401 77.7381 20.9016C77.7381 20.3976 77.6892 19.9552 77.6295 19.9183C77.5698 19.8814 77.521 19.658 77.521 19.4219C77.521 19.1858 77.475 18.9078 77.4189 18.8042C77.3627 18.7005 77.2339 18.3837 77.1327 18.1001C77.0314 17.8166 76.9063 17.5846 76.8548 17.5846C76.8032 17.5846 76.7609 17.5118 76.7609 17.4229C76.7609 17.139 75.5103 15.805 75.1314 15.6847C75.0125 15.6471 74.9152 15.5798 74.9152 15.5351C74.9152 15.4906 74.7442 15.3871 74.5352 15.3051C74.3262 15.2232 74.1552 15.1164 74.1552 15.0678C74.1552 15.0192 74.0575 14.9795 73.9381 14.9795C73.8186 14.9795 73.7209 14.9362 73.7209 14.8832C73.7209 14.8304 73.5866 14.7617 73.4223 14.7305C73.2581 14.6995 72.6596 14.5725 72.0923 14.4483L71.0609 14.2225L65.1708 14.2211L59.2808 14.2197V26.648ZM30.2376 19.864C30.2745 19.9237 30.4483 19.9725 30.624 19.9725C30.7997 19.9725 30.9433 20.0214 30.9433 20.0811C30.9433 20.1408 31.0395 20.1896 31.157 20.1896C31.4119 20.1896 32.4633 21.1762 32.4633 21.4153C32.4633 21.5073 32.522 21.6021 32.5936 21.626C32.6819 21.6554 32.7239 21.9798 32.7239 22.6319C32.7239 23.2839 32.6819 23.6083 32.5936 23.6377C32.522 23.6616 32.4633 23.7422 32.4633 23.8168C32.4633 24.0249 31.6515 24.857 31.4486 24.857C31.3498 24.857 31.269 24.9059 31.269 24.9656C31.269 25.0253 31.1266 25.0741 30.9523 25.0741C30.7782 25.0741 30.6188 25.1247 30.5982 25.1866C30.5378 25.3676 25.7846 25.4701 25.5734 25.2949L25.4061 25.1561V22.6274C25.4061 21.2367 25.4358 20.0216 25.472 19.9272L25.5379 19.7554H27.8542C29.2813 19.7554 30.1962 19.7971 30.2376 19.864ZM70.4637 19.864C70.4637 19.9237 70.5377 19.9725 70.6281 19.9725C70.9367 19.9725 71.5495 20.4005 71.5495 20.6161C71.5495 20.68 71.5983 20.7323 71.658 20.7323C71.7178 20.7323 71.7666 20.8447 71.7666 20.982C71.7666 21.1193 71.8219 21.2869 71.8894 21.3544C72.0227 21.4877 71.7982 22.469 71.6344 22.469C71.5877 22.469 71.5488 22.5302 71.5482 22.6047C71.5463 22.7819 70.8532 23.2289 70.5802 23.2289C70.4635 23.2289 70.3378 23.2777 70.3009 23.3374C70.2598 23.4037 69.417 23.4459 68.1346 23.4459H66.0355L65.9696 23.2742C65.9333 23.1798 65.9037 22.4267 65.9037 21.6007C65.9037 20.7747 65.9333 20.0216 65.9696 19.9272L66.0355 19.7554H68.2496C69.6534 19.7554 70.4637 19.7952 70.4637 19.864ZM71.4826 29.1099C71.7284 29.1804 72.0591 29.327 72.2176 29.4355C72.3761 29.5442 72.5471 29.6336 72.5976 29.6343C72.7253 29.6362 73.1781 30.3537 73.1781 30.5541C73.1781 30.6445 73.2269 30.7184 73.2866 30.7184C73.3463 30.7184 73.3952 30.9597 73.3952 31.2547C73.3952 31.5497 73.3463 31.8212 73.2866 31.8581C73.2269 31.895 73.1781 31.9961 73.1781 32.0826C73.1781 32.272 72.6083 32.8893 72.4335 32.8893C72.3653 32.8893 72.3095 32.9381 72.3095 32.9978C72.3095 33.0575 72.2362 33.1064 72.1466 33.1064C72.057 33.1064 71.9838 33.1552 71.9838 33.2149C71.9838 33.2746 71.8372 33.3235 71.658 33.3235C71.4789 33.3235 71.3323 33.3723 71.3323 33.432C71.3323 33.5986 66.2013 33.5776 66.034 33.4103C65.942 33.3183 65.9037 32.6866 65.9037 31.2611C65.9037 29.8356 65.942 29.2039 66.034 29.1119C66.2135 28.9325 70.8584 28.9308 71.4826 29.1099ZM51.5721 41.2472C51.5721 41.3069 51.4721 41.3557 51.3499 41.3557C51.0967 41.3557 50.2933 42.1215 50.051 42.5938C49.8394 43.0063 49.8179 45.2759 50.025 45.3448C50.0997 45.3696 50.1607 45.464 50.1607 45.5544C50.1607 45.6449 50.3194 45.8608 50.5135 46.0342C51.2015 46.6489 51.4744 46.7829 52.0375 46.7829C52.2951 46.7829 52.5645 46.8415 52.6361 46.9132C52.7374 47.0144 52.7664 47.0144 52.7664 46.9132C52.7664 46.8347 52.9305 46.7829 53.1791 46.7829C53.5979 46.7829 54.1755 46.5787 54.177 46.4301C54.1774 46.3853 54.2634 46.3476 54.3679 46.3465C54.5788 46.3439 55.155 45.5979 55.155 45.3273C55.155 45.2325 55.2039 45.1548 55.2636 45.1548C55.3294 45.1548 55.3722 44.6844 55.3722 43.9608C55.3722 43.2371 55.3294 42.7668 55.2636 42.7668C55.2039 42.7668 55.155 42.6891 55.155 42.5942C55.155 42.3236 54.5788 41.5777 54.3679 41.5751C54.2634 41.5739 54.1779 41.5359 54.1779 41.4906C54.1779 41.4455 53.9832 41.3478 53.7453 41.2735C53.2253 41.1114 51.5721 41.0913 51.5721 41.2472ZM66.338 41.2472C66.2484 41.305 66.0848 41.3531 65.9744 41.3541C65.8008 41.3555 65.5484 41.58 65.0485 42.1777C64.9814 42.2578 64.9265 42.3744 64.9265 42.4366C64.9265 42.4988 64.8777 42.5497 64.818 42.5497C64.7583 42.5497 64.7094 42.6962 64.7094 42.8753C64.7094 43.0544 64.6605 43.201 64.6008 43.201C64.5388 43.201 64.4922 43.5244 64.4922 43.9544C64.4922 44.3688 64.5411 44.7379 64.6008 44.7748C64.6605 44.8118 64.7094 44.9611 64.7094 45.1069C64.7094 45.2527 64.7583 45.3718 64.818 45.3718C64.8777 45.3718 64.9265 45.4489 64.9265 45.5431C64.9265 45.759 65.7318 46.5658 65.9473 46.5658C66.0357 46.5658 66.1382 46.6147 66.1751 46.6744C66.212 46.7341 66.4796 46.7829 66.7697 46.7829C67.09 46.7829 67.3185 46.8362 67.3518 46.9186C67.3956 47.0271 67.4083 47.0271 67.4151 46.9186C67.4208 46.8293 67.6093 46.7829 67.9666 46.7829C68.2651 46.7829 68.5094 46.7341 68.5094 46.6744C68.5094 46.6147 68.6094 46.5658 68.7317 46.5658C69.0205 46.5658 69.835 45.7507 70.0331 45.2633C70.2248 44.7919 70.2362 42.93 70.0486 42.7425C69.9783 42.6722 69.9209 42.5497 69.9209 42.4701C69.9209 42.3003 69.2196 41.5728 69.0559 41.5728C68.9942 41.5728 68.9437 41.5359 68.9437 41.4906C68.9437 41.2098 66.7177 41.0019 66.338 41.2472ZM94.8926 41.2785C94.4739 41.4717 93.9154 42.068 93.9154 42.3218C93.9154 42.4471 93.8666 42.5497 93.8068 42.5497C93.7471 42.5497 93.6983 42.6474 93.6983 42.7668C93.6983 42.8862 93.7471 42.9839 93.8068 42.9839C93.8666 42.9839 93.9154 43.1304 93.9154 43.3095C93.9154 43.4886 93.9643 43.6351 94.024 43.6351C94.0837 43.6351 94.1326 43.7084 94.1326 43.798C94.1326 43.8884 94.2291 43.9608 94.3497 43.9608C94.4691 43.9608 94.5668 44.0022 94.5668 44.0528C94.5668 44.1667 95.5856 44.5035 95.9301 44.5035C96.069 44.5035 96.2128 44.5523 96.2497 44.612C96.2866 44.6717 96.3908 44.7206 96.481 44.7206C96.7315 44.7206 96.9554 44.9988 96.9554 45.3099C96.9554 45.5165 96.8991 45.5889 96.7383 45.5889C96.6189 45.5889 96.5212 45.6378 96.5212 45.6975C96.5212 45.7572 96.3746 45.806 96.1954 45.806C96.0163 45.806 95.8697 45.7572 95.8697 45.6975C95.8697 45.6378 95.7837 45.5889 95.6787 45.5889C95.5736 45.5889 95.4273 45.4923 95.3535 45.3741L95.2194 45.1594L94.4588 45.1734L93.6983 45.1874V45.3882C93.6983 45.4986 93.7471 45.5889 93.8068 45.5889C93.8666 45.5889 93.9154 45.6759 93.9154 45.782C93.9154 45.8883 94.0191 46.047 94.1459 46.1348C94.2726 46.2226 94.4401 46.3556 94.5181 46.4301C94.5961 46.5048 94.7082 46.5658 94.7672 46.5658C94.8262 46.5658 94.8913 46.6162 94.9118 46.6776C94.9621 46.8285 97.2767 46.8308 97.4274 46.6801C97.4903 46.6173 97.6087 46.5658 97.6906 46.5658C98.6472 46.5658 98.7712 44.2392 97.8384 43.7922C97.6215 43.6882 97.3592 43.5615 97.2555 43.5106C97.1518 43.4597 96.9442 43.418 96.7941 43.418C96.6439 43.418 96.5212 43.3692 96.5212 43.3095C96.5212 43.2498 96.3502 43.201 96.1412 43.201C95.9322 43.201 95.7611 43.1521 95.7611 43.0924C95.7611 43.0327 95.6931 42.9839 95.6099 42.9839C95.5267 42.9839 95.429 42.9066 95.3928 42.8122C95.1486 42.1762 96.2157 41.8819 96.7383 42.4412L97.0425 42.7668H97.7047C98.4187 42.7668 98.4661 42.7161 98.2596 42.1733C97.9274 41.2995 95.9728 40.7801 94.8926 41.2785ZM36.7183 43.9879L36.752 46.7286L37.5934 46.7603L38.4348 46.792V45.7563V44.7206H39.412H40.3891V44.1821V43.6436L39.4391 43.6122L38.4891 43.5809V43.0381V42.4954L39.6563 42.4646L40.8234 42.4338V41.8405V41.2472H38.754H36.6846L36.7183 43.9879ZM79.5838 44.0089V46.8006L80.9138 46.7442C83.0168 46.6549 83.9027 46.4015 84.114 45.8285C84.1516 45.7266 84.2103 45.6188 84.2445 45.5889C84.4881 45.3765 84.5782 44.938 84.5782 43.9661V42.883L84.289 42.3653C83.9469 41.7528 83.7822 41.5728 83.5636 41.5728C83.4746 41.5728 83.3833 41.517 83.3606 41.4488C83.3327 41.3653 82.7114 41.3074 81.4516 41.271L79.5838 41.2171V44.0089ZM53.4846 42.7337L53.8521 43.1349V43.9292C53.8521 45.1228 53.5123 45.5889 52.6421 45.5889C52.0349 45.5889 51.5721 45.2753 51.5721 44.8639C51.5721 44.7254 51.5233 44.612 51.4635 44.612C51.4038 44.612 51.355 44.3434 51.355 44.015C51.355 43.6867 51.4038 43.418 51.4635 43.418C51.5233 43.418 51.5721 43.2942 51.5721 43.1428C51.5721 42.6712 51.9824 42.3468 52.5889 42.3392L53.1171 42.3326L53.4846 42.7337ZM68.1991 42.6573L68.5094 42.9819V43.9993V45.0166L68.2232 45.3028L67.9369 45.5889L67.3818 45.5855C66.8409 45.5821 66.4466 45.4107 66.4466 45.179C66.4466 45.1159 66.3891 45.0451 66.319 45.0218C66.1331 44.9598 66.1437 43.3392 66.3328 42.9202C66.5183 42.5087 66.7917 42.3633 67.412 42.346L67.8887 42.3326L68.1991 42.6573ZM82.291 42.5497C82.4143 42.5497 82.5153 42.5985 82.5153 42.6582C82.5153 42.7179 82.5764 42.7672 82.651 42.7677C82.7257 42.7681 82.8479 42.9 82.9224 43.0606C83.0844 43.4093 83.1063 44.8291 82.9496 44.8291C82.8899 44.8291 82.841 44.8814 82.841 44.9454C82.841 45.2392 82.4809 45.4065 81.8273 45.4161L81.1581 45.4261V43.9656V42.5052L81.4296 42.4359C81.5789 42.3978 81.7833 42.4078 81.8838 42.4582C81.9845 42.5086 82.1676 42.5497 82.291 42.5497Z"/>
</mask>
<path fill-rule="evenodd" clip-rule="evenodd" d="M102.016 14.2468C101.99 14.3811 101.908 14.9551 101.834 15.5222C101.76 16.0894 101.656 16.8709 101.602 17.2589C101.548 17.647 101.478 18.3064 101.447 18.7243C101.415 19.1422 101.345 19.5305 101.29 19.5872C101.235 19.6439 101.19 19.9463 101.19 20.2592C101.19 20.5721 101.141 20.8583 101.081 20.8952C101.021 20.9321 100.973 21.3012 100.973 21.7156C100.973 22.1456 100.926 22.469 100.864 22.469C100.804 22.469 100.755 22.7606 100.755 23.1265C100.755 23.4882 100.707 23.9888 100.648 24.2391C100.589 24.4894 100.487 25.2071 100.423 25.8339C100.282 27.1929 100.153 28.2219 99.9928 29.253C99.9278 29.6709 99.849 30.3426 99.8176 30.7455C99.7861 31.1484 99.7157 31.4782 99.6609 31.4782C99.606 31.4782 99.5612 31.8445 99.5612 32.2923C99.5612 32.74 99.5188 33.1064 99.4672 33.1064C99.4155 33.1064 99.3438 33.4361 99.3079 33.839C99.2719 34.2419 99.165 35.109 99.0703 35.7657C98.9757 36.4224 98.871 37.1833 98.8377 37.4567C98.7984 37.7792 98.7051 37.9987 98.572 38.0817L98.3669 38.2098L98.3531 37.9646C98.3455 37.8298 98.3507 36.7792 98.3647 35.63L98.3901 33.5405H92.5622H86.7341L86.5791 33.3854C86.4574 33.2639 86.4239 32.852 86.4239 31.4782C86.4239 30.1044 86.4574 29.6925 86.5791 29.571L86.7341 29.4159H91.6664H96.5988L96.6686 28.7486C96.7573 27.9003 96.7569 26.865 96.6673 25.1997L96.5964 23.8801H91.6819C88.9789 23.8801 86.6901 23.8505 86.5957 23.8142L86.4239 23.7483V21.7519V19.7554H92.0697H97.7155V16.9876V14.2197H88.7582H79.801V26.6469V39.074L89.5997 39.1201C99.2332 39.1655 101.033 39.2103 101.239 39.4101C101.295 39.4653 101.671 39.5105 102.074 39.5105C102.476 39.5105 102.836 39.5593 102.873 39.619C102.91 39.6787 103.352 39.7275 103.856 39.7275C104.36 39.7275 104.773 39.7707 104.773 39.8235C104.773 39.8763 105.249 39.9478 105.831 39.9824C106.413 40.0171 107.623 40.1236 108.518 40.2193C109.414 40.3149 110.562 40.4363 111.07 40.4893C111.577 40.5423 112.359 40.6387 112.807 40.7037C113.255 40.7686 113.963 40.8653 114.381 40.9186C114.799 40.9719 115.3 41.0487 115.494 41.0893L115.847 41.1633V40.5539C115.847 40.2188 115.896 39.9446 115.956 39.9446C116.017 39.9446 116.064 39.6371 116.064 39.2391C116.064 38.8511 116.107 38.5336 116.159 38.5336C116.211 38.5336 116.284 38.1551 116.321 37.6923C116.358 37.2296 116.428 36.5762 116.475 36.2401L116.561 35.629L115.851 35.5084C115.461 35.4421 114.946 35.3644 114.707 35.3356C114.468 35.307 113.955 35.232 113.567 35.1688C113.179 35.1057 112.507 35.0257 112.074 34.991C111.641 34.9563 111.287 34.8844 111.287 34.8312C111.287 34.778 110.948 34.7345 110.533 34.7345C110.119 34.7345 109.75 34.6857 109.713 34.626C109.676 34.5663 109.358 34.5174 109.007 34.5174C108.656 34.5174 108.343 34.4761 108.311 34.4254C108.28 34.3748 107.805 34.3015 107.255 34.2625C106.706 34.2235 106.233 34.1685 106.205 34.1402C106.117 34.0525 106.188 32.52 106.282 32.4587C106.332 32.4269 106.4 32.0345 106.435 31.5867C106.492 30.8613 106.596 30.0194 106.953 27.4078C107.011 26.9899 107.086 26.3061 107.12 25.8882C107.155 25.4703 107.227 25.0819 107.281 25.0253C107.335 24.9685 107.378 24.6388 107.378 24.2926C107.378 23.9452 107.427 23.663 107.487 23.663C107.55 23.663 107.596 23.3193 107.596 22.8489C107.596 22.3786 107.641 22.0349 107.704 22.0349C107.765 22.0349 107.813 21.7433 107.813 21.3774C107.813 21.0157 107.862 20.5151 107.922 20.2648C108.045 19.7496 108.235 18.2289 108.317 17.0961C108.348 16.6782 108.418 16.2898 108.473 16.2332C108.528 16.1764 108.573 15.8712 108.573 15.5548V14.9795H108.301C108.152 14.9795 108.03 14.936 108.03 14.8828C108.03 14.8296 107.676 14.7608 107.243 14.7299C106.81 14.6989 105.869 14.5936 105.153 14.4958C104.436 14.398 103.543 14.2892 103.168 14.2538C102.794 14.2184 102.461 14.1474 102.429 14.0961C102.316 13.9135 102.062 14.0063 102.016 14.2468ZM18.7832 26.648V39.0763H22.0675H25.3518L25.3574 35.1933C25.3603 33.0577 25.3998 31.2505 25.4452 31.1772C25.5022 31.0849 25.8962 31.044 26.7262 31.044H27.9248L28.249 31.391C28.4273 31.5819 28.7217 32.0336 28.9033 32.3951C29.0848 32.7564 29.2761 33.0684 29.3283 33.0882C29.3805 33.1082 29.4233 33.1936 29.4233 33.2782C29.4233 33.3629 29.4722 33.432 29.5319 33.432C29.5916 33.432 29.6405 33.5256 29.6405 33.6401C29.6405 33.7545 29.6845 33.8643 29.7385 33.8843C29.7925 33.9042 30.0674 34.36 30.3494 34.8973C30.6315 35.4346 30.8927 35.8987 30.9301 35.9285C30.9674 35.9584 31.0711 36.1293 31.1605 36.3084C31.2498 36.4875 31.3522 36.6585 31.3878 36.6883C31.4235 36.7182 31.6401 37.0968 31.8691 37.5295C32.0982 37.9623 32.3256 38.3165 32.3744 38.3165C32.4234 38.3165 32.4633 38.4142 32.4633 38.5336C32.4633 38.653 32.5122 38.7507 32.5719 38.7507C32.6316 38.7507 32.6805 38.8239 32.6805 38.9135V39.0763H45.7635H58.8465V36.3084V33.5405H53.0053C48.6069 33.5405 47.1319 33.5084 47.0338 33.4103C46.9426 33.3191 46.9035 32.7206 46.9035 31.4138V29.5476L47.0753 29.4818C47.1697 29.4455 49.4905 29.4159 52.2325 29.4159H57.2179V27.0279C57.2179 25.5083 57.1784 24.6399 57.1093 24.6399C57.0496 24.6399 57.0007 24.469 57.0007 24.26V23.8801H52.1239C49.4416 23.8801 47.1697 23.8505 47.0753 23.8142L46.9035 23.7483V21.7519V19.7554H52.5493H58.195V16.9876V14.2197H49.2378H40.2806V26.4852V38.7507H40.11C39.8858 38.7507 39.7169 38.5681 39.4864 38.0768C39.3826 37.8555 39.2501 37.645 39.1919 37.6091C39.1338 37.5733 39.0863 37.4491 39.0863 37.3332C39.0863 37.2172 39.0374 37.1225 38.9777 37.1225C38.918 37.1225 38.8691 37.0492 38.8691 36.9597C38.8691 36.8701 38.8203 36.7969 38.7606 36.7969C38.7008 36.7969 38.652 36.6992 38.652 36.5798C38.652 36.4604 38.6091 36.3627 38.5565 36.3627C38.5041 36.3627 38.4004 36.2161 38.3263 36.0371C38.2521 35.858 38.1584 35.7114 38.1182 35.7114C38.078 35.7114 37.9544 35.4916 37.8435 35.223C37.7328 34.9543 37.6006 34.7345 37.5499 34.7345C37.4992 34.7345 37.4577 34.6368 37.4577 34.5174C37.4577 34.398 37.4088 34.3003 37.3491 34.3003C37.2894 34.3003 37.2405 34.2271 37.2405 34.1375C37.2405 34.048 37.1917 33.9747 37.132 33.9747C37.0723 33.9747 37.0234 33.9273 37.0234 33.8693C37.0234 33.8114 36.8035 33.392 36.5348 32.9377C36.2661 32.4833 36.0462 32.0667 36.0462 32.0119C36.0462 31.9572 35.9974 31.9124 35.9377 31.9124C35.878 31.9124 35.8291 31.8147 35.8291 31.6953C35.8291 31.5759 35.7802 31.4782 35.7205 31.4782C35.6608 31.4782 35.6119 31.4049 35.6119 31.3154C35.6119 31.2258 35.5631 31.1526 35.5034 31.1526C35.4437 31.1526 35.3948 31.1059 35.3948 31.0488C35.3948 30.9917 35.2465 30.6936 35.0653 30.3864C34.6718 29.7191 34.7049 29.5706 35.3419 29.1445C35.6096 28.9654 35.8288 28.7823 35.8289 28.7375C35.829 28.6926 35.8818 28.6561 35.9461 28.6561C36.0542 28.6561 36.3967 28.3202 37.1591 27.4668C37.3233 27.2831 37.4577 27.0602 37.4577 26.9718C37.4577 26.8832 37.4992 26.8108 37.5499 26.8108C37.6006 26.8108 37.7328 26.591 37.8435 26.3224C37.9544 26.0537 38.0839 25.8339 38.1314 25.8339C38.1788 25.8339 38.2177 25.7147 38.2177 25.569C38.2177 25.4232 38.2665 25.2738 38.3263 25.2369C38.386 25.2 38.4348 25.0535 38.4348 24.9113C38.4348 24.7691 38.4837 24.6226 38.5434 24.5857C38.6089 24.5452 38.652 23.7907 38.652 22.6861C38.652 21.5816 38.6089 20.8271 38.5434 20.7866C38.4837 20.7497 38.4348 20.5515 38.4348 20.346C38.4348 20.1406 38.386 19.9725 38.3263 19.9725C38.2665 19.9725 38.2177 19.8805 38.2177 19.768C38.2177 19.1033 36.1383 16.1735 35.6666 16.1735C35.5722 16.1735 34.6929 15.585 34.6529 15.4951C34.6329 15.4503 34.5231 15.4137 34.4086 15.4137C34.2942 15.4137 34.2005 15.3648 34.2005 15.3051C34.2005 15.2454 34.1028 15.1966 33.9834 15.1966C33.8639 15.1966 33.7662 15.1477 33.7662 15.0881C33.7662 15.0284 33.6441 14.9795 33.4948 14.9795C33.3455 14.9795 33.2234 14.9362 33.2234 14.8832C33.2234 14.8304 33.0889 14.7615 32.9248 14.7303C32.7606 14.699 32.1668 14.5714 31.6054 14.4466L30.5846 14.2197H24.6839H18.7832V26.648ZM59.2808 26.648V39.0763L65.2794 39.0747L71.278 39.0729L72.5809 38.8512C73.2975 38.7292 74.0425 38.6024 74.2366 38.5696C74.4308 38.5367 74.5895 38.4663 74.5895 38.4132C74.5895 38.36 74.7116 38.3165 74.8609 38.3165C75.0102 38.3165 75.1324 38.2676 75.1324 38.2079C75.1324 38.1482 75.2301 38.0994 75.3495 38.0994C75.4689 38.0994 75.5667 38.0625 75.5667 38.0173C75.5667 37.9722 75.7243 37.8655 75.917 37.7803C76.6152 37.4712 78.1724 36.1194 78.1724 35.8223C78.1724 35.7613 78.2173 35.7114 78.2724 35.7114C78.3273 35.7114 78.4043 35.5654 78.4435 35.387C78.4827 35.2086 78.5599 35.0348 78.615 35.0007C78.6702 34.9667 78.7153 34.844 78.7153 34.7281C78.7153 34.6122 78.7641 34.5174 78.8238 34.5174C78.8835 34.5174 78.9324 34.3983 78.9324 34.2525C78.9324 34.1067 78.976 33.9605 79.0295 33.9275C79.2528 33.7895 79.4782 30.7184 79.2651 30.7184C79.2016 30.7184 79.1495 30.5259 79.1495 30.2906C79.1495 30.0553 79.1007 29.8327 79.041 29.7958C78.9813 29.7589 78.9324 29.6123 78.9324 29.4701C78.9324 29.3279 78.8835 29.1814 78.8238 29.1445C78.7641 29.1076 78.7153 28.9827 78.7153 28.8667C78.7153 28.7508 78.6717 28.6561 78.6184 28.6561C78.5652 28.6561 78.4909 28.5339 78.4535 28.3847C78.416 28.2354 78.3374 28.1133 78.2789 28.1133C78.2203 28.1133 78.172 28.0278 78.1714 27.9234C78.1709 27.819 78.0157 27.6113 77.8266 27.4621C77.6375 27.3128 77.4215 27.1297 77.3467 27.055C77.272 26.9805 77.1763 26.9194 77.1343 26.9194C77.0922 26.9194 76.9789 26.8301 76.8822 26.7212C76.7857 26.6122 76.5479 26.4537 76.3538 26.369C76.1597 26.2844 76.0009 26.1782 76.0009 26.1331C76.0009 26.0879 75.9032 26.051 75.7838 26.051C75.4152 26.051 75.5317 25.6575 76.0552 25.1341C76.3239 24.8655 76.5438 24.6063 76.5438 24.5582C76.5438 24.5101 76.6415 24.4004 76.7609 24.3143C76.8804 24.2282 76.9781 24.0905 76.9781 24.0082C76.9781 23.8664 77.2049 23.288 77.4215 22.8776C77.4762 22.7739 77.521 22.493 77.521 22.2535C77.521 22.0138 77.5698 21.8178 77.6295 21.8178C77.6934 21.8178 77.7381 21.4401 77.7381 20.9016C77.7381 20.3976 77.6892 19.9552 77.6295 19.9183C77.5698 19.8814 77.521 19.658 77.521 19.4219C77.521 19.1858 77.475 18.9078 77.4189 18.8042C77.3627 18.7005 77.2339 18.3837 77.1327 18.1001C77.0314 17.8166 76.9063 17.5846 76.8548 17.5846C76.8032 17.5846 76.7609 17.5118 76.7609 17.4229C76.7609 17.139 75.5103 15.805 75.1314 15.6847C75.0125 15.6471 74.9152 15.5798 74.9152 15.5351C74.9152 15.4906 74.7442 15.3871 74.5352 15.3051C74.3262 15.2232 74.1552 15.1164 74.1552 15.0678C74.1552 15.0192 74.0575 14.9795 73.9381 14.9795C73.8186 14.9795 73.7209 14.9362 73.7209 14.8832C73.7209 14.8304 73.5866 14.7617 73.4223 14.7305C73.2581 14.6995 72.6596 14.5725 72.0923 14.4483L71.0609 14.2225L65.1708 14.2211L59.2808 14.2197V26.648ZM30.2376 19.864C30.2745 19.9237 30.4483 19.9725 30.624 19.9725C30.7997 19.9725 30.9433 20.0214 30.9433 20.0811C30.9433 20.1408 31.0395 20.1896 31.157 20.1896C31.4119 20.1896 32.4633 21.1762 32.4633 21.4153C32.4633 21.5073 32.522 21.6021 32.5936 21.626C32.6819 21.6554 32.7239 21.9798 32.7239 22.6319C32.7239 23.2839 32.6819 23.6083 32.5936 23.6377C32.522 23.6616 32.4633 23.7422 32.4633 23.8168C32.4633 24.0249 31.6515 24.857 31.4486 24.857C31.3498 24.857 31.269 24.9059 31.269 24.9656C31.269 25.0253 31.1266 25.0741 30.9523 25.0741C30.7782 25.0741 30.6188 25.1247 30.5982 25.1866C30.5378 25.3676 25.7846 25.4701 25.5734 25.2949L25.4061 25.1561V22.6274C25.4061 21.2367 25.4358 20.0216 25.472 19.9272L25.5379 19.7554H27.8542C29.2813 19.7554 30.1962 19.7971 30.2376 19.864ZM70.4637 19.864C70.4637 19.9237 70.5377 19.9725 70.6281 19.9725C70.9367 19.9725 71.5495 20.4005 71.5495 20.6161C71.5495 20.68 71.5983 20.7323 71.658 20.7323C71.7178 20.7323 71.7666 20.8447 71.7666 20.982C71.7666 21.1193 71.8219 21.2869 71.8894 21.3544C72.0227 21.4877 71.7982 22.469 71.6344 22.469C71.5877 22.469 71.5488 22.5302 71.5482 22.6047C71.5463 22.7819 70.8532 23.2289 70.5802 23.2289C70.4635 23.2289 70.3378 23.2777 70.3009 23.3374C70.2598 23.4037 69.417 23.4459 68.1346 23.4459H66.0355L65.9696 23.2742C65.9333 23.1798 65.9037 22.4267 65.9037 21.6007C65.9037 20.7747 65.9333 20.0216 65.9696 19.9272L66.0355 19.7554H68.2496C69.6534 19.7554 70.4637 19.7952 70.4637 19.864ZM71.4826 29.1099C71.7284 29.1804 72.0591 29.327 72.2176 29.4355C72.3761 29.5442 72.5471 29.6336 72.5976 29.6343C72.7253 29.6362 73.1781 30.3537 73.1781 30.5541C73.1781 30.6445 73.2269 30.7184 73.2866 30.7184C73.3463 30.7184 73.3952 30.9597 73.3952 31.2547C73.3952 31.5497 73.3463 31.8212 73.2866 31.8581C73.2269 31.895 73.1781 31.9961 73.1781 32.0826C73.1781 32.272 72.6083 32.8893 72.4335 32.8893C72.3653 32.8893 72.3095 32.9381 72.3095 32.9978C72.3095 33.0575 72.2362 33.1064 72.1466 33.1064C72.057 33.1064 71.9838 33.1552 71.9838 33.2149C71.9838 33.2746 71.8372 33.3235 71.658 33.3235C71.4789 33.3235 71.3323 33.3723 71.3323 33.432C71.3323 33.5986 66.2013 33.5776 66.034 33.4103C65.942 33.3183 65.9037 32.6866 65.9037 31.2611C65.9037 29.8356 65.942 29.2039 66.034 29.1119C66.2135 28.9325 70.8584 28.9308 71.4826 29.1099ZM51.5721 41.2472C51.5721 41.3069 51.4721 41.3557 51.3499 41.3557C51.0967 41.3557 50.2933 42.1215 50.051 42.5938C49.8394 43.0063 49.8179 45.2759 50.025 45.3448C50.0997 45.3696 50.1607 45.464 50.1607 45.5544C50.1607 45.6449 50.3194 45.8608 50.5135 46.0342C51.2015 46.6489 51.4744 46.7829 52.0375 46.7829C52.2951 46.7829 52.5645 46.8415 52.6361 46.9132C52.7374 47.0144 52.7664 47.0144 52.7664 46.9132C52.7664 46.8347 52.9305 46.7829 53.1791 46.7829C53.5979 46.7829 54.1755 46.5787 54.177 46.4301C54.1774 46.3853 54.2634 46.3476 54.3679 46.3465C54.5788 46.3439 55.155 45.5979 55.155 45.3273C55.155 45.2325 55.2039 45.1548 55.2636 45.1548C55.3294 45.1548 55.3722 44.6844 55.3722 43.9608C55.3722 43.2371 55.3294 42.7668 55.2636 42.7668C55.2039 42.7668 55.155 42.6891 55.155 42.5942C55.155 42.3236 54.5788 41.5777 54.3679 41.5751C54.2634 41.5739 54.1779 41.5359 54.1779 41.4906C54.1779 41.4455 53.9832 41.3478 53.7453 41.2735C53.2253 41.1114 51.5721 41.0913 51.5721 41.2472ZM66.338 41.2472C66.2484 41.305 66.0848 41.3531 65.9744 41.3541C65.8008 41.3555 65.5484 41.58 65.0485 42.1777C64.9814 42.2578 64.9265 42.3744 64.9265 42.4366C64.9265 42.4988 64.8777 42.5497 64.818 42.5497C64.7583 42.5497 64.7094 42.6962 64.7094 42.8753C64.7094 43.0544 64.6605 43.201 64.6008 43.201C64.5388 43.201 64.4922 43.5244 64.4922 43.9544C64.4922 44.3688 64.5411 44.7379 64.6008 44.7748C64.6605 44.8118 64.7094 44.9611 64.7094 45.1069C64.7094 45.2527 64.7583 45.3718 64.818 45.3718C64.8777 45.3718 64.9265 45.4489 64.9265 45.5431C64.9265 45.759 65.7318 46.5658 65.9473 46.5658C66.0357 46.5658 66.1382 46.6147 66.1751 46.6744C66.212 46.7341 66.4796 46.7829 66.7697 46.7829C67.09 46.7829 67.3185 46.8362 67.3518 46.9186C67.3956 47.0271 67.4083 47.0271 67.4151 46.9186C67.4208 46.8293 67.6093 46.7829 67.9666 46.7829C68.2651 46.7829 68.5094 46.7341 68.5094 46.6744C68.5094 46.6147 68.6094 46.5658 68.7317 46.5658C69.0205 46.5658 69.835 45.7507 70.0331 45.2633C70.2248 44.7919 70.2362 42.93 70.0486 42.7425C69.9783 42.6722 69.9209 42.5497 69.9209 42.4701C69.9209 42.3003 69.2196 41.5728 69.0559 41.5728C68.9942 41.5728 68.9437 41.5359 68.9437 41.4906C68.9437 41.2098 66.7177 41.0019 66.338 41.2472ZM94.8926 41.2785C94.4739 41.4717 93.9154 42.068 93.9154 42.3218C93.9154 42.4471 93.8666 42.5497 93.8068 42.5497C93.7471 42.5497 93.6983 42.6474 93.6983 42.7668C93.6983 42.8862 93.7471 42.9839 93.8068 42.9839C93.8666 42.9839 93.9154 43.1304 93.9154 43.3095C93.9154 43.4886 93.9643 43.6351 94.024 43.6351C94.0837 43.6351 94.1326 43.7084 94.1326 43.798C94.1326 43.8884 94.2291 43.9608 94.3497 43.9608C94.4691 43.9608 94.5668 44.0022 94.5668 44.0528C94.5668 44.1667 95.5856 44.5035 95.9301 44.5035C96.069 44.5035 96.2128 44.5523 96.2497 44.612C96.2866 44.6717 96.3908 44.7206 96.481 44.7206C96.7315 44.7206 96.9554 44.9988 96.9554 45.3099C96.9554 45.5165 96.8991 45.5889 96.7383 45.5889C96.6189 45.5889 96.5212 45.6378 96.5212 45.6975C96.5212 45.7572 96.3746 45.806 96.1954 45.806C96.0163 45.806 95.8697 45.7572 95.8697 45.6975C95.8697 45.6378 95.7837 45.5889 95.6787 45.5889C95.5736 45.5889 95.4273 45.4923 95.3535 45.3741L95.2194 45.1594L94.4588 45.1734L93.6983 45.1874V45.3882C93.6983 45.4986 93.7471 45.5889 93.8068 45.5889C93.8666 45.5889 93.9154 45.6759 93.9154 45.782C93.9154 45.8883 94.0191 46.047 94.1459 46.1348C94.2726 46.2226 94.4401 46.3556 94.5181 46.4301C94.5961 46.5048 94.7082 46.5658 94.7672 46.5658C94.8262 46.5658 94.8913 46.6162 94.9118 46.6776C94.9621 46.8285 97.2767 46.8308 97.4274 46.6801C97.4903 46.6173 97.6087 46.5658 97.6906 46.5658C98.6472 46.5658 98.7712 44.2392 97.8384 43.7922C97.6215 43.6882 97.3592 43.5615 97.2555 43.5106C97.1518 43.4597 96.9442 43.418 96.7941 43.418C96.6439 43.418 96.5212 43.3692 96.5212 43.3095C96.5212 43.2498 96.3502 43.201 96.1412 43.201C95.9322 43.201 95.7611 43.1521 95.7611 43.0924C95.7611 43.0327 95.6931 42.9839 95.6099 42.9839C95.5267 42.9839 95.429 42.9066 95.3928 42.8122C95.1486 42.1762 96.2157 41.8819 96.7383 42.4412L97.0425 42.7668H97.7047C98.4187 42.7668 98.4661 42.7161 98.2596 42.1733C97.9274 41.2995 95.9728 40.7801 94.8926 41.2785ZM36.7183 43.9879L36.752 46.7286L37.5934 46.7603L38.4348 46.792V45.7563V44.7206H39.412H40.3891V44.1821V43.6436L39.4391 43.6122L38.4891 43.5809V43.0381V42.4954L39.6563 42.4646L40.8234 42.4338V41.8405V41.2472H38.754H36.6846L36.7183 43.9879ZM79.5838 44.0089V46.8006L80.9138 46.7442C83.0168 46.6549 83.9027 46.4015 84.114 45.8285C84.1516 45.7266 84.2103 45.6188 84.2445 45.5889C84.4881 45.3765 84.5782 44.938 84.5782 43.9661V42.883L84.289 42.3653C83.9469 41.7528 83.7822 41.5728 83.5636 41.5728C83.4746 41.5728 83.3833 41.517 83.3606 41.4488C83.3327 41.3653 82.7114 41.3074 81.4516 41.271L79.5838 41.2171V44.0089ZM53.4846 42.7337L53.8521 43.1349V43.9292C53.8521 45.1228 53.5123 45.5889 52.6421 45.5889C52.0349 45.5889 51.5721 45.2753 51.5721 44.8639C51.5721 44.7254 51.5233 44.612 51.4635 44.612C51.4038 44.612 51.355 44.3434 51.355 44.015C51.355 43.6867 51.4038 43.418 51.4635 43.418C51.5233 43.418 51.5721 43.2942 51.5721 43.1428C51.5721 42.6712 51.9824 42.3468 52.5889 42.3392L53.1171 42.3326L53.4846 42.7337ZM68.1991 42.6573L68.5094 42.9819V43.9993V45.0166L68.2232 45.3028L67.9369 45.5889L67.3818 45.5855C66.8409 45.5821 66.4466 45.4107 66.4466 45.179C66.4466 45.1159 66.3891 45.0451 66.319 45.0218C66.1331 44.9598 66.1437 43.3392 66.3328 42.9202C66.5183 42.5087 66.7917 42.3633 67.412 42.346L67.8887 42.3326L68.1991 42.6573ZM82.291 42.5497C82.4143 42.5497 82.5153 42.5985 82.5153 42.6582C82.5153 42.7179 82.5764 42.7672 82.651 42.7677C82.7257 42.7681 82.8479 42.9 82.9224 43.0606C83.0844 43.4093 83.1063 44.8291 82.9496 44.8291C82.8899 44.8291 82.841 44.8814 82.841 44.9454C82.841 45.2392 82.4809 45.4065 81.8273 45.4161L81.1581 45.4261V43.9656V42.5052L81.4296 42.4359C81.5789 42.3978 81.7833 42.4078 81.8838 42.4582C81.9845 42.5086 82.1676 42.5497 82.291 42.5497Z" fill="#111111"/>
<path fill-rule="evenodd" clip-rule="evenodd" d="M102.016 14.2468C101.99 14.3811 101.908 14.9551 101.834 15.5222C101.76 16.0894 101.656 16.8709 101.602 17.2589C101.548 17.647 101.478 18.3064 101.447 18.7243C101.415 19.1422 101.345 19.5305 101.29 19.5872C101.235 19.6439 101.19 19.9463 101.19 20.2592C101.19 20.5721 101.141 20.8583 101.081 20.8952C101.021 20.9321 100.973 21.3012 100.973 21.7156C100.973 22.1456 100.926 22.469 100.864 22.469C100.804 22.469 100.755 22.7606 100.755 23.1265C100.755 23.4882 100.707 23.9888 100.648 24.2391C100.589 24.4894 100.487 25.2071 100.423 25.8339C100.282 27.1929 100.153 28.2219 99.9928 29.253C99.9278 29.6709 99.849 30.3426 99.8176 30.7455C99.7861 31.1484 99.7157 31.4782 99.6609 31.4782C99.606 31.4782 99.5612 31.8445 99.5612 32.2923C99.5612 32.74 99.5188 33.1064 99.4672 33.1064C99.4155 33.1064 99.3438 33.4361 99.3079 33.839C99.2719 34.2419 99.165 35.109 99.0703 35.7657C98.9757 36.4224 98.871 37.1833 98.8377 37.4567C98.7984 37.7792 98.7051 37.9987 98.572 38.0817L98.3669 38.2098L98.3531 37.9646C98.3455 37.8298 98.3507 36.7792 98.3647 35.63L98.3901 33.5405H92.5622H86.7341L86.5791 33.3854C86.4574 33.2639 86.4239 32.852 86.4239 31.4782C86.4239 30.1044 86.4574 29.6925 86.5791 29.571L86.7341 29.4159H91.6664H96.5988L96.6686 28.7486C96.7573 27.9003 96.7569 26.865 96.6673 25.1997L96.5964 23.8801H91.6819C88.9789 23.8801 86.6901 23.8505 86.5957 23.8142L86.4239 23.7483V21.7519V19.7554H92.0697H97.7155V16.9876V14.2197H88.7582H79.801V26.6469V39.074L89.5997 39.1201C99.2332 39.1655 101.033 39.2103 101.239 39.4101C101.295 39.4653 101.671 39.5105 102.074 39.5105C102.476 39.5105 102.836 39.5593 102.873 39.619C102.91 39.6787 103.352 39.7275 103.856 39.7275C104.36 39.7275 104.773 39.7707 104.773 39.8235C104.773 39.8763 105.249 39.9478 105.831 39.9824C106.413 40.0171 107.623 40.1236 108.518 40.2193C109.414 40.3149 110.562 40.4363 111.07 40.4893C111.577 40.5423 112.359 40.6387 112.807 40.7037C113.255 40.7686 113.963 40.8653 114.381 40.9186C114.799 40.9719 115.3 41.0487 115.494 41.0893L115.847 41.1633V40.5539C115.847 40.2188 115.896 39.9446 115.956 39.9446C116.017 39.9446 116.064 39.6371 116.064 39.2391C116.064 38.8511 116.107 38.5336 116.159 38.5336C116.211 38.5336 116.284 38.1551 116.321 37.6923C116.358 37.2296 116.428 36.5762 116.475 36.2401L116.561 35.629L115.851 35.5084C115.461 35.4421 114.946 35.3644 114.707 35.3356C114.468 35.307 113.955 35.232 113.567 35.1688C113.179 35.1057 112.507 35.0257 112.074 34.991C111.641 34.9563 111.287 34.8844 111.287 34.8312C111.287 34.778 110.948 34.7345 110.533 34.7345C110.119 34.7345 109.75 34.6857 109.713 34.626C109.676 34.5663 109.358 34.5174 109.007 34.5174C108.656 34.5174 108.343 34.4761 108.311 34.4254C108.28 34.3748 107.805 34.3015 107.255 34.2625C106.706 34.2235 106.233 34.1685 106.205 34.1402C106.117 34.0525 106.188 32.52 106.282 32.4587C106.332 32.4269 106.4 32.0345 106.435 31.5867C106.492 30.8613 106.596 30.0194 106.953 27.4078C107.011 26.9899 107.086 26.3061 107.12 25.8882C107.155 25.4703 107.227 25.0819 107.281 25.0253C107.335 24.9685 107.378 24.6388 107.378 24.2926C107.378 23.9452 107.427 23.663 107.487 23.663C107.55 23.663 107.596 23.3193 107.596 22.8489C107.596 22.3786 107.641 22.0349 107.704 22.0349C107.765 22.0349 107.813 21.7433 107.813 21.3774C107.813 21.0157 107.862 20.5151 107.922 20.2648C108.045 19.7496 108.235 18.2289 108.317 17.0961C108.348 16.6782 108.418 16.2898 108.473 16.2332C108.528 16.1764 108.573 15.8712 108.573 15.5548V14.9795H108.301C108.152 14.9795 108.03 14.936 108.03 14.8828C108.03 14.8296 107.676 14.7608 107.243 14.7299C106.81 14.6989 105.869 14.5936 105.153 14.4958C104.436 14.398 103.543 14.2892 103.168 14.2538C102.794 14.2184 102.461 14.1474 102.429 14.0961C102.316 13.9135 102.062 14.0063 102.016 14.2468ZM18.7832 26.648V39.0763H22.0675H25.3518L25.3574 35.1933C25.3603 33.0577 25.3998 31.2505 25.4452 31.1772C25.5022 31.0849 25.8962 31.044 26.7262 31.044H27.9248L28.249 31.391C28.4273 31.5819 28.7217 32.0336 28.9033 32.3951C29.0848 32.7564 29.2761 33.0684 29.3283 33.0882C29.3805 33.1082 29.4233 33.1936 29.4233 33.2782C29.4233 33.3629 29.4722 33.432 29.5319 33.432C29.5916 33.432 29.6405 33.5256 29.6405 33.6401C29.6405 33.7545 29.6845 33.8643 29.7385 33.8843C29.7925 33.9042 30.0674 34.36 30.3494 34.8973C30.6315 35.4346 30.8927 35.8987 30.9301 35.9285C30.9674 35.9584 31.0711 36.1293 31.1605 36.3084C31.2498 36.4875 31.3522 36.6585 31.3878 36.6883C31.4235 36.7182 31.6401 37.0968 31.8691 37.5295C32.0982 37.9623 32.3256 38.3165 32.3744 38.3165C32.4234 38.3165 32.4633 38.4142 32.4633 38.5336C32.4633 38.653 32.5122 38.7507 32.5719 38.7507C32.6316 38.7507 32.6805 38.8239 32.6805 38.9135V39.0763H45.7635H58.8465V36.3084V33.5405H53.0053C48.6069 33.5405 47.1319 33.5084 47.0338 33.4103C46.9426 33.3191 46.9035 32.7206 46.9035 31.4138V29.5476L47.0753 29.4818C47.1697 29.4455 49.4905 29.4159 52.2325 29.4159H57.2179V27.0279C57.2179 25.5083 57.1784 24.6399 57.1093 24.6399C57.0496 24.6399 57.0007 24.469 57.0007 24.26V23.8801H52.1239C49.4416 23.8801 47.1697 23.8505 47.0753 23.8142L46.9035 23.7483V21.7519V19.7554H52.5493H58.195V16.9876V14.2197H49.2378H40.2806V26.4852V38.7507H40.11C39.8858 38.7507 39.7169 38.5681 39.4864 38.0768C39.3826 37.8555 39.2501 37.645 39.1919 37.6091C39.1338 37.5733 39.0863 37.4491 39.0863 37.3332C39.0863 37.2172 39.0374 37.1225 38.9777 37.1225C38.918 37.1225 38.8691 37.0492 38.8691 36.9597C38.8691 36.8701 38.8203 36.7969 38.7606 36.7969C38.7008 36.7969 38.652 36.6992 38.652 36.5798C38.652 36.4604 38.6091 36.3627 38.5565 36.3627C38.5041 36.3627 38.4004 36.2161 38.3263 36.0371C38.2521 35.858 38.1584 35.7114 38.1182 35.7114C38.078 35.7114 37.9544 35.4916 37.8435 35.223C37.7328 34.9543 37.6006 34.7345 37.5499 34.7345C37.4992 34.7345 37.4577 34.6368 37.4577 34.5174C37.4577 34.398 37.4088 34.3003 37.3491 34.3003C37.2894 34.3003 37.2405 34.2271 37.2405 34.1375C37.2405 34.048 37.1917 33.9747 37.132 33.9747C37.0723 33.9747 37.0234 33.9273 37.0234 33.8693C37.0234 33.8114 36.8035 33.392 36.5348 32.9377C36.2661 32.4833 36.0462 32.0667 36.0462 32.0119C36.0462 31.9572 35.9974 31.9124 35.9377 31.9124C35.878 31.9124 35.8291 31.8147 35.8291 31.6953C35.8291 31.5759 35.7802 31.4782 35.7205 31.4782C35.6608 31.4782 35.6119 31.4049 35.6119 31.3154C35.6119 31.2258 35.5631 31.1526 35.5034 31.1526C35.4437 31.1526 35.3948 31.1059 35.3948 31.0488C35.3948 30.9917 35.2465 30.6936 35.0653 30.3864C34.6718 29.7191 34.7049 29.5706 35.3419 29.1445C35.6096 28.9654 35.8288 28.7823 35.8289 28.7375C35.829 28.6926 35.8818 28.6561 35.9461 28.6561C36.0542 28.6561 36.3967 28.3202 37.1591 27.4668C37.3233 27.2831 37.4577 27.0602 37.4577 26.9718C37.4577 26.8832 37.4992 26.8108 37.5499 26.8108C37.6006 26.8108 37.7328 26.591 37.8435 26.3224C37.9544 26.0537 38.0839 25.8339 38.1314 25.8339C38.1788 25.8339 38.2177 25.7147 38.2177 25.569C38.2177 25.4232 38.2665 25.2738 38.3263 25.2369C38.386 25.2 38.4348 25.0535 38.4348 24.9113C38.4348 24.7691 38.4837 24.6226 38.5434 24.5857C38.6089 24.5452 38.652 23.7907 38.652 22.6861C38.652 21.5816 38.6089 20.8271 38.5434 20.7866C38.4837 20.7497 38.4348 20.5515 38.4348 20.346C38.4348 20.1406 38.386 19.9725 38.3263 19.9725C38.2665 19.9725 38.2177 19.8805 38.2177 19.768C38.2177 19.1033 36.1383 16.1735 35.6666 16.1735C35.5722 16.1735 34.6929 15.585 34.6529 15.4951C34.6329 15.4503 34.5231 15.4137 34.4086 15.4137C34.2942 15.4137 34.2005 15.3648 34.2005 15.3051C34.2005 15.2454 34.1028 15.1966 33.9834 15.1966C33.8639 15.1966 33.7662 15.1477 33.7662 15.0881C33.7662 15.0284 33.6441 14.9795 33.4948 14.9795C33.3455 14.9795 33.2234 14.9362 33.2234 14.8832C33.2234 14.8304 33.0889 14.7615 32.9248 14.7303C32.7606 14.699 32.1668 14.5714 31.6054 14.4466L30.5846 14.2197H24.6839H18.7832V26.648ZM59.2808 26.648V39.0763L65.2794 39.0747L71.278 39.0729L72.5809 38.8512C73.2975 38.7292 74.0425 38.6024 74.2366 38.5696C74.4308 38.5367 74.5895 38.4663 74.5895 38.4132C74.5895 38.36 74.7116 38.3165 74.8609 38.3165C75.0102 38.3165 75.1324 38.2676 75.1324 38.2079C75.1324 38.1482 75.2301 38.0994 75.3495 38.0994C75.4689 38.0994 75.5667 38.0625 75.5667 38.0173C75.5667 37.9722 75.7243 37.8655 75.917 37.7803C76.6152 37.4712 78.1724 36.1194 78.1724 35.8223C78.1724 35.7613 78.2173 35.7114 78.2724 35.7114C78.3273 35.7114 78.4043 35.5654 78.4435 35.387C78.4827 35.2086 78.5599 35.0348 78.615 35.0007C78.6702 34.9667 78.7153 34.844 78.7153 34.7281C78.7153 34.6122 78.7641 34.5174 78.8238 34.5174C78.8835 34.5174 78.9324 34.3983 78.9324 34.2525C78.9324 34.1067 78.976 33.9605 79.0295 33.9275C79.2528 33.7895 79.4782 30.7184 79.2651 30.7184C79.2016 30.7184 79.1495 30.5259 79.1495 30.2906C79.1495 30.0553 79.1007 29.8327 79.041 29.7958C78.9813 29.7589 78.9324 29.6123 78.9324 29.4701C78.9324 29.3279 78.8835 29.1814 78.8238 29.1445C78.7641 29.1076 78.7153 28.9827 78.7153 28.8667C78.7153 28.7508 78.6717 28.6561 78.6184 28.6561C78.5652 28.6561 78.4909 28.5339 78.4535 28.3847C78.416 28.2354 78.3374 28.1133 78.2789 28.1133C78.2203 28.1133 78.172 28.0278 78.1714 27.9234C78.1709 27.819 78.0157 27.6113 77.8266 27.4621C77.6375 27.3128 77.4215 27.1297 77.3467 27.055C77.272 26.9805 77.1763 26.9194 77.1343 26.9194C77.0922 26.9194 76.9789 26.8301 76.8822 26.7212C76.7857 26.6122 76.5479 26.4537 76.3538 26.369C76.1597 26.2844 76.0009 26.1782 76.0009 26.1331C76.0009 26.0879 75.9032 26.051 75.7838 26.051C75.4152 26.051 75.5317 25.6575 76.0552 25.1341C76.3239 24.8655 76.5438 24.6063 76.5438 24.5582C76.5438 24.5101 76.6415 24.4004 76.7609 24.3143C76.8804 24.2282 76.9781 24.0905 76.9781 24.0082C76.9781 23.8664 77.2049 23.288 77.4215 22.8776C77.4762 22.7739 77.521 22.493 77.521 22.2535C77.521 22.0138 77.5698 21.8178 77.6295 21.8178C77.6934 21.8178 77.7381 21.4401 77.7381 20.9016C77.7381 20.3976 77.6892 19.9552 77.6295 19.9183C77.5698 19.8814 77.521 19.658 77.521 19.4219C77.521 19.1858 77.475 18.9078 77.4189 18.8042C77.3627 18.7005 77.2339 18.3837 77.1327 18.1001C77.0314 17.8166 76.9063 17.5846 76.8548 17.5846C76.8032 17.5846 76.7609 17.5118 76.7609 17.4229C76.7609 17.139 75.5103 15.805 75.1314 15.6847C75.0125 15.6471 74.9152 15.5798 74.9152 15.5351C74.9152 15.4906 74.7442 15.3871 74.5352 15.3051C74.3262 15.2232 74.1552 15.1164 74.1552 15.0678C74.1552 15.0192 74.0575 14.9795 73.9381 14.9795C73.8186 14.9795 73.7209 14.9362 73.7209 14.8832C73.7209 14.8304 73.5866 14.7617 73.4223 14.7305C73.2581 14.6995 72.6596 14.5725 72.0923 14.4483L71.0609 14.2225L65.1708 14.2211L59.2808 14.2197V26.648ZM30.2376 19.864C30.2745 19.9237 30.4483 19.9725 30.624 19.9725C30.7997 19.9725 30.9433 20.0214 30.9433 20.0811C30.9433 20.1408 31.0395 20.1896 31.157 20.1896C31.4119 20.1896 32.4633 21.1762 32.4633 21.4153C32.4633 21.5073 32.522 21.6021 32.5936 21.626C32.6819 21.6554 32.7239 21.9798 32.7239 22.6319C32.7239 23.2839 32.6819 23.6083 32.5936 23.6377C32.522 23.6616 32.4633 23.7422 32.4633 23.8168C32.4633 24.0249 31.6515 24.857 31.4486 24.857C31.3498 24.857 31.269 24.9059 31.269 24.9656C31.269 25.0253 31.1266 25.0741 30.9523 25.0741C30.7782 25.0741 30.6188 25.1247 30.5982 25.1866C30.5378 25.3676 25.7846 25.4701 25.5734 25.2949L25.4061 25.1561V22.6274C25.4061 21.2367 25.4358 20.0216 25.472 19.9272L25.5379 19.7554H27.8542C29.2813 19.7554 30.1962 19.7971 30.2376 19.864ZM70.4637 19.864C70.4637 19.9237 70.5377 19.9725 70.6281 19.9725C70.9367 19.9725 71.5495 20.4005 71.5495 20.6161C71.5495 20.68 71.5983 20.7323 71.658 20.7323C71.7178 20.7323 71.7666 20.8447 71.7666 20.982C71.7666 21.1193 71.8219 21.2869 71.8894 21.3544C72.0227 21.4877 71.7982 22.469 71.6344 22.469C71.5877 22.469 71.5488 22.5302 71.5482 22.6047C71.5463 22.7819 70.8532 23.2289 70.5802 23.2289C70.4635 23.2289 70.3378 23.2777 70.3009 23.3374C70.2598 23.4037 69.417 23.4459 68.1346 23.4459H66.0355L65.9696 23.2742C65.9333 23.1798 65.9037 22.4267 65.9037 21.6007C65.9037 20.7747 65.9333 20.0216 65.9696 19.9272L66.0355 19.7554H68.2496C69.6534 19.7554 70.4637 19.7952 70.4637 19.864ZM71.4826 29.1099C71.7284 29.1804 72.0591 29.327 72.2176 29.4355C72.3761 29.5442 72.5471 29.6336 72.5976 29.6343C72.7253 29.6362 73.1781 30.3537 73.1781 30.5541C73.1781 30.6445 73.2269 30.7184 73.2866 30.7184C73.3463 30.7184 73.3952 30.9597 73.3952 31.2547C73.3952 31.5497 73.3463 31.8212 73.2866 31.8581C73.2269 31.895 73.1781 31.9961 73.1781 32.0826C73.1781 32.272 72.6083 32.8893 72.4335 32.8893C72.3653 32.8893 72.3095 32.9381 72.3095 32.9978C72.3095 33.0575 72.2362 33.1064 72.1466 33.1064C72.057 33.1064 71.9838 33.1552 71.9838 33.2149C71.9838 33.2746 71.8372 33.3235 71.658 33.3235C71.4789 33.3235 71.3323 33.3723 71.3323 33.432C71.3323 33.5986 66.2013 33.5776 66.034 33.4103C65.942 33.3183 65.9037 32.6866 65.9037 31.2611C65.9037 29.8356 65.942 29.2039 66.034 29.1119C66.2135 28.9325 70.8584 28.9308 71.4826 29.1099ZM51.5721 41.2472C51.5721 41.3069 51.4721 41.3557 51.3499 41.3557C51.0967 41.3557 50.2933 42.1215 50.051 42.5938C49.8394 43.0063 49.8179 45.2759 50.025 45.3448C50.0997 45.3696 50.1607 45.464 50.1607 45.5544C50.1607 45.6449 50.3194 45.8608 50.5135 46.0342C51.2015 46.6489 51.4744 46.7829 52.0375 46.7829C52.2951 46.7829 52.5645 46.8415 52.6361 46.9132C52.7374 47.0144 52.7664 47.0144 52.7664 46.9132C52.7664 46.8347 52.9305 46.7829 53.1791 46.7829C53.5979 46.7829 54.1755 46.5787 54.177 46.4301C54.1774 46.3853 54.2634 46.3476 54.3679 46.3465C54.5788 46.3439 55.155 45.5979 55.155 45.3273C55.155 45.2325 55.2039 45.1548 55.2636 45.1548C55.3294 45.1548 55.3722 44.6844 55.3722 43.9608C55.3722 43.2371 55.3294 42.7668 55.2636 42.7668C55.2039 42.7668 55.155 42.6891 55.155 42.5942C55.155 42.3236 54.5788 41.5777 54.3679 41.5751C54.2634 41.5739 54.1779 41.5359 54.1779 41.4906C54.1779 41.4455 53.9832 41.3478 53.7453 41.2735C53.2253 41.1114 51.5721 41.0913 51.5721 41.2472ZM66.338 41.2472C66.2484 41.305 66.0848 41.3531 65.9744 41.3541C65.8008 41.3555 65.5484 41.58 65.0485 42.1777C64.9814 42.2578 64.9265 42.3744 64.9265 42.4366C64.9265 42.4988 64.8777 42.5497 64.818 42.5497C64.7583 42.5497 64.7094 42.6962 64.7094 42.8753C64.7094 43.0544 64.6605 43.201 64.6008 43.201C64.5388 43.201 64.4922 43.5244 64.4922 43.9544C64.4922 44.3688 64.5411 44.7379 64.6008 44.7748C64.6605 44.8118 64.7094 44.9611 64.7094 45.1069C64.7094 45.2527 64.7583 45.3718 64.818 45.3718C64.8777 45.3718 64.9265 45.4489 64.9265 45.5431C64.9265 45.759 65.7318 46.5658 65.9473 46.5658C66.0357 46.5658 66.1382 46.6147 66.1751 46.6744C66.212 46.7341 66.4796 46.7829 66.7697 46.7829C67.09 46.7829 67.3185 46.8362 67.3518 46.9186C67.3956 47.0271 67.4083 47.0271 67.4151 46.9186C67.4208 46.8293 67.6093 46.7829 67.9666 46.7829C68.2651 46.7829 68.5094 46.7341 68.5094 46.6744C68.5094 46.6147 68.6094 46.5658 68.7317 46.5658C69.0205 46.5658 69.835 45.7507 70.0331 45.2633C70.2248 44.7919 70.2362 42.93 70.0486 42.7425C69.9783 42.6722 69.9209 42.5497 69.9209 42.4701C69.9209 42.3003 69.2196 41.5728 69.0559 41.5728C68.9942 41.5728 68.9437 41.5359 68.9437 41.4906C68.9437 41.2098 66.7177 41.0019 66.338 41.2472ZM94.8926 41.2785C94.4739 41.4717 93.9154 42.068 93.9154 42.3218C93.9154 42.4471 93.8666 42.5497 93.8068 42.5497C93.7471 42.5497 93.6983 42.6474 93.6983 42.7668C93.6983 42.8862 93.7471 42.9839 93.8068 42.9839C93.8666 42.9839 93.9154 43.1304 93.9154 43.3095C93.9154 43.4886 93.9643 43.6351 94.024 43.6351C94.0837 43.6351 94.1326 43.7084 94.1326 43.798C94.1326 43.8884 94.2291 43.9608 94.3497 43.9608C94.4691 43.9608 94.5668 44.0022 94.5668 44.0528C94.5668 44.1667 95.5856 44.5035 95.9301 44.5035C96.069 44.5035 96.2128 44.5523 96.2497 44.612C96.2866 44.6717 96.3908 44.7206 96.481 44.7206C96.7315 44.7206 96.9554 44.9988 96.9554 45.3099C96.9554 45.5165 96.8991 45.5889 96.7383 45.5889C96.6189 45.5889 96.5212 45.6378 96.5212 45.6975C96.5212 45.7572 96.3746 45.806 96.1954 45.806C96.0163 45.806 95.8697 45.7572 95.8697 45.6975C95.8697 45.6378 95.7837 45.5889 95.6787 45.5889C95.5736 45.5889 95.4273 45.4923 95.3535 45.3741L95.2194 45.1594L94.4588 45.1734L93.6983 45.1874V45.3882C93.6983 45.4986 93.7471 45.5889 93.8068 45.5889C93.8666 45.5889 93.9154 45.6759 93.9154 45.782C93.9154 45.8883 94.0191 46.047 94.1459 46.1348C94.2726 46.2226 94.4401 46.3556 94.5181 46.4301C94.5961 46.5048 94.7082 46.5658 94.7672 46.5658C94.8262 46.5658 94.8913 46.6162 94.9118 46.6776C94.9621 46.8285 97.2767 46.8308 97.4274 46.6801C97.4903 46.6173 97.6087 46.5658 97.6906 46.5658C98.6472 46.5658 98.7712 44.2392 97.8384 43.7922C97.6215 43.6882 97.3592 43.5615 97.2555 43.5106C97.1518 43.4597 96.9442 43.418 96.7941 43.418C96.6439 43.418 96.5212 43.3692 96.5212 43.3095C96.5212 43.2498 96.3502 43.201 96.1412 43.201C95.9322 43.201 95.7611 43.1521 95.7611 43.0924C95.7611 43.0327 95.6931 42.9839 95.6099 42.9839C95.5267 42.9839 95.429 42.9066 95.3928 42.8122C95.1486 42.1762 96.2157 41.8819 96.7383 42.4412L97.0425 42.7668H97.7047C98.4187 42.7668 98.4661 42.7161 98.2596 42.1733C97.9274 41.2995 95.9728 40.7801 94.8926 41.2785ZM36.7183 43.9879L36.752 46.7286L37.5934 46.7603L38.4348 46.792V45.7563V44.7206H39.412H40.3891V44.1821V43.6436L39.4391 43.6122L38.4891 43.5809V43.0381V42.4954L39.6563 42.4646L40.8234 42.4338V41.8405V41.2472H38.754H36.6846L36.7183 43.9879ZM79.5838 44.0089V46.8006L80.9138 46.7442C83.0168 46.6549 83.9027 46.4015 84.114 45.8285C84.1516 45.7266 84.2103 45.6188 84.2445 45.5889C84.4881 45.3765 84.5782 44.938 84.5782 43.9661V42.883L84.289 42.3653C83.9469 41.7528 83.7822 41.5728 83.5636 41.5728C83.4746 41.5728 83.3833 41.517 83.3606 41.4488C83.3327 41.3653 82.7114 41.3074 81.4516 41.271L79.5838 41.2171V44.0089ZM53.4846 42.7337L53.8521 43.1349V43.9292C53.8521 45.1228 53.5123 45.5889 52.6421 45.5889C52.0349 45.5889 51.5721 45.2753 51.5721 44.8639C51.5721 44.7254 51.5233 44.612 51.4635 44.612C51.4038 44.612 51.355 44.3434 51.355 44.015C51.355 43.6867 51.4038 43.418 51.4635 43.418C51.5233 43.418 51.5721 43.2942 51.5721 43.1428C51.5721 42.6712 51.9824 42.3468 52.5889 42.3392L53.1171 42.3326L53.4846 42.7337ZM68.1991 42.6573L68.5094 42.9819V43.9993V45.0166L68.2232 45.3028L67.9369 45.5889L67.3818 45.5855C66.8409 45.5821 66.4466 45.4107 66.4466 45.179C66.4466 45.1159 66.3891 45.0451 66.319 45.0218C66.1331 44.9598 66.1437 43.3392 66.3328 42.9202C66.5183 42.5087 66.7917 42.3633 67.412 42.346L67.8887 42.3326L68.1991 42.6573ZM82.291 42.5497C82.4143 42.5497 82.5153 42.5985 82.5153 42.6582C82.5153 42.7179 82.5764 42.7672 82.651 42.7677C82.7257 42.7681 82.8479 42.9 82.9224 43.0606C83.0844 43.4093 83.1063 44.8291 82.9496 44.8291C82.8899 44.8291 82.841 44.8814 82.841 44.9454C82.841 45.2392 82.4809 45.4065 81.8273 45.4161L81.1581 45.4261V43.9656V42.5052L81.4296 42.4359C81.5789 42.3978 81.7833 42.4078 81.8838 42.4582C81.9845 42.5086 82.1676 42.5497 82.291 42.5497Z" fill="#515151"/>
<path fill-rule="evenodd" clip-rule="evenodd" d="M102.016 14.2468C101.99 14.3811 101.908 14.9551 101.834 15.5222C101.76 16.0894 101.656 16.8709 101.602 17.2589C101.548 17.647 101.478 18.3064 101.447 18.7243C101.415 19.1422 101.345 19.5305 101.29 19.5872C101.235 19.6439 101.19 19.9463 101.19 20.2592C101.19 20.5721 101.141 20.8583 101.081 20.8952C101.021 20.9321 100.973 21.3012 100.973 21.7156C100.973 22.1456 100.926 22.469 100.864 22.469C100.804 22.469 100.755 22.7606 100.755 23.1265C100.755 23.4882 100.707 23.9888 100.648 24.2391C100.589 24.4894 100.487 25.2071 100.423 25.8339C100.282 27.1929 100.153 28.2219 99.9928 29.253C99.9278 29.6709 99.849 30.3426 99.8176 30.7455C99.7861 31.1484 99.7157 31.4782 99.6609 31.4782C99.606 31.4782 99.5612 31.8445 99.5612 32.2923C99.5612 32.74 99.5188 33.1064 99.4672 33.1064C99.4155 33.1064 99.3438 33.4361 99.3079 33.839C99.2719 34.2419 99.165 35.109 99.0703 35.7657C98.9757 36.4224 98.871 37.1833 98.8377 37.4567C98.7984 37.7792 98.7051 37.9987 98.572 38.0817L98.3669 38.2098L98.3531 37.9646C98.3455 37.8298 98.3507 36.7792 98.3647 35.63L98.3901 33.5405H92.5622H86.7341L86.5791 33.3854C86.4574 33.2639 86.4239 32.852 86.4239 31.4782C86.4239 30.1044 86.4574 29.6925 86.5791 29.571L86.7341 29.4159H91.6664H96.5988L96.6686 28.7486C96.7573 27.9003 96.7569 26.865 96.6673 25.1997L96.5964 23.8801H91.6819C88.9789 23.8801 86.6901 23.8505 86.5957 23.8142L86.4239 23.7483V21.7519V19.7554H92.0697H97.7155V16.9876V14.2197H88.7582H79.801V26.6469V39.074L89.5997 39.1201C99.2332 39.1655 101.033 39.2103 101.239 39.4101C101.295 39.4653 101.671 39.5105 102.074 39.5105C102.476 39.5105 102.836 39.5593 102.873 39.619C102.91 39.6787 103.352 39.7275 103.856 39.7275C104.36 39.7275 104.773 39.7707 104.773 39.8235C104.773 39.8763 105.249 39.9478 105.831 39.9824C106.413 40.0171 107.623 40.1236 108.518 40.2193C109.414 40.3149 110.562 40.4363 111.07 40.4893C111.577 40.5423 112.359 40.6387 112.807 40.7037C113.255 40.7686 113.963 40.8653 114.381 40.9186C114.799 40.9719 115.3 41.0487 115.494 41.0893L115.847 41.1633V40.5539C115.847 40.2188 115.896 39.9446 115.956 39.9446C116.017 39.9446 116.064 39.6371 116.064 39.2391C116.064 38.8511 116.107 38.5336 116.159 38.5336C116.211 38.5336 116.284 38.1551 116.321 37.6923C116.358 37.2296 116.428 36.5762 116.475 36.2401L116.561 35.629L115.851 35.5084C115.461 35.4421 114.946 35.3644 114.707 35.3356C114.468 35.307 113.955 35.232 113.567 35.1688C113.179 35.1057 112.507 35.0257 112.074 34.991C111.641 34.9563 111.287 34.8844 111.287 34.8312C111.287 34.778 110.948 34.7345 110.533 34.7345C110.119 34.7345 109.75 34.6857 109.713 34.626C109.676 34.5663 109.358 34.5174 109.007 34.5174C108.656 34.5174 108.343 34.4761 108.311 34.4254C108.28 34.3748 107.805 34.3015 107.255 34.2625C106.706 34.2235 106.233 34.1685 106.205 34.1402C106.117 34.0525 106.188 32.52 106.282 32.4587C106.332 32.4269 106.4 32.0345 106.435 31.5867C106.492 30.8613 106.596 30.0194 106.953 27.4078C107.011 26.9899 107.086 26.3061 107.12 25.8882C107.155 25.4703 107.227 25.0819 107.281 25.0253C107.335 24.9685 107.378 24.6388 107.378 24.2926C107.378 23.9452 107.427 23.663 107.487 23.663C107.55 23.663 107.596 23.3193 107.596 22.8489C107.596 22.3786 107.641 22.0349 107.704 22.0349C107.765 22.0349 107.813 21.7433 107.813 21.3774C107.813 21.0157 107.862 20.5151 107.922 20.2648C108.045 19.7496 108.235 18.2289 108.317 17.0961C108.348 16.6782 108.418 16.2898 108.473 16.2332C108.528 16.1764 108.573 15.8712 108.573 15.5548V14.9795H108.301C108.152 14.9795 108.03 14.936 108.03 14.8828C108.03 14.8296 107.676 14.7608 107.243 14.7299C106.81 14.6989 105.869 14.5936 105.153 14.4958C104.436 14.398 103.543 14.2892 103.168 14.2538C102.794 14.2184 102.461 14.1474 102.429 14.0961C102.316 13.9135 102.062 14.0063 102.016 14.2468ZM18.7832 26.648V39.0763H22.0675H25.3518L25.3574 35.1933C25.3603 33.0577 25.3998 31.2505 25.4452 31.1772C25.5022 31.0849 25.8962 31.044 26.7262 31.044H27.9248L28.249 31.391C28.4273 31.5819 28.7217 32.0336 28.9033 32.3951C29.0848 32.7564 29.2761 33.0684 29.3283 33.0882C29.3805 33.1082 29.4233 33.1936 29.4233 33.2782C29.4233 33.3629 29.4722 33.432 29.5319 33.432C29.5916 33.432 29.6405 33.5256 29.6405 33.6401C29.6405 33.7545 29.6845 33.8643 29.7385 33.8843C29.7925 33.9042 30.0674 34.36 30.3494 34.8973C30.6315 35.4346 30.8927 35.8987 30.9301 35.9285C30.9674 35.9584 31.0711 36.1293 31.1605 36.3084C31.2498 36.4875 31.3522 36.6585 31.3878 36.6883C31.4235 36.7182 31.6401 37.0968 31.8691 37.5295C32.0982 37.9623 32.3256 38.3165 32.3744 38.3165C32.4234 38.3165 32.4633 38.4142 32.4633 38.5336C32.4633 38.653 32.5122 38.7507 32.5719 38.7507C32.6316 38.7507 32.6805 38.8239 32.6805 38.9135V39.0763H45.7635H58.8465V36.3084V33.5405H53.0053C48.6069 33.5405 47.1319 33.5084 47.0338 33.4103C46.9426 33.3191 46.9035 32.7206 46.9035 31.4138V29.5476L47.0753 29.4818C47.1697 29.4455 49.4905 29.4159 52.2325 29.4159H57.2179V27.0279C57.2179 25.5083 57.1784 24.6399 57.1093 24.6399C57.0496 24.6399 57.0007 24.469 57.0007 24.26V23.8801H52.1239C49.4416 23.8801 47.1697 23.8505 47.0753 23.8142L46.9035 23.7483V21.7519V19.7554H52.5493H58.195V16.9876V14.2197H49.2378H40.2806V26.4852V38.7507H40.11C39.8858 38.7507 39.7169 38.5681 39.4864 38.0768C39.3826 37.8555 39.2501 37.645 39.1919 37.6091C39.1338 37.5733 39.0863 37.4491 39.0863 37.3332C39.0863 37.2172 39.0374 37.1225 38.9777 37.1225C38.918 37.1225 38.8691 37.0492 38.8691 36.9597C38.8691 36.8701 38.8203 36.7969 38.7606 36.7969C38.7008 36.7969 38.652 36.6992 38.652 36.5798C38.652 36.4604 38.6091 36.3627 38.5565 36.3627C38.5041 36.3627 38.4004 36.2161 38.3263 36.0371C38.2521 35.858 38.1584 35.7114 38.1182 35.7114C38.078 35.7114 37.9544 35.4916 37.8435 35.223C37.7328 34.9543 37.6006 34.7345 37.5499 34.7345C37.4992 34.7345 37.4577 34.6368 37.4577 34.5174C37.4577 34.398 37.4088 34.3003 37.3491 34.3003C37.2894 34.3003 37.2405 34.2271 37.2405 34.1375C37.2405 34.048 37.1917 33.9747 37.132 33.9747C37.0723 33.9747 37.0234 33.9273 37.0234 33.8693C37.0234 33.8114 36.8035 33.392 36.5348 32.9377C36.2661 32.4833 36.0462 32.0667 36.0462 32.0119C36.0462 31.9572 35.9974 31.9124 35.9377 31.9124C35.878 31.9124 35.8291 31.8147 35.8291 31.6953C35.8291 31.5759 35.7802 31.4782 35.7205 31.4782C35.6608 31.4782 35.6119 31.4049 35.6119 31.3154C35.6119 31.2258 35.5631 31.1526 35.5034 31.1526C35.4437 31.1526 35.3948 31.1059 35.3948 31.0488C35.3948 30.9917 35.2465 30.6936 35.0653 30.3864C34.6718 29.7191 34.7049 29.5706 35.3419 29.1445C35.6096 28.9654 35.8288 28.7823 35.8289 28.7375C35.829 28.6926 35.8818 28.6561 35.9461 28.6561C36.0542 28.6561 36.3967 28.3202 37.1591 27.4668C37.3233 27.2831 37.4577 27.0602 37.4577 26.9718C37.4577 26.8832 37.4992 26.8108 37.5499 26.8108C37.6006 26.8108 37.7328 26.591 37.8435 26.3224C37.9544 26.0537 38.0839 25.8339 38.1314 25.8339C38.1788 25.8339 38.2177 25.7147 38.2177 25.569C38.2177 25.4232 38.2665 25.2738 38.3263 25.2369C38.386 25.2 38.4348 25.0535 38.4348 24.9113C38.4348 24.7691 38.4837 24.6226 38.5434 24.5857C38.6089 24.5452 38.652 23.7907 38.652 22.6861C38.652 21.5816 38.6089 20.8271 38.5434 20.7866C38.4837 20.7497 38.4348 20.5515 38.4348 20.346C38.4348 20.1406 38.386 19.9725 38.3263 19.9725C38.2665 19.9725 38.2177 19.8805 38.2177 19.768C38.2177 19.1033 36.1383 16.1735 35.6666 16.1735C35.5722 16.1735 34.6929 15.585 34.6529 15.4951C34.6329 15.4503 34.5231 15.4137 34.4086 15.4137C34.2942 15.4137 34.2005 15.3648 34.2005 15.3051C34.2005 15.2454 34.1028 15.1966 33.9834 15.1966C33.8639 15.1966 33.7662 15.1477 33.7662 15.0881C33.7662 15.0284 33.6441 14.9795 33.4948 14.9795C33.3455 14.9795 33.2234 14.9362 33.2234 14.8832C33.2234 14.8304 33.0889 14.7615 32.9248 14.7303C32.7606 14.699 32.1668 14.5714 31.6054 14.4466L30.5846 14.2197H24.6839H18.7832V26.648ZM59.2808 26.648V39.0763L65.2794 39.0747L71.278 39.0729L72.5809 38.8512C73.2975 38.7292 74.0425 38.6024 74.2366 38.5696C74.4308 38.5367 74.5895 38.4663 74.5895 38.4132C74.5895 38.36 74.7116 38.3165 74.8609 38.3165C75.0102 38.3165 75.1324 38.2676 75.1324 38.2079C75.1324 38.1482 75.2301 38.0994 75.3495 38.0994C75.4689 38.0994 75.5667 38.0625 75.5667 38.0173C75.5667 37.9722 75.7243 37.8655 75.917 37.7803C76.6152 37.4712 78.1724 36.1194 78.1724 35.8223C78.1724 35.7613 78.2173 35.7114 78.2724 35.7114C78.3273 35.7114 78.4043 35.5654 78.4435 35.387C78.4827 35.2086 78.5599 35.0348 78.615 35.0007C78.6702 34.9667 78.7153 34.844 78.7153 34.7281C78.7153 34.6122 78.7641 34.5174 78.8238 34.5174C78.8835 34.5174 78.9324 34.3983 78.9324 34.2525C78.9324 34.1067 78.976 33.9605 79.0295 33.9275C79.2528 33.7895 79.4782 30.7184 79.2651 30.7184C79.2016 30.7184 79.1495 30.5259 79.1495 30.2906C79.1495 30.0553 79.1007 29.8327 79.041 29.7958C78.9813 29.7589 78.9324 29.6123 78.9324 29.4701C78.9324 29.3279 78.8835 29.1814 78.8238 29.1445C78.7641 29.1076 78.7153 28.9827 78.7153 28.8667C78.7153 28.7508 78.6717 28.6561 78.6184 28.6561C78.5652 28.6561 78.4909 28.5339 78.4535 28.3847C78.416 28.2354 78.3374 28.1133 78.2789 28.1133C78.2203 28.1133 78.172 28.0278 78.1714 27.9234C78.1709 27.819 78.0157 27.6113 77.8266 27.4621C77.6375 27.3128 77.4215 27.1297 77.3467 27.055C77.272 26.9805 77.1763 26.9194 77.1343 26.9194C77.0922 26.9194 76.9789 26.8301 76.8822 26.7212C76.7857 26.6122 76.5479 26.4537 76.3538 26.369C76.1597 26.2844 76.0009 26.1782 76.0009 26.1331C76.0009 26.0879 75.9032 26.051 75.7838 26.051C75.4152 26.051 75.5317 25.6575 76.0552 25.1341C76.3239 24.8655 76.5438 24.6063 76.5438 24.5582C76.5438 24.5101 76.6415 24.4004 76.7609 24.3143C76.8804 24.2282 76.9781 24.0905 76.9781 24.0082C76.9781 23.8664 77.2049 23.288 77.4215 22.8776C77.4762 22.7739 77.521 22.493 77.521 22.2535C77.521 22.0138 77.5698 21.8178 77.6295 21.8178C77.6934 21.8178 77.7381 21.4401 77.7381 20.9016C77.7381 20.3976 77.6892 19.9552 77.6295 19.9183C77.5698 19.8814 77.521 19.658 77.521 19.4219C77.521 19.1858 77.475 18.9078 77.4189 18.8042C77.3627 18.7005 77.2339 18.3837 77.1327 18.1001C77.0314 17.8166 76.9063 17.5846 76.8548 17.5846C76.8032 17.5846 76.7609 17.5118 76.7609 17.4229C76.7609 17.139 75.5103 15.805 75.1314 15.6847C75.0125 15.6471 74.9152 15.5798 74.9152 15.5351C74.9152 15.4906 74.7442 15.3871 74.5352 15.3051C74.3262 15.2232 74.1552 15.1164 74.1552 15.0678C74.1552 15.0192 74.0575 14.9795 73.9381 14.9795C73.8186 14.9795 73.7209 14.9362 73.7209 14.8832C73.7209 14.8304 73.5866 14.7617 73.4223 14.7305C73.2581 14.6995 72.6596 14.5725 72.0923 14.4483L71.0609 14.2225L65.1708 14.2211L59.2808 14.2197V26.648ZM30.2376 19.864C30.2745 19.9237 30.4483 19.9725 30.624 19.9725C30.7997 19.9725 30.9433 20.0214 30.9433 20.0811C30.9433 20.1408 31.0395 20.1896 31.157 20.1896C31.4119 20.1896 32.4633 21.1762 32.4633 21.4153C32.4633 21.5073 32.522 21.6021 32.5936 21.626C32.6819 21.6554 32.7239 21.9798 32.7239 22.6319C32.7239 23.2839 32.6819 23.6083 32.5936 23.6377C32.522 23.6616 32.4633 23.7422 32.4633 23.8168C32.4633 24.0249 31.6515 24.857 31.4486 24.857C31.3498 24.857 31.269 24.9059 31.269 24.9656C31.269 25.0253 31.1266 25.0741 30.9523 25.0741C30.7782 25.0741 30.6188 25.1247 30.5982 25.1866C30.5378 25.3676 25.7846 25.4701 25.5734 25.2949L25.4061 25.1561V22.6274C25.4061 21.2367 25.4358 20.0216 25.472 19.9272L25.5379 19.7554H27.8542C29.2813 19.7554 30.1962 19.7971 30.2376 19.864ZM70.4637 19.864C70.4637 19.9237 70.5377 19.9725 70.6281 19.9725C70.9367 19.9725 71.5495 20.4005 71.5495 20.6161C71.5495 20.68 71.5983 20.7323 71.658 20.7323C71.7178 20.7323 71.7666 20.8447 71.7666 20.982C71.7666 21.1193 71.8219 21.2869 71.8894 21.3544C72.0227 21.4877 71.7982 22.469 71.6344 22.469C71.5877 22.469 71.5488 22.5302 71.5482 22.6047C71.5463 22.7819 70.8532 23.2289 70.5802 23.2289C70.4635 23.2289 70.3378 23.2777 70.3009 23.3374C70.2598 23.4037 69.417 23.4459 68.1346 23.4459H66.0355L65.9696 23.2742C65.9333 23.1798 65.9037 22.4267 65.9037 21.6007C65.9037 20.7747 65.9333 20.0216 65.9696 19.9272L66.0355 19.7554H68.2496C69.6534 19.7554 70.4637 19.7952 70.4637 19.864ZM71.4826 29.1099C71.7284 29.1804 72.0591 29.327 72.2176 29.4355C72.3761 29.5442 72.5471 29.6336 72.5976 29.6343C72.7253 29.6362 73.1781 30.3537 73.1781 30.5541C73.1781 30.6445 73.2269 30.7184 73.2866 30.7184C73.3463 30.7184 73.3952 30.9597 73.3952 31.2547C73.3952 31.5497 73.3463 31.8212 73.2866 31.8581C73.2269 31.895 73.1781 31.9961 73.1781 32.0826C73.1781 32.272 72.6083 32.8893 72.4335 32.8893C72.3653 32.8893 72.3095 32.9381 72.3095 32.9978C72.3095 33.0575 72.2362 33.1064 72.1466 33.1064C72.057 33.1064 71.9838 33.1552 71.9838 33.2149C71.9838 33.2746 71.8372 33.3235 71.658 33.3235C71.4789 33.3235 71.3323 33.3723 71.3323 33.432C71.3323 33.5986 66.2013 33.5776 66.034 33.4103C65.942 33.3183 65.9037 32.6866 65.9037 31.2611C65.9037 29.8356 65.942 29.2039 66.034 29.1119C66.2135 28.9325 70.8584 28.9308 71.4826 29.1099ZM51.5721 41.2472C51.5721 41.3069 51.4721 41.3557 51.3499 41.3557C51.0967 41.3557 50.2933 42.1215 50.051 42.5938C49.8394 43.0063 49.8179 45.2759 50.025 45.3448C50.0997 45.3696 50.1607 45.464 50.1607 45.5544C50.1607 45.6449 50.3194 45.8608 50.5135 46.0342C51.2015 46.6489 51.4744 46.7829 52.0375 46.7829C52.2951 46.7829 52.5645 46.8415 52.6361 46.9132C52.7374 47.0144 52.7664 47.0144 52.7664 46.9132C52.7664 46.8347 52.9305 46.7829 53.1791 46.7829C53.5979 46.7829 54.1755 46.5787 54.177 46.4301C54.1774 46.3853 54.2634 46.3476 54.3679 46.3465C54.5788 46.3439 55.155 45.5979 55.155 45.3273C55.155 45.2325 55.2039 45.1548 55.2636 45.1548C55.3294 45.1548 55.3722 44.6844 55.3722 43.9608C55.3722 43.2371 55.3294 42.7668 55.2636 42.7668C55.2039 42.7668 55.155 42.6891 55.155 42.5942C55.155 42.3236 54.5788 41.5777 54.3679 41.5751C54.2634 41.5739 54.1779 41.5359 54.1779 41.4906C54.1779 41.4455 53.9832 41.3478 53.7453 41.2735C53.2253 41.1114 51.5721 41.0913 51.5721 41.2472ZM66.338 41.2472C66.2484 41.305 66.0848 41.3531 65.9744 41.3541C65.8008 41.3555 65.5484 41.58 65.0485 42.1777C64.9814 42.2578 64.9265 42.3744 64.9265 42.4366C64.9265 42.4988 64.8777 42.5497 64.818 42.5497C64.7583 42.5497 64.7094 42.6962 64.7094 42.8753C64.7094 43.0544 64.6605 43.201 64.6008 43.201C64.5388 43.201 64.4922 43.5244 64.4922 43.9544C64.4922 44.3688 64.5411 44.7379 64.6008 44.7748C64.6605 44.8118 64.7094 44.9611 64.7094 45.1069C64.7094 45.2527 64.7583 45.3718 64.818 45.3718C64.8777 45.3718 64.9265 45.4489 64.9265 45.5431C64.9265 45.759 65.7318 46.5658 65.9473 46.5658C66.0357 46.5658 66.1382 46.6147 66.1751 46.6744C66.212 46.7341 66.4796 46.7829 66.7697 46.7829C67.09 46.7829 67.3185 46.8362 67.3518 46.9186C67.3956 47.0271 67.4083 47.0271 67.4151 46.9186C67.4208 46.8293 67.6093 46.7829 67.9666 46.7829C68.2651 46.7829 68.5094 46.7341 68.5094 46.6744C68.5094 46.6147 68.6094 46.5658 68.7317 46.5658C69.0205 46.5658 69.835 45.7507 70.0331 45.2633C70.2248 44.7919 70.2362 42.93 70.0486 42.7425C69.9783 42.6722 69.9209 42.5497 69.9209 42.4701C69.9209 42.3003 69.2196 41.5728 69.0559 41.5728C68.9942 41.5728 68.9437 41.5359 68.9437 41.4906C68.9437 41.2098 66.7177 41.0019 66.338 41.2472ZM94.8926 41.2785C94.4739 41.4717 93.9154 42.068 93.9154 42.3218C93.9154 42.4471 93.8666 42.5497 93.8068 42.5497C93.7471 42.5497 93.6983 42.6474 93.6983 42.7668C93.6983 42.8862 93.7471 42.9839 93.8068 42.9839C93.8666 42.9839 93.9154 43.1304 93.9154 43.3095C93.9154 43.4886 93.9643 43.6351 94.024 43.6351C94.0837 43.6351 94.1326 43.7084 94.1326 43.798C94.1326 43.8884 94.2291 43.9608 94.3497 43.9608C94.4691 43.9608 94.5668 44.0022 94.5668 44.0528C94.5668 44.1667 95.5856 44.5035 95.9301 44.5035C96.069 44.5035 96.2128 44.5523 96.2497 44.612C96.2866 44.6717 96.3908 44.7206 96.481 44.7206C96.7315 44.7206 96.9554 44.9988 96.9554 45.3099C96.9554 45.5165 96.8991 45.5889 96.7383 45.5889C96.6189 45.5889 96.5212 45.6378 96.5212 45.6975C96.5212 45.7572 96.3746 45.806 96.1954 45.806C96.0163 45.806 95.8697 45.7572 95.8697 45.6975C95.8697 45.6378 95.7837 45.5889 95.6787 45.5889C95.5736 45.5889 95.4273 45.4923 95.3535 45.3741L95.2194 45.1594L94.4588 45.1734L93.6983 45.1874V45.3882C93.6983 45.4986 93.7471 45.5889 93.8068 45.5889C93.8666 45.5889 93.9154 45.6759 93.9154 45.782C93.9154 45.8883 94.0191 46.047 94.1459 46.1348C94.2726 46.2226 94.4401 46.3556 94.5181 46.4301C94.5961 46.5048 94.7082 46.5658 94.7672 46.5658C94.8262 46.5658 94.8913 46.6162 94.9118 46.6776C94.9621 46.8285 97.2767 46.8308 97.4274 46.6801C97.4903 46.6173 97.6087 46.5658 97.6906 46.5658C98.6472 46.5658 98.7712 44.2392 97.8384 43.7922C97.6215 43.6882 97.3592 43.5615 97.2555 43.5106C97.1518 43.4597 96.9442 43.418 96.7941 43.418C96.6439 43.418 96.5212 43.3692 96.5212 43.3095C96.5212 43.2498 96.3502 43.201 96.1412 43.201C95.9322 43.201 95.7611 43.1521 95.7611 43.0924C95.7611 43.0327 95.6931 42.9839 95.6099 42.9839C95.5267 42.9839 95.429 42.9066 95.3928 42.8122C95.1486 42.1762 96.2157 41.8819 96.7383 42.4412L97.0425 42.7668H97.7047C98.4187 42.7668 98.4661 42.7161 98.2596 42.1733C97.9274 41.2995 95.9728 40.7801 94.8926 41.2785ZM36.7183 43.9879L36.752 46.7286L37.5934 46.7603L38.4348 46.792V45.7563V44.7206H39.412H40.3891V44.1821V43.6436L39.4391 43.6122L38.4891 43.5809V43.0381V42.4954L39.6563 42.4646L40.8234 42.4338V41.8405V41.2472H38.754H36.6846L36.7183 43.9879ZM79.5838 44.0089V46.8006L80.9138 46.7442C83.0168 46.6549 83.9027 46.4015 84.114 45.8285C84.1516 45.7266 84.2103 45.6188 84.2445 45.5889C84.4881 45.3765 84.5782 44.938 84.5782 43.9661V42.883L84.289 42.3653C83.9469 41.7528 83.7822 41.5728 83.5636 41.5728C83.4746 41.5728 83.3833 41.517 83.3606 41.4488C83.3327 41.3653 82.7114 41.3074 81.4516 41.271L79.5838 41.2171V44.0089ZM53.4846 42.7337L53.8521 43.1349V43.9292C53.8521 45.1228 53.5123 45.5889 52.6421 45.5889C52.0349 45.5889 51.5721 45.2753 51.5721 44.8639C51.5721 44.7254 51.5233 44.612 51.4635 44.612C51.4038 44.612 51.355 44.3434 51.355 44.015C51.355 43.6867 51.4038 43.418 51.4635 43.418C51.5233 43.418 51.5721 43.2942 51.5721 43.1428C51.5721 42.6712 51.9824 42.3468 52.5889 42.3392L53.1171 42.3326L53.4846 42.7337ZM68.1991 42.6573L68.5094 42.9819V43.9993V45.0166L68.2232 45.3028L67.9369 45.5889L67.3818 45.5855C66.8409 45.5821 66.4466 45.4107 66.4466 45.179C66.4466 45.1159 66.3891 45.0451 66.319 45.0218C66.1331 44.9598 66.1437 43.3392 66.3328 42.9202C66.5183 42.5087 66.7917 42.3633 67.412 42.346L67.8887 42.3326L68.1991 42.6573ZM82.291 42.5497C82.4143 42.5497 82.5153 42.5985 82.5153 42.6582C82.5153 42.7179 82.5764 42.7672 82.651 42.7677C82.7257 42.7681 82.8479 42.9 82.9224 43.0606C83.0844 43.4093 83.1063 44.8291 82.9496 44.8291C82.8899 44.8291 82.841 44.8814 82.841 44.9454C82.841 45.2392 82.4809 45.4065 81.8273 45.4161L81.1581 45.4261V43.9656V42.5052L81.4296 42.4359C81.5789 42.3978 81.7833 42.4078 81.8838 42.4582C81.9845 42.5086 82.1676 42.5497 82.291 42.5497Z" stroke="#CDCDCD" stroke-opacity="0.2" stroke-width="0.902981" mask="url(#path-1-inside-1_429_20479)"/>
</g>
<defs>
<filter id="filter0_d_429_20479" x="0.723585" y="0.455286" width="124.867" height="60.0894" filterUnits="userSpaceOnUse" color-interpolation-filters="sRGB">
<feFlood flood-opacity="0" result="BackgroundImageFix"/>
<feColorMatrix in="SourceAlpha" type="matrix" values="0 0 0 0 0 0 0 0 0 0 0 0 0 0 0 0 0 0 127 0" result="hardAlpha"/>
<feOffset dx="-4.5149"/>
<feGaussianBlur stdDeviation="6.77236"/>
<feComposite in2="hardAlpha" operator="out"/>
<feColorMatrix type="matrix" values="0 0 0 0 0 0 0 0 0 0 0 0 0 0 0 0 0 0 0.45 0"/>
<feBlend mode="normal" in2="BackgroundImageFix" result="effect1_dropShadow_429_20479"/>
<feBlend mode="normal" in="SourceGraphic" in2="effect1_dropShadow_429_20479" result="shape"/>
</filter>
</defs>
</svg>
