<svg width="159" height="72" viewBox="0 0 159 72" fill="none" xmlns="http://www.w3.org/2000/svg">
<g id="image 44 (Traced)" filter="url(#filter0_d_363_5351)">
<mask id="path-1-inside-1_363_5351" fill="white">
<path fill-rule="evenodd" clip-rule="evenodd" d="M130.374 13.9906C130.339 14.1704 130.23 14.9388 130.131 15.6981C130.032 16.4573 129.892 17.5036 129.82 18.0231C129.747 18.5426 129.654 19.4254 129.612 19.9848C129.57 20.5443 129.476 21.0642 129.402 21.1401C129.329 21.216 129.268 21.6208 129.268 22.0397C129.268 22.4587 129.203 22.8417 129.123 22.8911C129.043 22.9405 128.978 23.4348 128.978 23.9896C128.978 24.5652 128.915 24.9982 128.832 24.9982C128.751 24.9982 128.687 25.3885 128.687 25.8784C128.687 26.3626 128.622 27.0328 128.543 27.3679C128.464 27.703 128.328 28.6638 128.241 29.503C128.053 31.3223 127.88 32.6999 127.666 34.0804C127.579 34.6398 127.473 35.5391 127.431 36.0785C127.389 36.6179 127.295 37.0593 127.221 37.0593C127.148 37.0593 127.088 37.5498 127.088 38.1492C127.088 38.7486 127.031 39.2391 126.962 39.2391C126.893 39.2391 126.797 39.6805 126.749 40.2199C126.701 40.7593 126.558 41.9201 126.431 42.7993C126.304 43.6784 126.164 44.6971 126.119 45.0631C126.067 45.4949 125.942 45.7887 125.764 45.8999L125.489 46.0713L125.471 45.7431C125.46 45.5626 125.467 44.1561 125.486 42.6176L125.52 39.8203H117.718H109.916L109.708 39.6127C109.545 39.4499 109.5 38.8986 109.5 37.0593C109.5 35.2201 109.545 34.6688 109.708 34.506L109.916 34.2984H116.519H123.122L123.215 33.4051C123.334 32.2693 123.334 30.8833 123.214 28.6539L123.119 26.8873H116.539C112.921 26.8873 109.857 26.8476 109.73 26.7991L109.5 26.7109V24.0381V21.3653H117.059H124.617V17.6598V13.9543H112.625H100.634V30.5914V47.2283L113.752 47.2901C126.649 47.3508 129.059 47.4108 129.334 47.6782C129.41 47.7522 129.913 47.8126 130.452 47.8126C130.991 47.8126 131.472 47.878 131.521 47.958C131.571 48.0379 132.163 48.1033 132.838 48.1033C133.513 48.1033 134.065 48.1611 134.065 48.2317C134.065 48.3023 134.703 48.3981 135.482 48.4445C136.261 48.491 137.88 48.6335 139.08 48.7615C140.279 48.8896 141.816 49.0522 142.495 49.1231C143.175 49.194 144.221 49.323 144.821 49.4101C145.421 49.497 146.369 49.6265 146.929 49.6978C147.488 49.7692 148.159 49.872 148.419 49.9264L148.891 50.0253V49.2095C148.891 48.761 148.956 48.3939 149.036 48.3939C149.118 48.3939 149.182 47.9822 149.182 47.4493C149.182 46.9298 149.239 46.5048 149.308 46.5048C149.378 46.5048 149.476 45.9981 149.525 45.3786C149.575 44.7591 149.668 43.8843 149.732 43.4344L149.847 42.6163L148.897 42.4549C148.374 42.3661 147.684 42.262 147.365 42.2235C147.045 42.1852 146.358 42.0848 145.838 42.0002C145.319 41.9158 144.419 41.8087 143.84 41.7622C143.26 41.7157 142.786 41.6195 142.786 41.5483C142.786 41.4771 142.332 41.4188 141.777 41.4188C141.222 41.4188 140.728 41.3534 140.678 41.2735C140.629 41.1935 140.204 41.1282 139.734 41.1282C139.263 41.1282 138.844 41.0728 138.803 41.0049C138.761 40.9372 138.124 40.8391 137.389 40.7868C136.653 40.7346 136.02 40.661 135.982 40.6232C135.865 40.5058 135.96 38.4541 136.086 38.372C136.152 38.3294 136.244 37.8041 136.291 37.2047C136.366 36.2335 136.506 35.1063 136.984 31.61C137.061 31.0506 137.162 30.1351 137.208 29.5756C137.254 29.0162 137.351 28.4962 137.423 28.4204C137.495 28.3444 137.553 27.903 137.553 27.4395C137.553 26.9745 137.618 26.5967 137.699 26.5967C137.783 26.5967 137.844 26.1365 137.844 25.5068C137.844 24.8772 137.905 24.4169 137.989 24.4169C138.07 24.4169 138.135 24.0266 138.135 23.5368C138.135 23.0526 138.201 22.3824 138.281 22.0473C138.446 21.3575 138.701 19.3216 138.811 17.8051C138.851 17.2457 138.945 16.7257 139.018 16.6499C139.092 16.5739 139.152 16.1652 139.152 15.7417V14.9715H138.789C138.589 14.9715 138.425 14.9132 138.425 14.842C138.425 14.7708 137.951 14.6787 137.372 14.6373C136.792 14.5958 135.533 14.4549 134.574 14.324C133.614 14.193 132.419 14.0473 131.917 13.9999C131.415 13.9525 130.97 13.8575 130.927 13.7888C130.776 13.5444 130.436 13.6686 130.374 13.9906ZM18.9453 30.5928V47.2314H23.3422H27.7392L27.7466 42.033C27.7505 39.174 27.8034 36.7545 27.8642 36.6564C27.9405 36.5329 28.468 36.4781 29.579 36.4781H31.1837L31.6178 36.9427C31.8564 37.1981 32.2506 37.8029 32.4937 38.2868C32.7367 38.7706 32.9928 39.1882 33.0627 39.2148C33.1326 39.2415 33.1899 39.3559 33.1899 39.4691C33.1899 39.5824 33.2553 39.675 33.3353 39.675C33.4152 39.675 33.4806 39.8003 33.4806 39.9536C33.4806 40.1067 33.5396 40.2538 33.6119 40.2805C33.6841 40.3071 34.0521 40.9174 34.4298 41.6368C34.8074 42.3561 35.1571 42.9773 35.2071 43.0172C35.2571 43.0572 35.3959 43.2861 35.5156 43.5258C35.6352 43.7656 35.7722 43.9945 35.8199 44.0345C35.8677 44.0744 36.1577 44.5813 36.4643 45.1606C36.771 45.74 37.0753 46.2142 37.1407 46.2142C37.2063 46.2142 37.2598 46.345 37.2598 46.5048C37.2598 46.6646 37.3252 46.7954 37.4051 46.7954C37.4851 46.7954 37.5505 46.8935 37.5505 47.0134V47.2314H55.0655H72.5806V43.5258V39.8203H64.7606C58.8722 39.8203 56.8976 39.7773 56.7662 39.6459C56.6441 39.5239 56.5917 38.7226 56.5917 36.9732V34.4748L56.8217 34.3866C56.9481 34.338 60.0551 34.2984 63.726 34.2984H70.4003V31.1014C70.4003 29.067 70.3474 27.9045 70.2549 27.9045C70.175 27.9045 70.1096 27.6756 70.1096 27.3959V26.8873H63.5806C59.9897 26.8873 56.9481 26.8476 56.8217 26.7991L56.5917 26.7109V24.0381V21.3653H64.1501H71.7085V17.6598V13.9543H59.7168H47.7252V30.3749V46.7954H47.4969C47.1967 46.7954 46.9705 46.551 46.6619 45.8933C46.523 45.597 46.3457 45.3153 46.2678 45.2672C46.19 45.2192 46.1263 45.053 46.1263 44.8978C46.1263 44.7426 46.0609 44.6157 45.981 44.6157C45.901 44.6157 45.8356 44.5176 45.8356 44.3977C45.8356 44.2779 45.7702 44.1798 45.6903 44.1798C45.6103 44.1798 45.5449 44.049 45.5449 43.8891C45.5449 43.7293 45.4875 43.5985 45.4171 43.5985C45.3469 43.5985 45.2081 43.4023 45.1089 43.1626C45.0096 42.9228 44.8841 42.7266 44.8304 42.7266C44.7764 42.7266 44.611 42.4324 44.4626 42.0727C44.3144 41.713 44.1373 41.4188 44.0694 41.4188C44.0016 41.4188 43.946 41.288 43.946 41.1282C43.946 40.9683 43.8806 40.8375 43.8007 40.8375C43.7207 40.8375 43.6553 40.7394 43.6553 40.6196C43.6553 40.4997 43.5899 40.4016 43.51 40.4016C43.43 40.4016 43.3646 40.3381 43.3646 40.2605C43.3646 40.1829 43.0703 39.6215 42.7105 39.0132C42.3508 38.405 42.0564 37.8472 42.0564 37.7738C42.0564 37.7006 41.991 37.6406 41.9111 37.6406C41.8311 37.6406 41.7657 37.5098 41.7657 37.35C41.7657 37.1901 41.7003 37.0593 41.6204 37.0593C41.5404 37.0593 41.475 36.9613 41.475 36.8414C41.475 36.7215 41.4096 36.6234 41.3297 36.6234C41.2497 36.6234 41.1843 36.5609 41.1843 36.4845C41.1843 36.408 40.9858 36.009 40.7432 35.5976C40.2164 34.7044 40.2607 34.5056 41.1135 33.9351C41.4718 33.6953 41.7653 33.4502 41.7654 33.3901C41.7656 33.3301 41.8362 33.2812 41.9224 33.2812C42.0671 33.2812 42.5256 32.8315 43.5463 31.6891C43.7661 31.4431 43.946 31.1447 43.946 31.0263C43.946 30.9077 44.0016 30.8108 44.0694 30.8108C44.1373 30.8108 44.3144 30.5165 44.4626 30.1569C44.611 29.7972 44.7844 29.503 44.8479 29.503C44.9115 29.503 44.9635 29.3434 44.9635 29.1483C44.9635 28.9531 45.0289 28.7531 45.1089 28.7037C45.1888 28.6543 45.2542 28.4582 45.2542 28.2678C45.2542 28.0774 45.3196 27.8813 45.3996 27.8318C45.4872 27.7776 45.5449 26.7676 45.5449 25.2888C45.5449 23.8101 45.4872 22.8 45.3996 22.7458C45.3196 22.6964 45.2542 22.4311 45.2542 22.156C45.2542 21.8809 45.1888 21.656 45.1089 21.656C45.0289 21.656 44.9635 21.5327 44.9635 21.3822C44.9635 20.4923 42.1797 16.5699 41.5481 16.5699C41.4218 16.5699 40.2446 15.7821 40.1911 15.6617C40.1644 15.6017 40.0173 15.5527 39.8641 15.5527C39.7109 15.5527 39.5854 15.4874 39.5854 15.4074C39.5854 15.3275 39.4546 15.2621 39.2947 15.2621C39.1348 15.2621 39.004 15.1967 39.004 15.1168C39.004 15.0369 38.8405 14.9715 38.6406 14.9715C38.4408 14.9715 38.2773 14.9135 38.2773 14.8426C38.2773 14.7718 38.0973 14.6797 37.8775 14.6378C37.6578 14.596 36.8628 14.4251 36.1112 14.258L34.7446 13.9543H26.845H18.9453V30.5928ZM73.162 30.5928V47.2314L81.1927 47.2292L89.2235 47.2269L90.9677 46.93C91.9271 46.7667 92.9245 46.5969 93.1844 46.553C93.4443 46.509 93.6568 46.4147 93.6568 46.3436C93.6568 46.2724 93.8203 46.2142 94.0201 46.2142C94.22 46.2142 94.3835 46.1488 94.3835 46.0689C94.3835 45.9889 94.5143 45.9235 94.6742 45.9235C94.8341 45.9235 94.9649 45.8741 94.9649 45.8137C94.9649 45.7532 95.176 45.6104 95.434 45.4963C96.3688 45.0826 98.4534 43.2729 98.4534 42.8751C98.4534 42.7935 98.5136 42.7266 98.5873 42.7266C98.6608 42.7266 98.7639 42.5312 98.8164 42.2923C98.8688 42.0535 98.9722 41.8207 99.046 41.7751C99.1199 41.7296 99.1802 41.5654 99.1802 41.4102C99.1802 41.255 99.2456 41.1282 99.3255 41.1282C99.4055 41.1282 99.4709 40.9686 99.4709 40.7734C99.4709 40.5783 99.5293 40.3825 99.6008 40.3384C99.8998 40.1537 100.202 36.0421 99.9162 36.0421C99.8312 36.0421 99.7616 35.7845 99.7616 35.4695C99.7616 35.1544 99.6962 34.8564 99.6162 34.807C99.5363 34.7576 99.4709 34.5614 99.4709 34.371C99.4709 34.1807 99.4055 33.9845 99.3255 33.9351C99.2456 33.8857 99.1802 33.7184 99.1802 33.5632C99.1802 33.408 99.1219 33.2812 99.0505 33.2812C98.9793 33.2812 98.8799 33.1177 98.8297 32.9179C98.7796 32.7181 98.6743 32.5546 98.596 32.5546C98.5175 32.5546 98.4528 32.4401 98.4521 32.3003C98.4514 32.1605 98.2437 31.8825 97.9905 31.6827C97.7373 31.4829 97.4482 31.2377 97.348 31.1378C97.248 31.0379 97.1199 30.9561 97.0637 30.9561C97.0073 30.9561 96.8555 30.8367 96.7262 30.6908C96.597 30.5449 96.2786 30.3327 96.0187 30.2194C95.7589 30.106 95.5463 29.9639 95.5463 29.9035C95.5463 29.843 95.4155 29.7936 95.2556 29.7936C94.7622 29.7936 94.9181 29.2668 95.619 28.5661C95.9788 28.2065 96.2731 27.8595 96.2731 27.7951C96.2731 27.7307 96.4039 27.5838 96.5638 27.4686C96.7237 27.3533 96.8545 27.1689 96.8545 27.0588C96.8545 26.869 97.1582 26.0946 97.4481 25.5452C97.5214 25.4064 97.5813 25.0303 97.5813 24.7096C97.5813 24.3888 97.6467 24.1263 97.7266 24.1263C97.8121 24.1263 97.872 23.6206 97.872 22.8997C97.872 22.225 97.8066 21.6327 97.7266 21.5833C97.6467 21.5339 97.5813 21.2348 97.5813 20.9188C97.5813 20.6027 97.5198 20.2306 97.4447 20.0918C97.3694 19.953 97.197 19.5288 97.0615 19.1493C96.9259 18.7697 96.7584 18.459 96.6894 18.459C96.6204 18.459 96.5638 18.3617 96.5638 18.2427C96.5638 17.8625 94.8895 16.0766 94.3822 15.9156C94.2231 15.8652 94.0928 15.7751 94.0928 15.7154C94.0928 15.6558 93.8639 15.5171 93.5841 15.4074C93.3043 15.2977 93.0753 15.1547 93.0753 15.0896C93.0753 15.0247 92.9445 14.9715 92.7846 14.9715C92.6247 14.9715 92.4939 14.9135 92.4939 14.8426C92.4939 14.7718 92.3141 14.6798 92.0942 14.6381C91.8743 14.5966 91.0731 14.4266 90.3136 14.2603L88.9328 13.9581L81.0474 13.9562L73.162 13.9543V30.5928ZM34.2801 21.5107C34.3295 21.5906 34.5622 21.656 34.7974 21.656C35.0325 21.656 35.2248 21.7214 35.2248 21.8013C35.2248 21.8812 35.3536 21.9466 35.5109 21.9466C35.8522 21.9466 37.2598 23.2674 37.2598 23.5875C37.2598 23.7107 37.3383 23.8376 37.4342 23.8695C37.5524 23.9089 37.6086 24.3433 37.6086 25.2162C37.6086 26.0891 37.5524 26.5234 37.4342 26.5628C37.3383 26.5948 37.2598 26.7026 37.2598 26.8026C37.2598 27.0811 36.173 28.1951 35.9013 28.1951C35.769 28.1951 35.6609 28.2605 35.6609 28.3404C35.6609 28.4204 35.4702 28.4858 35.2369 28.4858C35.0038 28.4858 34.7904 28.5535 34.7628 28.6363C34.682 28.8787 28.3185 29.0159 28.0358 28.7813L27.8118 28.5955V25.2102C27.8118 23.3484 27.8515 21.7216 27.9001 21.5952L27.9883 21.3653H31.0893C32.9998 21.3653 34.2247 21.4211 34.2801 21.5107ZM88.1333 21.5107C88.1333 21.5906 88.2323 21.656 88.3534 21.656C88.7665 21.656 89.5869 22.2289 89.5869 22.5175C89.5869 22.6031 89.6523 22.6732 89.7322 22.6732C89.8122 22.6732 89.8776 22.8236 89.8776 23.0074C89.8776 23.1912 89.9516 23.4156 90.042 23.506C90.2205 23.6844 89.9199 24.9982 89.7005 24.9982C89.638 24.9982 89.586 25.08 89.5851 25.1799C89.5827 25.417 88.6547 26.0154 88.2893 26.0154C88.133 26.0154 87.9647 26.0808 87.9153 26.1607C87.8604 26.2495 86.732 26.306 85.0152 26.306H82.205L82.1167 26.0762C82.0682 25.9497 82.0285 24.9415 82.0285 23.8357C82.0285 22.7298 82.0682 21.7216 82.1167 21.5952L82.205 21.3653H85.1692C87.0484 21.3653 88.1333 21.4185 88.1333 21.5107ZM89.4973 33.8887C89.8264 33.9832 90.2692 34.1793 90.4814 34.3247C90.6936 34.4701 90.9225 34.5899 90.9901 34.5907C91.161 34.5933 91.7672 35.5539 91.7672 35.8221C91.7672 35.9432 91.8326 36.0421 91.9125 36.0421C91.9925 36.0421 92.0579 36.3652 92.0579 36.7601C92.0579 37.1551 91.9925 37.5185 91.9125 37.5679C91.8326 37.6173 91.7672 37.7526 91.7672 37.8685C91.7672 38.122 91.0044 38.9484 90.7703 38.9484C90.6791 38.9484 90.6043 39.0138 90.6043 39.0937C90.6043 39.1737 90.5062 39.2391 90.3863 39.2391C90.2664 39.2391 90.1683 39.3045 90.1683 39.3844C90.1683 39.4643 89.9721 39.5297 89.7322 39.5297C89.4924 39.5297 89.2962 39.5951 89.2962 39.675C89.2962 39.8981 82.4269 39.8699 82.2029 39.6459C82.0798 39.5229 82.0285 38.6771 82.0285 36.7687C82.0285 34.8603 82.0798 34.0146 82.2029 33.8915C82.4432 33.6513 88.6617 33.6489 89.4973 33.8887ZM62.8419 50.1377C62.8419 50.2176 62.708 50.283 62.5444 50.283C62.2054 50.283 61.13 51.3082 60.8055 51.9404C60.5222 52.4928 60.4935 55.5312 60.7706 55.6234C60.8706 55.6566 60.9523 55.783 60.9523 55.9041C60.9523 56.0252 61.1648 56.3143 61.4247 56.5463C62.3457 57.3693 62.7111 57.5487 63.4649 57.5487C63.8098 57.5487 64.1704 57.6272 64.2664 57.7231C64.402 57.8587 64.4408 57.8587 64.4408 57.7231C64.4408 57.618 64.6604 57.5487 64.9933 57.5487C65.5539 57.5487 66.3272 57.2754 66.3292 57.0765C66.3298 57.0164 66.4449 56.966 66.5848 56.9644C66.8672 56.9609 67.6386 55.9623 67.6386 55.6001C67.6386 55.4731 67.704 55.369 67.7839 55.369C67.872 55.369 67.9293 54.7394 67.9293 53.7705C67.9293 52.8017 67.872 52.1721 67.7839 52.1721C67.704 52.1721 67.6386 52.068 67.6386 51.941C67.6386 51.5788 66.8672 50.5802 66.5848 50.5767C66.4449 50.5751 66.3304 50.5242 66.3304 50.4636C66.3304 50.4032 66.0698 50.2724 65.7513 50.173C65.0552 49.9559 62.8419 49.929 62.8419 50.1377ZM82.6099 50.1377C82.49 50.2151 82.271 50.2795 82.1231 50.2808C81.8907 50.2827 81.5529 50.5832 80.8836 51.3835C80.7937 51.4907 80.7203 51.6468 80.7203 51.73C80.7203 51.8133 80.6549 51.8815 80.575 51.8815C80.495 51.8815 80.4296 52.0776 80.4296 52.3174C80.4296 52.5572 80.3642 52.7533 80.2843 52.7533C80.2013 52.7533 80.1389 53.1864 80.1389 53.762C80.1389 54.3168 80.2043 54.811 80.2843 54.8604C80.3642 54.9098 80.4296 55.1098 80.4296 55.3049C80.4296 55.5001 80.495 55.6596 80.575 55.6596C80.6549 55.6596 80.7203 55.7628 80.7203 55.8889C80.7203 56.178 81.7984 57.2581 82.0869 57.2581C82.2053 57.2581 82.3425 57.3235 82.3919 57.4034C82.4413 57.4833 82.7995 57.5487 83.1879 57.5487C83.6166 57.5487 83.9226 57.6201 83.9672 57.7304C84.0258 57.8757 84.0428 57.8757 84.052 57.7304C84.0595 57.6108 84.3119 57.5487 84.7902 57.5487C85.1899 57.5487 85.517 57.4833 85.517 57.4034C85.517 57.3235 85.6509 57.2581 85.8145 57.2581C86.2012 57.2581 87.2916 56.1668 87.5569 55.5143C87.8134 54.8832 87.8287 52.3906 87.5775 52.1395C87.4835 52.0455 87.4066 51.8815 87.4066 51.7749C87.4066 51.5475 86.4677 50.5736 86.2486 50.5736C86.166 50.5736 86.0984 50.5242 86.0984 50.4636C86.0984 50.0877 83.1182 49.8093 82.6099 50.1377ZM120.838 50.1797C120.277 50.4383 119.53 51.2365 119.53 51.5763C119.53 51.7441 119.464 51.8815 119.384 51.8815C119.304 51.8815 119.239 52.0122 119.239 52.1721C119.239 52.3319 119.304 52.4627 119.384 52.4627C119.464 52.4627 119.53 52.6589 119.53 52.8987C119.53 53.1384 119.595 53.3346 119.675 53.3346C119.755 53.3346 119.82 53.4327 119.82 53.5526C119.82 53.6736 119.95 53.7705 120.111 53.7705C120.271 53.7705 120.402 53.8261 120.402 53.8938C120.402 54.0462 121.766 54.4971 122.227 54.4971C122.413 54.4971 122.605 54.5625 122.655 54.6424C122.704 54.7224 122.843 54.7877 122.964 54.7877C123.3 54.7877 123.599 55.1602 123.599 55.5767C123.599 55.8533 123.524 55.9503 123.309 55.9503C123.149 55.9503 123.018 56.0157 123.018 56.0956C123.018 56.1755 122.822 56.2409 122.582 56.2409C122.342 56.2409 122.146 56.1755 122.146 56.0956C122.146 56.0157 122.031 55.9503 121.89 55.9503C121.75 55.9503 121.554 55.8209 121.455 55.6627L121.275 55.3753L120.257 55.394L119.239 55.4128V55.6816C119.239 55.8294 119.304 55.9503 119.384 55.9503C119.464 55.9503 119.53 56.0667 119.53 56.2088C119.53 56.351 119.668 56.5635 119.838 56.6811C120.008 56.7986 120.232 56.9766 120.336 57.0765C120.441 57.1764 120.591 57.2581 120.67 57.2581C120.749 57.2581 120.836 57.3255 120.863 57.4078C120.931 57.6098 124.03 57.6128 124.231 57.4111C124.315 57.327 124.474 57.2581 124.584 57.2581C125.864 57.2581 126.03 54.1433 124.781 53.5449C124.491 53.4057 124.14 53.2361 124.001 53.1679C123.862 53.0998 123.584 53.044 123.383 53.044C123.182 53.044 123.018 52.9786 123.018 52.8987C123.018 52.8187 122.789 52.7533 122.509 52.7533C122.23 52.7533 122.001 52.6879 122.001 52.608C122.001 52.5281 121.909 52.4627 121.798 52.4627C121.687 52.4627 121.556 52.3592 121.507 52.2328C121.181 51.3814 122.609 50.9875 123.309 51.7361L123.716 52.1721H124.603C125.558 52.1721 125.622 52.1042 125.345 51.3775C124.901 50.2077 122.284 49.5124 120.838 50.1797ZM42.9562 53.8069L43.0012 57.4761L44.1277 57.5185L45.2542 57.5609V56.1743V54.7877H46.5624H47.8706V54.0668V53.3459L46.5987 53.3039L45.3269 53.2619V52.5354V51.8088L46.8894 51.7675L48.452 51.7263V50.932V50.1377H45.6815H42.9111L42.9562 53.8069ZM100.343 53.8349V57.5724L102.124 57.4969C104.939 57.3774 106.125 57.0381 106.408 56.271C106.458 56.1345 106.537 55.9902 106.583 55.9503C106.909 55.6659 107.029 55.0788 107.029 53.7777V52.3277L106.642 51.6346C106.184 50.8146 105.964 50.5736 105.671 50.5736C105.552 50.5736 105.43 50.4989 105.399 50.4077C105.362 50.2958 104.53 50.2183 102.844 50.1696L100.343 50.0974V53.8349ZM65.4023 52.1278L65.8943 52.6648V53.7283C65.8943 55.3263 65.4394 55.9503 64.2744 55.9503C63.4614 55.9503 62.8419 55.5305 62.8419 54.9796C62.8419 54.7941 62.7765 54.6424 62.6966 54.6424C62.6166 54.6424 62.5512 54.2828 62.5512 53.8432C62.5512 53.4036 62.6166 53.044 62.6966 53.044C62.7765 53.044 62.8419 52.8782 62.8419 52.6754C62.8419 52.0441 63.3912 51.6099 64.2031 51.5997L64.9103 51.5908L65.4023 52.1278ZM85.1016 52.0255L85.517 52.4601V53.8221V55.184L85.1338 55.5672L84.7505 55.9503L84.0074 55.9456C83.2832 55.9411 82.7553 55.7117 82.7553 55.4014C82.7553 55.317 82.6784 55.2222 82.5845 55.191C82.3356 55.108 82.3499 52.9385 82.603 52.3774C82.8514 51.8265 83.2174 51.6319 84.0478 51.6087L84.686 51.5908L85.1016 52.0255ZM103.967 51.8815C104.132 51.8815 104.268 51.9468 104.268 52.0268C104.268 52.1067 104.349 52.1727 104.449 52.1732C104.549 52.1738 104.713 52.3504 104.813 52.5654C105.029 53.0322 105.059 54.9331 104.849 54.9331C104.769 54.9331 104.704 55.0031 104.704 55.0887C104.704 55.4821 104.221 55.706 103.346 55.7189L102.451 55.7323V53.7771V51.8219L102.814 51.7292C103.014 51.6782 103.288 51.6915 103.422 51.7589C103.557 51.8264 103.802 51.8815 103.967 51.8815Z"/>
</mask>
<path fill-rule="evenodd" clip-rule="evenodd" d="M130.374 13.9906C130.339 14.1704 130.23 14.9388 130.131 15.6981C130.032 16.4573 129.892 17.5036 129.82 18.0231C129.747 18.5426 129.654 19.4254 129.612 19.9848C129.57 20.5443 129.476 21.0642 129.402 21.1401C129.329 21.216 129.268 21.6208 129.268 22.0397C129.268 22.4587 129.203 22.8417 129.123 22.8911C129.043 22.9405 128.978 23.4348 128.978 23.9896C128.978 24.5652 128.915 24.9982 128.832 24.9982C128.751 24.9982 128.687 25.3885 128.687 25.8784C128.687 26.3626 128.622 27.0328 128.543 27.3679C128.464 27.703 128.328 28.6638 128.241 29.503C128.053 31.3223 127.88 32.6999 127.666 34.0804C127.579 34.6398 127.473 35.5391 127.431 36.0785C127.389 36.6179 127.295 37.0593 127.221 37.0593C127.148 37.0593 127.088 37.5498 127.088 38.1492C127.088 38.7486 127.031 39.2391 126.962 39.2391C126.893 39.2391 126.797 39.6805 126.749 40.2199C126.701 40.7593 126.558 41.9201 126.431 42.7993C126.304 43.6784 126.164 44.6971 126.119 45.0631C126.067 45.4949 125.942 45.7887 125.764 45.8999L125.489 46.0713L125.471 45.7431C125.46 45.5626 125.467 44.1561 125.486 42.6176L125.52 39.8203H117.718H109.916L109.708 39.6127C109.545 39.4499 109.5 38.8986 109.5 37.0593C109.5 35.2201 109.545 34.6688 109.708 34.506L109.916 34.2984H116.519H123.122L123.215 33.4051C123.334 32.2693 123.334 30.8833 123.214 28.6539L123.119 26.8873H116.539C112.921 26.8873 109.857 26.8476 109.73 26.7991L109.5 26.7109V24.0381V21.3653H117.059H124.617V17.6598V13.9543H112.625H100.634V30.5914V47.2283L113.752 47.2901C126.649 47.3508 129.059 47.4108 129.334 47.6782C129.41 47.7522 129.913 47.8126 130.452 47.8126C130.991 47.8126 131.472 47.878 131.521 47.958C131.571 48.0379 132.163 48.1033 132.838 48.1033C133.513 48.1033 134.065 48.1611 134.065 48.2317C134.065 48.3023 134.703 48.3981 135.482 48.4445C136.261 48.491 137.88 48.6335 139.08 48.7615C140.279 48.8896 141.816 49.0522 142.495 49.1231C143.175 49.194 144.221 49.323 144.821 49.4101C145.421 49.497 146.369 49.6265 146.929 49.6978C147.488 49.7692 148.159 49.872 148.419 49.9264L148.891 50.0253V49.2095C148.891 48.761 148.956 48.3939 149.036 48.3939C149.118 48.3939 149.182 47.9822 149.182 47.4493C149.182 46.9298 149.239 46.5048 149.308 46.5048C149.378 46.5048 149.476 45.9981 149.525 45.3786C149.575 44.7591 149.668 43.8843 149.732 43.4344L149.847 42.6163L148.897 42.4549C148.374 42.3661 147.684 42.262 147.365 42.2235C147.045 42.1852 146.358 42.0848 145.838 42.0002C145.319 41.9158 144.419 41.8087 143.84 41.7622C143.26 41.7157 142.786 41.6195 142.786 41.5483C142.786 41.4771 142.332 41.4188 141.777 41.4188C141.222 41.4188 140.728 41.3534 140.678 41.2735C140.629 41.1935 140.204 41.1282 139.734 41.1282C139.263 41.1282 138.844 41.0728 138.803 41.0049C138.761 40.9372 138.124 40.8391 137.389 40.7868C136.653 40.7346 136.02 40.661 135.982 40.6232C135.865 40.5058 135.96 38.4541 136.086 38.372C136.152 38.3294 136.244 37.8041 136.291 37.2047C136.366 36.2335 136.506 35.1063 136.984 31.61C137.061 31.0506 137.162 30.1351 137.208 29.5756C137.254 29.0162 137.351 28.4962 137.423 28.4204C137.495 28.3444 137.553 27.903 137.553 27.4395C137.553 26.9745 137.618 26.5967 137.699 26.5967C137.783 26.5967 137.844 26.1365 137.844 25.5068C137.844 24.8772 137.905 24.4169 137.989 24.4169C138.07 24.4169 138.135 24.0266 138.135 23.5368C138.135 23.0526 138.201 22.3824 138.281 22.0473C138.446 21.3575 138.701 19.3216 138.811 17.8051C138.851 17.2457 138.945 16.7257 139.018 16.6499C139.092 16.5739 139.152 16.1652 139.152 15.7417V14.9715H138.789C138.589 14.9715 138.425 14.9132 138.425 14.842C138.425 14.7708 137.951 14.6787 137.372 14.6373C136.792 14.5958 135.533 14.4549 134.574 14.324C133.614 14.193 132.419 14.0473 131.917 13.9999C131.415 13.9525 130.97 13.8575 130.927 13.7888C130.776 13.5444 130.436 13.6686 130.374 13.9906ZM18.9453 30.5928V47.2314H23.3422H27.7392L27.7466 42.033C27.7505 39.174 27.8034 36.7545 27.8642 36.6564C27.9405 36.5329 28.468 36.4781 29.579 36.4781H31.1837L31.6178 36.9427C31.8564 37.1981 32.2506 37.8029 32.4937 38.2868C32.7367 38.7706 32.9928 39.1882 33.0627 39.2148C33.1326 39.2415 33.1899 39.3559 33.1899 39.4691C33.1899 39.5824 33.2553 39.675 33.3353 39.675C33.4152 39.675 33.4806 39.8003 33.4806 39.9536C33.4806 40.1067 33.5396 40.2538 33.6119 40.2805C33.6841 40.3071 34.0521 40.9174 34.4298 41.6368C34.8074 42.3561 35.1571 42.9773 35.2071 43.0172C35.2571 43.0572 35.3959 43.2861 35.5156 43.5258C35.6352 43.7656 35.7722 43.9945 35.8199 44.0345C35.8677 44.0744 36.1577 44.5813 36.4643 45.1606C36.771 45.74 37.0753 46.2142 37.1407 46.2142C37.2063 46.2142 37.2598 46.345 37.2598 46.5048C37.2598 46.6646 37.3252 46.7954 37.4051 46.7954C37.4851 46.7954 37.5505 46.8935 37.5505 47.0134V47.2314H55.0655H72.5806V43.5258V39.8203H64.7606C58.8722 39.8203 56.8976 39.7773 56.7662 39.6459C56.6441 39.5239 56.5917 38.7226 56.5917 36.9732V34.4748L56.8217 34.3866C56.9481 34.338 60.0551 34.2984 63.726 34.2984H70.4003V31.1014C70.4003 29.067 70.3474 27.9045 70.2549 27.9045C70.175 27.9045 70.1096 27.6756 70.1096 27.3959V26.8873H63.5806C59.9897 26.8873 56.9481 26.8476 56.8217 26.7991L56.5917 26.7109V24.0381V21.3653H64.1501H71.7085V17.6598V13.9543H59.7168H47.7252V30.3749V46.7954H47.4969C47.1967 46.7954 46.9705 46.551 46.6619 45.8933C46.523 45.597 46.3457 45.3153 46.2678 45.2672C46.19 45.2192 46.1263 45.053 46.1263 44.8978C46.1263 44.7426 46.0609 44.6157 45.981 44.6157C45.901 44.6157 45.8356 44.5176 45.8356 44.3977C45.8356 44.2779 45.7702 44.1798 45.6903 44.1798C45.6103 44.1798 45.5449 44.049 45.5449 43.8891C45.5449 43.7293 45.4875 43.5985 45.4171 43.5985C45.3469 43.5985 45.2081 43.4023 45.1089 43.1626C45.0096 42.9228 44.8841 42.7266 44.8304 42.7266C44.7764 42.7266 44.611 42.4324 44.4626 42.0727C44.3144 41.713 44.1373 41.4188 44.0694 41.4188C44.0016 41.4188 43.946 41.288 43.946 41.1282C43.946 40.9683 43.8806 40.8375 43.8007 40.8375C43.7207 40.8375 43.6553 40.7394 43.6553 40.6196C43.6553 40.4997 43.5899 40.4016 43.51 40.4016C43.43 40.4016 43.3646 40.3381 43.3646 40.2605C43.3646 40.1829 43.0703 39.6215 42.7105 39.0132C42.3508 38.405 42.0564 37.8472 42.0564 37.7738C42.0564 37.7006 41.991 37.6406 41.9111 37.6406C41.8311 37.6406 41.7657 37.5098 41.7657 37.35C41.7657 37.1901 41.7003 37.0593 41.6204 37.0593C41.5404 37.0593 41.475 36.9613 41.475 36.8414C41.475 36.7215 41.4096 36.6234 41.3297 36.6234C41.2497 36.6234 41.1843 36.5609 41.1843 36.4845C41.1843 36.408 40.9858 36.009 40.7432 35.5976C40.2164 34.7044 40.2607 34.5056 41.1135 33.9351C41.4718 33.6953 41.7653 33.4502 41.7654 33.3901C41.7656 33.3301 41.8362 33.2812 41.9224 33.2812C42.0671 33.2812 42.5256 32.8315 43.5463 31.6891C43.7661 31.4431 43.946 31.1447 43.946 31.0263C43.946 30.9077 44.0016 30.8108 44.0694 30.8108C44.1373 30.8108 44.3144 30.5165 44.4626 30.1569C44.611 29.7972 44.7844 29.503 44.8479 29.503C44.9115 29.503 44.9635 29.3434 44.9635 29.1483C44.9635 28.9531 45.0289 28.7531 45.1089 28.7037C45.1888 28.6543 45.2542 28.4582 45.2542 28.2678C45.2542 28.0774 45.3196 27.8813 45.3996 27.8318C45.4872 27.7776 45.5449 26.7676 45.5449 25.2888C45.5449 23.8101 45.4872 22.8 45.3996 22.7458C45.3196 22.6964 45.2542 22.4311 45.2542 22.156C45.2542 21.8809 45.1888 21.656 45.1089 21.656C45.0289 21.656 44.9635 21.5327 44.9635 21.3822C44.9635 20.4923 42.1797 16.5699 41.5481 16.5699C41.4218 16.5699 40.2446 15.7821 40.1911 15.6617C40.1644 15.6017 40.0173 15.5527 39.8641 15.5527C39.7109 15.5527 39.5854 15.4874 39.5854 15.4074C39.5854 15.3275 39.4546 15.2621 39.2947 15.2621C39.1348 15.2621 39.004 15.1967 39.004 15.1168C39.004 15.0369 38.8405 14.9715 38.6406 14.9715C38.4408 14.9715 38.2773 14.9135 38.2773 14.8426C38.2773 14.7718 38.0973 14.6797 37.8775 14.6378C37.6578 14.596 36.8628 14.4251 36.1112 14.258L34.7446 13.9543H26.845H18.9453V30.5928ZM73.162 30.5928V47.2314L81.1927 47.2292L89.2235 47.2269L90.9677 46.93C91.9271 46.7667 92.9245 46.5969 93.1844 46.553C93.4443 46.509 93.6568 46.4147 93.6568 46.3436C93.6568 46.2724 93.8203 46.2142 94.0201 46.2142C94.22 46.2142 94.3835 46.1488 94.3835 46.0689C94.3835 45.9889 94.5143 45.9235 94.6742 45.9235C94.8341 45.9235 94.9649 45.8741 94.9649 45.8137C94.9649 45.7532 95.176 45.6104 95.434 45.4963C96.3688 45.0826 98.4534 43.2729 98.4534 42.8751C98.4534 42.7935 98.5136 42.7266 98.5873 42.7266C98.6608 42.7266 98.7639 42.5312 98.8164 42.2923C98.8688 42.0535 98.9722 41.8207 99.046 41.7751C99.1199 41.7296 99.1802 41.5654 99.1802 41.4102C99.1802 41.255 99.2456 41.1282 99.3255 41.1282C99.4055 41.1282 99.4709 40.9686 99.4709 40.7734C99.4709 40.5783 99.5293 40.3825 99.6008 40.3384C99.8998 40.1537 100.202 36.0421 99.9162 36.0421C99.8312 36.0421 99.7616 35.7845 99.7616 35.4695C99.7616 35.1544 99.6962 34.8564 99.6162 34.807C99.5363 34.7576 99.4709 34.5614 99.4709 34.371C99.4709 34.1807 99.4055 33.9845 99.3255 33.9351C99.2456 33.8857 99.1802 33.7184 99.1802 33.5632C99.1802 33.408 99.1219 33.2812 99.0505 33.2812C98.9793 33.2812 98.8799 33.1177 98.8297 32.9179C98.7796 32.7181 98.6743 32.5546 98.596 32.5546C98.5175 32.5546 98.4528 32.4401 98.4521 32.3003C98.4514 32.1605 98.2437 31.8825 97.9905 31.6827C97.7373 31.4829 97.4482 31.2377 97.348 31.1378C97.248 31.0379 97.1199 30.9561 97.0637 30.9561C97.0073 30.9561 96.8555 30.8367 96.7262 30.6908C96.597 30.5449 96.2786 30.3327 96.0187 30.2194C95.7589 30.106 95.5463 29.9639 95.5463 29.9035C95.5463 29.843 95.4155 29.7936 95.2556 29.7936C94.7622 29.7936 94.9181 29.2668 95.619 28.5661C95.9788 28.2065 96.2731 27.8595 96.2731 27.7951C96.2731 27.7307 96.4039 27.5838 96.5638 27.4686C96.7237 27.3533 96.8545 27.1689 96.8545 27.0588C96.8545 26.869 97.1582 26.0946 97.4481 25.5452C97.5214 25.4064 97.5813 25.0303 97.5813 24.7096C97.5813 24.3888 97.6467 24.1263 97.7266 24.1263C97.8121 24.1263 97.872 23.6206 97.872 22.8997C97.872 22.225 97.8066 21.6327 97.7266 21.5833C97.6467 21.5339 97.5813 21.2348 97.5813 20.9188C97.5813 20.6027 97.5198 20.2306 97.4447 20.0918C97.3694 19.953 97.197 19.5288 97.0615 19.1493C96.9259 18.7697 96.7584 18.459 96.6894 18.459C96.6204 18.459 96.5638 18.3617 96.5638 18.2427C96.5638 17.8625 94.8895 16.0766 94.3822 15.9156C94.2231 15.8652 94.0928 15.7751 94.0928 15.7154C94.0928 15.6558 93.8639 15.5171 93.5841 15.4074C93.3043 15.2977 93.0753 15.1547 93.0753 15.0896C93.0753 15.0247 92.9445 14.9715 92.7846 14.9715C92.6247 14.9715 92.4939 14.9135 92.4939 14.8426C92.4939 14.7718 92.3141 14.6798 92.0942 14.6381C91.8743 14.5966 91.0731 14.4266 90.3136 14.2603L88.9328 13.9581L81.0474 13.9562L73.162 13.9543V30.5928ZM34.2801 21.5107C34.3295 21.5906 34.5622 21.656 34.7974 21.656C35.0325 21.656 35.2248 21.7214 35.2248 21.8013C35.2248 21.8812 35.3536 21.9466 35.5109 21.9466C35.8522 21.9466 37.2598 23.2674 37.2598 23.5875C37.2598 23.7107 37.3383 23.8376 37.4342 23.8695C37.5524 23.9089 37.6086 24.3433 37.6086 25.2162C37.6086 26.0891 37.5524 26.5234 37.4342 26.5628C37.3383 26.5948 37.2598 26.7026 37.2598 26.8026C37.2598 27.0811 36.173 28.1951 35.9013 28.1951C35.769 28.1951 35.6609 28.2605 35.6609 28.3404C35.6609 28.4204 35.4702 28.4858 35.2369 28.4858C35.0038 28.4858 34.7904 28.5535 34.7628 28.6363C34.682 28.8787 28.3185 29.0159 28.0358 28.7813L27.8118 28.5955V25.2102C27.8118 23.3484 27.8515 21.7216 27.9001 21.5952L27.9883 21.3653H31.0893C32.9998 21.3653 34.2247 21.4211 34.2801 21.5107ZM88.1333 21.5107C88.1333 21.5906 88.2323 21.656 88.3534 21.656C88.7665 21.656 89.5869 22.2289 89.5869 22.5175C89.5869 22.6031 89.6523 22.6732 89.7322 22.6732C89.8122 22.6732 89.8776 22.8236 89.8776 23.0074C89.8776 23.1912 89.9516 23.4156 90.042 23.506C90.2205 23.6844 89.9199 24.9982 89.7005 24.9982C89.638 24.9982 89.586 25.08 89.5851 25.1799C89.5827 25.417 88.6547 26.0154 88.2893 26.0154C88.133 26.0154 87.9647 26.0808 87.9153 26.1607C87.8604 26.2495 86.732 26.306 85.0152 26.306H82.205L82.1167 26.0762C82.0682 25.9497 82.0285 24.9415 82.0285 23.8357C82.0285 22.7298 82.0682 21.7216 82.1167 21.5952L82.205 21.3653H85.1692C87.0484 21.3653 88.1333 21.4185 88.1333 21.5107ZM89.4973 33.8887C89.8264 33.9832 90.2692 34.1793 90.4814 34.3247C90.6936 34.4701 90.9225 34.5899 90.9901 34.5907C91.161 34.5933 91.7672 35.5539 91.7672 35.8221C91.7672 35.9432 91.8326 36.0421 91.9125 36.0421C91.9925 36.0421 92.0579 36.3652 92.0579 36.7601C92.0579 37.1551 91.9925 37.5185 91.9125 37.5679C91.8326 37.6173 91.7672 37.7526 91.7672 37.8685C91.7672 38.122 91.0044 38.9484 90.7703 38.9484C90.6791 38.9484 90.6043 39.0138 90.6043 39.0937C90.6043 39.1737 90.5062 39.2391 90.3863 39.2391C90.2664 39.2391 90.1683 39.3045 90.1683 39.3844C90.1683 39.4643 89.9721 39.5297 89.7322 39.5297C89.4924 39.5297 89.2962 39.5951 89.2962 39.675C89.2962 39.8981 82.4269 39.8699 82.2029 39.6459C82.0798 39.5229 82.0285 38.6771 82.0285 36.7687C82.0285 34.8603 82.0798 34.0146 82.2029 33.8915C82.4432 33.6513 88.6617 33.6489 89.4973 33.8887ZM62.8419 50.1377C62.8419 50.2176 62.708 50.283 62.5444 50.283C62.2054 50.283 61.13 51.3082 60.8055 51.9404C60.5222 52.4928 60.4935 55.5312 60.7706 55.6234C60.8706 55.6566 60.9523 55.783 60.9523 55.9041C60.9523 56.0252 61.1648 56.3143 61.4247 56.5463C62.3457 57.3693 62.7111 57.5487 63.4649 57.5487C63.8098 57.5487 64.1704 57.6272 64.2664 57.7231C64.402 57.8587 64.4408 57.8587 64.4408 57.7231C64.4408 57.618 64.6604 57.5487 64.9933 57.5487C65.5539 57.5487 66.3272 57.2754 66.3292 57.0765C66.3298 57.0164 66.4449 56.966 66.5848 56.9644C66.8672 56.9609 67.6386 55.9623 67.6386 55.6001C67.6386 55.4731 67.704 55.369 67.7839 55.369C67.872 55.369 67.9293 54.7394 67.9293 53.7705C67.9293 52.8017 67.872 52.1721 67.7839 52.1721C67.704 52.1721 67.6386 52.068 67.6386 51.941C67.6386 51.5788 66.8672 50.5802 66.5848 50.5767C66.4449 50.5751 66.3304 50.5242 66.3304 50.4636C66.3304 50.4032 66.0698 50.2724 65.7513 50.173C65.0552 49.9559 62.8419 49.929 62.8419 50.1377ZM82.6099 50.1377C82.49 50.2151 82.271 50.2795 82.1231 50.2808C81.8907 50.2827 81.5529 50.5832 80.8836 51.3835C80.7937 51.4907 80.7203 51.6468 80.7203 51.73C80.7203 51.8133 80.6549 51.8815 80.575 51.8815C80.495 51.8815 80.4296 52.0776 80.4296 52.3174C80.4296 52.5572 80.3642 52.7533 80.2843 52.7533C80.2013 52.7533 80.1389 53.1864 80.1389 53.762C80.1389 54.3168 80.2043 54.811 80.2843 54.8604C80.3642 54.9098 80.4296 55.1098 80.4296 55.3049C80.4296 55.5001 80.495 55.6596 80.575 55.6596C80.6549 55.6596 80.7203 55.7628 80.7203 55.8889C80.7203 56.178 81.7984 57.2581 82.0869 57.2581C82.2053 57.2581 82.3425 57.3235 82.3919 57.4034C82.4413 57.4833 82.7995 57.5487 83.1879 57.5487C83.6166 57.5487 83.9226 57.6201 83.9672 57.7304C84.0258 57.8757 84.0428 57.8757 84.052 57.7304C84.0595 57.6108 84.3119 57.5487 84.7902 57.5487C85.1899 57.5487 85.517 57.4833 85.517 57.4034C85.517 57.3235 85.6509 57.2581 85.8145 57.2581C86.2012 57.2581 87.2916 56.1668 87.5569 55.5143C87.8134 54.8832 87.8287 52.3906 87.5775 52.1395C87.4835 52.0455 87.4066 51.8815 87.4066 51.7749C87.4066 51.5475 86.4677 50.5736 86.2486 50.5736C86.166 50.5736 86.0984 50.5242 86.0984 50.4636C86.0984 50.0877 83.1182 49.8093 82.6099 50.1377ZM120.838 50.1797C120.277 50.4383 119.53 51.2365 119.53 51.5763C119.53 51.7441 119.464 51.8815 119.384 51.8815C119.304 51.8815 119.239 52.0122 119.239 52.1721C119.239 52.3319 119.304 52.4627 119.384 52.4627C119.464 52.4627 119.53 52.6589 119.53 52.8987C119.53 53.1384 119.595 53.3346 119.675 53.3346C119.755 53.3346 119.82 53.4327 119.82 53.5526C119.82 53.6736 119.95 53.7705 120.111 53.7705C120.271 53.7705 120.402 53.8261 120.402 53.8938C120.402 54.0462 121.766 54.4971 122.227 54.4971C122.413 54.4971 122.605 54.5625 122.655 54.6424C122.704 54.7224 122.843 54.7877 122.964 54.7877C123.3 54.7877 123.599 55.1602 123.599 55.5767C123.599 55.8533 123.524 55.9503 123.309 55.9503C123.149 55.9503 123.018 56.0157 123.018 56.0956C123.018 56.1755 122.822 56.2409 122.582 56.2409C122.342 56.2409 122.146 56.1755 122.146 56.0956C122.146 56.0157 122.031 55.9503 121.89 55.9503C121.75 55.9503 121.554 55.8209 121.455 55.6627L121.275 55.3753L120.257 55.394L119.239 55.4128V55.6816C119.239 55.8294 119.304 55.9503 119.384 55.9503C119.464 55.9503 119.53 56.0667 119.53 56.2088C119.53 56.351 119.668 56.5635 119.838 56.6811C120.008 56.7986 120.232 56.9766 120.336 57.0765C120.441 57.1764 120.591 57.2581 120.67 57.2581C120.749 57.2581 120.836 57.3255 120.863 57.4078C120.931 57.6098 124.03 57.6128 124.231 57.4111C124.315 57.327 124.474 57.2581 124.584 57.2581C125.864 57.2581 126.03 54.1433 124.781 53.5449C124.491 53.4057 124.14 53.2361 124.001 53.1679C123.862 53.0998 123.584 53.044 123.383 53.044C123.182 53.044 123.018 52.9786 123.018 52.8987C123.018 52.8187 122.789 52.7533 122.509 52.7533C122.23 52.7533 122.001 52.6879 122.001 52.608C122.001 52.5281 121.909 52.4627 121.798 52.4627C121.687 52.4627 121.556 52.3592 121.507 52.2328C121.181 51.3814 122.609 50.9875 123.309 51.7361L123.716 52.1721H124.603C125.558 52.1721 125.622 52.1042 125.345 51.3775C124.901 50.2077 122.284 49.5124 120.838 50.1797ZM42.9562 53.8069L43.0012 57.4761L44.1277 57.5185L45.2542 57.5609V56.1743V54.7877H46.5624H47.8706V54.0668V53.3459L46.5987 53.3039L45.3269 53.2619V52.5354V51.8088L46.8894 51.7675L48.452 51.7263V50.932V50.1377H45.6815H42.9111L42.9562 53.8069ZM100.343 53.8349V57.5724L102.124 57.4969C104.939 57.3774 106.125 57.0381 106.408 56.271C106.458 56.1345 106.537 55.9902 106.583 55.9503C106.909 55.6659 107.029 55.0788 107.029 53.7777V52.3277L106.642 51.6346C106.184 50.8146 105.964 50.5736 105.671 50.5736C105.552 50.5736 105.43 50.4989 105.399 50.4077C105.362 50.2958 104.53 50.2183 102.844 50.1696L100.343 50.0974V53.8349ZM65.4023 52.1278L65.8943 52.6648V53.7283C65.8943 55.3263 65.4394 55.9503 64.2744 55.9503C63.4614 55.9503 62.8419 55.5305 62.8419 54.9796C62.8419 54.7941 62.7765 54.6424 62.6966 54.6424C62.6166 54.6424 62.5512 54.2828 62.5512 53.8432C62.5512 53.4036 62.6166 53.044 62.6966 53.044C62.7765 53.044 62.8419 52.8782 62.8419 52.6754C62.8419 52.0441 63.3912 51.6099 64.2031 51.5997L64.9103 51.5908L65.4023 52.1278ZM85.1016 52.0255L85.517 52.4601V53.8221V55.184L85.1338 55.5672L84.7505 55.9503L84.0074 55.9456C83.2832 55.9411 82.7553 55.7117 82.7553 55.4014C82.7553 55.317 82.6784 55.2222 82.5845 55.191C82.3356 55.108 82.3499 52.9385 82.603 52.3774C82.8514 51.8265 83.2174 51.6319 84.0478 51.6087L84.686 51.5908L85.1016 52.0255ZM103.967 51.8815C104.132 51.8815 104.268 51.9468 104.268 52.0268C104.268 52.1067 104.349 52.1727 104.449 52.1732C104.549 52.1738 104.713 52.3504 104.813 52.5654C105.029 53.0322 105.059 54.9331 104.849 54.9331C104.769 54.9331 104.704 55.0031 104.704 55.0887C104.704 55.4821 104.221 55.706 103.346 55.7189L102.451 55.7323V53.7771V51.8219L102.814 51.7292C103.014 51.6782 103.288 51.6915 103.422 51.7589C103.557 51.8264 103.802 51.8815 103.967 51.8815Z" fill="#111111"/>
<path fill-rule="evenodd" clip-rule="evenodd" d="M130.374 13.9906C130.339 14.1704 130.23 14.9388 130.131 15.6981C130.032 16.4573 129.892 17.5036 129.82 18.0231C129.747 18.5426 129.654 19.4254 129.612 19.9848C129.57 20.5443 129.476 21.0642 129.402 21.1401C129.329 21.216 129.268 21.6208 129.268 22.0397C129.268 22.4587 129.203 22.8417 129.123 22.8911C129.043 22.9405 128.978 23.4348 128.978 23.9896C128.978 24.5652 128.915 24.9982 128.832 24.9982C128.751 24.9982 128.687 25.3885 128.687 25.8784C128.687 26.3626 128.622 27.0328 128.543 27.3679C128.464 27.703 128.328 28.6638 128.241 29.503C128.053 31.3223 127.88 32.6999 127.666 34.0804C127.579 34.6398 127.473 35.5391 127.431 36.0785C127.389 36.6179 127.295 37.0593 127.221 37.0593C127.148 37.0593 127.088 37.5498 127.088 38.1492C127.088 38.7486 127.031 39.2391 126.962 39.2391C126.893 39.2391 126.797 39.6805 126.749 40.2199C126.701 40.7593 126.558 41.9201 126.431 42.7993C126.304 43.6784 126.164 44.6971 126.119 45.0631C126.067 45.4949 125.942 45.7887 125.764 45.8999L125.489 46.0713L125.471 45.7431C125.46 45.5626 125.467 44.1561 125.486 42.6176L125.52 39.8203H117.718H109.916L109.708 39.6127C109.545 39.4499 109.5 38.8986 109.5 37.0593C109.5 35.2201 109.545 34.6688 109.708 34.506L109.916 34.2984H116.519H123.122L123.215 33.4051C123.334 32.2693 123.334 30.8833 123.214 28.6539L123.119 26.8873H116.539C112.921 26.8873 109.857 26.8476 109.73 26.7991L109.5 26.7109V24.0381V21.3653H117.059H124.617V17.6598V13.9543H112.625H100.634V30.5914V47.2283L113.752 47.2901C126.649 47.3508 129.059 47.4108 129.334 47.6782C129.41 47.7522 129.913 47.8126 130.452 47.8126C130.991 47.8126 131.472 47.878 131.521 47.958C131.571 48.0379 132.163 48.1033 132.838 48.1033C133.513 48.1033 134.065 48.1611 134.065 48.2317C134.065 48.3023 134.703 48.3981 135.482 48.4445C136.261 48.491 137.88 48.6335 139.08 48.7615C140.279 48.8896 141.816 49.0522 142.495 49.1231C143.175 49.194 144.221 49.323 144.821 49.4101C145.421 49.497 146.369 49.6265 146.929 49.6978C147.488 49.7692 148.159 49.872 148.419 49.9264L148.891 50.0253V49.2095C148.891 48.761 148.956 48.3939 149.036 48.3939C149.118 48.3939 149.182 47.9822 149.182 47.4493C149.182 46.9298 149.239 46.5048 149.308 46.5048C149.378 46.5048 149.476 45.9981 149.525 45.3786C149.575 44.7591 149.668 43.8843 149.732 43.4344L149.847 42.6163L148.897 42.4549C148.374 42.3661 147.684 42.262 147.365 42.2235C147.045 42.1852 146.358 42.0848 145.838 42.0002C145.319 41.9158 144.419 41.8087 143.84 41.7622C143.26 41.7157 142.786 41.6195 142.786 41.5483C142.786 41.4771 142.332 41.4188 141.777 41.4188C141.222 41.4188 140.728 41.3534 140.678 41.2735C140.629 41.1935 140.204 41.1282 139.734 41.1282C139.263 41.1282 138.844 41.0728 138.803 41.0049C138.761 40.9372 138.124 40.8391 137.389 40.7868C136.653 40.7346 136.02 40.661 135.982 40.6232C135.865 40.5058 135.96 38.4541 136.086 38.372C136.152 38.3294 136.244 37.8041 136.291 37.2047C136.366 36.2335 136.506 35.1063 136.984 31.61C137.061 31.0506 137.162 30.1351 137.208 29.5756C137.254 29.0162 137.351 28.4962 137.423 28.4204C137.495 28.3444 137.553 27.903 137.553 27.4395C137.553 26.9745 137.618 26.5967 137.699 26.5967C137.783 26.5967 137.844 26.1365 137.844 25.5068C137.844 24.8772 137.905 24.4169 137.989 24.4169C138.07 24.4169 138.135 24.0266 138.135 23.5368C138.135 23.0526 138.201 22.3824 138.281 22.0473C138.446 21.3575 138.701 19.3216 138.811 17.8051C138.851 17.2457 138.945 16.7257 139.018 16.6499C139.092 16.5739 139.152 16.1652 139.152 15.7417V14.9715H138.789C138.589 14.9715 138.425 14.9132 138.425 14.842C138.425 14.7708 137.951 14.6787 137.372 14.6373C136.792 14.5958 135.533 14.4549 134.574 14.324C133.614 14.193 132.419 14.0473 131.917 13.9999C131.415 13.9525 130.97 13.8575 130.927 13.7888C130.776 13.5444 130.436 13.6686 130.374 13.9906ZM18.9453 30.5928V47.2314H23.3422H27.7392L27.7466 42.033C27.7505 39.174 27.8034 36.7545 27.8642 36.6564C27.9405 36.5329 28.468 36.4781 29.579 36.4781H31.1837L31.6178 36.9427C31.8564 37.1981 32.2506 37.8029 32.4937 38.2868C32.7367 38.7706 32.9928 39.1882 33.0627 39.2148C33.1326 39.2415 33.1899 39.3559 33.1899 39.4691C33.1899 39.5824 33.2553 39.675 33.3353 39.675C33.4152 39.675 33.4806 39.8003 33.4806 39.9536C33.4806 40.1067 33.5396 40.2538 33.6119 40.2805C33.6841 40.3071 34.0521 40.9174 34.4298 41.6368C34.8074 42.3561 35.1571 42.9773 35.2071 43.0172C35.2571 43.0572 35.3959 43.2861 35.5156 43.5258C35.6352 43.7656 35.7722 43.9945 35.8199 44.0345C35.8677 44.0744 36.1577 44.5813 36.4643 45.1606C36.771 45.74 37.0753 46.2142 37.1407 46.2142C37.2063 46.2142 37.2598 46.345 37.2598 46.5048C37.2598 46.6646 37.3252 46.7954 37.4051 46.7954C37.4851 46.7954 37.5505 46.8935 37.5505 47.0134V47.2314H55.0655H72.5806V43.5258V39.8203H64.7606C58.8722 39.8203 56.8976 39.7773 56.7662 39.6459C56.6441 39.5239 56.5917 38.7226 56.5917 36.9732V34.4748L56.8217 34.3866C56.9481 34.338 60.0551 34.2984 63.726 34.2984H70.4003V31.1014C70.4003 29.067 70.3474 27.9045 70.2549 27.9045C70.175 27.9045 70.1096 27.6756 70.1096 27.3959V26.8873H63.5806C59.9897 26.8873 56.9481 26.8476 56.8217 26.7991L56.5917 26.7109V24.0381V21.3653H64.1501H71.7085V17.6598V13.9543H59.7168H47.7252V30.3749V46.7954H47.4969C47.1967 46.7954 46.9705 46.551 46.6619 45.8933C46.523 45.597 46.3457 45.3153 46.2678 45.2672C46.19 45.2192 46.1263 45.053 46.1263 44.8978C46.1263 44.7426 46.0609 44.6157 45.981 44.6157C45.901 44.6157 45.8356 44.5176 45.8356 44.3977C45.8356 44.2779 45.7702 44.1798 45.6903 44.1798C45.6103 44.1798 45.5449 44.049 45.5449 43.8891C45.5449 43.7293 45.4875 43.5985 45.4171 43.5985C45.3469 43.5985 45.2081 43.4023 45.1089 43.1626C45.0096 42.9228 44.8841 42.7266 44.8304 42.7266C44.7764 42.7266 44.611 42.4324 44.4626 42.0727C44.3144 41.713 44.1373 41.4188 44.0694 41.4188C44.0016 41.4188 43.946 41.288 43.946 41.1282C43.946 40.9683 43.8806 40.8375 43.8007 40.8375C43.7207 40.8375 43.6553 40.7394 43.6553 40.6196C43.6553 40.4997 43.5899 40.4016 43.51 40.4016C43.43 40.4016 43.3646 40.3381 43.3646 40.2605C43.3646 40.1829 43.0703 39.6215 42.7105 39.0132C42.3508 38.405 42.0564 37.8472 42.0564 37.7738C42.0564 37.7006 41.991 37.6406 41.9111 37.6406C41.8311 37.6406 41.7657 37.5098 41.7657 37.35C41.7657 37.1901 41.7003 37.0593 41.6204 37.0593C41.5404 37.0593 41.475 36.9613 41.475 36.8414C41.475 36.7215 41.4096 36.6234 41.3297 36.6234C41.2497 36.6234 41.1843 36.5609 41.1843 36.4845C41.1843 36.408 40.9858 36.009 40.7432 35.5976C40.2164 34.7044 40.2607 34.5056 41.1135 33.9351C41.4718 33.6953 41.7653 33.4502 41.7654 33.3901C41.7656 33.3301 41.8362 33.2812 41.9224 33.2812C42.0671 33.2812 42.5256 32.8315 43.5463 31.6891C43.7661 31.4431 43.946 31.1447 43.946 31.0263C43.946 30.9077 44.0016 30.8108 44.0694 30.8108C44.1373 30.8108 44.3144 30.5165 44.4626 30.1569C44.611 29.7972 44.7844 29.503 44.8479 29.503C44.9115 29.503 44.9635 29.3434 44.9635 29.1483C44.9635 28.9531 45.0289 28.7531 45.1089 28.7037C45.1888 28.6543 45.2542 28.4582 45.2542 28.2678C45.2542 28.0774 45.3196 27.8813 45.3996 27.8318C45.4872 27.7776 45.5449 26.7676 45.5449 25.2888C45.5449 23.8101 45.4872 22.8 45.3996 22.7458C45.3196 22.6964 45.2542 22.4311 45.2542 22.156C45.2542 21.8809 45.1888 21.656 45.1089 21.656C45.0289 21.656 44.9635 21.5327 44.9635 21.3822C44.9635 20.4923 42.1797 16.5699 41.5481 16.5699C41.4218 16.5699 40.2446 15.7821 40.1911 15.6617C40.1644 15.6017 40.0173 15.5527 39.8641 15.5527C39.7109 15.5527 39.5854 15.4874 39.5854 15.4074C39.5854 15.3275 39.4546 15.2621 39.2947 15.2621C39.1348 15.2621 39.004 15.1967 39.004 15.1168C39.004 15.0369 38.8405 14.9715 38.6406 14.9715C38.4408 14.9715 38.2773 14.9135 38.2773 14.8426C38.2773 14.7718 38.0973 14.6797 37.8775 14.6378C37.6578 14.596 36.8628 14.4251 36.1112 14.258L34.7446 13.9543H26.845H18.9453V30.5928ZM73.162 30.5928V47.2314L81.1927 47.2292L89.2235 47.2269L90.9677 46.93C91.9271 46.7667 92.9245 46.5969 93.1844 46.553C93.4443 46.509 93.6568 46.4147 93.6568 46.3436C93.6568 46.2724 93.8203 46.2142 94.0201 46.2142C94.22 46.2142 94.3835 46.1488 94.3835 46.0689C94.3835 45.9889 94.5143 45.9235 94.6742 45.9235C94.8341 45.9235 94.9649 45.8741 94.9649 45.8137C94.9649 45.7532 95.176 45.6104 95.434 45.4963C96.3688 45.0826 98.4534 43.2729 98.4534 42.8751C98.4534 42.7935 98.5136 42.7266 98.5873 42.7266C98.6608 42.7266 98.7639 42.5312 98.8164 42.2923C98.8688 42.0535 98.9722 41.8207 99.046 41.7751C99.1199 41.7296 99.1802 41.5654 99.1802 41.4102C99.1802 41.255 99.2456 41.1282 99.3255 41.1282C99.4055 41.1282 99.4709 40.9686 99.4709 40.7734C99.4709 40.5783 99.5293 40.3825 99.6008 40.3384C99.8998 40.1537 100.202 36.0421 99.9162 36.0421C99.8312 36.0421 99.7616 35.7845 99.7616 35.4695C99.7616 35.1544 99.6962 34.8564 99.6162 34.807C99.5363 34.7576 99.4709 34.5614 99.4709 34.371C99.4709 34.1807 99.4055 33.9845 99.3255 33.9351C99.2456 33.8857 99.1802 33.7184 99.1802 33.5632C99.1802 33.408 99.1219 33.2812 99.0505 33.2812C98.9793 33.2812 98.8799 33.1177 98.8297 32.9179C98.7796 32.7181 98.6743 32.5546 98.596 32.5546C98.5175 32.5546 98.4528 32.4401 98.4521 32.3003C98.4514 32.1605 98.2437 31.8825 97.9905 31.6827C97.7373 31.4829 97.4482 31.2377 97.348 31.1378C97.248 31.0379 97.1199 30.9561 97.0637 30.9561C97.0073 30.9561 96.8555 30.8367 96.7262 30.6908C96.597 30.5449 96.2786 30.3327 96.0187 30.2194C95.7589 30.106 95.5463 29.9639 95.5463 29.9035C95.5463 29.843 95.4155 29.7936 95.2556 29.7936C94.7622 29.7936 94.9181 29.2668 95.619 28.5661C95.9788 28.2065 96.2731 27.8595 96.2731 27.7951C96.2731 27.7307 96.4039 27.5838 96.5638 27.4686C96.7237 27.3533 96.8545 27.1689 96.8545 27.0588C96.8545 26.869 97.1582 26.0946 97.4481 25.5452C97.5214 25.4064 97.5813 25.0303 97.5813 24.7096C97.5813 24.3888 97.6467 24.1263 97.7266 24.1263C97.8121 24.1263 97.872 23.6206 97.872 22.8997C97.872 22.225 97.8066 21.6327 97.7266 21.5833C97.6467 21.5339 97.5813 21.2348 97.5813 20.9188C97.5813 20.6027 97.5198 20.2306 97.4447 20.0918C97.3694 19.953 97.197 19.5288 97.0615 19.1493C96.9259 18.7697 96.7584 18.459 96.6894 18.459C96.6204 18.459 96.5638 18.3617 96.5638 18.2427C96.5638 17.8625 94.8895 16.0766 94.3822 15.9156C94.2231 15.8652 94.0928 15.7751 94.0928 15.7154C94.0928 15.6558 93.8639 15.5171 93.5841 15.4074C93.3043 15.2977 93.0753 15.1547 93.0753 15.0896C93.0753 15.0247 92.9445 14.9715 92.7846 14.9715C92.6247 14.9715 92.4939 14.9135 92.4939 14.8426C92.4939 14.7718 92.3141 14.6798 92.0942 14.6381C91.8743 14.5966 91.0731 14.4266 90.3136 14.2603L88.9328 13.9581L81.0474 13.9562L73.162 13.9543V30.5928ZM34.2801 21.5107C34.3295 21.5906 34.5622 21.656 34.7974 21.656C35.0325 21.656 35.2248 21.7214 35.2248 21.8013C35.2248 21.8812 35.3536 21.9466 35.5109 21.9466C35.8522 21.9466 37.2598 23.2674 37.2598 23.5875C37.2598 23.7107 37.3383 23.8376 37.4342 23.8695C37.5524 23.9089 37.6086 24.3433 37.6086 25.2162C37.6086 26.0891 37.5524 26.5234 37.4342 26.5628C37.3383 26.5948 37.2598 26.7026 37.2598 26.8026C37.2598 27.0811 36.173 28.1951 35.9013 28.1951C35.769 28.1951 35.6609 28.2605 35.6609 28.3404C35.6609 28.4204 35.4702 28.4858 35.2369 28.4858C35.0038 28.4858 34.7904 28.5535 34.7628 28.6363C34.682 28.8787 28.3185 29.0159 28.0358 28.7813L27.8118 28.5955V25.2102C27.8118 23.3484 27.8515 21.7216 27.9001 21.5952L27.9883 21.3653H31.0893C32.9998 21.3653 34.2247 21.4211 34.2801 21.5107ZM88.1333 21.5107C88.1333 21.5906 88.2323 21.656 88.3534 21.656C88.7665 21.656 89.5869 22.2289 89.5869 22.5175C89.5869 22.6031 89.6523 22.6732 89.7322 22.6732C89.8122 22.6732 89.8776 22.8236 89.8776 23.0074C89.8776 23.1912 89.9516 23.4156 90.042 23.506C90.2205 23.6844 89.9199 24.9982 89.7005 24.9982C89.638 24.9982 89.586 25.08 89.5851 25.1799C89.5827 25.417 88.6547 26.0154 88.2893 26.0154C88.133 26.0154 87.9647 26.0808 87.9153 26.1607C87.8604 26.2495 86.732 26.306 85.0152 26.306H82.205L82.1167 26.0762C82.0682 25.9497 82.0285 24.9415 82.0285 23.8357C82.0285 22.7298 82.0682 21.7216 82.1167 21.5952L82.205 21.3653H85.1692C87.0484 21.3653 88.1333 21.4185 88.1333 21.5107ZM89.4973 33.8887C89.8264 33.9832 90.2692 34.1793 90.4814 34.3247C90.6936 34.4701 90.9225 34.5899 90.9901 34.5907C91.161 34.5933 91.7672 35.5539 91.7672 35.8221C91.7672 35.9432 91.8326 36.0421 91.9125 36.0421C91.9925 36.0421 92.0579 36.3652 92.0579 36.7601C92.0579 37.1551 91.9925 37.5185 91.9125 37.5679C91.8326 37.6173 91.7672 37.7526 91.7672 37.8685C91.7672 38.122 91.0044 38.9484 90.7703 38.9484C90.6791 38.9484 90.6043 39.0138 90.6043 39.0937C90.6043 39.1737 90.5062 39.2391 90.3863 39.2391C90.2664 39.2391 90.1683 39.3045 90.1683 39.3844C90.1683 39.4643 89.9721 39.5297 89.7322 39.5297C89.4924 39.5297 89.2962 39.5951 89.2962 39.675C89.2962 39.8981 82.4269 39.8699 82.2029 39.6459C82.0798 39.5229 82.0285 38.6771 82.0285 36.7687C82.0285 34.8603 82.0798 34.0146 82.2029 33.8915C82.4432 33.6513 88.6617 33.6489 89.4973 33.8887ZM62.8419 50.1377C62.8419 50.2176 62.708 50.283 62.5444 50.283C62.2054 50.283 61.13 51.3082 60.8055 51.9404C60.5222 52.4928 60.4935 55.5312 60.7706 55.6234C60.8706 55.6566 60.9523 55.783 60.9523 55.9041C60.9523 56.0252 61.1648 56.3143 61.4247 56.5463C62.3457 57.3693 62.7111 57.5487 63.4649 57.5487C63.8098 57.5487 64.1704 57.6272 64.2664 57.7231C64.402 57.8587 64.4408 57.8587 64.4408 57.7231C64.4408 57.618 64.6604 57.5487 64.9933 57.5487C65.5539 57.5487 66.3272 57.2754 66.3292 57.0765C66.3298 57.0164 66.4449 56.966 66.5848 56.9644C66.8672 56.9609 67.6386 55.9623 67.6386 55.6001C67.6386 55.4731 67.704 55.369 67.7839 55.369C67.872 55.369 67.9293 54.7394 67.9293 53.7705C67.9293 52.8017 67.872 52.1721 67.7839 52.1721C67.704 52.1721 67.6386 52.068 67.6386 51.941C67.6386 51.5788 66.8672 50.5802 66.5848 50.5767C66.4449 50.5751 66.3304 50.5242 66.3304 50.4636C66.3304 50.4032 66.0698 50.2724 65.7513 50.173C65.0552 49.9559 62.8419 49.929 62.8419 50.1377ZM82.6099 50.1377C82.49 50.2151 82.271 50.2795 82.1231 50.2808C81.8907 50.2827 81.5529 50.5832 80.8836 51.3835C80.7937 51.4907 80.7203 51.6468 80.7203 51.73C80.7203 51.8133 80.6549 51.8815 80.575 51.8815C80.495 51.8815 80.4296 52.0776 80.4296 52.3174C80.4296 52.5572 80.3642 52.7533 80.2843 52.7533C80.2013 52.7533 80.1389 53.1864 80.1389 53.762C80.1389 54.3168 80.2043 54.811 80.2843 54.8604C80.3642 54.9098 80.4296 55.1098 80.4296 55.3049C80.4296 55.5001 80.495 55.6596 80.575 55.6596C80.6549 55.6596 80.7203 55.7628 80.7203 55.8889C80.7203 56.178 81.7984 57.2581 82.0869 57.2581C82.2053 57.2581 82.3425 57.3235 82.3919 57.4034C82.4413 57.4833 82.7995 57.5487 83.1879 57.5487C83.6166 57.5487 83.9226 57.6201 83.9672 57.7304C84.0258 57.8757 84.0428 57.8757 84.052 57.7304C84.0595 57.6108 84.3119 57.5487 84.7902 57.5487C85.1899 57.5487 85.517 57.4833 85.517 57.4034C85.517 57.3235 85.6509 57.2581 85.8145 57.2581C86.2012 57.2581 87.2916 56.1668 87.5569 55.5143C87.8134 54.8832 87.8287 52.3906 87.5775 52.1395C87.4835 52.0455 87.4066 51.8815 87.4066 51.7749C87.4066 51.5475 86.4677 50.5736 86.2486 50.5736C86.166 50.5736 86.0984 50.5242 86.0984 50.4636C86.0984 50.0877 83.1182 49.8093 82.6099 50.1377ZM120.838 50.1797C120.277 50.4383 119.53 51.2365 119.53 51.5763C119.53 51.7441 119.464 51.8815 119.384 51.8815C119.304 51.8815 119.239 52.0122 119.239 52.1721C119.239 52.3319 119.304 52.4627 119.384 52.4627C119.464 52.4627 119.53 52.6589 119.53 52.8987C119.53 53.1384 119.595 53.3346 119.675 53.3346C119.755 53.3346 119.82 53.4327 119.82 53.5526C119.82 53.6736 119.95 53.7705 120.111 53.7705C120.271 53.7705 120.402 53.8261 120.402 53.8938C120.402 54.0462 121.766 54.4971 122.227 54.4971C122.413 54.4971 122.605 54.5625 122.655 54.6424C122.704 54.7224 122.843 54.7877 122.964 54.7877C123.3 54.7877 123.599 55.1602 123.599 55.5767C123.599 55.8533 123.524 55.9503 123.309 55.9503C123.149 55.9503 123.018 56.0157 123.018 56.0956C123.018 56.1755 122.822 56.2409 122.582 56.2409C122.342 56.2409 122.146 56.1755 122.146 56.0956C122.146 56.0157 122.031 55.9503 121.89 55.9503C121.75 55.9503 121.554 55.8209 121.455 55.6627L121.275 55.3753L120.257 55.394L119.239 55.4128V55.6816C119.239 55.8294 119.304 55.9503 119.384 55.9503C119.464 55.9503 119.53 56.0667 119.53 56.2088C119.53 56.351 119.668 56.5635 119.838 56.6811C120.008 56.7986 120.232 56.9766 120.336 57.0765C120.441 57.1764 120.591 57.2581 120.67 57.2581C120.749 57.2581 120.836 57.3255 120.863 57.4078C120.931 57.6098 124.03 57.6128 124.231 57.4111C124.315 57.327 124.474 57.2581 124.584 57.2581C125.864 57.2581 126.03 54.1433 124.781 53.5449C124.491 53.4057 124.14 53.2361 124.001 53.1679C123.862 53.0998 123.584 53.044 123.383 53.044C123.182 53.044 123.018 52.9786 123.018 52.8987C123.018 52.8187 122.789 52.7533 122.509 52.7533C122.23 52.7533 122.001 52.6879 122.001 52.608C122.001 52.5281 121.909 52.4627 121.798 52.4627C121.687 52.4627 121.556 52.3592 121.507 52.2328C121.181 51.3814 122.609 50.9875 123.309 51.7361L123.716 52.1721H124.603C125.558 52.1721 125.622 52.1042 125.345 51.3775C124.901 50.2077 122.284 49.5124 120.838 50.1797ZM42.9562 53.8069L43.0012 57.4761L44.1277 57.5185L45.2542 57.5609V56.1743V54.7877H46.5624H47.8706V54.0668V53.3459L46.5987 53.3039L45.3269 53.2619V52.5354V51.8088L46.8894 51.7675L48.452 51.7263V50.932V50.1377H45.6815H42.9111L42.9562 53.8069ZM100.343 53.8349V57.5724L102.124 57.4969C104.939 57.3774 106.125 57.0381 106.408 56.271C106.458 56.1345 106.537 55.9902 106.583 55.9503C106.909 55.6659 107.029 55.0788 107.029 53.7777V52.3277L106.642 51.6346C106.184 50.8146 105.964 50.5736 105.671 50.5736C105.552 50.5736 105.43 50.4989 105.399 50.4077C105.362 50.2958 104.53 50.2183 102.844 50.1696L100.343 50.0974V53.8349ZM65.4023 52.1278L65.8943 52.6648V53.7283C65.8943 55.3263 65.4394 55.9503 64.2744 55.9503C63.4614 55.9503 62.8419 55.5305 62.8419 54.9796C62.8419 54.7941 62.7765 54.6424 62.6966 54.6424C62.6166 54.6424 62.5512 54.2828 62.5512 53.8432C62.5512 53.4036 62.6166 53.044 62.6966 53.044C62.7765 53.044 62.8419 52.8782 62.8419 52.6754C62.8419 52.0441 63.3912 51.6099 64.2031 51.5997L64.9103 51.5908L65.4023 52.1278ZM85.1016 52.0255L85.517 52.4601V53.8221V55.184L85.1338 55.5672L84.7505 55.9503L84.0074 55.9456C83.2832 55.9411 82.7553 55.7117 82.7553 55.4014C82.7553 55.317 82.6784 55.2222 82.5845 55.191C82.3356 55.108 82.3499 52.9385 82.603 52.3774C82.8514 51.8265 83.2174 51.6319 84.0478 51.6087L84.686 51.5908L85.1016 52.0255ZM103.967 51.8815C104.132 51.8815 104.268 51.9468 104.268 52.0268C104.268 52.1067 104.349 52.1727 104.449 52.1732C104.549 52.1738 104.713 52.3504 104.813 52.5654C105.029 53.0322 105.059 54.9331 104.849 54.9331C104.769 54.9331 104.704 55.0031 104.704 55.0887C104.704 55.4821 104.221 55.706 103.346 55.7189L102.451 55.7323V53.7771V51.8219L102.814 51.7292C103.014 51.6782 103.288 51.6915 103.422 51.7589C103.557 51.8264 103.802 51.8815 103.967 51.8815Z" fill="#515151"/>
<path fill-rule="evenodd" clip-rule="evenodd" d="M130.374 13.9906C130.339 14.1704 130.23 14.9388 130.131 15.6981C130.032 16.4573 129.892 17.5036 129.82 18.0231C129.747 18.5426 129.654 19.4254 129.612 19.9848C129.57 20.5443 129.476 21.0642 129.402 21.1401C129.329 21.216 129.268 21.6208 129.268 22.0397C129.268 22.4587 129.203 22.8417 129.123 22.8911C129.043 22.9405 128.978 23.4348 128.978 23.9896C128.978 24.5652 128.915 24.9982 128.832 24.9982C128.751 24.9982 128.687 25.3885 128.687 25.8784C128.687 26.3626 128.622 27.0328 128.543 27.3679C128.464 27.703 128.328 28.6638 128.241 29.503C128.053 31.3223 127.88 32.6999 127.666 34.0804C127.579 34.6398 127.473 35.5391 127.431 36.0785C127.389 36.6179 127.295 37.0593 127.221 37.0593C127.148 37.0593 127.088 37.5498 127.088 38.1492C127.088 38.7486 127.031 39.2391 126.962 39.2391C126.893 39.2391 126.797 39.6805 126.749 40.2199C126.701 40.7593 126.558 41.9201 126.431 42.7993C126.304 43.6784 126.164 44.6971 126.119 45.0631C126.067 45.4949 125.942 45.7887 125.764 45.8999L125.489 46.0713L125.471 45.7431C125.46 45.5626 125.467 44.1561 125.486 42.6176L125.52 39.8203H117.718H109.916L109.708 39.6127C109.545 39.4499 109.5 38.8986 109.5 37.0593C109.5 35.2201 109.545 34.6688 109.708 34.506L109.916 34.2984H116.519H123.122L123.215 33.4051C123.334 32.2693 123.334 30.8833 123.214 28.6539L123.119 26.8873H116.539C112.921 26.8873 109.857 26.8476 109.73 26.7991L109.5 26.7109V24.0381V21.3653H117.059H124.617V17.6598V13.9543H112.625H100.634V30.5914V47.2283L113.752 47.2901C126.649 47.3508 129.059 47.4108 129.334 47.6782C129.41 47.7522 129.913 47.8126 130.452 47.8126C130.991 47.8126 131.472 47.878 131.521 47.958C131.571 48.0379 132.163 48.1033 132.838 48.1033C133.513 48.1033 134.065 48.1611 134.065 48.2317C134.065 48.3023 134.703 48.3981 135.482 48.4445C136.261 48.491 137.88 48.6335 139.08 48.7615C140.279 48.8896 141.816 49.0522 142.495 49.1231C143.175 49.194 144.221 49.323 144.821 49.4101C145.421 49.497 146.369 49.6265 146.929 49.6978C147.488 49.7692 148.159 49.872 148.419 49.9264L148.891 50.0253V49.2095C148.891 48.761 148.956 48.3939 149.036 48.3939C149.118 48.3939 149.182 47.9822 149.182 47.4493C149.182 46.9298 149.239 46.5048 149.308 46.5048C149.378 46.5048 149.476 45.9981 149.525 45.3786C149.575 44.7591 149.668 43.8843 149.732 43.4344L149.847 42.6163L148.897 42.4549C148.374 42.3661 147.684 42.262 147.365 42.2235C147.045 42.1852 146.358 42.0848 145.838 42.0002C145.319 41.9158 144.419 41.8087 143.84 41.7622C143.26 41.7157 142.786 41.6195 142.786 41.5483C142.786 41.4771 142.332 41.4188 141.777 41.4188C141.222 41.4188 140.728 41.3534 140.678 41.2735C140.629 41.1935 140.204 41.1282 139.734 41.1282C139.263 41.1282 138.844 41.0728 138.803 41.0049C138.761 40.9372 138.124 40.8391 137.389 40.7868C136.653 40.7346 136.02 40.661 135.982 40.6232C135.865 40.5058 135.96 38.4541 136.086 38.372C136.152 38.3294 136.244 37.8041 136.291 37.2047C136.366 36.2335 136.506 35.1063 136.984 31.61C137.061 31.0506 137.162 30.1351 137.208 29.5756C137.254 29.0162 137.351 28.4962 137.423 28.4204C137.495 28.3444 137.553 27.903 137.553 27.4395C137.553 26.9745 137.618 26.5967 137.699 26.5967C137.783 26.5967 137.844 26.1365 137.844 25.5068C137.844 24.8772 137.905 24.4169 137.989 24.4169C138.07 24.4169 138.135 24.0266 138.135 23.5368C138.135 23.0526 138.201 22.3824 138.281 22.0473C138.446 21.3575 138.701 19.3216 138.811 17.8051C138.851 17.2457 138.945 16.7257 139.018 16.6499C139.092 16.5739 139.152 16.1652 139.152 15.7417V14.9715H138.789C138.589 14.9715 138.425 14.9132 138.425 14.842C138.425 14.7708 137.951 14.6787 137.372 14.6373C136.792 14.5958 135.533 14.4549 134.574 14.324C133.614 14.193 132.419 14.0473 131.917 13.9999C131.415 13.9525 130.97 13.8575 130.927 13.7888C130.776 13.5444 130.436 13.6686 130.374 13.9906ZM18.9453 30.5928V47.2314H23.3422H27.7392L27.7466 42.033C27.7505 39.174 27.8034 36.7545 27.8642 36.6564C27.9405 36.5329 28.468 36.4781 29.579 36.4781H31.1837L31.6178 36.9427C31.8564 37.1981 32.2506 37.8029 32.4937 38.2868C32.7367 38.7706 32.9928 39.1882 33.0627 39.2148C33.1326 39.2415 33.1899 39.3559 33.1899 39.4691C33.1899 39.5824 33.2553 39.675 33.3353 39.675C33.4152 39.675 33.4806 39.8003 33.4806 39.9536C33.4806 40.1067 33.5396 40.2538 33.6119 40.2805C33.6841 40.3071 34.0521 40.9174 34.4298 41.6368C34.8074 42.3561 35.1571 42.9773 35.2071 43.0172C35.2571 43.0572 35.3959 43.2861 35.5156 43.5258C35.6352 43.7656 35.7722 43.9945 35.8199 44.0345C35.8677 44.0744 36.1577 44.5813 36.4643 45.1606C36.771 45.74 37.0753 46.2142 37.1407 46.2142C37.2063 46.2142 37.2598 46.345 37.2598 46.5048C37.2598 46.6646 37.3252 46.7954 37.4051 46.7954C37.4851 46.7954 37.5505 46.8935 37.5505 47.0134V47.2314H55.0655H72.5806V43.5258V39.8203H64.7606C58.8722 39.8203 56.8976 39.7773 56.7662 39.6459C56.6441 39.5239 56.5917 38.7226 56.5917 36.9732V34.4748L56.8217 34.3866C56.9481 34.338 60.0551 34.2984 63.726 34.2984H70.4003V31.1014C70.4003 29.067 70.3474 27.9045 70.2549 27.9045C70.175 27.9045 70.1096 27.6756 70.1096 27.3959V26.8873H63.5806C59.9897 26.8873 56.9481 26.8476 56.8217 26.7991L56.5917 26.7109V24.0381V21.3653H64.1501H71.7085V17.6598V13.9543H59.7168H47.7252V30.3749V46.7954H47.4969C47.1967 46.7954 46.9705 46.551 46.6619 45.8933C46.523 45.597 46.3457 45.3153 46.2678 45.2672C46.19 45.2192 46.1263 45.053 46.1263 44.8978C46.1263 44.7426 46.0609 44.6157 45.981 44.6157C45.901 44.6157 45.8356 44.5176 45.8356 44.3977C45.8356 44.2779 45.7702 44.1798 45.6903 44.1798C45.6103 44.1798 45.5449 44.049 45.5449 43.8891C45.5449 43.7293 45.4875 43.5985 45.4171 43.5985C45.3469 43.5985 45.2081 43.4023 45.1089 43.1626C45.0096 42.9228 44.8841 42.7266 44.8304 42.7266C44.7764 42.7266 44.611 42.4324 44.4626 42.0727C44.3144 41.713 44.1373 41.4188 44.0694 41.4188C44.0016 41.4188 43.946 41.288 43.946 41.1282C43.946 40.9683 43.8806 40.8375 43.8007 40.8375C43.7207 40.8375 43.6553 40.7394 43.6553 40.6196C43.6553 40.4997 43.5899 40.4016 43.51 40.4016C43.43 40.4016 43.3646 40.3381 43.3646 40.2605C43.3646 40.1829 43.0703 39.6215 42.7105 39.0132C42.3508 38.405 42.0564 37.8472 42.0564 37.7738C42.0564 37.7006 41.991 37.6406 41.9111 37.6406C41.8311 37.6406 41.7657 37.5098 41.7657 37.35C41.7657 37.1901 41.7003 37.0593 41.6204 37.0593C41.5404 37.0593 41.475 36.9613 41.475 36.8414C41.475 36.7215 41.4096 36.6234 41.3297 36.6234C41.2497 36.6234 41.1843 36.5609 41.1843 36.4845C41.1843 36.408 40.9858 36.009 40.7432 35.5976C40.2164 34.7044 40.2607 34.5056 41.1135 33.9351C41.4718 33.6953 41.7653 33.4502 41.7654 33.3901C41.7656 33.3301 41.8362 33.2812 41.9224 33.2812C42.0671 33.2812 42.5256 32.8315 43.5463 31.6891C43.7661 31.4431 43.946 31.1447 43.946 31.0263C43.946 30.9077 44.0016 30.8108 44.0694 30.8108C44.1373 30.8108 44.3144 30.5165 44.4626 30.1569C44.611 29.7972 44.7844 29.503 44.8479 29.503C44.9115 29.503 44.9635 29.3434 44.9635 29.1483C44.9635 28.9531 45.0289 28.7531 45.1089 28.7037C45.1888 28.6543 45.2542 28.4582 45.2542 28.2678C45.2542 28.0774 45.3196 27.8813 45.3996 27.8318C45.4872 27.7776 45.5449 26.7676 45.5449 25.2888C45.5449 23.8101 45.4872 22.8 45.3996 22.7458C45.3196 22.6964 45.2542 22.4311 45.2542 22.156C45.2542 21.8809 45.1888 21.656 45.1089 21.656C45.0289 21.656 44.9635 21.5327 44.9635 21.3822C44.9635 20.4923 42.1797 16.5699 41.5481 16.5699C41.4218 16.5699 40.2446 15.7821 40.1911 15.6617C40.1644 15.6017 40.0173 15.5527 39.8641 15.5527C39.7109 15.5527 39.5854 15.4874 39.5854 15.4074C39.5854 15.3275 39.4546 15.2621 39.2947 15.2621C39.1348 15.2621 39.004 15.1967 39.004 15.1168C39.004 15.0369 38.8405 14.9715 38.6406 14.9715C38.4408 14.9715 38.2773 14.9135 38.2773 14.8426C38.2773 14.7718 38.0973 14.6797 37.8775 14.6378C37.6578 14.596 36.8628 14.4251 36.1112 14.258L34.7446 13.9543H26.845H18.9453V30.5928ZM73.162 30.5928V47.2314L81.1927 47.2292L89.2235 47.2269L90.9677 46.93C91.9271 46.7667 92.9245 46.5969 93.1844 46.553C93.4443 46.509 93.6568 46.4147 93.6568 46.3436C93.6568 46.2724 93.8203 46.2142 94.0201 46.2142C94.22 46.2142 94.3835 46.1488 94.3835 46.0689C94.3835 45.9889 94.5143 45.9235 94.6742 45.9235C94.8341 45.9235 94.9649 45.8741 94.9649 45.8137C94.9649 45.7532 95.176 45.6104 95.434 45.4963C96.3688 45.0826 98.4534 43.2729 98.4534 42.8751C98.4534 42.7935 98.5136 42.7266 98.5873 42.7266C98.6608 42.7266 98.7639 42.5312 98.8164 42.2923C98.8688 42.0535 98.9722 41.8207 99.046 41.7751C99.1199 41.7296 99.1802 41.5654 99.1802 41.4102C99.1802 41.255 99.2456 41.1282 99.3255 41.1282C99.4055 41.1282 99.4709 40.9686 99.4709 40.7734C99.4709 40.5783 99.5293 40.3825 99.6008 40.3384C99.8998 40.1537 100.202 36.0421 99.9162 36.0421C99.8312 36.0421 99.7616 35.7845 99.7616 35.4695C99.7616 35.1544 99.6962 34.8564 99.6162 34.807C99.5363 34.7576 99.4709 34.5614 99.4709 34.371C99.4709 34.1807 99.4055 33.9845 99.3255 33.9351C99.2456 33.8857 99.1802 33.7184 99.1802 33.5632C99.1802 33.408 99.1219 33.2812 99.0505 33.2812C98.9793 33.2812 98.8799 33.1177 98.8297 32.9179C98.7796 32.7181 98.6743 32.5546 98.596 32.5546C98.5175 32.5546 98.4528 32.4401 98.4521 32.3003C98.4514 32.1605 98.2437 31.8825 97.9905 31.6827C97.7373 31.4829 97.4482 31.2377 97.348 31.1378C97.248 31.0379 97.1199 30.9561 97.0637 30.9561C97.0073 30.9561 96.8555 30.8367 96.7262 30.6908C96.597 30.5449 96.2786 30.3327 96.0187 30.2194C95.7589 30.106 95.5463 29.9639 95.5463 29.9035C95.5463 29.843 95.4155 29.7936 95.2556 29.7936C94.7622 29.7936 94.9181 29.2668 95.619 28.5661C95.9788 28.2065 96.2731 27.8595 96.2731 27.7951C96.2731 27.7307 96.4039 27.5838 96.5638 27.4686C96.7237 27.3533 96.8545 27.1689 96.8545 27.0588C96.8545 26.869 97.1582 26.0946 97.4481 25.5452C97.5214 25.4064 97.5813 25.0303 97.5813 24.7096C97.5813 24.3888 97.6467 24.1263 97.7266 24.1263C97.8121 24.1263 97.872 23.6206 97.872 22.8997C97.872 22.225 97.8066 21.6327 97.7266 21.5833C97.6467 21.5339 97.5813 21.2348 97.5813 20.9188C97.5813 20.6027 97.5198 20.2306 97.4447 20.0918C97.3694 19.953 97.197 19.5288 97.0615 19.1493C96.9259 18.7697 96.7584 18.459 96.6894 18.459C96.6204 18.459 96.5638 18.3617 96.5638 18.2427C96.5638 17.8625 94.8895 16.0766 94.3822 15.9156C94.2231 15.8652 94.0928 15.7751 94.0928 15.7154C94.0928 15.6558 93.8639 15.5171 93.5841 15.4074C93.3043 15.2977 93.0753 15.1547 93.0753 15.0896C93.0753 15.0247 92.9445 14.9715 92.7846 14.9715C92.6247 14.9715 92.4939 14.9135 92.4939 14.8426C92.4939 14.7718 92.3141 14.6798 92.0942 14.6381C91.8743 14.5966 91.0731 14.4266 90.3136 14.2603L88.9328 13.9581L81.0474 13.9562L73.162 13.9543V30.5928ZM34.2801 21.5107C34.3295 21.5906 34.5622 21.656 34.7974 21.656C35.0325 21.656 35.2248 21.7214 35.2248 21.8013C35.2248 21.8812 35.3536 21.9466 35.5109 21.9466C35.8522 21.9466 37.2598 23.2674 37.2598 23.5875C37.2598 23.7107 37.3383 23.8376 37.4342 23.8695C37.5524 23.9089 37.6086 24.3433 37.6086 25.2162C37.6086 26.0891 37.5524 26.5234 37.4342 26.5628C37.3383 26.5948 37.2598 26.7026 37.2598 26.8026C37.2598 27.0811 36.173 28.1951 35.9013 28.1951C35.769 28.1951 35.6609 28.2605 35.6609 28.3404C35.6609 28.4204 35.4702 28.4858 35.2369 28.4858C35.0038 28.4858 34.7904 28.5535 34.7628 28.6363C34.682 28.8787 28.3185 29.0159 28.0358 28.7813L27.8118 28.5955V25.2102C27.8118 23.3484 27.8515 21.7216 27.9001 21.5952L27.9883 21.3653H31.0893C32.9998 21.3653 34.2247 21.4211 34.2801 21.5107ZM88.1333 21.5107C88.1333 21.5906 88.2323 21.656 88.3534 21.656C88.7665 21.656 89.5869 22.2289 89.5869 22.5175C89.5869 22.6031 89.6523 22.6732 89.7322 22.6732C89.8122 22.6732 89.8776 22.8236 89.8776 23.0074C89.8776 23.1912 89.9516 23.4156 90.042 23.506C90.2205 23.6844 89.9199 24.9982 89.7005 24.9982C89.638 24.9982 89.586 25.08 89.5851 25.1799C89.5827 25.417 88.6547 26.0154 88.2893 26.0154C88.133 26.0154 87.9647 26.0808 87.9153 26.1607C87.8604 26.2495 86.732 26.306 85.0152 26.306H82.205L82.1167 26.0762C82.0682 25.9497 82.0285 24.9415 82.0285 23.8357C82.0285 22.7298 82.0682 21.7216 82.1167 21.5952L82.205 21.3653H85.1692C87.0484 21.3653 88.1333 21.4185 88.1333 21.5107ZM89.4973 33.8887C89.8264 33.9832 90.2692 34.1793 90.4814 34.3247C90.6936 34.4701 90.9225 34.5899 90.9901 34.5907C91.161 34.5933 91.7672 35.5539 91.7672 35.8221C91.7672 35.9432 91.8326 36.0421 91.9125 36.0421C91.9925 36.0421 92.0579 36.3652 92.0579 36.7601C92.0579 37.1551 91.9925 37.5185 91.9125 37.5679C91.8326 37.6173 91.7672 37.7526 91.7672 37.8685C91.7672 38.122 91.0044 38.9484 90.7703 38.9484C90.6791 38.9484 90.6043 39.0138 90.6043 39.0937C90.6043 39.1737 90.5062 39.2391 90.3863 39.2391C90.2664 39.2391 90.1683 39.3045 90.1683 39.3844C90.1683 39.4643 89.9721 39.5297 89.7322 39.5297C89.4924 39.5297 89.2962 39.5951 89.2962 39.675C89.2962 39.8981 82.4269 39.8699 82.2029 39.6459C82.0798 39.5229 82.0285 38.6771 82.0285 36.7687C82.0285 34.8603 82.0798 34.0146 82.2029 33.8915C82.4432 33.6513 88.6617 33.6489 89.4973 33.8887ZM62.8419 50.1377C62.8419 50.2176 62.708 50.283 62.5444 50.283C62.2054 50.283 61.13 51.3082 60.8055 51.9404C60.5222 52.4928 60.4935 55.5312 60.7706 55.6234C60.8706 55.6566 60.9523 55.783 60.9523 55.9041C60.9523 56.0252 61.1648 56.3143 61.4247 56.5463C62.3457 57.3693 62.7111 57.5487 63.4649 57.5487C63.8098 57.5487 64.1704 57.6272 64.2664 57.7231C64.402 57.8587 64.4408 57.8587 64.4408 57.7231C64.4408 57.618 64.6604 57.5487 64.9933 57.5487C65.5539 57.5487 66.3272 57.2754 66.3292 57.0765C66.3298 57.0164 66.4449 56.966 66.5848 56.9644C66.8672 56.9609 67.6386 55.9623 67.6386 55.6001C67.6386 55.4731 67.704 55.369 67.7839 55.369C67.872 55.369 67.9293 54.7394 67.9293 53.7705C67.9293 52.8017 67.872 52.1721 67.7839 52.1721C67.704 52.1721 67.6386 52.068 67.6386 51.941C67.6386 51.5788 66.8672 50.5802 66.5848 50.5767C66.4449 50.5751 66.3304 50.5242 66.3304 50.4636C66.3304 50.4032 66.0698 50.2724 65.7513 50.173C65.0552 49.9559 62.8419 49.929 62.8419 50.1377ZM82.6099 50.1377C82.49 50.2151 82.271 50.2795 82.1231 50.2808C81.8907 50.2827 81.5529 50.5832 80.8836 51.3835C80.7937 51.4907 80.7203 51.6468 80.7203 51.73C80.7203 51.8133 80.6549 51.8815 80.575 51.8815C80.495 51.8815 80.4296 52.0776 80.4296 52.3174C80.4296 52.5572 80.3642 52.7533 80.2843 52.7533C80.2013 52.7533 80.1389 53.1864 80.1389 53.762C80.1389 54.3168 80.2043 54.811 80.2843 54.8604C80.3642 54.9098 80.4296 55.1098 80.4296 55.3049C80.4296 55.5001 80.495 55.6596 80.575 55.6596C80.6549 55.6596 80.7203 55.7628 80.7203 55.8889C80.7203 56.178 81.7984 57.2581 82.0869 57.2581C82.2053 57.2581 82.3425 57.3235 82.3919 57.4034C82.4413 57.4833 82.7995 57.5487 83.1879 57.5487C83.6166 57.5487 83.9226 57.6201 83.9672 57.7304C84.0258 57.8757 84.0428 57.8757 84.052 57.7304C84.0595 57.6108 84.3119 57.5487 84.7902 57.5487C85.1899 57.5487 85.517 57.4833 85.517 57.4034C85.517 57.3235 85.6509 57.2581 85.8145 57.2581C86.2012 57.2581 87.2916 56.1668 87.5569 55.5143C87.8134 54.8832 87.8287 52.3906 87.5775 52.1395C87.4835 52.0455 87.4066 51.8815 87.4066 51.7749C87.4066 51.5475 86.4677 50.5736 86.2486 50.5736C86.166 50.5736 86.0984 50.5242 86.0984 50.4636C86.0984 50.0877 83.1182 49.8093 82.6099 50.1377ZM120.838 50.1797C120.277 50.4383 119.53 51.2365 119.53 51.5763C119.53 51.7441 119.464 51.8815 119.384 51.8815C119.304 51.8815 119.239 52.0122 119.239 52.1721C119.239 52.3319 119.304 52.4627 119.384 52.4627C119.464 52.4627 119.53 52.6589 119.53 52.8987C119.53 53.1384 119.595 53.3346 119.675 53.3346C119.755 53.3346 119.82 53.4327 119.82 53.5526C119.82 53.6736 119.95 53.7705 120.111 53.7705C120.271 53.7705 120.402 53.8261 120.402 53.8938C120.402 54.0462 121.766 54.4971 122.227 54.4971C122.413 54.4971 122.605 54.5625 122.655 54.6424C122.704 54.7224 122.843 54.7877 122.964 54.7877C123.3 54.7877 123.599 55.1602 123.599 55.5767C123.599 55.8533 123.524 55.9503 123.309 55.9503C123.149 55.9503 123.018 56.0157 123.018 56.0956C123.018 56.1755 122.822 56.2409 122.582 56.2409C122.342 56.2409 122.146 56.1755 122.146 56.0956C122.146 56.0157 122.031 55.9503 121.89 55.9503C121.75 55.9503 121.554 55.8209 121.455 55.6627L121.275 55.3753L120.257 55.394L119.239 55.4128V55.6816C119.239 55.8294 119.304 55.9503 119.384 55.9503C119.464 55.9503 119.53 56.0667 119.53 56.2088C119.53 56.351 119.668 56.5635 119.838 56.6811C120.008 56.7986 120.232 56.9766 120.336 57.0765C120.441 57.1764 120.591 57.2581 120.67 57.2581C120.749 57.2581 120.836 57.3255 120.863 57.4078C120.931 57.6098 124.03 57.6128 124.231 57.4111C124.315 57.327 124.474 57.2581 124.584 57.2581C125.864 57.2581 126.03 54.1433 124.781 53.5449C124.491 53.4057 124.14 53.2361 124.001 53.1679C123.862 53.0998 123.584 53.044 123.383 53.044C123.182 53.044 123.018 52.9786 123.018 52.8987C123.018 52.8187 122.789 52.7533 122.509 52.7533C122.23 52.7533 122.001 52.6879 122.001 52.608C122.001 52.5281 121.909 52.4627 121.798 52.4627C121.687 52.4627 121.556 52.3592 121.507 52.2328C121.181 51.3814 122.609 50.9875 123.309 51.7361L123.716 52.1721H124.603C125.558 52.1721 125.622 52.1042 125.345 51.3775C124.901 50.2077 122.284 49.5124 120.838 50.1797ZM42.9562 53.8069L43.0012 57.4761L44.1277 57.5185L45.2542 57.5609V56.1743V54.7877H46.5624H47.8706V54.0668V53.3459L46.5987 53.3039L45.3269 53.2619V52.5354V51.8088L46.8894 51.7675L48.452 51.7263V50.932V50.1377H45.6815H42.9111L42.9562 53.8069ZM100.343 53.8349V57.5724L102.124 57.4969C104.939 57.3774 106.125 57.0381 106.408 56.271C106.458 56.1345 106.537 55.9902 106.583 55.9503C106.909 55.6659 107.029 55.0788 107.029 53.7777V52.3277L106.642 51.6346C106.184 50.8146 105.964 50.5736 105.671 50.5736C105.552 50.5736 105.43 50.4989 105.399 50.4077C105.362 50.2958 104.53 50.2183 102.844 50.1696L100.343 50.0974V53.8349ZM65.4023 52.1278L65.8943 52.6648V53.7283C65.8943 55.3263 65.4394 55.9503 64.2744 55.9503C63.4614 55.9503 62.8419 55.5305 62.8419 54.9796C62.8419 54.7941 62.7765 54.6424 62.6966 54.6424C62.6166 54.6424 62.5512 54.2828 62.5512 53.8432C62.5512 53.4036 62.6166 53.044 62.6966 53.044C62.7765 53.044 62.8419 52.8782 62.8419 52.6754C62.8419 52.0441 63.3912 51.6099 64.2031 51.5997L64.9103 51.5908L65.4023 52.1278ZM85.1016 52.0255L85.517 52.4601V53.8221V55.184L85.1338 55.5672L84.7505 55.9503L84.0074 55.9456C83.2832 55.9411 82.7553 55.7117 82.7553 55.4014C82.7553 55.317 82.6784 55.2222 82.5845 55.191C82.3356 55.108 82.3499 52.9385 82.603 52.3774C82.8514 51.8265 83.2174 51.6319 84.0478 51.6087L84.686 51.5908L85.1016 52.0255ZM103.967 51.8815C104.132 51.8815 104.268 51.9468 104.268 52.0268C104.268 52.1067 104.349 52.1727 104.449 52.1732C104.549 52.1738 104.713 52.3504 104.813 52.5654C105.029 53.0322 105.059 54.9331 104.849 54.9331C104.769 54.9331 104.704 55.0031 104.704 55.0887C104.704 55.4821 104.221 55.706 103.346 55.7189L102.451 55.7323V53.7771V51.8219L102.814 51.7292C103.014 51.6782 103.288 51.6915 103.422 51.7589C103.557 51.8264 103.802 51.8815 103.967 51.8815Z" stroke="#CDCDCD" stroke-opacity="0.2" stroke-width="0.902981" mask="url(#path-1-inside-1_363_5351)"/>
</g>
<defs>
<filter id="filter0_d_363_5351" x="0.885694" y="0.115442" width="157.992" height="71.2691" filterUnits="userSpaceOnUse" color-interpolation-filters="sRGB">
<feFlood flood-opacity="0" result="BackgroundImageFix"/>
<feColorMatrix in="SourceAlpha" type="matrix" values="0 0 0 0 0 0 0 0 0 0 0 0 0 0 0 0 0 0 127 0" result="hardAlpha"/>
<feOffset dx="-4.5149"/>
<feGaussianBlur stdDeviation="6.77236"/>
<feComposite in2="hardAlpha" operator="out"/>
<feColorMatrix type="matrix" values="0 0 0 0 0 0 0 0 0 0 0 0 0 0 0 0 0 0 0.45 0"/>
<feBlend mode="normal" in2="BackgroundImageFix" result="effect1_dropShadow_363_5351"/>
<feBlend mode="normal" in="SourceGraphic" in2="effect1_dropShadow_363_5351" result="shape"/>
</filter>
</defs>
</svg>
