<svg width="170" height="60" viewBox="0 0 170 60" fill="none" xmlns="http://www.w3.org/2000/svg">
<path fill-rule="evenodd" clip-rule="evenodd" d="M6 23.078V60H153.255L170 42.0641V5H23.2704L23.3345 5.05981L6.27406 23.3339L6 23.078Z" fill="#231F20"/>
<mask id="path-2-inside-1_17_359" fill="white">
<path fill-rule="evenodd" clip-rule="evenodd" d="M0 18.078V55H152.643L170 37.0641V0H17.9023L17.9687 0.0598106L0.284091 18.3339L0 18.078Z"/>
</mask>
<path fill-rule="evenodd" clip-rule="evenodd" d="M0 18.078V55H152.643L170 37.0641V0H17.9023L17.9687 0.0598106L0.284091 18.3339L0 18.078Z" fill="#FBE59A"/>
<path d="M0 18.078L0.669227 17.335L-1 15.8316V18.078H0ZM0 55H-1V56H0V55ZM152.643 55V56H153.067L153.361 55.6954L152.643 55ZM170 37.0641L170.719 37.7595L171 37.4688V37.0641H170ZM170 0H171V-1H170V0ZM17.9023 0V-1H15.2977L17.2331 0.743063L17.9023 0ZM17.9687 0.0598106L18.6873 0.755233L19.4081 0.0103989L18.6379 -0.683252L17.9687 0.0598106ZM0.284091 18.3339L-0.385136 19.0769L0.331757 19.7226L1.00269 19.0293L0.284091 18.3339ZM-1 18.078V55H1V18.078H-1ZM0 56H152.643V54H0V56ZM153.361 55.6954L170.719 37.7595L169.281 36.3687L151.924 54.3046L153.361 55.6954ZM171 37.0641V0H169V37.0641H171ZM170 -1H17.9023V1H170V-1ZM17.2331 0.743063L17.2995 0.802873L18.6379 -0.683252L18.5715 -0.743063L17.2331 0.743063ZM17.2501 -0.635611L-0.434511 17.6385L1.00269 19.0293L18.6873 0.755233L17.2501 -0.635611ZM0.953318 17.5908L0.669227 17.335L-0.669227 18.8211L-0.385136 19.0769L0.953318 17.5908Z" fill="#231F20" mask="url(#path-2-inside-1_17_359)"/>
<path d="M20.0859 21.625H24.2188C25.0833 21.625 25.8255 21.7552 26.4453 22.0156C27.0651 22.276 27.5417 22.6615 27.875 23.1719C28.2083 23.6823 28.375 24.3099 28.375 25.0547C28.375 25.6432 28.2708 26.1536 28.0625 26.5859C27.8542 27.0182 27.5599 27.3802 27.1797 27.6719C26.8047 27.9635 26.362 28.1927 25.8516 28.3594L25.1797 28.7031H21.5312L21.5156 27.0078H24.2422C24.6849 27.0078 25.0521 26.9297 25.3438 26.7734C25.6354 26.6172 25.8542 26.401 26 26.125C26.151 25.849 26.2266 25.5339 26.2266 25.1797C26.2266 24.7995 26.1536 24.4714 26.0078 24.1953C25.862 23.9141 25.6406 23.6979 25.3438 23.5469C25.0469 23.3958 24.6719 23.3203 24.2188 23.3203H22.2344V33H20.0859V21.625ZM26.5078 33L23.875 27.9062L26.1484 27.8984L28.8125 32.8906V33H26.5078ZM37.7969 31.3125V33H31.75V31.3125H37.7969ZM32.4062 21.625V33H30.2578V21.625H32.4062ZM37.0078 26.3203V27.9688H31.75V26.3203H37.0078ZM37.7734 21.625V23.3203H31.75V21.625H37.7734ZM45.3906 31.3984L48.4219 33.8047L47.0469 35L44.0625 32.6094L45.3906 31.3984ZM48.4766 27.0234V27.6094C48.4766 28.4688 48.362 29.2422 48.1328 29.9297C47.9036 30.612 47.5755 31.1927 47.1484 31.6719C46.7266 32.151 46.224 32.5182 45.6406 32.7734C45.0573 33.0286 44.4115 33.1562 43.7031 33.1562C43 33.1562 42.3542 33.0286 41.7656 32.7734C41.1823 32.5182 40.6771 32.151 40.25 31.6719C39.8229 31.1927 39.4922 30.612 39.2578 29.9297C39.0234 29.2422 38.9062 28.4688 38.9062 27.6094V27.0234C38.9062 26.1589 39.0208 25.3854 39.25 24.7031C39.4844 24.0208 39.8125 23.4401 40.2344 22.9609C40.6615 22.4766 41.1667 22.1068 41.75 21.8516C42.3385 21.5964 42.9844 21.4688 43.6875 21.4688C44.3958 21.4688 45.0417 21.5964 45.625 21.8516C46.2135 22.1068 46.7188 22.4766 47.1406 22.9609C47.5677 23.4401 47.8958 24.0208 48.125 24.7031C48.3594 25.3854 48.4766 26.1589 48.4766 27.0234ZM46.3047 27.6094V27.0078C46.3047 26.388 46.2474 25.8438 46.1328 25.375C46.0182 24.901 45.8464 24.5026 45.6172 24.1797C45.3932 23.8568 45.1198 23.6146 44.7969 23.4531C44.474 23.2865 44.1042 23.2031 43.6875 23.2031C43.276 23.2031 42.9089 23.2865 42.5859 23.4531C42.263 23.6146 41.9896 23.8568 41.7656 24.1797C41.5417 24.5026 41.3698 24.901 41.25 25.375C41.1354 25.8438 41.0781 26.388 41.0781 27.0078V27.6094C41.0781 28.224 41.1354 28.7682 41.25 29.2422C41.3698 29.7161 41.5417 30.1172 41.7656 30.4453C41.9948 30.7682 42.2708 31.013 42.5938 31.1797C42.9219 31.3464 43.2917 31.4297 43.7031 31.4297C44.1198 31.4297 44.4896 31.3464 44.8125 31.1797C45.1354 31.013 45.4062 30.7682 45.625 30.4453C45.849 30.1172 46.0182 29.7161 46.1328 29.2422C46.2474 28.7682 46.3047 28.224 46.3047 27.6094ZM56.6484 21.625H58.7969V29.1797C58.7969 30.0495 58.6094 30.7812 58.2344 31.375C57.8594 31.9635 57.349 32.4089 56.7031 32.7109C56.0573 33.0078 55.3229 33.1562 54.5 33.1562C53.6667 33.1562 52.9245 33.0078 52.2734 32.7109C51.6224 32.4089 51.112 31.9635 50.7422 31.375C50.3724 30.7812 50.1875 30.0495 50.1875 29.1797V21.625H52.3359V29.1797C52.3359 29.7109 52.4245 30.1458 52.6016 30.4844C52.7786 30.8177 53.0286 31.0651 53.3516 31.2266C53.6745 31.388 54.0573 31.4688 54.5 31.4688C54.9479 31.4688 55.3307 31.388 55.6484 31.2266C55.9714 31.0651 56.2188 30.8177 56.3906 30.4844C56.5625 30.1458 56.6484 29.7109 56.6484 29.1797V21.625ZM68.375 31.3125V33H62.3281V31.3125H68.375ZM62.9844 21.625V33H60.8359V21.625H62.9844ZM67.5859 26.3203V27.9688H62.3281V26.3203H67.5859ZM68.3516 21.625V23.3203H62.3281V21.625H68.3516ZM75.8203 30.0469C75.8203 29.8281 75.7865 29.6328 75.7188 29.4609C75.6562 29.2839 75.5391 29.125 75.3672 28.9844C75.2005 28.8385 74.9635 28.6979 74.6562 28.5625C74.3542 28.4219 73.9635 28.276 73.4844 28.125C72.9531 27.9583 72.4583 27.7708 72 27.5625C71.5417 27.3542 71.138 27.112 70.7891 26.8359C70.4453 26.5599 70.1771 26.2422 69.9844 25.8828C69.7917 25.5182 69.6953 25.0964 69.6953 24.6172C69.6953 24.1484 69.7943 23.7214 69.9922 23.3359C70.1953 22.9505 70.4818 22.6198 70.8516 22.3438C71.2214 22.0625 71.6562 21.8464 72.1562 21.6953C72.6615 21.5443 73.2188 21.4688 73.8281 21.4688C74.6719 21.4688 75.401 21.6224 76.0156 21.9297C76.6354 22.237 77.1146 22.6536 77.4531 23.1797C77.7917 23.7057 77.9609 24.2969 77.9609 24.9531H75.8203C75.8203 24.599 75.7448 24.2865 75.5938 24.0156C75.4479 23.7448 75.224 23.5312 74.9219 23.375C74.625 23.2188 74.25 23.1406 73.7969 23.1406C73.3594 23.1406 72.9948 23.2057 72.7031 23.3359C72.4167 23.4661 72.2005 23.6432 72.0547 23.8672C71.9141 24.0911 71.8438 24.3411 71.8438 24.6172C71.8438 24.8255 71.8932 25.013 71.9922 25.1797C72.0911 25.3411 72.2396 25.4948 72.4375 25.6406C72.6354 25.7812 72.8802 25.9141 73.1719 26.0391C73.4688 26.1589 73.8125 26.2786 74.2031 26.3984C74.8281 26.5859 75.375 26.7943 75.8438 27.0234C76.3177 27.2526 76.7109 27.513 77.0234 27.8047C77.3411 28.0964 77.5781 28.4245 77.7344 28.7891C77.8958 29.1536 77.9766 29.5677 77.9766 30.0312C77.9766 30.5208 77.8802 30.9583 77.6875 31.3438C77.4948 31.7292 77.2188 32.0573 76.8594 32.3281C76.5 32.599 76.0677 32.8047 75.5625 32.9453C75.0625 33.0859 74.5026 33.1562 73.8828 33.1562C73.3307 33.1562 72.7839 33.0833 72.2422 32.9375C71.7057 32.7865 71.2188 32.5625 70.7812 32.2656C70.3438 31.9635 69.9948 31.5833 69.7344 31.125C69.474 30.6615 69.3438 30.1198 69.3438 29.5H71.5C71.5 29.8594 71.5573 30.1667 71.6719 30.4219C71.7917 30.6719 71.9583 30.8776 72.1719 31.0391C72.3906 31.1953 72.6458 31.3099 72.9375 31.3828C73.2292 31.4557 73.5443 31.4922 73.8828 31.4922C74.3203 31.4922 74.6797 31.4323 74.9609 31.3125C75.2474 31.1875 75.4609 31.0156 75.6016 30.7969C75.7474 30.5781 75.8203 30.3281 75.8203 30.0469ZM84.5156 21.625V33H82.375V21.625H84.5156ZM88.0469 21.625V23.3203H78.8828V21.625H88.0469ZM97.5938 23.3516L94.3516 33H92.0781L96.3281 21.625H97.7812L97.5938 23.3516ZM100.305 33L97.0469 23.3516L96.8516 21.625H98.3125L102.586 33H100.305ZM100.156 28.7734V30.4688H94.0547V28.7734H100.156ZM111.141 33H108.688L108.703 31.3125H111.141C111.802 31.3125 112.357 31.1667 112.805 30.875C113.253 30.5781 113.591 30.1536 113.82 29.6016C114.049 29.0443 114.164 28.3776 114.164 27.6016V27.0156C114.164 26.4167 114.099 25.888 113.969 25.4297C113.839 24.9714 113.646 24.5859 113.391 24.2734C113.141 23.9609 112.831 23.724 112.461 23.5625C112.091 23.401 111.667 23.3203 111.188 23.3203H108.641V21.625H111.188C111.948 21.625 112.641 21.7526 113.266 22.0078C113.896 22.263 114.44 22.6302 114.898 23.1094C115.362 23.5833 115.716 24.151 115.961 24.8125C116.211 25.474 116.336 26.2135 116.336 27.0312V27.6016C116.336 28.4141 116.211 29.1536 115.961 29.8203C115.716 30.4818 115.362 31.0495 114.898 31.5234C114.44 31.9974 113.893 32.362 113.258 32.6172C112.622 32.8724 111.917 33 111.141 33ZM109.891 21.625V33H107.742V21.625H109.891ZM125.703 31.3125V33H119.656V31.3125H125.703ZM120.312 21.625V33H118.164V21.625H120.312ZM124.914 26.3203V27.9688H119.656V26.3203H124.914ZM125.68 21.625V23.3203H119.656V21.625H125.68ZM128.133 21.625H129.992L133.102 30.1875L136.203 21.625H138.07L133.844 33H132.352L128.133 21.625ZM127.195 21.625H129.016L129.344 29.4922V33H127.195V21.625ZM137.18 21.625H139.008V33H136.859V29.4922L137.18 21.625ZM150.406 27.0234V27.6094C150.406 28.4688 150.292 29.2422 150.062 29.9297C149.833 30.612 149.508 31.1927 149.086 31.6719C148.664 32.151 148.161 32.5182 147.578 32.7734C146.995 33.0286 146.346 33.1562 145.633 33.1562C144.93 33.1562 144.284 33.0286 143.695 32.7734C143.112 32.5182 142.607 32.151 142.18 31.6719C141.753 31.1927 141.422 30.612 141.188 29.9297C140.953 29.2422 140.836 28.4688 140.836 27.6094V27.0234C140.836 26.1589 140.953 25.3854 141.188 24.7031C141.422 24.0208 141.75 23.4401 142.172 22.9609C142.594 22.4766 143.096 22.1068 143.68 21.8516C144.268 21.5964 144.914 21.4688 145.617 21.4688C146.331 21.4688 146.979 21.5964 147.562 21.8516C148.146 22.1068 148.648 22.4766 149.07 22.9609C149.497 23.4401 149.826 24.0208 150.055 24.7031C150.289 25.3854 150.406 26.1589 150.406 27.0234ZM148.234 27.6094V27.0078C148.234 26.388 148.177 25.8438 148.062 25.375C147.948 24.901 147.779 24.5026 147.555 24.1797C147.331 23.8568 147.055 23.6146 146.727 23.4531C146.398 23.2865 146.029 23.2031 145.617 23.2031C145.201 23.2031 144.831 23.2865 144.508 23.4531C144.19 23.6146 143.919 23.8568 143.695 24.1797C143.471 24.5026 143.299 24.901 143.18 25.375C143.065 25.8438 143.008 26.388 143.008 27.0078V27.6094C143.008 28.224 143.065 28.7682 143.18 29.2422C143.299 29.7161 143.471 30.1172 143.695 30.4453C143.924 30.7682 144.201 31.013 144.523 31.1797C144.846 31.3464 145.216 31.4297 145.633 31.4297C146.049 31.4297 146.419 31.3464 146.742 31.1797C147.065 31.013 147.336 30.7682 147.555 30.4453C147.779 30.1172 147.948 29.7161 148.062 29.2422C148.177 28.7682 148.234 28.224 148.234 27.6094Z" fill="black"/>
</svg>
