<svg width="140" height="50" viewBox="0 0 140 50" fill="none" xmlns="http://www.w3.org/2000/svg">
<path fill-rule="evenodd" clip-rule="evenodd" d="M4.94043 18.5042V48.9196H126.205L139.999 34.1429V3.62189H19.1702L19.2161 3.66479L5.16637 18.7152L4.94043 18.5042Z" fill="#231F20"/>
<mask id="path-2-inside-1_140_1053" fill="white">
<path fill-rule="evenodd" clip-rule="evenodd" d="M0 14.8885V45.2977H125.701L140 30.5206V0H14.7435L14.7975 0.0486406L0.233741 15.099L0 14.8885Z"/>
</mask>
<path fill-rule="evenodd" clip-rule="evenodd" d="M0 14.8885V45.2977H125.701L140 30.5206V0H14.7435L14.7975 0.0486406L0.233741 15.099L0 14.8885Z" fill="#FBE59A"/>
<path d="M0 14.8885L0.551173 14.2766L-0.823562 13.0384V14.8885H0ZM0 45.2977H-0.823562V46.1212H0V45.2977ZM125.701 45.2977V46.1212H126.05L126.293 45.8704L125.701 45.2977ZM140 30.5206L140.592 31.0933L140.824 30.8539V30.5206H140ZM140 0H140.824V-0.823562H140V0ZM14.7435 0V-0.823562H12.5986L14.1924 0.611934L14.7435 0ZM14.7975 0.0486406L15.3894 0.62134L15.9829 0.00795145L15.3487 -0.563293L14.7975 0.0486406ZM0.233741 15.099L-0.317432 15.711L0.273 16.2428L0.825576 15.6717L0.233741 15.099ZM-0.823562 14.8885V45.2977H0.823562V14.8885H-0.823562ZM0 46.1212H125.701V44.4741H0V46.1212ZM126.293 45.8704L140.592 31.0933L139.408 29.9479L125.109 44.725L126.293 45.8704ZM140.824 30.5206V0H139.176V30.5206H140.824ZM140 -0.823562H14.7435V0.823562H140V-0.823562ZM14.1924 0.611934L14.2464 0.660574L15.3487 -0.563293L15.2947 -0.611934L14.1924 0.611934ZM14.2057 -0.524059L-0.358094 14.5263L0.825576 15.6717L15.3894 0.62134L14.2057 -0.524059ZM0.784914 14.4871L0.551173 14.2766L-0.551173 15.5005L-0.317432 15.711L0.784914 14.4871Z" fill="#231F20" mask="url(#path-2-inside-1_140_1053)"/>
<path d="M12.9502 17.0482H16.5664C17.3229 17.0482 17.9723 17.1621 18.5146 17.39C19.057 17.6178 19.474 17.9551 19.7656 18.4017C20.0573 18.8483 20.2031 19.3975 20.2031 20.0491C20.2031 20.5641 20.112 21.0107 19.9297 21.389C19.7474 21.7672 19.4899 22.084 19.1572 22.3392C18.8291 22.5944 18.4417 22.7949 17.9951 22.9408L17.4072 23.2415H14.2148L14.2012 21.7581H16.5869C16.9743 21.7581 17.2956 21.6898 17.5508 21.5531C17.806 21.4163 17.9974 21.2272 18.125 20.9857C18.2572 20.7441 18.3232 20.4684 18.3232 20.1585C18.3232 19.8258 18.2594 19.5387 18.1318 19.2972C18.0042 19.0511 17.8105 18.862 17.5508 18.7298C17.291 18.5977 16.9629 18.5316 16.5664 18.5316H14.8301V27.0013H12.9502V17.0482ZM18.5693 27.0013L16.2656 22.5443L18.2549 22.5374L20.5859 26.9056V27.0013H18.5693ZM28.4473 25.5247V27.0013H23.1562V25.5247H28.4473ZM23.7305 17.0482V27.0013H21.8506V17.0482H23.7305ZM27.7568 21.1566V22.599H23.1562V21.1566H27.7568ZM28.4268 17.0482V18.5316H23.1562V17.0482H28.4268ZM35.0918 25.5999L37.7441 27.7054L36.541 28.7513L33.9297 26.6595L35.0918 25.5999ZM37.792 21.7718V22.2845C37.792 23.0365 37.6917 23.7132 37.4912 24.3148C37.2907 24.9118 37.0036 25.4199 36.6299 25.8392C36.2607 26.2585 35.821 26.5797 35.3105 26.8031C34.8001 27.0264 34.235 27.138 33.6152 27.138C33 27.138 32.4349 27.0264 31.9199 26.8031C31.4095 26.5797 30.9674 26.2585 30.5938 25.8392C30.2201 25.4199 29.9307 24.9118 29.7256 24.3148C29.5205 23.7132 29.418 23.0365 29.418 22.2845V21.7718C29.418 21.0153 29.5182 20.3385 29.7188 19.7415C29.9238 19.1445 30.2109 18.6364 30.5801 18.2171C30.9538 17.7933 31.3958 17.4697 31.9062 17.2464C32.4212 17.0231 32.9863 16.9115 33.6016 16.9115C34.2214 16.9115 34.7865 17.0231 35.2969 17.2464C35.8118 17.4697 36.2539 17.7933 36.623 18.2171C36.9967 18.6364 37.2839 19.1445 37.4844 19.7415C37.6895 20.3385 37.792 21.0153 37.792 21.7718ZM35.8916 22.2845V21.7581C35.8916 21.2158 35.8415 20.7396 35.7412 20.3294C35.641 19.9147 35.4906 19.5661 35.29 19.2835C35.0941 19.001 34.8548 18.7891 34.5723 18.6478C34.2897 18.5019 33.9661 18.429 33.6016 18.429C33.2415 18.429 32.9202 18.5019 32.6377 18.6478C32.3551 18.7891 32.1159 19.001 31.9199 19.2835C31.724 19.5661 31.5736 19.9147 31.4688 20.3294C31.3685 20.7396 31.3184 21.2158 31.3184 21.7581V22.2845C31.3184 22.8223 31.3685 23.2985 31.4688 23.7132C31.5736 24.1279 31.724 24.4788 31.9199 24.7659C32.1204 25.0485 32.362 25.2627 32.6445 25.4085C32.9316 25.5544 33.2552 25.6273 33.6152 25.6273C33.9798 25.6273 34.3034 25.5544 34.5859 25.4085C34.8685 25.2627 35.1055 25.0485 35.2969 24.7659C35.4928 24.4788 35.641 24.1279 35.7412 23.7132C35.8415 23.2985 35.8916 22.8223 35.8916 22.2845ZM44.9424 17.0482H46.8223V23.6585C46.8223 24.4196 46.6582 25.0599 46.3301 25.5794C46.002 26.0944 45.5553 26.484 44.9902 26.7484C44.4251 27.0081 43.7826 27.138 43.0625 27.138C42.3333 27.138 41.6839 27.0081 41.1143 26.7484C40.5446 26.484 40.098 26.0944 39.7744 25.5794C39.4508 25.0599 39.2891 24.4196 39.2891 23.6585V17.0482H41.1689V23.6585C41.1689 24.1234 41.2464 24.5039 41.4014 24.8001C41.5563 25.0918 41.7751 25.3083 42.0576 25.4495C42.3402 25.5908 42.6751 25.6615 43.0625 25.6615C43.4544 25.6615 43.7894 25.5908 44.0674 25.4495C44.3499 25.3083 44.5664 25.0918 44.7168 24.8001C44.8672 24.5039 44.9424 24.1234 44.9424 23.6585V17.0482ZM55.2031 25.5247V27.0013H49.9121V25.5247H55.2031ZM50.4863 17.0482V27.0013H48.6064V17.0482H50.4863ZM54.5127 21.1566V22.599H49.9121V21.1566H54.5127ZM55.1826 17.0482V18.5316H49.9121V17.0482H55.1826ZM61.7178 24.4173C61.7178 24.2259 61.6882 24.055 61.6289 23.9046C61.5742 23.7497 61.4717 23.6107 61.3213 23.4876C61.1755 23.36 60.9681 23.237 60.6992 23.1185C60.4349 22.9954 60.0931 22.8678 59.6738 22.7357C59.209 22.5898 58.776 22.4258 58.375 22.2435C57.974 22.0612 57.6208 21.8493 57.3154 21.6077C57.0146 21.3662 56.7799 21.0882 56.6113 20.7738C56.4427 20.4547 56.3584 20.0856 56.3584 19.6663C56.3584 19.2562 56.445 18.8825 56.6182 18.5452C56.7959 18.208 57.0465 17.9186 57.3701 17.6771C57.6937 17.431 58.0742 17.2419 58.5117 17.1097C58.9538 16.9775 59.4414 16.9115 59.9746 16.9115C60.7129 16.9115 61.3509 17.0459 61.8887 17.3148C62.431 17.5837 62.8503 17.9482 63.1465 18.4085C63.4427 18.8688 63.5908 19.3861 63.5908 19.9603H61.7178C61.7178 19.6504 61.6517 19.3769 61.5195 19.14C61.3919 18.903 61.196 18.7161 60.9316 18.5794C60.6719 18.4427 60.3438 18.3743 59.9473 18.3743C59.5645 18.3743 59.2454 18.4313 58.9902 18.5452C58.7396 18.6592 58.5505 18.8141 58.4229 19.0101C58.2998 19.206 58.2383 19.4248 58.2383 19.6663C58.2383 19.8486 58.2816 20.0127 58.3682 20.1585C58.4548 20.2998 58.5846 20.4342 58.7578 20.5618C58.931 20.6849 59.1452 20.8011 59.4004 20.9105C59.6602 21.0153 59.9609 21.1201 60.3027 21.2249C60.8496 21.389 61.3281 21.5713 61.7383 21.7718C62.153 21.9723 62.4971 22.2002 62.7705 22.4554C63.0485 22.7106 63.2559 22.9977 63.3926 23.3167C63.5339 23.6357 63.6045 23.998 63.6045 24.4036C63.6045 24.832 63.5202 25.2148 63.3516 25.5521C63.1829 25.8893 62.9414 26.1764 62.627 26.4134C62.3125 26.6504 61.9342 26.8304 61.4922 26.9534C61.0547 27.0765 60.5648 27.138 60.0225 27.138C59.5394 27.138 59.0609 27.0742 58.5869 26.9466C58.1175 26.8144 57.6914 26.6185 57.3086 26.3587C56.9258 26.0944 56.6204 25.7617 56.3926 25.3607C56.1647 24.9551 56.0508 24.4811 56.0508 23.9388H57.9375C57.9375 24.2533 57.9876 24.5221 58.0879 24.7454C58.1927 24.9642 58.3385 25.1442 58.5254 25.2855C58.7168 25.4222 58.9401 25.5225 59.1953 25.5863C59.4505 25.6501 59.7262 25.682 60.0225 25.682C60.4053 25.682 60.7197 25.6296 60.9658 25.5247C61.2165 25.4154 61.4033 25.265 61.5264 25.0736C61.654 24.8822 61.7178 24.6634 61.7178 24.4173ZM69.3262 17.0482V27.0013H67.4531V17.0482H69.3262ZM72.416 17.0482V18.5316H64.3975V17.0482H72.416ZM80.7695 18.5589L77.9326 27.0013H75.9434L79.6621 17.0482H80.9336L80.7695 18.5589ZM83.1416 27.0013L80.291 18.5589L80.1201 17.0482H81.3984L85.1377 27.0013H83.1416ZM83.0117 23.3031V24.7865H77.6729V23.3031H83.0117ZM92.623 27.0013H90.4766L90.4902 25.5247H92.623C93.2018 25.5247 93.6872 25.3971 94.0791 25.1419C94.471 24.8822 94.7673 24.5107 94.9678 24.0277C95.1683 23.54 95.2686 22.9567 95.2686 22.2777V21.765C95.2686 21.2409 95.2116 20.7783 95.0977 20.3773C94.9837 19.9762 94.8151 19.639 94.5918 19.3656C94.373 19.0921 94.1019 18.8848 93.7783 18.7435C93.4548 18.6022 93.0833 18.5316 92.6641 18.5316H90.4355V17.0482H92.6641C93.3294 17.0482 93.9355 17.1598 94.4824 17.3831C95.0339 17.6064 95.5101 17.9277 95.9111 18.347C96.3167 18.7617 96.6266 19.2585 96.8408 19.8372C97.0596 20.416 97.1689 21.0631 97.1689 21.7786V22.2777C97.1689 22.9886 97.0596 23.6357 96.8408 24.2191C96.6266 24.7978 96.3167 25.2946 95.9111 25.7093C95.5101 26.124 95.0316 26.443 94.4756 26.6663C93.9196 26.8896 93.3021 27.0013 92.623 27.0013ZM91.5293 17.0482V27.0013H89.6494V17.0482H91.5293ZM105.365 25.5247V27.0013H100.074V25.5247H105.365ZM100.648 17.0482V27.0013H98.7686V17.0482H100.648ZM104.675 21.1566V22.599H100.074V21.1566H104.675ZM105.345 17.0482V18.5316H100.074V17.0482H105.345ZM107.491 17.0482H109.118L111.839 24.5404L114.553 17.0482H116.187L112.488 27.0013H111.183L107.491 17.0482ZM106.671 17.0482H108.264L108.551 23.932V27.0013H106.671V17.0482ZM115.407 17.0482H117.007V27.0013H115.127V23.932L115.407 17.0482ZM126.98 21.7718V22.2845C126.98 23.0365 126.88 23.7132 126.68 24.3148C126.479 24.9118 126.194 25.4199 125.825 25.8392C125.456 26.2585 125.016 26.5797 124.506 26.8031C123.995 27.0264 123.428 27.138 122.804 27.138C122.188 27.138 121.623 27.0264 121.108 26.8031C120.598 26.5797 120.156 26.2585 119.782 25.8392C119.409 25.4199 119.119 24.9118 118.914 24.3148C118.709 23.7132 118.606 23.0365 118.606 22.2845V21.7718C118.606 21.0153 118.709 20.3385 118.914 19.7415C119.119 19.1445 119.406 18.6364 119.775 18.2171C120.145 17.7933 120.584 17.4697 121.095 17.2464C121.61 17.0231 122.175 16.9115 122.79 16.9115C123.414 16.9115 123.982 17.0231 124.492 17.2464C125.003 17.4697 125.442 17.7933 125.812 18.2171C126.185 18.6364 126.472 19.1445 126.673 19.7415C126.878 20.3385 126.98 21.0153 126.98 21.7718ZM125.08 22.2845V21.7581C125.08 21.2158 125.03 20.7396 124.93 20.3294C124.829 19.9147 124.681 19.5661 124.485 19.2835C124.289 19.001 124.048 18.7891 123.761 18.6478C123.474 18.5019 123.15 18.429 122.79 18.429C122.425 18.429 122.102 18.5019 121.819 18.6478C121.541 18.7891 121.304 19.001 121.108 19.2835C120.912 19.5661 120.762 19.9147 120.657 20.3294C120.557 20.7396 120.507 21.2158 120.507 21.7581V22.2845C120.507 22.8223 120.557 23.2985 120.657 23.7132C120.762 24.1279 120.912 24.4788 121.108 24.7659C121.309 25.0485 121.55 25.2627 121.833 25.4085C122.116 25.5544 122.439 25.6273 122.804 25.6273C123.168 25.6273 123.492 25.5544 123.774 25.4085C124.057 25.2627 124.294 25.0485 124.485 24.7659C124.681 24.4788 124.829 24.1279 124.93 23.7132C125.03 23.2985 125.08 22.8223 125.08 22.2845Z" fill="black"/>
</svg>
