<svg width="172" height="173" viewBox="0 0 172 173" fill="none" xmlns="http://www.w3.org/2000/svg">
<g id="Illustration">
<circle id="Ellipse 1191" cx="86" cy="86.3828" r="86" fill="url(#paint0_radial_140_1330)"/>
<g id="Group 18140717">
<path id="Vector" d="M126.548 50.9551H40.1391C37.7692 50.9551 35.8481 52.8674 35.8481 55.2265V122.021C35.8481 124.38 37.7692 126.293 40.1391 126.293H126.548C128.918 126.293 130.839 124.38 130.839 122.021V55.2265C130.839 52.8674 128.918 50.9551 126.548 50.9551Z" fill="#0B5243"/>
<path id="Vector_2" d="M125.346 51.0598H41.6874C39.3232 51.0598 37.4067 52.9722 37.4067 55.3312V122.126C37.4067 124.485 39.3232 126.398 41.6874 126.398H125.346C127.71 126.398 129.626 124.485 129.626 122.126V55.3312C129.626 52.9722 127.71 51.0598 125.346 51.0598Z" fill="white" stroke="#0B5243" stroke-width="0.233869" stroke-miterlimit="10"/>
<path id="Vector_3" d="M72.9077 83.0129H64.5704C63.904 83.0129 63.3638 83.5532 63.3638 84.2196C63.3638 84.886 63.904 85.4262 64.5704 85.4262H72.9077C73.5741 85.4262 74.1143 84.886 74.1143 84.2196C74.1143 83.5532 73.5741 83.0129 72.9077 83.0129Z" fill="#0B5243"/>
<path id="Vector_4" d="M100.894 103.67H58.3801C56.1075 103.67 54.2651 105.429 54.2651 107.598C54.2651 109.768 56.1075 111.526 58.3801 111.526H100.894C103.166 111.526 105.009 109.768 105.009 107.598C105.009 105.429 103.166 103.67 100.894 103.67Z" fill="#0B5243"/>
<path id="Vector_5" d="M115.78 106.555H92.3722C91.1209 106.555 90.1064 107.449 90.1064 108.551C90.1064 109.653 91.1209 110.547 92.3722 110.547H115.78C117.032 110.547 118.046 109.653 118.046 108.551C118.046 107.449 117.032 106.555 115.78 106.555Z" fill="white" stroke="#0B5243" stroke-width="0.221266" stroke-miterlimit="10"/>
<path id="Vector_6" d="M100.364 70.6333H57.4897C55.4435 70.6333 53.7847 72.3096 53.7847 74.3774C53.7847 76.4452 55.4435 78.1214 57.4897 78.1214H100.364C102.41 78.1214 104.069 76.4452 104.069 74.3774C104.069 72.3096 102.41 70.6333 100.364 70.6333Z" fill="white" stroke="#0B5243" stroke-width="0.221266" stroke-miterlimit="10"/>
<path id="Vector_7" d="M100.624 88.6255H57.7495C55.7032 88.6255 54.0444 90.3018 54.0444 92.3696C54.0444 94.4373 55.7032 96.1136 57.7495 96.1136H100.624C102.67 96.1136 104.329 94.4373 104.329 92.3696C104.329 90.3018 102.67 88.6255 100.624 88.6255Z" fill="white" stroke="#0B5243" stroke-width="0.221266" stroke-miterlimit="10"/>
<path id="Vector_8" d="M67.8201 73.4509H48.7221C48.2116 73.4509 47.7979 73.9132 47.7979 74.4835C47.7979 75.0538 48.2116 75.5161 48.7221 75.5161H67.8201C68.3305 75.5161 68.7443 75.0538 68.7443 74.4835C68.7443 73.9132 68.3305 73.4509 67.8201 73.4509Z" fill="#BDDDAB"/>
<path id="Vector_9" d="M112.322 91.3865H87.0496C86.5336 91.3865 86.1152 91.8332 86.1152 92.3843C86.1152 92.9354 86.5336 93.3822 87.0496 93.3822H112.322C112.838 93.3822 113.257 92.9354 113.257 92.3843C113.257 91.8332 112.838 91.3865 112.322 91.3865Z" fill="#BDDDAB"/>
<path id="Vector_10" d="M41.6409 50.9551H125.299C127.661 50.9551 129.58 52.9315 129.58 55.3688V57.7582H37.3604V55.3688C37.3604 52.9315 39.2796 50.9551 41.6409 50.9551Z" fill="#E0EED5" stroke="#0B5243" stroke-width="0.233869" stroke-miterlimit="10"/>
<path id="Vector_11" d="M42.9029 55.7379C43.5987 55.7379 44.1627 55.1739 44.1627 54.4781C44.1627 53.7823 43.5987 53.2183 42.9029 53.2183C42.2071 53.2183 41.6431 53.7823 41.6431 54.4781C41.6431 55.1739 42.2071 55.7379 42.9029 55.7379Z" fill="#FBF9ED" stroke="#0B5243" stroke-width="0.233869" stroke-miterlimit="10"/>
<path id="Vector_12" d="M46.6827 55.7379C47.3785 55.7379 47.9425 55.1739 47.9425 54.4781C47.9425 53.7823 47.3785 53.2183 46.6827 53.2183C45.9869 53.2183 45.4229 53.7823 45.4229 54.4781C45.4229 55.1739 45.9869 55.7379 46.6827 55.7379Z" fill="#FBF9ED" stroke="#0B5243" stroke-width="0.233869" stroke-miterlimit="10"/>
<path id="Vector_13" d="M50.7139 55.7379C51.4097 55.7379 51.9738 55.1739 51.9738 54.4781C51.9738 53.7823 51.4097 53.2183 50.7139 53.2183C50.0181 53.2183 49.4541 53.7823 49.4541 54.4781C49.4541 55.1739 50.0181 55.7379 50.7139 55.7379Z" fill="#FBF9ED" stroke="#0B5243" stroke-width="0.233869" stroke-miterlimit="10"/>
<g id="Group 73">
<rect id="Rectangle 26" x="107.963" y="44.2019" width="27.8323" height="27.8323" rx="2.4946" fill="#0B5243"/>
<rect id="Rectangle 25" x="107.44" y="44.3188" width="27.5984" height="27.5984" rx="2.37767" fill="white" stroke="#0B5243" stroke-width="0.233869"/>
</g>
<g id="Group 74">
<rect id="Rectangle 26_2" x="107.925" y="44.2019" width="32.3201" height="32.3201" rx="2.89684" fill="#0B5243"/>
<rect id="Rectangle 25_2" x="107.318" y="44.3377" width="32.0485" height="32.0485" rx="2.76105" fill="white" stroke="#0B5243" stroke-width="0.271579"/>
<path id="Vector_14" d="M116.331 54.3408L115.984 54.6691L115.115 55.5379L114.787 55.8854L115.038 56.2909L116.331 58.4534L116.505 58.7623H118.32L120.791 61.2144C118.583 63.4324 115.774 66.2513 115.675 66.3502C114.707 67.318 114.705 68.9037 115.694 69.8256C116.659 70.779 118.233 70.8031 119.15 69.8256C119.157 69.8184 119.162 69.8136 119.169 69.8063L122.973 65.9834L126.796 69.8256L126.854 69.8643C127.824 70.779 129.366 70.791 130.271 69.8256V69.8063H130.291C131.237 68.8385 131.246 67.2649 130.271 66.3502L130.252 66.3309L127.028 63.1258C129.197 62.9231 130.897 61.0913 130.928 58.8781H130.947C130.95 58.8661 130.947 58.8516 130.947 58.8395C130.947 58.8323 130.947 58.8275 130.947 58.8202C131.008 58.1058 130.853 57.4228 130.484 56.8315L130.059 56.1751L127.182 59.0519L126.313 58.1444L129.248 55.2097L128.399 54.8621C127.901 54.6497 127.327 54.4953 126.68 54.4953C124.305 54.4953 122.355 56.4454 122.355 58.8202C122.355 59.0785 122.411 59.3029 122.452 59.5346C122.181 59.8049 121.979 60.027 121.66 60.3455L119.208 57.8934V56.0592L118.899 55.8854L116.737 54.5918L116.331 54.3408ZM126.68 55.731C126.767 55.731 126.827 55.7817 126.912 55.7889L124.576 58.1251L125 58.5692L126.738 60.3648L127.163 60.8089L129.615 58.3568C129.627 58.4992 129.728 58.603 129.712 58.7623V58.8202C129.712 60.5217 128.324 61.9095 126.622 61.9095C126.395 61.9095 126.12 61.8564 125.811 61.7936L125.483 61.7357L125.251 61.9674L118.281 68.9568H118.262V68.9761C117.823 69.4564 117.055 69.4684 116.544 68.9568V68.9375H116.524C116.044 68.4982 116.032 67.7307 116.544 67.2191C116.778 66.985 121.313 62.4115 123.533 60.1911L123.784 59.9401L123.687 59.5925C123.637 59.3922 123.591 59.0471 123.591 58.8202C123.591 57.1187 124.979 55.731 126.68 55.731ZM116.524 55.8854L117.972 56.7736V57.3914L117.837 57.5266H117.219L116.331 56.0785L116.524 55.8854ZM125.56 63.3962L129.403 67.2191V67.2384H129.422C129.902 67.6777 129.914 68.4451 129.403 68.9568H129.383V68.9761C128.944 69.4564 128.177 69.4684 127.665 68.9568L123.842 65.1145L125.56 63.3962Z" fill="#0B5243"/>
<g id="Group 35">
<path id="Rectangle 24" d="M107.318 47.1009C107.318 45.5761 108.554 44.3399 110.079 44.3399H136.605C138.13 44.3399 139.366 45.5761 139.366 47.1009V49.6407H107.318V47.1009Z" fill="#E0EED5" stroke="#0B5243" stroke-width="0.271579"/>
<path id="Vector_15" d="M110.492 48.2225C111.09 48.2225 111.574 47.7383 111.574 47.1411C111.574 46.5439 111.09 46.0598 110.492 46.0598C109.895 46.0598 109.411 46.5439 109.411 47.1411C109.411 47.7383 109.895 48.2225 110.492 48.2225Z" fill="#FBF9ED" stroke="#0B5243" stroke-width="0.271579" stroke-miterlimit="10"/>
<path id="Vector_16" d="M113.739 48.2225C114.336 48.2225 114.82 47.7383 114.82 47.1411C114.82 46.5439 114.336 46.0598 113.739 46.0598C113.141 46.0598 112.657 46.5439 112.657 47.1411C112.657 47.7383 113.141 48.2225 113.739 48.2225Z" fill="#FBF9ED" stroke="#0B5243" stroke-width="0.271579" stroke-miterlimit="10"/>
<path id="Vector_17" d="M116.988 48.2225C117.585 48.2225 118.069 47.7383 118.069 47.1411C118.069 46.5439 117.585 46.0598 116.988 46.0598C116.39 46.0598 115.906 46.5439 115.906 47.1411C115.906 47.7383 116.39 48.2225 116.988 48.2225Z" fill="#FBF9ED" stroke="#0B5243" stroke-width="0.271579" stroke-miterlimit="10"/>
</g>
</g>
</g>
</g>
<defs>
<radialGradient id="paint0_radial_140_1330" cx="0" cy="0" r="1" gradientUnits="userSpaceOnUse" gradientTransform="translate(86 86.3828) rotate(90) scale(86)">
<stop offset="0.0104167" stop-color="#51AC3C"/>
<stop offset="0.364583" stop-color="#82BC74" stop-opacity="0.642105"/>
<stop offset="0.661458" stop-color="#A5E397" stop-opacity="0.294737"/>
<stop offset="1" stop-color="#D9D9D9" stop-opacity="0"/>
</radialGradient>
</defs>
</svg>
