<svg width="122" height="54" viewBox="0 0 122 54" fill="none" xmlns="http://www.w3.org/2000/svg">
<g filter="url(#filter0_d_429_20474)">
<mask id="path-1-inside-1_429_20474" fill="white">
<path fill-rule="evenodd" clip-rule="evenodd" d="M20.3814 14.0485C19.2391 14.3589 18.4886 15.3569 18.5417 16.495C18.5645 16.9838 18.4078 16.5814 20.455 21.4072C21.4276 23.7002 22.2569 25.6905 22.2978 25.83C22.3823 26.1182 22.4856 26.6061 22.4856 26.7167V26.7907H23.9641H25.4426L25.8415 26.4647C26.061 26.2854 26.2447 26.1182 26.2499 26.0931C26.255 26.068 25.9424 25.8558 25.5512 25.6191C24.4164 24.9326 24.4431 24.7094 25.7343 24.0885C27.017 23.4718 27.6809 23.5499 29.1246 24.4872L29.8684 24.97L31.7549 25.1195C34.0425 25.3007 34.3239 25.354 35.2048 25.7729C36.0831 26.1906 36.9003 26.9413 36.9782 27.4021C37.0877 28.0494 35.9185 29.0848 34.5846 29.5217C33.9514 29.7291 33.7329 29.7599 31.8274 29.9108C30.8098 29.9915 29.9411 30.0648 29.8971 30.0739C29.8529 30.0829 29.4938 30.305 29.0989 30.5674C27.7334 31.4745 27.0306 31.5619 25.7951 30.978C24.8823 30.5467 24.6418 30.3069 24.7844 29.9707L24.8338 29.8541L25.5462 29.4221C25.938 29.1845 26.2578 28.9724 26.2569 28.9508C26.256 28.9292 26.0696 28.7604 25.8427 28.5758L25.4303 28.24L23.9527 28.2495L22.4751 28.2589L22.4123 28.5691C22.298 29.1332 22.1126 29.5696 20.4637 33.153C18.5866 37.2328 18.7076 36.938 18.6851 37.4861C18.6183 39.1114 20.1856 40.3476 21.76 39.9117C22.0569 39.8295 43.1761 29.6372 43.5184 29.411C44.708 28.6246 44.8976 26.852 43.9034 25.8119C43.5486 25.4408 44.1086 25.7439 34.4577 20.6996C29.7187 18.2227 24.9731 15.7419 23.9117 15.1866C22.8504 14.6314 21.879 14.1413 21.7531 14.0975C21.4531 13.9932 20.686 13.9658 20.3814 14.0485ZM93.3386 14.9937C93.2688 15.0017 93.0339 15.0254 92.8168 15.0464C87.3603 15.5731 82.876 20.0842 82.2891 25.6369C81.846 29.8295 83.3873 33.6387 86.627 36.3576C91.2968 40.2766 98.4528 39.9363 102.436 35.6057C104.632 33.2186 105.527 30.7285 105.528 26.9992L105.528 25.8844H99.8657H94.2029L94.2251 27.1986C94.2373 27.9214 94.2566 28.6963 94.2681 28.9206L94.289 29.3284H97.9452H101.601L101.512 29.6456C100.353 33.7649 96.3384 36.0147 92.0839 34.9288C86.6329 33.5376 84.4071 26.5251 87.943 21.8835C91.3625 17.3948 98.3534 17.9104 100.901 22.8394C100.994 23.0187 101.092 23.1655 101.119 23.1655C101.158 23.1655 104.594 22.2439 104.848 22.1652C104.948 22.1344 104.931 22.0835 104.606 21.4363C102.813 17.8659 99.66 15.591 95.7693 15.0614C95.3741 15.0076 93.6385 14.9593 93.3386 14.9937ZM52.9963 26.9884V38.7903H54.9916H56.987V34.6575V30.5247L59.4993 30.5254L62.0116 30.526L64.5821 34.6582L67.1526 38.7903H69.4163C70.6614 38.7903 71.68 38.7827 71.68 38.7734C71.68 38.7641 70.486 36.8105 69.0266 34.4322C67.5672 32.0538 66.3662 30.0828 66.3579 30.0522C66.3465 30.0107 66.4099 29.9754 66.6078 29.9132C68.8548 29.2062 70.7697 26.982 71.2422 24.5302C72.0987 20.0849 69.1474 15.9465 64.6419 15.2751L64.2247 15.2129L58.6105 15.1997L52.9963 15.1866V26.9884ZM74.9696 15.2138C74.9562 15.2273 74.9451 20.5375 74.9451 27.0143V38.7903H76.9768H79.0085L78.9994 26.9992L78.9902 15.2081L76.9922 15.1987C75.8932 15.1936 74.9831 15.2004 74.9696 15.2138ZM108.782 15.2138C108.768 15.2273 108.757 20.5375 108.757 27.0143V38.7903H110.789H112.821L112.811 26.9992L112.802 15.2081L110.804 15.1987C109.705 15.1936 108.795 15.2004 108.782 15.2138ZM64.086 18.8901C65.987 19.1489 67.3162 20.578 67.4699 22.5284C67.6375 24.6543 66.3843 26.3709 64.2868 26.8888L64.0433 26.9489L60.5151 26.9618L56.987 26.9747V22.9131V18.8514H60.3946C62.6048 18.8514 63.9019 18.865 64.086 18.8901Z"/>
</mask>
<path fill-rule="evenodd" clip-rule="evenodd" d="M20.3814 14.0485C19.2391 14.3589 18.4886 15.3569 18.5417 16.495C18.5645 16.9838 18.4078 16.5814 20.455 21.4072C21.4276 23.7002 22.2569 25.6905 22.2978 25.83C22.3823 26.1182 22.4856 26.6061 22.4856 26.7167V26.7907H23.9641H25.4426L25.8415 26.4647C26.061 26.2854 26.2447 26.1182 26.2499 26.0931C26.255 26.068 25.9424 25.8558 25.5512 25.6191C24.4164 24.9326 24.4431 24.7094 25.7343 24.0885C27.017 23.4718 27.6809 23.5499 29.1246 24.4872L29.8684 24.97L31.7549 25.1195C34.0425 25.3007 34.3239 25.354 35.2048 25.7729C36.0831 26.1906 36.9003 26.9413 36.9782 27.4021C37.0877 28.0494 35.9185 29.0848 34.5846 29.5217C33.9514 29.7291 33.7329 29.7599 31.8274 29.9108C30.8098 29.9915 29.9411 30.0648 29.8971 30.0739C29.8529 30.0829 29.4938 30.305 29.0989 30.5674C27.7334 31.4745 27.0306 31.5619 25.7951 30.978C24.8823 30.5467 24.6418 30.3069 24.7844 29.9707L24.8338 29.8541L25.5462 29.4221C25.938 29.1845 26.2578 28.9724 26.2569 28.9508C26.256 28.9292 26.0696 28.7604 25.8427 28.5758L25.4303 28.24L23.9527 28.2495L22.4751 28.2589L22.4123 28.5691C22.298 29.1332 22.1126 29.5696 20.4637 33.153C18.5866 37.2328 18.7076 36.938 18.6851 37.4861C18.6183 39.1114 20.1856 40.3476 21.76 39.9117C22.0569 39.8295 43.1761 29.6372 43.5184 29.411C44.708 28.6246 44.8976 26.852 43.9034 25.8119C43.5486 25.4408 44.1086 25.7439 34.4577 20.6996C29.7187 18.2227 24.9731 15.7419 23.9117 15.1866C22.8504 14.6314 21.879 14.1413 21.7531 14.0975C21.4531 13.9932 20.686 13.9658 20.3814 14.0485ZM93.3386 14.9937C93.2688 15.0017 93.0339 15.0254 92.8168 15.0464C87.3603 15.5731 82.876 20.0842 82.2891 25.6369C81.846 29.8295 83.3873 33.6387 86.627 36.3576C91.2968 40.2766 98.4528 39.9363 102.436 35.6057C104.632 33.2186 105.527 30.7285 105.528 26.9992L105.528 25.8844H99.8657H94.2029L94.2251 27.1986C94.2373 27.9214 94.2566 28.6963 94.2681 28.9206L94.289 29.3284H97.9452H101.601L101.512 29.6456C100.353 33.7649 96.3384 36.0147 92.0839 34.9288C86.6329 33.5376 84.4071 26.5251 87.943 21.8835C91.3625 17.3948 98.3534 17.9104 100.901 22.8394C100.994 23.0187 101.092 23.1655 101.119 23.1655C101.158 23.1655 104.594 22.2439 104.848 22.1652C104.948 22.1344 104.931 22.0835 104.606 21.4363C102.813 17.8659 99.66 15.591 95.7693 15.0614C95.3741 15.0076 93.6385 14.9593 93.3386 14.9937ZM52.9963 26.9884V38.7903H54.9916H56.987V34.6575V30.5247L59.4993 30.5254L62.0116 30.526L64.5821 34.6582L67.1526 38.7903H69.4163C70.6614 38.7903 71.68 38.7827 71.68 38.7734C71.68 38.7641 70.486 36.8105 69.0266 34.4322C67.5672 32.0538 66.3662 30.0828 66.3579 30.0522C66.3465 30.0107 66.4099 29.9754 66.6078 29.9132C68.8548 29.2062 70.7697 26.982 71.2422 24.5302C72.0987 20.0849 69.1474 15.9465 64.6419 15.2751L64.2247 15.2129L58.6105 15.1997L52.9963 15.1866V26.9884ZM74.9696 15.2138C74.9562 15.2273 74.9451 20.5375 74.9451 27.0143V38.7903H76.9768H79.0085L78.9994 26.9992L78.9902 15.2081L76.9922 15.1987C75.8932 15.1936 74.9831 15.2004 74.9696 15.2138ZM108.782 15.2138C108.768 15.2273 108.757 20.5375 108.757 27.0143V38.7903H110.789H112.821L112.811 26.9992L112.802 15.2081L110.804 15.1987C109.705 15.1936 108.795 15.2004 108.782 15.2138ZM64.086 18.8901C65.987 19.1489 67.3162 20.578 67.4699 22.5284C67.6375 24.6543 66.3843 26.3709 64.2868 26.8888L64.0433 26.9489L60.5151 26.9618L56.987 26.9747V22.9131V18.8514H60.3946C62.6048 18.8514 63.9019 18.865 64.086 18.8901Z" fill="#111111"/>
<path fill-rule="evenodd" clip-rule="evenodd" d="M20.3814 14.0485C19.2391 14.3589 18.4886 15.3569 18.5417 16.495C18.5645 16.9838 18.4078 16.5814 20.455 21.4072C21.4276 23.7002 22.2569 25.6905 22.2978 25.83C22.3823 26.1182 22.4856 26.6061 22.4856 26.7167V26.7907H23.9641H25.4426L25.8415 26.4647C26.061 26.2854 26.2447 26.1182 26.2499 26.0931C26.255 26.068 25.9424 25.8558 25.5512 25.6191C24.4164 24.9326 24.4431 24.7094 25.7343 24.0885C27.017 23.4718 27.6809 23.5499 29.1246 24.4872L29.8684 24.97L31.7549 25.1195C34.0425 25.3007 34.3239 25.354 35.2048 25.7729C36.0831 26.1906 36.9003 26.9413 36.9782 27.4021C37.0877 28.0494 35.9185 29.0848 34.5846 29.5217C33.9514 29.7291 33.7329 29.7599 31.8274 29.9108C30.8098 29.9915 29.9411 30.0648 29.8971 30.0739C29.8529 30.0829 29.4938 30.305 29.0989 30.5674C27.7334 31.4745 27.0306 31.5619 25.7951 30.978C24.8823 30.5467 24.6418 30.3069 24.7844 29.9707L24.8338 29.8541L25.5462 29.4221C25.938 29.1845 26.2578 28.9724 26.2569 28.9508C26.256 28.9292 26.0696 28.7604 25.8427 28.5758L25.4303 28.24L23.9527 28.2495L22.4751 28.2589L22.4123 28.5691C22.298 29.1332 22.1126 29.5696 20.4637 33.153C18.5866 37.2328 18.7076 36.938 18.6851 37.4861C18.6183 39.1114 20.1856 40.3476 21.76 39.9117C22.0569 39.8295 43.1761 29.6372 43.5184 29.411C44.708 28.6246 44.8976 26.852 43.9034 25.8119C43.5486 25.4408 44.1086 25.7439 34.4577 20.6996C29.7187 18.2227 24.9731 15.7419 23.9117 15.1866C22.8504 14.6314 21.879 14.1413 21.7531 14.0975C21.4531 13.9932 20.686 13.9658 20.3814 14.0485ZM93.3386 14.9937C93.2688 15.0017 93.0339 15.0254 92.8168 15.0464C87.3603 15.5731 82.876 20.0842 82.2891 25.6369C81.846 29.8295 83.3873 33.6387 86.627 36.3576C91.2968 40.2766 98.4528 39.9363 102.436 35.6057C104.632 33.2186 105.527 30.7285 105.528 26.9992L105.528 25.8844H99.8657H94.2029L94.2251 27.1986C94.2373 27.9214 94.2566 28.6963 94.2681 28.9206L94.289 29.3284H97.9452H101.601L101.512 29.6456C100.353 33.7649 96.3384 36.0147 92.0839 34.9288C86.6329 33.5376 84.4071 26.5251 87.943 21.8835C91.3625 17.3948 98.3534 17.9104 100.901 22.8394C100.994 23.0187 101.092 23.1655 101.119 23.1655C101.158 23.1655 104.594 22.2439 104.848 22.1652C104.948 22.1344 104.931 22.0835 104.606 21.4363C102.813 17.8659 99.66 15.591 95.7693 15.0614C95.3741 15.0076 93.6385 14.9593 93.3386 14.9937ZM52.9963 26.9884V38.7903H54.9916H56.987V34.6575V30.5247L59.4993 30.5254L62.0116 30.526L64.5821 34.6582L67.1526 38.7903H69.4163C70.6614 38.7903 71.68 38.7827 71.68 38.7734C71.68 38.7641 70.486 36.8105 69.0266 34.4322C67.5672 32.0538 66.3662 30.0828 66.3579 30.0522C66.3465 30.0107 66.4099 29.9754 66.6078 29.9132C68.8548 29.2062 70.7697 26.982 71.2422 24.5302C72.0987 20.0849 69.1474 15.9465 64.6419 15.2751L64.2247 15.2129L58.6105 15.1997L52.9963 15.1866V26.9884ZM74.9696 15.2138C74.9562 15.2273 74.9451 20.5375 74.9451 27.0143V38.7903H76.9768H79.0085L78.9994 26.9992L78.9902 15.2081L76.9922 15.1987C75.8932 15.1936 74.9831 15.2004 74.9696 15.2138ZM108.782 15.2138C108.768 15.2273 108.757 20.5375 108.757 27.0143V38.7903H110.789H112.821L112.811 26.9992L112.802 15.2081L110.804 15.1987C109.705 15.1936 108.795 15.2004 108.782 15.2138ZM64.086 18.8901C65.987 19.1489 67.3162 20.578 67.4699 22.5284C67.6375 24.6543 66.3843 26.3709 64.2868 26.8888L64.0433 26.9489L60.5151 26.9618L56.987 26.9747V22.9131V18.8514H60.3946C62.6048 18.8514 63.9019 18.865 64.086 18.8901Z" fill="#515151"/>
<path fill-rule="evenodd" clip-rule="evenodd" d="M20.3814 14.0485C19.2391 14.3589 18.4886 15.3569 18.5417 16.495C18.5645 16.9838 18.4078 16.5814 20.455 21.4072C21.4276 23.7002 22.2569 25.6905 22.2978 25.83C22.3823 26.1182 22.4856 26.6061 22.4856 26.7167V26.7907H23.9641H25.4426L25.8415 26.4647C26.061 26.2854 26.2447 26.1182 26.2499 26.0931C26.255 26.068 25.9424 25.8558 25.5512 25.6191C24.4164 24.9326 24.4431 24.7094 25.7343 24.0885C27.017 23.4718 27.6809 23.5499 29.1246 24.4872L29.8684 24.97L31.7549 25.1195C34.0425 25.3007 34.3239 25.354 35.2048 25.7729C36.0831 26.1906 36.9003 26.9413 36.9782 27.4021C37.0877 28.0494 35.9185 29.0848 34.5846 29.5217C33.9514 29.7291 33.7329 29.7599 31.8274 29.9108C30.8098 29.9915 29.9411 30.0648 29.8971 30.0739C29.8529 30.0829 29.4938 30.305 29.0989 30.5674C27.7334 31.4745 27.0306 31.5619 25.7951 30.978C24.8823 30.5467 24.6418 30.3069 24.7844 29.9707L24.8338 29.8541L25.5462 29.4221C25.938 29.1845 26.2578 28.9724 26.2569 28.9508C26.256 28.9292 26.0696 28.7604 25.8427 28.5758L25.4303 28.24L23.9527 28.2495L22.4751 28.2589L22.4123 28.5691C22.298 29.1332 22.1126 29.5696 20.4637 33.153C18.5866 37.2328 18.7076 36.938 18.6851 37.4861C18.6183 39.1114 20.1856 40.3476 21.76 39.9117C22.0569 39.8295 43.1761 29.6372 43.5184 29.411C44.708 28.6246 44.8976 26.852 43.9034 25.8119C43.5486 25.4408 44.1086 25.7439 34.4577 20.6996C29.7187 18.2227 24.9731 15.7419 23.9117 15.1866C22.8504 14.6314 21.879 14.1413 21.7531 14.0975C21.4531 13.9932 20.686 13.9658 20.3814 14.0485ZM93.3386 14.9937C93.2688 15.0017 93.0339 15.0254 92.8168 15.0464C87.3603 15.5731 82.876 20.0842 82.2891 25.6369C81.846 29.8295 83.3873 33.6387 86.627 36.3576C91.2968 40.2766 98.4528 39.9363 102.436 35.6057C104.632 33.2186 105.527 30.7285 105.528 26.9992L105.528 25.8844H99.8657H94.2029L94.2251 27.1986C94.2373 27.9214 94.2566 28.6963 94.2681 28.9206L94.289 29.3284H97.9452H101.601L101.512 29.6456C100.353 33.7649 96.3384 36.0147 92.0839 34.9288C86.6329 33.5376 84.4071 26.5251 87.943 21.8835C91.3625 17.3948 98.3534 17.9104 100.901 22.8394C100.994 23.0187 101.092 23.1655 101.119 23.1655C101.158 23.1655 104.594 22.2439 104.848 22.1652C104.948 22.1344 104.931 22.0835 104.606 21.4363C102.813 17.8659 99.66 15.591 95.7693 15.0614C95.3741 15.0076 93.6385 14.9593 93.3386 14.9937ZM52.9963 26.9884V38.7903H54.9916H56.987V34.6575V30.5247L59.4993 30.5254L62.0116 30.526L64.5821 34.6582L67.1526 38.7903H69.4163C70.6614 38.7903 71.68 38.7827 71.68 38.7734C71.68 38.7641 70.486 36.8105 69.0266 34.4322C67.5672 32.0538 66.3662 30.0828 66.3579 30.0522C66.3465 30.0107 66.4099 29.9754 66.6078 29.9132C68.8548 29.2062 70.7697 26.982 71.2422 24.5302C72.0987 20.0849 69.1474 15.9465 64.6419 15.2751L64.2247 15.2129L58.6105 15.1997L52.9963 15.1866V26.9884ZM74.9696 15.2138C74.9562 15.2273 74.9451 20.5375 74.9451 27.0143V38.7903H76.9768H79.0085L78.9994 26.9992L78.9902 15.2081L76.9922 15.1987C75.8932 15.1936 74.9831 15.2004 74.9696 15.2138ZM108.782 15.2138C108.768 15.2273 108.757 20.5375 108.757 27.0143V38.7903H110.789H112.821L112.811 26.9992L112.802 15.2081L110.804 15.1987C109.705 15.1936 108.795 15.2004 108.782 15.2138ZM64.086 18.8901C65.987 19.1489 67.3162 20.578 67.4699 22.5284C67.6375 24.6543 66.3843 26.3709 64.2868 26.8888L64.0433 26.9489L60.5151 26.9618L56.987 26.9747V22.9131V18.8514H60.3946C62.6048 18.8514 63.9019 18.865 64.086 18.8901Z" stroke="#CDCDCD" stroke-opacity="0.2" stroke-width="0.902981" mask="url(#path-1-inside-1_429_20474)"/>
</g>
<defs>
<filter id="filter0_d_429_20474" x="0.479444" y="0.455286" width="121.371" height="53.0894" filterUnits="userSpaceOnUse" color-interpolation-filters="sRGB">
<feFlood flood-opacity="0" result="BackgroundImageFix"/>
<feColorMatrix in="SourceAlpha" type="matrix" values="0 0 0 0 0 0 0 0 0 0 0 0 0 0 0 0 0 0 127 0" result="hardAlpha"/>
<feOffset dx="-4.5149"/>
<feGaussianBlur stdDeviation="6.77236"/>
<feComposite in2="hardAlpha" operator="out"/>
<feColorMatrix type="matrix" values="0 0 0 0 0 0 0 0 0 0 0 0 0 0 0 0 0 0 0.45 0"/>
<feBlend mode="normal" in2="BackgroundImageFix" result="effect1_dropShadow_429_20474"/>
<feBlend mode="normal" in="SourceGraphic" in2="effect1_dropShadow_429_20474" result="shape"/>
</filter>
</defs>
</svg>
