<svg width="162" height="65" viewBox="0 0 162 65" fill="none" xmlns="http://www.w3.org/2000/svg">
<g id="image 49 (Traced)" filter="url(#filter0_d_363_5346)">
<mask id="path-1-inside-1_363_5346" fill="white">
<path fill-rule="evenodd" clip-rule="evenodd" d="M21.6159 14.3599C19.994 14.8006 18.9283 16.2177 19.0038 17.8338C19.0362 18.5277 18.8137 17.9564 21.7204 24.8087C23.1015 28.0645 24.2791 30.8905 24.3371 31.0887C24.457 31.4979 24.6037 32.1905 24.6037 32.3476V32.4527H26.7031H28.8024L29.3689 31.9898C29.6804 31.7352 29.9413 31.4978 29.9487 31.4622C29.956 31.4265 29.512 31.1252 28.9566 30.7892C27.3453 29.8143 27.3832 29.4974 29.2167 28.6159C31.0379 27.7402 31.9806 27.8511 34.0306 29.1819L35.0866 29.8675L37.7653 30.0797C41.0136 30.3371 41.4131 30.4127 42.6639 31.0075C43.911 31.6006 45.0714 32.6666 45.182 33.3208C45.3374 34.24 43.6773 35.7101 41.7833 36.3304C40.8842 36.6249 40.5739 36.6687 37.8683 36.883C36.4234 36.9975 35.19 37.1017 35.1274 37.1145C35.0647 37.1274 34.5548 37.4427 33.9941 37.8152C32.0552 39.1034 31.0572 39.2274 29.3029 38.3983C28.0069 37.7858 27.6653 37.4454 27.8678 36.9681L27.938 36.8024L28.9496 36.189C29.5059 35.8517 29.96 35.5505 29.9587 35.5198C29.9573 35.4892 29.6927 35.2495 29.3706 34.9873L28.785 34.5106L26.687 34.5241L24.5889 34.5375L24.4997 34.9779C24.3374 35.7789 24.074 36.3985 21.7329 41.4867C19.0674 47.2796 19.2393 46.8609 19.2073 47.6393C19.1125 49.947 21.3379 51.7024 23.5734 51.0834C23.9951 50.9666 53.9825 36.4945 54.4685 36.1733C56.1576 35.0567 56.4268 32.5397 55.0151 31.0629C54.5114 30.536 55.3066 30.9663 41.603 23.8039C34.8741 20.2869 28.1357 16.7643 26.6287 15.9759C25.1217 15.1876 23.7425 14.4917 23.5637 14.4295C23.1377 14.2813 22.0484 14.2425 21.6159 14.3599ZM125.209 15.702C125.11 15.7134 124.776 15.7471 124.468 15.7768C116.72 16.5247 110.353 22.9301 109.52 30.8144C108.89 36.7676 111.079 42.1762 115.679 46.0368C122.31 51.6016 132.471 51.1184 138.127 44.9693C141.245 41.5797 142.515 38.044 142.517 32.7487L142.517 31.1659H134.477H126.436L126.468 33.0318C126.485 34.0582 126.512 35.1584 126.529 35.4769L126.558 36.056H131.75H136.941L136.815 36.5064C135.169 42.3555 129.468 45.55 123.427 44.0081C115.687 42.0327 112.527 32.0756 117.548 25.4849C122.403 19.1113 132.329 19.8435 135.947 26.8421C136.078 27.0968 136.218 27.3052 136.256 27.3052C136.312 27.3052 141.19 25.9967 141.551 25.8849C141.693 25.8411 141.669 25.7689 141.207 24.8499C138.662 19.7802 134.185 16.5501 128.66 15.7981C128.099 15.7217 125.635 15.6531 125.209 15.702ZM67.9263 32.7334V49.4911H70.7595H73.5927V43.6229V37.7547L77.16 37.7556L80.7273 37.7566L84.3772 43.6238L88.0271 49.4911H91.2413C93.0091 49.4911 94.4555 49.4803 94.4555 49.4671C94.4555 49.4539 92.7601 46.68 90.6879 43.3029C88.6156 39.9258 86.9105 37.1272 86.8986 37.0838C86.8824 37.0249 86.9725 36.9747 87.2535 36.8864C90.444 35.8825 93.163 32.7243 93.8338 29.243C95.0501 22.9311 90.8595 17.0548 84.462 16.1016L83.8696 16.0133L75.8979 15.9945L67.9263 15.9759V32.7334ZM99.1265 16.0145C99.1074 16.0337 99.0917 23.5737 99.0917 32.7702V49.4911H101.977H104.861L104.848 32.7487L104.835 16.0064L101.998 15.9931C100.438 15.9858 99.1456 15.9954 99.1265 16.0145ZM147.137 16.0145C147.118 16.0337 147.102 23.5737 147.102 32.7702V49.4911H149.987H152.872L152.859 32.7487L152.846 16.0064L150.009 15.9931C148.448 15.9858 147.156 15.9954 147.137 16.0145ZM83.6727 21.2345C86.3719 21.602 88.2593 23.6313 88.4775 26.4006C88.7155 29.4192 86.9361 31.8566 83.9578 32.592L83.612 32.6774L78.6024 32.6957L73.5927 32.714V26.9468V21.1797H78.4312C81.5695 21.1797 83.4113 21.1989 83.6727 21.2345Z"/>
</mask>
<path fill-rule="evenodd" clip-rule="evenodd" d="M21.6159 14.3599C19.994 14.8006 18.9283 16.2177 19.0038 17.8338C19.0362 18.5277 18.8137 17.9564 21.7204 24.8087C23.1015 28.0645 24.2791 30.8905 24.3371 31.0887C24.457 31.4979 24.6037 32.1905 24.6037 32.3476V32.4527H26.7031H28.8024L29.3689 31.9898C29.6804 31.7352 29.9413 31.4978 29.9487 31.4622C29.956 31.4265 29.512 31.1252 28.9566 30.7892C27.3453 29.8143 27.3832 29.4974 29.2167 28.6159C31.0379 27.7402 31.9806 27.8511 34.0306 29.1819L35.0866 29.8675L37.7653 30.0797C41.0136 30.3371 41.4131 30.4127 42.6639 31.0075C43.911 31.6006 45.0714 32.6666 45.182 33.3208C45.3374 34.24 43.6773 35.7101 41.7833 36.3304C40.8842 36.6249 40.5739 36.6687 37.8683 36.883C36.4234 36.9975 35.19 37.1017 35.1274 37.1145C35.0647 37.1274 34.5548 37.4427 33.9941 37.8152C32.0552 39.1034 31.0572 39.2274 29.3029 38.3983C28.0069 37.7858 27.6653 37.4454 27.8678 36.9681L27.938 36.8024L28.9496 36.189C29.5059 35.8517 29.96 35.5505 29.9587 35.5198C29.9573 35.4892 29.6927 35.2495 29.3706 34.9873L28.785 34.5106L26.687 34.5241L24.5889 34.5375L24.4997 34.9779C24.3374 35.7789 24.074 36.3985 21.7329 41.4867C19.0674 47.2796 19.2393 46.8609 19.2073 47.6393C19.1125 49.947 21.3379 51.7024 23.5734 51.0834C23.9951 50.9666 53.9825 36.4945 54.4685 36.1733C56.1576 35.0567 56.4268 32.5397 55.0151 31.0629C54.5114 30.536 55.3066 30.9663 41.603 23.8039C34.8741 20.2869 28.1357 16.7643 26.6287 15.9759C25.1217 15.1876 23.7425 14.4917 23.5637 14.4295C23.1377 14.2813 22.0484 14.2425 21.6159 14.3599ZM125.209 15.702C125.11 15.7134 124.776 15.7471 124.468 15.7768C116.72 16.5247 110.353 22.9301 109.52 30.8144C108.89 36.7676 111.079 42.1762 115.679 46.0368C122.31 51.6016 132.471 51.1184 138.127 44.9693C141.245 41.5797 142.515 38.044 142.517 32.7487L142.517 31.1659H134.477H126.436L126.468 33.0318C126.485 34.0582 126.512 35.1584 126.529 35.4769L126.558 36.056H131.75H136.941L136.815 36.5064C135.169 42.3555 129.468 45.55 123.427 44.0081C115.687 42.0327 112.527 32.0756 117.548 25.4849C122.403 19.1113 132.329 19.8435 135.947 26.8421C136.078 27.0968 136.218 27.3052 136.256 27.3052C136.312 27.3052 141.19 25.9967 141.551 25.8849C141.693 25.8411 141.669 25.7689 141.207 24.8499C138.662 19.7802 134.185 16.5501 128.66 15.7981C128.099 15.7217 125.635 15.6531 125.209 15.702ZM67.9263 32.7334V49.4911H70.7595H73.5927V43.6229V37.7547L77.16 37.7556L80.7273 37.7566L84.3772 43.6238L88.0271 49.4911H91.2413C93.0091 49.4911 94.4555 49.4803 94.4555 49.4671C94.4555 49.4539 92.7601 46.68 90.6879 43.3029C88.6156 39.9258 86.9105 37.1272 86.8986 37.0838C86.8824 37.0249 86.9725 36.9747 87.2535 36.8864C90.444 35.8825 93.163 32.7243 93.8338 29.243C95.0501 22.9311 90.8595 17.0548 84.462 16.1016L83.8696 16.0133L75.8979 15.9945L67.9263 15.9759V32.7334ZM99.1265 16.0145C99.1074 16.0337 99.0917 23.5737 99.0917 32.7702V49.4911H101.977H104.861L104.848 32.7487L104.835 16.0064L101.998 15.9931C100.438 15.9858 99.1456 15.9954 99.1265 16.0145ZM147.137 16.0145C147.118 16.0337 147.102 23.5737 147.102 32.7702V49.4911H149.987H152.872L152.859 32.7487L152.846 16.0064L150.009 15.9931C148.448 15.9858 147.156 15.9954 147.137 16.0145ZM83.6727 21.2345C86.3719 21.602 88.2593 23.6313 88.4775 26.4006C88.7155 29.4192 86.9361 31.8566 83.9578 32.592L83.612 32.6774L78.6024 32.6957L73.5927 32.714V26.9468V21.1797H78.4312C81.5695 21.1797 83.4113 21.1989 83.6727 21.2345Z" fill="#111111"/>
<path fill-rule="evenodd" clip-rule="evenodd" d="M21.6159 14.3599C19.994 14.8006 18.9283 16.2177 19.0038 17.8338C19.0362 18.5277 18.8137 17.9564 21.7204 24.8087C23.1015 28.0645 24.2791 30.8905 24.3371 31.0887C24.457 31.4979 24.6037 32.1905 24.6037 32.3476V32.4527H26.7031H28.8024L29.3689 31.9898C29.6804 31.7352 29.9413 31.4978 29.9487 31.4622C29.956 31.4265 29.512 31.1252 28.9566 30.7892C27.3453 29.8143 27.3832 29.4974 29.2167 28.6159C31.0379 27.7402 31.9806 27.8511 34.0306 29.1819L35.0866 29.8675L37.7653 30.0797C41.0136 30.3371 41.4131 30.4127 42.6639 31.0075C43.911 31.6006 45.0714 32.6666 45.182 33.3208C45.3374 34.24 43.6773 35.7101 41.7833 36.3304C40.8842 36.6249 40.5739 36.6687 37.8683 36.883C36.4234 36.9975 35.19 37.1017 35.1274 37.1145C35.0647 37.1274 34.5548 37.4427 33.9941 37.8152C32.0552 39.1034 31.0572 39.2274 29.3029 38.3983C28.0069 37.7858 27.6653 37.4454 27.8678 36.9681L27.938 36.8024L28.9496 36.189C29.5059 35.8517 29.96 35.5505 29.9587 35.5198C29.9573 35.4892 29.6927 35.2495 29.3706 34.9873L28.785 34.5106L26.687 34.5241L24.5889 34.5375L24.4997 34.9779C24.3374 35.7789 24.074 36.3985 21.7329 41.4867C19.0674 47.2796 19.2393 46.8609 19.2073 47.6393C19.1125 49.947 21.3379 51.7024 23.5734 51.0834C23.9951 50.9666 53.9825 36.4945 54.4685 36.1733C56.1576 35.0567 56.4268 32.5397 55.0151 31.0629C54.5114 30.536 55.3066 30.9663 41.603 23.8039C34.8741 20.2869 28.1357 16.7643 26.6287 15.9759C25.1217 15.1876 23.7425 14.4917 23.5637 14.4295C23.1377 14.2813 22.0484 14.2425 21.6159 14.3599ZM125.209 15.702C125.11 15.7134 124.776 15.7471 124.468 15.7768C116.72 16.5247 110.353 22.9301 109.52 30.8144C108.89 36.7676 111.079 42.1762 115.679 46.0368C122.31 51.6016 132.471 51.1184 138.127 44.9693C141.245 41.5797 142.515 38.044 142.517 32.7487L142.517 31.1659H134.477H126.436L126.468 33.0318C126.485 34.0582 126.512 35.1584 126.529 35.4769L126.558 36.056H131.75H136.941L136.815 36.5064C135.169 42.3555 129.468 45.55 123.427 44.0081C115.687 42.0327 112.527 32.0756 117.548 25.4849C122.403 19.1113 132.329 19.8435 135.947 26.8421C136.078 27.0968 136.218 27.3052 136.256 27.3052C136.312 27.3052 141.19 25.9967 141.551 25.8849C141.693 25.8411 141.669 25.7689 141.207 24.8499C138.662 19.7802 134.185 16.5501 128.66 15.7981C128.099 15.7217 125.635 15.6531 125.209 15.702ZM67.9263 32.7334V49.4911H70.7595H73.5927V43.6229V37.7547L77.16 37.7556L80.7273 37.7566L84.3772 43.6238L88.0271 49.4911H91.2413C93.0091 49.4911 94.4555 49.4803 94.4555 49.4671C94.4555 49.4539 92.7601 46.68 90.6879 43.3029C88.6156 39.9258 86.9105 37.1272 86.8986 37.0838C86.8824 37.0249 86.9725 36.9747 87.2535 36.8864C90.444 35.8825 93.163 32.7243 93.8338 29.243C95.0501 22.9311 90.8595 17.0548 84.462 16.1016L83.8696 16.0133L75.8979 15.9945L67.9263 15.9759V32.7334ZM99.1265 16.0145C99.1074 16.0337 99.0917 23.5737 99.0917 32.7702V49.4911H101.977H104.861L104.848 32.7487L104.835 16.0064L101.998 15.9931C100.438 15.9858 99.1456 15.9954 99.1265 16.0145ZM147.137 16.0145C147.118 16.0337 147.102 23.5737 147.102 32.7702V49.4911H149.987H152.872L152.859 32.7487L152.846 16.0064L150.009 15.9931C148.448 15.9858 147.156 15.9954 147.137 16.0145ZM83.6727 21.2345C86.3719 21.602 88.2593 23.6313 88.4775 26.4006C88.7155 29.4192 86.9361 31.8566 83.9578 32.592L83.612 32.6774L78.6024 32.6957L73.5927 32.714V26.9468V21.1797H78.4312C81.5695 21.1797 83.4113 21.1989 83.6727 21.2345Z" fill="#515151"/>
<path fill-rule="evenodd" clip-rule="evenodd" d="M21.6159 14.3599C19.994 14.8006 18.9283 16.2177 19.0038 17.8338C19.0362 18.5277 18.8137 17.9564 21.7204 24.8087C23.1015 28.0645 24.2791 30.8905 24.3371 31.0887C24.457 31.4979 24.6037 32.1905 24.6037 32.3476V32.4527H26.7031H28.8024L29.3689 31.9898C29.6804 31.7352 29.9413 31.4978 29.9487 31.4622C29.956 31.4265 29.512 31.1252 28.9566 30.7892C27.3453 29.8143 27.3832 29.4974 29.2167 28.6159C31.0379 27.7402 31.9806 27.8511 34.0306 29.1819L35.0866 29.8675L37.7653 30.0797C41.0136 30.3371 41.4131 30.4127 42.6639 31.0075C43.911 31.6006 45.0714 32.6666 45.182 33.3208C45.3374 34.24 43.6773 35.7101 41.7833 36.3304C40.8842 36.6249 40.5739 36.6687 37.8683 36.883C36.4234 36.9975 35.19 37.1017 35.1274 37.1145C35.0647 37.1274 34.5548 37.4427 33.9941 37.8152C32.0552 39.1034 31.0572 39.2274 29.3029 38.3983C28.0069 37.7858 27.6653 37.4454 27.8678 36.9681L27.938 36.8024L28.9496 36.189C29.5059 35.8517 29.96 35.5505 29.9587 35.5198C29.9573 35.4892 29.6927 35.2495 29.3706 34.9873L28.785 34.5106L26.687 34.5241L24.5889 34.5375L24.4997 34.9779C24.3374 35.7789 24.074 36.3985 21.7329 41.4867C19.0674 47.2796 19.2393 46.8609 19.2073 47.6393C19.1125 49.947 21.3379 51.7024 23.5734 51.0834C23.9951 50.9666 53.9825 36.4945 54.4685 36.1733C56.1576 35.0567 56.4268 32.5397 55.0151 31.0629C54.5114 30.536 55.3066 30.9663 41.603 23.8039C34.8741 20.2869 28.1357 16.7643 26.6287 15.9759C25.1217 15.1876 23.7425 14.4917 23.5637 14.4295C23.1377 14.2813 22.0484 14.2425 21.6159 14.3599ZM125.209 15.702C125.11 15.7134 124.776 15.7471 124.468 15.7768C116.72 16.5247 110.353 22.9301 109.52 30.8144C108.89 36.7676 111.079 42.1762 115.679 46.0368C122.31 51.6016 132.471 51.1184 138.127 44.9693C141.245 41.5797 142.515 38.044 142.517 32.7487L142.517 31.1659H134.477H126.436L126.468 33.0318C126.485 34.0582 126.512 35.1584 126.529 35.4769L126.558 36.056H131.75H136.941L136.815 36.5064C135.169 42.3555 129.468 45.55 123.427 44.0081C115.687 42.0327 112.527 32.0756 117.548 25.4849C122.403 19.1113 132.329 19.8435 135.947 26.8421C136.078 27.0968 136.218 27.3052 136.256 27.3052C136.312 27.3052 141.19 25.9967 141.551 25.8849C141.693 25.8411 141.669 25.7689 141.207 24.8499C138.662 19.7802 134.185 16.5501 128.66 15.7981C128.099 15.7217 125.635 15.6531 125.209 15.702ZM67.9263 32.7334V49.4911H70.7595H73.5927V43.6229V37.7547L77.16 37.7556L80.7273 37.7566L84.3772 43.6238L88.0271 49.4911H91.2413C93.0091 49.4911 94.4555 49.4803 94.4555 49.4671C94.4555 49.4539 92.7601 46.68 90.6879 43.3029C88.6156 39.9258 86.9105 37.1272 86.8986 37.0838C86.8824 37.0249 86.9725 36.9747 87.2535 36.8864C90.444 35.8825 93.163 32.7243 93.8338 29.243C95.0501 22.9311 90.8595 17.0548 84.462 16.1016L83.8696 16.0133L75.8979 15.9945L67.9263 15.9759V32.7334ZM99.1265 16.0145C99.1074 16.0337 99.0917 23.5737 99.0917 32.7702V49.4911H101.977H104.861L104.848 32.7487L104.835 16.0064L101.998 15.9931C100.438 15.9858 99.1456 15.9954 99.1265 16.0145ZM147.137 16.0145C147.118 16.0337 147.102 23.5737 147.102 32.7702V49.4911H149.987H152.872L152.859 32.7487L152.846 16.0064L150.009 15.9931C148.448 15.9858 147.156 15.9954 147.137 16.0145ZM83.6727 21.2345C86.3719 21.602 88.2593 23.6313 88.4775 26.4006C88.7155 29.4192 86.9361 31.8566 83.9578 32.592L83.612 32.6774L78.6024 32.6957L73.5927 32.714V26.9468V21.1797H78.4312C81.5695 21.1797 83.4113 21.1989 83.6727 21.2345Z" stroke="#CDCDCD" stroke-opacity="0.2" stroke-width="0.902981" mask="url(#path-1-inside-1_363_5346)"/>
</g>
<defs>
<filter id="filter0_d_363_5346" x="0.940382" y="0.746302" width="160.961" height="64.0074" filterUnits="userSpaceOnUse" color-interpolation-filters="sRGB">
<feFlood flood-opacity="0" result="BackgroundImageFix"/>
<feColorMatrix in="SourceAlpha" type="matrix" values="0 0 0 0 0 0 0 0 0 0 0 0 0 0 0 0 0 0 127 0" result="hardAlpha"/>
<feOffset dx="-4.5149"/>
<feGaussianBlur stdDeviation="6.77236"/>
<feComposite in2="hardAlpha" operator="out"/>
<feColorMatrix type="matrix" values="0 0 0 0 0 0 0 0 0 0 0 0 0 0 0 0 0 0 0.45 0"/>
<feBlend mode="normal" in2="BackgroundImageFix" result="effect1_dropShadow_363_5346"/>
<feBlend mode="normal" in="SourceGraphic" in2="effect1_dropShadow_363_5346" result="shape"/>
</filter>
</defs>
</svg>
