<svg width="161" height="170" viewBox="0 0 161 170" fill="none" xmlns="http://www.w3.org/2000/svg">
<g id="Illustrations">
<path id="Ellipse 115 (Stroke)" fill-rule="evenodd" clip-rule="evenodd" d="M12.6045 163.998C8.95808 163.998 6.00212 161.042 6.00212 157.396C6.00212 153.749 8.95808 150.793 12.6045 150.793C16.2508 150.793 19.2068 153.749 19.2068 157.396C19.2068 161.042 16.2508 163.998 12.6045 163.998ZM0 157.396C0 164.357 5.6432 170 12.6045 170C19.5657 170 25.2089 164.357 25.2089 157.396C25.2089 150.434 19.5657 144.791 12.6045 144.791C5.6432 144.791 0 150.434 0 157.396Z" fill="#D5E8C8"/>
<path id="Ellipse 115 (Stroke)_2" fill-rule="evenodd" clip-rule="evenodd" d="M12.6045 55.9979C8.95808 55.9979 6.00212 53.0419 6.00212 49.3955C6.00212 45.7492 8.95808 42.7932 12.6045 42.7932C16.2508 42.7932 19.2068 45.7492 19.2068 49.3955C19.2068 53.0419 16.2508 55.9979 12.6045 55.9979ZM0 49.3955C0 56.3568 5.6432 62 12.6045 62C19.5657 62 25.2089 56.3568 25.2089 49.3955C25.2089 42.4343 19.5657 36.7911 12.6045 36.7911C5.6432 36.7911 0 42.4343 0 49.3955Z" fill="#D5E8C8"/>
<path id="Ellipse 115 (Stroke)_3" fill-rule="evenodd" clip-rule="evenodd" d="M12.6045 127.998C8.95808 127.998 6.00212 125.042 6.00212 121.396C6.00212 117.749 8.95808 114.793 12.6045 114.793C16.2508 114.793 19.2068 117.749 19.2068 121.396C19.2068 125.042 16.2508 127.998 12.6045 127.998ZM0 121.396C0 128.357 5.6432 134 12.6045 134C19.5657 134 25.2089 128.357 25.2089 121.396C25.2089 114.434 19.5657 108.791 12.6045 108.791C5.6432 108.791 0 114.434 0 121.396Z" fill="#D5E8C8"/>
<path id="Ellipse 115 (Stroke)_4" fill-rule="evenodd" clip-rule="evenodd" d="M12.6045 19.9979C8.95808 19.9979 6.00212 17.0419 6.00212 13.3955C6.00212 9.74918 8.95808 6.79322 12.6045 6.79322C16.2508 6.79322 19.2068 9.74918 19.2068 13.3955C19.2068 17.0419 16.2508 19.9979 12.6045 19.9979ZM0 13.3955C0 20.3568 5.6432 26 12.6045 26C19.5657 26 25.2089 20.3568 25.2089 13.3955C25.2089 6.4343 19.5657 0.7911 12.6045 0.7911C5.6432 0.7911 0 6.4343 0 13.3955Z" fill="#D5E8C8"/>
<path id="Ellipse 115 (Stroke)_5" fill-rule="evenodd" clip-rule="evenodd" d="M12.6045 91.9979C8.95808 91.9979 6.00212 89.0419 6.00212 85.3955C6.00212 81.7492 8.95808 78.7932 12.6045 78.7932C16.2508 78.7932 19.2068 81.7492 19.2068 85.3955C19.2068 89.0419 16.2508 91.9979 12.6045 91.9979ZM0 85.3955C0 92.3568 5.6432 98 12.6045 98C19.5657 98 25.2089 92.3568 25.2089 85.3955C25.2089 78.4343 19.5657 72.7911 12.6045 72.7911C5.6432 72.7911 0 78.4343 0 85.3955Z" fill="#D5E8C8"/>
<path id="Ellipse 115 (Stroke)_6" fill-rule="evenodd" clip-rule="evenodd" d="M57.6045 163.998C53.9581 163.998 51.0021 161.042 51.0021 157.396C51.0021 153.749 53.9581 150.793 57.6045 150.793C61.2508 150.793 64.2068 153.749 64.2068 157.396C64.2068 161.042 61.2508 163.998 57.6045 163.998ZM45 157.396C45 164.357 50.6432 170 57.6045 170C64.5657 170 70.2089 164.357 70.2089 157.396C70.2089 150.434 64.5657 144.791 57.6045 144.791C50.6432 144.791 45 150.434 45 157.396Z" fill="#D5E8C8"/>
<path id="Ellipse 115 (Stroke)_7" fill-rule="evenodd" clip-rule="evenodd" d="M57.6045 55.9979C53.9581 55.9979 51.0021 53.0419 51.0021 49.3955C51.0021 45.7492 53.9581 42.7932 57.6045 42.7932C61.2508 42.7932 64.2068 45.7492 64.2068 49.3955C64.2068 53.0419 61.2508 55.9979 57.6045 55.9979ZM45 49.3955C45 56.3568 50.6432 62 57.6045 62C64.5657 62 70.2089 56.3568 70.2089 49.3955C70.2089 42.4343 64.5657 36.7911 57.6045 36.7911C50.6432 36.7911 45 42.4343 45 49.3955Z" fill="#D5E8C8"/>
<path id="Ellipse 115 (Stroke)_8" fill-rule="evenodd" clip-rule="evenodd" d="M57.6045 127.998C53.9581 127.998 51.0021 125.042 51.0021 121.396C51.0021 117.749 53.9581 114.793 57.6045 114.793C61.2508 114.793 64.2068 117.749 64.2068 121.396C64.2068 125.042 61.2508 127.998 57.6045 127.998ZM45 121.396C45 128.357 50.6432 134 57.6045 134C64.5657 134 70.2089 128.357 70.2089 121.396C70.2089 114.434 64.5657 108.791 57.6045 108.791C50.6432 108.791 45 114.434 45 121.396Z" fill="#D5E8C8"/>
<path id="Ellipse 115 (Stroke)_9" fill-rule="evenodd" clip-rule="evenodd" d="M57.6045 19.9979C53.9581 19.9979 51.0021 17.0419 51.0021 13.3955C51.0021 9.74918 53.9581 6.79322 57.6045 6.79322C61.2508 6.79322 64.2068 9.74918 64.2068 13.3955C64.2068 17.0419 61.2508 19.9979 57.6045 19.9979ZM45 13.3955C45 20.3568 50.6432 26 57.6045 26C64.5657 26 70.2089 20.3568 70.2089 13.3955C70.2089 6.4343 64.5657 0.7911 57.6045 0.7911C50.6432 0.7911 45 6.4343 45 13.3955Z" fill="#D5E8C8"/>
<path id="Ellipse 115 (Stroke)_10" fill-rule="evenodd" clip-rule="evenodd" d="M57.6045 91.9979C53.9581 91.9979 51.0021 89.0419 51.0021 85.3955C51.0021 81.7492 53.9581 78.7932 57.6045 78.7932C61.2508 78.7932 64.2068 81.7492 64.2068 85.3955C64.2068 89.0419 61.2508 91.9979 57.6045 91.9979ZM45 85.3955C45 92.3568 50.6432 98 57.6045 98C64.5657 98 70.2089 92.3568 70.2089 85.3955C70.2089 78.4343 64.5657 72.7911 57.6045 72.7911C50.6432 72.7911 45 78.4343 45 85.3955Z" fill="#D5E8C8"/>
<path id="Ellipse 115 (Stroke)_11" fill-rule="evenodd" clip-rule="evenodd" d="M102.604 163.998C98.9581 163.998 96.0021 161.042 96.0021 157.396C96.0021 153.749 98.9581 150.793 102.604 150.793C106.251 150.793 109.207 153.749 109.207 157.396C109.207 161.042 106.251 163.998 102.604 163.998ZM90 157.396C90 164.357 95.6432 170 102.604 170C109.566 170 115.209 164.357 115.209 157.396C115.209 150.434 109.566 144.791 102.604 144.791C95.6432 144.791 90 150.434 90 157.396Z" fill="#D5E8C8"/>
<path id="Ellipse 115 (Stroke)_12" fill-rule="evenodd" clip-rule="evenodd" d="M102.604 55.9979C98.9581 55.9979 96.0021 53.0419 96.0021 49.3955C96.0021 45.7492 98.9581 42.7932 102.604 42.7932C106.251 42.7932 109.207 45.7492 109.207 49.3955C109.207 53.0419 106.251 55.9979 102.604 55.9979ZM90 49.3955C90 56.3568 95.6432 62 102.604 62C109.566 62 115.209 56.3568 115.209 49.3955C115.209 42.4343 109.566 36.7911 102.604 36.7911C95.6432 36.7911 90 42.4343 90 49.3955Z" fill="#D5E8C8"/>
<path id="Ellipse 115 (Stroke)_13" fill-rule="evenodd" clip-rule="evenodd" d="M102.604 127.998C98.9581 127.998 96.0021 125.042 96.0021 121.396C96.0021 117.749 98.9581 114.793 102.604 114.793C106.251 114.793 109.207 117.749 109.207 121.396C109.207 125.042 106.251 127.998 102.604 127.998ZM90 121.396C90 128.357 95.6432 134 102.604 134C109.566 134 115.209 128.357 115.209 121.396C115.209 114.434 109.566 108.791 102.604 108.791C95.6432 108.791 90 114.434 90 121.396Z" fill="#D5E8C8"/>
<path id="Ellipse 115 (Stroke)_14" fill-rule="evenodd" clip-rule="evenodd" d="M102.604 19.9979C98.9581 19.9979 96.0021 17.0419 96.0021 13.3955C96.0021 9.74918 98.9581 6.79322 102.604 6.79322C106.251 6.79322 109.207 9.74918 109.207 13.3955C109.207 17.0419 106.251 19.9979 102.604 19.9979ZM90 13.3955C90 20.3568 95.6432 26 102.604 26C109.566 26 115.209 20.3568 115.209 13.3955C115.209 6.4343 109.566 0.7911 102.604 0.7911C95.6432 0.7911 90 6.4343 90 13.3955Z" fill="#D5E8C8"/>
<path id="Ellipse 115 (Stroke)_15" fill-rule="evenodd" clip-rule="evenodd" d="M102.604 91.9979C98.9581 91.9979 96.0021 89.0419 96.0021 85.3955C96.0021 81.7492 98.9581 78.7932 102.604 78.7932C106.251 78.7932 109.207 81.7492 109.207 85.3955C109.207 89.0419 106.251 91.9979 102.604 91.9979ZM90 85.3955C90 92.3568 95.6432 98 102.604 98C109.566 98 115.209 92.3568 115.209 85.3955C115.209 78.4343 109.566 72.7911 102.604 72.7911C95.6432 72.7911 90 78.4343 90 85.3955Z" fill="#D5E8C8"/>
<path id="Ellipse 115 (Stroke)_16" fill-rule="evenodd" clip-rule="evenodd" d="M147.604 163.998C143.958 163.998 141.002 161.042 141.002 157.396C141.002 153.749 143.958 150.793 147.604 150.793C151.251 150.793 154.207 153.749 154.207 157.396C154.207 161.042 151.251 163.998 147.604 163.998ZM135 157.396C135 164.357 140.643 170 147.604 170C154.566 170 160.209 164.357 160.209 157.396C160.209 150.434 154.566 144.791 147.604 144.791C140.643 144.791 135 150.434 135 157.396Z" fill="#D5E8C8"/>
<path id="Ellipse 115 (Stroke)_17" fill-rule="evenodd" clip-rule="evenodd" d="M147.604 55.9979C143.958 55.9979 141.002 53.0419 141.002 49.3955C141.002 45.7492 143.958 42.7932 147.604 42.7932C151.251 42.7932 154.207 45.7492 154.207 49.3955C154.207 53.0419 151.251 55.9979 147.604 55.9979ZM135 49.3955C135 56.3568 140.643 62 147.604 62C154.566 62 160.209 56.3568 160.209 49.3955C160.209 42.4343 154.566 36.7911 147.604 36.7911C140.643 36.7911 135 42.4343 135 49.3955Z" fill="#D5E8C8"/>
<path id="Ellipse 115 (Stroke)_18" fill-rule="evenodd" clip-rule="evenodd" d="M147.604 127.998C143.958 127.998 141.002 125.042 141.002 121.396C141.002 117.749 143.958 114.793 147.604 114.793C151.251 114.793 154.207 117.749 154.207 121.396C154.207 125.042 151.251 127.998 147.604 127.998ZM135 121.396C135 128.357 140.643 134 147.604 134C154.566 134 160.209 128.357 160.209 121.396C160.209 114.434 154.566 108.791 147.604 108.791C140.643 108.791 135 114.434 135 121.396Z" fill="#D5E8C8"/>
<path id="Ellipse 115 (Stroke)_19" fill-rule="evenodd" clip-rule="evenodd" d="M147.604 19.9979C143.958 19.9979 141.002 17.0419 141.002 13.3955C141.002 9.74918 143.958 6.79322 147.604 6.79322C151.251 6.79322 154.207 9.74918 154.207 13.3955C154.207 17.0419 151.251 19.9979 147.604 19.9979ZM135 13.3955C135 20.3568 140.643 26 147.604 26C154.566 26 160.209 20.3568 160.209 13.3955C160.209 6.4343 154.566 0.7911 147.604 0.7911C140.643 0.7911 135 6.4343 135 13.3955Z" fill="#D5E8C8"/>
<path id="Ellipse 115 (Stroke)_20" fill-rule="evenodd" clip-rule="evenodd" d="M147.604 91.9979C143.958 91.9979 141.002 89.0419 141.002 85.3955C141.002 81.7492 143.958 78.7932 147.604 78.7932C151.251 78.7932 154.207 81.7492 154.207 85.3955C154.207 89.0419 151.251 91.9979 147.604 91.9979ZM135 85.3955C135 92.3568 140.643 98 147.604 98C154.566 98 160.209 92.3568 160.209 85.3955C160.209 78.4343 154.566 72.7911 147.604 72.7911C140.643 72.7911 135 78.4343 135 85.3955Z" fill="#D5E8C8"/>
</g>
</svg>
