<svg width="101" height="101" viewBox="0 0 101 101" fill="none" xmlns="http://www.w3.org/2000/svg">
<g id="Frame 1533208575" clip-path="url(#clip0_363_5534)">
<g id="Group 18140783">
<g id="Smart 1 (Traced)" filter="url(#filter0_d_363_5534)">
<path d="M38.315 12.9258C37.9772 12.6427 37.6375 12.0505 37.3273 11.2038C37.0435 10.4289 36.3051 9.91453 35.4799 9.91671L33.9805 9.92066C30.0413 9.931 29.196 10.2727 28.2469 12.2379C27.9219 12.911 27.9143 13.7802 27.9143 50.4678C27.9143 92.334 27.809 88.6902 29.0524 89.8511C30.1796 90.9034 29.1309 90.8507 48.873 90.8466C68.9217 90.8425 67.6235 90.9167 68.7602 89.7097C69.8408 88.5623 69.7639 91.5778 69.7639 50.421V13.8873C69.7639 13.2435 69.6139 12.6085 69.3258 12.0328C68.4511 10.2852 67.4467 9.91309 63.6048 9.91309H62.1907C61.3651 9.91309 60.6273 10.4285 60.3432 11.2038C60.0331 12.0505 59.6934 12.6427 59.3556 12.9258C59.023 13.2045 58.6029 13.3572 58.169 13.3572H48.8353H39.5016C39.0677 13.3572 38.6476 13.2045 38.315 12.9258Z" fill="#111111"/>
<path d="M38.315 12.9258C37.9772 12.6427 37.6375 12.0505 37.3273 11.2038C37.0435 10.4289 36.3051 9.91453 35.4799 9.91671L33.9805 9.92066C30.0413 9.931 29.196 10.2727 28.2469 12.2379C27.9219 12.911 27.9143 13.7802 27.9143 50.4678C27.9143 92.334 27.809 88.6902 29.0524 89.8511C30.1796 90.9034 29.1309 90.8507 48.873 90.8466C68.9217 90.8425 67.6235 90.9167 68.7602 89.7097C69.8408 88.5623 69.7639 91.5778 69.7639 50.421V13.8873C69.7639 13.2435 69.6139 12.6085 69.3258 12.0328C68.4511 10.2852 67.4467 9.91309 63.6048 9.91309H62.1907C61.3651 9.91309 60.6273 10.4285 60.3432 11.2038C60.0331 12.0505 59.6934 12.6427 59.3556 12.9258C59.023 13.2045 58.6029 13.3572 58.169 13.3572H48.8353H39.5016C39.0677 13.3572 38.6476 13.2045 38.315 12.9258Z" fill="url(#paint0_linear_363_5534)" fill-opacity="0.9"/>
</g>
<g id="Smart 1 (Traced)_2" filter="url(#filter1_d_363_5534)">
<path fill-rule="evenodd" clip-rule="evenodd" d="M29.9163 6.65743C27.1989 7.30028 24.9192 9.81037 24.4579 12.6673C24.2073 14.2199 24.2064 86.7132 24.4572 88.2514C24.9467 91.2555 27.239 93.6194 30.2935 94.2703C31.5741 94.5431 66.0754 94.5464 67.3772 94.2736C70.4219 93.6361 72.723 91.2617 73.2136 88.2514C73.4604 86.7368 73.4638 14.2323 73.2172 12.6673C72.8361 10.2497 71.2591 8.19714 68.9439 7.10517L67.7749 6.55394L49.1813 6.52621C38.3213 6.5102 30.3084 6.56479 29.9163 6.65743ZM37.3274 11.2027C37.6376 12.0494 37.9773 12.6416 38.3151 12.9247L38.83 13.3561H48.8354H58.8408L59.3557 12.9247C59.6935 12.6416 60.0332 12.0494 60.3433 11.2027L60.8162 9.91197H63.6049C67.4468 9.91197 68.4512 10.2841 69.3259 12.0317L69.764 12.9072V50.4199C69.764 91.5767 69.8409 88.5612 68.7603 89.7086C67.6235 90.9156 68.9218 90.8414 48.8731 90.8455C29.131 90.8496 30.1797 90.9023 29.0525 89.85C27.8091 88.6891 27.9144 92.3328 27.9144 50.4667C27.9144 13.7791 27.922 12.9099 28.247 12.2368C29.1961 10.2715 30.0413 9.92988 33.9806 9.91955L36.8546 9.91197L37.3274 11.2027Z" fill="#111111"/>
<path fill-rule="evenodd" clip-rule="evenodd" d="M29.9163 6.65743C27.1989 7.30028 24.9192 9.81037 24.4579 12.6673C24.2073 14.2199 24.2064 86.7132 24.4572 88.2514C24.9467 91.2555 27.239 93.6194 30.2935 94.2703C31.5741 94.5431 66.0754 94.5464 67.3772 94.2736C70.4219 93.6361 72.723 91.2617 73.2136 88.2514C73.4604 86.7368 73.4638 14.2323 73.2172 12.6673C72.8361 10.2497 71.2591 8.19714 68.9439 7.10517L67.7749 6.55394L49.1813 6.52621C38.3213 6.5102 30.3084 6.56479 29.9163 6.65743ZM37.3274 11.2027C37.6376 12.0494 37.9773 12.6416 38.3151 12.9247L38.83 13.3561H48.8354H58.8408L59.3557 12.9247C59.6935 12.6416 60.0332 12.0494 60.3433 11.2027L60.8162 9.91197H63.6049C67.4468 9.91197 68.4512 10.2841 69.3259 12.0317L69.764 12.9072V50.4199C69.764 91.5767 69.8409 88.5612 68.7603 89.7086C67.6235 90.9156 68.9218 90.8414 48.8731 90.8455C29.131 90.8496 30.1797 90.9023 29.0525 89.85C27.8091 88.6891 27.9144 92.3328 27.9144 50.4667C27.9144 13.7791 27.922 12.9099 28.247 12.2368C29.1961 10.2715 30.0413 9.92988 33.9806 9.91955L36.8546 9.91197L37.3274 11.2027Z" fill="#4B4B4B"/>
<path d="M67.7242 6.77961L68.8476 7.30935C71.0989 8.37117 72.6254 10.3626 72.9942 12.7024C72.9994 12.7354 73.0066 12.8387 73.014 13.0264C73.0211 13.2076 73.0281 13.4541 73.0348 13.7623C73.0482 14.3785 73.0607 15.2373 73.0722 16.3047C73.0953 18.4392 73.1144 21.4052 73.1296 24.9255C73.1601 31.9661 73.1751 41.2229 73.1747 50.4782C73.1742 59.7336 73.1584 68.9872 73.1272 76.0215C73.1116 79.5387 73.0922 82.5007 73.069 84.6305C73.0573 85.6955 73.0448 86.5518 73.0313 87.1652C73.0245 87.4719 73.0176 87.7171 73.0104 87.8967C73.003 88.0833 72.9958 88.1843 72.9907 88.2151C72.5156 91.1309 70.2867 93.4338 67.331 94.0527L67.3772 94.2736L67.331 94.0527C67.2715 94.0651 67.0818 94.0808 66.75 94.096C66.4279 94.1108 65.9918 94.1246 65.4572 94.1373C64.3882 94.1627 62.93 94.1839 61.2115 94.2008C57.775 94.2346 53.301 94.2512 48.8274 94.2508C44.3538 94.2504 39.8812 94.2329 36.4473 94.1986C34.7302 94.1814 33.2736 94.1599 32.2067 94.1343C31.6731 94.1215 31.2381 94.1077 30.9172 94.0928C30.5862 94.0775 30.3982 94.0618 30.3406 94.0496C27.3739 93.4173 25.154 91.1242 24.68 88.2151L24.4572 88.2514L24.68 88.215C24.6749 88.1835 24.6675 88.0817 24.66 87.8945C24.6527 87.7142 24.6457 87.4685 24.6388 87.1611C24.6252 86.5465 24.6124 85.6892 24.6007 84.6232C24.5772 82.4915 24.5577 79.528 24.542 76.0098C24.5108 68.9734 24.4952 59.7194 24.4953 50.4648C24.4954 41.2101 24.5111 31.9552 24.5425 24.917C24.5582 21.3979 24.5779 18.4333 24.6014 16.3002C24.6131 15.2336 24.6259 14.3755 24.6395 13.7601C24.6464 13.4523 24.6534 13.2062 24.6607 13.0254C24.6682 12.838 24.6756 12.7355 24.6808 12.7033C25.1282 9.93223 27.3439 7.49799 29.9682 6.87713L67.7242 6.77961ZM37.5394 11.125L37.5394 11.125L37.0665 9.83431L37.0121 9.68581L36.854 9.68623L33.98 9.69381C32.0176 9.69895 30.7772 9.78444 29.9079 10.1358C29.0094 10.4989 28.5283 11.1352 28.0437 12.1386L28.0437 12.1386C27.9428 12.3478 27.8795 12.5645 27.8326 13.321C27.7858 14.0773 27.7544 15.4015 27.7331 17.8443C27.6906 22.733 27.6887 32.1236 27.6887 50.4667C27.6887 53.7581 27.688 56.7684 27.6874 59.5219C27.6842 74.2778 27.6826 81.6608 27.7915 85.4293C27.8238 86.5478 27.866 87.3524 27.9212 87.9388C27.9762 88.5222 28.0452 88.9036 28.1368 89.168C28.2328 89.4449 28.3551 89.5971 28.5053 89.7176C28.5555 89.7579 28.6111 89.7962 28.661 89.8306C28.6765 89.8412 28.6913 89.8514 28.7053 89.8612C28.7687 89.9056 28.8316 89.9526 28.8985 90.015C28.9457 90.0591 28.9906 90.1031 29.0349 90.1465C29.2345 90.3424 29.4227 90.5269 29.7672 90.6605C30.1738 90.8182 30.7993 90.9105 31.9709 90.9694C34.0983 91.0762 38.1276 91.0748 46.1663 91.072C47.0223 91.0717 47.9237 91.0714 48.8731 91.0712C50.0363 91.071 51.1277 91.071 52.152 91.071C59.9505 91.0712 63.8603 91.0713 65.9216 90.9535C67.0812 90.8872 67.6925 90.7828 68.0876 90.5997C68.4047 90.4527 68.5831 90.249 68.7684 90.0374C68.8189 89.9796 68.87 89.9213 68.9246 89.8634C68.9839 89.8004 69.0396 89.7512 69.0975 89.701L69.1111 89.6892C69.1637 89.6437 69.2227 89.5926 69.2781 89.5337C69.4086 89.3949 69.5101 89.2236 69.5905 88.9337C69.7442 88.3798 69.8353 87.3327 69.893 85.0735C69.9935 81.142 69.9925 73.456 69.9904 58.0921C69.9901 55.7222 69.9897 53.1696 69.9897 50.4199V12.9072V12.8538L69.9658 12.8061L69.5277 11.9306L69.3259 12.0317L69.5277 11.9306C69.0742 11.0246 68.5679 10.4425 67.6565 10.1048C66.7727 9.77733 65.5219 9.68623 63.6049 9.68623H60.8162H60.6585L60.6043 9.83431L60.1314 11.125L60.3433 11.2027L60.1314 11.125C59.8234 11.966 59.5002 12.5091 59.2107 12.7517L58.7587 13.1304H48.8354H38.912L38.4601 12.7517C38.1706 12.5091 37.8474 11.966 37.5394 11.125Z" stroke="#CDCDCD" stroke-opacity="0.2" stroke-width="0.45149"/>
</g>
<g id="Ellipse 1224" filter="url(#filter2_d_363_5534)">
<path d="M88.6755 69.6718C88.6755 64.6365 87.6838 59.6506 85.7569 54.9987C83.83 50.3467 81.0057 46.1198 77.4452 42.5594C73.8848 38.999 69.6579 36.1747 65.006 34.2478C60.354 32.3209 55.3681 31.3291 50.3329 31.3291C45.2977 31.3291 40.3117 32.3209 35.6598 34.2478C31.0078 36.1747 26.781 38.999 23.2205 42.5594C19.6601 46.1199 16.8358 50.3467 14.9089 54.9987C12.982 59.6506 11.9902 64.6365 11.9902 69.6718L50.3329 69.6718H88.6755Z" fill="#111111"/>
<path d="M88.6755 69.6718C88.6755 64.6365 87.6838 59.6506 85.7569 54.9987C83.83 50.3467 81.0057 46.1198 77.4452 42.5594C73.8848 38.999 69.6579 36.1747 65.006 34.2478C60.354 32.3209 55.3681 31.3291 50.3329 31.3291C45.2977 31.3291 40.3117 32.3209 35.6598 34.2478C31.0078 36.1747 26.781 38.999 23.2205 42.5594C19.6601 46.1199 16.8358 50.3467 14.9089 54.9987C12.982 59.6506 11.9902 64.6365 11.9902 69.6718L50.3329 69.6718H88.6755Z" fill="#4B4B4B"/>
<path d="M85.5483 55.085C87.4351 59.6401 88.4199 64.5172 88.4491 69.446H50.3329L12.2166 69.446C12.2458 64.5172 13.2307 59.6401 15.1175 55.085C17.033 50.4605 19.8407 46.2585 23.3802 42.719C26.9196 39.1795 31.1216 36.3719 35.7462 34.4563C40.3707 32.5408 45.3273 31.5548 50.3329 31.5548C55.3385 31.5548 60.295 32.5408 64.9196 34.4563C69.5441 36.3719 73.7461 39.1795 77.2856 42.719C80.8251 46.2585 83.6328 50.4605 85.5483 55.085Z" stroke="#CDCDCD" stroke-opacity="0.2" stroke-width="0.45149"/>
</g>
<g id="Group 18140782">
<g id="Subtract">
<path fill-rule="evenodd" clip-rule="evenodd" d="M23.1394 50.6233C25.3007 47.5168 27.9702 44.8073 31.0283 42.6051C32.5059 41.541 34.5347 42.0908 35.4478 43.6662C36.3609 45.2416 35.8087 47.2435 34.3575 48.3433C33.3891 49.0771 32.4666 49.8801 31.5977 50.749C28.4497 53.897 26.167 57.7485 24.9026 61.934C24.376 63.6772 22.6907 64.8912 20.896 64.5828C19.1013 64.2744 17.8804 62.5632 18.3643 60.8077C19.3659 57.1747 20.9781 53.7298 23.1394 50.6233ZM50.5201 69.6723C50.5198 69.6723 50.5197 69.6728 50.52 69.6728C50.5203 69.6729 50.5204 69.6726 50.5203 69.6725C50.5203 69.6724 50.5202 69.6723 50.5201 69.6723Z" fill="#1B1B1B"/>
<path fill-rule="evenodd" clip-rule="evenodd" d="M23.1394 50.6233C25.3007 47.5168 27.9702 44.8073 31.0283 42.6051C32.5059 41.541 34.5347 42.0908 35.4478 43.6662C36.3609 45.2416 35.8087 47.2435 34.3575 48.3433C33.3891 49.0771 32.4666 49.8801 31.5977 50.749C28.4497 53.897 26.167 57.7485 24.9026 61.934C24.376 63.6772 22.6907 64.8912 20.896 64.5828C19.1013 64.2744 17.8804 62.5632 18.3643 60.8077C19.3659 57.1747 20.9781 53.7298 23.1394 50.6233ZM50.5201 69.6723C50.5198 69.6723 50.5197 69.6728 50.52 69.6728C50.5203 69.6729 50.5204 69.6726 50.5203 69.6725C50.5203 69.6724 50.5202 69.6723 50.5201 69.6723Z" fill="url(#paint1_linear_363_5534)" fill-opacity="0.9"/>
</g>
<g id="Subtract_2">
<path fill-rule="evenodd" clip-rule="evenodd" d="M77.5286 51.3929C75.3673 48.2863 72.6978 45.5769 69.6397 43.3746C68.1621 42.3106 66.1332 42.8603 65.2202 44.4357C64.3071 46.0111 64.8593 48.013 66.3105 49.1128C67.2789 49.8467 68.2014 50.6497 69.0703 51.5186C72.2183 54.6666 74.501 58.518 75.7654 62.7035C76.292 64.4467 77.9772 65.6607 79.772 65.3523C81.5667 65.0439 82.7876 63.3327 82.3036 61.5772C81.302 57.9442 79.6898 54.4994 77.5286 51.3929ZM50.1479 70.4419C50.1482 70.4419 50.1482 70.4423 50.1479 70.4424C50.1477 70.4424 50.1475 70.4422 50.1477 70.442C50.1477 70.4419 50.1478 70.4419 50.1479 70.4419Z" fill="#1B1B1B"/>
<path fill-rule="evenodd" clip-rule="evenodd" d="M77.5286 51.3929C75.3673 48.2863 72.6978 45.5769 69.6397 43.3746C68.1621 42.3106 66.1332 42.8603 65.2202 44.4357C64.3071 46.0111 64.8593 48.013 66.3105 49.1128C67.2789 49.8467 68.2014 50.6497 69.0703 51.5186C72.2183 54.6666 74.501 58.518 75.7654 62.7035C76.292 64.4467 77.9772 65.6607 79.772 65.3523C81.5667 65.0439 82.7876 63.3327 82.3036 61.5772C81.302 57.9442 79.6898 54.4994 77.5286 51.3929ZM50.1479 70.4419C50.1482 70.4419 50.1482 70.4423 50.1479 70.4424C50.1477 70.4424 50.1475 70.4422 50.1477 70.442C50.1477 70.4419 50.1478 70.4419 50.1479 70.4419Z" fill="url(#paint2_linear_363_5534)" fill-opacity="0.9"/>
</g>
<g id="Subtract_3">
<path fill-rule="evenodd" clip-rule="evenodd" d="M50.3636 36.7725C46.5797 36.7074 42.8206 37.2868 39.2453 38.4781C37.5178 39.0537 36.7764 41.0207 37.5197 42.683C38.263 44.3454 40.2097 45.069 41.9508 44.5356C43.1126 44.1797 44.3037 43.9014 45.5169 43.7052C49.9116 42.9945 54.3704 43.3969 58.5043 44.8205C60.226 45.4135 62.1964 44.7572 62.9965 43.1214C63.7965 41.4856 63.1233 39.4943 61.4165 38.8596C57.8844 37.546 54.1474 36.8376 50.3636 36.7725Z" fill="#1B1B1B"/>
<path fill-rule="evenodd" clip-rule="evenodd" d="M50.3636 36.7725C46.5797 36.7074 42.8206 37.2868 39.2453 38.4781C37.5178 39.0537 36.7764 41.0207 37.5197 42.683C38.263 44.3454 40.2097 45.069 41.9508 44.5356C43.1126 44.1797 44.3037 43.9014 45.5169 43.7052C49.9116 42.9945 54.3704 43.3969 58.5043 44.8205C60.226 45.4135 62.1964 44.7572 62.9965 43.1214C63.7965 41.4856 63.1233 39.4943 61.4165 38.8596C57.8844 37.546 54.1474 36.8376 50.3636 36.7725Z" fill="url(#paint3_linear_363_5534)" fill-opacity="0.9"/>
</g>
</g>
<path id="Ellipse 1227" d="M50.3093 38.913C51.5072 38.913 56.023 50.4256 56.023 61.3401C56.023 64.4956 53.4649 67.0537 50.3093 67.0537C47.1538 67.0537 44.5957 64.4956 44.5957 61.3401C44.5957 49.4051 48.978 38.913 50.3093 38.913Z" fill="#C8C8C8"/>
</g>
</g>
<defs>
<filter id="filter0_d_363_5534" x="11.9121" y="-2.08691" width="65.8535" height="104.936" filterUnits="userSpaceOnUse" color-interpolation-filters="sRGB">
<feFlood flood-opacity="0" result="BackgroundImageFix"/>
<feColorMatrix in="SourceAlpha" type="matrix" values="0 0 0 0 0 0 0 0 0 0 0 0 0 0 0 0 0 0 127 0" result="hardAlpha"/>
<feOffset dx="-4"/>
<feGaussianBlur stdDeviation="6"/>
<feComposite in2="hardAlpha" operator="out"/>
<feColorMatrix type="matrix" values="0 0 0 0 0 0 0 0 0 0 0 0 0 0 0 0 0 0 0.45 0"/>
<feBlend mode="normal" in2="BackgroundImageFix" result="effect1_dropShadow_363_5534"/>
<feBlend mode="normal" in="SourceGraphic" in2="effect1_dropShadow_363_5534" result="shape"/>
</filter>
<filter id="filter1_d_363_5534" x="6.20991" y="-7.02128" width="76.2203" height="115.043" filterUnits="userSpaceOnUse" color-interpolation-filters="sRGB">
<feFlood flood-opacity="0" result="BackgroundImageFix"/>
<feColorMatrix in="SourceAlpha" type="matrix" values="0 0 0 0 0 0 0 0 0 0 0 0 0 0 0 0 0 0 127 0" result="hardAlpha"/>
<feOffset dx="-4.5149"/>
<feGaussianBlur stdDeviation="6.77236"/>
<feComposite in2="hardAlpha" operator="out"/>
<feColorMatrix type="matrix" values="0 0 0 0 0 0 0 0 0 0 0 0 0 0 0 0 0 0 0.45 0"/>
<feBlend mode="normal" in2="BackgroundImageFix" result="effect1_dropShadow_363_5534"/>
<feBlend mode="normal" in="SourceGraphic" in2="effect1_dropShadow_363_5534" result="shape"/>
</filter>
<filter id="filter2_d_363_5534" x="-6.06938" y="17.7844" width="103.775" height="65.4322" filterUnits="userSpaceOnUse" color-interpolation-filters="sRGB">
<feFlood flood-opacity="0" result="BackgroundImageFix"/>
<feColorMatrix in="SourceAlpha" type="matrix" values="0 0 0 0 0 0 0 0 0 0 0 0 0 0 0 0 0 0 127 0" result="hardAlpha"/>
<feOffset dx="-4.5149"/>
<feGaussianBlur stdDeviation="6.77236"/>
<feComposite in2="hardAlpha" operator="out"/>
<feColorMatrix type="matrix" values="0 0 0 0 0 0 0 0 0 0 0 0 0 0 0 0 0 0 0.45 0"/>
<feBlend mode="normal" in2="BackgroundImageFix" result="effect1_dropShadow_363_5534"/>
<feBlend mode="normal" in="SourceGraphic" in2="effect1_dropShadow_363_5534" result="shape"/>
</filter>
<linearGradient id="paint0_linear_363_5534" x1="48.8386" y1="-8.26487" x2="48.8386" y2="78.512" gradientUnits="userSpaceOnUse">
<stop stop-color="#252525"/>
<stop offset="1" stop-color="#252525" stop-opacity="0"/>
</linearGradient>
<linearGradient id="paint1_linear_363_5534" x1="34.3891" y1="35.8529" x2="34.3891" y2="65.4634" gradientUnits="userSpaceOnUse">
<stop stop-color="#252525"/>
<stop offset="1" stop-color="#252525" stop-opacity="0"/>
</linearGradient>
<linearGradient id="paint2_linear_363_5534" x1="66.2788" y1="36.6224" x2="66.2788" y2="66.233" gradientUnits="userSpaceOnUse">
<stop stop-color="#252525"/>
<stop offset="1" stop-color="#252525" stop-opacity="0"/>
</linearGradient>
<linearGradient id="paint3_linear_363_5534" x1="50.3095" y1="34.6753" x2="50.3095" y2="44.6633" gradientUnits="userSpaceOnUse">
<stop stop-color="#252525"/>
<stop offset="1" stop-color="#252525" stop-opacity="0"/>
</linearGradient>
<clipPath id="clip0_363_5534">
<rect width="100" height="100" fill="white" transform="translate(0.332031 0.5)"/>
</clipPath>
</defs>
</svg>
